<?xml version="1.0" encoding="utf-8" standalone="no"?>
<!DOCTYPE svg PUBLIC "-//W3C//DTD SVG 1.1//EN"
  "http://www.w3.org/Graphics/SVG/1.1/DTD/svg11.dtd">
<!-- Created with matplotlib (https://matplotlib.org/) -->
<svg height="330.541644pt" version="1.1" viewBox="0 0 1000.058125 330.541644" width="1000.058125pt" xmlns="http://www.w3.org/2000/svg" xmlns:xlink="http://www.w3.org/1999/xlink">
 <defs>
  <style type="text/css">
*{stroke-linecap:butt;stroke-linejoin:round;}
  </style>
 </defs>
 <g id="figure_1">
  <g id="axes_1">
   <g id="patch_1">
    <path d="M 63.508125 273.99006 
L 985.223125 273.99006 
L 985.223125 31.48286 
L 63.508125 31.48286 
z
" style="fill:#ffffff;"/>
   </g>
   <g id="matplotlib.axis_1">
    <g id="xtick_1">
     <g id="text_1">
      <!-- 0 -->
      <defs>
       <path d="M 31.78125 66.40625 
Q 24.171875 66.40625 20.328125 58.90625 
Q 16.5 51.421875 16.5 36.375 
Q 16.5 21.390625 20.328125 13.890625 
Q 24.171875 6.390625 31.78125 6.390625 
Q 39.453125 6.390625 43.28125 13.890625 
Q 47.125 21.390625 47.125 36.375 
Q 47.125 51.421875 43.28125 58.90625 
Q 39.453125 66.40625 31.78125 66.40625 
z
M 31.78125 74.21875 
Q 44.046875 74.21875 50.515625 64.515625 
Q 56.984375 54.828125 56.984375 36.375 
Q 56.984375 17.96875 50.515625 8.265625 
Q 44.046875 -1.421875 31.78125 -1.421875 
Q 19.53125 -1.421875 13.0625 8.265625 
Q 6.59375 17.96875 6.59375 36.375 
Q 6.59375 54.828125 13.0625 64.515625 
Q 19.53125 74.21875 31.78125 74.21875 
z
" id="DejaVuSans-48"/>
      </defs>
      <g transform="translate(60.963125 287.06881)scale(0.08 -0.08)">
       <use xlink:href="#DejaVuSans-48"/>
      </g>
     </g>
    </g>
    <g id="xtick_2">
     <g id="text_2">
      <!-- 20 -->
      <defs>
       <path d="M 19.1875 8.296875 
L 53.609375 8.296875 
L 53.609375 0 
L 7.328125 0 
L 7.328125 8.296875 
Q 12.9375 14.109375 22.625 23.890625 
Q 32.328125 33.6875 34.8125 36.53125 
Q 39.546875 41.84375 41.421875 45.53125 
Q 43.3125 49.21875 43.3125 52.78125 
Q 43.3125 58.59375 39.234375 62.25 
Q 35.15625 65.921875 28.609375 65.921875 
Q 23.96875 65.921875 18.8125 64.3125 
Q 13.671875 62.703125 7.8125 59.421875 
L 7.8125 69.390625 
Q 13.765625 71.78125 18.9375 73 
Q 24.125 74.21875 28.421875 74.21875 
Q 39.75 74.21875 46.484375 68.546875 
Q 53.21875 62.890625 53.21875 53.421875 
Q 53.21875 48.921875 51.53125 44.890625 
Q 49.859375 40.875 45.40625 35.40625 
Q 44.1875 33.984375 37.640625 27.21875 
Q 31.109375 20.453125 19.1875 8.296875 
z
" id="DejaVuSans-50"/>
      </defs>
      <g transform="translate(242.761125 287.06881)scale(0.08 -0.08)">
       <use xlink:href="#DejaVuSans-50"/>
       <use x="63.623047" xlink:href="#DejaVuSans-48"/>
      </g>
     </g>
    </g>
    <g id="xtick_3">
     <g id="text_3">
      <!-- 40 -->
      <defs>
       <path d="M 37.796875 64.3125 
L 12.890625 25.390625 
L 37.796875 25.390625 
z
M 35.203125 72.90625 
L 47.609375 72.90625 
L 47.609375 25.390625 
L 58.015625 25.390625 
L 58.015625 17.1875 
L 47.609375 17.1875 
L 47.609375 0 
L 37.796875 0 
L 37.796875 17.1875 
L 4.890625 17.1875 
L 4.890625 26.703125 
z
" id="DejaVuSans-52"/>
      </defs>
      <g transform="translate(427.104125 287.06881)scale(0.08 -0.08)">
       <use xlink:href="#DejaVuSans-52"/>
       <use x="63.623047" xlink:href="#DejaVuSans-48"/>
      </g>
     </g>
    </g>
    <g id="xtick_4">
     <g id="text_4">
      <!-- 60 -->
      <defs>
       <path d="M 33.015625 40.375 
Q 26.375 40.375 22.484375 35.828125 
Q 18.609375 31.296875 18.609375 23.390625 
Q 18.609375 15.53125 22.484375 10.953125 
Q 26.375 6.390625 33.015625 6.390625 
Q 39.65625 6.390625 43.53125 10.953125 
Q 47.40625 15.53125 47.40625 23.390625 
Q 47.40625 31.296875 43.53125 35.828125 
Q 39.65625 40.375 33.015625 40.375 
z
M 52.59375 71.296875 
L 52.59375 62.3125 
Q 48.875 64.0625 45.09375 64.984375 
Q 41.3125 65.921875 37.59375 65.921875 
Q 27.828125 65.921875 22.671875 59.328125 
Q 17.53125 52.734375 16.796875 39.40625 
Q 19.671875 43.65625 24.015625 45.921875 
Q 28.375 48.1875 33.59375 48.1875 
Q 44.578125 48.1875 50.953125 41.515625 
Q 57.328125 34.859375 57.328125 23.390625 
Q 57.328125 12.15625 50.6875 5.359375 
Q 44.046875 -1.421875 33.015625 -1.421875 
Q 20.359375 -1.421875 13.671875 8.265625 
Q 6.984375 17.96875 6.984375 36.375 
Q 6.984375 53.65625 15.1875 63.9375 
Q 23.390625 74.21875 37.203125 74.21875 
Q 40.921875 74.21875 44.703125 73.484375 
Q 48.484375 72.75 52.59375 71.296875 
z
" id="DejaVuSans-54"/>
      </defs>
      <g transform="translate(611.447125 287.06881)scale(0.08 -0.08)">
       <use xlink:href="#DejaVuSans-54"/>
       <use x="63.623047" xlink:href="#DejaVuSans-48"/>
      </g>
     </g>
    </g>
    <g id="xtick_5">
     <g id="text_5">
      <!-- 80 -->
      <defs>
       <path d="M 31.78125 34.625 
Q 24.75 34.625 20.71875 30.859375 
Q 16.703125 27.09375 16.703125 20.515625 
Q 16.703125 13.921875 20.71875 10.15625 
Q 24.75 6.390625 31.78125 6.390625 
Q 38.8125 6.390625 42.859375 10.171875 
Q 46.921875 13.96875 46.921875 20.515625 
Q 46.921875 27.09375 42.890625 30.859375 
Q 38.875 34.625 31.78125 34.625 
z
M 21.921875 38.8125 
Q 15.578125 40.375 12.03125 44.71875 
Q 8.5 49.078125 8.5 55.328125 
Q 8.5 64.0625 14.71875 69.140625 
Q 20.953125 74.21875 31.78125 74.21875 
Q 42.671875 74.21875 48.875 69.140625 
Q 55.078125 64.0625 55.078125 55.328125 
Q 55.078125 49.078125 51.53125 44.71875 
Q 48 40.375 41.703125 38.8125 
Q 48.828125 37.15625 52.796875 32.3125 
Q 56.78125 27.484375 56.78125 20.515625 
Q 56.78125 9.90625 50.3125 4.234375 
Q 43.84375 -1.421875 31.78125 -1.421875 
Q 19.734375 -1.421875 13.25 4.234375 
Q 6.78125 9.90625 6.78125 20.515625 
Q 6.78125 27.484375 10.78125 32.3125 
Q 14.796875 37.15625 21.921875 38.8125 
z
M 18.3125 54.390625 
Q 18.3125 48.734375 21.84375 45.5625 
Q 25.390625 42.390625 31.78125 42.390625 
Q 38.140625 42.390625 41.71875 45.5625 
Q 45.3125 48.734375 45.3125 54.390625 
Q 45.3125 60.0625 41.71875 63.234375 
Q 38.140625 66.40625 31.78125 66.40625 
Q 25.390625 66.40625 21.84375 63.234375 
Q 18.3125 60.0625 18.3125 54.390625 
z
" id="DejaVuSans-56"/>
      </defs>
      <g transform="translate(795.790125 287.06881)scale(0.08 -0.08)">
       <use xlink:href="#DejaVuSans-56"/>
       <use x="63.623047" xlink:href="#DejaVuSans-48"/>
      </g>
     </g>
    </g>
    <g id="xtick_6">
     <g id="text_6">
      <!-- 100 -->
      <defs>
       <path d="M 12.40625 8.296875 
L 28.515625 8.296875 
L 28.515625 63.921875 
L 10.984375 60.40625 
L 10.984375 69.390625 
L 28.421875 72.90625 
L 38.28125 72.90625 
L 38.28125 8.296875 
L 54.390625 8.296875 
L 54.390625 0 
L 12.40625 0 
z
" id="DejaVuSans-49"/>
      </defs>
      <g transform="translate(977.588125 287.06881)scale(0.08 -0.08)">
       <use xlink:href="#DejaVuSans-49"/>
       <use x="63.623047" xlink:href="#DejaVuSans-48"/>
       <use x="127.246094" xlink:href="#DejaVuSans-48"/>
      </g>
     </g>
    </g>
    <g id="text_7">
     <!-- % GC -->
     <defs>
      <path d="M 72.703125 32.078125 
Q 68.453125 32.078125 66.03125 28.46875 
Q 63.625 24.859375 63.625 18.40625 
Q 63.625 12.0625 66.03125 8.421875 
Q 68.453125 4.78125 72.703125 4.78125 
Q 76.859375 4.78125 79.265625 8.421875 
Q 81.6875 12.0625 81.6875 18.40625 
Q 81.6875 24.8125 79.265625 28.4375 
Q 76.859375 32.078125 72.703125 32.078125 
z
M 72.703125 38.28125 
Q 80.421875 38.28125 84.953125 32.90625 
Q 89.5 27.546875 89.5 18.40625 
Q 89.5 9.28125 84.9375 3.921875 
Q 80.375 -1.421875 72.703125 -1.421875 
Q 64.890625 -1.421875 60.34375 3.921875 
Q 55.8125 9.28125 55.8125 18.40625 
Q 55.8125 27.59375 60.375 32.9375 
Q 64.9375 38.28125 72.703125 38.28125 
z
M 22.3125 68.015625 
Q 18.109375 68.015625 15.6875 64.375 
Q 13.28125 60.75 13.28125 54.390625 
Q 13.28125 47.953125 15.671875 44.328125 
Q 18.0625 40.71875 22.3125 40.71875 
Q 26.5625 40.71875 28.96875 44.328125 
Q 31.390625 47.953125 31.390625 54.390625 
Q 31.390625 60.6875 28.953125 64.34375 
Q 26.515625 68.015625 22.3125 68.015625 
z
M 66.40625 74.21875 
L 74.21875 74.21875 
L 28.609375 -1.421875 
L 20.796875 -1.421875 
z
M 22.3125 74.21875 
Q 30.03125 74.21875 34.609375 68.875 
Q 39.203125 63.53125 39.203125 54.390625 
Q 39.203125 45.171875 34.640625 39.84375 
Q 30.078125 34.515625 22.3125 34.515625 
Q 14.546875 34.515625 10.03125 39.859375 
Q 5.515625 45.21875 5.515625 54.390625 
Q 5.515625 63.484375 10.046875 68.84375 
Q 14.59375 74.21875 22.3125 74.21875 
z
" id="DejaVuSans-37"/>
      <path id="DejaVuSans-32"/>
      <path d="M 59.515625 10.40625 
L 59.515625 29.984375 
L 43.40625 29.984375 
L 43.40625 38.09375 
L 69.28125 38.09375 
L 69.28125 6.78125 
Q 63.578125 2.734375 56.6875 0.65625 
Q 49.8125 -1.421875 42 -1.421875 
Q 24.90625 -1.421875 15.25 8.5625 
Q 5.609375 18.5625 5.609375 36.375 
Q 5.609375 54.25 15.25 64.234375 
Q 24.90625 74.21875 42 74.21875 
Q 49.125 74.21875 55.546875 72.453125 
Q 61.96875 70.703125 67.390625 67.28125 
L 67.390625 56.78125 
Q 61.921875 61.421875 55.765625 63.765625 
Q 49.609375 66.109375 42.828125 66.109375 
Q 29.4375 66.109375 22.71875 58.640625 
Q 16.015625 51.171875 16.015625 36.375 
Q 16.015625 21.625 22.71875 14.15625 
Q 29.4375 6.6875 42.828125 6.6875 
Q 48.046875 6.6875 52.140625 7.59375 
Q 56.25 8.5 59.515625 10.40625 
z
" id="DejaVuSans-71"/>
      <path d="M 64.40625 67.28125 
L 64.40625 56.890625 
Q 59.421875 61.53125 53.78125 63.8125 
Q 48.140625 66.109375 41.796875 66.109375 
Q 29.296875 66.109375 22.65625 58.46875 
Q 16.015625 50.828125 16.015625 36.375 
Q 16.015625 21.96875 22.65625 14.328125 
Q 29.296875 6.6875 41.796875 6.6875 
Q 48.140625 6.6875 53.78125 8.984375 
Q 59.421875 11.28125 64.40625 15.921875 
L 64.40625 5.609375 
Q 59.234375 2.09375 53.4375 0.328125 
Q 47.65625 -1.421875 41.21875 -1.421875 
Q 24.65625 -1.421875 15.125 8.703125 
Q 5.609375 18.84375 5.609375 36.375 
Q 5.609375 53.953125 15.125 64.078125 
Q 24.65625 74.21875 41.21875 74.21875 
Q 47.75 74.21875 53.53125 72.484375 
Q 59.328125 70.75 64.40625 67.28125 
z
" id="DejaVuSans-67"/>
     </defs>
     <g transform="translate(510.660156 300.330997)scale(0.1 -0.1)">
      <use xlink:href="#DejaVuSans-37"/>
      <use x="95.019531" xlink:href="#DejaVuSans-32"/>
      <use x="126.806641" xlink:href="#DejaVuSans-71"/>
      <use x="204.296875" xlink:href="#DejaVuSans-67"/>
     </g>
    </g>
   </g>
   <g id="matplotlib.axis_2">
    <g id="ytick_1">
     <g id="line2d_1">
      <path clip-path="url(#pe780e12a8a)" d="M 63.508125 273.99006 
L 985.223125 273.99006 
" style="fill:none;stroke:#dedede;stroke-linecap:square;"/>
     </g>
     <g id="text_8">
      <!-- 0 -->
      <g transform="translate(51.418125 277.029435)scale(0.08 -0.08)">
       <use xlink:href="#DejaVuSans-48"/>
      </g>
     </g>
    </g>
    <g id="ytick_2">
     <g id="line2d_2">
      <path clip-path="url(#pe780e12a8a)" d="M 63.508125 246.41222 
L 985.223125 246.41222 
" style="fill:none;stroke:#dedede;stroke-linecap:square;"/>
     </g>
     <g id="text_9">
      <!-- 200000 -->
      <g transform="translate(25.968125 249.451595)scale(0.08 -0.08)">
       <use xlink:href="#DejaVuSans-50"/>
       <use x="63.623047" xlink:href="#DejaVuSans-48"/>
       <use x="127.246094" xlink:href="#DejaVuSans-48"/>
       <use x="190.869141" xlink:href="#DejaVuSans-48"/>
       <use x="254.492188" xlink:href="#DejaVuSans-48"/>
       <use x="318.115234" xlink:href="#DejaVuSans-48"/>
      </g>
     </g>
    </g>
    <g id="ytick_3">
     <g id="line2d_3">
      <path clip-path="url(#pe780e12a8a)" d="M 63.508125 218.83438 
L 985.223125 218.83438 
" style="fill:none;stroke:#dedede;stroke-linecap:square;"/>
     </g>
     <g id="text_10">
      <!-- 400000 -->
      <g transform="translate(25.968125 221.873755)scale(0.08 -0.08)">
       <use xlink:href="#DejaVuSans-52"/>
       <use x="63.623047" xlink:href="#DejaVuSans-48"/>
       <use x="127.246094" xlink:href="#DejaVuSans-48"/>
       <use x="190.869141" xlink:href="#DejaVuSans-48"/>
       <use x="254.492188" xlink:href="#DejaVuSans-48"/>
       <use x="318.115234" xlink:href="#DejaVuSans-48"/>
      </g>
     </g>
    </g>
    <g id="ytick_4">
     <g id="line2d_4">
      <path clip-path="url(#pe780e12a8a)" d="M 63.508125 191.25654 
L 985.223125 191.25654 
" style="fill:none;stroke:#dedede;stroke-linecap:square;"/>
     </g>
     <g id="text_11">
      <!-- 600000 -->
      <g transform="translate(25.968125 194.295915)scale(0.08 -0.08)">
       <use xlink:href="#DejaVuSans-54"/>
       <use x="63.623047" xlink:href="#DejaVuSans-48"/>
       <use x="127.246094" xlink:href="#DejaVuSans-48"/>
       <use x="190.869141" xlink:href="#DejaVuSans-48"/>
       <use x="254.492188" xlink:href="#DejaVuSans-48"/>
       <use x="318.115234" xlink:href="#DejaVuSans-48"/>
      </g>
     </g>
    </g>
    <g id="ytick_5">
     <g id="line2d_5">
      <path clip-path="url(#pe780e12a8a)" d="M 63.508125 163.678701 
L 985.223125 163.678701 
" style="fill:none;stroke:#dedede;stroke-linecap:square;"/>
     </g>
     <g id="text_12">
      <!-- 800000 -->
      <g transform="translate(25.968125 166.718076)scale(0.08 -0.08)">
       <use xlink:href="#DejaVuSans-56"/>
       <use x="63.623047" xlink:href="#DejaVuSans-48"/>
       <use x="127.246094" xlink:href="#DejaVuSans-48"/>
       <use x="190.869141" xlink:href="#DejaVuSans-48"/>
       <use x="254.492188" xlink:href="#DejaVuSans-48"/>
       <use x="318.115234" xlink:href="#DejaVuSans-48"/>
      </g>
     </g>
    </g>
    <g id="ytick_6">
     <g id="line2d_6">
      <path clip-path="url(#pe780e12a8a)" d="M 63.508125 136.100861 
L 985.223125 136.100861 
" style="fill:none;stroke:#dedede;stroke-linecap:square;"/>
     </g>
     <g id="text_13">
      <!-- 1000000 -->
      <g transform="translate(20.878125 139.140236)scale(0.08 -0.08)">
       <use xlink:href="#DejaVuSans-49"/>
       <use x="63.623047" xlink:href="#DejaVuSans-48"/>
       <use x="127.246094" xlink:href="#DejaVuSans-48"/>
       <use x="190.869141" xlink:href="#DejaVuSans-48"/>
       <use x="254.492188" xlink:href="#DejaVuSans-48"/>
       <use x="318.115234" xlink:href="#DejaVuSans-48"/>
       <use x="381.738281" xlink:href="#DejaVuSans-48"/>
      </g>
     </g>
    </g>
    <g id="ytick_7">
     <g id="line2d_7">
      <path clip-path="url(#pe780e12a8a)" d="M 63.508125 108.523021 
L 985.223125 108.523021 
" style="fill:none;stroke:#dedede;stroke-linecap:square;"/>
     </g>
     <g id="text_14">
      <!-- 1200000 -->
      <g transform="translate(20.878125 111.562396)scale(0.08 -0.08)">
       <use xlink:href="#DejaVuSans-49"/>
       <use x="63.623047" xlink:href="#DejaVuSans-50"/>
       <use x="127.246094" xlink:href="#DejaVuSans-48"/>
       <use x="190.869141" xlink:href="#DejaVuSans-48"/>
       <use x="254.492188" xlink:href="#DejaVuSans-48"/>
       <use x="318.115234" xlink:href="#DejaVuSans-48"/>
       <use x="381.738281" xlink:href="#DejaVuSans-48"/>
      </g>
     </g>
    </g>
    <g id="ytick_8">
     <g id="line2d_8">
      <path clip-path="url(#pe780e12a8a)" d="M 63.508125 80.945181 
L 985.223125 80.945181 
" style="fill:none;stroke:#dedede;stroke-linecap:square;"/>
     </g>
     <g id="text_15">
      <!-- 1400000 -->
      <g transform="translate(20.878125 83.984556)scale(0.08 -0.08)">
       <use xlink:href="#DejaVuSans-49"/>
       <use x="63.623047" xlink:href="#DejaVuSans-52"/>
       <use x="127.246094" xlink:href="#DejaVuSans-48"/>
       <use x="190.869141" xlink:href="#DejaVuSans-48"/>
       <use x="254.492188" xlink:href="#DejaVuSans-48"/>
       <use x="318.115234" xlink:href="#DejaVuSans-48"/>
       <use x="381.738281" xlink:href="#DejaVuSans-48"/>
      </g>
     </g>
    </g>
    <g id="ytick_9">
     <g id="line2d_9">
      <path clip-path="url(#pe780e12a8a)" d="M 63.508125 53.367341 
L 985.223125 53.367341 
" style="fill:none;stroke:#dedede;stroke-linecap:square;"/>
     </g>
     <g id="text_16">
      <!-- 1600000 -->
      <g transform="translate(20.878125 56.406716)scale(0.08 -0.08)">
       <use xlink:href="#DejaVuSans-49"/>
       <use x="63.623047" xlink:href="#DejaVuSans-54"/>
       <use x="127.246094" xlink:href="#DejaVuSans-48"/>
       <use x="190.869141" xlink:href="#DejaVuSans-48"/>
       <use x="254.492188" xlink:href="#DejaVuSans-48"/>
       <use x="318.115234" xlink:href="#DejaVuSans-48"/>
       <use x="381.738281" xlink:href="#DejaVuSans-48"/>
      </g>
     </g>
    </g>
    <g id="text_17">
     <!-- Count -->
     <defs>
      <path d="M 30.609375 48.390625 
Q 23.390625 48.390625 19.1875 42.75 
Q 14.984375 37.109375 14.984375 27.296875 
Q 14.984375 17.484375 19.15625 11.84375 
Q 23.34375 6.203125 30.609375 6.203125 
Q 37.796875 6.203125 41.984375 11.859375 
Q 46.1875 17.53125 46.1875 27.296875 
Q 46.1875 37.015625 41.984375 42.703125 
Q 37.796875 48.390625 30.609375 48.390625 
z
M 30.609375 56 
Q 42.328125 56 49.015625 48.375 
Q 55.71875 40.765625 55.71875 27.296875 
Q 55.71875 13.875 49.015625 6.21875 
Q 42.328125 -1.421875 30.609375 -1.421875 
Q 18.84375 -1.421875 12.171875 6.21875 
Q 5.515625 13.875 5.515625 27.296875 
Q 5.515625 40.765625 12.171875 48.375 
Q 18.84375 56 30.609375 56 
z
" id="DejaVuSans-111"/>
      <path d="M 8.5 21.578125 
L 8.5 54.6875 
L 17.484375 54.6875 
L 17.484375 21.921875 
Q 17.484375 14.15625 20.5 10.265625 
Q 23.53125 6.390625 29.59375 6.390625 
Q 36.859375 6.390625 41.078125 11.03125 
Q 45.3125 15.671875 45.3125 23.6875 
L 45.3125 54.6875 
L 54.296875 54.6875 
L 54.296875 0 
L 45.3125 0 
L 45.3125 8.40625 
Q 42.046875 3.421875 37.71875 1 
Q 33.40625 -1.421875 27.6875 -1.421875 
Q 18.265625 -1.421875 13.375 4.4375 
Q 8.5 10.296875 8.5 21.578125 
z
M 31.109375 56 
z
" id="DejaVuSans-117"/>
      <path d="M 54.890625 33.015625 
L 54.890625 0 
L 45.90625 0 
L 45.90625 32.71875 
Q 45.90625 40.484375 42.875 44.328125 
Q 39.84375 48.1875 33.796875 48.1875 
Q 26.515625 48.1875 22.3125 43.546875 
Q 18.109375 38.921875 18.109375 30.90625 
L 18.109375 0 
L 9.078125 0 
L 9.078125 54.6875 
L 18.109375 54.6875 
L 18.109375 46.1875 
Q 21.34375 51.125 25.703125 53.5625 
Q 30.078125 56 35.796875 56 
Q 45.21875 56 50.046875 50.171875 
Q 54.890625 44.34375 54.890625 33.015625 
z
" id="DejaVuSans-110"/>
      <path d="M 18.3125 70.21875 
L 18.3125 54.6875 
L 36.8125 54.6875 
L 36.8125 47.703125 
L 18.3125 47.703125 
L 18.3125 18.015625 
Q 18.3125 11.328125 20.140625 9.421875 
Q 21.96875 7.515625 27.59375 7.515625 
L 36.8125 7.515625 
L 36.8125 0 
L 27.59375 0 
Q 17.1875 0 13.234375 3.875 
Q 9.28125 7.765625 9.28125 18.015625 
L 9.28125 47.703125 
L 2.6875 47.703125 
L 2.6875 54.6875 
L 9.28125 54.6875 
L 9.28125 70.21875 
z
" id="DejaVuSans-116"/>
     </defs>
     <g transform="translate(14.798438 167.584897)rotate(-90)scale(0.1 -0.1)">
      <use xlink:href="#DejaVuSans-67"/>
      <use x="69.824219" xlink:href="#DejaVuSans-111"/>
      <use x="131.005859" xlink:href="#DejaVuSans-117"/>
      <use x="194.384766" xlink:href="#DejaVuSans-110"/>
      <use x="257.763672" xlink:href="#DejaVuSans-116"/>
     </g>
    </g>
   </g>
   <g id="line2d_10">
    <path clip-path="url(#pe780e12a8a)" d="M 63.508125 273.99006 
L 72.725275 273.99006 
L 81.942425 273.99006 
L 91.159575 273.99006 
L 100.376725 273.989577 
L 109.593875 273.988405 
L 118.811025 273.986613 
L 128.028175 273.982131 
L 137.245325 273.973238 
L 146.462475 273.95869 
L 155.679625 273.936628 
L 164.896775 273.901466 
L 174.113925 273.849206 
L 183.331075 273.766335 
L 192.548225 273.626929 
L 201.765375 273.431057 
L 210.982525 273.138939 
L 220.199675 272.657706 
L 229.416825 271.916069 
L 238.633975 270.815299 
L 247.851125 269.21213 
L 257.068275 266.962192 
L 266.285425 263.77247 
L 275.502575 259.464053 
L 284.719725 253.871405 
L 293.936875 246.713508 
L 303.154025 237.716789 
L 312.371175 226.785899 
L 321.588325 213.894707 
L 330.805475 199.032181 
L 340.022625 182.566901 
L 349.239775 164.603937 
L 358.456925 145.384596 
L 367.674075 126.056873 
L 376.891225 107.267195 
L 386.108375 89.856064 
L 395.325525 74.857373 
L 404.542675 62.518151 
L 413.759825 53.148649 
L 422.976975 46.724529 
L 432.194125 44.179922 
L 441.411275 45.798396 
L 450.628425 50.86934 
L 459.845575 58.980672 
L 469.062725 68.873257 
L 478.279875 80.296067 
L 487.497025 94.184612 
L 496.714175 110.064277 
L 505.931325 126.804371 
L 515.148475 143.378997 
L 524.365625 158.940069 
L 533.582775 173.48345 
L 542.799925 187.198668 
L 552.017075 200.011401 
L 561.234225 211.42063 
L 570.451375 221.158985 
L 579.668525 229.469912 
L 588.885675 236.647045 
L 598.102825 243.086815 
L 607.319975 248.768126 
L 616.537125 253.44188 
L 625.754275 257.272856 
L 634.971425 260.452926 
L 644.188575 263.123977 
L 653.405725 265.265052 
L 662.622875 267.080777 
L 671.840025 268.582459 
L 681.057175 269.721079 
L 690.274325 270.633837 
L 699.491475 271.404086 
L 708.708625 272.038652 
L 717.925775 272.446873 
L 727.142925 272.724237 
L 736.360075 272.96313 
L 745.577225 273.179961 
L 754.794375 273.368111 
L 764.011525 273.527855 
L 773.228675 273.653472 
L 782.445825 273.720418 
L 791.662975 273.760543 
L 800.880125 273.814734 
L 810.097275 273.8581 
L 819.314425 273.881334 
L 828.531575 273.909188 
L 837.748725 273.938283 
L 846.965875 273.959242 
L 856.183025 273.974961 
L 865.400175 273.983924 
L 874.617325 273.987095 
L 883.834475 273.989302 
L 893.051625 273.989853 
L 902.268775 273.989922 
L 911.485925 273.989991 
L 920.703075 273.99006 
L 929.920225 273.99006 
L 939.137375 273.99006 
L 948.354525 273.99006 
L 957.571675 273.99006 
L 966.788825 273.99006 
L 976.005975 273.99006 
L 985.223125 273.99006 
" style="fill:none;stroke:#5cb85c;stroke-linecap:square;"/>
   </g>
   <g id="line2d_11">
    <path clip-path="url(#pe780e12a8a)" d="M 63.508125 273.99006 
L 72.725275 273.99006 
L 81.942425 273.99006 
L 91.159575 273.989991 
L 100.376725 273.989853 
L 109.593875 273.989026 
L 118.811025 273.986337 
L 128.028175 273.981442 
L 137.245325 273.97441 
L 146.462475 273.961448 
L 155.679625 273.942212 
L 164.896775 273.911808 
L 174.113925 273.860306 
L 183.331075 273.781985 
L 192.548225 273.653335 
L 201.765375 273.473527 
L 210.982525 273.18851 
L 220.199675 272.733476 
L 229.416825 272.058439 
L 238.633975 271.02496 
L 247.851125 269.495975 
L 257.068275 267.276028 
L 266.285425 264.202891 
L 275.502575 260.062561 
L 284.719725 254.510384 
L 293.936875 247.349729 
L 303.154025 238.377692 
L 312.371175 227.598618 
L 321.588325 214.770303 
L 330.805475 199.944801 
L 340.022625 183.377689 
L 349.239775 165.24788 
L 358.456925 146.106446 
L 367.674075 126.509908 
L 376.891225 107.321316 
L 386.108375 89.76223 
L 395.325525 74.556843 
L 404.542675 61.869589 
L 413.759825 52.189354 
L 422.976975 45.694014 
L 432.194125 43.030822 
L 441.411275 44.530643 
L 450.628425 49.786496 
L 459.845575 57.669829 
L 469.062725 67.579719 
L 478.279875 79.472524 
L 487.497025 93.462762 
L 496.714175 109.487763 
L 505.931325 126.266327 
L 515.148475 142.991598 
L 524.365625 158.767501 
L 533.582775 173.432569 
L 542.799925 187.278368 
L 552.017075 200.183625 
L 561.234225 211.648147 
L 570.451375 221.316386 
L 579.668525 229.55037 
L 588.885675 236.858084 
L 598.102825 243.367006 
L 607.319975 248.941797 
L 616.537125 253.606727 
L 625.754275 257.461006 
L 634.971425 260.665758 
L 644.188575 263.282136 
L 653.405725 265.385567 
L 662.622875 267.195983 
L 671.840025 268.691116 
L 681.057175 269.804502 
L 690.274325 270.724223 
L 699.491475 271.505848 
L 708.708625 272.098151 
L 717.925775 272.485758 
L 727.142925 272.750988 
L 736.360075 272.985192 
L 745.577225 273.200851 
L 754.794375 273.386036 
L 764.011525 273.538542 
L 773.228675 273.659126 
L 782.445825 273.730897 
L 791.662975 273.765163 
L 800.880125 273.815423 
L 810.097275 273.860513 
L 819.314425 273.888505 
L 828.531575 273.916772 
L 837.748725 273.940075 
L 846.965875 273.961793 
L 856.183025 273.977443 
L 865.400175 273.983993 
L 874.617325 273.987026 
L 883.834475 273.989164 
L 893.051625 273.989439 
L 902.268775 273.989715 
L 911.485925 273.989991 
L 920.703075 273.99006 
L 929.920225 273.99006 
L 939.137375 273.99006 
L 948.354525 273.99006 
L 957.571675 273.99006 
L 966.788825 273.99006 
L 976.005975 273.99006 
L 985.223125 273.99006 
" style="fill:none;stroke:#5cb85c;stroke-linecap:square;"/>
   </g>
   <g id="line2d_12">
    <path clip-path="url(#pe780e12a8a)" d="M 63.508125 273.99006 
L 72.725275 273.99006 
L 81.942425 273.989922 
L 91.159575 273.989853 
L 100.376725 273.989715 
L 109.593875 273.988681 
L 118.811025 273.986268 
L 128.028175 273.982476 
L 137.245325 273.973996 
L 146.462475 273.960483 
L 155.679625 273.940627 
L 164.896775 273.911739 
L 174.113925 273.866304 
L 183.331075 273.786949 
L 192.548225 273.658781 
L 201.765375 273.459324 
L 210.982525 273.174307 
L 220.199675 272.744093 
L 229.416825 272.079467 
L 238.633975 271.031785 
L 247.851125 269.497423 
L 257.068275 267.342422 
L 266.285425 264.341263 
L 275.502575 260.280426 
L 284.719725 254.817187 
L 293.936875 247.819793 
L 303.154025 239.31589 
L 312.371175 228.929042 
L 321.588325 216.450414 
L 330.805475 202.186535 
L 340.022625 186.334516 
L 349.239775 169.145938 
L 358.456925 150.886788 
L 367.674075 132.330143 
L 376.891225 114.242182 
L 386.108375 97.624948 
L 395.325525 83.301914 
L 404.542675 71.430068 
L 413.759825 62.330484 
L 422.976975 56.355814 
L 432.194125 54.196538 
L 441.411275 55.682708 
L 450.628425 60.542819 
L 459.845575 68.086944 
L 469.062725 77.270572 
L 478.279875 88.329354 
L 487.497025 101.676822 
L 496.714175 116.824847 
L 505.931325 132.904589 
L 515.148475 148.782186 
L 524.365625 163.706554 
L 533.582775 177.769391 
L 542.799925 190.896443 
L 552.017075 203.075093 
L 561.234225 213.950621 
L 570.451375 223.205882 
L 579.668525 231.14306 
L 588.885675 238.101845 
L 598.102825 244.28652 
L 607.319975 249.706738 
L 616.537125 254.246257 
L 625.754275 257.936999 
L 634.971425 261.012618 
L 644.188575 263.55757 
L 653.405725 265.588747 
L 662.622875 267.346903 
L 671.840025 268.814182 
L 681.057175 269.91764 
L 690.274325 270.790341 
L 699.491475 271.538321 
L 708.708625 272.153514 
L 717.925775 272.532295 
L 727.142925 272.794423 
L 736.360075 273.020768 
L 745.577225 273.229946 
L 754.794375 273.414166 
L 764.011525 273.560259 
L 773.228675 273.678568 
L 782.445825 273.741859 
L 791.662975 273.780124 
L 800.880125 273.829074 
L 810.097275 273.863753 
L 819.314425 273.889539 
L 828.531575 273.917392 
L 837.748725 273.936628 
L 846.965875 273.958621 
L 856.183025 273.974754 
L 865.400175 273.983303 
L 874.617325 273.987785 
L 883.834475 273.989991 
L 893.051625 273.989853 
L 902.268775 273.989853 
L 911.485925 273.99006 
L 920.703075 273.99006 
L 929.920225 273.99006 
L 939.137375 273.99006 
L 948.354525 273.99006 
L 957.571675 273.99006 
L 966.788825 273.99006 
L 976.005975 273.99006 
L 985.223125 273.99006 
" style="fill:none;stroke:#5cb85c;stroke-linecap:square;"/>
   </g>
   <g id="line2d_13">
    <path clip-path="url(#pe780e12a8a)" d="M 63.508125 273.99006 
L 72.725275 273.99006 
L 81.942425 273.99006 
L 91.159575 273.99006 
L 100.376725 273.989371 
L 109.593875 273.988612 
L 118.811025 273.987302 
L 128.028175 273.983097 
L 137.245325 273.974203 
L 146.462475 273.960759 
L 155.679625 273.944074 
L 164.896775 273.919668 
L 174.113925 273.87899 
L 183.331075 273.810115 
L 192.548225 273.682981 
L 201.765375 273.514825 
L 210.982525 273.258627 
L 220.199675 272.826827 
L 229.416825 272.167923 
L 238.633975 271.173328 
L 247.851125 269.734937 
L 257.068275 267.683491 
L 266.285425 264.740246 
L 275.502575 260.735461 
L 284.719725 255.473954 
L 293.936875 248.663951 
L 303.154025 240.161496 
L 312.371175 229.749482 
L 321.588325 217.428738 
L 330.805475 203.174924 
L 340.022625 187.312013 
L 349.239775 170.13419 
L 358.456925 151.636423 
L 367.674075 132.759116 
L 376.891225 114.647301 
L 386.108375 97.74498 
L 395.325525 82.918858 
L 404.542675 71.081484 
L 413.759825 61.726874 
L 422.976975 55.48594 
L 432.194125 53.029788 
L 441.411275 54.139452 
L 450.628425 59.268171 
L 459.845575 66.948324 
L 469.062725 75.967243 
L 478.279875 87.275191 
L 487.497025 100.897196 
L 496.714175 116.216549 
L 505.931325 132.49099 
L 515.148475 148.372241 
L 524.365625 163.279029 
L 533.582775 177.409431 
L 542.799925 190.66017 
L 552.017075 202.928103 
L 561.234225 213.953309 
L 570.451375 223.363696 
L 579.668525 231.307768 
L 588.885675 238.279446 
L 598.102825 244.54196 
L 607.319975 249.912262 
L 616.537125 254.3545 
L 625.754275 258.083024 
L 634.971425 261.175534 
L 644.188575 263.707525 
L 653.405725 265.735116 
L 662.622875 267.447907 
L 671.840025 268.903052 
L 681.057175 269.999202 
L 690.274325 270.852805 
L 699.491475 271.599544 
L 708.708625 272.204809 
L 717.925775 272.579109 
L 727.142925 272.824689 
L 736.360075 273.041865 
L 745.577225 273.261522 
L 754.794375 273.439399 
L 764.011525 273.576806 
L 773.228675 273.688358 
L 782.445825 273.748271 
L 791.662975 273.781158 
L 800.880125 273.828592 
L 810.097275 273.863547 
L 819.314425 273.887608 
L 828.531575 273.915048 
L 837.748725 273.936559 
L 846.965875 273.958483 
L 856.183025 273.974685 
L 865.400175 273.982959 
L 874.617325 273.98744 
L 883.834475 273.989715 
L 893.051625 273.989922 
L 902.268775 273.99006 
L 911.485925 273.989922 
L 920.703075 273.989922 
L 929.920225 273.99006 
L 939.137375 273.99006 
L 948.354525 273.99006 
L 957.571675 273.99006 
L 966.788825 273.99006 
L 976.005975 273.99006 
L 985.223125 273.99006 
" style="fill:none;stroke:#5cb85c;stroke-linecap:square;"/>
   </g>
   <g id="line2d_14">
    <path clip-path="url(#pe780e12a8a)" d="M 63.508125 273.99006 
L 72.725275 273.99006 
L 81.942425 273.989991 
L 91.159575 273.989991 
L 100.376725 273.989853 
L 109.593875 273.987854 
L 118.811025 273.984338 
L 128.028175 273.976892 
L 137.245325 273.964068 
L 146.462475 273.944557 
L 155.679625 273.915876 
L 164.896775 273.877749 
L 174.113925 273.816733 
L 183.331075 273.706284 
L 192.548225 273.522409 
L 201.765375 273.280137 
L 210.982525 272.923901 
L 220.199675 272.377997 
L 229.416825 271.547767 
L 238.633975 270.340478 
L 247.851125 268.660436 
L 257.068275 266.321628 
L 266.285425 263.129838 
L 275.502575 258.843897 
L 284.719725 253.167481 
L 293.936875 246.072806 
L 303.154025 237.402678 
L 312.371175 227.047681 
L 321.588325 214.926531 
L 330.805475 201.061014 
L 340.022625 185.728769 
L 349.239775 169.320506 
L 358.456925 152.23569 
L 367.674075 134.827661 
L 376.891225 118.119144 
L 386.108375 103.076811 
L 395.325525 90.221332 
L 404.542675 79.894603 
L 413.759825 72.136957 
L 422.976975 67.215622 
L 432.194125 65.947731 
L 441.411275 68.152993 
L 450.628425 73.634847 
L 459.845575 81.49591 
L 469.062725 90.677125 
L 478.279875 101.765416 
L 487.497025 114.798772 
L 496.714175 129.082025 
L 505.931325 144.266245 
L 515.148475 159.044107 
L 524.365625 172.836543 
L 533.582775 185.926227 
L 542.799925 198.076609 
L 552.017075 209.358359 
L 561.234225 219.413998 
L 570.451375 228.008356 
L 579.668525 235.278633 
L 588.885675 241.613538 
L 598.102825 247.239555 
L 607.319975 252.149652 
L 616.537125 256.238342 
L 625.754275 259.538307 
L 634.971425 262.290024 
L 644.188575 264.624901 
L 653.405725 266.494127 
L 662.622875 268.055378 
L 671.840025 269.354225 
L 681.057175 270.359506 
L 690.274325 271.136305 
L 699.491475 271.790176 
L 708.708625 272.331667 
L 717.925775 272.679492 
L 727.142925 272.915145 
L 736.360075 273.119841 
L 745.577225 273.304061 
L 754.794375 273.464082 
L 764.011525 273.598041 
L 773.228675 273.70456 
L 782.445825 273.773229 
L 791.662975 273.807012 
L 800.880125 273.836658 
L 810.097275 273.866925 
L 819.314425 273.901535 
L 828.531575 273.928355 
L 837.748725 273.946349 
L 846.965875 273.964964 
L 856.183025 273.977374 
L 865.400175 273.984958 
L 874.617325 273.987785 
L 883.834475 273.989439 
L 893.051625 273.989922 
L 902.268775 273.989991 
L 911.485925 273.99006 
L 920.703075 273.99006 
L 929.920225 273.99006 
L 939.137375 273.99006 
L 948.354525 273.99006 
L 957.571675 273.99006 
L 966.788825 273.99006 
L 976.005975 273.99006 
L 985.223125 273.99006 
" style="fill:none;stroke:#5cb85c;stroke-linecap:square;"/>
   </g>
   <g id="line2d_15">
    <path clip-path="url(#pe780e12a8a)" d="M 63.508125 273.99006 
L 72.725275 273.99006 
L 81.942425 273.989991 
L 91.159575 273.989991 
L 100.376725 273.989577 
L 109.593875 273.988405 
L 118.811025 273.984958 
L 128.028175 273.976961 
L 137.245325 273.965171 
L 146.462475 273.95021 
L 155.679625 273.924632 
L 164.896775 273.881817 
L 174.113925 273.826523 
L 183.331075 273.72483 
L 192.548225 273.552607 
L 201.765375 273.317436 
L 210.982525 272.985192 
L 220.199675 272.468315 
L 229.416825 271.677107 
L 238.633975 270.543657 
L 247.851125 268.930561 
L 257.068275 266.592856 
L 266.285425 263.486626 
L 275.502575 259.311272 
L 284.719725 253.805494 
L 293.936875 246.872908 
L 303.154025 238.269656 
L 312.371175 227.920865 
L 321.588325 215.806333 
L 330.805475 201.951158 
L 340.022625 186.549624 
L 349.239775 169.885576 
L 358.456925 152.516983 
L 367.674075 135.029875 
L 376.891225 118.16058 
L 386.108375 102.804687 
L 395.325525 89.576838 
L 404.542675 78.973021 
L 413.759825 70.805981 
L 422.976975 65.915672 
L 432.194125 64.687975 
L 441.411275 66.851871 
L 450.628425 72.400739 
L 459.845575 80.367839 
L 469.062725 89.76092 
L 478.279875 100.84211 
L 487.497025 113.950615 
L 496.714175 128.523573 
L 505.931325 143.762329 
L 515.148475 158.764398 
L 524.365625 172.867361 
L 533.582775 185.911679 
L 542.799925 198.196642 
L 552.017075 209.561194 
L 561.234225 219.669437 
L 570.451375 228.303163 
L 579.668525 235.623907 
L 588.885675 242.01321 
L 598.102825 247.624956 
L 607.319975 252.45418 
L 616.537125 256.509295 
L 625.754275 259.837733 
L 634.971425 262.597379 
L 644.188575 264.861726 
L 653.405725 266.684759 
L 662.622875 268.221327 
L 671.840025 269.499285 
L 681.057175 270.483055 
L 690.274325 271.238136 
L 699.491475 271.88132 
L 708.708625 272.407092 
L 717.925775 272.736716 
L 727.142925 272.9592 
L 736.360075 273.159622 
L 745.577225 273.339637 
L 754.794375 273.491935 
L 764.011525 273.613554 
L 773.228675 273.724692 
L 782.445825 273.780399 
L 791.662975 273.802255 
L 800.880125 273.84176 
L 810.097275 273.878439 
L 819.314425 273.905396 
L 828.531575 273.928492 
L 837.748725 273.9489 
L 846.965875 273.964206 
L 856.183025 273.976547 
L 865.400175 273.985096 
L 874.617325 273.988198 
L 883.834475 273.989302 
L 893.051625 273.989784 
L 902.268775 273.989991 
L 911.485925 273.99006 
L 920.703075 273.99006 
L 929.920225 273.99006 
L 939.137375 273.99006 
L 948.354525 273.99006 
L 957.571675 273.99006 
L 966.788825 273.99006 
L 976.005975 273.99006 
L 985.223125 273.99006 
" style="fill:none;stroke:#5cb85c;stroke-linecap:square;"/>
   </g>
   <g id="line2d_16">
    <path clip-path="url(#pe780e12a8a)" d="M 63.508125 273.99006 
L 985.223125 273.99006 
" style="fill:none;stroke:#dedede;stroke-linecap:square;stroke-width:2;"/>
   </g>
   <g id="text_18">
    <!-- FastQC: Per Sequence GC Content -->
    <defs>
     <path d="M 9.8125 72.90625 
L 51.703125 72.90625 
L 51.703125 64.59375 
L 19.671875 64.59375 
L 19.671875 43.109375 
L 48.578125 43.109375 
L 48.578125 34.8125 
L 19.671875 34.8125 
L 19.671875 0 
L 9.8125 0 
z
" id="DejaVuSans-70"/>
     <path d="M 34.28125 27.484375 
Q 23.390625 27.484375 19.1875 25 
Q 14.984375 22.515625 14.984375 16.5 
Q 14.984375 11.71875 18.140625 8.90625 
Q 21.296875 6.109375 26.703125 6.109375 
Q 34.1875 6.109375 38.703125 11.40625 
Q 43.21875 16.703125 43.21875 25.484375 
L 43.21875 27.484375 
z
M 52.203125 31.203125 
L 52.203125 0 
L 43.21875 0 
L 43.21875 8.296875 
Q 40.140625 3.328125 35.546875 0.953125 
Q 30.953125 -1.421875 24.3125 -1.421875 
Q 15.921875 -1.421875 10.953125 3.296875 
Q 6 8.015625 6 15.921875 
Q 6 25.140625 12.171875 29.828125 
Q 18.359375 34.515625 30.609375 34.515625 
L 43.21875 34.515625 
L 43.21875 35.40625 
Q 43.21875 41.609375 39.140625 45 
Q 35.0625 48.390625 27.6875 48.390625 
Q 23 48.390625 18.546875 47.265625 
Q 14.109375 46.140625 10.015625 43.890625 
L 10.015625 52.203125 
Q 14.9375 54.109375 19.578125 55.046875 
Q 24.21875 56 28.609375 56 
Q 40.484375 56 46.34375 49.84375 
Q 52.203125 43.703125 52.203125 31.203125 
z
" id="DejaVuSans-97"/>
     <path d="M 44.28125 53.078125 
L 44.28125 44.578125 
Q 40.484375 46.53125 36.375 47.5 
Q 32.28125 48.484375 27.875 48.484375 
Q 21.1875 48.484375 17.84375 46.4375 
Q 14.5 44.390625 14.5 40.28125 
Q 14.5 37.15625 16.890625 35.375 
Q 19.28125 33.59375 26.515625 31.984375 
L 29.59375 31.296875 
Q 39.15625 29.25 43.1875 25.515625 
Q 47.21875 21.78125 47.21875 15.09375 
Q 47.21875 7.46875 41.1875 3.015625 
Q 35.15625 -1.421875 24.609375 -1.421875 
Q 20.21875 -1.421875 15.453125 -0.5625 
Q 10.6875 0.296875 5.421875 2 
L 5.421875 11.28125 
Q 10.40625 8.6875 15.234375 7.390625 
Q 20.0625 6.109375 24.8125 6.109375 
Q 31.15625 6.109375 34.5625 8.28125 
Q 37.984375 10.453125 37.984375 14.40625 
Q 37.984375 18.0625 35.515625 20.015625 
Q 33.0625 21.96875 24.703125 23.78125 
L 21.578125 24.515625 
Q 13.234375 26.265625 9.515625 29.90625 
Q 5.8125 33.546875 5.8125 39.890625 
Q 5.8125 47.609375 11.28125 51.796875 
Q 16.75 56 26.8125 56 
Q 31.78125 56 36.171875 55.265625 
Q 40.578125 54.546875 44.28125 53.078125 
z
" id="DejaVuSans-115"/>
     <path d="M 39.40625 66.21875 
Q 28.65625 66.21875 22.328125 58.203125 
Q 16.015625 50.203125 16.015625 36.375 
Q 16.015625 22.609375 22.328125 14.59375 
Q 28.65625 6.59375 39.40625 6.59375 
Q 50.140625 6.59375 56.421875 14.59375 
Q 62.703125 22.609375 62.703125 36.375 
Q 62.703125 50.203125 56.421875 58.203125 
Q 50.140625 66.21875 39.40625 66.21875 
z
M 53.21875 1.3125 
L 66.21875 -12.890625 
L 54.296875 -12.890625 
L 43.5 -1.21875 
Q 41.890625 -1.3125 41.03125 -1.359375 
Q 40.1875 -1.421875 39.40625 -1.421875 
Q 24.03125 -1.421875 14.8125 8.859375 
Q 5.609375 19.140625 5.609375 36.375 
Q 5.609375 53.65625 14.8125 63.9375 
Q 24.03125 74.21875 39.40625 74.21875 
Q 54.734375 74.21875 63.90625 63.9375 
Q 73.09375 53.65625 73.09375 36.375 
Q 73.09375 23.6875 67.984375 14.640625 
Q 62.890625 5.609375 53.21875 1.3125 
z
" id="DejaVuSans-81"/>
     <path d="M 11.71875 12.40625 
L 22.015625 12.40625 
L 22.015625 0 
L 11.71875 0 
z
M 11.71875 51.703125 
L 22.015625 51.703125 
L 22.015625 39.3125 
L 11.71875 39.3125 
z
" id="DejaVuSans-58"/>
     <path d="M 19.671875 64.796875 
L 19.671875 37.40625 
L 32.078125 37.40625 
Q 38.96875 37.40625 42.71875 40.96875 
Q 46.484375 44.53125 46.484375 51.125 
Q 46.484375 57.671875 42.71875 61.234375 
Q 38.96875 64.796875 32.078125 64.796875 
z
M 9.8125 72.90625 
L 32.078125 72.90625 
Q 44.34375 72.90625 50.609375 67.359375 
Q 56.890625 61.8125 56.890625 51.125 
Q 56.890625 40.328125 50.609375 34.8125 
Q 44.34375 29.296875 32.078125 29.296875 
L 19.671875 29.296875 
L 19.671875 0 
L 9.8125 0 
z
" id="DejaVuSans-80"/>
     <path d="M 56.203125 29.59375 
L 56.203125 25.203125 
L 14.890625 25.203125 
Q 15.484375 15.921875 20.484375 11.0625 
Q 25.484375 6.203125 34.421875 6.203125 
Q 39.59375 6.203125 44.453125 7.46875 
Q 49.3125 8.734375 54.109375 11.28125 
L 54.109375 2.78125 
Q 49.265625 0.734375 44.1875 -0.34375 
Q 39.109375 -1.421875 33.890625 -1.421875 
Q 20.796875 -1.421875 13.15625 6.1875 
Q 5.515625 13.8125 5.515625 26.8125 
Q 5.515625 40.234375 12.765625 48.109375 
Q 20.015625 56 32.328125 56 
Q 43.359375 56 49.78125 48.890625 
Q 56.203125 41.796875 56.203125 29.59375 
z
M 47.21875 32.234375 
Q 47.125 39.59375 43.09375 43.984375 
Q 39.0625 48.390625 32.421875 48.390625 
Q 24.90625 48.390625 20.390625 44.140625 
Q 15.875 39.890625 15.1875 32.171875 
z
" id="DejaVuSans-101"/>
     <path d="M 41.109375 46.296875 
Q 39.59375 47.171875 37.8125 47.578125 
Q 36.03125 48 33.890625 48 
Q 26.265625 48 22.1875 43.046875 
Q 18.109375 38.09375 18.109375 28.8125 
L 18.109375 0 
L 9.078125 0 
L 9.078125 54.6875 
L 18.109375 54.6875 
L 18.109375 46.1875 
Q 20.953125 51.171875 25.484375 53.578125 
Q 30.03125 56 36.53125 56 
Q 37.453125 56 38.578125 55.875 
Q 39.703125 55.765625 41.0625 55.515625 
z
" id="DejaVuSans-114"/>
     <path d="M 53.515625 70.515625 
L 53.515625 60.890625 
Q 47.90625 63.578125 42.921875 64.890625 
Q 37.9375 66.21875 33.296875 66.21875 
Q 25.25 66.21875 20.875 63.09375 
Q 16.5 59.96875 16.5 54.203125 
Q 16.5 49.359375 19.40625 46.890625 
Q 22.3125 44.4375 30.421875 42.921875 
L 36.375 41.703125 
Q 47.40625 39.59375 52.65625 34.296875 
Q 57.90625 29 57.90625 20.125 
Q 57.90625 9.515625 50.796875 4.046875 
Q 43.703125 -1.421875 29.984375 -1.421875 
Q 24.8125 -1.421875 18.96875 -0.25 
Q 13.140625 0.921875 6.890625 3.21875 
L 6.890625 13.375 
Q 12.890625 10.015625 18.65625 8.296875 
Q 24.421875 6.59375 29.984375 6.59375 
Q 38.421875 6.59375 43.015625 9.90625 
Q 47.609375 13.234375 47.609375 19.390625 
Q 47.609375 24.75 44.3125 27.78125 
Q 41.015625 30.8125 33.5 32.328125 
L 27.484375 33.5 
Q 16.453125 35.6875 11.515625 40.375 
Q 6.59375 45.0625 6.59375 53.421875 
Q 6.59375 63.09375 13.40625 68.65625 
Q 20.21875 74.21875 32.171875 74.21875 
Q 37.3125 74.21875 42.625 73.28125 
Q 47.953125 72.359375 53.515625 70.515625 
z
" id="DejaVuSans-83"/>
     <path d="M 14.796875 27.296875 
Q 14.796875 17.390625 18.875 11.75 
Q 22.953125 6.109375 30.078125 6.109375 
Q 37.203125 6.109375 41.296875 11.75 
Q 45.40625 17.390625 45.40625 27.296875 
Q 45.40625 37.203125 41.296875 42.84375 
Q 37.203125 48.484375 30.078125 48.484375 
Q 22.953125 48.484375 18.875 42.84375 
Q 14.796875 37.203125 14.796875 27.296875 
z
M 45.40625 8.203125 
Q 42.578125 3.328125 38.25 0.953125 
Q 33.9375 -1.421875 27.875 -1.421875 
Q 17.96875 -1.421875 11.734375 6.484375 
Q 5.515625 14.40625 5.515625 27.296875 
Q 5.515625 40.1875 11.734375 48.09375 
Q 17.96875 56 27.875 56 
Q 33.9375 56 38.25 53.625 
Q 42.578125 51.265625 45.40625 46.390625 
L 45.40625 54.6875 
L 54.390625 54.6875 
L 54.390625 -20.796875 
L 45.40625 -20.796875 
z
" id="DejaVuSans-113"/>
     <path d="M 48.78125 52.59375 
L 48.78125 44.1875 
Q 44.96875 46.296875 41.140625 47.34375 
Q 37.3125 48.390625 33.40625 48.390625 
Q 24.65625 48.390625 19.8125 42.84375 
Q 14.984375 37.3125 14.984375 27.296875 
Q 14.984375 17.28125 19.8125 11.734375 
Q 24.65625 6.203125 33.40625 6.203125 
Q 37.3125 6.203125 41.140625 7.25 
Q 44.96875 8.296875 48.78125 10.40625 
L 48.78125 2.09375 
Q 45.015625 0.34375 40.984375 -0.53125 
Q 36.96875 -1.421875 32.421875 -1.421875 
Q 20.0625 -1.421875 12.78125 6.34375 
Q 5.515625 14.109375 5.515625 27.296875 
Q 5.515625 40.671875 12.859375 48.328125 
Q 20.21875 56 33.015625 56 
Q 37.15625 56 41.109375 55.140625 
Q 45.0625 54.296875 48.78125 52.59375 
z
" id="DejaVuSans-99"/>
    </defs>
    <g transform="translate(386.724375 19.3575)scale(0.16 -0.16)">
     <use xlink:href="#DejaVuSans-70"/>
     <use x="57.378906" xlink:href="#DejaVuSans-97"/>
     <use x="118.658203" xlink:href="#DejaVuSans-115"/>
     <use x="170.757812" xlink:href="#DejaVuSans-116"/>
     <use x="209.966797" xlink:href="#DejaVuSans-81"/>
     <use x="288.677734" xlink:href="#DejaVuSans-67"/>
     <use x="358.501953" xlink:href="#DejaVuSans-58"/>
     <use x="392.193359" xlink:href="#DejaVuSans-32"/>
     <use x="423.980469" xlink:href="#DejaVuSans-80"/>
     <use x="484.236328" xlink:href="#DejaVuSans-101"/>
     <use x="545.759766" xlink:href="#DejaVuSans-114"/>
     <use x="586.873047" xlink:href="#DejaVuSans-32"/>
     <use x="618.660156" xlink:href="#DejaVuSans-83"/>
     <use x="682.136719" xlink:href="#DejaVuSans-101"/>
     <use x="743.660156" xlink:href="#DejaVuSans-113"/>
     <use x="807.136719" xlink:href="#DejaVuSans-117"/>
     <use x="870.515625" xlink:href="#DejaVuSans-101"/>
     <use x="932.039062" xlink:href="#DejaVuSans-110"/>
     <use x="995.417969" xlink:href="#DejaVuSans-99"/>
     <use x="1050.398438" xlink:href="#DejaVuSans-101"/>
     <use x="1111.921875" xlink:href="#DejaVuSans-32"/>
     <use x="1143.708984" xlink:href="#DejaVuSans-71"/>
     <use x="1221.199219" xlink:href="#DejaVuSans-67"/>
     <use x="1291.023438" xlink:href="#DejaVuSans-32"/>
     <use x="1322.810547" xlink:href="#DejaVuSans-67"/>
     <use x="1392.634766" xlink:href="#DejaVuSans-111"/>
     <use x="1453.816406" xlink:href="#DejaVuSans-110"/>
     <use x="1517.195312" xlink:href="#DejaVuSans-116"/>
     <use x="1556.404297" xlink:href="#DejaVuSans-101"/>
     <use x="1617.927734" xlink:href="#DejaVuSans-110"/>
     <use x="1681.306641" xlink:href="#DejaVuSans-116"/>
    </g>
   </g>
   <g id="legend_1">
    <g id="line2d_17">
     <path d="M 70.708125 303.490394 
L 86.708125 303.490394 
" style="fill:none;stroke:#5cb85c;stroke-linecap:square;"/>
    </g>
    <g id="line2d_18"/>
    <g id="text_19">
     <!-- Cvi-CPal_079-Ex1-1A-ssl-1-1.clmp.fp2_repr.R1 -->
     <defs>
      <path d="M 2.984375 54.6875 
L 12.5 54.6875 
L 29.59375 8.796875 
L 46.6875 54.6875 
L 56.203125 54.6875 
L 35.6875 0 
L 23.484375 0 
z
" id="DejaVuSans-118"/>
      <path d="M 9.421875 54.6875 
L 18.40625 54.6875 
L 18.40625 0 
L 9.421875 0 
z
M 9.421875 75.984375 
L 18.40625 75.984375 
L 18.40625 64.59375 
L 9.421875 64.59375 
z
" id="DejaVuSans-105"/>
      <path d="M 4.890625 31.390625 
L 31.203125 31.390625 
L 31.203125 23.390625 
L 4.890625 23.390625 
z
" id="DejaVuSans-45"/>
      <path d="M 9.421875 75.984375 
L 18.40625 75.984375 
L 18.40625 0 
L 9.421875 0 
z
" id="DejaVuSans-108"/>
      <path d="M 50.984375 -16.609375 
L 50.984375 -23.578125 
L -0.984375 -23.578125 
L -0.984375 -16.609375 
z
" id="DejaVuSans-95"/>
      <path d="M 8.203125 72.90625 
L 55.078125 72.90625 
L 55.078125 68.703125 
L 28.609375 0 
L 18.3125 0 
L 43.21875 64.59375 
L 8.203125 64.59375 
z
" id="DejaVuSans-55"/>
      <path d="M 10.984375 1.515625 
L 10.984375 10.5 
Q 14.703125 8.734375 18.5 7.8125 
Q 22.3125 6.890625 25.984375 6.890625 
Q 35.75 6.890625 40.890625 13.453125 
Q 46.046875 20.015625 46.78125 33.40625 
Q 43.953125 29.203125 39.59375 26.953125 
Q 35.25 24.703125 29.984375 24.703125 
Q 19.046875 24.703125 12.671875 31.3125 
Q 6.296875 37.9375 6.296875 49.421875 
Q 6.296875 60.640625 12.9375 67.421875 
Q 19.578125 74.21875 30.609375 74.21875 
Q 43.265625 74.21875 49.921875 64.515625 
Q 56.59375 54.828125 56.59375 36.375 
Q 56.59375 19.140625 48.40625 8.859375 
Q 40.234375 -1.421875 26.421875 -1.421875 
Q 22.703125 -1.421875 18.890625 -0.6875 
Q 15.09375 0.046875 10.984375 1.515625 
z
M 30.609375 32.421875 
Q 37.25 32.421875 41.125 36.953125 
Q 45.015625 41.5 45.015625 49.421875 
Q 45.015625 57.28125 41.125 61.84375 
Q 37.25 66.40625 30.609375 66.40625 
Q 23.96875 66.40625 20.09375 61.84375 
Q 16.21875 57.28125 16.21875 49.421875 
Q 16.21875 41.5 20.09375 36.953125 
Q 23.96875 32.421875 30.609375 32.421875 
z
" id="DejaVuSans-57"/>
      <path d="M 9.8125 72.90625 
L 55.90625 72.90625 
L 55.90625 64.59375 
L 19.671875 64.59375 
L 19.671875 43.015625 
L 54.390625 43.015625 
L 54.390625 34.71875 
L 19.671875 34.71875 
L 19.671875 8.296875 
L 56.78125 8.296875 
L 56.78125 0 
L 9.8125 0 
z
" id="DejaVuSans-69"/>
      <path d="M 54.890625 54.6875 
L 35.109375 28.078125 
L 55.90625 0 
L 45.3125 0 
L 29.390625 21.484375 
L 13.484375 0 
L 2.875 0 
L 24.125 28.609375 
L 4.6875 54.6875 
L 15.28125 54.6875 
L 29.78125 35.203125 
L 44.28125 54.6875 
z
" id="DejaVuSans-120"/>
      <path d="M 34.1875 63.1875 
L 20.796875 26.90625 
L 47.609375 26.90625 
z
M 28.609375 72.90625 
L 39.796875 72.90625 
L 67.578125 0 
L 57.328125 0 
L 50.6875 18.703125 
L 17.828125 18.703125 
L 11.1875 0 
L 0.78125 0 
z
" id="DejaVuSans-65"/>
      <path d="M 10.6875 12.40625 
L 21 12.40625 
L 21 0 
L 10.6875 0 
z
" id="DejaVuSans-46"/>
      <path d="M 52 44.1875 
Q 55.375 50.25 60.0625 53.125 
Q 64.75 56 71.09375 56 
Q 79.640625 56 84.28125 50.015625 
Q 88.921875 44.046875 88.921875 33.015625 
L 88.921875 0 
L 79.890625 0 
L 79.890625 32.71875 
Q 79.890625 40.578125 77.09375 44.375 
Q 74.3125 48.1875 68.609375 48.1875 
Q 61.625 48.1875 57.5625 43.546875 
Q 53.515625 38.921875 53.515625 30.90625 
L 53.515625 0 
L 44.484375 0 
L 44.484375 32.71875 
Q 44.484375 40.625 41.703125 44.40625 
Q 38.921875 48.1875 33.109375 48.1875 
Q 26.21875 48.1875 22.15625 43.53125 
Q 18.109375 38.875 18.109375 30.90625 
L 18.109375 0 
L 9.078125 0 
L 9.078125 54.6875 
L 18.109375 54.6875 
L 18.109375 46.1875 
Q 21.1875 51.21875 25.484375 53.609375 
Q 29.78125 56 35.6875 56 
Q 41.65625 56 45.828125 52.96875 
Q 50 49.953125 52 44.1875 
z
" id="DejaVuSans-109"/>
      <path d="M 18.109375 8.203125 
L 18.109375 -20.796875 
L 9.078125 -20.796875 
L 9.078125 54.6875 
L 18.109375 54.6875 
L 18.109375 46.390625 
Q 20.953125 51.265625 25.265625 53.625 
Q 29.59375 56 35.59375 56 
Q 45.5625 56 51.78125 48.09375 
Q 58.015625 40.1875 58.015625 27.296875 
Q 58.015625 14.40625 51.78125 6.484375 
Q 45.5625 -1.421875 35.59375 -1.421875 
Q 29.59375 -1.421875 25.265625 0.953125 
Q 20.953125 3.328125 18.109375 8.203125 
z
M 48.6875 27.296875 
Q 48.6875 37.203125 44.609375 42.84375 
Q 40.53125 48.484375 33.40625 48.484375 
Q 26.265625 48.484375 22.1875 42.84375 
Q 18.109375 37.203125 18.109375 27.296875 
Q 18.109375 17.390625 22.1875 11.75 
Q 26.265625 6.109375 33.40625 6.109375 
Q 40.53125 6.109375 44.609375 11.75 
Q 48.6875 17.390625 48.6875 27.296875 
z
" id="DejaVuSans-112"/>
      <path d="M 37.109375 75.984375 
L 37.109375 68.5 
L 28.515625 68.5 
Q 23.6875 68.5 21.796875 66.546875 
Q 19.921875 64.59375 19.921875 59.515625 
L 19.921875 54.6875 
L 34.71875 54.6875 
L 34.71875 47.703125 
L 19.921875 47.703125 
L 19.921875 0 
L 10.890625 0 
L 10.890625 47.703125 
L 2.296875 47.703125 
L 2.296875 54.6875 
L 10.890625 54.6875 
L 10.890625 58.5 
Q 10.890625 67.625 15.140625 71.796875 
Q 19.390625 75.984375 28.609375 75.984375 
z
" id="DejaVuSans-102"/>
      <path d="M 44.390625 34.1875 
Q 47.5625 33.109375 50.5625 29.59375 
Q 53.5625 26.078125 56.59375 19.921875 
L 66.609375 0 
L 56 0 
L 46.6875 18.703125 
Q 43.0625 26.03125 39.671875 28.421875 
Q 36.28125 30.8125 30.421875 30.8125 
L 19.671875 30.8125 
L 19.671875 0 
L 9.8125 0 
L 9.8125 72.90625 
L 32.078125 72.90625 
Q 44.578125 72.90625 50.734375 67.671875 
Q 56.890625 62.453125 56.890625 51.90625 
Q 56.890625 45.015625 53.6875 40.46875 
Q 50.484375 35.9375 44.390625 34.1875 
z
M 19.671875 64.796875 
L 19.671875 38.921875 
L 32.078125 38.921875 
Q 39.203125 38.921875 42.84375 42.21875 
Q 46.484375 45.515625 46.484375 51.90625 
Q 46.484375 58.296875 42.84375 61.546875 
Q 39.203125 64.796875 32.078125 64.796875 
z
" id="DejaVuSans-82"/>
     </defs>
     <g transform="translate(93.108125 306.290394)scale(0.08 -0.08)">
      <use xlink:href="#DejaVuSans-67"/>
      <use x="69.824219" xlink:href="#DejaVuSans-118"/>
      <use x="129.003906" xlink:href="#DejaVuSans-105"/>
      <use x="156.787109" xlink:href="#DejaVuSans-45"/>
      <use x="192.871094" xlink:href="#DejaVuSans-67"/>
      <use x="262.695312" xlink:href="#DejaVuSans-80"/>
      <use x="322.935547" xlink:href="#DejaVuSans-97"/>
      <use x="384.214844" xlink:href="#DejaVuSans-108"/>
      <use x="411.998047" xlink:href="#DejaVuSans-95"/>
      <use x="461.998047" xlink:href="#DejaVuSans-48"/>
      <use x="525.621094" xlink:href="#DejaVuSans-55"/>
      <use x="589.244141" xlink:href="#DejaVuSans-57"/>
      <use x="652.867188" xlink:href="#DejaVuSans-45"/>
      <use x="688.951172" xlink:href="#DejaVuSans-69"/>
      <use x="752.134766" xlink:href="#DejaVuSans-120"/>
      <use x="811.314453" xlink:href="#DejaVuSans-49"/>
      <use x="874.9375" xlink:href="#DejaVuSans-45"/>
      <use x="911.021484" xlink:href="#DejaVuSans-49"/>
      <use x="974.644531" xlink:href="#DejaVuSans-65"/>
      <use x="1043.021484" xlink:href="#DejaVuSans-45"/>
      <use x="1079.105469" xlink:href="#DejaVuSans-115"/>
      <use x="1131.205078" xlink:href="#DejaVuSans-115"/>
      <use x="1183.304688" xlink:href="#DejaVuSans-108"/>
      <use x="1211.087891" xlink:href="#DejaVuSans-45"/>
      <use x="1247.171875" xlink:href="#DejaVuSans-49"/>
      <use x="1310.794922" xlink:href="#DejaVuSans-45"/>
      <use x="1346.878906" xlink:href="#DejaVuSans-49"/>
      <use x="1410.501953" xlink:href="#DejaVuSans-46"/>
      <use x="1442.289062" xlink:href="#DejaVuSans-99"/>
      <use x="1497.269531" xlink:href="#DejaVuSans-108"/>
      <use x="1525.052734" xlink:href="#DejaVuSans-109"/>
      <use x="1622.464844" xlink:href="#DejaVuSans-112"/>
      <use x="1685.941406" xlink:href="#DejaVuSans-46"/>
      <use x="1717.728516" xlink:href="#DejaVuSans-102"/>
      <use x="1752.933594" xlink:href="#DejaVuSans-112"/>
      <use x="1816.410156" xlink:href="#DejaVuSans-50"/>
      <use x="1880.033203" xlink:href="#DejaVuSans-95"/>
      <use x="1930.033203" xlink:href="#DejaVuSans-114"/>
      <use x="1971.115234" xlink:href="#DejaVuSans-101"/>
      <use x="2032.638672" xlink:href="#DejaVuSans-112"/>
      <use x="2096.115234" xlink:href="#DejaVuSans-114"/>
      <use x="2137.087891" xlink:href="#DejaVuSans-46"/>
      <use x="2168.875" xlink:href="#DejaVuSans-82"/>
      <use x="2238.357422" xlink:href="#DejaVuSans-49"/>
     </g>
    </g>
    <g id="line2d_19">
     <path d="M 70.708125 315.455394 
L 86.708125 315.455394 
" style="fill:none;stroke:#5cb85c;stroke-linecap:square;"/>
    </g>
    <g id="line2d_20"/>
    <g id="text_20">
     <!-- Cvi-CPal_079-Ex1-1A-ssl-1-1.clmp.fp2_repr.R2 -->
     <g transform="translate(93.108125 318.255394)scale(0.08 -0.08)">
      <use xlink:href="#DejaVuSans-67"/>
      <use x="69.824219" xlink:href="#DejaVuSans-118"/>
      <use x="129.003906" xlink:href="#DejaVuSans-105"/>
      <use x="156.787109" xlink:href="#DejaVuSans-45"/>
      <use x="192.871094" xlink:href="#DejaVuSans-67"/>
      <use x="262.695312" xlink:href="#DejaVuSans-80"/>
      <use x="322.935547" xlink:href="#DejaVuSans-97"/>
      <use x="384.214844" xlink:href="#DejaVuSans-108"/>
      <use x="411.998047" xlink:href="#DejaVuSans-95"/>
      <use x="461.998047" xlink:href="#DejaVuSans-48"/>
      <use x="525.621094" xlink:href="#DejaVuSans-55"/>
      <use x="589.244141" xlink:href="#DejaVuSans-57"/>
      <use x="652.867188" xlink:href="#DejaVuSans-45"/>
      <use x="688.951172" xlink:href="#DejaVuSans-69"/>
      <use x="752.134766" xlink:href="#DejaVuSans-120"/>
      <use x="811.314453" xlink:href="#DejaVuSans-49"/>
      <use x="874.9375" xlink:href="#DejaVuSans-45"/>
      <use x="911.021484" xlink:href="#DejaVuSans-49"/>
      <use x="974.644531" xlink:href="#DejaVuSans-65"/>
      <use x="1043.021484" xlink:href="#DejaVuSans-45"/>
      <use x="1079.105469" xlink:href="#DejaVuSans-115"/>
      <use x="1131.205078" xlink:href="#DejaVuSans-115"/>
      <use x="1183.304688" xlink:href="#DejaVuSans-108"/>
      <use x="1211.087891" xlink:href="#DejaVuSans-45"/>
      <use x="1247.171875" xlink:href="#DejaVuSans-49"/>
      <use x="1310.794922" xlink:href="#DejaVuSans-45"/>
      <use x="1346.878906" xlink:href="#DejaVuSans-49"/>
      <use x="1410.501953" xlink:href="#DejaVuSans-46"/>
      <use x="1442.289062" xlink:href="#DejaVuSans-99"/>
      <use x="1497.269531" xlink:href="#DejaVuSans-108"/>
      <use x="1525.052734" xlink:href="#DejaVuSans-109"/>
      <use x="1622.464844" xlink:href="#DejaVuSans-112"/>
      <use x="1685.941406" xlink:href="#DejaVuSans-46"/>
      <use x="1717.728516" xlink:href="#DejaVuSans-102"/>
      <use x="1752.933594" xlink:href="#DejaVuSans-112"/>
      <use x="1816.410156" xlink:href="#DejaVuSans-50"/>
      <use x="1880.033203" xlink:href="#DejaVuSans-95"/>
      <use x="1930.033203" xlink:href="#DejaVuSans-114"/>
      <use x="1971.115234" xlink:href="#DejaVuSans-101"/>
      <use x="2032.638672" xlink:href="#DejaVuSans-112"/>
      <use x="2096.115234" xlink:href="#DejaVuSans-114"/>
      <use x="2137.087891" xlink:href="#DejaVuSans-46"/>
      <use x="2168.875" xlink:href="#DejaVuSans-82"/>
      <use x="2238.357422" xlink:href="#DejaVuSans-50"/>
     </g>
    </g>
    <g id="line2d_21">
     <path d="M 245.83 303.490394 
L 261.83 303.490394 
" style="fill:none;stroke:#5cb85c;stroke-linecap:square;"/>
    </g>
    <g id="line2d_22"/>
    <g id="text_21">
     <!-- Cvi-CPal_079-Ex1-1B-ssl-1-1.clmp.fp2_repr.R1 -->
     <defs>
      <path d="M 19.671875 34.8125 
L 19.671875 8.109375 
L 35.5 8.109375 
Q 43.453125 8.109375 47.28125 11.40625 
Q 51.125 14.703125 51.125 21.484375 
Q 51.125 28.328125 47.28125 31.5625 
Q 43.453125 34.8125 35.5 34.8125 
z
M 19.671875 64.796875 
L 19.671875 42.828125 
L 34.28125 42.828125 
Q 41.5 42.828125 45.03125 45.53125 
Q 48.578125 48.25 48.578125 53.8125 
Q 48.578125 59.328125 45.03125 62.0625 
Q 41.5 64.796875 34.28125 64.796875 
z
M 9.8125 72.90625 
L 35.015625 72.90625 
Q 46.296875 72.90625 52.390625 68.21875 
Q 58.5 63.53125 58.5 54.890625 
Q 58.5 48.1875 55.375 44.234375 
Q 52.25 40.28125 46.1875 39.3125 
Q 53.46875 37.75 57.5 32.78125 
Q 61.53125 27.828125 61.53125 20.40625 
Q 61.53125 10.640625 54.890625 5.3125 
Q 48.25 0 35.984375 0 
L 9.8125 0 
z
" id="DejaVuSans-66"/>
     </defs>
     <g transform="translate(268.23 306.290394)scale(0.08 -0.08)">
      <use xlink:href="#DejaVuSans-67"/>
      <use x="69.824219" xlink:href="#DejaVuSans-118"/>
      <use x="129.003906" xlink:href="#DejaVuSans-105"/>
      <use x="156.787109" xlink:href="#DejaVuSans-45"/>
      <use x="192.871094" xlink:href="#DejaVuSans-67"/>
      <use x="262.695312" xlink:href="#DejaVuSans-80"/>
      <use x="322.935547" xlink:href="#DejaVuSans-97"/>
      <use x="384.214844" xlink:href="#DejaVuSans-108"/>
      <use x="411.998047" xlink:href="#DejaVuSans-95"/>
      <use x="461.998047" xlink:href="#DejaVuSans-48"/>
      <use x="525.621094" xlink:href="#DejaVuSans-55"/>
      <use x="589.244141" xlink:href="#DejaVuSans-57"/>
      <use x="652.867188" xlink:href="#DejaVuSans-45"/>
      <use x="688.951172" xlink:href="#DejaVuSans-69"/>
      <use x="752.134766" xlink:href="#DejaVuSans-120"/>
      <use x="811.314453" xlink:href="#DejaVuSans-49"/>
      <use x="874.9375" xlink:href="#DejaVuSans-45"/>
      <use x="911.021484" xlink:href="#DejaVuSans-49"/>
      <use x="974.644531" xlink:href="#DejaVuSans-66"/>
      <use x="1043.248047" xlink:href="#DejaVuSans-45"/>
      <use x="1079.332031" xlink:href="#DejaVuSans-115"/>
      <use x="1131.431641" xlink:href="#DejaVuSans-115"/>
      <use x="1183.53125" xlink:href="#DejaVuSans-108"/>
      <use x="1211.314453" xlink:href="#DejaVuSans-45"/>
      <use x="1247.398438" xlink:href="#DejaVuSans-49"/>
      <use x="1311.021484" xlink:href="#DejaVuSans-45"/>
      <use x="1347.105469" xlink:href="#DejaVuSans-49"/>
      <use x="1410.728516" xlink:href="#DejaVuSans-46"/>
      <use x="1442.515625" xlink:href="#DejaVuSans-99"/>
      <use x="1497.496094" xlink:href="#DejaVuSans-108"/>
      <use x="1525.279297" xlink:href="#DejaVuSans-109"/>
      <use x="1622.691406" xlink:href="#DejaVuSans-112"/>
      <use x="1686.167969" xlink:href="#DejaVuSans-46"/>
      <use x="1717.955078" xlink:href="#DejaVuSans-102"/>
      <use x="1753.160156" xlink:href="#DejaVuSans-112"/>
      <use x="1816.636719" xlink:href="#DejaVuSans-50"/>
      <use x="1880.259766" xlink:href="#DejaVuSans-95"/>
      <use x="1930.259766" xlink:href="#DejaVuSans-114"/>
      <use x="1971.341797" xlink:href="#DejaVuSans-101"/>
      <use x="2032.865234" xlink:href="#DejaVuSans-112"/>
      <use x="2096.341797" xlink:href="#DejaVuSans-114"/>
      <use x="2137.314453" xlink:href="#DejaVuSans-46"/>
      <use x="2169.101562" xlink:href="#DejaVuSans-82"/>
      <use x="2238.583984" xlink:href="#DejaVuSans-49"/>
     </g>
    </g>
    <g id="line2d_23">
     <path d="M 420.970625 303.490394 
L 436.970625 303.490394 
" style="fill:none;stroke:#5cb85c;stroke-linecap:square;"/>
    </g>
    <g id="line2d_24"/>
    <g id="text_22">
     <!-- Cvi-CPal_079-Ex1-1B-ssl-1-1.clmp.fp2_repr.R2 -->
     <g transform="translate(443.370625 306.290394)scale(0.08 -0.08)">
      <use xlink:href="#DejaVuSans-67"/>
      <use x="69.824219" xlink:href="#DejaVuSans-118"/>
      <use x="129.003906" xlink:href="#DejaVuSans-105"/>
      <use x="156.787109" xlink:href="#DejaVuSans-45"/>
      <use x="192.871094" xlink:href="#DejaVuSans-67"/>
      <use x="262.695312" xlink:href="#DejaVuSans-80"/>
      <use x="322.935547" xlink:href="#DejaVuSans-97"/>
      <use x="384.214844" xlink:href="#DejaVuSans-108"/>
      <use x="411.998047" xlink:href="#DejaVuSans-95"/>
      <use x="461.998047" xlink:href="#DejaVuSans-48"/>
      <use x="525.621094" xlink:href="#DejaVuSans-55"/>
      <use x="589.244141" xlink:href="#DejaVuSans-57"/>
      <use x="652.867188" xlink:href="#DejaVuSans-45"/>
      <use x="688.951172" xlink:href="#DejaVuSans-69"/>
      <use x="752.134766" xlink:href="#DejaVuSans-120"/>
      <use x="811.314453" xlink:href="#DejaVuSans-49"/>
      <use x="874.9375" xlink:href="#DejaVuSans-45"/>
      <use x="911.021484" xlink:href="#DejaVuSans-49"/>
      <use x="974.644531" xlink:href="#DejaVuSans-66"/>
      <use x="1043.248047" xlink:href="#DejaVuSans-45"/>
      <use x="1079.332031" xlink:href="#DejaVuSans-115"/>
      <use x="1131.431641" xlink:href="#DejaVuSans-115"/>
      <use x="1183.53125" xlink:href="#DejaVuSans-108"/>
      <use x="1211.314453" xlink:href="#DejaVuSans-45"/>
      <use x="1247.398438" xlink:href="#DejaVuSans-49"/>
      <use x="1311.021484" xlink:href="#DejaVuSans-45"/>
      <use x="1347.105469" xlink:href="#DejaVuSans-49"/>
      <use x="1410.728516" xlink:href="#DejaVuSans-46"/>
      <use x="1442.515625" xlink:href="#DejaVuSans-99"/>
      <use x="1497.496094" xlink:href="#DejaVuSans-108"/>
      <use x="1525.279297" xlink:href="#DejaVuSans-109"/>
      <use x="1622.691406" xlink:href="#DejaVuSans-112"/>
      <use x="1686.167969" xlink:href="#DejaVuSans-46"/>
      <use x="1717.955078" xlink:href="#DejaVuSans-102"/>
      <use x="1753.160156" xlink:href="#DejaVuSans-112"/>
      <use x="1816.636719" xlink:href="#DejaVuSans-50"/>
      <use x="1880.259766" xlink:href="#DejaVuSans-95"/>
      <use x="1930.259766" xlink:href="#DejaVuSans-114"/>
      <use x="1971.341797" xlink:href="#DejaVuSans-101"/>
      <use x="2032.865234" xlink:href="#DejaVuSans-112"/>
      <use x="2096.341797" xlink:href="#DejaVuSans-114"/>
      <use x="2137.314453" xlink:href="#DejaVuSans-46"/>
      <use x="2169.101562" xlink:href="#DejaVuSans-82"/>
      <use x="2238.583984" xlink:href="#DejaVuSans-50"/>
     </g>
    </g>
    <g id="line2d_25">
     <path d="M 596.11125 303.490394 
L 612.11125 303.490394 
" style="fill:none;stroke:#5cb85c;stroke-linecap:square;"/>
    </g>
    <g id="line2d_26"/>
    <g id="text_23">
     <!-- Cvi-CPal_079-Ex1-1C-ssl-1-1.clmp.fp2_repr.R1 -->
     <g transform="translate(618.51125 306.290394)scale(0.08 -0.08)">
      <use xlink:href="#DejaVuSans-67"/>
      <use x="69.824219" xlink:href="#DejaVuSans-118"/>
      <use x="129.003906" xlink:href="#DejaVuSans-105"/>
      <use x="156.787109" xlink:href="#DejaVuSans-45"/>
      <use x="192.871094" xlink:href="#DejaVuSans-67"/>
      <use x="262.695312" xlink:href="#DejaVuSans-80"/>
      <use x="322.935547" xlink:href="#DejaVuSans-97"/>
      <use x="384.214844" xlink:href="#DejaVuSans-108"/>
      <use x="411.998047" xlink:href="#DejaVuSans-95"/>
      <use x="461.998047" xlink:href="#DejaVuSans-48"/>
      <use x="525.621094" xlink:href="#DejaVuSans-55"/>
      <use x="589.244141" xlink:href="#DejaVuSans-57"/>
      <use x="652.867188" xlink:href="#DejaVuSans-45"/>
      <use x="688.951172" xlink:href="#DejaVuSans-69"/>
      <use x="752.134766" xlink:href="#DejaVuSans-120"/>
      <use x="811.314453" xlink:href="#DejaVuSans-49"/>
      <use x="874.9375" xlink:href="#DejaVuSans-45"/>
      <use x="911.021484" xlink:href="#DejaVuSans-49"/>
      <use x="974.644531" xlink:href="#DejaVuSans-67"/>
      <use x="1044.46875" xlink:href="#DejaVuSans-45"/>
      <use x="1080.552734" xlink:href="#DejaVuSans-115"/>
      <use x="1132.652344" xlink:href="#DejaVuSans-115"/>
      <use x="1184.751953" xlink:href="#DejaVuSans-108"/>
      <use x="1212.535156" xlink:href="#DejaVuSans-45"/>
      <use x="1248.619141" xlink:href="#DejaVuSans-49"/>
      <use x="1312.242188" xlink:href="#DejaVuSans-45"/>
      <use x="1348.326172" xlink:href="#DejaVuSans-49"/>
      <use x="1411.949219" xlink:href="#DejaVuSans-46"/>
      <use x="1443.736328" xlink:href="#DejaVuSans-99"/>
      <use x="1498.716797" xlink:href="#DejaVuSans-108"/>
      <use x="1526.5" xlink:href="#DejaVuSans-109"/>
      <use x="1623.912109" xlink:href="#DejaVuSans-112"/>
      <use x="1687.388672" xlink:href="#DejaVuSans-46"/>
      <use x="1719.175781" xlink:href="#DejaVuSans-102"/>
      <use x="1754.380859" xlink:href="#DejaVuSans-112"/>
      <use x="1817.857422" xlink:href="#DejaVuSans-50"/>
      <use x="1881.480469" xlink:href="#DejaVuSans-95"/>
      <use x="1931.480469" xlink:href="#DejaVuSans-114"/>
      <use x="1972.5625" xlink:href="#DejaVuSans-101"/>
      <use x="2034.085938" xlink:href="#DejaVuSans-112"/>
      <use x="2097.5625" xlink:href="#DejaVuSans-114"/>
      <use x="2138.535156" xlink:href="#DejaVuSans-46"/>
      <use x="2170.322266" xlink:href="#DejaVuSans-82"/>
      <use x="2239.804688" xlink:href="#DejaVuSans-49"/>
     </g>
    </g>
    <g id="line2d_27">
     <path d="M 771.349375 303.490394 
L 787.349375 303.490394 
" style="fill:none;stroke:#5cb85c;stroke-linecap:square;"/>
    </g>
    <g id="line2d_28"/>
    <g id="text_24">
     <!-- Cvi-CPal_079-Ex1-1C-ssl-1-1.clmp.fp2_repr.R2 -->
     <g transform="translate(793.749375 306.290394)scale(0.08 -0.08)">
      <use xlink:href="#DejaVuSans-67"/>
      <use x="69.824219" xlink:href="#DejaVuSans-118"/>
      <use x="129.003906" xlink:href="#DejaVuSans-105"/>
      <use x="156.787109" xlink:href="#DejaVuSans-45"/>
      <use x="192.871094" xlink:href="#DejaVuSans-67"/>
      <use x="262.695312" xlink:href="#DejaVuSans-80"/>
      <use x="322.935547" xlink:href="#DejaVuSans-97"/>
      <use x="384.214844" xlink:href="#DejaVuSans-108"/>
      <use x="411.998047" xlink:href="#DejaVuSans-95"/>
      <use x="461.998047" xlink:href="#DejaVuSans-48"/>
      <use x="525.621094" xlink:href="#DejaVuSans-55"/>
      <use x="589.244141" xlink:href="#DejaVuSans-57"/>
      <use x="652.867188" xlink:href="#DejaVuSans-45"/>
      <use x="688.951172" xlink:href="#DejaVuSans-69"/>
      <use x="752.134766" xlink:href="#DejaVuSans-120"/>
      <use x="811.314453" xlink:href="#DejaVuSans-49"/>
      <use x="874.9375" xlink:href="#DejaVuSans-45"/>
      <use x="911.021484" xlink:href="#DejaVuSans-49"/>
      <use x="974.644531" xlink:href="#DejaVuSans-67"/>
      <use x="1044.46875" xlink:href="#DejaVuSans-45"/>
      <use x="1080.552734" xlink:href="#DejaVuSans-115"/>
      <use x="1132.652344" xlink:href="#DejaVuSans-115"/>
      <use x="1184.751953" xlink:href="#DejaVuSans-108"/>
      <use x="1212.535156" xlink:href="#DejaVuSans-45"/>
      <use x="1248.619141" xlink:href="#DejaVuSans-49"/>
      <use x="1312.242188" xlink:href="#DejaVuSans-45"/>
      <use x="1348.326172" xlink:href="#DejaVuSans-49"/>
      <use x="1411.949219" xlink:href="#DejaVuSans-46"/>
      <use x="1443.736328" xlink:href="#DejaVuSans-99"/>
      <use x="1498.716797" xlink:href="#DejaVuSans-108"/>
      <use x="1526.5" xlink:href="#DejaVuSans-109"/>
      <use x="1623.912109" xlink:href="#DejaVuSans-112"/>
      <use x="1687.388672" xlink:href="#DejaVuSans-46"/>
      <use x="1719.175781" xlink:href="#DejaVuSans-102"/>
      <use x="1754.380859" xlink:href="#DejaVuSans-112"/>
      <use x="1817.857422" xlink:href="#DejaVuSans-50"/>
      <use x="1881.480469" xlink:href="#DejaVuSans-95"/>
      <use x="1931.480469" xlink:href="#DejaVuSans-114"/>
      <use x="1972.5625" xlink:href="#DejaVuSans-101"/>
      <use x="2034.085938" xlink:href="#DejaVuSans-112"/>
      <use x="2097.5625" xlink:href="#DejaVuSans-114"/>
      <use x="2138.535156" xlink:href="#DejaVuSans-46"/>
      <use x="2170.322266" xlink:href="#DejaVuSans-82"/>
      <use x="2239.804688" xlink:href="#DejaVuSans-50"/>
     </g>
    </g>
   </g>
  </g>
 </g>
 <defs>
  <clipPath id="pe780e12a8a">
   <rect height="242.5072" width="921.715" x="63.508125" y="31.48286"/>
  </clipPath>
 </defs>
</svg>
