<?xml version="1.0" encoding="utf-8" standalone="no"?>
<!DOCTYPE svg PUBLIC "-//W3C//DTD SVG 1.1//EN"
  "http://www.w3.org/Graphics/SVG/1.1/DTD/svg11.dtd">
<!-- Created with matplotlib (https://matplotlib.org/) -->
<svg height="330.541644pt" version="1.1" viewBox="0 0 1000.280625 330.541644" width="1000.280625pt" xmlns="http://www.w3.org/2000/svg" xmlns:xlink="http://www.w3.org/1999/xlink">
 <defs>
  <style type="text/css">
*{stroke-linecap:butt;stroke-linejoin:round;}
  </style>
 </defs>
 <g id="figure_1">
  <g id="axes_1">
   <g id="patch_1">
    <path d="M 40.600625 273.99006 
L 985.445625 273.99006 
L 985.445625 31.48286 
L 40.600625 31.48286 
z
" style="fill:#ffffff;"/>
   </g>
   <g id="matplotlib.axis_1">
    <g id="xtick_1">
     <g id="text_1">
      <!-- 0 -->
      <defs>
       <path d="M 31.78125 66.40625 
Q 24.171875 66.40625 20.328125 58.90625 
Q 16.5 51.421875 16.5 36.375 
Q 16.5 21.390625 20.328125 13.890625 
Q 24.171875 6.390625 31.78125 6.390625 
Q 39.453125 6.390625 43.28125 13.890625 
Q 47.125 21.390625 47.125 36.375 
Q 47.125 51.421875 43.28125 58.90625 
Q 39.453125 66.40625 31.78125 66.40625 
z
M 31.78125 74.21875 
Q 44.046875 74.21875 50.515625 64.515625 
Q 56.984375 54.828125 56.984375 36.375 
Q 56.984375 17.96875 50.515625 8.265625 
Q 44.046875 -1.421875 31.78125 -1.421875 
Q 19.53125 -1.421875 13.0625 8.265625 
Q 6.59375 17.96875 6.59375 36.375 
Q 6.59375 54.828125 13.0625 64.515625 
Q 19.53125 74.21875 31.78125 74.21875 
z
" id="DejaVuSans-48"/>
      </defs>
      <g transform="translate(38.055625 287.06881)scale(0.08 -0.08)">
       <use xlink:href="#DejaVuSans-48"/>
      </g>
     </g>
    </g>
    <g id="xtick_2">
     <g id="text_2">
      <!-- 20 -->
      <defs>
       <path d="M 19.1875 8.296875 
L 53.609375 8.296875 
L 53.609375 0 
L 7.328125 0 
L 7.328125 8.296875 
Q 12.9375 14.109375 22.625 23.890625 
Q 32.328125 33.6875 34.8125 36.53125 
Q 39.546875 41.84375 41.421875 45.53125 
Q 43.3125 49.21875 43.3125 52.78125 
Q 43.3125 58.59375 39.234375 62.25 
Q 35.15625 65.921875 28.609375 65.921875 
Q 23.96875 65.921875 18.8125 64.3125 
Q 13.671875 62.703125 7.8125 59.421875 
L 7.8125 69.390625 
Q 13.765625 71.78125 18.9375 73 
Q 24.125 74.21875 28.421875 74.21875 
Q 39.75 74.21875 46.484375 68.546875 
Q 53.21875 62.890625 53.21875 53.421875 
Q 53.21875 48.921875 51.53125 44.890625 
Q 49.859375 40.875 45.40625 35.40625 
Q 44.1875 33.984375 37.640625 27.21875 
Q 31.109375 20.453125 19.1875 8.296875 
z
" id="DejaVuSans-50"/>
      </defs>
      <g transform="translate(224.479625 287.06881)scale(0.08 -0.08)">
       <use xlink:href="#DejaVuSans-50"/>
       <use x="63.623047" xlink:href="#DejaVuSans-48"/>
      </g>
     </g>
    </g>
    <g id="xtick_3">
     <g id="text_3">
      <!-- 40 -->
      <defs>
       <path d="M 37.796875 64.3125 
L 12.890625 25.390625 
L 37.796875 25.390625 
z
M 35.203125 72.90625 
L 47.609375 72.90625 
L 47.609375 25.390625 
L 58.015625 25.390625 
L 58.015625 17.1875 
L 47.609375 17.1875 
L 47.609375 0 
L 37.796875 0 
L 37.796875 17.1875 
L 4.890625 17.1875 
L 4.890625 26.703125 
z
" id="DejaVuSans-52"/>
      </defs>
      <g transform="translate(413.448625 287.06881)scale(0.08 -0.08)">
       <use xlink:href="#DejaVuSans-52"/>
       <use x="63.623047" xlink:href="#DejaVuSans-48"/>
      </g>
     </g>
    </g>
    <g id="xtick_4">
     <g id="text_4">
      <!-- 60 -->
      <defs>
       <path d="M 33.015625 40.375 
Q 26.375 40.375 22.484375 35.828125 
Q 18.609375 31.296875 18.609375 23.390625 
Q 18.609375 15.53125 22.484375 10.953125 
Q 26.375 6.390625 33.015625 6.390625 
Q 39.65625 6.390625 43.53125 10.953125 
Q 47.40625 15.53125 47.40625 23.390625 
Q 47.40625 31.296875 43.53125 35.828125 
Q 39.65625 40.375 33.015625 40.375 
z
M 52.59375 71.296875 
L 52.59375 62.3125 
Q 48.875 64.0625 45.09375 64.984375 
Q 41.3125 65.921875 37.59375 65.921875 
Q 27.828125 65.921875 22.671875 59.328125 
Q 17.53125 52.734375 16.796875 39.40625 
Q 19.671875 43.65625 24.015625 45.921875 
Q 28.375 48.1875 33.59375 48.1875 
Q 44.578125 48.1875 50.953125 41.515625 
Q 57.328125 34.859375 57.328125 23.390625 
Q 57.328125 12.15625 50.6875 5.359375 
Q 44.046875 -1.421875 33.015625 -1.421875 
Q 20.359375 -1.421875 13.671875 8.265625 
Q 6.984375 17.96875 6.984375 36.375 
Q 6.984375 53.65625 15.1875 63.9375 
Q 23.390625 74.21875 37.203125 74.21875 
Q 40.921875 74.21875 44.703125 73.484375 
Q 48.484375 72.75 52.59375 71.296875 
z
" id="DejaVuSans-54"/>
      </defs>
      <g transform="translate(602.417625 287.06881)scale(0.08 -0.08)">
       <use xlink:href="#DejaVuSans-54"/>
       <use x="63.623047" xlink:href="#DejaVuSans-48"/>
      </g>
     </g>
    </g>
    <g id="xtick_5">
     <g id="text_5">
      <!-- 80 -->
      <defs>
       <path d="M 31.78125 34.625 
Q 24.75 34.625 20.71875 30.859375 
Q 16.703125 27.09375 16.703125 20.515625 
Q 16.703125 13.921875 20.71875 10.15625 
Q 24.75 6.390625 31.78125 6.390625 
Q 38.8125 6.390625 42.859375 10.171875 
Q 46.921875 13.96875 46.921875 20.515625 
Q 46.921875 27.09375 42.890625 30.859375 
Q 38.875 34.625 31.78125 34.625 
z
M 21.921875 38.8125 
Q 15.578125 40.375 12.03125 44.71875 
Q 8.5 49.078125 8.5 55.328125 
Q 8.5 64.0625 14.71875 69.140625 
Q 20.953125 74.21875 31.78125 74.21875 
Q 42.671875 74.21875 48.875 69.140625 
Q 55.078125 64.0625 55.078125 55.328125 
Q 55.078125 49.078125 51.53125 44.71875 
Q 48 40.375 41.703125 38.8125 
Q 48.828125 37.15625 52.796875 32.3125 
Q 56.78125 27.484375 56.78125 20.515625 
Q 56.78125 9.90625 50.3125 4.234375 
Q 43.84375 -1.421875 31.78125 -1.421875 
Q 19.734375 -1.421875 13.25 4.234375 
Q 6.78125 9.90625 6.78125 20.515625 
Q 6.78125 27.484375 10.78125 32.3125 
Q 14.796875 37.15625 21.921875 38.8125 
z
M 18.3125 54.390625 
Q 18.3125 48.734375 21.84375 45.5625 
Q 25.390625 42.390625 31.78125 42.390625 
Q 38.140625 42.390625 41.71875 45.5625 
Q 45.3125 48.734375 45.3125 54.390625 
Q 45.3125 60.0625 41.71875 63.234375 
Q 38.140625 66.40625 31.78125 66.40625 
Q 25.390625 66.40625 21.84375 63.234375 
Q 18.3125 60.0625 18.3125 54.390625 
z
" id="DejaVuSans-56"/>
      </defs>
      <g transform="translate(791.386625 287.06881)scale(0.08 -0.08)">
       <use xlink:href="#DejaVuSans-56"/>
       <use x="63.623047" xlink:href="#DejaVuSans-48"/>
      </g>
     </g>
    </g>
    <g id="xtick_6">
     <g id="text_6">
      <!-- 100 -->
      <defs>
       <path d="M 12.40625 8.296875 
L 28.515625 8.296875 
L 28.515625 63.921875 
L 10.984375 60.40625 
L 10.984375 69.390625 
L 28.421875 72.90625 
L 38.28125 72.90625 
L 38.28125 8.296875 
L 54.390625 8.296875 
L 54.390625 0 
L 12.40625 0 
z
" id="DejaVuSans-49"/>
      </defs>
      <g transform="translate(977.810625 287.06881)scale(0.08 -0.08)">
       <use xlink:href="#DejaVuSans-49"/>
       <use x="63.623047" xlink:href="#DejaVuSans-48"/>
       <use x="127.246094" xlink:href="#DejaVuSans-48"/>
      </g>
     </g>
    </g>
    <g id="text_7">
     <!-- % GC -->
     <defs>
      <path d="M 72.703125 32.078125 
Q 68.453125 32.078125 66.03125 28.46875 
Q 63.625 24.859375 63.625 18.40625 
Q 63.625 12.0625 66.03125 8.421875 
Q 68.453125 4.78125 72.703125 4.78125 
Q 76.859375 4.78125 79.265625 8.421875 
Q 81.6875 12.0625 81.6875 18.40625 
Q 81.6875 24.8125 79.265625 28.4375 
Q 76.859375 32.078125 72.703125 32.078125 
z
M 72.703125 38.28125 
Q 80.421875 38.28125 84.953125 32.90625 
Q 89.5 27.546875 89.5 18.40625 
Q 89.5 9.28125 84.9375 3.921875 
Q 80.375 -1.421875 72.703125 -1.421875 
Q 64.890625 -1.421875 60.34375 3.921875 
Q 55.8125 9.28125 55.8125 18.40625 
Q 55.8125 27.59375 60.375 32.9375 
Q 64.9375 38.28125 72.703125 38.28125 
z
M 22.3125 68.015625 
Q 18.109375 68.015625 15.6875 64.375 
Q 13.28125 60.75 13.28125 54.390625 
Q 13.28125 47.953125 15.671875 44.328125 
Q 18.0625 40.71875 22.3125 40.71875 
Q 26.5625 40.71875 28.96875 44.328125 
Q 31.390625 47.953125 31.390625 54.390625 
Q 31.390625 60.6875 28.953125 64.34375 
Q 26.515625 68.015625 22.3125 68.015625 
z
M 66.40625 74.21875 
L 74.21875 74.21875 
L 28.609375 -1.421875 
L 20.796875 -1.421875 
z
M 22.3125 74.21875 
Q 30.03125 74.21875 34.609375 68.875 
Q 39.203125 63.53125 39.203125 54.390625 
Q 39.203125 45.171875 34.640625 39.84375 
Q 30.078125 34.515625 22.3125 34.515625 
Q 14.546875 34.515625 10.03125 39.859375 
Q 5.515625 45.21875 5.515625 54.390625 
Q 5.515625 63.484375 10.046875 68.84375 
Q 14.59375 74.21875 22.3125 74.21875 
z
" id="DejaVuSans-37"/>
      <path id="DejaVuSans-32"/>
      <path d="M 59.515625 10.40625 
L 59.515625 29.984375 
L 43.40625 29.984375 
L 43.40625 38.09375 
L 69.28125 38.09375 
L 69.28125 6.78125 
Q 63.578125 2.734375 56.6875 0.65625 
Q 49.8125 -1.421875 42 -1.421875 
Q 24.90625 -1.421875 15.25 8.5625 
Q 5.609375 18.5625 5.609375 36.375 
Q 5.609375 54.25 15.25 64.234375 
Q 24.90625 74.21875 42 74.21875 
Q 49.125 74.21875 55.546875 72.453125 
Q 61.96875 70.703125 67.390625 67.28125 
L 67.390625 56.78125 
Q 61.921875 61.421875 55.765625 63.765625 
Q 49.609375 66.109375 42.828125 66.109375 
Q 29.4375 66.109375 22.71875 58.640625 
Q 16.015625 51.171875 16.015625 36.375 
Q 16.015625 21.625 22.71875 14.15625 
Q 29.4375 6.6875 42.828125 6.6875 
Q 48.046875 6.6875 52.140625 7.59375 
Q 56.25 8.5 59.515625 10.40625 
z
" id="DejaVuSans-71"/>
      <path d="M 64.40625 67.28125 
L 64.40625 56.890625 
Q 59.421875 61.53125 53.78125 63.8125 
Q 48.140625 66.109375 41.796875 66.109375 
Q 29.296875 66.109375 22.65625 58.46875 
Q 16.015625 50.828125 16.015625 36.375 
Q 16.015625 21.96875 22.65625 14.328125 
Q 29.296875 6.6875 41.796875 6.6875 
Q 48.140625 6.6875 53.78125 8.984375 
Q 59.421875 11.28125 64.40625 15.921875 
L 64.40625 5.609375 
Q 59.234375 2.09375 53.4375 0.328125 
Q 47.65625 -1.421875 41.21875 -1.421875 
Q 24.65625 -1.421875 15.125 8.703125 
Q 5.609375 18.84375 5.609375 36.375 
Q 5.609375 53.953125 15.125 64.078125 
Q 24.65625 74.21875 41.21875 74.21875 
Q 47.75 74.21875 53.53125 72.484375 
Q 59.328125 70.75 64.40625 67.28125 
z
" id="DejaVuSans-67"/>
     </defs>
     <g transform="translate(499.317656 300.330997)scale(0.1 -0.1)">
      <use xlink:href="#DejaVuSans-37"/>
      <use x="95.019531" xlink:href="#DejaVuSans-32"/>
      <use x="126.806641" xlink:href="#DejaVuSans-71"/>
      <use x="204.296875" xlink:href="#DejaVuSans-67"/>
     </g>
    </g>
   </g>
   <g id="matplotlib.axis_2">
    <g id="ytick_1">
     <g id="line2d_1">
      <path clip-path="url(#pc328397416)" d="M 40.600625 273.99006 
L 985.445625 273.99006 
" style="fill:none;stroke:#dedede;stroke-linecap:square;"/>
     </g>
     <g id="text_8">
      <!-- 0.0 -->
      <defs>
       <path d="M 10.6875 12.40625 
L 21 12.40625 
L 21 0 
L 10.6875 0 
z
" id="DejaVuSans-46"/>
      </defs>
      <g transform="translate(20.878125 277.029435)scale(0.08 -0.08)">
       <use xlink:href="#DejaVuSans-48"/>
       <use x="63.623047" xlink:href="#DejaVuSans-46"/>
       <use x="95.410156" xlink:href="#DejaVuSans-48"/>
      </g>
     </g>
    </g>
    <g id="ytick_2">
     <g id="line2d_2">
      <path clip-path="url(#pc328397416)" d="M 40.600625 246.268754 
L 985.445625 246.268754 
" style="fill:none;stroke:#dedede;stroke-linecap:square;"/>
     </g>
     <g id="text_9">
      <!-- 0.5 -->
      <defs>
       <path d="M 10.796875 72.90625 
L 49.515625 72.90625 
L 49.515625 64.59375 
L 19.828125 64.59375 
L 19.828125 46.734375 
Q 21.96875 47.46875 24.109375 47.828125 
Q 26.265625 48.1875 28.421875 48.1875 
Q 40.625 48.1875 47.75 41.5 
Q 54.890625 34.8125 54.890625 23.390625 
Q 54.890625 11.625 47.5625 5.09375 
Q 40.234375 -1.421875 26.90625 -1.421875 
Q 22.3125 -1.421875 17.546875 -0.640625 
Q 12.796875 0.140625 7.71875 1.703125 
L 7.71875 11.625 
Q 12.109375 9.234375 16.796875 8.0625 
Q 21.484375 6.890625 26.703125 6.890625 
Q 35.15625 6.890625 40.078125 11.328125 
Q 45.015625 15.765625 45.015625 23.390625 
Q 45.015625 31 40.078125 35.4375 
Q 35.15625 39.890625 26.703125 39.890625 
Q 22.75 39.890625 18.8125 39.015625 
Q 14.890625 38.140625 10.796875 36.28125 
z
" id="DejaVuSans-53"/>
      </defs>
      <g transform="translate(20.878125 249.308129)scale(0.08 -0.08)">
       <use xlink:href="#DejaVuSans-48"/>
       <use x="63.623047" xlink:href="#DejaVuSans-46"/>
       <use x="95.410156" xlink:href="#DejaVuSans-53"/>
      </g>
     </g>
    </g>
    <g id="ytick_3">
     <g id="line2d_3">
      <path clip-path="url(#pc328397416)" d="M 40.600625 218.547449 
L 985.445625 218.547449 
" style="fill:none;stroke:#dedede;stroke-linecap:square;"/>
     </g>
     <g id="text_10">
      <!-- 1.0 -->
      <g transform="translate(20.878125 221.586824)scale(0.08 -0.08)">
       <use xlink:href="#DejaVuSans-49"/>
       <use x="63.623047" xlink:href="#DejaVuSans-46"/>
       <use x="95.410156" xlink:href="#DejaVuSans-48"/>
      </g>
     </g>
    </g>
    <g id="ytick_4">
     <g id="line2d_4">
      <path clip-path="url(#pc328397416)" d="M 40.600625 190.826143 
L 985.445625 190.826143 
" style="fill:none;stroke:#dedede;stroke-linecap:square;"/>
     </g>
     <g id="text_11">
      <!-- 1.5 -->
      <g transform="translate(20.878125 193.865518)scale(0.08 -0.08)">
       <use xlink:href="#DejaVuSans-49"/>
       <use x="63.623047" xlink:href="#DejaVuSans-46"/>
       <use x="95.410156" xlink:href="#DejaVuSans-53"/>
      </g>
     </g>
    </g>
    <g id="ytick_5">
     <g id="line2d_5">
      <path clip-path="url(#pc328397416)" d="M 40.600625 163.104837 
L 985.445625 163.104837 
" style="fill:none;stroke:#dedede;stroke-linecap:square;"/>
     </g>
     <g id="text_12">
      <!-- 2.0 -->
      <g transform="translate(20.878125 166.144212)scale(0.08 -0.08)">
       <use xlink:href="#DejaVuSans-50"/>
       <use x="63.623047" xlink:href="#DejaVuSans-46"/>
       <use x="95.410156" xlink:href="#DejaVuSans-48"/>
      </g>
     </g>
    </g>
    <g id="ytick_6">
     <g id="line2d_6">
      <path clip-path="url(#pc328397416)" d="M 40.600625 135.383532 
L 985.445625 135.383532 
" style="fill:none;stroke:#dedede;stroke-linecap:square;"/>
     </g>
     <g id="text_13">
      <!-- 2.5 -->
      <g transform="translate(20.878125 138.422907)scale(0.08 -0.08)">
       <use xlink:href="#DejaVuSans-50"/>
       <use x="63.623047" xlink:href="#DejaVuSans-46"/>
       <use x="95.410156" xlink:href="#DejaVuSans-53"/>
      </g>
     </g>
    </g>
    <g id="ytick_7">
     <g id="line2d_7">
      <path clip-path="url(#pc328397416)" d="M 40.600625 107.662226 
L 985.445625 107.662226 
" style="fill:none;stroke:#dedede;stroke-linecap:square;"/>
     </g>
     <g id="text_14">
      <!-- 3.0 -->
      <defs>
       <path d="M 40.578125 39.3125 
Q 47.65625 37.796875 51.625 33 
Q 55.609375 28.21875 55.609375 21.1875 
Q 55.609375 10.40625 48.1875 4.484375 
Q 40.765625 -1.421875 27.09375 -1.421875 
Q 22.515625 -1.421875 17.65625 -0.515625 
Q 12.796875 0.390625 7.625 2.203125 
L 7.625 11.71875 
Q 11.71875 9.328125 16.59375 8.109375 
Q 21.484375 6.890625 26.8125 6.890625 
Q 36.078125 6.890625 40.9375 10.546875 
Q 45.796875 14.203125 45.796875 21.1875 
Q 45.796875 27.640625 41.28125 31.265625 
Q 36.765625 34.90625 28.71875 34.90625 
L 20.21875 34.90625 
L 20.21875 43.015625 
L 29.109375 43.015625 
Q 36.375 43.015625 40.234375 45.921875 
Q 44.09375 48.828125 44.09375 54.296875 
Q 44.09375 59.90625 40.109375 62.90625 
Q 36.140625 65.921875 28.71875 65.921875 
Q 24.65625 65.921875 20.015625 65.03125 
Q 15.375 64.15625 9.8125 62.3125 
L 9.8125 71.09375 
Q 15.4375 72.65625 20.34375 73.4375 
Q 25.25 74.21875 29.59375 74.21875 
Q 40.828125 74.21875 47.359375 69.109375 
Q 53.90625 64.015625 53.90625 55.328125 
Q 53.90625 49.265625 50.4375 45.09375 
Q 46.96875 40.921875 40.578125 39.3125 
z
" id="DejaVuSans-51"/>
      </defs>
      <g transform="translate(20.878125 110.701601)scale(0.08 -0.08)">
       <use xlink:href="#DejaVuSans-51"/>
       <use x="63.623047" xlink:href="#DejaVuSans-46"/>
       <use x="95.410156" xlink:href="#DejaVuSans-48"/>
      </g>
     </g>
    </g>
    <g id="ytick_8">
     <g id="line2d_8">
      <path clip-path="url(#pc328397416)" d="M 40.600625 79.940921 
L 985.445625 79.940921 
" style="fill:none;stroke:#dedede;stroke-linecap:square;"/>
     </g>
     <g id="text_15">
      <!-- 3.5 -->
      <g transform="translate(20.878125 82.980296)scale(0.08 -0.08)">
       <use xlink:href="#DejaVuSans-51"/>
       <use x="63.623047" xlink:href="#DejaVuSans-46"/>
       <use x="95.410156" xlink:href="#DejaVuSans-53"/>
      </g>
     </g>
    </g>
    <g id="ytick_9">
     <g id="line2d_9">
      <path clip-path="url(#pc328397416)" d="M 40.600625 52.219615 
L 985.445625 52.219615 
" style="fill:none;stroke:#dedede;stroke-linecap:square;"/>
     </g>
     <g id="text_16">
      <!-- 4.0 -->
      <g transform="translate(20.878125 55.25899)scale(0.08 -0.08)">
       <use xlink:href="#DejaVuSans-52"/>
       <use x="63.623047" xlink:href="#DejaVuSans-46"/>
       <use x="95.410156" xlink:href="#DejaVuSans-48"/>
      </g>
     </g>
    </g>
    <g id="text_17">
     <!-- Percentage -->
     <defs>
      <path d="M 19.671875 64.796875 
L 19.671875 37.40625 
L 32.078125 37.40625 
Q 38.96875 37.40625 42.71875 40.96875 
Q 46.484375 44.53125 46.484375 51.125 
Q 46.484375 57.671875 42.71875 61.234375 
Q 38.96875 64.796875 32.078125 64.796875 
z
M 9.8125 72.90625 
L 32.078125 72.90625 
Q 44.34375 72.90625 50.609375 67.359375 
Q 56.890625 61.8125 56.890625 51.125 
Q 56.890625 40.328125 50.609375 34.8125 
Q 44.34375 29.296875 32.078125 29.296875 
L 19.671875 29.296875 
L 19.671875 0 
L 9.8125 0 
z
" id="DejaVuSans-80"/>
      <path d="M 56.203125 29.59375 
L 56.203125 25.203125 
L 14.890625 25.203125 
Q 15.484375 15.921875 20.484375 11.0625 
Q 25.484375 6.203125 34.421875 6.203125 
Q 39.59375 6.203125 44.453125 7.46875 
Q 49.3125 8.734375 54.109375 11.28125 
L 54.109375 2.78125 
Q 49.265625 0.734375 44.1875 -0.34375 
Q 39.109375 -1.421875 33.890625 -1.421875 
Q 20.796875 -1.421875 13.15625 6.1875 
Q 5.515625 13.8125 5.515625 26.8125 
Q 5.515625 40.234375 12.765625 48.109375 
Q 20.015625 56 32.328125 56 
Q 43.359375 56 49.78125 48.890625 
Q 56.203125 41.796875 56.203125 29.59375 
z
M 47.21875 32.234375 
Q 47.125 39.59375 43.09375 43.984375 
Q 39.0625 48.390625 32.421875 48.390625 
Q 24.90625 48.390625 20.390625 44.140625 
Q 15.875 39.890625 15.1875 32.171875 
z
" id="DejaVuSans-101"/>
      <path d="M 41.109375 46.296875 
Q 39.59375 47.171875 37.8125 47.578125 
Q 36.03125 48 33.890625 48 
Q 26.265625 48 22.1875 43.046875 
Q 18.109375 38.09375 18.109375 28.8125 
L 18.109375 0 
L 9.078125 0 
L 9.078125 54.6875 
L 18.109375 54.6875 
L 18.109375 46.1875 
Q 20.953125 51.171875 25.484375 53.578125 
Q 30.03125 56 36.53125 56 
Q 37.453125 56 38.578125 55.875 
Q 39.703125 55.765625 41.0625 55.515625 
z
" id="DejaVuSans-114"/>
      <path d="M 48.78125 52.59375 
L 48.78125 44.1875 
Q 44.96875 46.296875 41.140625 47.34375 
Q 37.3125 48.390625 33.40625 48.390625 
Q 24.65625 48.390625 19.8125 42.84375 
Q 14.984375 37.3125 14.984375 27.296875 
Q 14.984375 17.28125 19.8125 11.734375 
Q 24.65625 6.203125 33.40625 6.203125 
Q 37.3125 6.203125 41.140625 7.25 
Q 44.96875 8.296875 48.78125 10.40625 
L 48.78125 2.09375 
Q 45.015625 0.34375 40.984375 -0.53125 
Q 36.96875 -1.421875 32.421875 -1.421875 
Q 20.0625 -1.421875 12.78125 6.34375 
Q 5.515625 14.109375 5.515625 27.296875 
Q 5.515625 40.671875 12.859375 48.328125 
Q 20.21875 56 33.015625 56 
Q 37.15625 56 41.109375 55.140625 
Q 45.0625 54.296875 48.78125 52.59375 
z
" id="DejaVuSans-99"/>
      <path d="M 54.890625 33.015625 
L 54.890625 0 
L 45.90625 0 
L 45.90625 32.71875 
Q 45.90625 40.484375 42.875 44.328125 
Q 39.84375 48.1875 33.796875 48.1875 
Q 26.515625 48.1875 22.3125 43.546875 
Q 18.109375 38.921875 18.109375 30.90625 
L 18.109375 0 
L 9.078125 0 
L 9.078125 54.6875 
L 18.109375 54.6875 
L 18.109375 46.1875 
Q 21.34375 51.125 25.703125 53.5625 
Q 30.078125 56 35.796875 56 
Q 45.21875 56 50.046875 50.171875 
Q 54.890625 44.34375 54.890625 33.015625 
z
" id="DejaVuSans-110"/>
      <path d="M 18.3125 70.21875 
L 18.3125 54.6875 
L 36.8125 54.6875 
L 36.8125 47.703125 
L 18.3125 47.703125 
L 18.3125 18.015625 
Q 18.3125 11.328125 20.140625 9.421875 
Q 21.96875 7.515625 27.59375 7.515625 
L 36.8125 7.515625 
L 36.8125 0 
L 27.59375 0 
Q 17.1875 0 13.234375 3.875 
Q 9.28125 7.765625 9.28125 18.015625 
L 9.28125 47.703125 
L 2.6875 47.703125 
L 2.6875 54.6875 
L 9.28125 54.6875 
L 9.28125 70.21875 
z
" id="DejaVuSans-116"/>
      <path d="M 34.28125 27.484375 
Q 23.390625 27.484375 19.1875 25 
Q 14.984375 22.515625 14.984375 16.5 
Q 14.984375 11.71875 18.140625 8.90625 
Q 21.296875 6.109375 26.703125 6.109375 
Q 34.1875 6.109375 38.703125 11.40625 
Q 43.21875 16.703125 43.21875 25.484375 
L 43.21875 27.484375 
z
M 52.203125 31.203125 
L 52.203125 0 
L 43.21875 0 
L 43.21875 8.296875 
Q 40.140625 3.328125 35.546875 0.953125 
Q 30.953125 -1.421875 24.3125 -1.421875 
Q 15.921875 -1.421875 10.953125 3.296875 
Q 6 8.015625 6 15.921875 
Q 6 25.140625 12.171875 29.828125 
Q 18.359375 34.515625 30.609375 34.515625 
L 43.21875 34.515625 
L 43.21875 35.40625 
Q 43.21875 41.609375 39.140625 45 
Q 35.0625 48.390625 27.6875 48.390625 
Q 23 48.390625 18.546875 47.265625 
Q 14.109375 46.140625 10.015625 43.890625 
L 10.015625 52.203125 
Q 14.9375 54.109375 19.578125 55.046875 
Q 24.21875 56 28.609375 56 
Q 40.484375 56 46.34375 49.84375 
Q 52.203125 43.703125 52.203125 31.203125 
z
" id="DejaVuSans-97"/>
      <path d="M 45.40625 27.984375 
Q 45.40625 37.75 41.375 43.109375 
Q 37.359375 48.484375 30.078125 48.484375 
Q 22.859375 48.484375 18.828125 43.109375 
Q 14.796875 37.75 14.796875 27.984375 
Q 14.796875 18.265625 18.828125 12.890625 
Q 22.859375 7.515625 30.078125 7.515625 
Q 37.359375 7.515625 41.375 12.890625 
Q 45.40625 18.265625 45.40625 27.984375 
z
M 54.390625 6.78125 
Q 54.390625 -7.171875 48.1875 -13.984375 
Q 42 -20.796875 29.203125 -20.796875 
Q 24.46875 -20.796875 20.265625 -20.09375 
Q 16.0625 -19.390625 12.109375 -17.921875 
L 12.109375 -9.1875 
Q 16.0625 -11.328125 19.921875 -12.34375 
Q 23.78125 -13.375 27.78125 -13.375 
Q 36.625 -13.375 41.015625 -8.765625 
Q 45.40625 -4.15625 45.40625 5.171875 
L 45.40625 9.625 
Q 42.625 4.78125 38.28125 2.390625 
Q 33.9375 0 27.875 0 
Q 17.828125 0 11.671875 7.65625 
Q 5.515625 15.328125 5.515625 27.984375 
Q 5.515625 40.671875 11.671875 48.328125 
Q 17.828125 56 27.875 56 
Q 33.9375 56 38.28125 53.609375 
Q 42.625 51.21875 45.40625 46.390625 
L 45.40625 54.6875 
L 54.390625 54.6875 
z
" id="DejaVuSans-103"/>
     </defs>
     <g transform="translate(14.798438 181.14896)rotate(-90)scale(0.1 -0.1)">
      <use xlink:href="#DejaVuSans-80"/>
      <use x="60.255859" xlink:href="#DejaVuSans-101"/>
      <use x="121.779297" xlink:href="#DejaVuSans-114"/>
      <use x="162.861328" xlink:href="#DejaVuSans-99"/>
      <use x="217.841797" xlink:href="#DejaVuSans-101"/>
      <use x="279.365234" xlink:href="#DejaVuSans-110"/>
      <use x="342.744141" xlink:href="#DejaVuSans-116"/>
      <use x="381.953125" xlink:href="#DejaVuSans-97"/>
      <use x="443.232422" xlink:href="#DejaVuSans-103"/>
      <use x="506.708984" xlink:href="#DejaVuSans-101"/>
     </g>
    </g>
   </g>
   <g id="line2d_10">
    <path clip-path="url(#pc328397416)" d="M 40.600625 273.99006 
L 50.049075 273.99006 
L 59.497525 273.99006 
L 68.945975 273.99006 
L 78.394425 273.99006 
L 87.842875 273.989927 
L 97.291325 273.989394 
L 106.739775 273.988728 
L 116.188225 273.987663 
L 125.636675 273.984201 
L 135.085125 273.97914 
L 144.533575 273.97115 
L 153.982025 273.956901 
L 163.430475 273.935993 
L 172.878925 273.91655 
L 182.327375 273.886986 
L 191.775825 273.824396 
L 201.224275 273.732109 
L 210.672725 273.611457 
L 220.121175 273.422888 
L 229.569625 273.147092 
L 239.018075 272.717352 
L 248.466525 272.040314 
L 257.914975 271.022227 
L 267.363425 269.528856 
L 276.811875 267.457792 
L 286.260325 264.611544 
L 295.708775 260.813262 
L 305.157225 255.959738 
L 314.605675 249.748544 
L 324.054125 242.23015 
L 333.502575 233.506166 
L 342.951025 223.089721 
L 352.399475 211.151939 
L 361.847925 197.791499 
L 371.296375 182.87896 
L 380.744825 167.025972 
L 390.193275 150.387013 
L 399.641725 133.251596 
L 409.090175 116.744342 
L 418.538625 101.738451 
L 427.987075 88.094225 
L 437.435525 76.095983 
L 446.883975 65.538112 
L 456.332425 55.77793 
L 465.780875 48.233701 
L 475.229325 44.032579 
L 484.677775 43.237153 
L 494.126225 44.434087 
L 503.574675 47.268083 
L 513.023125 52.362379 
L 522.471575 59.230369 
L 531.920025 67.840892 
L 541.368475 78.149469 
L 550.816925 90.364511 
L 560.265375 104.136181 
L 569.713825 118.728579 
L 579.162275 133.120023 
L 588.610725 146.637738 
L 598.059175 159.17918 
L 607.507625 171.091127 
L 616.956075 182.65803 
L 626.404525 193.44642 
L 635.852975 203.396236 
L 645.301425 212.707102 
L 654.749875 221.412575 
L 664.198325 229.006343 
L 673.646775 235.384533 
L 683.095225 240.944658 
L 692.543675 245.876352 
L 701.992125 250.150452 
L 711.440575 253.721013 
L 720.889025 256.963576 
L 730.337475 260.069772 
L 739.785925 262.891517 
L 749.234375 265.323605 
L 758.682825 267.32915 
L 768.131275 268.998173 
L 777.579725 270.291123 
L 787.028175 271.242225 
L 796.476625 272.011683 
L 805.925075 272.631856 
L 815.373525 273.093291 
L 824.821975 273.393058 
L 834.270425 273.655004 
L 843.718875 273.853161 
L 853.167325 273.934528 
L 862.615775 273.967687 
L 872.064225 273.981537 
L 881.512675 273.987929 
L 890.961125 273.989394 
L 900.409575 273.989794 
L 909.858025 273.99006 
L 919.306475 273.99006 
L 928.754925 273.99006 
L 938.203375 273.99006 
L 947.651825 273.99006 
L 957.100275 273.99006 
L 966.548725 273.99006 
L 975.997175 273.99006 
L 985.445625 273.99006 
" style="fill:none;stroke:#5cb85c;stroke-linecap:square;"/>
   </g>
   <g id="line2d_11">
    <path clip-path="url(#pc328397416)" d="M 40.600625 273.99006 
L 50.049075 273.99006 
L 59.497525 273.99006 
L 68.945975 273.99006 
L 78.394425 273.99006 
L 87.842875 273.99006 
L 97.291325 273.989927 
L 106.739775 273.989527 
L 116.188225 273.988062 
L 125.636675 273.984733 
L 135.085125 273.975944 
L 144.533575 273.965823 
L 153.982025 273.953438 
L 163.430475 273.928669 
L 172.878925 273.899105 
L 182.327375 273.850498 
L 191.775825 273.77752 
L 201.224275 273.664991 
L 210.672725 273.503456 
L 220.121175 273.275069 
L 229.569625 272.925763 
L 239.018075 272.392416 
L 248.466525 271.566494 
L 257.914975 270.288193 
L 267.363425 268.505576 
L 276.811875 266.104383 
L 286.260325 262.806288 
L 295.708775 258.489307 
L 305.157225 253.030525 
L 314.605675 246.28079 
L 324.054125 238.147949 
L 333.502575 228.532656 
L 342.951025 217.237288 
L 352.399475 204.605289 
L 361.847925 190.68913 
L 371.296375 175.569111 
L 380.744825 159.711196 
L 390.193275 143.133762 
L 399.641725 126.258426 
L 409.090175 110.157741 
L 418.538625 95.655499 
L 427.987075 82.861166 
L 437.435525 71.513062 
L 446.883975 61.641416 
L 456.332425 53.313481 
L 465.780875 47.309766 
L 475.229325 44.511326 
L 484.677775 43.940958 
L 494.126225 45.496653 
L 503.574675 49.599762 
L 513.023125 55.939732 
L 522.471575 63.689575 
L 531.920025 72.568703 
L 541.368475 83.374804 
L 550.816925 95.882421 
L 560.265375 109.890468 
L 569.713825 124.762391 
L 579.162275 139.258107 
L 588.610725 152.678474 
L 598.059175 164.987002 
L 607.507625 176.538724 
L 616.956075 187.740607 
L 626.404525 198.13428 
L 635.852975 207.776473 
L 645.301425 216.80515 
L 654.749875 224.853961 
L 664.198325 232.028243 
L 673.646775 238.148881 
L 683.095225 243.35171 
L 692.543675 247.901739 
L 701.992125 251.867017 
L 711.440575 255.129555 
L 720.889025 258.160643 
L 730.337475 261.0274 
L 739.785925 263.553107 
L 749.234375 265.810609 
L 758.682825 267.672596 
L 768.131275 269.209381 
L 777.579725 270.42962 
L 787.028175 271.349027 
L 796.476625 272.051767 
L 805.925075 272.610283 
L 815.373525 273.052675 
L 824.821975 273.367489 
L 834.270425 273.624907 
L 843.718875 273.818004 
L 853.167325 273.917482 
L 862.615775 273.957167 
L 872.064225 273.978075 
L 881.512675 273.986198 
L 890.961125 273.988196 
L 900.409575 273.989261 
L 909.858025 273.99006 
L 919.306475 273.99006 
L 928.754925 273.99006 
L 938.203375 273.99006 
L 947.651825 273.99006 
L 957.100275 273.99006 
L 966.548725 273.99006 
L 975.997175 273.99006 
L 985.445625 273.99006 
" style="fill:none;stroke:#5cb85c;stroke-linecap:square;"/>
   </g>
   <g id="line2d_12">
    <path clip-path="url(#pc328397416)" d="M 40.600625 273.99006 
L 50.049075 273.99006 
L 59.497525 273.99006 
L 68.945975 273.99006 
L 78.394425 273.99006 
L 87.842875 273.989975 
L 97.291325 273.989975 
L 106.739775 273.989889 
L 116.188225 273.989035 
L 125.636675 273.988352 
L 135.085125 273.986644 
L 144.533575 273.980495 
L 153.982025 273.972125 
L 163.430475 273.960082 
L 172.878925 273.936254 
L 182.327375 273.900811 
L 191.775825 273.851019 
L 201.224275 273.767919 
L 210.672725 273.632465 
L 220.121175 273.415021 
L 229.569625 273.09321 
L 239.018075 272.596232 
L 248.466525 271.808105 
L 257.914975 270.617885 
L 267.363425 268.932651 
L 276.811875 266.589107 
L 286.260325 263.366905 
L 295.708775 259.137594 
L 305.157225 253.714733 
L 314.605675 246.85107 
L 324.054125 238.56514 
L 333.502575 228.894007 
L 342.951025 217.653964 
L 352.399475 204.65148 
L 361.847925 190.213491 
L 371.296375 174.83407 
L 380.744825 158.425761 
L 390.193275 141.418072 
L 399.641725 124.548655 
L 409.090175 108.354374 
L 418.538625 93.597564 
L 427.987075 80.527182 
L 437.435525 69.466151 
L 446.883975 59.882303 
L 456.332425 51.497216 
L 465.780875 45.881336 
L 475.229325 43.093425 
L 484.677775 43.030822 
L 494.126225 45.41109 
L 503.574675 49.453533 
L 513.023125 55.610801 
L 522.471575 63.685779 
L 531.920025 73.046033 
L 541.368475 83.969049 
L 550.816925 96.568928 
L 560.265375 110.584157 
L 569.713825 125.374106 
L 579.162275 139.735059 
L 588.610725 152.865993 
L 598.059175 165.285324 
L 607.507625 177.21895 
L 616.956075 188.237706 
L 626.404525 198.567576 
L 635.852975 208.292941 
L 645.301425 217.312169 
L 654.749875 225.464781 
L 664.198325 232.679121 
L 673.646775 238.77447 
L 683.095225 244.014306 
L 692.543675 248.560986 
L 701.992125 252.466096 
L 711.440575 255.903777 
L 720.889025 258.914343 
L 730.337475 261.666897 
L 739.785925 264.131546 
L 749.234375 266.290955 
L 758.682825 268.105835 
L 768.131275 269.571147 
L 777.579725 270.748215 
L 787.028175 271.589636 
L 796.476625 272.236075 
L 805.925075 272.802744 
L 815.373525 273.210388 
L 824.821975 273.493082 
L 834.270425 273.713771 
L 843.718875 273.865111 
L 853.167325 273.939414 
L 862.615775 273.968623 
L 872.064225 273.983057 
L 881.512675 273.988181 
L 890.961125 273.989718 
L 900.409575 273.99006 
L 909.858025 273.99006 
L 919.306475 273.99006 
L 928.754925 273.99006 
L 938.203375 273.99006 
L 947.651825 273.99006 
L 957.100275 273.99006 
L 966.548725 273.99006 
L 975.997175 273.99006 
L 985.445625 273.99006 
" style="fill:none;stroke:#5cb85c;stroke-linecap:square;"/>
   </g>
   <g id="line2d_13">
    <path clip-path="url(#pc328397416)" d="M 40.600625 273.99006 
L 50.049075 273.99006 
L 59.497525 273.99006 
L 68.945975 273.99006 
L 78.394425 273.99006 
L 87.842875 273.99006 
L 97.291325 273.989889 
L 106.739775 273.98895 
L 116.188225 273.987839 
L 125.636675 273.986388 
L 135.085125 273.982886 
L 144.533575 273.973577 
L 153.982025 273.959741 
L 163.430475 273.939585 
L 172.878925 273.908668 
L 182.327375 273.858535 
L 191.775825 273.783804 
L 201.224275 273.671495 
L 210.672725 273.498548 
L 220.121175 273.224907 
L 229.569625 272.800865 
L 239.018075 272.166127 
L 248.466525 271.179174 
L 257.914975 269.72949 
L 267.363425 267.715102 
L 276.811875 265.001749 
L 286.260325 261.280007 
L 295.708775 256.433124 
L 305.157225 250.390214 
L 314.605675 242.905051 
L 324.054125 233.834324 
L 333.502575 223.291537 
L 342.951025 211.199568 
L 352.399475 197.754339 
L 361.847925 183.213435 
L 371.296375 167.532017 
L 380.744825 150.905667 
L 390.193275 134.101074 
L 399.641725 117.443891 
L 409.090175 101.897416 
L 418.538625 88.052999 
L 427.987075 75.697893 
L 437.435525 65.566593 
L 446.883975 56.960645 
L 456.332425 49.707616 
L 465.780875 45.117123 
L 475.229325 43.176525 
L 484.677775 43.912298 
L 494.126225 47.206669 
L 503.574675 52.320275 
L 513.023125 59.396171 
L 522.471575 68.029022 
L 531.920025 77.895393 
L 541.368475 89.421717 
L 550.816925 102.604578 
L 560.265375 116.751419 
L 569.713825 131.37064 
L 579.162275 145.585122 
L 588.610725 158.733906 
L 598.059175 170.98772 
L 607.507625 182.768896 
L 616.956075 193.650233 
L 626.404525 203.45904 
L 635.852975 212.583659 
L 645.301425 221.126918 
L 654.749875 228.826536 
L 664.198325 235.55372 
L 673.646775 241.433846 
L 683.095225 246.37049 
L 692.543675 250.641223 
L 701.992125 254.190958 
L 711.440575 257.237308 
L 720.889025 260.006687 
L 730.337475 262.526595 
L 739.785925 264.824617 
L 749.234375 266.798438 
L 758.682825 268.448655 
L 768.131275 269.82079 
L 777.579725 270.877776 
L 787.028175 271.668038 
L 796.476625 272.277411 
L 805.925075 272.785919 
L 815.373525 273.187328 
L 824.821975 273.454478 
L 834.270425 273.68311 
L 843.718875 273.844443 
L 853.167325 273.915927 
L 862.615775 273.958033 
L 872.064225 273.97742 
L 881.512675 273.984252 
L 890.961125 273.988694 
L 900.409575 273.989718 
L 909.858025 273.989718 
L 919.306475 273.989975 
L 928.754925 273.99006 
L 938.203375 273.99006 
L 947.651825 273.99006 
L 957.100275 273.99006 
L 966.548725 273.99006 
L 975.997175 273.99006 
L 985.445625 273.99006 
" style="fill:none;stroke:#5cb85c;stroke-linecap:square;"/>
   </g>
   <g id="line2d_14">
    <path clip-path="url(#pc328397416)" d="M 40.600625 273.99006 
L 985.445625 273.99006 
" style="fill:none;stroke:#dedede;stroke-linecap:square;stroke-width:2;"/>
   </g>
   <g id="text_18">
    <!-- FastQC: Per Sequence GC Content -->
    <defs>
     <path d="M 9.8125 72.90625 
L 51.703125 72.90625 
L 51.703125 64.59375 
L 19.671875 64.59375 
L 19.671875 43.109375 
L 48.578125 43.109375 
L 48.578125 34.8125 
L 19.671875 34.8125 
L 19.671875 0 
L 9.8125 0 
z
" id="DejaVuSans-70"/>
     <path d="M 44.28125 53.078125 
L 44.28125 44.578125 
Q 40.484375 46.53125 36.375 47.5 
Q 32.28125 48.484375 27.875 48.484375 
Q 21.1875 48.484375 17.84375 46.4375 
Q 14.5 44.390625 14.5 40.28125 
Q 14.5 37.15625 16.890625 35.375 
Q 19.28125 33.59375 26.515625 31.984375 
L 29.59375 31.296875 
Q 39.15625 29.25 43.1875 25.515625 
Q 47.21875 21.78125 47.21875 15.09375 
Q 47.21875 7.46875 41.1875 3.015625 
Q 35.15625 -1.421875 24.609375 -1.421875 
Q 20.21875 -1.421875 15.453125 -0.5625 
Q 10.6875 0.296875 5.421875 2 
L 5.421875 11.28125 
Q 10.40625 8.6875 15.234375 7.390625 
Q 20.0625 6.109375 24.8125 6.109375 
Q 31.15625 6.109375 34.5625 8.28125 
Q 37.984375 10.453125 37.984375 14.40625 
Q 37.984375 18.0625 35.515625 20.015625 
Q 33.0625 21.96875 24.703125 23.78125 
L 21.578125 24.515625 
Q 13.234375 26.265625 9.515625 29.90625 
Q 5.8125 33.546875 5.8125 39.890625 
Q 5.8125 47.609375 11.28125 51.796875 
Q 16.75 56 26.8125 56 
Q 31.78125 56 36.171875 55.265625 
Q 40.578125 54.546875 44.28125 53.078125 
z
" id="DejaVuSans-115"/>
     <path d="M 39.40625 66.21875 
Q 28.65625 66.21875 22.328125 58.203125 
Q 16.015625 50.203125 16.015625 36.375 
Q 16.015625 22.609375 22.328125 14.59375 
Q 28.65625 6.59375 39.40625 6.59375 
Q 50.140625 6.59375 56.421875 14.59375 
Q 62.703125 22.609375 62.703125 36.375 
Q 62.703125 50.203125 56.421875 58.203125 
Q 50.140625 66.21875 39.40625 66.21875 
z
M 53.21875 1.3125 
L 66.21875 -12.890625 
L 54.296875 -12.890625 
L 43.5 -1.21875 
Q 41.890625 -1.3125 41.03125 -1.359375 
Q 40.1875 -1.421875 39.40625 -1.421875 
Q 24.03125 -1.421875 14.8125 8.859375 
Q 5.609375 19.140625 5.609375 36.375 
Q 5.609375 53.65625 14.8125 63.9375 
Q 24.03125 74.21875 39.40625 74.21875 
Q 54.734375 74.21875 63.90625 63.9375 
Q 73.09375 53.65625 73.09375 36.375 
Q 73.09375 23.6875 67.984375 14.640625 
Q 62.890625 5.609375 53.21875 1.3125 
z
" id="DejaVuSans-81"/>
     <path d="M 11.71875 12.40625 
L 22.015625 12.40625 
L 22.015625 0 
L 11.71875 0 
z
M 11.71875 51.703125 
L 22.015625 51.703125 
L 22.015625 39.3125 
L 11.71875 39.3125 
z
" id="DejaVuSans-58"/>
     <path d="M 53.515625 70.515625 
L 53.515625 60.890625 
Q 47.90625 63.578125 42.921875 64.890625 
Q 37.9375 66.21875 33.296875 66.21875 
Q 25.25 66.21875 20.875 63.09375 
Q 16.5 59.96875 16.5 54.203125 
Q 16.5 49.359375 19.40625 46.890625 
Q 22.3125 44.4375 30.421875 42.921875 
L 36.375 41.703125 
Q 47.40625 39.59375 52.65625 34.296875 
Q 57.90625 29 57.90625 20.125 
Q 57.90625 9.515625 50.796875 4.046875 
Q 43.703125 -1.421875 29.984375 -1.421875 
Q 24.8125 -1.421875 18.96875 -0.25 
Q 13.140625 0.921875 6.890625 3.21875 
L 6.890625 13.375 
Q 12.890625 10.015625 18.65625 8.296875 
Q 24.421875 6.59375 29.984375 6.59375 
Q 38.421875 6.59375 43.015625 9.90625 
Q 47.609375 13.234375 47.609375 19.390625 
Q 47.609375 24.75 44.3125 27.78125 
Q 41.015625 30.8125 33.5 32.328125 
L 27.484375 33.5 
Q 16.453125 35.6875 11.515625 40.375 
Q 6.59375 45.0625 6.59375 53.421875 
Q 6.59375 63.09375 13.40625 68.65625 
Q 20.21875 74.21875 32.171875 74.21875 
Q 37.3125 74.21875 42.625 73.28125 
Q 47.953125 72.359375 53.515625 70.515625 
z
" id="DejaVuSans-83"/>
     <path d="M 14.796875 27.296875 
Q 14.796875 17.390625 18.875 11.75 
Q 22.953125 6.109375 30.078125 6.109375 
Q 37.203125 6.109375 41.296875 11.75 
Q 45.40625 17.390625 45.40625 27.296875 
Q 45.40625 37.203125 41.296875 42.84375 
Q 37.203125 48.484375 30.078125 48.484375 
Q 22.953125 48.484375 18.875 42.84375 
Q 14.796875 37.203125 14.796875 27.296875 
z
M 45.40625 8.203125 
Q 42.578125 3.328125 38.25 0.953125 
Q 33.9375 -1.421875 27.875 -1.421875 
Q 17.96875 -1.421875 11.734375 6.484375 
Q 5.515625 14.40625 5.515625 27.296875 
Q 5.515625 40.1875 11.734375 48.09375 
Q 17.96875 56 27.875 56 
Q 33.9375 56 38.25 53.625 
Q 42.578125 51.265625 45.40625 46.390625 
L 45.40625 54.6875 
L 54.390625 54.6875 
L 54.390625 -20.796875 
L 45.40625 -20.796875 
z
" id="DejaVuSans-113"/>
     <path d="M 8.5 21.578125 
L 8.5 54.6875 
L 17.484375 54.6875 
L 17.484375 21.921875 
Q 17.484375 14.15625 20.5 10.265625 
Q 23.53125 6.390625 29.59375 6.390625 
Q 36.859375 6.390625 41.078125 11.03125 
Q 45.3125 15.671875 45.3125 23.6875 
L 45.3125 54.6875 
L 54.296875 54.6875 
L 54.296875 0 
L 45.3125 0 
L 45.3125 8.40625 
Q 42.046875 3.421875 37.71875 1 
Q 33.40625 -1.421875 27.6875 -1.421875 
Q 18.265625 -1.421875 13.375 4.4375 
Q 8.5 10.296875 8.5 21.578125 
z
M 31.109375 56 
z
" id="DejaVuSans-117"/>
     <path d="M 30.609375 48.390625 
Q 23.390625 48.390625 19.1875 42.75 
Q 14.984375 37.109375 14.984375 27.296875 
Q 14.984375 17.484375 19.15625 11.84375 
Q 23.34375 6.203125 30.609375 6.203125 
Q 37.796875 6.203125 41.984375 11.859375 
Q 46.1875 17.53125 46.1875 27.296875 
Q 46.1875 37.015625 41.984375 42.703125 
Q 37.796875 48.390625 30.609375 48.390625 
z
M 30.609375 56 
Q 42.328125 56 49.015625 48.375 
Q 55.71875 40.765625 55.71875 27.296875 
Q 55.71875 13.875 49.015625 6.21875 
Q 42.328125 -1.421875 30.609375 -1.421875 
Q 18.84375 -1.421875 12.171875 6.21875 
Q 5.515625 13.875 5.515625 27.296875 
Q 5.515625 40.765625 12.171875 48.375 
Q 18.84375 56 30.609375 56 
z
" id="DejaVuSans-111"/>
    </defs>
    <g transform="translate(375.381875 19.3575)scale(0.16 -0.16)">
     <use xlink:href="#DejaVuSans-70"/>
     <use x="57.378906" xlink:href="#DejaVuSans-97"/>
     <use x="118.658203" xlink:href="#DejaVuSans-115"/>
     <use x="170.757812" xlink:href="#DejaVuSans-116"/>
     <use x="209.966797" xlink:href="#DejaVuSans-81"/>
     <use x="288.677734" xlink:href="#DejaVuSans-67"/>
     <use x="358.501953" xlink:href="#DejaVuSans-58"/>
     <use x="392.193359" xlink:href="#DejaVuSans-32"/>
     <use x="423.980469" xlink:href="#DejaVuSans-80"/>
     <use x="484.236328" xlink:href="#DejaVuSans-101"/>
     <use x="545.759766" xlink:href="#DejaVuSans-114"/>
     <use x="586.873047" xlink:href="#DejaVuSans-32"/>
     <use x="618.660156" xlink:href="#DejaVuSans-83"/>
     <use x="682.136719" xlink:href="#DejaVuSans-101"/>
     <use x="743.660156" xlink:href="#DejaVuSans-113"/>
     <use x="807.136719" xlink:href="#DejaVuSans-117"/>
     <use x="870.515625" xlink:href="#DejaVuSans-101"/>
     <use x="932.039062" xlink:href="#DejaVuSans-110"/>
     <use x="995.417969" xlink:href="#DejaVuSans-99"/>
     <use x="1050.398438" xlink:href="#DejaVuSans-101"/>
     <use x="1111.921875" xlink:href="#DejaVuSans-32"/>
     <use x="1143.708984" xlink:href="#DejaVuSans-71"/>
     <use x="1221.199219" xlink:href="#DejaVuSans-67"/>
     <use x="1291.023438" xlink:href="#DejaVuSans-32"/>
     <use x="1322.810547" xlink:href="#DejaVuSans-67"/>
     <use x="1392.634766" xlink:href="#DejaVuSans-111"/>
     <use x="1453.816406" xlink:href="#DejaVuSans-110"/>
     <use x="1517.195312" xlink:href="#DejaVuSans-116"/>
     <use x="1556.404297" xlink:href="#DejaVuSans-101"/>
     <use x="1617.927734" xlink:href="#DejaVuSans-110"/>
     <use x="1681.306641" xlink:href="#DejaVuSans-116"/>
    </g>
   </g>
   <g id="legend_1">
    <g id="line2d_15">
     <path d="M 47.800625 315.455394 
L 63.800625 315.455394 
" style="fill:none;stroke:#5cb85c;stroke-linecap:square;"/>
    </g>
    <g id="line2d_16"/>
    <g id="text_19">
     <!-- Pbb-CGal_008-Ex1-1A-ssl-1-1.clmp.fp2_repr.R1 -->
     <defs>
      <path d="M 48.6875 27.296875 
Q 48.6875 37.203125 44.609375 42.84375 
Q 40.53125 48.484375 33.40625 48.484375 
Q 26.265625 48.484375 22.1875 42.84375 
Q 18.109375 37.203125 18.109375 27.296875 
Q 18.109375 17.390625 22.1875 11.75 
Q 26.265625 6.109375 33.40625 6.109375 
Q 40.53125 6.109375 44.609375 11.75 
Q 48.6875 17.390625 48.6875 27.296875 
z
M 18.109375 46.390625 
Q 20.953125 51.265625 25.265625 53.625 
Q 29.59375 56 35.59375 56 
Q 45.5625 56 51.78125 48.09375 
Q 58.015625 40.1875 58.015625 27.296875 
Q 58.015625 14.40625 51.78125 6.484375 
Q 45.5625 -1.421875 35.59375 -1.421875 
Q 29.59375 -1.421875 25.265625 0.953125 
Q 20.953125 3.328125 18.109375 8.203125 
L 18.109375 0 
L 9.078125 0 
L 9.078125 75.984375 
L 18.109375 75.984375 
z
" id="DejaVuSans-98"/>
      <path d="M 4.890625 31.390625 
L 31.203125 31.390625 
L 31.203125 23.390625 
L 4.890625 23.390625 
z
" id="DejaVuSans-45"/>
      <path d="M 9.421875 75.984375 
L 18.40625 75.984375 
L 18.40625 0 
L 9.421875 0 
z
" id="DejaVuSans-108"/>
      <path d="M 50.984375 -16.609375 
L 50.984375 -23.578125 
L -0.984375 -23.578125 
L -0.984375 -16.609375 
z
" id="DejaVuSans-95"/>
      <path d="M 9.8125 72.90625 
L 55.90625 72.90625 
L 55.90625 64.59375 
L 19.671875 64.59375 
L 19.671875 43.015625 
L 54.390625 43.015625 
L 54.390625 34.71875 
L 19.671875 34.71875 
L 19.671875 8.296875 
L 56.78125 8.296875 
L 56.78125 0 
L 9.8125 0 
z
" id="DejaVuSans-69"/>
      <path d="M 54.890625 54.6875 
L 35.109375 28.078125 
L 55.90625 0 
L 45.3125 0 
L 29.390625 21.484375 
L 13.484375 0 
L 2.875 0 
L 24.125 28.609375 
L 4.6875 54.6875 
L 15.28125 54.6875 
L 29.78125 35.203125 
L 44.28125 54.6875 
z
" id="DejaVuSans-120"/>
      <path d="M 34.1875 63.1875 
L 20.796875 26.90625 
L 47.609375 26.90625 
z
M 28.609375 72.90625 
L 39.796875 72.90625 
L 67.578125 0 
L 57.328125 0 
L 50.6875 18.703125 
L 17.828125 18.703125 
L 11.1875 0 
L 0.78125 0 
z
" id="DejaVuSans-65"/>
      <path d="M 52 44.1875 
Q 55.375 50.25 60.0625 53.125 
Q 64.75 56 71.09375 56 
Q 79.640625 56 84.28125 50.015625 
Q 88.921875 44.046875 88.921875 33.015625 
L 88.921875 0 
L 79.890625 0 
L 79.890625 32.71875 
Q 79.890625 40.578125 77.09375 44.375 
Q 74.3125 48.1875 68.609375 48.1875 
Q 61.625 48.1875 57.5625 43.546875 
Q 53.515625 38.921875 53.515625 30.90625 
L 53.515625 0 
L 44.484375 0 
L 44.484375 32.71875 
Q 44.484375 40.625 41.703125 44.40625 
Q 38.921875 48.1875 33.109375 48.1875 
Q 26.21875 48.1875 22.15625 43.53125 
Q 18.109375 38.875 18.109375 30.90625 
L 18.109375 0 
L 9.078125 0 
L 9.078125 54.6875 
L 18.109375 54.6875 
L 18.109375 46.1875 
Q 21.1875 51.21875 25.484375 53.609375 
Q 29.78125 56 35.6875 56 
Q 41.65625 56 45.828125 52.96875 
Q 50 49.953125 52 44.1875 
z
" id="DejaVuSans-109"/>
      <path d="M 18.109375 8.203125 
L 18.109375 -20.796875 
L 9.078125 -20.796875 
L 9.078125 54.6875 
L 18.109375 54.6875 
L 18.109375 46.390625 
Q 20.953125 51.265625 25.265625 53.625 
Q 29.59375 56 35.59375 56 
Q 45.5625 56 51.78125 48.09375 
Q 58.015625 40.1875 58.015625 27.296875 
Q 58.015625 14.40625 51.78125 6.484375 
Q 45.5625 -1.421875 35.59375 -1.421875 
Q 29.59375 -1.421875 25.265625 0.953125 
Q 20.953125 3.328125 18.109375 8.203125 
z
M 48.6875 27.296875 
Q 48.6875 37.203125 44.609375 42.84375 
Q 40.53125 48.484375 33.40625 48.484375 
Q 26.265625 48.484375 22.1875 42.84375 
Q 18.109375 37.203125 18.109375 27.296875 
Q 18.109375 17.390625 22.1875 11.75 
Q 26.265625 6.109375 33.40625 6.109375 
Q 40.53125 6.109375 44.609375 11.75 
Q 48.6875 17.390625 48.6875 27.296875 
z
" id="DejaVuSans-112"/>
      <path d="M 37.109375 75.984375 
L 37.109375 68.5 
L 28.515625 68.5 
Q 23.6875 68.5 21.796875 66.546875 
Q 19.921875 64.59375 19.921875 59.515625 
L 19.921875 54.6875 
L 34.71875 54.6875 
L 34.71875 47.703125 
L 19.921875 47.703125 
L 19.921875 0 
L 10.890625 0 
L 10.890625 47.703125 
L 2.296875 47.703125 
L 2.296875 54.6875 
L 10.890625 54.6875 
L 10.890625 58.5 
Q 10.890625 67.625 15.140625 71.796875 
Q 19.390625 75.984375 28.609375 75.984375 
z
" id="DejaVuSans-102"/>
      <path d="M 44.390625 34.1875 
Q 47.5625 33.109375 50.5625 29.59375 
Q 53.5625 26.078125 56.59375 19.921875 
L 66.609375 0 
L 56 0 
L 46.6875 18.703125 
Q 43.0625 26.03125 39.671875 28.421875 
Q 36.28125 30.8125 30.421875 30.8125 
L 19.671875 30.8125 
L 19.671875 0 
L 9.8125 0 
L 9.8125 72.90625 
L 32.078125 72.90625 
Q 44.578125 72.90625 50.734375 67.671875 
Q 56.890625 62.453125 56.890625 51.90625 
Q 56.890625 45.015625 53.6875 40.46875 
Q 50.484375 35.9375 44.390625 34.1875 
z
M 19.671875 64.796875 
L 19.671875 38.921875 
L 32.078125 38.921875 
Q 39.203125 38.921875 42.84375 42.21875 
Q 46.484375 45.515625 46.484375 51.90625 
Q 46.484375 58.296875 42.84375 61.546875 
Q 39.203125 64.796875 32.078125 64.796875 
z
" id="DejaVuSans-82"/>
     </defs>
     <g transform="translate(70.200625 318.255394)scale(0.08 -0.08)">
      <use xlink:href="#DejaVuSans-80"/>
      <use x="60.302734" xlink:href="#DejaVuSans-98"/>
      <use x="123.779297" xlink:href="#DejaVuSans-98"/>
      <use x="187.255859" xlink:href="#DejaVuSans-45"/>
      <use x="223.339844" xlink:href="#DejaVuSans-67"/>
      <use x="293.164062" xlink:href="#DejaVuSans-71"/>
      <use x="370.654297" xlink:href="#DejaVuSans-97"/>
      <use x="431.933594" xlink:href="#DejaVuSans-108"/>
      <use x="459.716797" xlink:href="#DejaVuSans-95"/>
      <use x="509.716797" xlink:href="#DejaVuSans-48"/>
      <use x="573.339844" xlink:href="#DejaVuSans-48"/>
      <use x="636.962891" xlink:href="#DejaVuSans-56"/>
      <use x="700.585938" xlink:href="#DejaVuSans-45"/>
      <use x="736.669922" xlink:href="#DejaVuSans-69"/>
      <use x="799.853516" xlink:href="#DejaVuSans-120"/>
      <use x="859.033203" xlink:href="#DejaVuSans-49"/>
      <use x="922.65625" xlink:href="#DejaVuSans-45"/>
      <use x="958.740234" xlink:href="#DejaVuSans-49"/>
      <use x="1022.363281" xlink:href="#DejaVuSans-65"/>
      <use x="1090.740234" xlink:href="#DejaVuSans-45"/>
      <use x="1126.824219" xlink:href="#DejaVuSans-115"/>
      <use x="1178.923828" xlink:href="#DejaVuSans-115"/>
      <use x="1231.023438" xlink:href="#DejaVuSans-108"/>
      <use x="1258.806641" xlink:href="#DejaVuSans-45"/>
      <use x="1294.890625" xlink:href="#DejaVuSans-49"/>
      <use x="1358.513672" xlink:href="#DejaVuSans-45"/>
      <use x="1394.597656" xlink:href="#DejaVuSans-49"/>
      <use x="1458.220703" xlink:href="#DejaVuSans-46"/>
      <use x="1490.007812" xlink:href="#DejaVuSans-99"/>
      <use x="1544.988281" xlink:href="#DejaVuSans-108"/>
      <use x="1572.771484" xlink:href="#DejaVuSans-109"/>
      <use x="1670.183594" xlink:href="#DejaVuSans-112"/>
      <use x="1733.660156" xlink:href="#DejaVuSans-46"/>
      <use x="1765.447266" xlink:href="#DejaVuSans-102"/>
      <use x="1800.652344" xlink:href="#DejaVuSans-112"/>
      <use x="1864.128906" xlink:href="#DejaVuSans-50"/>
      <use x="1927.751953" xlink:href="#DejaVuSans-95"/>
      <use x="1977.751953" xlink:href="#DejaVuSans-114"/>
      <use x="2018.833984" xlink:href="#DejaVuSans-101"/>
      <use x="2080.357422" xlink:href="#DejaVuSans-112"/>
      <use x="2143.833984" xlink:href="#DejaVuSans-114"/>
      <use x="2184.806641" xlink:href="#DejaVuSans-46"/>
      <use x="2216.59375" xlink:href="#DejaVuSans-82"/>
      <use x="2286.076172" xlink:href="#DejaVuSans-49"/>
     </g>
    </g>
    <g id="line2d_17">
     <path d="M 287.823958 315.455394 
L 303.823958 315.455394 
" style="fill:none;stroke:#5cb85c;stroke-linecap:square;"/>
    </g>
    <g id="line2d_18"/>
    <g id="text_20">
     <!-- Pbb-CGal_008-Ex1-1A-ssl-1-1.clmp.fp2_repr.R2 -->
     <g transform="translate(310.223958 318.255394)scale(0.08 -0.08)">
      <use xlink:href="#DejaVuSans-80"/>
      <use x="60.302734" xlink:href="#DejaVuSans-98"/>
      <use x="123.779297" xlink:href="#DejaVuSans-98"/>
      <use x="187.255859" xlink:href="#DejaVuSans-45"/>
      <use x="223.339844" xlink:href="#DejaVuSans-67"/>
      <use x="293.164062" xlink:href="#DejaVuSans-71"/>
      <use x="370.654297" xlink:href="#DejaVuSans-97"/>
      <use x="431.933594" xlink:href="#DejaVuSans-108"/>
      <use x="459.716797" xlink:href="#DejaVuSans-95"/>
      <use x="509.716797" xlink:href="#DejaVuSans-48"/>
      <use x="573.339844" xlink:href="#DejaVuSans-48"/>
      <use x="636.962891" xlink:href="#DejaVuSans-56"/>
      <use x="700.585938" xlink:href="#DejaVuSans-45"/>
      <use x="736.669922" xlink:href="#DejaVuSans-69"/>
      <use x="799.853516" xlink:href="#DejaVuSans-120"/>
      <use x="859.033203" xlink:href="#DejaVuSans-49"/>
      <use x="922.65625" xlink:href="#DejaVuSans-45"/>
      <use x="958.740234" xlink:href="#DejaVuSans-49"/>
      <use x="1022.363281" xlink:href="#DejaVuSans-65"/>
      <use x="1090.740234" xlink:href="#DejaVuSans-45"/>
      <use x="1126.824219" xlink:href="#DejaVuSans-115"/>
      <use x="1178.923828" xlink:href="#DejaVuSans-115"/>
      <use x="1231.023438" xlink:href="#DejaVuSans-108"/>
      <use x="1258.806641" xlink:href="#DejaVuSans-45"/>
      <use x="1294.890625" xlink:href="#DejaVuSans-49"/>
      <use x="1358.513672" xlink:href="#DejaVuSans-45"/>
      <use x="1394.597656" xlink:href="#DejaVuSans-49"/>
      <use x="1458.220703" xlink:href="#DejaVuSans-46"/>
      <use x="1490.007812" xlink:href="#DejaVuSans-99"/>
      <use x="1544.988281" xlink:href="#DejaVuSans-108"/>
      <use x="1572.771484" xlink:href="#DejaVuSans-109"/>
      <use x="1670.183594" xlink:href="#DejaVuSans-112"/>
      <use x="1733.660156" xlink:href="#DejaVuSans-46"/>
      <use x="1765.447266" xlink:href="#DejaVuSans-102"/>
      <use x="1800.652344" xlink:href="#DejaVuSans-112"/>
      <use x="1864.128906" xlink:href="#DejaVuSans-50"/>
      <use x="1927.751953" xlink:href="#DejaVuSans-95"/>
      <use x="1977.751953" xlink:href="#DejaVuSans-114"/>
      <use x="2018.833984" xlink:href="#DejaVuSans-101"/>
      <use x="2080.357422" xlink:href="#DejaVuSans-112"/>
      <use x="2143.833984" xlink:href="#DejaVuSans-114"/>
      <use x="2184.806641" xlink:href="#DejaVuSans-46"/>
      <use x="2216.59375" xlink:href="#DejaVuSans-82"/>
      <use x="2286.076172" xlink:href="#DejaVuSans-50"/>
     </g>
    </g>
    <g id="line2d_19">
     <path d="M 527.847292 315.455394 
L 543.847292 315.455394 
" style="fill:none;stroke:#5cb85c;stroke-linecap:square;"/>
    </g>
    <g id="line2d_20"/>
    <g id="text_21">
     <!-- Pbb-CGal_008-Ex1-3A-ssl-1-1.clmp.fp2_repr.R1 -->
     <g transform="translate(550.247292 318.255394)scale(0.08 -0.08)">
      <use xlink:href="#DejaVuSans-80"/>
      <use x="60.302734" xlink:href="#DejaVuSans-98"/>
      <use x="123.779297" xlink:href="#DejaVuSans-98"/>
      <use x="187.255859" xlink:href="#DejaVuSans-45"/>
      <use x="223.339844" xlink:href="#DejaVuSans-67"/>
      <use x="293.164062" xlink:href="#DejaVuSans-71"/>
      <use x="370.654297" xlink:href="#DejaVuSans-97"/>
      <use x="431.933594" xlink:href="#DejaVuSans-108"/>
      <use x="459.716797" xlink:href="#DejaVuSans-95"/>
      <use x="509.716797" xlink:href="#DejaVuSans-48"/>
      <use x="573.339844" xlink:href="#DejaVuSans-48"/>
      <use x="636.962891" xlink:href="#DejaVuSans-56"/>
      <use x="700.585938" xlink:href="#DejaVuSans-45"/>
      <use x="736.669922" xlink:href="#DejaVuSans-69"/>
      <use x="799.853516" xlink:href="#DejaVuSans-120"/>
      <use x="859.033203" xlink:href="#DejaVuSans-49"/>
      <use x="922.65625" xlink:href="#DejaVuSans-45"/>
      <use x="958.740234" xlink:href="#DejaVuSans-51"/>
      <use x="1022.363281" xlink:href="#DejaVuSans-65"/>
      <use x="1090.740234" xlink:href="#DejaVuSans-45"/>
      <use x="1126.824219" xlink:href="#DejaVuSans-115"/>
      <use x="1178.923828" xlink:href="#DejaVuSans-115"/>
      <use x="1231.023438" xlink:href="#DejaVuSans-108"/>
      <use x="1258.806641" xlink:href="#DejaVuSans-45"/>
      <use x="1294.890625" xlink:href="#DejaVuSans-49"/>
      <use x="1358.513672" xlink:href="#DejaVuSans-45"/>
      <use x="1394.597656" xlink:href="#DejaVuSans-49"/>
      <use x="1458.220703" xlink:href="#DejaVuSans-46"/>
      <use x="1490.007812" xlink:href="#DejaVuSans-99"/>
      <use x="1544.988281" xlink:href="#DejaVuSans-108"/>
      <use x="1572.771484" xlink:href="#DejaVuSans-109"/>
      <use x="1670.183594" xlink:href="#DejaVuSans-112"/>
      <use x="1733.660156" xlink:href="#DejaVuSans-46"/>
      <use x="1765.447266" xlink:href="#DejaVuSans-102"/>
      <use x="1800.652344" xlink:href="#DejaVuSans-112"/>
      <use x="1864.128906" xlink:href="#DejaVuSans-50"/>
      <use x="1927.751953" xlink:href="#DejaVuSans-95"/>
      <use x="1977.751953" xlink:href="#DejaVuSans-114"/>
      <use x="2018.833984" xlink:href="#DejaVuSans-101"/>
      <use x="2080.357422" xlink:href="#DejaVuSans-112"/>
      <use x="2143.833984" xlink:href="#DejaVuSans-114"/>
      <use x="2184.806641" xlink:href="#DejaVuSans-46"/>
      <use x="2216.59375" xlink:href="#DejaVuSans-82"/>
      <use x="2286.076172" xlink:href="#DejaVuSans-49"/>
     </g>
    </g>
    <g id="line2d_21">
     <path d="M 767.870625 315.455394 
L 783.870625 315.455394 
" style="fill:none;stroke:#5cb85c;stroke-linecap:square;"/>
    </g>
    <g id="line2d_22"/>
    <g id="text_22">
     <!-- Pbb-CGal_008-Ex1-3A-ssl-1-1.clmp.fp2_repr.R2 -->
     <g transform="translate(790.270625 318.255394)scale(0.08 -0.08)">
      <use xlink:href="#DejaVuSans-80"/>
      <use x="60.302734" xlink:href="#DejaVuSans-98"/>
      <use x="123.779297" xlink:href="#DejaVuSans-98"/>
      <use x="187.255859" xlink:href="#DejaVuSans-45"/>
      <use x="223.339844" xlink:href="#DejaVuSans-67"/>
      <use x="293.164062" xlink:href="#DejaVuSans-71"/>
      <use x="370.654297" xlink:href="#DejaVuSans-97"/>
      <use x="431.933594" xlink:href="#DejaVuSans-108"/>
      <use x="459.716797" xlink:href="#DejaVuSans-95"/>
      <use x="509.716797" xlink:href="#DejaVuSans-48"/>
      <use x="573.339844" xlink:href="#DejaVuSans-48"/>
      <use x="636.962891" xlink:href="#DejaVuSans-56"/>
      <use x="700.585938" xlink:href="#DejaVuSans-45"/>
      <use x="736.669922" xlink:href="#DejaVuSans-69"/>
      <use x="799.853516" xlink:href="#DejaVuSans-120"/>
      <use x="859.033203" xlink:href="#DejaVuSans-49"/>
      <use x="922.65625" xlink:href="#DejaVuSans-45"/>
      <use x="958.740234" xlink:href="#DejaVuSans-51"/>
      <use x="1022.363281" xlink:href="#DejaVuSans-65"/>
      <use x="1090.740234" xlink:href="#DejaVuSans-45"/>
      <use x="1126.824219" xlink:href="#DejaVuSans-115"/>
      <use x="1178.923828" xlink:href="#DejaVuSans-115"/>
      <use x="1231.023438" xlink:href="#DejaVuSans-108"/>
      <use x="1258.806641" xlink:href="#DejaVuSans-45"/>
      <use x="1294.890625" xlink:href="#DejaVuSans-49"/>
      <use x="1358.513672" xlink:href="#DejaVuSans-45"/>
      <use x="1394.597656" xlink:href="#DejaVuSans-49"/>
      <use x="1458.220703" xlink:href="#DejaVuSans-46"/>
      <use x="1490.007812" xlink:href="#DejaVuSans-99"/>
      <use x="1544.988281" xlink:href="#DejaVuSans-108"/>
      <use x="1572.771484" xlink:href="#DejaVuSans-109"/>
      <use x="1670.183594" xlink:href="#DejaVuSans-112"/>
      <use x="1733.660156" xlink:href="#DejaVuSans-46"/>
      <use x="1765.447266" xlink:href="#DejaVuSans-102"/>
      <use x="1800.652344" xlink:href="#DejaVuSans-112"/>
      <use x="1864.128906" xlink:href="#DejaVuSans-50"/>
      <use x="1927.751953" xlink:href="#DejaVuSans-95"/>
      <use x="1977.751953" xlink:href="#DejaVuSans-114"/>
      <use x="2018.833984" xlink:href="#DejaVuSans-101"/>
      <use x="2080.357422" xlink:href="#DejaVuSans-112"/>
      <use x="2143.833984" xlink:href="#DejaVuSans-114"/>
      <use x="2184.806641" xlink:href="#DejaVuSans-46"/>
      <use x="2216.59375" xlink:href="#DejaVuSans-82"/>
      <use x="2286.076172" xlink:href="#DejaVuSans-50"/>
     </g>
    </g>
   </g>
  </g>
 </g>
 <defs>
  <clipPath id="pc328397416">
   <rect height="242.5072" width="944.845" x="40.600625" y="31.48286"/>
  </clipPath>
 </defs>
</svg>
