<?xml version="1.0" encoding="utf-8" standalone="no"?>
<!DOCTYPE svg PUBLIC "-//W3C//DTD SVG 1.1//EN"
  "http://www.w3.org/Graphics/SVG/1.1/DTD/svg11.dtd">
<!-- Created with matplotlib (https://matplotlib.org/) -->
<svg height="330.541644pt" version="1.1" viewBox="0 0 1000.340625 330.541644" width="1000.340625pt" xmlns="http://www.w3.org/2000/svg" xmlns:xlink="http://www.w3.org/1999/xlink">
 <defs>
  <style type="text/css">
*{stroke-linecap:butt;stroke-linejoin:round;}
  </style>
 </defs>
 <g id="figure_1">
  <g id="axes_1">
   <g id="patch_1">
    <path d="M 40.600625 273.99006 
L 993.140625 273.99006 
L 993.140625 31.48286 
L 40.600625 31.48286 
z
" style="fill:#ffffff;"/>
   </g>
   <g id="matplotlib.axis_1">
    <g id="xtick_1">
     <g id="text_1">
      <!-- 0 -->
      <defs>
       <path d="M 31.78125 66.40625 
Q 24.171875 66.40625 20.328125 58.90625 
Q 16.5 51.421875 16.5 36.375 
Q 16.5 21.390625 20.328125 13.890625 
Q 24.171875 6.390625 31.78125 6.390625 
Q 39.453125 6.390625 43.28125 13.890625 
Q 47.125 21.390625 47.125 36.375 
Q 47.125 51.421875 43.28125 58.90625 
Q 39.453125 66.40625 31.78125 66.40625 
z
M 31.78125 74.21875 
Q 44.046875 74.21875 50.515625 64.515625 
Q 56.984375 54.828125 56.984375 36.375 
Q 56.984375 17.96875 50.515625 8.265625 
Q 44.046875 -1.421875 31.78125 -1.421875 
Q 19.53125 -1.421875 13.0625 8.265625 
Q 6.59375 17.96875 6.59375 36.375 
Q 6.59375 54.828125 13.0625 64.515625 
Q 19.53125 74.21875 31.78125 74.21875 
z
" id="DejaVuSans-48"/>
      </defs>
      <g transform="translate(78.13377 287.06881)scale(0.08 -0.08)">
       <use xlink:href="#DejaVuSans-48"/>
      </g>
     </g>
    </g>
    <g id="xtick_2">
     <g id="text_2">
      <!-- 50 -->
      <defs>
       <path d="M 10.796875 72.90625 
L 49.515625 72.90625 
L 49.515625 64.59375 
L 19.828125 64.59375 
L 19.828125 46.734375 
Q 21.96875 47.46875 24.109375 47.828125 
Q 26.265625 48.1875 28.421875 48.1875 
Q 40.625 48.1875 47.75 41.5 
Q 54.890625 34.8125 54.890625 23.390625 
Q 54.890625 11.625 47.5625 5.09375 
Q 40.234375 -1.421875 26.90625 -1.421875 
Q 22.3125 -1.421875 17.546875 -0.640625 
Q 12.796875 0.140625 7.71875 1.703125 
L 7.71875 11.625 
Q 12.109375 9.234375 16.796875 8.0625 
Q 21.484375 6.890625 26.703125 6.890625 
Q 35.15625 6.890625 40.078125 11.328125 
Q 45.015625 15.765625 45.015625 23.390625 
Q 45.015625 31 40.078125 35.4375 
Q 35.15625 39.890625 26.703125 39.890625 
Q 22.75 39.890625 18.8125 39.015625 
Q 14.890625 38.140625 10.796875 36.28125 
z
" id="DejaVuSans-53"/>
      </defs>
      <g transform="translate(236.545174 287.06881)scale(0.08 -0.08)">
       <use xlink:href="#DejaVuSans-53"/>
       <use x="63.623047" xlink:href="#DejaVuSans-48"/>
      </g>
     </g>
    </g>
    <g id="xtick_3">
     <g id="text_3">
      <!-- 100 -->
      <defs>
       <path d="M 12.40625 8.296875 
L 28.515625 8.296875 
L 28.515625 63.921875 
L 10.984375 60.40625 
L 10.984375 69.390625 
L 28.421875 72.90625 
L 38.28125 72.90625 
L 38.28125 8.296875 
L 54.390625 8.296875 
L 54.390625 0 
L 12.40625 0 
z
" id="DejaVuSans-49"/>
      </defs>
      <g transform="translate(394.956578 287.06881)scale(0.08 -0.08)">
       <use xlink:href="#DejaVuSans-49"/>
       <use x="63.623047" xlink:href="#DejaVuSans-48"/>
       <use x="127.246094" xlink:href="#DejaVuSans-48"/>
      </g>
     </g>
    </g>
    <g id="xtick_4">
     <g id="text_4">
      <!-- 150 -->
      <g transform="translate(555.912982 287.06881)scale(0.08 -0.08)">
       <use xlink:href="#DejaVuSans-49"/>
       <use x="63.623047" xlink:href="#DejaVuSans-53"/>
       <use x="127.246094" xlink:href="#DejaVuSans-48"/>
      </g>
     </g>
    </g>
    <g id="xtick_5">
     <g id="text_5">
      <!-- 200 -->
      <defs>
       <path d="M 19.1875 8.296875 
L 53.609375 8.296875 
L 53.609375 0 
L 7.328125 0 
L 7.328125 8.296875 
Q 12.9375 14.109375 22.625 23.890625 
Q 32.328125 33.6875 34.8125 36.53125 
Q 39.546875 41.84375 41.421875 45.53125 
Q 43.3125 49.21875 43.3125 52.78125 
Q 43.3125 58.59375 39.234375 62.25 
Q 35.15625 65.921875 28.609375 65.921875 
Q 23.96875 65.921875 18.8125 64.3125 
Q 13.671875 62.703125 7.8125 59.421875 
L 7.8125 69.390625 
Q 13.765625 71.78125 18.9375 73 
Q 24.125 74.21875 28.421875 74.21875 
Q 39.75 74.21875 46.484375 68.546875 
Q 53.21875 62.890625 53.21875 53.421875 
Q 53.21875 48.921875 51.53125 44.890625 
Q 49.859375 40.875 45.40625 35.40625 
Q 44.1875 33.984375 37.640625 27.21875 
Q 31.109375 20.453125 19.1875 8.296875 
z
" id="DejaVuSans-50"/>
      </defs>
      <g transform="translate(716.869386 287.06881)scale(0.08 -0.08)">
       <use xlink:href="#DejaVuSans-50"/>
       <use x="63.623047" xlink:href="#DejaVuSans-48"/>
       <use x="127.246094" xlink:href="#DejaVuSans-48"/>
      </g>
     </g>
    </g>
    <g id="xtick_6">
     <g id="text_6">
      <!-- 250 -->
      <g transform="translate(877.825791 287.06881)scale(0.08 -0.08)">
       <use xlink:href="#DejaVuSans-50"/>
       <use x="63.623047" xlink:href="#DejaVuSans-53"/>
       <use x="127.246094" xlink:href="#DejaVuSans-48"/>
      </g>
     </g>
    </g>
    <g id="text_7">
     <!-- Insert size -->
     <defs>
      <path d="M 9.8125 72.90625 
L 19.671875 72.90625 
L 19.671875 0 
L 9.8125 0 
z
" id="DejaVuSans-73"/>
      <path d="M 54.890625 33.015625 
L 54.890625 0 
L 45.90625 0 
L 45.90625 32.71875 
Q 45.90625 40.484375 42.875 44.328125 
Q 39.84375 48.1875 33.796875 48.1875 
Q 26.515625 48.1875 22.3125 43.546875 
Q 18.109375 38.921875 18.109375 30.90625 
L 18.109375 0 
L 9.078125 0 
L 9.078125 54.6875 
L 18.109375 54.6875 
L 18.109375 46.1875 
Q 21.34375 51.125 25.703125 53.5625 
Q 30.078125 56 35.796875 56 
Q 45.21875 56 50.046875 50.171875 
Q 54.890625 44.34375 54.890625 33.015625 
z
" id="DejaVuSans-110"/>
      <path d="M 44.28125 53.078125 
L 44.28125 44.578125 
Q 40.484375 46.53125 36.375 47.5 
Q 32.28125 48.484375 27.875 48.484375 
Q 21.1875 48.484375 17.84375 46.4375 
Q 14.5 44.390625 14.5 40.28125 
Q 14.5 37.15625 16.890625 35.375 
Q 19.28125 33.59375 26.515625 31.984375 
L 29.59375 31.296875 
Q 39.15625 29.25 43.1875 25.515625 
Q 47.21875 21.78125 47.21875 15.09375 
Q 47.21875 7.46875 41.1875 3.015625 
Q 35.15625 -1.421875 24.609375 -1.421875 
Q 20.21875 -1.421875 15.453125 -0.5625 
Q 10.6875 0.296875 5.421875 2 
L 5.421875 11.28125 
Q 10.40625 8.6875 15.234375 7.390625 
Q 20.0625 6.109375 24.8125 6.109375 
Q 31.15625 6.109375 34.5625 8.28125 
Q 37.984375 10.453125 37.984375 14.40625 
Q 37.984375 18.0625 35.515625 20.015625 
Q 33.0625 21.96875 24.703125 23.78125 
L 21.578125 24.515625 
Q 13.234375 26.265625 9.515625 29.90625 
Q 5.8125 33.546875 5.8125 39.890625 
Q 5.8125 47.609375 11.28125 51.796875 
Q 16.75 56 26.8125 56 
Q 31.78125 56 36.171875 55.265625 
Q 40.578125 54.546875 44.28125 53.078125 
z
" id="DejaVuSans-115"/>
      <path d="M 56.203125 29.59375 
L 56.203125 25.203125 
L 14.890625 25.203125 
Q 15.484375 15.921875 20.484375 11.0625 
Q 25.484375 6.203125 34.421875 6.203125 
Q 39.59375 6.203125 44.453125 7.46875 
Q 49.3125 8.734375 54.109375 11.28125 
L 54.109375 2.78125 
Q 49.265625 0.734375 44.1875 -0.34375 
Q 39.109375 -1.421875 33.890625 -1.421875 
Q 20.796875 -1.421875 13.15625 6.1875 
Q 5.515625 13.8125 5.515625 26.8125 
Q 5.515625 40.234375 12.765625 48.109375 
Q 20.015625 56 32.328125 56 
Q 43.359375 56 49.78125 48.890625 
Q 56.203125 41.796875 56.203125 29.59375 
z
M 47.21875 32.234375 
Q 47.125 39.59375 43.09375 43.984375 
Q 39.0625 48.390625 32.421875 48.390625 
Q 24.90625 48.390625 20.390625 44.140625 
Q 15.875 39.890625 15.1875 32.171875 
z
" id="DejaVuSans-101"/>
      <path d="M 41.109375 46.296875 
Q 39.59375 47.171875 37.8125 47.578125 
Q 36.03125 48 33.890625 48 
Q 26.265625 48 22.1875 43.046875 
Q 18.109375 38.09375 18.109375 28.8125 
L 18.109375 0 
L 9.078125 0 
L 9.078125 54.6875 
L 18.109375 54.6875 
L 18.109375 46.1875 
Q 20.953125 51.171875 25.484375 53.578125 
Q 30.03125 56 36.53125 56 
Q 37.453125 56 38.578125 55.875 
Q 39.703125 55.765625 41.0625 55.515625 
z
" id="DejaVuSans-114"/>
      <path d="M 18.3125 70.21875 
L 18.3125 54.6875 
L 36.8125 54.6875 
L 36.8125 47.703125 
L 18.3125 47.703125 
L 18.3125 18.015625 
Q 18.3125 11.328125 20.140625 9.421875 
Q 21.96875 7.515625 27.59375 7.515625 
L 36.8125 7.515625 
L 36.8125 0 
L 27.59375 0 
Q 17.1875 0 13.234375 3.875 
Q 9.28125 7.765625 9.28125 18.015625 
L 9.28125 47.703125 
L 2.6875 47.703125 
L 2.6875 54.6875 
L 9.28125 54.6875 
L 9.28125 70.21875 
z
" id="DejaVuSans-116"/>
      <path id="DejaVuSans-32"/>
      <path d="M 9.421875 54.6875 
L 18.40625 54.6875 
L 18.40625 0 
L 9.421875 0 
z
M 9.421875 75.984375 
L 18.40625 75.984375 
L 18.40625 64.59375 
L 9.421875 64.59375 
z
" id="DejaVuSans-105"/>
      <path d="M 5.515625 54.6875 
L 48.1875 54.6875 
L 48.1875 46.484375 
L 14.40625 7.171875 
L 48.1875 7.171875 
L 48.1875 0 
L 4.296875 0 
L 4.296875 8.203125 
L 38.09375 47.515625 
L 5.515625 47.515625 
z
" id="DejaVuSans-122"/>
     </defs>
     <g transform="translate(491.246406 300.330997)scale(0.1 -0.1)">
      <use xlink:href="#DejaVuSans-73"/>
      <use x="29.492188" xlink:href="#DejaVuSans-110"/>
      <use x="92.871094" xlink:href="#DejaVuSans-115"/>
      <use x="144.970703" xlink:href="#DejaVuSans-101"/>
      <use x="206.494141" xlink:href="#DejaVuSans-114"/>
      <use x="247.607422" xlink:href="#DejaVuSans-116"/>
      <use x="286.816406" xlink:href="#DejaVuSans-32"/>
      <use x="318.603516" xlink:href="#DejaVuSans-115"/>
      <use x="370.703125" xlink:href="#DejaVuSans-105"/>
      <use x="398.486328" xlink:href="#DejaVuSans-122"/>
      <use x="450.976562" xlink:href="#DejaVuSans-101"/>
     </g>
    </g>
   </g>
   <g id="matplotlib.axis_2">
    <g id="ytick_1">
     <g id="line2d_1">
      <path clip-path="url(#pef0367f726)" d="M 40.600625 273.99006 
L 993.140625 273.99006 
" style="fill:none;stroke:#dedede;stroke-linecap:square;"/>
     </g>
     <g id="text_8">
      <!-- 0.0 -->
      <defs>
       <path d="M 10.6875 12.40625 
L 21 12.40625 
L 21 0 
L 10.6875 0 
z
" id="DejaVuSans-46"/>
      </defs>
      <g transform="translate(20.878125 277.029435)scale(0.08 -0.08)">
       <use xlink:href="#DejaVuSans-48"/>
       <use x="63.623047" xlink:href="#DejaVuSans-46"/>
       <use x="95.410156" xlink:href="#DejaVuSans-48"/>
      </g>
     </g>
    </g>
    <g id="ytick_2">
     <g id="line2d_2">
      <path clip-path="url(#pef0367f726)" d="M 40.600625 234.514356 
L 993.140625 234.514356 
" style="fill:none;stroke:#dedede;stroke-linecap:square;"/>
     </g>
     <g id="text_9">
      <!-- 0.2 -->
      <g transform="translate(20.878125 237.553731)scale(0.08 -0.08)">
       <use xlink:href="#DejaVuSans-48"/>
       <use x="63.623047" xlink:href="#DejaVuSans-46"/>
       <use x="95.410156" xlink:href="#DejaVuSans-50"/>
      </g>
     </g>
    </g>
    <g id="ytick_3">
     <g id="line2d_3">
      <path clip-path="url(#pef0367f726)" d="M 40.600625 195.038652 
L 993.140625 195.038652 
" style="fill:none;stroke:#dedede;stroke-linecap:square;"/>
     </g>
     <g id="text_10">
      <!-- 0.4 -->
      <defs>
       <path d="M 37.796875 64.3125 
L 12.890625 25.390625 
L 37.796875 25.390625 
z
M 35.203125 72.90625 
L 47.609375 72.90625 
L 47.609375 25.390625 
L 58.015625 25.390625 
L 58.015625 17.1875 
L 47.609375 17.1875 
L 47.609375 0 
L 37.796875 0 
L 37.796875 17.1875 
L 4.890625 17.1875 
L 4.890625 26.703125 
z
" id="DejaVuSans-52"/>
      </defs>
      <g transform="translate(20.878125 198.078027)scale(0.08 -0.08)">
       <use xlink:href="#DejaVuSans-48"/>
       <use x="63.623047" xlink:href="#DejaVuSans-46"/>
       <use x="95.410156" xlink:href="#DejaVuSans-52"/>
      </g>
     </g>
    </g>
    <g id="ytick_4">
     <g id="line2d_4">
      <path clip-path="url(#pef0367f726)" d="M 40.600625 155.562949 
L 993.140625 155.562949 
" style="fill:none;stroke:#dedede;stroke-linecap:square;"/>
     </g>
     <g id="text_11">
      <!-- 0.6 -->
      <defs>
       <path d="M 33.015625 40.375 
Q 26.375 40.375 22.484375 35.828125 
Q 18.609375 31.296875 18.609375 23.390625 
Q 18.609375 15.53125 22.484375 10.953125 
Q 26.375 6.390625 33.015625 6.390625 
Q 39.65625 6.390625 43.53125 10.953125 
Q 47.40625 15.53125 47.40625 23.390625 
Q 47.40625 31.296875 43.53125 35.828125 
Q 39.65625 40.375 33.015625 40.375 
z
M 52.59375 71.296875 
L 52.59375 62.3125 
Q 48.875 64.0625 45.09375 64.984375 
Q 41.3125 65.921875 37.59375 65.921875 
Q 27.828125 65.921875 22.671875 59.328125 
Q 17.53125 52.734375 16.796875 39.40625 
Q 19.671875 43.65625 24.015625 45.921875 
Q 28.375 48.1875 33.59375 48.1875 
Q 44.578125 48.1875 50.953125 41.515625 
Q 57.328125 34.859375 57.328125 23.390625 
Q 57.328125 12.15625 50.6875 5.359375 
Q 44.046875 -1.421875 33.015625 -1.421875 
Q 20.359375 -1.421875 13.671875 8.265625 
Q 6.984375 17.96875 6.984375 36.375 
Q 6.984375 53.65625 15.1875 63.9375 
Q 23.390625 74.21875 37.203125 74.21875 
Q 40.921875 74.21875 44.703125 73.484375 
Q 48.484375 72.75 52.59375 71.296875 
z
" id="DejaVuSans-54"/>
      </defs>
      <g transform="translate(20.878125 158.602324)scale(0.08 -0.08)">
       <use xlink:href="#DejaVuSans-48"/>
       <use x="63.623047" xlink:href="#DejaVuSans-46"/>
       <use x="95.410156" xlink:href="#DejaVuSans-54"/>
      </g>
     </g>
    </g>
    <g id="ytick_5">
     <g id="line2d_5">
      <path clip-path="url(#pef0367f726)" d="M 40.600625 116.087245 
L 993.140625 116.087245 
" style="fill:none;stroke:#dedede;stroke-linecap:square;"/>
     </g>
     <g id="text_12">
      <!-- 0.8 -->
      <defs>
       <path d="M 31.78125 34.625 
Q 24.75 34.625 20.71875 30.859375 
Q 16.703125 27.09375 16.703125 20.515625 
Q 16.703125 13.921875 20.71875 10.15625 
Q 24.75 6.390625 31.78125 6.390625 
Q 38.8125 6.390625 42.859375 10.171875 
Q 46.921875 13.96875 46.921875 20.515625 
Q 46.921875 27.09375 42.890625 30.859375 
Q 38.875 34.625 31.78125 34.625 
z
M 21.921875 38.8125 
Q 15.578125 40.375 12.03125 44.71875 
Q 8.5 49.078125 8.5 55.328125 
Q 8.5 64.0625 14.71875 69.140625 
Q 20.953125 74.21875 31.78125 74.21875 
Q 42.671875 74.21875 48.875 69.140625 
Q 55.078125 64.0625 55.078125 55.328125 
Q 55.078125 49.078125 51.53125 44.71875 
Q 48 40.375 41.703125 38.8125 
Q 48.828125 37.15625 52.796875 32.3125 
Q 56.78125 27.484375 56.78125 20.515625 
Q 56.78125 9.90625 50.3125 4.234375 
Q 43.84375 -1.421875 31.78125 -1.421875 
Q 19.734375 -1.421875 13.25 4.234375 
Q 6.78125 9.90625 6.78125 20.515625 
Q 6.78125 27.484375 10.78125 32.3125 
Q 14.796875 37.15625 21.921875 38.8125 
z
M 18.3125 54.390625 
Q 18.3125 48.734375 21.84375 45.5625 
Q 25.390625 42.390625 31.78125 42.390625 
Q 38.140625 42.390625 41.71875 45.5625 
Q 45.3125 48.734375 45.3125 54.390625 
Q 45.3125 60.0625 41.71875 63.234375 
Q 38.140625 66.40625 31.78125 66.40625 
Q 25.390625 66.40625 21.84375 63.234375 
Q 18.3125 60.0625 18.3125 54.390625 
z
" id="DejaVuSans-56"/>
      </defs>
      <g transform="translate(20.878125 119.12662)scale(0.08 -0.08)">
       <use xlink:href="#DejaVuSans-48"/>
       <use x="63.623047" xlink:href="#DejaVuSans-46"/>
       <use x="95.410156" xlink:href="#DejaVuSans-56"/>
      </g>
     </g>
    </g>
    <g id="ytick_6">
     <g id="line2d_6">
      <path clip-path="url(#pef0367f726)" d="M 40.600625 76.611541 
L 993.140625 76.611541 
" style="fill:none;stroke:#dedede;stroke-linecap:square;"/>
     </g>
     <g id="text_13">
      <!-- 1.0 -->
      <g transform="translate(20.878125 79.650916)scale(0.08 -0.08)">
       <use xlink:href="#DejaVuSans-49"/>
       <use x="63.623047" xlink:href="#DejaVuSans-46"/>
       <use x="95.410156" xlink:href="#DejaVuSans-48"/>
      </g>
     </g>
    </g>
    <g id="ytick_7">
     <g id="line2d_7">
      <path clip-path="url(#pef0367f726)" d="M 40.600625 37.135837 
L 993.140625 37.135837 
" style="fill:none;stroke:#dedede;stroke-linecap:square;"/>
     </g>
     <g id="text_14">
      <!-- 1.2 -->
      <g transform="translate(20.878125 40.175212)scale(0.08 -0.08)">
       <use xlink:href="#DejaVuSans-49"/>
       <use x="63.623047" xlink:href="#DejaVuSans-46"/>
       <use x="95.410156" xlink:href="#DejaVuSans-50"/>
      </g>
     </g>
    </g>
    <g id="text_15">
     <!-- Read percent -->
     <defs>
      <path d="M 44.390625 34.1875 
Q 47.5625 33.109375 50.5625 29.59375 
Q 53.5625 26.078125 56.59375 19.921875 
L 66.609375 0 
L 56 0 
L 46.6875 18.703125 
Q 43.0625 26.03125 39.671875 28.421875 
Q 36.28125 30.8125 30.421875 30.8125 
L 19.671875 30.8125 
L 19.671875 0 
L 9.8125 0 
L 9.8125 72.90625 
L 32.078125 72.90625 
Q 44.578125 72.90625 50.734375 67.671875 
Q 56.890625 62.453125 56.890625 51.90625 
Q 56.890625 45.015625 53.6875 40.46875 
Q 50.484375 35.9375 44.390625 34.1875 
z
M 19.671875 64.796875 
L 19.671875 38.921875 
L 32.078125 38.921875 
Q 39.203125 38.921875 42.84375 42.21875 
Q 46.484375 45.515625 46.484375 51.90625 
Q 46.484375 58.296875 42.84375 61.546875 
Q 39.203125 64.796875 32.078125 64.796875 
z
" id="DejaVuSans-82"/>
      <path d="M 34.28125 27.484375 
Q 23.390625 27.484375 19.1875 25 
Q 14.984375 22.515625 14.984375 16.5 
Q 14.984375 11.71875 18.140625 8.90625 
Q 21.296875 6.109375 26.703125 6.109375 
Q 34.1875 6.109375 38.703125 11.40625 
Q 43.21875 16.703125 43.21875 25.484375 
L 43.21875 27.484375 
z
M 52.203125 31.203125 
L 52.203125 0 
L 43.21875 0 
L 43.21875 8.296875 
Q 40.140625 3.328125 35.546875 0.953125 
Q 30.953125 -1.421875 24.3125 -1.421875 
Q 15.921875 -1.421875 10.953125 3.296875 
Q 6 8.015625 6 15.921875 
Q 6 25.140625 12.171875 29.828125 
Q 18.359375 34.515625 30.609375 34.515625 
L 43.21875 34.515625 
L 43.21875 35.40625 
Q 43.21875 41.609375 39.140625 45 
Q 35.0625 48.390625 27.6875 48.390625 
Q 23 48.390625 18.546875 47.265625 
Q 14.109375 46.140625 10.015625 43.890625 
L 10.015625 52.203125 
Q 14.9375 54.109375 19.578125 55.046875 
Q 24.21875 56 28.609375 56 
Q 40.484375 56 46.34375 49.84375 
Q 52.203125 43.703125 52.203125 31.203125 
z
" id="DejaVuSans-97"/>
      <path d="M 45.40625 46.390625 
L 45.40625 75.984375 
L 54.390625 75.984375 
L 54.390625 0 
L 45.40625 0 
L 45.40625 8.203125 
Q 42.578125 3.328125 38.25 0.953125 
Q 33.9375 -1.421875 27.875 -1.421875 
Q 17.96875 -1.421875 11.734375 6.484375 
Q 5.515625 14.40625 5.515625 27.296875 
Q 5.515625 40.1875 11.734375 48.09375 
Q 17.96875 56 27.875 56 
Q 33.9375 56 38.25 53.625 
Q 42.578125 51.265625 45.40625 46.390625 
z
M 14.796875 27.296875 
Q 14.796875 17.390625 18.875 11.75 
Q 22.953125 6.109375 30.078125 6.109375 
Q 37.203125 6.109375 41.296875 11.75 
Q 45.40625 17.390625 45.40625 27.296875 
Q 45.40625 37.203125 41.296875 42.84375 
Q 37.203125 48.484375 30.078125 48.484375 
Q 22.953125 48.484375 18.875 42.84375 
Q 14.796875 37.203125 14.796875 27.296875 
z
" id="DejaVuSans-100"/>
      <path d="M 18.109375 8.203125 
L 18.109375 -20.796875 
L 9.078125 -20.796875 
L 9.078125 54.6875 
L 18.109375 54.6875 
L 18.109375 46.390625 
Q 20.953125 51.265625 25.265625 53.625 
Q 29.59375 56 35.59375 56 
Q 45.5625 56 51.78125 48.09375 
Q 58.015625 40.1875 58.015625 27.296875 
Q 58.015625 14.40625 51.78125 6.484375 
Q 45.5625 -1.421875 35.59375 -1.421875 
Q 29.59375 -1.421875 25.265625 0.953125 
Q 20.953125 3.328125 18.109375 8.203125 
z
M 48.6875 27.296875 
Q 48.6875 37.203125 44.609375 42.84375 
Q 40.53125 48.484375 33.40625 48.484375 
Q 26.265625 48.484375 22.1875 42.84375 
Q 18.109375 37.203125 18.109375 27.296875 
Q 18.109375 17.390625 22.1875 11.75 
Q 26.265625 6.109375 33.40625 6.109375 
Q 40.53125 6.109375 44.609375 11.75 
Q 48.6875 17.390625 48.6875 27.296875 
z
" id="DejaVuSans-112"/>
      <path d="M 48.78125 52.59375 
L 48.78125 44.1875 
Q 44.96875 46.296875 41.140625 47.34375 
Q 37.3125 48.390625 33.40625 48.390625 
Q 24.65625 48.390625 19.8125 42.84375 
Q 14.984375 37.3125 14.984375 27.296875 
Q 14.984375 17.28125 19.8125 11.734375 
Q 24.65625 6.203125 33.40625 6.203125 
Q 37.3125 6.203125 41.140625 7.25 
Q 44.96875 8.296875 48.78125 10.40625 
L 48.78125 2.09375 
Q 45.015625 0.34375 40.984375 -0.53125 
Q 36.96875 -1.421875 32.421875 -1.421875 
Q 20.0625 -1.421875 12.78125 6.34375 
Q 5.515625 14.109375 5.515625 27.296875 
Q 5.515625 40.671875 12.859375 48.328125 
Q 20.21875 56 33.015625 56 
Q 37.15625 56 41.109375 55.140625 
Q 45.0625 54.296875 48.78125 52.59375 
z
" id="DejaVuSans-99"/>
     </defs>
     <g transform="translate(14.798438 186.370835)rotate(-90)scale(0.1 -0.1)">
      <use xlink:href="#DejaVuSans-82"/>
      <use x="69.419922" xlink:href="#DejaVuSans-101"/>
      <use x="130.943359" xlink:href="#DejaVuSans-97"/>
      <use x="192.222656" xlink:href="#DejaVuSans-100"/>
      <use x="255.699219" xlink:href="#DejaVuSans-32"/>
      <use x="287.486328" xlink:href="#DejaVuSans-112"/>
      <use x="350.962891" xlink:href="#DejaVuSans-101"/>
      <use x="412.486328" xlink:href="#DejaVuSans-114"/>
      <use x="453.568359" xlink:href="#DejaVuSans-99"/>
      <use x="508.548828" xlink:href="#DejaVuSans-101"/>
      <use x="570.072266" xlink:href="#DejaVuSans-110"/>
      <use x="633.451172" xlink:href="#DejaVuSans-116"/>
     </g>
    </g>
   </g>
   <g id="line2d_8">
    <path clip-path="url(#pef0367f726)" d="M 83.897898 273.99006 
L 87.117026 267.319989 
L 90.336154 270.327606 
L 93.555282 271.712616 
L 96.77441 272.883211 
L 106.431794 273.561228 
L 112.87005 273.798824 
L 132.184819 273.804619 
L 145.061331 273.688719 
L 148.280459 273.538048 
L 157.937844 273.462713 
L 164.3761 272.946956 
L 167.595228 273.097627 
L 170.814356 273.062856 
L 174.033484 273.178757 
L 177.252612 272.975931 
L 180.47174 273.184552 
L 183.690868 272.547099 
L 186.909996 272.344274 
L 190.129124 252.374627 
L 193.348253 251.314138 
L 196.567381 250.444884 
L 199.786509 248.602067 
L 206.224765 246.77084 
L 209.443893 246.075437 
L 212.663021 246.092822 
L 215.882149 244.829508 
L 219.101277 243.792199 
L 222.320405 242.470933 
L 225.539533 241.64804 
L 228.758661 240.21667 
L 231.97779 239.712503 
L 235.196918 238.686784 
L 238.416046 238.002971 
L 241.635174 237.75958 
L 244.854302 236.594781 
L 257.730814 234.259387 
L 260.949942 233.135152 
L 264.16907 232.60201 
L 267.388199 231.431416 
L 270.607327 231.489366 
L 273.826455 231.419826 
L 277.045583 230.376722 
L 280.264711 229.542239 
L 283.483839 228.893196 
L 286.702967 227.027199 
L 289.922095 227.797937 
L 299.579479 225.659574 
L 302.798607 223.926862 
L 306.017736 224.013787 
L 309.236864 223.938452 
L 315.67512 221.545108 
L 318.894248 221.081506 
L 322.113376 220.502004 
L 325.332504 221.069916 
L 328.551632 219.279254 
L 331.77076 218.601236 
L 334.989888 217.065556 
L 338.209016 217.262586 
L 341.428144 216.590364 
L 344.647273 216.207892 
L 347.866401 215.054683 
L 351.085529 213.663877 
L 354.304657 213.623312 
L 357.523785 212.157172 
L 360.742913 213.153915 
L 363.962041 209.497256 
L 367.181169 209.27125 
L 370.400297 207.654439 
L 373.619425 207.335713 
L 376.838553 206.367944 
L 380.057681 203.95142 
L 383.27681 202.879341 
L 386.495938 201.2973 
L 389.715066 200.938008 
L 392.934194 199.674693 
L 396.153322 199.790594 
L 399.37245 195.884749 
L 402.591578 196.493226 
L 405.810706 194.001367 
L 409.029834 194.308503 
L 412.248962 193.340734 
L 415.46809 190.205627 
L 418.687218 190.582303 
L 421.906347 189.487044 
L 425.125475 186.925644 
L 428.344603 186.143316 
L 431.563731 184.399015 
L 434.782859 183.245805 
L 438.001987 183.031389 
L 441.221115 181.681149 
L 444.440243 182.724253 
L 447.659371 181.518888 
L 450.878499 181.345038 
L 454.097627 178.905333 
L 457.316755 180.197623 
L 460.535884 179.484836 
L 463.755012 179.780382 
L 466.97414 178.719893 
L 470.193268 178.592402 
L 473.412396 179.253035 
L 476.631524 178.383781 
L 479.850652 178.157776 
L 483.06978 177.740534 
L 486.288908 177.439193 
L 489.508036 177.497143 
L 492.727164 176.8481 
L 495.946292 176.987181 
L 499.165421 176.523579 
L 502.384549 175.074824 
L 505.603677 175.828177 
L 508.822805 174.750302 
L 512.041933 174.437371 
L 515.261061 174.448961 
L 518.480189 173.927409 
L 521.699317 172.907485 
L 524.918445 173.741969 
L 528.137573 172.571374 
L 531.356701 174.570657 
L 537.794958 173.000206 
L 541.014086 174.506911 
L 544.233214 174.280906 
L 547.452342 172.907485 
L 550.67147 172.368548 
L 553.890598 171.348624 
L 557.109726 173.579708 
L 560.328854 170.531526 
L 563.547982 160.384442 
L 566.76711 86.103846 
L 569.986238 141.568004 
L 573.205366 157.127639 
L 576.424495 160.001971 
L 579.643623 159.845505 
L 582.862751 162.262029 
L 586.081879 159.926635 
L 589.301007 161.497086 
L 592.520135 159.636884 
L 595.739263 162.111359 
L 598.958391 160.396032 
L 602.177519 161.114615 
L 605.396647 160.297517 
L 608.615775 160.952354 
L 611.834903 158.361979 
L 615.054032 158.44311 
L 618.27316 159.578934 
L 621.492288 157.996893 
L 624.711416 159.439853 
L 627.930544 159.051587 
L 631.149672 159.631089 
L 634.3688 160.691578 
L 637.587928 157.19718 
L 640.807056 158.014278 
L 644.026184 157.817247 
L 647.245312 156.837888 
L 653.683569 158.251874 
L 656.902697 159.190667 
L 660.121825 158.431519 
L 663.340953 159.810735 
L 666.560081 160.210591 
L 669.779209 159.712219 
L 676.217465 161.531856 
L 679.436593 161.444931 
L 682.655721 160.546703 
L 685.874849 161.2479 
L 689.093977 162.105564 
L 692.313106 163.108103 
L 695.532234 163.919406 
L 698.751362 164.991485 
L 701.97049 163.838275 
L 705.189618 165.901303 
L 708.408746 166.805327 
L 711.627874 165.652117 
L 714.847002 165.182721 
L 721.285258 168.074437 
L 724.504386 168.798814 
L 727.723514 170.409831 
L 730.942643 169.476832 
L 734.161771 171.881766 
L 737.380899 172.275828 
L 740.600027 173.150876 
L 743.819155 172.542399 
L 747.038283 175.607966 
L 753.476539 174.448961 
L 756.695667 175.040054 
L 759.914795 175.851357 
L 763.133923 178.05926 
L 766.353051 179.913667 
L 769.57218 178.992259 
L 772.791308 181.98249 
L 776.010436 182.295421 
L 779.229564 183.19365 
L 782.448692 181.582634 
L 785.66782 182.741638 
L 788.886948 184.097673 
L 792.106076 184.370039 
L 795.325204 185.349398 
L 798.544332 185.91731 
L 801.76346 188.391785 
L 804.982589 187.754333 
L 808.201717 187.586277 
L 811.420845 188.119419 
L 814.639973 189.823156 
L 817.859101 189.133548 
L 821.078229 189.458069 
L 824.297357 190.460608 
L 830.735613 191.306681 
L 833.954741 191.463147 
L 837.173869 192.488866 
L 840.392997 192.645331 
L 843.612126 193.48561 
L 846.831254 193.468225 
L 850.050382 194.453378 
L 853.26951 193.868081 
L 859.707766 195.571818 
L 862.926894 195.108216 
L 866.146022 195.907929 
L 872.584278 196.719232 
L 875.803406 196.423686 
L 879.022534 196.568562 
L 882.241663 198.110037 
L 885.460791 196.852518 
L 888.679919 198.79385 
L 891.899047 197.240784 
L 895.118175 197.032163 
L 901.556431 196.840928 
L 904.775559 198.075267 
L 907.994687 196.458456 
L 911.213815 195.554433 
L 914.432943 196.27881 
L 917.652071 195.131396 
L 920.8712 195.525457 
L 924.090328 196.22086 
L 927.309456 196.157115 
L 930.528584 195.450122 
L 933.747712 195.537048 
L 936.96684 193.729001 
L 940.185968 192.807592 
L 943.405096 194.128857 
L 946.624224 192.969853 
L 949.843352 200.091935 
L 949.843352 200.091935 
" style="fill:none;stroke:#7cb5ec;stroke-linecap:square;"/>
   </g>
   <g id="line2d_9">
    <path clip-path="url(#pef0367f726)" d="M 83.897898 273.99006 
L 87.117026 264.991009 
L 90.336154 268.60265 
L 93.555282 271.028624 
L 96.77441 272.640476 
L 99.993538 272.607692 
L 103.212666 273.006557 
L 106.431794 273.54202 
L 116.089179 273.787896 
L 135.403947 273.787896 
L 157.937844 273.389031 
L 164.3761 272.935526 
L 167.595228 272.935526 
L 170.814356 272.738826 
L 174.033484 272.979238 
L 180.47174 273.044805 
L 183.690868 272.460167 
L 186.909996 272.208827 
L 190.129124 250.544446 
L 193.348253 250.54991 
L 196.567381 250.92692 
L 203.005637 249.642902 
L 206.224765 250.533519 
L 209.443893 249.183934 
L 212.663021 249.681149 
L 215.882149 248.839708 
L 219.101277 249.500841 
L 222.320405 248.621152 
L 225.539533 247.140434 
L 228.758661 247.703216 
L 231.97779 247.337134 
L 235.196918 246.779816 
L 238.416046 245.943839 
L 241.635174 245.840025 
L 244.854302 246.249817 
L 248.07343 245.523118 
L 251.292558 244.954872 
L 254.511686 244.637966 
L 257.730814 243.687246 
L 260.949942 243.353948 
L 264.16907 242.217456 
L 267.388199 242.507043 
L 270.607327 241.62189 
L 273.826455 241.758488 
L 277.045583 240.660243 
L 280.264711 240.37612 
L 283.483839 239.60571 
L 289.922095 238.982825 
L 293.141223 238.075817 
L 296.360351 238.075817 
L 299.579479 238.250661 
L 302.798607 236.245409 
L 309.236864 235.720874 
L 312.455992 234.649948 
L 315.67512 234.671804 
L 318.894248 233.349539 
L 322.113376 232.868716 
L 325.332504 231.710368 
L 328.551632 231.781399 
L 331.77076 231.289647 
L 334.989888 229.97831 
L 338.209016 229.065838 
L 341.428144 228.688829 
L 344.647273 227.58512 
L 347.866401 227.803676 
L 351.085529 225.328528 
L 354.304657 223.481728 
L 357.523785 222.738637 
L 360.742913 222.940801 
L 363.962041 221.094002 
L 367.181169 219.891943 
L 370.400297 217.744628 
L 373.619425 217.280196 
L 376.838553 215.236696 
L 380.057681 214.160307 
L 383.27681 212.018457 
L 386.495938 208.969598 
L 389.715066 207.893209 
L 392.934194 205.368885 
L 396.153322 204.084867 
L 399.37245 202.653324 
L 402.591578 199.342198 
L 405.810706 199.659105 
L 409.029834 197.446224 
L 415.46809 195.053033 
L 418.687218 192.474071 
L 421.906347 191.769227 
L 425.125475 189.873252 
L 428.344603 186.206972 
L 431.563731 184.130689 
L 438.001987 183.098011 
L 441.221115 183.873885 
L 444.440243 182.824815 
L 447.659371 183.251 
L 450.878499 180.316883 
L 454.097627 180.85781 
L 457.316755 179.978121 
L 460.535884 181.502551 
L 463.755012 179.306061 
L 466.97414 179.043794 
L 470.193268 176.896479 
L 473.412396 178.246064 
L 476.631524 178.33895 
L 479.850652 177.497509 
L 483.06978 177.437406 
L 486.288908 176.229883 
L 489.508036 176.377408 
L 492.727164 176.36648 
L 495.946292 176.065966 
L 499.165421 174.978649 
L 502.384549 175.475864 
L 505.603677 173.262983 
L 508.822805 173.170096 
L 512.041933 173.4269 
L 515.261061 172.454325 
L 518.480189 173.585353 
L 521.699317 174.410403 
L 524.918445 172.95154 
L 528.137573 172.847726 
L 531.356701 172.274016 
L 534.575829 173.306694 
L 537.794958 172.667417 
L 541.014086 172.25216 
L 544.233214 172.847726 
L 550.67147 171.547317 
L 553.890598 171.787729 
L 557.109726 170.290619 
L 560.328854 168.03949 
L 563.547982 153.112103 
L 566.76711 43.030822 
L 569.986238 126.961857 
L 573.205366 148.063456 
L 576.424495 154.991687 
L 579.643623 155.494366 
L 582.862751 156.374054 
L 586.081879 157.379413 
L 589.301007 157.603433 
L 592.520135 157.652608 
L 595.739263 156.36859 
L 598.958391 157.794669 
L 602.177519 156.609002 
L 605.396647 155.997045 
L 608.615775 156.040756 
L 611.834903 154.838697 
L 615.054032 155.734778 
L 618.27316 157.953123 
L 621.492288 154.614677 
L 624.711416 156.734672 
L 627.930544 155.8222 
L 631.149672 156.139106 
L 634.3688 153.543752 
L 637.587928 153.887978 
L 640.807056 154.068287 
L 644.026184 153.65303 
L 647.245312 155.002614 
L 650.46444 154.860553 
L 653.683569 156.111787 
L 660.121825 155.161068 
L 663.340953 156.61993 
L 666.560081 157.379413 
L 669.779209 157.182712 
L 672.998337 155.953334 
L 676.217465 156.499724 
L 679.436593 157.44498 
L 682.655721 156.975084 
L 685.874849 159.062295 
L 689.093977 159.952912 
L 692.313106 159.68518 
L 695.532234 161.368063 
L 698.751362 162.570122 
L 701.97049 160.553941 
L 705.189618 161.597547 
L 708.408746 162.264143 
L 711.627874 161.684969 
L 714.847002 162.755895 
L 718.06613 163.00177 
L 721.285258 162.040123 
L 724.504386 165.285682 
L 727.723514 164.941456 
L 730.942643 167.520419 
L 734.161771 167.219905 
L 740.600027 168.941034 
L 743.819155 170.487319 
L 750.257411 170.154021 
L 753.476539 171.476286 
L 759.914795 172.60185 
L 763.133923 173.082674 
L 766.353051 175.404833 
L 769.57218 175.923904 
L 772.791308 177.754312 
L 776.010436 178.918124 
L 779.229564 178.273383 
L 782.448692 178.546578 
L 785.66782 179.338844 
L 788.886948 179.202247 
L 792.106076 180.682965 
L 795.325204 181.770282 
L 798.544332 181.469767 
L 801.76346 182.256569 
L 804.982589 182.737393 
L 808.201717 182.835743 
L 811.420845 183.485948 
L 814.639973 185.687901 
L 817.859101 184.955738 
L 824.297357 185.474809 
L 827.516485 185.289036 
L 830.735613 187.332537 
L 833.954741 187.562021 
L 837.173869 187.605732 
L 840.392997 187.119444 
L 846.831254 189.359645 
L 850.050382 188.545523 
L 853.26951 189.294078 
L 856.488638 189.682015 
L 859.707766 190.769332 
L 862.926894 189.763974 
L 869.36515 191.140878 
L 872.584278 191.714588 
L 875.803406 193.703449 
L 879.022534 192.299226 
L 885.460791 193.626954 
L 888.679919 194.200664 
L 891.899047 192.85108 
L 895.118175 192.566957 
L 898.337303 192.998605 
L 901.556431 193.014997 
L 904.775559 191.272012 
L 907.994687 190.599951 
L 911.213815 191.676341 
L 914.432943 190.68191 
L 917.652071 191.446857 
L 920.8712 189.971602 
L 930.528584 187.392639 
L 933.747712 188.113875 
L 936.96684 184.993985 
L 940.185968 185.791716 
L 943.405096 183.977699 
L 946.624224 184.64976 
L 949.843352 192.107989 
L 949.843352 192.107989 
" style="fill:none;stroke:#434348;stroke-linecap:square;"/>
   </g>
   <g id="line2d_10">
    <path clip-path="url(#pef0367f726)" d="M 40.600625 273.99006 
L 993.140625 273.99006 
" style="fill:none;stroke:#dedede;stroke-linecap:square;stroke-width:2;"/>
   </g>
   <g id="text_16">
    <!-- Fastp: Insert Size Distribution -->
    <defs>
     <path d="M 9.8125 72.90625 
L 51.703125 72.90625 
L 51.703125 64.59375 
L 19.671875 64.59375 
L 19.671875 43.109375 
L 48.578125 43.109375 
L 48.578125 34.8125 
L 19.671875 34.8125 
L 19.671875 0 
L 9.8125 0 
z
" id="DejaVuSans-70"/>
     <path d="M 11.71875 12.40625 
L 22.015625 12.40625 
L 22.015625 0 
L 11.71875 0 
z
M 11.71875 51.703125 
L 22.015625 51.703125 
L 22.015625 39.3125 
L 11.71875 39.3125 
z
" id="DejaVuSans-58"/>
     <path d="M 53.515625 70.515625 
L 53.515625 60.890625 
Q 47.90625 63.578125 42.921875 64.890625 
Q 37.9375 66.21875 33.296875 66.21875 
Q 25.25 66.21875 20.875 63.09375 
Q 16.5 59.96875 16.5 54.203125 
Q 16.5 49.359375 19.40625 46.890625 
Q 22.3125 44.4375 30.421875 42.921875 
L 36.375 41.703125 
Q 47.40625 39.59375 52.65625 34.296875 
Q 57.90625 29 57.90625 20.125 
Q 57.90625 9.515625 50.796875 4.046875 
Q 43.703125 -1.421875 29.984375 -1.421875 
Q 24.8125 -1.421875 18.96875 -0.25 
Q 13.140625 0.921875 6.890625 3.21875 
L 6.890625 13.375 
Q 12.890625 10.015625 18.65625 8.296875 
Q 24.421875 6.59375 29.984375 6.59375 
Q 38.421875 6.59375 43.015625 9.90625 
Q 47.609375 13.234375 47.609375 19.390625 
Q 47.609375 24.75 44.3125 27.78125 
Q 41.015625 30.8125 33.5 32.328125 
L 27.484375 33.5 
Q 16.453125 35.6875 11.515625 40.375 
Q 6.59375 45.0625 6.59375 53.421875 
Q 6.59375 63.09375 13.40625 68.65625 
Q 20.21875 74.21875 32.171875 74.21875 
Q 37.3125 74.21875 42.625 73.28125 
Q 47.953125 72.359375 53.515625 70.515625 
z
" id="DejaVuSans-83"/>
     <path d="M 19.671875 64.796875 
L 19.671875 8.109375 
L 31.59375 8.109375 
Q 46.6875 8.109375 53.6875 14.9375 
Q 60.6875 21.78125 60.6875 36.53125 
Q 60.6875 51.171875 53.6875 57.984375 
Q 46.6875 64.796875 31.59375 64.796875 
z
M 9.8125 72.90625 
L 30.078125 72.90625 
Q 51.265625 72.90625 61.171875 64.09375 
Q 71.09375 55.28125 71.09375 36.53125 
Q 71.09375 17.671875 61.125 8.828125 
Q 51.171875 0 30.078125 0 
L 9.8125 0 
z
" id="DejaVuSans-68"/>
     <path d="M 48.6875 27.296875 
Q 48.6875 37.203125 44.609375 42.84375 
Q 40.53125 48.484375 33.40625 48.484375 
Q 26.265625 48.484375 22.1875 42.84375 
Q 18.109375 37.203125 18.109375 27.296875 
Q 18.109375 17.390625 22.1875 11.75 
Q 26.265625 6.109375 33.40625 6.109375 
Q 40.53125 6.109375 44.609375 11.75 
Q 48.6875 17.390625 48.6875 27.296875 
z
M 18.109375 46.390625 
Q 20.953125 51.265625 25.265625 53.625 
Q 29.59375 56 35.59375 56 
Q 45.5625 56 51.78125 48.09375 
Q 58.015625 40.1875 58.015625 27.296875 
Q 58.015625 14.40625 51.78125 6.484375 
Q 45.5625 -1.421875 35.59375 -1.421875 
Q 29.59375 -1.421875 25.265625 0.953125 
Q 20.953125 3.328125 18.109375 8.203125 
L 18.109375 0 
L 9.078125 0 
L 9.078125 75.984375 
L 18.109375 75.984375 
z
" id="DejaVuSans-98"/>
     <path d="M 8.5 21.578125 
L 8.5 54.6875 
L 17.484375 54.6875 
L 17.484375 21.921875 
Q 17.484375 14.15625 20.5 10.265625 
Q 23.53125 6.390625 29.59375 6.390625 
Q 36.859375 6.390625 41.078125 11.03125 
Q 45.3125 15.671875 45.3125 23.6875 
L 45.3125 54.6875 
L 54.296875 54.6875 
L 54.296875 0 
L 45.3125 0 
L 45.3125 8.40625 
Q 42.046875 3.421875 37.71875 1 
Q 33.40625 -1.421875 27.6875 -1.421875 
Q 18.265625 -1.421875 13.375 4.4375 
Q 8.5 10.296875 8.5 21.578125 
z
M 31.109375 56 
z
" id="DejaVuSans-117"/>
     <path d="M 30.609375 48.390625 
Q 23.390625 48.390625 19.1875 42.75 
Q 14.984375 37.109375 14.984375 27.296875 
Q 14.984375 17.484375 19.15625 11.84375 
Q 23.34375 6.203125 30.609375 6.203125 
Q 37.796875 6.203125 41.984375 11.859375 
Q 46.1875 17.53125 46.1875 27.296875 
Q 46.1875 37.015625 41.984375 42.703125 
Q 37.796875 48.390625 30.609375 48.390625 
z
M 30.609375 56 
Q 42.328125 56 49.015625 48.375 
Q 55.71875 40.765625 55.71875 27.296875 
Q 55.71875 13.875 49.015625 6.21875 
Q 42.328125 -1.421875 30.609375 -1.421875 
Q 18.84375 -1.421875 12.171875 6.21875 
Q 5.515625 13.875 5.515625 27.296875 
Q 5.515625 40.765625 12.171875 48.375 
Q 18.84375 56 30.609375 56 
z
" id="DejaVuSans-111"/>
    </defs>
    <g transform="translate(398.635625 19.3575)scale(0.16 -0.16)">
     <use xlink:href="#DejaVuSans-70"/>
     <use x="57.378906" xlink:href="#DejaVuSans-97"/>
     <use x="118.658203" xlink:href="#DejaVuSans-115"/>
     <use x="170.757812" xlink:href="#DejaVuSans-116"/>
     <use x="209.966797" xlink:href="#DejaVuSans-112"/>
     <use x="273.443359" xlink:href="#DejaVuSans-58"/>
     <use x="307.134766" xlink:href="#DejaVuSans-32"/>
     <use x="338.921875" xlink:href="#DejaVuSans-73"/>
     <use x="368.414062" xlink:href="#DejaVuSans-110"/>
     <use x="431.792969" xlink:href="#DejaVuSans-115"/>
     <use x="483.892578" xlink:href="#DejaVuSans-101"/>
     <use x="545.416016" xlink:href="#DejaVuSans-114"/>
     <use x="586.529297" xlink:href="#DejaVuSans-116"/>
     <use x="625.738281" xlink:href="#DejaVuSans-32"/>
     <use x="657.525391" xlink:href="#DejaVuSans-83"/>
     <use x="721.001953" xlink:href="#DejaVuSans-105"/>
     <use x="748.785156" xlink:href="#DejaVuSans-122"/>
     <use x="801.275391" xlink:href="#DejaVuSans-101"/>
     <use x="862.798828" xlink:href="#DejaVuSans-32"/>
     <use x="894.585938" xlink:href="#DejaVuSans-68"/>
     <use x="971.587891" xlink:href="#DejaVuSans-105"/>
     <use x="999.371094" xlink:href="#DejaVuSans-115"/>
     <use x="1051.470703" xlink:href="#DejaVuSans-116"/>
     <use x="1090.679688" xlink:href="#DejaVuSans-114"/>
     <use x="1131.792969" xlink:href="#DejaVuSans-105"/>
     <use x="1159.576172" xlink:href="#DejaVuSans-98"/>
     <use x="1223.052734" xlink:href="#DejaVuSans-117"/>
     <use x="1286.431641" xlink:href="#DejaVuSans-116"/>
     <use x="1325.640625" xlink:href="#DejaVuSans-105"/>
     <use x="1353.423828" xlink:href="#DejaVuSans-111"/>
     <use x="1414.605469" xlink:href="#DejaVuSans-110"/>
    </g>
   </g>
   <g id="legend_1">
    <g id="line2d_11">
     <path d="M 47.800625 315.455394 
L 63.800625 315.455394 
" style="fill:none;stroke:#7cb5ec;stroke-linecap:square;"/>
    </g>
    <g id="line2d_12"/>
    <g id="text_17">
     <!-- Pbb-CGal_008-Ex1-1A-ssl-1-1.clmp.r1r2_fastp -->
     <defs>
      <path d="M 19.671875 64.796875 
L 19.671875 37.40625 
L 32.078125 37.40625 
Q 38.96875 37.40625 42.71875 40.96875 
Q 46.484375 44.53125 46.484375 51.125 
Q 46.484375 57.671875 42.71875 61.234375 
Q 38.96875 64.796875 32.078125 64.796875 
z
M 9.8125 72.90625 
L 32.078125 72.90625 
Q 44.34375 72.90625 50.609375 67.359375 
Q 56.890625 61.8125 56.890625 51.125 
Q 56.890625 40.328125 50.609375 34.8125 
Q 44.34375 29.296875 32.078125 29.296875 
L 19.671875 29.296875 
L 19.671875 0 
L 9.8125 0 
z
" id="DejaVuSans-80"/>
      <path d="M 4.890625 31.390625 
L 31.203125 31.390625 
L 31.203125 23.390625 
L 4.890625 23.390625 
z
" id="DejaVuSans-45"/>
      <path d="M 64.40625 67.28125 
L 64.40625 56.890625 
Q 59.421875 61.53125 53.78125 63.8125 
Q 48.140625 66.109375 41.796875 66.109375 
Q 29.296875 66.109375 22.65625 58.46875 
Q 16.015625 50.828125 16.015625 36.375 
Q 16.015625 21.96875 22.65625 14.328125 
Q 29.296875 6.6875 41.796875 6.6875 
Q 48.140625 6.6875 53.78125 8.984375 
Q 59.421875 11.28125 64.40625 15.921875 
L 64.40625 5.609375 
Q 59.234375 2.09375 53.4375 0.328125 
Q 47.65625 -1.421875 41.21875 -1.421875 
Q 24.65625 -1.421875 15.125 8.703125 
Q 5.609375 18.84375 5.609375 36.375 
Q 5.609375 53.953125 15.125 64.078125 
Q 24.65625 74.21875 41.21875 74.21875 
Q 47.75 74.21875 53.53125 72.484375 
Q 59.328125 70.75 64.40625 67.28125 
z
" id="DejaVuSans-67"/>
      <path d="M 59.515625 10.40625 
L 59.515625 29.984375 
L 43.40625 29.984375 
L 43.40625 38.09375 
L 69.28125 38.09375 
L 69.28125 6.78125 
Q 63.578125 2.734375 56.6875 0.65625 
Q 49.8125 -1.421875 42 -1.421875 
Q 24.90625 -1.421875 15.25 8.5625 
Q 5.609375 18.5625 5.609375 36.375 
Q 5.609375 54.25 15.25 64.234375 
Q 24.90625 74.21875 42 74.21875 
Q 49.125 74.21875 55.546875 72.453125 
Q 61.96875 70.703125 67.390625 67.28125 
L 67.390625 56.78125 
Q 61.921875 61.421875 55.765625 63.765625 
Q 49.609375 66.109375 42.828125 66.109375 
Q 29.4375 66.109375 22.71875 58.640625 
Q 16.015625 51.171875 16.015625 36.375 
Q 16.015625 21.625 22.71875 14.15625 
Q 29.4375 6.6875 42.828125 6.6875 
Q 48.046875 6.6875 52.140625 7.59375 
Q 56.25 8.5 59.515625 10.40625 
z
" id="DejaVuSans-71"/>
      <path d="M 9.421875 75.984375 
L 18.40625 75.984375 
L 18.40625 0 
L 9.421875 0 
z
" id="DejaVuSans-108"/>
      <path d="M 50.984375 -16.609375 
L 50.984375 -23.578125 
L -0.984375 -23.578125 
L -0.984375 -16.609375 
z
" id="DejaVuSans-95"/>
      <path d="M 9.8125 72.90625 
L 55.90625 72.90625 
L 55.90625 64.59375 
L 19.671875 64.59375 
L 19.671875 43.015625 
L 54.390625 43.015625 
L 54.390625 34.71875 
L 19.671875 34.71875 
L 19.671875 8.296875 
L 56.78125 8.296875 
L 56.78125 0 
L 9.8125 0 
z
" id="DejaVuSans-69"/>
      <path d="M 54.890625 54.6875 
L 35.109375 28.078125 
L 55.90625 0 
L 45.3125 0 
L 29.390625 21.484375 
L 13.484375 0 
L 2.875 0 
L 24.125 28.609375 
L 4.6875 54.6875 
L 15.28125 54.6875 
L 29.78125 35.203125 
L 44.28125 54.6875 
z
" id="DejaVuSans-120"/>
      <path d="M 34.1875 63.1875 
L 20.796875 26.90625 
L 47.609375 26.90625 
z
M 28.609375 72.90625 
L 39.796875 72.90625 
L 67.578125 0 
L 57.328125 0 
L 50.6875 18.703125 
L 17.828125 18.703125 
L 11.1875 0 
L 0.78125 0 
z
" id="DejaVuSans-65"/>
      <path d="M 52 44.1875 
Q 55.375 50.25 60.0625 53.125 
Q 64.75 56 71.09375 56 
Q 79.640625 56 84.28125 50.015625 
Q 88.921875 44.046875 88.921875 33.015625 
L 88.921875 0 
L 79.890625 0 
L 79.890625 32.71875 
Q 79.890625 40.578125 77.09375 44.375 
Q 74.3125 48.1875 68.609375 48.1875 
Q 61.625 48.1875 57.5625 43.546875 
Q 53.515625 38.921875 53.515625 30.90625 
L 53.515625 0 
L 44.484375 0 
L 44.484375 32.71875 
Q 44.484375 40.625 41.703125 44.40625 
Q 38.921875 48.1875 33.109375 48.1875 
Q 26.21875 48.1875 22.15625 43.53125 
Q 18.109375 38.875 18.109375 30.90625 
L 18.109375 0 
L 9.078125 0 
L 9.078125 54.6875 
L 18.109375 54.6875 
L 18.109375 46.1875 
Q 21.1875 51.21875 25.484375 53.609375 
Q 29.78125 56 35.6875 56 
Q 41.65625 56 45.828125 52.96875 
Q 50 49.953125 52 44.1875 
z
" id="DejaVuSans-109"/>
      <path d="M 37.109375 75.984375 
L 37.109375 68.5 
L 28.515625 68.5 
Q 23.6875 68.5 21.796875 66.546875 
Q 19.921875 64.59375 19.921875 59.515625 
L 19.921875 54.6875 
L 34.71875 54.6875 
L 34.71875 47.703125 
L 19.921875 47.703125 
L 19.921875 0 
L 10.890625 0 
L 10.890625 47.703125 
L 2.296875 47.703125 
L 2.296875 54.6875 
L 10.890625 54.6875 
L 10.890625 58.5 
Q 10.890625 67.625 15.140625 71.796875 
Q 19.390625 75.984375 28.609375 75.984375 
z
" id="DejaVuSans-102"/>
     </defs>
     <g transform="translate(70.200625 318.255394)scale(0.08 -0.08)">
      <use xlink:href="#DejaVuSans-80"/>
      <use x="60.302734" xlink:href="#DejaVuSans-98"/>
      <use x="123.779297" xlink:href="#DejaVuSans-98"/>
      <use x="187.255859" xlink:href="#DejaVuSans-45"/>
      <use x="223.339844" xlink:href="#DejaVuSans-67"/>
      <use x="293.164062" xlink:href="#DejaVuSans-71"/>
      <use x="370.654297" xlink:href="#DejaVuSans-97"/>
      <use x="431.933594" xlink:href="#DejaVuSans-108"/>
      <use x="459.716797" xlink:href="#DejaVuSans-95"/>
      <use x="509.716797" xlink:href="#DejaVuSans-48"/>
      <use x="573.339844" xlink:href="#DejaVuSans-48"/>
      <use x="636.962891" xlink:href="#DejaVuSans-56"/>
      <use x="700.585938" xlink:href="#DejaVuSans-45"/>
      <use x="736.669922" xlink:href="#DejaVuSans-69"/>
      <use x="799.853516" xlink:href="#DejaVuSans-120"/>
      <use x="859.033203" xlink:href="#DejaVuSans-49"/>
      <use x="922.65625" xlink:href="#DejaVuSans-45"/>
      <use x="958.740234" xlink:href="#DejaVuSans-49"/>
      <use x="1022.363281" xlink:href="#DejaVuSans-65"/>
      <use x="1090.740234" xlink:href="#DejaVuSans-45"/>
      <use x="1126.824219" xlink:href="#DejaVuSans-115"/>
      <use x="1178.923828" xlink:href="#DejaVuSans-115"/>
      <use x="1231.023438" xlink:href="#DejaVuSans-108"/>
      <use x="1258.806641" xlink:href="#DejaVuSans-45"/>
      <use x="1294.890625" xlink:href="#DejaVuSans-49"/>
      <use x="1358.513672" xlink:href="#DejaVuSans-45"/>
      <use x="1394.597656" xlink:href="#DejaVuSans-49"/>
      <use x="1458.220703" xlink:href="#DejaVuSans-46"/>
      <use x="1490.007812" xlink:href="#DejaVuSans-99"/>
      <use x="1544.988281" xlink:href="#DejaVuSans-108"/>
      <use x="1572.771484" xlink:href="#DejaVuSans-109"/>
      <use x="1670.183594" xlink:href="#DejaVuSans-112"/>
      <use x="1733.660156" xlink:href="#DejaVuSans-46"/>
      <use x="1765.447266" xlink:href="#DejaVuSans-114"/>
      <use x="1806.560547" xlink:href="#DejaVuSans-49"/>
      <use x="1870.183594" xlink:href="#DejaVuSans-114"/>
      <use x="1911.296875" xlink:href="#DejaVuSans-50"/>
      <use x="1974.919922" xlink:href="#DejaVuSans-95"/>
      <use x="2024.919922" xlink:href="#DejaVuSans-102"/>
      <use x="2060.125" xlink:href="#DejaVuSans-97"/>
      <use x="2121.404297" xlink:href="#DejaVuSans-115"/>
      <use x="2173.503906" xlink:href="#DejaVuSans-116"/>
      <use x="2212.712891" xlink:href="#DejaVuSans-112"/>
     </g>
    </g>
    <g id="line2d_13">
     <path d="M 781.448125 315.455394 
L 797.448125 315.455394 
" style="fill:none;stroke:#434348;stroke-linecap:square;"/>
    </g>
    <g id="line2d_14"/>
    <g id="text_18">
     <!-- Pbb-CGal_008-Ex1-3A-ssl-1-1.clmp.r1r2_fastp -->
     <defs>
      <path d="M 40.578125 39.3125 
Q 47.65625 37.796875 51.625 33 
Q 55.609375 28.21875 55.609375 21.1875 
Q 55.609375 10.40625 48.1875 4.484375 
Q 40.765625 -1.421875 27.09375 -1.421875 
Q 22.515625 -1.421875 17.65625 -0.515625 
Q 12.796875 0.390625 7.625 2.203125 
L 7.625 11.71875 
Q 11.71875 9.328125 16.59375 8.109375 
Q 21.484375 6.890625 26.8125 6.890625 
Q 36.078125 6.890625 40.9375 10.546875 
Q 45.796875 14.203125 45.796875 21.1875 
Q 45.796875 27.640625 41.28125 31.265625 
Q 36.765625 34.90625 28.71875 34.90625 
L 20.21875 34.90625 
L 20.21875 43.015625 
L 29.109375 43.015625 
Q 36.375 43.015625 40.234375 45.921875 
Q 44.09375 48.828125 44.09375 54.296875 
Q 44.09375 59.90625 40.109375 62.90625 
Q 36.140625 65.921875 28.71875 65.921875 
Q 24.65625 65.921875 20.015625 65.03125 
Q 15.375 64.15625 9.8125 62.3125 
L 9.8125 71.09375 
Q 15.4375 72.65625 20.34375 73.4375 
Q 25.25 74.21875 29.59375 74.21875 
Q 40.828125 74.21875 47.359375 69.109375 
Q 53.90625 64.015625 53.90625 55.328125 
Q 53.90625 49.265625 50.4375 45.09375 
Q 46.96875 40.921875 40.578125 39.3125 
z
" id="DejaVuSans-51"/>
     </defs>
     <g transform="translate(803.848125 318.255394)scale(0.08 -0.08)">
      <use xlink:href="#DejaVuSans-80"/>
      <use x="60.302734" xlink:href="#DejaVuSans-98"/>
      <use x="123.779297" xlink:href="#DejaVuSans-98"/>
      <use x="187.255859" xlink:href="#DejaVuSans-45"/>
      <use x="223.339844" xlink:href="#DejaVuSans-67"/>
      <use x="293.164062" xlink:href="#DejaVuSans-71"/>
      <use x="370.654297" xlink:href="#DejaVuSans-97"/>
      <use x="431.933594" xlink:href="#DejaVuSans-108"/>
      <use x="459.716797" xlink:href="#DejaVuSans-95"/>
      <use x="509.716797" xlink:href="#DejaVuSans-48"/>
      <use x="573.339844" xlink:href="#DejaVuSans-48"/>
      <use x="636.962891" xlink:href="#DejaVuSans-56"/>
      <use x="700.585938" xlink:href="#DejaVuSans-45"/>
      <use x="736.669922" xlink:href="#DejaVuSans-69"/>
      <use x="799.853516" xlink:href="#DejaVuSans-120"/>
      <use x="859.033203" xlink:href="#DejaVuSans-49"/>
      <use x="922.65625" xlink:href="#DejaVuSans-45"/>
      <use x="958.740234" xlink:href="#DejaVuSans-51"/>
      <use x="1022.363281" xlink:href="#DejaVuSans-65"/>
      <use x="1090.740234" xlink:href="#DejaVuSans-45"/>
      <use x="1126.824219" xlink:href="#DejaVuSans-115"/>
      <use x="1178.923828" xlink:href="#DejaVuSans-115"/>
      <use x="1231.023438" xlink:href="#DejaVuSans-108"/>
      <use x="1258.806641" xlink:href="#DejaVuSans-45"/>
      <use x="1294.890625" xlink:href="#DejaVuSans-49"/>
      <use x="1358.513672" xlink:href="#DejaVuSans-45"/>
      <use x="1394.597656" xlink:href="#DejaVuSans-49"/>
      <use x="1458.220703" xlink:href="#DejaVuSans-46"/>
      <use x="1490.007812" xlink:href="#DejaVuSans-99"/>
      <use x="1544.988281" xlink:href="#DejaVuSans-108"/>
      <use x="1572.771484" xlink:href="#DejaVuSans-109"/>
      <use x="1670.183594" xlink:href="#DejaVuSans-112"/>
      <use x="1733.660156" xlink:href="#DejaVuSans-46"/>
      <use x="1765.447266" xlink:href="#DejaVuSans-114"/>
      <use x="1806.560547" xlink:href="#DejaVuSans-49"/>
      <use x="1870.183594" xlink:href="#DejaVuSans-114"/>
      <use x="1911.296875" xlink:href="#DejaVuSans-50"/>
      <use x="1974.919922" xlink:href="#DejaVuSans-95"/>
      <use x="2024.919922" xlink:href="#DejaVuSans-102"/>
      <use x="2060.125" xlink:href="#DejaVuSans-97"/>
      <use x="2121.404297" xlink:href="#DejaVuSans-115"/>
      <use x="2173.503906" xlink:href="#DejaVuSans-116"/>
      <use x="2212.712891" xlink:href="#DejaVuSans-112"/>
     </g>
    </g>
   </g>
  </g>
 </g>
 <defs>
  <clipPath id="pef0367f726">
   <rect height="242.5072" width="952.54" x="40.600625" y="31.48286"/>
  </clipPath>
 </defs>
</svg>
