<?xml version="1.0" encoding="utf-8" standalone="no"?>
<!DOCTYPE svg PUBLIC "-//W3C//DTD SVG 1.1//EN"
  "http://www.w3.org/Graphics/SVG/1.1/DTD/svg11.dtd">
<!-- Created with matplotlib (https://matplotlib.org/) -->
<svg height="330.541644pt" version="1.1" viewBox="0 0 1000.058125 330.541644" width="1000.058125pt" xmlns="http://www.w3.org/2000/svg" xmlns:xlink="http://www.w3.org/1999/xlink">
 <defs>
  <style type="text/css">
*{stroke-linecap:butt;stroke-linejoin:round;}
  </style>
 </defs>
 <g id="figure_1">
  <g id="axes_1">
   <g id="patch_1">
    <path d="M 63.508125 273.99006 
L 985.223125 273.99006 
L 985.223125 31.48286 
L 63.508125 31.48286 
z
" style="fill:#ffffff;"/>
   </g>
   <g id="matplotlib.axis_1">
    <g id="xtick_1">
     <g id="text_1">
      <!-- 0 -->
      <defs>
       <path d="M 31.78125 66.40625 
Q 24.171875 66.40625 20.328125 58.90625 
Q 16.5 51.421875 16.5 36.375 
Q 16.5 21.390625 20.328125 13.890625 
Q 24.171875 6.390625 31.78125 6.390625 
Q 39.453125 6.390625 43.28125 13.890625 
Q 47.125 21.390625 47.125 36.375 
Q 47.125 51.421875 43.28125 58.90625 
Q 39.453125 66.40625 31.78125 66.40625 
z
M 31.78125 74.21875 
Q 44.046875 74.21875 50.515625 64.515625 
Q 56.984375 54.828125 56.984375 36.375 
Q 56.984375 17.96875 50.515625 8.265625 
Q 44.046875 -1.421875 31.78125 -1.421875 
Q 19.53125 -1.421875 13.0625 8.265625 
Q 6.59375 17.96875 6.59375 36.375 
Q 6.59375 54.828125 13.0625 64.515625 
Q 19.53125 74.21875 31.78125 74.21875 
z
" id="DejaVuSans-48"/>
      </defs>
      <g transform="translate(60.963125 287.06881)scale(0.08 -0.08)">
       <use xlink:href="#DejaVuSans-48"/>
      </g>
     </g>
    </g>
    <g id="xtick_2">
     <g id="text_2">
      <!-- 20 -->
      <defs>
       <path d="M 19.1875 8.296875 
L 53.609375 8.296875 
L 53.609375 0 
L 7.328125 0 
L 7.328125 8.296875 
Q 12.9375 14.109375 22.625 23.890625 
Q 32.328125 33.6875 34.8125 36.53125 
Q 39.546875 41.84375 41.421875 45.53125 
Q 43.3125 49.21875 43.3125 52.78125 
Q 43.3125 58.59375 39.234375 62.25 
Q 35.15625 65.921875 28.609375 65.921875 
Q 23.96875 65.921875 18.8125 64.3125 
Q 13.671875 62.703125 7.8125 59.421875 
L 7.8125 69.390625 
Q 13.765625 71.78125 18.9375 73 
Q 24.125 74.21875 28.421875 74.21875 
Q 39.75 74.21875 46.484375 68.546875 
Q 53.21875 62.890625 53.21875 53.421875 
Q 53.21875 48.921875 51.53125 44.890625 
Q 49.859375 40.875 45.40625 35.40625 
Q 44.1875 33.984375 37.640625 27.21875 
Q 31.109375 20.453125 19.1875 8.296875 
z
" id="DejaVuSans-50"/>
      </defs>
      <g transform="translate(242.761125 287.06881)scale(0.08 -0.08)">
       <use xlink:href="#DejaVuSans-50"/>
       <use x="63.623047" xlink:href="#DejaVuSans-48"/>
      </g>
     </g>
    </g>
    <g id="xtick_3">
     <g id="text_3">
      <!-- 40 -->
      <defs>
       <path d="M 37.796875 64.3125 
L 12.890625 25.390625 
L 37.796875 25.390625 
z
M 35.203125 72.90625 
L 47.609375 72.90625 
L 47.609375 25.390625 
L 58.015625 25.390625 
L 58.015625 17.1875 
L 47.609375 17.1875 
L 47.609375 0 
L 37.796875 0 
L 37.796875 17.1875 
L 4.890625 17.1875 
L 4.890625 26.703125 
z
" id="DejaVuSans-52"/>
      </defs>
      <g transform="translate(427.104125 287.06881)scale(0.08 -0.08)">
       <use xlink:href="#DejaVuSans-52"/>
       <use x="63.623047" xlink:href="#DejaVuSans-48"/>
      </g>
     </g>
    </g>
    <g id="xtick_4">
     <g id="text_4">
      <!-- 60 -->
      <defs>
       <path d="M 33.015625 40.375 
Q 26.375 40.375 22.484375 35.828125 
Q 18.609375 31.296875 18.609375 23.390625 
Q 18.609375 15.53125 22.484375 10.953125 
Q 26.375 6.390625 33.015625 6.390625 
Q 39.65625 6.390625 43.53125 10.953125 
Q 47.40625 15.53125 47.40625 23.390625 
Q 47.40625 31.296875 43.53125 35.828125 
Q 39.65625 40.375 33.015625 40.375 
z
M 52.59375 71.296875 
L 52.59375 62.3125 
Q 48.875 64.0625 45.09375 64.984375 
Q 41.3125 65.921875 37.59375 65.921875 
Q 27.828125 65.921875 22.671875 59.328125 
Q 17.53125 52.734375 16.796875 39.40625 
Q 19.671875 43.65625 24.015625 45.921875 
Q 28.375 48.1875 33.59375 48.1875 
Q 44.578125 48.1875 50.953125 41.515625 
Q 57.328125 34.859375 57.328125 23.390625 
Q 57.328125 12.15625 50.6875 5.359375 
Q 44.046875 -1.421875 33.015625 -1.421875 
Q 20.359375 -1.421875 13.671875 8.265625 
Q 6.984375 17.96875 6.984375 36.375 
Q 6.984375 53.65625 15.1875 63.9375 
Q 23.390625 74.21875 37.203125 74.21875 
Q 40.921875 74.21875 44.703125 73.484375 
Q 48.484375 72.75 52.59375 71.296875 
z
" id="DejaVuSans-54"/>
      </defs>
      <g transform="translate(611.447125 287.06881)scale(0.08 -0.08)">
       <use xlink:href="#DejaVuSans-54"/>
       <use x="63.623047" xlink:href="#DejaVuSans-48"/>
      </g>
     </g>
    </g>
    <g id="xtick_5">
     <g id="text_5">
      <!-- 80 -->
      <defs>
       <path d="M 31.78125 34.625 
Q 24.75 34.625 20.71875 30.859375 
Q 16.703125 27.09375 16.703125 20.515625 
Q 16.703125 13.921875 20.71875 10.15625 
Q 24.75 6.390625 31.78125 6.390625 
Q 38.8125 6.390625 42.859375 10.171875 
Q 46.921875 13.96875 46.921875 20.515625 
Q 46.921875 27.09375 42.890625 30.859375 
Q 38.875 34.625 31.78125 34.625 
z
M 21.921875 38.8125 
Q 15.578125 40.375 12.03125 44.71875 
Q 8.5 49.078125 8.5 55.328125 
Q 8.5 64.0625 14.71875 69.140625 
Q 20.953125 74.21875 31.78125 74.21875 
Q 42.671875 74.21875 48.875 69.140625 
Q 55.078125 64.0625 55.078125 55.328125 
Q 55.078125 49.078125 51.53125 44.71875 
Q 48 40.375 41.703125 38.8125 
Q 48.828125 37.15625 52.796875 32.3125 
Q 56.78125 27.484375 56.78125 20.515625 
Q 56.78125 9.90625 50.3125 4.234375 
Q 43.84375 -1.421875 31.78125 -1.421875 
Q 19.734375 -1.421875 13.25 4.234375 
Q 6.78125 9.90625 6.78125 20.515625 
Q 6.78125 27.484375 10.78125 32.3125 
Q 14.796875 37.15625 21.921875 38.8125 
z
M 18.3125 54.390625 
Q 18.3125 48.734375 21.84375 45.5625 
Q 25.390625 42.390625 31.78125 42.390625 
Q 38.140625 42.390625 41.71875 45.5625 
Q 45.3125 48.734375 45.3125 54.390625 
Q 45.3125 60.0625 41.71875 63.234375 
Q 38.140625 66.40625 31.78125 66.40625 
Q 25.390625 66.40625 21.84375 63.234375 
Q 18.3125 60.0625 18.3125 54.390625 
z
" id="DejaVuSans-56"/>
      </defs>
      <g transform="translate(795.790125 287.06881)scale(0.08 -0.08)">
       <use xlink:href="#DejaVuSans-56"/>
       <use x="63.623047" xlink:href="#DejaVuSans-48"/>
      </g>
     </g>
    </g>
    <g id="xtick_6">
     <g id="text_6">
      <!-- 100 -->
      <defs>
       <path d="M 12.40625 8.296875 
L 28.515625 8.296875 
L 28.515625 63.921875 
L 10.984375 60.40625 
L 10.984375 69.390625 
L 28.421875 72.90625 
L 38.28125 72.90625 
L 38.28125 8.296875 
L 54.390625 8.296875 
L 54.390625 0 
L 12.40625 0 
z
" id="DejaVuSans-49"/>
      </defs>
      <g transform="translate(977.588125 287.06881)scale(0.08 -0.08)">
       <use xlink:href="#DejaVuSans-49"/>
       <use x="63.623047" xlink:href="#DejaVuSans-48"/>
       <use x="127.246094" xlink:href="#DejaVuSans-48"/>
      </g>
     </g>
    </g>
    <g id="text_7">
     <!-- % GC -->
     <defs>
      <path d="M 72.703125 32.078125 
Q 68.453125 32.078125 66.03125 28.46875 
Q 63.625 24.859375 63.625 18.40625 
Q 63.625 12.0625 66.03125 8.421875 
Q 68.453125 4.78125 72.703125 4.78125 
Q 76.859375 4.78125 79.265625 8.421875 
Q 81.6875 12.0625 81.6875 18.40625 
Q 81.6875 24.8125 79.265625 28.4375 
Q 76.859375 32.078125 72.703125 32.078125 
z
M 72.703125 38.28125 
Q 80.421875 38.28125 84.953125 32.90625 
Q 89.5 27.546875 89.5 18.40625 
Q 89.5 9.28125 84.9375 3.921875 
Q 80.375 -1.421875 72.703125 -1.421875 
Q 64.890625 -1.421875 60.34375 3.921875 
Q 55.8125 9.28125 55.8125 18.40625 
Q 55.8125 27.59375 60.375 32.9375 
Q 64.9375 38.28125 72.703125 38.28125 
z
M 22.3125 68.015625 
Q 18.109375 68.015625 15.6875 64.375 
Q 13.28125 60.75 13.28125 54.390625 
Q 13.28125 47.953125 15.671875 44.328125 
Q 18.0625 40.71875 22.3125 40.71875 
Q 26.5625 40.71875 28.96875 44.328125 
Q 31.390625 47.953125 31.390625 54.390625 
Q 31.390625 60.6875 28.953125 64.34375 
Q 26.515625 68.015625 22.3125 68.015625 
z
M 66.40625 74.21875 
L 74.21875 74.21875 
L 28.609375 -1.421875 
L 20.796875 -1.421875 
z
M 22.3125 74.21875 
Q 30.03125 74.21875 34.609375 68.875 
Q 39.203125 63.53125 39.203125 54.390625 
Q 39.203125 45.171875 34.640625 39.84375 
Q 30.078125 34.515625 22.3125 34.515625 
Q 14.546875 34.515625 10.03125 39.859375 
Q 5.515625 45.21875 5.515625 54.390625 
Q 5.515625 63.484375 10.046875 68.84375 
Q 14.59375 74.21875 22.3125 74.21875 
z
" id="DejaVuSans-37"/>
      <path id="DejaVuSans-32"/>
      <path d="M 59.515625 10.40625 
L 59.515625 29.984375 
L 43.40625 29.984375 
L 43.40625 38.09375 
L 69.28125 38.09375 
L 69.28125 6.78125 
Q 63.578125 2.734375 56.6875 0.65625 
Q 49.8125 -1.421875 42 -1.421875 
Q 24.90625 -1.421875 15.25 8.5625 
Q 5.609375 18.5625 5.609375 36.375 
Q 5.609375 54.25 15.25 64.234375 
Q 24.90625 74.21875 42 74.21875 
Q 49.125 74.21875 55.546875 72.453125 
Q 61.96875 70.703125 67.390625 67.28125 
L 67.390625 56.78125 
Q 61.921875 61.421875 55.765625 63.765625 
Q 49.609375 66.109375 42.828125 66.109375 
Q 29.4375 66.109375 22.71875 58.640625 
Q 16.015625 51.171875 16.015625 36.375 
Q 16.015625 21.625 22.71875 14.15625 
Q 29.4375 6.6875 42.828125 6.6875 
Q 48.046875 6.6875 52.140625 7.59375 
Q 56.25 8.5 59.515625 10.40625 
z
" id="DejaVuSans-71"/>
      <path d="M 64.40625 67.28125 
L 64.40625 56.890625 
Q 59.421875 61.53125 53.78125 63.8125 
Q 48.140625 66.109375 41.796875 66.109375 
Q 29.296875 66.109375 22.65625 58.46875 
Q 16.015625 50.828125 16.015625 36.375 
Q 16.015625 21.96875 22.65625 14.328125 
Q 29.296875 6.6875 41.796875 6.6875 
Q 48.140625 6.6875 53.78125 8.984375 
Q 59.421875 11.28125 64.40625 15.921875 
L 64.40625 5.609375 
Q 59.234375 2.09375 53.4375 0.328125 
Q 47.65625 -1.421875 41.21875 -1.421875 
Q 24.65625 -1.421875 15.125 8.703125 
Q 5.609375 18.84375 5.609375 36.375 
Q 5.609375 53.953125 15.125 64.078125 
Q 24.65625 74.21875 41.21875 74.21875 
Q 47.75 74.21875 53.53125 72.484375 
Q 59.328125 70.75 64.40625 67.28125 
z
" id="DejaVuSans-67"/>
     </defs>
     <g transform="translate(510.660156 300.330997)scale(0.1 -0.1)">
      <use xlink:href="#DejaVuSans-37"/>
      <use x="95.019531" xlink:href="#DejaVuSans-32"/>
      <use x="126.806641" xlink:href="#DejaVuSans-71"/>
      <use x="204.296875" xlink:href="#DejaVuSans-67"/>
     </g>
    </g>
   </g>
   <g id="matplotlib.axis_2">
    <g id="ytick_1">
     <g id="line2d_1">
      <path clip-path="url(#p720a592491)" d="M 63.508125 273.99006 
L 985.223125 273.99006 
" style="fill:none;stroke:#dedede;stroke-linecap:square;"/>
     </g>
     <g id="text_8">
      <!-- 0 -->
      <g transform="translate(51.418125 277.029435)scale(0.08 -0.08)">
       <use xlink:href="#DejaVuSans-48"/>
      </g>
     </g>
    </g>
    <g id="ytick_2">
     <g id="line2d_2">
      <path clip-path="url(#p720a592491)" d="M 63.508125 230.769327 
L 985.223125 230.769327 
" style="fill:none;stroke:#dedede;stroke-linecap:square;"/>
     </g>
     <g id="text_9">
      <!-- 500000 -->
      <defs>
       <path d="M 10.796875 72.90625 
L 49.515625 72.90625 
L 49.515625 64.59375 
L 19.828125 64.59375 
L 19.828125 46.734375 
Q 21.96875 47.46875 24.109375 47.828125 
Q 26.265625 48.1875 28.421875 48.1875 
Q 40.625 48.1875 47.75 41.5 
Q 54.890625 34.8125 54.890625 23.390625 
Q 54.890625 11.625 47.5625 5.09375 
Q 40.234375 -1.421875 26.90625 -1.421875 
Q 22.3125 -1.421875 17.546875 -0.640625 
Q 12.796875 0.140625 7.71875 1.703125 
L 7.71875 11.625 
Q 12.109375 9.234375 16.796875 8.0625 
Q 21.484375 6.890625 26.703125 6.890625 
Q 35.15625 6.890625 40.078125 11.328125 
Q 45.015625 15.765625 45.015625 23.390625 
Q 45.015625 31 40.078125 35.4375 
Q 35.15625 39.890625 26.703125 39.890625 
Q 22.75 39.890625 18.8125 39.015625 
Q 14.890625 38.140625 10.796875 36.28125 
z
" id="DejaVuSans-53"/>
      </defs>
      <g transform="translate(25.968125 233.808702)scale(0.08 -0.08)">
       <use xlink:href="#DejaVuSans-53"/>
       <use x="63.623047" xlink:href="#DejaVuSans-48"/>
       <use x="127.246094" xlink:href="#DejaVuSans-48"/>
       <use x="190.869141" xlink:href="#DejaVuSans-48"/>
       <use x="254.492188" xlink:href="#DejaVuSans-48"/>
       <use x="318.115234" xlink:href="#DejaVuSans-48"/>
      </g>
     </g>
    </g>
    <g id="ytick_3">
     <g id="line2d_3">
      <path clip-path="url(#p720a592491)" d="M 63.508125 187.548593 
L 985.223125 187.548593 
" style="fill:none;stroke:#dedede;stroke-linecap:square;"/>
     </g>
     <g id="text_10">
      <!-- 1000000 -->
      <g transform="translate(20.878125 190.587968)scale(0.08 -0.08)">
       <use xlink:href="#DejaVuSans-49"/>
       <use x="63.623047" xlink:href="#DejaVuSans-48"/>
       <use x="127.246094" xlink:href="#DejaVuSans-48"/>
       <use x="190.869141" xlink:href="#DejaVuSans-48"/>
       <use x="254.492188" xlink:href="#DejaVuSans-48"/>
       <use x="318.115234" xlink:href="#DejaVuSans-48"/>
       <use x="381.738281" xlink:href="#DejaVuSans-48"/>
      </g>
     </g>
    </g>
    <g id="ytick_4">
     <g id="line2d_4">
      <path clip-path="url(#p720a592491)" d="M 63.508125 144.32786 
L 985.223125 144.32786 
" style="fill:none;stroke:#dedede;stroke-linecap:square;"/>
     </g>
     <g id="text_11">
      <!-- 1500000 -->
      <g transform="translate(20.878125 147.367235)scale(0.08 -0.08)">
       <use xlink:href="#DejaVuSans-49"/>
       <use x="63.623047" xlink:href="#DejaVuSans-53"/>
       <use x="127.246094" xlink:href="#DejaVuSans-48"/>
       <use x="190.869141" xlink:href="#DejaVuSans-48"/>
       <use x="254.492188" xlink:href="#DejaVuSans-48"/>
       <use x="318.115234" xlink:href="#DejaVuSans-48"/>
       <use x="381.738281" xlink:href="#DejaVuSans-48"/>
      </g>
     </g>
    </g>
    <g id="ytick_5">
     <g id="line2d_5">
      <path clip-path="url(#p720a592491)" d="M 63.508125 101.107126 
L 985.223125 101.107126 
" style="fill:none;stroke:#dedede;stroke-linecap:square;"/>
     </g>
     <g id="text_12">
      <!-- 2000000 -->
      <g transform="translate(20.878125 104.146501)scale(0.08 -0.08)">
       <use xlink:href="#DejaVuSans-50"/>
       <use x="63.623047" xlink:href="#DejaVuSans-48"/>
       <use x="127.246094" xlink:href="#DejaVuSans-48"/>
       <use x="190.869141" xlink:href="#DejaVuSans-48"/>
       <use x="254.492188" xlink:href="#DejaVuSans-48"/>
       <use x="318.115234" xlink:href="#DejaVuSans-48"/>
       <use x="381.738281" xlink:href="#DejaVuSans-48"/>
      </g>
     </g>
    </g>
    <g id="ytick_6">
     <g id="line2d_6">
      <path clip-path="url(#p720a592491)" d="M 63.508125 57.886393 
L 985.223125 57.886393 
" style="fill:none;stroke:#dedede;stroke-linecap:square;"/>
     </g>
     <g id="text_13">
      <!-- 2500000 -->
      <g transform="translate(20.878125 60.925768)scale(0.08 -0.08)">
       <use xlink:href="#DejaVuSans-50"/>
       <use x="63.623047" xlink:href="#DejaVuSans-53"/>
       <use x="127.246094" xlink:href="#DejaVuSans-48"/>
       <use x="190.869141" xlink:href="#DejaVuSans-48"/>
       <use x="254.492188" xlink:href="#DejaVuSans-48"/>
       <use x="318.115234" xlink:href="#DejaVuSans-48"/>
       <use x="381.738281" xlink:href="#DejaVuSans-48"/>
      </g>
     </g>
    </g>
    <g id="text_14">
     <!-- Count -->
     <defs>
      <path d="M 30.609375 48.390625 
Q 23.390625 48.390625 19.1875 42.75 
Q 14.984375 37.109375 14.984375 27.296875 
Q 14.984375 17.484375 19.15625 11.84375 
Q 23.34375 6.203125 30.609375 6.203125 
Q 37.796875 6.203125 41.984375 11.859375 
Q 46.1875 17.53125 46.1875 27.296875 
Q 46.1875 37.015625 41.984375 42.703125 
Q 37.796875 48.390625 30.609375 48.390625 
z
M 30.609375 56 
Q 42.328125 56 49.015625 48.375 
Q 55.71875 40.765625 55.71875 27.296875 
Q 55.71875 13.875 49.015625 6.21875 
Q 42.328125 -1.421875 30.609375 -1.421875 
Q 18.84375 -1.421875 12.171875 6.21875 
Q 5.515625 13.875 5.515625 27.296875 
Q 5.515625 40.765625 12.171875 48.375 
Q 18.84375 56 30.609375 56 
z
" id="DejaVuSans-111"/>
      <path d="M 8.5 21.578125 
L 8.5 54.6875 
L 17.484375 54.6875 
L 17.484375 21.921875 
Q 17.484375 14.15625 20.5 10.265625 
Q 23.53125 6.390625 29.59375 6.390625 
Q 36.859375 6.390625 41.078125 11.03125 
Q 45.3125 15.671875 45.3125 23.6875 
L 45.3125 54.6875 
L 54.296875 54.6875 
L 54.296875 0 
L 45.3125 0 
L 45.3125 8.40625 
Q 42.046875 3.421875 37.71875 1 
Q 33.40625 -1.421875 27.6875 -1.421875 
Q 18.265625 -1.421875 13.375 4.4375 
Q 8.5 10.296875 8.5 21.578125 
z
M 31.109375 56 
z
" id="DejaVuSans-117"/>
      <path d="M 54.890625 33.015625 
L 54.890625 0 
L 45.90625 0 
L 45.90625 32.71875 
Q 45.90625 40.484375 42.875 44.328125 
Q 39.84375 48.1875 33.796875 48.1875 
Q 26.515625 48.1875 22.3125 43.546875 
Q 18.109375 38.921875 18.109375 30.90625 
L 18.109375 0 
L 9.078125 0 
L 9.078125 54.6875 
L 18.109375 54.6875 
L 18.109375 46.1875 
Q 21.34375 51.125 25.703125 53.5625 
Q 30.078125 56 35.796875 56 
Q 45.21875 56 50.046875 50.171875 
Q 54.890625 44.34375 54.890625 33.015625 
z
" id="DejaVuSans-110"/>
      <path d="M 18.3125 70.21875 
L 18.3125 54.6875 
L 36.8125 54.6875 
L 36.8125 47.703125 
L 18.3125 47.703125 
L 18.3125 18.015625 
Q 18.3125 11.328125 20.140625 9.421875 
Q 21.96875 7.515625 27.59375 7.515625 
L 36.8125 7.515625 
L 36.8125 0 
L 27.59375 0 
Q 17.1875 0 13.234375 3.875 
Q 9.28125 7.765625 9.28125 18.015625 
L 9.28125 47.703125 
L 2.6875 47.703125 
L 2.6875 54.6875 
L 9.28125 54.6875 
L 9.28125 70.21875 
z
" id="DejaVuSans-116"/>
     </defs>
     <g transform="translate(14.798438 167.584897)rotate(-90)scale(0.1 -0.1)">
      <use xlink:href="#DejaVuSans-67"/>
      <use x="69.824219" xlink:href="#DejaVuSans-111"/>
      <use x="131.005859" xlink:href="#DejaVuSans-117"/>
      <use x="194.384766" xlink:href="#DejaVuSans-110"/>
      <use x="257.763672" xlink:href="#DejaVuSans-116"/>
     </g>
    </g>
   </g>
   <g id="line2d_7">
    <path clip-path="url(#p720a592491)" d="M 63.508125 273.987813 
L 72.725275 273.987078 
L 81.942425 273.985046 
L 91.159575 273.982885 
L 100.376725 273.979687 
L 109.593875 273.975192 
L 118.811025 273.967499 
L 128.028175 273.953711 
L 137.245325 273.935904 
L 146.462475 273.909497 
L 155.679625 273.876044 
L 164.896775 273.827464 
L 174.113925 273.753902 
L 183.331075 273.64343 
L 192.548225 273.472621 
L 201.765375 273.232271 
L 210.982525 272.888752 
L 220.199675 272.360422 
L 229.416825 271.547829 
L 238.633975 270.360729 
L 247.851125 268.666217 
L 257.068275 266.333118 
L 266.285425 263.091131 
L 275.502575 258.719267 
L 284.719725 253.075288 
L 293.936875 245.821941 
L 303.154025 236.894439 
L 312.371175 226.282409 
L 321.588325 213.665543 
L 330.805475 199.171729 
L 340.022625 183.114189 
L 349.239775 165.549499 
L 358.456925 146.832545 
L 367.674075 128.049851 
L 376.891225 109.513602 
L 386.108375 92.02416 
L 395.325525 76.76992 
L 404.542675 63.972477 
L 413.759825 53.900707 
L 422.976975 46.638802 
L 432.194125 43.030822 
L 441.411275 43.21585 
L 450.628425 46.762543 
L 459.845575 53.098616 
L 469.062725 61.311896 
L 478.279875 71.435142 
L 487.497025 84.05819 
L 496.714175 98.829351 
L 505.931325 114.751826 
L 515.148475 130.826697 
L 524.365625 145.768493 
L 533.582775 160.547391 
L 542.799925 175.450721 
L 552.017075 189.193099 
L 561.234225 201.532273 
L 570.451375 212.163406 
L 579.668525 221.364754 
L 588.885675 229.446297 
L 598.102825 236.670469 
L 607.319975 243.10474 
L 616.537125 248.490346 
L 625.754275 253.020311 
L 634.971425 256.798668 
L 644.188575 259.950151 
L 653.405725 262.59245 
L 662.622875 264.827567 
L 671.840025 266.687398 
L 681.057175 268.120209 
L 690.274325 269.268714 
L 699.491475 270.242477 
L 708.708625 271.015479 
L 717.925775 271.534344 
L 727.142925 271.955358 
L 736.360075 272.333064 
L 745.577225 272.651427 
L 754.794375 272.929207 
L 764.011525 273.168347 
L 773.228675 273.337816 
L 782.445825 273.434717 
L 791.662975 273.51286 
L 800.880125 273.595368 
L 810.097275 273.678525 
L 819.314425 273.738083 
L 828.531575 273.787095 
L 837.748725 273.838528 
L 846.965875 273.8878 
L 856.183025 273.934305 
L 865.400175 273.959978 
L 874.617325 273.972599 
L 883.834475 273.98241 
L 893.051625 273.984268 
L 902.268775 273.986429 
L 911.485925 273.988374 
L 920.703075 273.989023 
L 929.920225 273.989455 
L 939.137375 273.989714 
L 948.354525 273.989844 
L 957.571675 273.990017 
L 966.788825 273.990017 
L 976.005975 273.990017 
L 985.223125 273.99006 
" style="fill:none;stroke:#5cb85c;stroke-linecap:square;"/>
   </g>
   <g id="line2d_8">
    <path clip-path="url(#p720a592491)" d="M 63.508125 273.98764 
L 72.725275 273.987164 
L 81.942425 273.985262 
L 91.159575 273.983231 
L 100.376725 273.980422 
L 109.593875 273.974112 
L 118.811025 273.964171 
L 128.028175 273.951291 
L 137.245325 273.935256 
L 146.462475 273.912608 
L 155.679625 273.876519 
L 164.896775 273.823228 
L 174.113925 273.752173 
L 183.331075 273.64317 
L 192.548225 273.472881 
L 201.765375 273.240612 
L 210.982525 272.882702 
L 220.199675 272.337602 
L 229.416825 271.546749 
L 238.633975 270.373133 
L 247.851125 268.692365 
L 257.068275 266.335279 
L 266.285425 263.088105 
L 275.502575 258.770181 
L 284.719725 253.1549 
L 293.936875 245.904622 
L 303.154025 236.968649 
L 312.371175 226.418728 
L 321.588325 213.826237 
L 330.805475 199.43369 
L 340.022625 183.453861 
L 349.239775 165.869895 
L 358.456925 147.289474 
L 367.674075 128.49442 
L 376.891225 109.904275 
L 386.108375 92.388943 
L 395.325525 77.125714 
L 404.542675 64.345818 
L 413.759825 54.088847 
L 422.976975 46.803646 
L 432.194125 43.236553 
L 441.411275 43.29624 
L 450.628425 46.735055 
L 459.845575 52.941552 
L 469.062725 61.18085 
L 478.279875 71.451134 
L 487.497025 84.087752 
L 496.714175 98.749392 
L 505.931325 114.462117 
L 515.148475 130.527523 
L 524.365625 145.664547 
L 533.582775 160.365561 
L 542.799925 174.977843 
L 552.017075 188.684175 
L 561.234225 201.080357 
L 570.451375 211.770962 
L 579.668525 220.984542 
L 588.885675 229.150278 
L 598.102825 236.506793 
L 607.319975 242.880424 
L 616.537125 248.247489 
L 625.754275 252.810604 
L 634.971425 256.664251 
L 644.188575 259.85835 
L 653.405725 262.509337 
L 662.622875 264.752104 
L 671.840025 266.626328 
L 681.057175 268.055075 
L 690.274325 269.23552 
L 699.491475 270.246885 
L 708.708625 271.002773 
L 717.925775 271.525398 
L 727.142925 271.933445 
L 736.360075 272.299006 
L 745.577225 272.622945 
L 754.794375 272.902237 
L 764.011525 273.140297 
L 773.228675 273.315298 
L 782.445825 273.425986 
L 791.662975 273.500196 
L 800.880125 273.584995 
L 810.097275 273.67671 
L 819.314425 273.735706 
L 828.531575 273.784286 
L 837.748725 273.836237 
L 846.965875 273.887151 
L 856.183025 273.933398 
L 865.400175 273.957039 
L 874.617325 273.970697 
L 883.834475 273.980897 
L 893.051625 273.983966 
L 902.268775 273.985651 
L 911.485925 273.987337 
L 920.703075 273.988374 
L 929.920225 273.989152 
L 939.137375 273.989628 
L 948.354525 273.989844 
L 957.571675 273.990017 
L 966.788825 273.99006 
L 976.005975 273.99006 
L 985.223125 273.99006 
" style="fill:none;stroke:#5cb85c;stroke-linecap:square;"/>
   </g>
   <g id="line2d_9">
    <path clip-path="url(#p720a592491)" d="M 63.508125 273.987899 
L 72.725275 273.987467 
L 81.942425 273.986127 
L 91.159575 273.984096 
L 100.376725 273.9812 
L 109.593875 273.976921 
L 118.811025 273.968623 
L 128.028175 273.956089 
L 137.245325 273.941004 
L 146.462475 273.917795 
L 155.679625 273.882224 
L 164.896775 273.837059 
L 174.113925 273.771493 
L 183.331075 273.668671 
L 192.548225 273.508884 
L 201.765375 273.272509 
L 210.982525 272.934177 
L 220.199675 272.42776 
L 229.416825 271.679869 
L 238.633975 270.530629 
L 247.851125 268.865118 
L 257.068275 266.567288 
L 266.285425 263.431364 
L 275.502575 259.177839 
L 284.719725 253.567658 
L 293.936875 246.428847 
L 303.154025 237.822907 
L 312.371175 227.473054 
L 321.588325 215.033176 
L 330.805475 200.893557 
L 340.022625 185.23918 
L 349.239775 168.119274 
L 358.456925 149.839022 
L 367.674075 131.425995 
L 376.891225 113.227171 
L 386.108375 96.218473 
L 395.325525 81.372972 
L 404.542675 68.754074 
L 413.759825 58.875111 
L 422.976975 51.845907 
L 432.194125 48.34507 
L 441.411275 48.408389 
L 450.628425 51.662867 
L 459.845575 57.639127 
L 469.062725 65.57843 
L 478.279875 75.399261 
L 487.497025 87.654284 
L 496.714175 101.942324 
L 505.931325 117.315723 
L 515.148475 132.960115 
L 524.365625 147.671978 
L 533.582775 162.251325 
L 542.799925 176.870047 
L 552.017075 190.256243 
L 561.234225 202.286993 
L 570.451375 212.824424 
L 579.668525 221.848394 
L 588.885675 229.769199 
L 598.102825 236.906757 
L 607.319975 243.212835 
L 616.537125 248.569742 
L 625.754275 253.126764 
L 634.971425 256.923446 
L 644.188575 260.048823 
L 653.405725 262.654299 
L 662.622875 264.835563 
L 671.840025 266.704989 
L 681.057175 268.178082 
L 690.274325 269.307958 
L 699.491475 270.290927 
L 708.708625 271.079144 
L 717.925775 271.603411 
L 727.142925 272.019108 
L 736.360075 272.386268 
L 745.577225 272.70299 
L 754.794375 272.97433 
L 764.011525 273.205258 
L 773.228675 273.36954 
L 782.445825 273.465187 
L 791.662975 273.542034 
L 800.880125 273.623073 
L 810.097275 273.695424 
L 819.314425 273.747592 
L 828.531575 273.792109 
L 837.748725 273.837707 
L 846.965875 273.892943 
L 856.183025 273.936466 
L 865.400175 273.958898 
L 874.617325 273.971821 
L 883.834475 273.980638 
L 893.051625 273.984139 
L 902.268775 273.98617 
L 911.485925 273.987985 
L 920.703075 273.988893 
L 929.920225 273.989412 
L 939.137375 273.989628 
L 948.354525 273.989887 
L 957.571675 273.990017 
L 966.788825 273.990017 
L 976.005975 273.990017 
L 985.223125 273.99006 
" style="fill:none;stroke:#5cb85c;stroke-linecap:square;"/>
   </g>
   <g id="line2d_10">
    <path clip-path="url(#p720a592491)" d="M 63.508125 273.987294 
L 72.725275 273.987294 
L 81.942425 273.986257 
L 91.159575 273.984614 
L 100.376725 273.982453 
L 109.593875 273.977569 
L 118.811025 273.968234 
L 128.028175 273.956953 
L 137.245325 273.939967 
L 146.462475 273.914035 
L 155.679625 273.883867 
L 164.896775 273.839393 
L 174.113925 273.774734 
L 183.331075 273.671005 
L 192.548225 273.507371 
L 201.765375 273.285519 
L 210.982525 272.943989 
L 220.199675 272.420024 
L 229.416825 271.646286 
L 238.633975 270.499726 
L 247.851125 268.879813 
L 257.068275 266.624599 
L 266.285425 263.479512 
L 275.502575 259.238132 
L 284.719725 253.723123 
L 293.936875 246.643049 
L 303.154025 238.012171 
L 312.371175 227.691146 
L 321.588325 215.35422 
L 330.805475 201.266724 
L 340.022625 185.652111 
L 349.239775 168.611731 
L 358.456925 150.325515 
L 367.674075 131.840439 
L 376.891225 113.807236 
L 386.108375 96.777965 
L 395.325525 81.735594 
L 404.542675 69.233478 
L 413.759825 59.208904 
L 422.976975 51.955817 
L 432.194125 48.361537 
L 441.411275 48.189822 
L 450.628425 51.481858 
L 459.845575 57.533193 
L 469.062725 65.326972 
L 478.279875 75.265925 
L 487.497025 87.459704 
L 496.714175 101.625991 
L 505.931325 117.104546 
L 515.148475 132.665047 
L 524.365625 147.288091 
L 533.582775 161.823786 
L 542.799925 176.350274 
L 552.017075 189.707685 
L 561.234225 201.842381 
L 570.451375 212.43682 
L 579.668525 221.475788 
L 588.885675 229.508448 
L 598.102825 236.741049 
L 607.319975 243.052745 
L 616.537125 248.425342 
L 625.754275 253.018323 
L 634.971425 256.815913 
L 644.188575 259.940253 
L 653.405725 262.577798 
L 662.622875 264.795584 
L 671.840025 266.679878 
L 681.057175 268.13888 
L 690.274325 269.278092 
L 699.491475 270.254924 
L 708.708625 271.044308 
L 717.925775 271.588975 
L 727.142925 272.002252 
L 736.360075 272.360336 
L 745.577225 272.682762 
L 754.794375 272.958597 
L 764.011525 273.182092 
L 773.228675 273.349615 
L 782.445825 273.452005 
L 791.662975 273.531358 
L 800.880125 273.61499 
L 810.097275 273.679649 
L 819.314425 273.734625 
L 828.531575 273.789559 
L 837.748725 273.839825 
L 846.965875 273.889701 
L 856.183025 273.93236 
L 865.400175 273.954489 
L 874.617325 273.96819 
L 883.834475 273.979168 
L 893.051625 273.982496 
L 902.268775 273.985306 
L 911.485925 273.987121 
L 920.703075 273.988202 
L 929.920225 273.989152 
L 939.137375 273.989714 
L 948.354525 273.989844 
L 957.571675 273.98993 
L 966.788825 273.989974 
L 976.005975 273.990017 
L 985.223125 273.99006 
" style="fill:none;stroke:#5cb85c;stroke-linecap:square;"/>
   </g>
   <g id="line2d_11">
    <path clip-path="url(#p720a592491)" d="M 63.508125 273.987899 
L 72.725275 273.986732 
L 81.942425 273.983534 
L 91.159575 273.979514 
L 100.376725 273.975538 
L 109.593875 273.967974 
L 118.811025 273.956564 
L 128.028175 273.939492 
L 137.245325 273.916023 
L 146.462475 273.885466 
L 155.679625 273.841251 
L 164.896775 273.783724 
L 174.113925 273.706964 
L 183.331075 273.576783 
L 192.548225 273.371312 
L 201.765375 273.100275 
L 210.982525 272.71587 
L 220.199675 272.151969 
L 229.416825 271.311369 
L 238.633975 270.103133 
L 247.851125 268.424353 
L 257.068275 266.138409 
L 266.285425 263.068137 
L 275.502575 258.985593 
L 284.719725 253.633916 
L 293.936875 246.905398 
L 303.154025 238.813613 
L 312.371175 229.329341 
L 321.588325 218.161536 
L 330.805475 205.363574 
L 340.022625 191.222831 
L 349.239775 176.019246 
L 358.456925 160.102044 
L 367.674075 144.069011 
L 376.891225 128.380447 
L 386.108375 113.929681 
L 395.325525 101.515303 
L 404.542675 91.221291 
L 413.759825 83.21102 
L 422.976975 77.715158 
L 432.194125 75.564624 
L 441.411275 76.51803 
L 450.628425 80.330012 
L 459.845575 86.418431 
L 469.062725 93.857497 
L 478.279875 103.190106 
L 487.497025 114.495008 
L 496.714175 127.190191 
L 505.931325 140.935075 
L 515.148475 154.531886 
L 524.365625 167.263936 
L 533.582775 179.886983 
L 542.799925 192.358283 
L 552.017075 203.946756 
L 561.234225 214.235927 
L 570.451375 223.144282 
L 579.668525 230.754804 
L 588.885675 237.387804 
L 598.102825 243.393152 
L 607.319975 248.658691 
L 616.537125 253.114316 
L 625.754275 256.843574 
L 634.971425 259.933251 
L 644.188575 262.511109 
L 653.405725 264.671454 
L 662.622875 266.520566 
L 671.840025 268.039257 
L 681.057175 269.208507 
L 690.274325 270.133777 
L 699.491475 270.945937 
L 708.708625 271.587463 
L 717.925775 271.990799 
L 727.142925 272.31249 
L 736.360075 272.629169 
L 745.577225 272.888407 
L 754.794375 273.116094 
L 764.011525 273.322775 
L 773.228675 273.459007 
L 782.445825 273.540564 
L 791.662975 273.603278 
L 800.880125 273.662706 
L 810.097275 273.72274 
L 819.314425 273.776506 
L 828.531575 273.817652 
L 837.748725 273.857199 
L 846.965875 273.906169 
L 856.183025 273.945024 
L 865.400175 273.964041 
L 874.617325 273.975495 
L 883.834475 273.983577 
L 893.051625 273.986127 
L 902.268775 273.987337 
L 911.485925 273.988029 
L 920.703075 273.98885 
L 929.920225 273.989498 
L 939.137375 273.989887 
L 948.354525 273.989974 
L 957.571675 273.989974 
L 966.788825 273.990017 
L 976.005975 273.99006 
L 985.223125 273.99006 
" style="fill:none;stroke:#5cb85c;stroke-linecap:square;"/>
   </g>
   <g id="line2d_12">
    <path clip-path="url(#p720a592491)" d="M 63.508125 273.986948 
L 72.725275 273.985695 
L 81.942425 273.983015 
L 91.159575 273.979817 
L 100.376725 273.975538 
L 109.593875 273.96953 
L 118.811025 273.957169 
L 128.028175 273.93893 
L 137.245325 273.917406 
L 146.462475 273.885163 
L 155.679625 273.840732 
L 164.896775 273.779964 
L 174.113925 273.698277 
L 183.331075 273.562693 
L 192.548225 273.357179 
L 201.765375 273.074818 
L 210.982525 272.682719 
L 220.199675 272.11039 
L 229.416825 271.266981 
L 238.633975 270.059091 
L 247.851125 268.380052 
L 257.068275 266.059142 
L 266.285425 262.981566 
L 275.502575 258.925041 
L 284.719725 253.672642 
L 293.936875 247.025984 
L 303.154025 238.94012 
L 312.371175 229.398192 
L 321.588325 218.25874 
L 330.805475 205.558241 
L 340.022625 191.468109 
L 349.239775 176.173674 
L 358.456925 160.226779 
L 367.674075 144.220629 
L 376.891225 128.631516 
L 386.108375 114.265852 
L 395.325525 101.690131 
L 404.542675 91.405282 
L 413.759825 83.227314 
L 422.976975 77.757644 
L 432.194125 75.623231 
L 441.411275 76.566653 
L 450.628425 80.44217 
L 459.845575 86.488275 
L 469.062725 93.948563 
L 478.279875 103.260513 
L 487.497025 114.498682 
L 496.714175 127.011516 
L 505.931325 140.551189 
L 515.148475 154.254106 
L 524.365625 167.161157 
L 533.582775 179.705629 
L 542.799925 192.080157 
L 552.017075 203.534041 
L 561.234225 213.849749 
L 570.451375 222.911538 
L 579.668525 230.676099 
L 588.885675 237.411921 
L 598.102825 243.406118 
L 607.319975 248.624373 
L 616.537125 253.057567 
L 625.754275 256.8042 
L 634.971425 259.918945 
L 644.188575 262.481719 
L 653.405725 264.656716 
L 662.622875 266.496017 
L 671.840025 268.016566 
L 681.057175 269.184476 
L 690.274325 270.10283 
L 699.491475 270.913262 
L 708.708625 271.565507 
L 717.925775 272.002338 
L 727.142925 272.32805 
L 736.360075 272.637078 
L 745.577225 272.894501 
L 754.794375 273.111296 
L 764.011525 273.302677 
L 773.228675 273.448936 
L 782.445825 273.527425 
L 791.662975 273.585816 
L 800.880125 273.659119 
L 810.097275 273.721011 
L 819.314425 273.769332 
L 828.531575 273.815967 
L 837.748725 273.859188 
L 846.965875 273.899469 
L 856.183025 273.939751 
L 865.400175 273.964041 
L 874.617325 273.975019 
L 883.834475 273.981243 
L 893.051625 273.985176 
L 902.268775 273.987294 
L 911.485925 273.987337 
L 920.703075 273.988374 
L 929.920225 273.989455 
L 939.137375 273.989844 
L 948.354525 273.98993 
L 957.571675 273.989974 
L 966.788825 273.99006 
L 976.005975 273.99006 
L 985.223125 273.99006 
" style="fill:none;stroke:#5cb85c;stroke-linecap:square;"/>
   </g>
   <g id="line2d_13">
    <path clip-path="url(#p720a592491)" d="M 63.508125 273.99006 
L 985.223125 273.99006 
" style="fill:none;stroke:#dedede;stroke-linecap:square;stroke-width:2;"/>
   </g>
   <g id="text_15">
    <!-- FastQC: Per Sequence GC Content -->
    <defs>
     <path d="M 9.8125 72.90625 
L 51.703125 72.90625 
L 51.703125 64.59375 
L 19.671875 64.59375 
L 19.671875 43.109375 
L 48.578125 43.109375 
L 48.578125 34.8125 
L 19.671875 34.8125 
L 19.671875 0 
L 9.8125 0 
z
" id="DejaVuSans-70"/>
     <path d="M 34.28125 27.484375 
Q 23.390625 27.484375 19.1875 25 
Q 14.984375 22.515625 14.984375 16.5 
Q 14.984375 11.71875 18.140625 8.90625 
Q 21.296875 6.109375 26.703125 6.109375 
Q 34.1875 6.109375 38.703125 11.40625 
Q 43.21875 16.703125 43.21875 25.484375 
L 43.21875 27.484375 
z
M 52.203125 31.203125 
L 52.203125 0 
L 43.21875 0 
L 43.21875 8.296875 
Q 40.140625 3.328125 35.546875 0.953125 
Q 30.953125 -1.421875 24.3125 -1.421875 
Q 15.921875 -1.421875 10.953125 3.296875 
Q 6 8.015625 6 15.921875 
Q 6 25.140625 12.171875 29.828125 
Q 18.359375 34.515625 30.609375 34.515625 
L 43.21875 34.515625 
L 43.21875 35.40625 
Q 43.21875 41.609375 39.140625 45 
Q 35.0625 48.390625 27.6875 48.390625 
Q 23 48.390625 18.546875 47.265625 
Q 14.109375 46.140625 10.015625 43.890625 
L 10.015625 52.203125 
Q 14.9375 54.109375 19.578125 55.046875 
Q 24.21875 56 28.609375 56 
Q 40.484375 56 46.34375 49.84375 
Q 52.203125 43.703125 52.203125 31.203125 
z
" id="DejaVuSans-97"/>
     <path d="M 44.28125 53.078125 
L 44.28125 44.578125 
Q 40.484375 46.53125 36.375 47.5 
Q 32.28125 48.484375 27.875 48.484375 
Q 21.1875 48.484375 17.84375 46.4375 
Q 14.5 44.390625 14.5 40.28125 
Q 14.5 37.15625 16.890625 35.375 
Q 19.28125 33.59375 26.515625 31.984375 
L 29.59375 31.296875 
Q 39.15625 29.25 43.1875 25.515625 
Q 47.21875 21.78125 47.21875 15.09375 
Q 47.21875 7.46875 41.1875 3.015625 
Q 35.15625 -1.421875 24.609375 -1.421875 
Q 20.21875 -1.421875 15.453125 -0.5625 
Q 10.6875 0.296875 5.421875 2 
L 5.421875 11.28125 
Q 10.40625 8.6875 15.234375 7.390625 
Q 20.0625 6.109375 24.8125 6.109375 
Q 31.15625 6.109375 34.5625 8.28125 
Q 37.984375 10.453125 37.984375 14.40625 
Q 37.984375 18.0625 35.515625 20.015625 
Q 33.0625 21.96875 24.703125 23.78125 
L 21.578125 24.515625 
Q 13.234375 26.265625 9.515625 29.90625 
Q 5.8125 33.546875 5.8125 39.890625 
Q 5.8125 47.609375 11.28125 51.796875 
Q 16.75 56 26.8125 56 
Q 31.78125 56 36.171875 55.265625 
Q 40.578125 54.546875 44.28125 53.078125 
z
" id="DejaVuSans-115"/>
     <path d="M 39.40625 66.21875 
Q 28.65625 66.21875 22.328125 58.203125 
Q 16.015625 50.203125 16.015625 36.375 
Q 16.015625 22.609375 22.328125 14.59375 
Q 28.65625 6.59375 39.40625 6.59375 
Q 50.140625 6.59375 56.421875 14.59375 
Q 62.703125 22.609375 62.703125 36.375 
Q 62.703125 50.203125 56.421875 58.203125 
Q 50.140625 66.21875 39.40625 66.21875 
z
M 53.21875 1.3125 
L 66.21875 -12.890625 
L 54.296875 -12.890625 
L 43.5 -1.21875 
Q 41.890625 -1.3125 41.03125 -1.359375 
Q 40.1875 -1.421875 39.40625 -1.421875 
Q 24.03125 -1.421875 14.8125 8.859375 
Q 5.609375 19.140625 5.609375 36.375 
Q 5.609375 53.65625 14.8125 63.9375 
Q 24.03125 74.21875 39.40625 74.21875 
Q 54.734375 74.21875 63.90625 63.9375 
Q 73.09375 53.65625 73.09375 36.375 
Q 73.09375 23.6875 67.984375 14.640625 
Q 62.890625 5.609375 53.21875 1.3125 
z
" id="DejaVuSans-81"/>
     <path d="M 11.71875 12.40625 
L 22.015625 12.40625 
L 22.015625 0 
L 11.71875 0 
z
M 11.71875 51.703125 
L 22.015625 51.703125 
L 22.015625 39.3125 
L 11.71875 39.3125 
z
" id="DejaVuSans-58"/>
     <path d="M 19.671875 64.796875 
L 19.671875 37.40625 
L 32.078125 37.40625 
Q 38.96875 37.40625 42.71875 40.96875 
Q 46.484375 44.53125 46.484375 51.125 
Q 46.484375 57.671875 42.71875 61.234375 
Q 38.96875 64.796875 32.078125 64.796875 
z
M 9.8125 72.90625 
L 32.078125 72.90625 
Q 44.34375 72.90625 50.609375 67.359375 
Q 56.890625 61.8125 56.890625 51.125 
Q 56.890625 40.328125 50.609375 34.8125 
Q 44.34375 29.296875 32.078125 29.296875 
L 19.671875 29.296875 
L 19.671875 0 
L 9.8125 0 
z
" id="DejaVuSans-80"/>
     <path d="M 56.203125 29.59375 
L 56.203125 25.203125 
L 14.890625 25.203125 
Q 15.484375 15.921875 20.484375 11.0625 
Q 25.484375 6.203125 34.421875 6.203125 
Q 39.59375 6.203125 44.453125 7.46875 
Q 49.3125 8.734375 54.109375 11.28125 
L 54.109375 2.78125 
Q 49.265625 0.734375 44.1875 -0.34375 
Q 39.109375 -1.421875 33.890625 -1.421875 
Q 20.796875 -1.421875 13.15625 6.1875 
Q 5.515625 13.8125 5.515625 26.8125 
Q 5.515625 40.234375 12.765625 48.109375 
Q 20.015625 56 32.328125 56 
Q 43.359375 56 49.78125 48.890625 
Q 56.203125 41.796875 56.203125 29.59375 
z
M 47.21875 32.234375 
Q 47.125 39.59375 43.09375 43.984375 
Q 39.0625 48.390625 32.421875 48.390625 
Q 24.90625 48.390625 20.390625 44.140625 
Q 15.875 39.890625 15.1875 32.171875 
z
" id="DejaVuSans-101"/>
     <path d="M 41.109375 46.296875 
Q 39.59375 47.171875 37.8125 47.578125 
Q 36.03125 48 33.890625 48 
Q 26.265625 48 22.1875 43.046875 
Q 18.109375 38.09375 18.109375 28.8125 
L 18.109375 0 
L 9.078125 0 
L 9.078125 54.6875 
L 18.109375 54.6875 
L 18.109375 46.1875 
Q 20.953125 51.171875 25.484375 53.578125 
Q 30.03125 56 36.53125 56 
Q 37.453125 56 38.578125 55.875 
Q 39.703125 55.765625 41.0625 55.515625 
z
" id="DejaVuSans-114"/>
     <path d="M 53.515625 70.515625 
L 53.515625 60.890625 
Q 47.90625 63.578125 42.921875 64.890625 
Q 37.9375 66.21875 33.296875 66.21875 
Q 25.25 66.21875 20.875 63.09375 
Q 16.5 59.96875 16.5 54.203125 
Q 16.5 49.359375 19.40625 46.890625 
Q 22.3125 44.4375 30.421875 42.921875 
L 36.375 41.703125 
Q 47.40625 39.59375 52.65625 34.296875 
Q 57.90625 29 57.90625 20.125 
Q 57.90625 9.515625 50.796875 4.046875 
Q 43.703125 -1.421875 29.984375 -1.421875 
Q 24.8125 -1.421875 18.96875 -0.25 
Q 13.140625 0.921875 6.890625 3.21875 
L 6.890625 13.375 
Q 12.890625 10.015625 18.65625 8.296875 
Q 24.421875 6.59375 29.984375 6.59375 
Q 38.421875 6.59375 43.015625 9.90625 
Q 47.609375 13.234375 47.609375 19.390625 
Q 47.609375 24.75 44.3125 27.78125 
Q 41.015625 30.8125 33.5 32.328125 
L 27.484375 33.5 
Q 16.453125 35.6875 11.515625 40.375 
Q 6.59375 45.0625 6.59375 53.421875 
Q 6.59375 63.09375 13.40625 68.65625 
Q 20.21875 74.21875 32.171875 74.21875 
Q 37.3125 74.21875 42.625 73.28125 
Q 47.953125 72.359375 53.515625 70.515625 
z
" id="DejaVuSans-83"/>
     <path d="M 14.796875 27.296875 
Q 14.796875 17.390625 18.875 11.75 
Q 22.953125 6.109375 30.078125 6.109375 
Q 37.203125 6.109375 41.296875 11.75 
Q 45.40625 17.390625 45.40625 27.296875 
Q 45.40625 37.203125 41.296875 42.84375 
Q 37.203125 48.484375 30.078125 48.484375 
Q 22.953125 48.484375 18.875 42.84375 
Q 14.796875 37.203125 14.796875 27.296875 
z
M 45.40625 8.203125 
Q 42.578125 3.328125 38.25 0.953125 
Q 33.9375 -1.421875 27.875 -1.421875 
Q 17.96875 -1.421875 11.734375 6.484375 
Q 5.515625 14.40625 5.515625 27.296875 
Q 5.515625 40.1875 11.734375 48.09375 
Q 17.96875 56 27.875 56 
Q 33.9375 56 38.25 53.625 
Q 42.578125 51.265625 45.40625 46.390625 
L 45.40625 54.6875 
L 54.390625 54.6875 
L 54.390625 -20.796875 
L 45.40625 -20.796875 
z
" id="DejaVuSans-113"/>
     <path d="M 48.78125 52.59375 
L 48.78125 44.1875 
Q 44.96875 46.296875 41.140625 47.34375 
Q 37.3125 48.390625 33.40625 48.390625 
Q 24.65625 48.390625 19.8125 42.84375 
Q 14.984375 37.3125 14.984375 27.296875 
Q 14.984375 17.28125 19.8125 11.734375 
Q 24.65625 6.203125 33.40625 6.203125 
Q 37.3125 6.203125 41.140625 7.25 
Q 44.96875 8.296875 48.78125 10.40625 
L 48.78125 2.09375 
Q 45.015625 0.34375 40.984375 -0.53125 
Q 36.96875 -1.421875 32.421875 -1.421875 
Q 20.0625 -1.421875 12.78125 6.34375 
Q 5.515625 14.109375 5.515625 27.296875 
Q 5.515625 40.671875 12.859375 48.328125 
Q 20.21875 56 33.015625 56 
Q 37.15625 56 41.109375 55.140625 
Q 45.0625 54.296875 48.78125 52.59375 
z
" id="DejaVuSans-99"/>
    </defs>
    <g transform="translate(386.724375 19.3575)scale(0.16 -0.16)">
     <use xlink:href="#DejaVuSans-70"/>
     <use x="57.378906" xlink:href="#DejaVuSans-97"/>
     <use x="118.658203" xlink:href="#DejaVuSans-115"/>
     <use x="170.757812" xlink:href="#DejaVuSans-116"/>
     <use x="209.966797" xlink:href="#DejaVuSans-81"/>
     <use x="288.677734" xlink:href="#DejaVuSans-67"/>
     <use x="358.501953" xlink:href="#DejaVuSans-58"/>
     <use x="392.193359" xlink:href="#DejaVuSans-32"/>
     <use x="423.980469" xlink:href="#DejaVuSans-80"/>
     <use x="484.236328" xlink:href="#DejaVuSans-101"/>
     <use x="545.759766" xlink:href="#DejaVuSans-114"/>
     <use x="586.873047" xlink:href="#DejaVuSans-32"/>
     <use x="618.660156" xlink:href="#DejaVuSans-83"/>
     <use x="682.136719" xlink:href="#DejaVuSans-101"/>
     <use x="743.660156" xlink:href="#DejaVuSans-113"/>
     <use x="807.136719" xlink:href="#DejaVuSans-117"/>
     <use x="870.515625" xlink:href="#DejaVuSans-101"/>
     <use x="932.039062" xlink:href="#DejaVuSans-110"/>
     <use x="995.417969" xlink:href="#DejaVuSans-99"/>
     <use x="1050.398438" xlink:href="#DejaVuSans-101"/>
     <use x="1111.921875" xlink:href="#DejaVuSans-32"/>
     <use x="1143.708984" xlink:href="#DejaVuSans-71"/>
     <use x="1221.199219" xlink:href="#DejaVuSans-67"/>
     <use x="1291.023438" xlink:href="#DejaVuSans-32"/>
     <use x="1322.810547" xlink:href="#DejaVuSans-67"/>
     <use x="1392.634766" xlink:href="#DejaVuSans-111"/>
     <use x="1453.816406" xlink:href="#DejaVuSans-110"/>
     <use x="1517.195312" xlink:href="#DejaVuSans-116"/>
     <use x="1556.404297" xlink:href="#DejaVuSans-101"/>
     <use x="1617.927734" xlink:href="#DejaVuSans-110"/>
     <use x="1681.306641" xlink:href="#DejaVuSans-116"/>
    </g>
   </g>
   <g id="legend_1">
    <g id="line2d_14">
     <path d="M 70.708125 303.490394 
L 86.708125 303.490394 
" style="fill:none;stroke:#5cb85c;stroke-linecap:square;"/>
    </g>
    <g id="line2d_15"/>
    <g id="text_16">
     <!-- Cvi-CPal_079-Ex1-1A-ssl-1-1.clmp.r1 -->
     <defs>
      <path d="M 2.984375 54.6875 
L 12.5 54.6875 
L 29.59375 8.796875 
L 46.6875 54.6875 
L 56.203125 54.6875 
L 35.6875 0 
L 23.484375 0 
z
" id="DejaVuSans-118"/>
      <path d="M 9.421875 54.6875 
L 18.40625 54.6875 
L 18.40625 0 
L 9.421875 0 
z
M 9.421875 75.984375 
L 18.40625 75.984375 
L 18.40625 64.59375 
L 9.421875 64.59375 
z
" id="DejaVuSans-105"/>
      <path d="M 4.890625 31.390625 
L 31.203125 31.390625 
L 31.203125 23.390625 
L 4.890625 23.390625 
z
" id="DejaVuSans-45"/>
      <path d="M 9.421875 75.984375 
L 18.40625 75.984375 
L 18.40625 0 
L 9.421875 0 
z
" id="DejaVuSans-108"/>
      <path d="M 50.984375 -16.609375 
L 50.984375 -23.578125 
L -0.984375 -23.578125 
L -0.984375 -16.609375 
z
" id="DejaVuSans-95"/>
      <path d="M 8.203125 72.90625 
L 55.078125 72.90625 
L 55.078125 68.703125 
L 28.609375 0 
L 18.3125 0 
L 43.21875 64.59375 
L 8.203125 64.59375 
z
" id="DejaVuSans-55"/>
      <path d="M 10.984375 1.515625 
L 10.984375 10.5 
Q 14.703125 8.734375 18.5 7.8125 
Q 22.3125 6.890625 25.984375 6.890625 
Q 35.75 6.890625 40.890625 13.453125 
Q 46.046875 20.015625 46.78125 33.40625 
Q 43.953125 29.203125 39.59375 26.953125 
Q 35.25 24.703125 29.984375 24.703125 
Q 19.046875 24.703125 12.671875 31.3125 
Q 6.296875 37.9375 6.296875 49.421875 
Q 6.296875 60.640625 12.9375 67.421875 
Q 19.578125 74.21875 30.609375 74.21875 
Q 43.265625 74.21875 49.921875 64.515625 
Q 56.59375 54.828125 56.59375 36.375 
Q 56.59375 19.140625 48.40625 8.859375 
Q 40.234375 -1.421875 26.421875 -1.421875 
Q 22.703125 -1.421875 18.890625 -0.6875 
Q 15.09375 0.046875 10.984375 1.515625 
z
M 30.609375 32.421875 
Q 37.25 32.421875 41.125 36.953125 
Q 45.015625 41.5 45.015625 49.421875 
Q 45.015625 57.28125 41.125 61.84375 
Q 37.25 66.40625 30.609375 66.40625 
Q 23.96875 66.40625 20.09375 61.84375 
Q 16.21875 57.28125 16.21875 49.421875 
Q 16.21875 41.5 20.09375 36.953125 
Q 23.96875 32.421875 30.609375 32.421875 
z
" id="DejaVuSans-57"/>
      <path d="M 9.8125 72.90625 
L 55.90625 72.90625 
L 55.90625 64.59375 
L 19.671875 64.59375 
L 19.671875 43.015625 
L 54.390625 43.015625 
L 54.390625 34.71875 
L 19.671875 34.71875 
L 19.671875 8.296875 
L 56.78125 8.296875 
L 56.78125 0 
L 9.8125 0 
z
" id="DejaVuSans-69"/>
      <path d="M 54.890625 54.6875 
L 35.109375 28.078125 
L 55.90625 0 
L 45.3125 0 
L 29.390625 21.484375 
L 13.484375 0 
L 2.875 0 
L 24.125 28.609375 
L 4.6875 54.6875 
L 15.28125 54.6875 
L 29.78125 35.203125 
L 44.28125 54.6875 
z
" id="DejaVuSans-120"/>
      <path d="M 34.1875 63.1875 
L 20.796875 26.90625 
L 47.609375 26.90625 
z
M 28.609375 72.90625 
L 39.796875 72.90625 
L 67.578125 0 
L 57.328125 0 
L 50.6875 18.703125 
L 17.828125 18.703125 
L 11.1875 0 
L 0.78125 0 
z
" id="DejaVuSans-65"/>
      <path d="M 10.6875 12.40625 
L 21 12.40625 
L 21 0 
L 10.6875 0 
z
" id="DejaVuSans-46"/>
      <path d="M 52 44.1875 
Q 55.375 50.25 60.0625 53.125 
Q 64.75 56 71.09375 56 
Q 79.640625 56 84.28125 50.015625 
Q 88.921875 44.046875 88.921875 33.015625 
L 88.921875 0 
L 79.890625 0 
L 79.890625 32.71875 
Q 79.890625 40.578125 77.09375 44.375 
Q 74.3125 48.1875 68.609375 48.1875 
Q 61.625 48.1875 57.5625 43.546875 
Q 53.515625 38.921875 53.515625 30.90625 
L 53.515625 0 
L 44.484375 0 
L 44.484375 32.71875 
Q 44.484375 40.625 41.703125 44.40625 
Q 38.921875 48.1875 33.109375 48.1875 
Q 26.21875 48.1875 22.15625 43.53125 
Q 18.109375 38.875 18.109375 30.90625 
L 18.109375 0 
L 9.078125 0 
L 9.078125 54.6875 
L 18.109375 54.6875 
L 18.109375 46.1875 
Q 21.1875 51.21875 25.484375 53.609375 
Q 29.78125 56 35.6875 56 
Q 41.65625 56 45.828125 52.96875 
Q 50 49.953125 52 44.1875 
z
" id="DejaVuSans-109"/>
      <path d="M 18.109375 8.203125 
L 18.109375 -20.796875 
L 9.078125 -20.796875 
L 9.078125 54.6875 
L 18.109375 54.6875 
L 18.109375 46.390625 
Q 20.953125 51.265625 25.265625 53.625 
Q 29.59375 56 35.59375 56 
Q 45.5625 56 51.78125 48.09375 
Q 58.015625 40.1875 58.015625 27.296875 
Q 58.015625 14.40625 51.78125 6.484375 
Q 45.5625 -1.421875 35.59375 -1.421875 
Q 29.59375 -1.421875 25.265625 0.953125 
Q 20.953125 3.328125 18.109375 8.203125 
z
M 48.6875 27.296875 
Q 48.6875 37.203125 44.609375 42.84375 
Q 40.53125 48.484375 33.40625 48.484375 
Q 26.265625 48.484375 22.1875 42.84375 
Q 18.109375 37.203125 18.109375 27.296875 
Q 18.109375 17.390625 22.1875 11.75 
Q 26.265625 6.109375 33.40625 6.109375 
Q 40.53125 6.109375 44.609375 11.75 
Q 48.6875 17.390625 48.6875 27.296875 
z
" id="DejaVuSans-112"/>
     </defs>
     <g transform="translate(93.108125 306.290394)scale(0.08 -0.08)">
      <use xlink:href="#DejaVuSans-67"/>
      <use x="69.824219" xlink:href="#DejaVuSans-118"/>
      <use x="129.003906" xlink:href="#DejaVuSans-105"/>
      <use x="156.787109" xlink:href="#DejaVuSans-45"/>
      <use x="192.871094" xlink:href="#DejaVuSans-67"/>
      <use x="262.695312" xlink:href="#DejaVuSans-80"/>
      <use x="322.935547" xlink:href="#DejaVuSans-97"/>
      <use x="384.214844" xlink:href="#DejaVuSans-108"/>
      <use x="411.998047" xlink:href="#DejaVuSans-95"/>
      <use x="461.998047" xlink:href="#DejaVuSans-48"/>
      <use x="525.621094" xlink:href="#DejaVuSans-55"/>
      <use x="589.244141" xlink:href="#DejaVuSans-57"/>
      <use x="652.867188" xlink:href="#DejaVuSans-45"/>
      <use x="688.951172" xlink:href="#DejaVuSans-69"/>
      <use x="752.134766" xlink:href="#DejaVuSans-120"/>
      <use x="811.314453" xlink:href="#DejaVuSans-49"/>
      <use x="874.9375" xlink:href="#DejaVuSans-45"/>
      <use x="911.021484" xlink:href="#DejaVuSans-49"/>
      <use x="974.644531" xlink:href="#DejaVuSans-65"/>
      <use x="1043.021484" xlink:href="#DejaVuSans-45"/>
      <use x="1079.105469" xlink:href="#DejaVuSans-115"/>
      <use x="1131.205078" xlink:href="#DejaVuSans-115"/>
      <use x="1183.304688" xlink:href="#DejaVuSans-108"/>
      <use x="1211.087891" xlink:href="#DejaVuSans-45"/>
      <use x="1247.171875" xlink:href="#DejaVuSans-49"/>
      <use x="1310.794922" xlink:href="#DejaVuSans-45"/>
      <use x="1346.878906" xlink:href="#DejaVuSans-49"/>
      <use x="1410.501953" xlink:href="#DejaVuSans-46"/>
      <use x="1442.289062" xlink:href="#DejaVuSans-99"/>
      <use x="1497.269531" xlink:href="#DejaVuSans-108"/>
      <use x="1525.052734" xlink:href="#DejaVuSans-109"/>
      <use x="1622.464844" xlink:href="#DejaVuSans-112"/>
      <use x="1685.941406" xlink:href="#DejaVuSans-46"/>
      <use x="1717.728516" xlink:href="#DejaVuSans-114"/>
      <use x="1758.841797" xlink:href="#DejaVuSans-49"/>
     </g>
    </g>
    <g id="line2d_16">
     <path d="M 70.708125 315.455394 
L 86.708125 315.455394 
" style="fill:none;stroke:#5cb85c;stroke-linecap:square;"/>
    </g>
    <g id="line2d_17"/>
    <g id="text_17">
     <!-- Cvi-CPal_079-Ex1-1A-ssl-1-1.clmp.r2 -->
     <g transform="translate(93.108125 318.255394)scale(0.08 -0.08)">
      <use xlink:href="#DejaVuSans-67"/>
      <use x="69.824219" xlink:href="#DejaVuSans-118"/>
      <use x="129.003906" xlink:href="#DejaVuSans-105"/>
      <use x="156.787109" xlink:href="#DejaVuSans-45"/>
      <use x="192.871094" xlink:href="#DejaVuSans-67"/>
      <use x="262.695312" xlink:href="#DejaVuSans-80"/>
      <use x="322.935547" xlink:href="#DejaVuSans-97"/>
      <use x="384.214844" xlink:href="#DejaVuSans-108"/>
      <use x="411.998047" xlink:href="#DejaVuSans-95"/>
      <use x="461.998047" xlink:href="#DejaVuSans-48"/>
      <use x="525.621094" xlink:href="#DejaVuSans-55"/>
      <use x="589.244141" xlink:href="#DejaVuSans-57"/>
      <use x="652.867188" xlink:href="#DejaVuSans-45"/>
      <use x="688.951172" xlink:href="#DejaVuSans-69"/>
      <use x="752.134766" xlink:href="#DejaVuSans-120"/>
      <use x="811.314453" xlink:href="#DejaVuSans-49"/>
      <use x="874.9375" xlink:href="#DejaVuSans-45"/>
      <use x="911.021484" xlink:href="#DejaVuSans-49"/>
      <use x="974.644531" xlink:href="#DejaVuSans-65"/>
      <use x="1043.021484" xlink:href="#DejaVuSans-45"/>
      <use x="1079.105469" xlink:href="#DejaVuSans-115"/>
      <use x="1131.205078" xlink:href="#DejaVuSans-115"/>
      <use x="1183.304688" xlink:href="#DejaVuSans-108"/>
      <use x="1211.087891" xlink:href="#DejaVuSans-45"/>
      <use x="1247.171875" xlink:href="#DejaVuSans-49"/>
      <use x="1310.794922" xlink:href="#DejaVuSans-45"/>
      <use x="1346.878906" xlink:href="#DejaVuSans-49"/>
      <use x="1410.501953" xlink:href="#DejaVuSans-46"/>
      <use x="1442.289062" xlink:href="#DejaVuSans-99"/>
      <use x="1497.269531" xlink:href="#DejaVuSans-108"/>
      <use x="1525.052734" xlink:href="#DejaVuSans-109"/>
      <use x="1622.464844" xlink:href="#DejaVuSans-112"/>
      <use x="1685.941406" xlink:href="#DejaVuSans-46"/>
      <use x="1717.728516" xlink:href="#DejaVuSans-114"/>
      <use x="1758.841797" xlink:href="#DejaVuSans-50"/>
     </g>
    </g>
    <g id="line2d_18">
     <path d="M 255.420625 303.490394 
L 271.420625 303.490394 
" style="fill:none;stroke:#5cb85c;stroke-linecap:square;"/>
    </g>
    <g id="line2d_19"/>
    <g id="text_18">
     <!-- Cvi-CPal_079-Ex1-1B-ssl-1-1.clmp.r1 -->
     <defs>
      <path d="M 19.671875 34.8125 
L 19.671875 8.109375 
L 35.5 8.109375 
Q 43.453125 8.109375 47.28125 11.40625 
Q 51.125 14.703125 51.125 21.484375 
Q 51.125 28.328125 47.28125 31.5625 
Q 43.453125 34.8125 35.5 34.8125 
z
M 19.671875 64.796875 
L 19.671875 42.828125 
L 34.28125 42.828125 
Q 41.5 42.828125 45.03125 45.53125 
Q 48.578125 48.25 48.578125 53.8125 
Q 48.578125 59.328125 45.03125 62.0625 
Q 41.5 64.796875 34.28125 64.796875 
z
M 9.8125 72.90625 
L 35.015625 72.90625 
Q 46.296875 72.90625 52.390625 68.21875 
Q 58.5 63.53125 58.5 54.890625 
Q 58.5 48.1875 55.375 44.234375 
Q 52.25 40.28125 46.1875 39.3125 
Q 53.46875 37.75 57.5 32.78125 
Q 61.53125 27.828125 61.53125 20.40625 
Q 61.53125 10.640625 54.890625 5.3125 
Q 48.25 0 35.984375 0 
L 9.8125 0 
z
" id="DejaVuSans-66"/>
     </defs>
     <g transform="translate(277.820625 306.290394)scale(0.08 -0.08)">
      <use xlink:href="#DejaVuSans-67"/>
      <use x="69.824219" xlink:href="#DejaVuSans-118"/>
      <use x="129.003906" xlink:href="#DejaVuSans-105"/>
      <use x="156.787109" xlink:href="#DejaVuSans-45"/>
      <use x="192.871094" xlink:href="#DejaVuSans-67"/>
      <use x="262.695312" xlink:href="#DejaVuSans-80"/>
      <use x="322.935547" xlink:href="#DejaVuSans-97"/>
      <use x="384.214844" xlink:href="#DejaVuSans-108"/>
      <use x="411.998047" xlink:href="#DejaVuSans-95"/>
      <use x="461.998047" xlink:href="#DejaVuSans-48"/>
      <use x="525.621094" xlink:href="#DejaVuSans-55"/>
      <use x="589.244141" xlink:href="#DejaVuSans-57"/>
      <use x="652.867188" xlink:href="#DejaVuSans-45"/>
      <use x="688.951172" xlink:href="#DejaVuSans-69"/>
      <use x="752.134766" xlink:href="#DejaVuSans-120"/>
      <use x="811.314453" xlink:href="#DejaVuSans-49"/>
      <use x="874.9375" xlink:href="#DejaVuSans-45"/>
      <use x="911.021484" xlink:href="#DejaVuSans-49"/>
      <use x="974.644531" xlink:href="#DejaVuSans-66"/>
      <use x="1043.248047" xlink:href="#DejaVuSans-45"/>
      <use x="1079.332031" xlink:href="#DejaVuSans-115"/>
      <use x="1131.431641" xlink:href="#DejaVuSans-115"/>
      <use x="1183.53125" xlink:href="#DejaVuSans-108"/>
      <use x="1211.314453" xlink:href="#DejaVuSans-45"/>
      <use x="1247.398438" xlink:href="#DejaVuSans-49"/>
      <use x="1311.021484" xlink:href="#DejaVuSans-45"/>
      <use x="1347.105469" xlink:href="#DejaVuSans-49"/>
      <use x="1410.728516" xlink:href="#DejaVuSans-46"/>
      <use x="1442.515625" xlink:href="#DejaVuSans-99"/>
      <use x="1497.496094" xlink:href="#DejaVuSans-108"/>
      <use x="1525.279297" xlink:href="#DejaVuSans-109"/>
      <use x="1622.691406" xlink:href="#DejaVuSans-112"/>
      <use x="1686.167969" xlink:href="#DejaVuSans-46"/>
      <use x="1717.955078" xlink:href="#DejaVuSans-114"/>
      <use x="1759.068359" xlink:href="#DejaVuSans-49"/>
     </g>
    </g>
    <g id="line2d_20">
     <path d="M 440.151875 303.490394 
L 456.151875 303.490394 
" style="fill:none;stroke:#5cb85c;stroke-linecap:square;"/>
    </g>
    <g id="line2d_21"/>
    <g id="text_19">
     <!-- Cvi-CPal_079-Ex1-1B-ssl-1-1.clmp.r2 -->
     <g transform="translate(462.551875 306.290394)scale(0.08 -0.08)">
      <use xlink:href="#DejaVuSans-67"/>
      <use x="69.824219" xlink:href="#DejaVuSans-118"/>
      <use x="129.003906" xlink:href="#DejaVuSans-105"/>
      <use x="156.787109" xlink:href="#DejaVuSans-45"/>
      <use x="192.871094" xlink:href="#DejaVuSans-67"/>
      <use x="262.695312" xlink:href="#DejaVuSans-80"/>
      <use x="322.935547" xlink:href="#DejaVuSans-97"/>
      <use x="384.214844" xlink:href="#DejaVuSans-108"/>
      <use x="411.998047" xlink:href="#DejaVuSans-95"/>
      <use x="461.998047" xlink:href="#DejaVuSans-48"/>
      <use x="525.621094" xlink:href="#DejaVuSans-55"/>
      <use x="589.244141" xlink:href="#DejaVuSans-57"/>
      <use x="652.867188" xlink:href="#DejaVuSans-45"/>
      <use x="688.951172" xlink:href="#DejaVuSans-69"/>
      <use x="752.134766" xlink:href="#DejaVuSans-120"/>
      <use x="811.314453" xlink:href="#DejaVuSans-49"/>
      <use x="874.9375" xlink:href="#DejaVuSans-45"/>
      <use x="911.021484" xlink:href="#DejaVuSans-49"/>
      <use x="974.644531" xlink:href="#DejaVuSans-66"/>
      <use x="1043.248047" xlink:href="#DejaVuSans-45"/>
      <use x="1079.332031" xlink:href="#DejaVuSans-115"/>
      <use x="1131.431641" xlink:href="#DejaVuSans-115"/>
      <use x="1183.53125" xlink:href="#DejaVuSans-108"/>
      <use x="1211.314453" xlink:href="#DejaVuSans-45"/>
      <use x="1247.398438" xlink:href="#DejaVuSans-49"/>
      <use x="1311.021484" xlink:href="#DejaVuSans-45"/>
      <use x="1347.105469" xlink:href="#DejaVuSans-49"/>
      <use x="1410.728516" xlink:href="#DejaVuSans-46"/>
      <use x="1442.515625" xlink:href="#DejaVuSans-99"/>
      <use x="1497.496094" xlink:href="#DejaVuSans-108"/>
      <use x="1525.279297" xlink:href="#DejaVuSans-109"/>
      <use x="1622.691406" xlink:href="#DejaVuSans-112"/>
      <use x="1686.167969" xlink:href="#DejaVuSans-46"/>
      <use x="1717.955078" xlink:href="#DejaVuSans-114"/>
      <use x="1759.068359" xlink:href="#DejaVuSans-50"/>
     </g>
    </g>
    <g id="line2d_22">
     <path d="M 624.883125 303.490394 
L 640.883125 303.490394 
" style="fill:none;stroke:#5cb85c;stroke-linecap:square;"/>
    </g>
    <g id="line2d_23"/>
    <g id="text_20">
     <!-- Cvi-CPal_079-Ex1-1C-ssl-1-1.clmp.r1 -->
     <g transform="translate(647.283125 306.290394)scale(0.08 -0.08)">
      <use xlink:href="#DejaVuSans-67"/>
      <use x="69.824219" xlink:href="#DejaVuSans-118"/>
      <use x="129.003906" xlink:href="#DejaVuSans-105"/>
      <use x="156.787109" xlink:href="#DejaVuSans-45"/>
      <use x="192.871094" xlink:href="#DejaVuSans-67"/>
      <use x="262.695312" xlink:href="#DejaVuSans-80"/>
      <use x="322.935547" xlink:href="#DejaVuSans-97"/>
      <use x="384.214844" xlink:href="#DejaVuSans-108"/>
      <use x="411.998047" xlink:href="#DejaVuSans-95"/>
      <use x="461.998047" xlink:href="#DejaVuSans-48"/>
      <use x="525.621094" xlink:href="#DejaVuSans-55"/>
      <use x="589.244141" xlink:href="#DejaVuSans-57"/>
      <use x="652.867188" xlink:href="#DejaVuSans-45"/>
      <use x="688.951172" xlink:href="#DejaVuSans-69"/>
      <use x="752.134766" xlink:href="#DejaVuSans-120"/>
      <use x="811.314453" xlink:href="#DejaVuSans-49"/>
      <use x="874.9375" xlink:href="#DejaVuSans-45"/>
      <use x="911.021484" xlink:href="#DejaVuSans-49"/>
      <use x="974.644531" xlink:href="#DejaVuSans-67"/>
      <use x="1044.46875" xlink:href="#DejaVuSans-45"/>
      <use x="1080.552734" xlink:href="#DejaVuSans-115"/>
      <use x="1132.652344" xlink:href="#DejaVuSans-115"/>
      <use x="1184.751953" xlink:href="#DejaVuSans-108"/>
      <use x="1212.535156" xlink:href="#DejaVuSans-45"/>
      <use x="1248.619141" xlink:href="#DejaVuSans-49"/>
      <use x="1312.242188" xlink:href="#DejaVuSans-45"/>
      <use x="1348.326172" xlink:href="#DejaVuSans-49"/>
      <use x="1411.949219" xlink:href="#DejaVuSans-46"/>
      <use x="1443.736328" xlink:href="#DejaVuSans-99"/>
      <use x="1498.716797" xlink:href="#DejaVuSans-108"/>
      <use x="1526.5" xlink:href="#DejaVuSans-109"/>
      <use x="1623.912109" xlink:href="#DejaVuSans-112"/>
      <use x="1687.388672" xlink:href="#DejaVuSans-46"/>
      <use x="1719.175781" xlink:href="#DejaVuSans-114"/>
      <use x="1760.289062" xlink:href="#DejaVuSans-49"/>
     </g>
    </g>
    <g id="line2d_24">
     <path d="M 809.711875 303.490394 
L 825.711875 303.490394 
" style="fill:none;stroke:#5cb85c;stroke-linecap:square;"/>
    </g>
    <g id="line2d_25"/>
    <g id="text_21">
     <!-- Cvi-CPal_079-Ex1-1C-ssl-1-1.clmp.r2 -->
     <g transform="translate(832.111875 306.290394)scale(0.08 -0.08)">
      <use xlink:href="#DejaVuSans-67"/>
      <use x="69.824219" xlink:href="#DejaVuSans-118"/>
      <use x="129.003906" xlink:href="#DejaVuSans-105"/>
      <use x="156.787109" xlink:href="#DejaVuSans-45"/>
      <use x="192.871094" xlink:href="#DejaVuSans-67"/>
      <use x="262.695312" xlink:href="#DejaVuSans-80"/>
      <use x="322.935547" xlink:href="#DejaVuSans-97"/>
      <use x="384.214844" xlink:href="#DejaVuSans-108"/>
      <use x="411.998047" xlink:href="#DejaVuSans-95"/>
      <use x="461.998047" xlink:href="#DejaVuSans-48"/>
      <use x="525.621094" xlink:href="#DejaVuSans-55"/>
      <use x="589.244141" xlink:href="#DejaVuSans-57"/>
      <use x="652.867188" xlink:href="#DejaVuSans-45"/>
      <use x="688.951172" xlink:href="#DejaVuSans-69"/>
      <use x="752.134766" xlink:href="#DejaVuSans-120"/>
      <use x="811.314453" xlink:href="#DejaVuSans-49"/>
      <use x="874.9375" xlink:href="#DejaVuSans-45"/>
      <use x="911.021484" xlink:href="#DejaVuSans-49"/>
      <use x="974.644531" xlink:href="#DejaVuSans-67"/>
      <use x="1044.46875" xlink:href="#DejaVuSans-45"/>
      <use x="1080.552734" xlink:href="#DejaVuSans-115"/>
      <use x="1132.652344" xlink:href="#DejaVuSans-115"/>
      <use x="1184.751953" xlink:href="#DejaVuSans-108"/>
      <use x="1212.535156" xlink:href="#DejaVuSans-45"/>
      <use x="1248.619141" xlink:href="#DejaVuSans-49"/>
      <use x="1312.242188" xlink:href="#DejaVuSans-45"/>
      <use x="1348.326172" xlink:href="#DejaVuSans-49"/>
      <use x="1411.949219" xlink:href="#DejaVuSans-46"/>
      <use x="1443.736328" xlink:href="#DejaVuSans-99"/>
      <use x="1498.716797" xlink:href="#DejaVuSans-108"/>
      <use x="1526.5" xlink:href="#DejaVuSans-109"/>
      <use x="1623.912109" xlink:href="#DejaVuSans-112"/>
      <use x="1687.388672" xlink:href="#DejaVuSans-46"/>
      <use x="1719.175781" xlink:href="#DejaVuSans-114"/>
      <use x="1760.289062" xlink:href="#DejaVuSans-50"/>
     </g>
    </g>
   </g>
  </g>
 </g>
 <defs>
  <clipPath id="p720a592491">
   <rect height="242.5072" width="921.715" x="63.508125" y="31.48286"/>
  </clipPath>
 </defs>
</svg>
