<?xml version="1.0" encoding="utf-8" standalone="no"?>
<!DOCTYPE svg PUBLIC "-//W3C//DTD SVG 1.1//EN"
  "http://www.w3.org/Graphics/SVG/1.1/DTD/svg11.dtd">
<!-- Created with matplotlib (https://matplotlib.org/) -->
<svg height="330.541644pt" version="1.1" viewBox="0 0 1000.298125 330.541644" width="1000.298125pt" xmlns="http://www.w3.org/2000/svg" xmlns:xlink="http://www.w3.org/1999/xlink">
 <defs>
  <style type="text/css">
*{stroke-linecap:butt;stroke-linejoin:round;}
  </style>
 </defs>
 <g id="figure_1">
  <g id="axes_1">
   <g id="patch_1">
    <path d="M 32.968125 273.99006 
L 985.463125 273.99006 
L 985.463125 31.48286 
L 32.968125 31.48286 
z
" style="fill:#ffffff;"/>
   </g>
   <g id="matplotlib.axis_1">
    <g id="xtick_1">
     <g id="text_1">
      <!-- 0 -->
      <defs>
       <path d="M 31.78125 66.40625 
Q 24.171875 66.40625 20.328125 58.90625 
Q 16.5 51.421875 16.5 36.375 
Q 16.5 21.390625 20.328125 13.890625 
Q 24.171875 6.390625 31.78125 6.390625 
Q 39.453125 6.390625 43.28125 13.890625 
Q 47.125 21.390625 47.125 36.375 
Q 47.125 51.421875 43.28125 58.90625 
Q 39.453125 66.40625 31.78125 66.40625 
z
M 31.78125 74.21875 
Q 44.046875 74.21875 50.515625 64.515625 
Q 56.984375 54.828125 56.984375 36.375 
Q 56.984375 17.96875 50.515625 8.265625 
Q 44.046875 -1.421875 31.78125 -1.421875 
Q 19.53125 -1.421875 13.0625 8.265625 
Q 6.59375 17.96875 6.59375 36.375 
Q 6.59375 54.828125 13.0625 64.515625 
Q 19.53125 74.21875 31.78125 74.21875 
z
" id="DejaVuSans-48"/>
      </defs>
      <g transform="translate(30.423125 287.06881)scale(0.08 -0.08)">
       <use xlink:href="#DejaVuSans-48"/>
      </g>
     </g>
    </g>
    <g id="xtick_2">
     <g id="text_2">
      <!-- 20 -->
      <defs>
       <path d="M 19.1875 8.296875 
L 53.609375 8.296875 
L 53.609375 0 
L 7.328125 0 
L 7.328125 8.296875 
Q 12.9375 14.109375 22.625 23.890625 
Q 32.328125 33.6875 34.8125 36.53125 
Q 39.546875 41.84375 41.421875 45.53125 
Q 43.3125 49.21875 43.3125 52.78125 
Q 43.3125 58.59375 39.234375 62.25 
Q 35.15625 65.921875 28.609375 65.921875 
Q 23.96875 65.921875 18.8125 64.3125 
Q 13.671875 62.703125 7.8125 59.421875 
L 7.8125 69.390625 
Q 13.765625 71.78125 18.9375 73 
Q 24.125 74.21875 28.421875 74.21875 
Q 39.75 74.21875 46.484375 68.546875 
Q 53.21875 62.890625 53.21875 53.421875 
Q 53.21875 48.921875 51.53125 44.890625 
Q 49.859375 40.875 45.40625 35.40625 
Q 44.1875 33.984375 37.640625 27.21875 
Q 31.109375 20.453125 19.1875 8.296875 
z
" id="DejaVuSans-50"/>
      </defs>
      <g transform="translate(218.377125 287.06881)scale(0.08 -0.08)">
       <use xlink:href="#DejaVuSans-50"/>
       <use x="63.623047" xlink:href="#DejaVuSans-48"/>
      </g>
     </g>
    </g>
    <g id="xtick_3">
     <g id="text_3">
      <!-- 40 -->
      <defs>
       <path d="M 37.796875 64.3125 
L 12.890625 25.390625 
L 37.796875 25.390625 
z
M 35.203125 72.90625 
L 47.609375 72.90625 
L 47.609375 25.390625 
L 58.015625 25.390625 
L 58.015625 17.1875 
L 47.609375 17.1875 
L 47.609375 0 
L 37.796875 0 
L 37.796875 17.1875 
L 4.890625 17.1875 
L 4.890625 26.703125 
z
" id="DejaVuSans-52"/>
      </defs>
      <g transform="translate(408.876125 287.06881)scale(0.08 -0.08)">
       <use xlink:href="#DejaVuSans-52"/>
       <use x="63.623047" xlink:href="#DejaVuSans-48"/>
      </g>
     </g>
    </g>
    <g id="xtick_4">
     <g id="text_4">
      <!-- 60 -->
      <defs>
       <path d="M 33.015625 40.375 
Q 26.375 40.375 22.484375 35.828125 
Q 18.609375 31.296875 18.609375 23.390625 
Q 18.609375 15.53125 22.484375 10.953125 
Q 26.375 6.390625 33.015625 6.390625 
Q 39.65625 6.390625 43.53125 10.953125 
Q 47.40625 15.53125 47.40625 23.390625 
Q 47.40625 31.296875 43.53125 35.828125 
Q 39.65625 40.375 33.015625 40.375 
z
M 52.59375 71.296875 
L 52.59375 62.3125 
Q 48.875 64.0625 45.09375 64.984375 
Q 41.3125 65.921875 37.59375 65.921875 
Q 27.828125 65.921875 22.671875 59.328125 
Q 17.53125 52.734375 16.796875 39.40625 
Q 19.671875 43.65625 24.015625 45.921875 
Q 28.375 48.1875 33.59375 48.1875 
Q 44.578125 48.1875 50.953125 41.515625 
Q 57.328125 34.859375 57.328125 23.390625 
Q 57.328125 12.15625 50.6875 5.359375 
Q 44.046875 -1.421875 33.015625 -1.421875 
Q 20.359375 -1.421875 13.671875 8.265625 
Q 6.984375 17.96875 6.984375 36.375 
Q 6.984375 53.65625 15.1875 63.9375 
Q 23.390625 74.21875 37.203125 74.21875 
Q 40.921875 74.21875 44.703125 73.484375 
Q 48.484375 72.75 52.59375 71.296875 
z
" id="DejaVuSans-54"/>
      </defs>
      <g transform="translate(599.375125 287.06881)scale(0.08 -0.08)">
       <use xlink:href="#DejaVuSans-54"/>
       <use x="63.623047" xlink:href="#DejaVuSans-48"/>
      </g>
     </g>
    </g>
    <g id="xtick_5">
     <g id="text_5">
      <!-- 80 -->
      <defs>
       <path d="M 31.78125 34.625 
Q 24.75 34.625 20.71875 30.859375 
Q 16.703125 27.09375 16.703125 20.515625 
Q 16.703125 13.921875 20.71875 10.15625 
Q 24.75 6.390625 31.78125 6.390625 
Q 38.8125 6.390625 42.859375 10.171875 
Q 46.921875 13.96875 46.921875 20.515625 
Q 46.921875 27.09375 42.890625 30.859375 
Q 38.875 34.625 31.78125 34.625 
z
M 21.921875 38.8125 
Q 15.578125 40.375 12.03125 44.71875 
Q 8.5 49.078125 8.5 55.328125 
Q 8.5 64.0625 14.71875 69.140625 
Q 20.953125 74.21875 31.78125 74.21875 
Q 42.671875 74.21875 48.875 69.140625 
Q 55.078125 64.0625 55.078125 55.328125 
Q 55.078125 49.078125 51.53125 44.71875 
Q 48 40.375 41.703125 38.8125 
Q 48.828125 37.15625 52.796875 32.3125 
Q 56.78125 27.484375 56.78125 20.515625 
Q 56.78125 9.90625 50.3125 4.234375 
Q 43.84375 -1.421875 31.78125 -1.421875 
Q 19.734375 -1.421875 13.25 4.234375 
Q 6.78125 9.90625 6.78125 20.515625 
Q 6.78125 27.484375 10.78125 32.3125 
Q 14.796875 37.15625 21.921875 38.8125 
z
M 18.3125 54.390625 
Q 18.3125 48.734375 21.84375 45.5625 
Q 25.390625 42.390625 31.78125 42.390625 
Q 38.140625 42.390625 41.71875 45.5625 
Q 45.3125 48.734375 45.3125 54.390625 
Q 45.3125 60.0625 41.71875 63.234375 
Q 38.140625 66.40625 31.78125 66.40625 
Q 25.390625 66.40625 21.84375 63.234375 
Q 18.3125 60.0625 18.3125 54.390625 
z
" id="DejaVuSans-56"/>
      </defs>
      <g transform="translate(789.874125 287.06881)scale(0.08 -0.08)">
       <use xlink:href="#DejaVuSans-56"/>
       <use x="63.623047" xlink:href="#DejaVuSans-48"/>
      </g>
     </g>
    </g>
    <g id="xtick_6">
     <g id="text_6">
      <!-- 100 -->
      <defs>
       <path d="M 12.40625 8.296875 
L 28.515625 8.296875 
L 28.515625 63.921875 
L 10.984375 60.40625 
L 10.984375 69.390625 
L 28.421875 72.90625 
L 38.28125 72.90625 
L 38.28125 8.296875 
L 54.390625 8.296875 
L 54.390625 0 
L 12.40625 0 
z
" id="DejaVuSans-49"/>
      </defs>
      <g transform="translate(977.828125 287.06881)scale(0.08 -0.08)">
       <use xlink:href="#DejaVuSans-49"/>
       <use x="63.623047" xlink:href="#DejaVuSans-48"/>
       <use x="127.246094" xlink:href="#DejaVuSans-48"/>
      </g>
     </g>
    </g>
    <g id="text_7">
     <!-- % GC -->
     <defs>
      <path d="M 72.703125 32.078125 
Q 68.453125 32.078125 66.03125 28.46875 
Q 63.625 24.859375 63.625 18.40625 
Q 63.625 12.0625 66.03125 8.421875 
Q 68.453125 4.78125 72.703125 4.78125 
Q 76.859375 4.78125 79.265625 8.421875 
Q 81.6875 12.0625 81.6875 18.40625 
Q 81.6875 24.8125 79.265625 28.4375 
Q 76.859375 32.078125 72.703125 32.078125 
z
M 72.703125 38.28125 
Q 80.421875 38.28125 84.953125 32.90625 
Q 89.5 27.546875 89.5 18.40625 
Q 89.5 9.28125 84.9375 3.921875 
Q 80.375 -1.421875 72.703125 -1.421875 
Q 64.890625 -1.421875 60.34375 3.921875 
Q 55.8125 9.28125 55.8125 18.40625 
Q 55.8125 27.59375 60.375 32.9375 
Q 64.9375 38.28125 72.703125 38.28125 
z
M 22.3125 68.015625 
Q 18.109375 68.015625 15.6875 64.375 
Q 13.28125 60.75 13.28125 54.390625 
Q 13.28125 47.953125 15.671875 44.328125 
Q 18.0625 40.71875 22.3125 40.71875 
Q 26.5625 40.71875 28.96875 44.328125 
Q 31.390625 47.953125 31.390625 54.390625 
Q 31.390625 60.6875 28.953125 64.34375 
Q 26.515625 68.015625 22.3125 68.015625 
z
M 66.40625 74.21875 
L 74.21875 74.21875 
L 28.609375 -1.421875 
L 20.796875 -1.421875 
z
M 22.3125 74.21875 
Q 30.03125 74.21875 34.609375 68.875 
Q 39.203125 63.53125 39.203125 54.390625 
Q 39.203125 45.171875 34.640625 39.84375 
Q 30.078125 34.515625 22.3125 34.515625 
Q 14.546875 34.515625 10.03125 39.859375 
Q 5.515625 45.21875 5.515625 54.390625 
Q 5.515625 63.484375 10.046875 68.84375 
Q 14.59375 74.21875 22.3125 74.21875 
z
" id="DejaVuSans-37"/>
      <path id="DejaVuSans-32"/>
      <path d="M 59.515625 10.40625 
L 59.515625 29.984375 
L 43.40625 29.984375 
L 43.40625 38.09375 
L 69.28125 38.09375 
L 69.28125 6.78125 
Q 63.578125 2.734375 56.6875 0.65625 
Q 49.8125 -1.421875 42 -1.421875 
Q 24.90625 -1.421875 15.25 8.5625 
Q 5.609375 18.5625 5.609375 36.375 
Q 5.609375 54.25 15.25 64.234375 
Q 24.90625 74.21875 42 74.21875 
Q 49.125 74.21875 55.546875 72.453125 
Q 61.96875 70.703125 67.390625 67.28125 
L 67.390625 56.78125 
Q 61.921875 61.421875 55.765625 63.765625 
Q 49.609375 66.109375 42.828125 66.109375 
Q 29.4375 66.109375 22.71875 58.640625 
Q 16.015625 51.171875 16.015625 36.375 
Q 16.015625 21.625 22.71875 14.15625 
Q 29.4375 6.6875 42.828125 6.6875 
Q 48.046875 6.6875 52.140625 7.59375 
Q 56.25 8.5 59.515625 10.40625 
z
" id="DejaVuSans-71"/>
      <path d="M 64.40625 67.28125 
L 64.40625 56.890625 
Q 59.421875 61.53125 53.78125 63.8125 
Q 48.140625 66.109375 41.796875 66.109375 
Q 29.296875 66.109375 22.65625 58.46875 
Q 16.015625 50.828125 16.015625 36.375 
Q 16.015625 21.96875 22.65625 14.328125 
Q 29.296875 6.6875 41.796875 6.6875 
Q 48.140625 6.6875 53.78125 8.984375 
Q 59.421875 11.28125 64.40625 15.921875 
L 64.40625 5.609375 
Q 59.234375 2.09375 53.4375 0.328125 
Q 47.65625 -1.421875 41.21875 -1.421875 
Q 24.65625 -1.421875 15.125 8.703125 
Q 5.609375 18.84375 5.609375 36.375 
Q 5.609375 53.953125 15.125 64.078125 
Q 24.65625 74.21875 41.21875 74.21875 
Q 47.75 74.21875 53.53125 72.484375 
Q 59.328125 70.75 64.40625 67.28125 
z
" id="DejaVuSans-67"/>
     </defs>
     <g transform="translate(495.510156 300.330997)scale(0.1 -0.1)">
      <use xlink:href="#DejaVuSans-37"/>
      <use x="95.019531" xlink:href="#DejaVuSans-32"/>
      <use x="126.806641" xlink:href="#DejaVuSans-71"/>
      <use x="204.296875" xlink:href="#DejaVuSans-67"/>
     </g>
    </g>
   </g>
   <g id="matplotlib.axis_2">
    <g id="ytick_1">
     <g id="line2d_1">
      <path clip-path="url(#p13ae42df6d)" d="M 32.968125 273.99006 
L 985.463125 273.99006 
" style="fill:none;stroke:#dedede;stroke-linecap:square;"/>
     </g>
     <g id="text_8">
      <!-- 0 -->
      <g transform="translate(20.878125 277.029435)scale(0.08 -0.08)">
       <use xlink:href="#DejaVuSans-48"/>
      </g>
     </g>
    </g>
    <g id="ytick_2">
     <g id="line2d_2">
      <path clip-path="url(#p13ae42df6d)" d="M 32.968125 225.534099 
L 985.463125 225.534099 
" style="fill:none;stroke:#dedede;stroke-linecap:square;"/>
     </g>
     <g id="text_9">
      <!-- 1 -->
      <g transform="translate(20.878125 228.573474)scale(0.08 -0.08)">
       <use xlink:href="#DejaVuSans-49"/>
      </g>
     </g>
    </g>
    <g id="ytick_3">
     <g id="line2d_3">
      <path clip-path="url(#p13ae42df6d)" d="M 32.968125 177.078139 
L 985.463125 177.078139 
" style="fill:none;stroke:#dedede;stroke-linecap:square;"/>
     </g>
     <g id="text_10">
      <!-- 2 -->
      <g transform="translate(20.878125 180.117514)scale(0.08 -0.08)">
       <use xlink:href="#DejaVuSans-50"/>
      </g>
     </g>
    </g>
    <g id="ytick_4">
     <g id="line2d_4">
      <path clip-path="url(#p13ae42df6d)" d="M 32.968125 128.622178 
L 985.463125 128.622178 
" style="fill:none;stroke:#dedede;stroke-linecap:square;"/>
     </g>
     <g id="text_11">
      <!-- 3 -->
      <defs>
       <path d="M 40.578125 39.3125 
Q 47.65625 37.796875 51.625 33 
Q 55.609375 28.21875 55.609375 21.1875 
Q 55.609375 10.40625 48.1875 4.484375 
Q 40.765625 -1.421875 27.09375 -1.421875 
Q 22.515625 -1.421875 17.65625 -0.515625 
Q 12.796875 0.390625 7.625 2.203125 
L 7.625 11.71875 
Q 11.71875 9.328125 16.59375 8.109375 
Q 21.484375 6.890625 26.8125 6.890625 
Q 36.078125 6.890625 40.9375 10.546875 
Q 45.796875 14.203125 45.796875 21.1875 
Q 45.796875 27.640625 41.28125 31.265625 
Q 36.765625 34.90625 28.71875 34.90625 
L 20.21875 34.90625 
L 20.21875 43.015625 
L 29.109375 43.015625 
Q 36.375 43.015625 40.234375 45.921875 
Q 44.09375 48.828125 44.09375 54.296875 
Q 44.09375 59.90625 40.109375 62.90625 
Q 36.140625 65.921875 28.71875 65.921875 
Q 24.65625 65.921875 20.015625 65.03125 
Q 15.375 64.15625 9.8125 62.3125 
L 9.8125 71.09375 
Q 15.4375 72.65625 20.34375 73.4375 
Q 25.25 74.21875 29.59375 74.21875 
Q 40.828125 74.21875 47.359375 69.109375 
Q 53.90625 64.015625 53.90625 55.328125 
Q 53.90625 49.265625 50.4375 45.09375 
Q 46.96875 40.921875 40.578125 39.3125 
z
" id="DejaVuSans-51"/>
      </defs>
      <g transform="translate(20.878125 131.661553)scale(0.08 -0.08)">
       <use xlink:href="#DejaVuSans-51"/>
      </g>
     </g>
    </g>
    <g id="ytick_5">
     <g id="line2d_5">
      <path clip-path="url(#p13ae42df6d)" d="M 32.968125 80.166218 
L 985.463125 80.166218 
" style="fill:none;stroke:#dedede;stroke-linecap:square;"/>
     </g>
     <g id="text_12">
      <!-- 4 -->
      <g transform="translate(20.878125 83.205593)scale(0.08 -0.08)">
       <use xlink:href="#DejaVuSans-52"/>
      </g>
     </g>
    </g>
    <g id="ytick_6">
     <g id="line2d_6">
      <path clip-path="url(#p13ae42df6d)" d="M 32.968125 31.710257 
L 985.463125 31.710257 
" style="fill:none;stroke:#dedede;stroke-linecap:square;"/>
     </g>
     <g id="text_13">
      <!-- 5 -->
      <defs>
       <path d="M 10.796875 72.90625 
L 49.515625 72.90625 
L 49.515625 64.59375 
L 19.828125 64.59375 
L 19.828125 46.734375 
Q 21.96875 47.46875 24.109375 47.828125 
Q 26.265625 48.1875 28.421875 48.1875 
Q 40.625 48.1875 47.75 41.5 
Q 54.890625 34.8125 54.890625 23.390625 
Q 54.890625 11.625 47.5625 5.09375 
Q 40.234375 -1.421875 26.90625 -1.421875 
Q 22.3125 -1.421875 17.546875 -0.640625 
Q 12.796875 0.140625 7.71875 1.703125 
L 7.71875 11.625 
Q 12.109375 9.234375 16.796875 8.0625 
Q 21.484375 6.890625 26.703125 6.890625 
Q 35.15625 6.890625 40.078125 11.328125 
Q 45.015625 15.765625 45.015625 23.390625 
Q 45.015625 31 40.078125 35.4375 
Q 35.15625 39.890625 26.703125 39.890625 
Q 22.75 39.890625 18.8125 39.015625 
Q 14.890625 38.140625 10.796875 36.28125 
z
" id="DejaVuSans-53"/>
      </defs>
      <g transform="translate(20.878125 34.749632)scale(0.08 -0.08)">
       <use xlink:href="#DejaVuSans-53"/>
      </g>
     </g>
    </g>
    <g id="text_14">
     <!-- Percentage -->
     <defs>
      <path d="M 19.671875 64.796875 
L 19.671875 37.40625 
L 32.078125 37.40625 
Q 38.96875 37.40625 42.71875 40.96875 
Q 46.484375 44.53125 46.484375 51.125 
Q 46.484375 57.671875 42.71875 61.234375 
Q 38.96875 64.796875 32.078125 64.796875 
z
M 9.8125 72.90625 
L 32.078125 72.90625 
Q 44.34375 72.90625 50.609375 67.359375 
Q 56.890625 61.8125 56.890625 51.125 
Q 56.890625 40.328125 50.609375 34.8125 
Q 44.34375 29.296875 32.078125 29.296875 
L 19.671875 29.296875 
L 19.671875 0 
L 9.8125 0 
z
" id="DejaVuSans-80"/>
      <path d="M 56.203125 29.59375 
L 56.203125 25.203125 
L 14.890625 25.203125 
Q 15.484375 15.921875 20.484375 11.0625 
Q 25.484375 6.203125 34.421875 6.203125 
Q 39.59375 6.203125 44.453125 7.46875 
Q 49.3125 8.734375 54.109375 11.28125 
L 54.109375 2.78125 
Q 49.265625 0.734375 44.1875 -0.34375 
Q 39.109375 -1.421875 33.890625 -1.421875 
Q 20.796875 -1.421875 13.15625 6.1875 
Q 5.515625 13.8125 5.515625 26.8125 
Q 5.515625 40.234375 12.765625 48.109375 
Q 20.015625 56 32.328125 56 
Q 43.359375 56 49.78125 48.890625 
Q 56.203125 41.796875 56.203125 29.59375 
z
M 47.21875 32.234375 
Q 47.125 39.59375 43.09375 43.984375 
Q 39.0625 48.390625 32.421875 48.390625 
Q 24.90625 48.390625 20.390625 44.140625 
Q 15.875 39.890625 15.1875 32.171875 
z
" id="DejaVuSans-101"/>
      <path d="M 41.109375 46.296875 
Q 39.59375 47.171875 37.8125 47.578125 
Q 36.03125 48 33.890625 48 
Q 26.265625 48 22.1875 43.046875 
Q 18.109375 38.09375 18.109375 28.8125 
L 18.109375 0 
L 9.078125 0 
L 9.078125 54.6875 
L 18.109375 54.6875 
L 18.109375 46.1875 
Q 20.953125 51.171875 25.484375 53.578125 
Q 30.03125 56 36.53125 56 
Q 37.453125 56 38.578125 55.875 
Q 39.703125 55.765625 41.0625 55.515625 
z
" id="DejaVuSans-114"/>
      <path d="M 48.78125 52.59375 
L 48.78125 44.1875 
Q 44.96875 46.296875 41.140625 47.34375 
Q 37.3125 48.390625 33.40625 48.390625 
Q 24.65625 48.390625 19.8125 42.84375 
Q 14.984375 37.3125 14.984375 27.296875 
Q 14.984375 17.28125 19.8125 11.734375 
Q 24.65625 6.203125 33.40625 6.203125 
Q 37.3125 6.203125 41.140625 7.25 
Q 44.96875 8.296875 48.78125 10.40625 
L 48.78125 2.09375 
Q 45.015625 0.34375 40.984375 -0.53125 
Q 36.96875 -1.421875 32.421875 -1.421875 
Q 20.0625 -1.421875 12.78125 6.34375 
Q 5.515625 14.109375 5.515625 27.296875 
Q 5.515625 40.671875 12.859375 48.328125 
Q 20.21875 56 33.015625 56 
Q 37.15625 56 41.109375 55.140625 
Q 45.0625 54.296875 48.78125 52.59375 
z
" id="DejaVuSans-99"/>
      <path d="M 54.890625 33.015625 
L 54.890625 0 
L 45.90625 0 
L 45.90625 32.71875 
Q 45.90625 40.484375 42.875 44.328125 
Q 39.84375 48.1875 33.796875 48.1875 
Q 26.515625 48.1875 22.3125 43.546875 
Q 18.109375 38.921875 18.109375 30.90625 
L 18.109375 0 
L 9.078125 0 
L 9.078125 54.6875 
L 18.109375 54.6875 
L 18.109375 46.1875 
Q 21.34375 51.125 25.703125 53.5625 
Q 30.078125 56 35.796875 56 
Q 45.21875 56 50.046875 50.171875 
Q 54.890625 44.34375 54.890625 33.015625 
z
" id="DejaVuSans-110"/>
      <path d="M 18.3125 70.21875 
L 18.3125 54.6875 
L 36.8125 54.6875 
L 36.8125 47.703125 
L 18.3125 47.703125 
L 18.3125 18.015625 
Q 18.3125 11.328125 20.140625 9.421875 
Q 21.96875 7.515625 27.59375 7.515625 
L 36.8125 7.515625 
L 36.8125 0 
L 27.59375 0 
Q 17.1875 0 13.234375 3.875 
Q 9.28125 7.765625 9.28125 18.015625 
L 9.28125 47.703125 
L 2.6875 47.703125 
L 2.6875 54.6875 
L 9.28125 54.6875 
L 9.28125 70.21875 
z
" id="DejaVuSans-116"/>
      <path d="M 34.28125 27.484375 
Q 23.390625 27.484375 19.1875 25 
Q 14.984375 22.515625 14.984375 16.5 
Q 14.984375 11.71875 18.140625 8.90625 
Q 21.296875 6.109375 26.703125 6.109375 
Q 34.1875 6.109375 38.703125 11.40625 
Q 43.21875 16.703125 43.21875 25.484375 
L 43.21875 27.484375 
z
M 52.203125 31.203125 
L 52.203125 0 
L 43.21875 0 
L 43.21875 8.296875 
Q 40.140625 3.328125 35.546875 0.953125 
Q 30.953125 -1.421875 24.3125 -1.421875 
Q 15.921875 -1.421875 10.953125 3.296875 
Q 6 8.015625 6 15.921875 
Q 6 25.140625 12.171875 29.828125 
Q 18.359375 34.515625 30.609375 34.515625 
L 43.21875 34.515625 
L 43.21875 35.40625 
Q 43.21875 41.609375 39.140625 45 
Q 35.0625 48.390625 27.6875 48.390625 
Q 23 48.390625 18.546875 47.265625 
Q 14.109375 46.140625 10.015625 43.890625 
L 10.015625 52.203125 
Q 14.9375 54.109375 19.578125 55.046875 
Q 24.21875 56 28.609375 56 
Q 40.484375 56 46.34375 49.84375 
Q 52.203125 43.703125 52.203125 31.203125 
z
" id="DejaVuSans-97"/>
      <path d="M 45.40625 27.984375 
Q 45.40625 37.75 41.375 43.109375 
Q 37.359375 48.484375 30.078125 48.484375 
Q 22.859375 48.484375 18.828125 43.109375 
Q 14.796875 37.75 14.796875 27.984375 
Q 14.796875 18.265625 18.828125 12.890625 
Q 22.859375 7.515625 30.078125 7.515625 
Q 37.359375 7.515625 41.375 12.890625 
Q 45.40625 18.265625 45.40625 27.984375 
z
M 54.390625 6.78125 
Q 54.390625 -7.171875 48.1875 -13.984375 
Q 42 -20.796875 29.203125 -20.796875 
Q 24.46875 -20.796875 20.265625 -20.09375 
Q 16.0625 -19.390625 12.109375 -17.921875 
L 12.109375 -9.1875 
Q 16.0625 -11.328125 19.921875 -12.34375 
Q 23.78125 -13.375 27.78125 -13.375 
Q 36.625 -13.375 41.015625 -8.765625 
Q 45.40625 -4.15625 45.40625 5.171875 
L 45.40625 9.625 
Q 42.625 4.78125 38.28125 2.390625 
Q 33.9375 0 27.875 0 
Q 17.828125 0 11.671875 7.65625 
Q 5.515625 15.328125 5.515625 27.984375 
Q 5.515625 40.671875 11.671875 48.328125 
Q 17.828125 56 27.875 56 
Q 33.9375 56 38.28125 53.609375 
Q 42.625 51.21875 45.40625 46.390625 
L 45.40625 54.6875 
L 54.390625 54.6875 
z
" id="DejaVuSans-103"/>
     </defs>
     <g transform="translate(14.798437 181.14896)rotate(-90)scale(0.1 -0.1)">
      <use xlink:href="#DejaVuSans-80"/>
      <use x="60.255859" xlink:href="#DejaVuSans-101"/>
      <use x="121.779297" xlink:href="#DejaVuSans-114"/>
      <use x="162.861328" xlink:href="#DejaVuSans-99"/>
      <use x="217.841797" xlink:href="#DejaVuSans-101"/>
      <use x="279.365234" xlink:href="#DejaVuSans-110"/>
      <use x="342.744141" xlink:href="#DejaVuSans-116"/>
      <use x="381.953125" xlink:href="#DejaVuSans-97"/>
      <use x="443.232422" xlink:href="#DejaVuSans-103"/>
      <use x="506.708984" xlink:href="#DejaVuSans-101"/>
     </g>
    </g>
   </g>
   <g id="line2d_7">
    <path clip-path="url(#p13ae42df6d)" d="M 32.968125 273.987813 
L 42.493075 273.987078 
L 52.018025 273.985046 
L 61.542975 273.982885 
L 71.067925 273.979687 
L 80.592875 273.975192 
L 90.117825 273.967499 
L 99.642775 273.953711 
L 109.167725 273.935904 
L 118.692675 273.909497 
L 128.217625 273.876044 
L 137.742575 273.827464 
L 147.267525 273.753902 
L 156.792475 273.64343 
L 166.317425 273.472621 
L 175.842375 273.232271 
L 185.367325 272.888752 
L 194.892275 272.360422 
L 204.417225 271.547829 
L 213.942175 270.360729 
L 223.467125 268.666217 
L 232.992075 266.333118 
L 242.517025 263.091131 
L 252.041975 258.719267 
L 261.566925 253.075288 
L 271.091875 245.821941 
L 280.616825 236.894439 
L 290.141775 226.282409 
L 299.666725 213.665543 
L 309.191675 199.171729 
L 318.716625 183.114189 
L 328.241575 165.549499 
L 337.766525 146.832545 
L 347.291475 128.049851 
L 356.816425 109.513602 
L 366.341375 92.02416 
L 375.866325 76.76992 
L 385.391275 63.972477 
L 394.916225 53.900707 
L 404.441175 46.638802 
L 413.966125 43.030822 
L 423.491075 43.21585 
L 433.016025 46.762543 
L 442.540975 53.098616 
L 452.065925 61.311896 
L 461.590875 71.435142 
L 471.115825 84.05819 
L 480.640775 98.829351 
L 490.165725 114.751826 
L 499.690675 130.826697 
L 509.215625 145.768493 
L 518.740575 160.547391 
L 528.265525 175.450721 
L 537.790475 189.193099 
L 547.315425 201.532273 
L 556.840375 212.163406 
L 566.365325 221.364754 
L 575.890275 229.446297 
L 585.415225 236.670469 
L 594.940175 243.10474 
L 604.465125 248.490346 
L 613.990075 253.020311 
L 623.515025 256.798668 
L 633.039975 259.950151 
L 642.564925 262.59245 
L 652.089875 264.827567 
L 661.614825 266.687398 
L 671.139775 268.120209 
L 680.664725 269.268714 
L 690.189675 270.242477 
L 699.714625 271.015479 
L 709.239575 271.534344 
L 718.764525 271.955358 
L 728.289475 272.333064 
L 737.814425 272.651427 
L 747.339375 272.929207 
L 756.864325 273.168347 
L 766.389275 273.337816 
L 775.914225 273.434717 
L 785.439175 273.51286 
L 794.964125 273.595368 
L 804.489075 273.678525 
L 814.014025 273.738083 
L 823.538975 273.787095 
L 833.063925 273.838528 
L 842.588875 273.8878 
L 852.113825 273.934305 
L 861.638775 273.959978 
L 871.163725 273.972599 
L 880.688675 273.98241 
L 890.213625 273.984268 
L 899.738575 273.986429 
L 909.263525 273.988374 
L 918.788475 273.989023 
L 928.313425 273.989455 
L 937.838375 273.989714 
L 947.363325 273.989844 
L 956.888275 273.990017 
L 966.413225 273.990017 
L 975.938175 273.990017 
L 985.463125 273.99006 
" style="fill:none;stroke:#5cb85c;stroke-linecap:square;"/>
   </g>
   <g id="line2d_8">
    <path clip-path="url(#p13ae42df6d)" d="M 32.968125 273.98764 
L 42.493075 273.987165 
L 52.018025 273.985263 
L 61.542975 273.983232 
L 71.067925 273.980423 
L 80.592875 273.974114 
L 90.117825 273.964175 
L 99.642775 273.951297 
L 109.167725 273.935265 
L 118.692675 273.912621 
L 128.217625 273.876538 
L 137.742575 273.823256 
L 147.267525 273.752213 
L 156.792475 273.643228 
L 166.317425 273.472967 
L 175.842375 273.240737 
L 185.367325 272.882885 
L 194.892275 272.337876 
L 204.417225 271.547154 
L 213.942175 270.373733 
L 223.467125 268.693244 
L 232.992075 266.336549 
L 242.517025 263.089914 
L 252.041975 258.772706 
L 261.566925 253.158357 
L 271.091875 245.909282 
L 280.616825 236.974791 
L 290.141775 226.426619 
L 299.666725 213.836218 
L 309.191675 199.446058 
L 318.716625 183.46888 
L 328.241575 165.887831 
L 337.766525 147.310493 
L 347.291475 128.518557 
L 356.816425 109.931495 
L 366.341375 92.419069 
L 375.866325 77.158372 
L 385.391275 64.380597 
L 394.916225 54.125327 
L 404.441175 46.841335 
L 413.966125 43.274833 
L 423.491075 43.334511 
L 433.016025 46.772755 
L 442.540975 52.978223 
L 452.065925 61.216154 
L 461.590875 71.484734 
L 471.115825 84.119256 
L 480.640775 98.778464 
L 490.165725 114.488582 
L 499.690675 130.551323 
L 509.215625 145.685836 
L 518.740575 160.384411 
L 528.265525 174.994269 
L 537.790475 188.698327 
L 547.315425 201.092452 
L 556.840375 211.781284 
L 566.365325 220.993335 
L 575.890275 229.157717 
L 585.415225 236.513011 
L 594.940175 242.885585 
L 604.465125 248.251759 
L 613.990075 252.814118 
L 623.515025 256.667125 
L 633.039975 259.860694 
L 642.564925 262.511241 
L 652.089875 264.753636 
L 661.614825 266.627549 
L 671.139775 268.05606 
L 680.664725 269.236309 
L 690.189675 270.247506 
L 699.714625 271.003268 
L 709.239575 271.525807 
L 718.764525 271.933786 
L 728.289475 272.299286 
L 737.814425 272.623172 
L 747.339375 272.902418 
L 756.864325 273.140438 
L 766.389275 273.31541 
L 775.914225 273.42608 
L 785.439175 273.500277 
L 794.964125 273.585062 
L 804.489075 273.676762 
L 814.014025 273.735748 
L 823.538975 273.78432 
L 833.063925 273.836263 
L 842.588875 273.887169 
L 852.113825 273.933407 
L 861.638775 273.957045 
L 871.163725 273.9707 
L 880.688675 273.980899 
L 890.213625 273.983967 
L 899.738575 273.985652 
L 909.263525 273.987338 
L 918.788475 273.988375 
L 928.313425 273.989153 
L 937.838375 273.989628 
L 947.363325 273.989844 
L 956.888275 273.990017 
L 966.413225 273.99006 
L 975.938175 273.99006 
L 985.463125 273.99006 
" style="fill:none;stroke:#5cb85c;stroke-linecap:square;"/>
   </g>
   <g id="line2d_9">
    <path clip-path="url(#p13ae42df6d)" d="M 32.968125 273.987855 
L 42.493075 273.987414 
L 52.018025 273.986047 
L 61.542975 273.983975 
L 71.067925 273.981021 
L 80.592875 273.976655 
L 90.117825 273.968189 
L 99.642775 273.955401 
L 109.167725 273.940012 
L 118.692675 273.916333 
L 128.217625 273.880043 
L 137.742575 273.833963 
L 147.267525 273.767071 
L 156.792475 273.662169 
L 166.317425 273.499149 
L 175.842375 273.257993 
L 185.367325 272.912817 
L 194.892275 272.396155 
L 204.417225 271.633133 
L 213.942175 270.460645 
L 223.467125 268.76144 
L 232.992075 266.417125 
L 242.517025 263.217761 
L 252.041975 258.878187 
L 261.566925 253.154512 
L 271.091875 245.871281 
L 280.616825 237.091243 
L 290.141775 226.532012 
L 299.666725 213.840474 
L 309.191675 199.414809 
L 318.716625 183.443743 
L 328.241575 165.9775 
L 337.766525 147.327437 
L 347.291475 128.541913 
L 356.816425 109.974925 
L 366.341375 92.622139 
L 375.866325 77.476313 
L 385.391275 64.602134 
L 394.916225 54.523318 
L 404.441175 47.351913 
L 413.966125 43.780255 
L 423.491075 43.844854 
L 433.016025 47.16517 
L 442.540975 53.262331 
L 452.065925 61.362247 
L 461.590875 71.381754 
L 471.115825 83.884697 
L 480.640775 98.461785 
L 490.165725 114.146189 
L 499.690675 130.107069 
L 509.215625 145.116553 
L 518.740575 159.990842 
L 528.265525 174.905301 
L 537.790475 188.562301 
L 547.315425 200.836434 
L 556.840375 211.587038 
L 566.365325 220.793564 
L 575.890275 228.874607 
L 585.415225 236.156559 
L 594.940175 242.590209 
L 604.465125 248.055487 
L 613.990075 252.704698 
L 623.515025 256.578187 
L 633.039975 259.766791 
L 642.564925 262.424976 
L 652.089875 264.650367 
L 661.614825 266.557612 
L 671.139775 268.060505 
L 680.664725 269.213239 
L 690.189675 270.216093 
L 699.714625 271.020256 
L 709.239575 271.555129 
L 718.764525 271.979236 
L 728.289475 272.353823 
L 737.814425 272.676952 
L 747.339375 272.953781 
L 756.864325 273.189381 
L 766.389275 273.356987 
L 775.914225 273.454569 
L 785.439175 273.53297 
L 794.964125 273.615649 
L 804.489075 273.689464 
L 814.014025 273.742687 
L 823.538975 273.788104 
L 833.063925 273.834625 
L 842.588875 273.890978 
L 852.113825 273.935382 
L 861.638775 273.958267 
L 871.163725 273.971452 
L 880.688675 273.980447 
L 890.213625 273.984019 
L 899.738575 273.986091 
L 909.263525 273.987943 
L 918.788475 273.988869 
L 928.313425 273.989399 
L 937.838375 273.989619 
L 947.363325 273.989884 
L 956.888275 273.990016 
L 966.413225 273.990016 
L 975.938175 273.990016 
L 985.463125 273.99006 
" style="fill:none;stroke:#5cb85c;stroke-linecap:square;"/>
   </g>
   <g id="line2d_10">
    <path clip-path="url(#p13ae42df6d)" d="M 32.968125 273.987238 
L 42.493075 273.987238 
L 52.018025 273.98618 
L 61.542975 273.984505 
L 71.067925 273.9823 
L 80.592875 273.977318 
L 90.117825 273.967795 
L 99.642775 273.956288 
L 109.167725 273.938961 
L 118.692675 273.912508 
L 128.217625 273.881734 
L 137.742575 273.836367 
L 147.267525 273.77041 
L 156.792475 273.664597 
L 166.317425 273.497678 
L 175.842375 273.271371 
L 185.367325 272.922982 
L 194.892275 272.388495 
L 204.417225 271.59922 
L 213.942175 270.429635 
L 223.467125 268.777192 
L 232.992075 266.476689 
L 242.517025 263.268445 
L 252.041975 258.941891 
L 261.566925 253.316133 
L 271.091875 246.09388 
L 280.616825 237.289681 
L 290.141775 226.761395 
L 299.666725 214.176725 
L 309.191675 199.806332 
L 318.716625 183.878153 
L 328.241575 166.495578 
L 337.766525 147.842146 
L 347.291475 128.985863 
L 356.816425 110.590527 
L 366.341375 93.219282 
L 375.866325 77.874838 
L 385.391275 65.121661 
L 394.916225 54.895779 
L 404.441175 47.497039 
L 413.966125 43.830581 
L 423.491075 43.655417 
L 433.016025 47.013562 
L 442.540975 53.186417 
L 452.065925 61.136707 
L 461.590875 71.275249 
L 471.115825 83.713897 
L 480.640775 98.164664 
L 490.165725 113.954052 
L 499.690675 129.827031 
L 509.215625 144.743727 
L 518.740575 159.57132 
L 528.265525 174.389522 
L 537.790475 188.015169 
L 547.315425 200.393549 
L 556.840375 211.20074 
L 566.365325 220.421224 
L 575.890275 228.615191 
L 585.415225 235.993033 
L 594.940175 242.431478 
L 604.465125 247.911964 
L 613.990075 252.597179 
L 623.515025 256.47103 
L 633.039975 259.658112 
L 642.564925 262.348623 
L 652.089875 264.610945 
L 661.614825 266.533079 
L 671.139775 268.02138 
L 680.664725 269.183469 
L 690.189675 270.179917 
L 699.714625 270.985153 
L 709.239575 271.540758 
L 718.764525 271.962334 
L 728.289475 272.327609 
L 737.814425 272.65651 
L 747.339375 272.937884 
L 756.864325 273.165866 
L 766.389275 273.336754 
L 775.914225 273.4412 
L 785.439175 273.522147 
L 794.964125 273.607459 
L 804.489075 273.673415 
L 814.014025 273.729496 
L 823.538975 273.785533 
L 833.063925 273.836808 
L 842.588875 273.887686 
L 852.113825 273.931202 
L 861.638775 273.953775 
L 871.163725 273.967751 
L 880.688675 273.97895 
L 890.213625 273.982344 
L 899.738575 273.98521 
L 909.263525 273.987062 
L 918.788475 273.988164 
L 928.313425 273.989134 
L 937.838375 273.989707 
L 947.363325 273.98984 
L 956.888275 273.989928 
L 966.413225 273.989972 
L 975.938175 273.990016 
L 985.463125 273.99006 
" style="fill:none;stroke:#5cb85c;stroke-linecap:square;"/>
   </g>
   <g id="line2d_11">
    <path clip-path="url(#p13ae42df6d)" d="M 32.968125 273.98755 
L 42.493075 273.986195 
L 52.018025 273.982481 
L 61.542975 273.977813 
L 71.067925 273.973196 
L 80.592875 273.964412 
L 90.117825 273.951162 
L 99.642775 273.931336 
L 109.167725 273.904082 
L 118.692675 273.868596 
L 128.217625 273.817251 
L 137.742575 273.750446 
L 147.267525 273.661305 
L 156.792475 273.510129 
L 166.317425 273.271518 
L 175.842375 272.956767 
L 185.367325 272.510363 
L 194.892275 271.855515 
L 204.417225 270.879339 
L 213.942175 269.476235 
L 223.467125 267.526696 
L 232.992075 264.872066 
L 242.517025 261.30661 
L 252.041975 256.565618 
L 261.566925 250.350803 
L 271.091875 242.537085 
L 280.616825 233.140227 
L 290.141775 222.126298 
L 299.666725 209.157308 
L 309.191675 194.295244 
L 318.716625 177.87383 
L 328.241575 160.218156 
L 337.766525 141.73377 
L 347.291475 123.11487 
L 356.816425 104.895997 
L 366.341375 88.114559 
L 375.866325 73.697945 
L 385.391275 61.743677 
L 394.916225 52.44148 
L 404.441175 46.059225 
L 413.966125 43.561845 
L 423.491075 44.66902 
L 433.016025 49.095813 
L 442.540975 56.166194 
L 452.065925 64.80506 
L 461.590875 75.642867 
L 471.115825 88.771064 
L 480.640775 103.513772 
L 490.165725 119.475482 
L 499.690675 135.265236 
L 509.215625 150.050757 
L 518.740575 164.709696 
L 528.265525 179.192412 
L 537.790475 192.649916 
L 547.315425 204.598562 
L 556.840375 214.943689 
L 566.365325 223.781665 
L 575.890275 231.484459 
L 585.415225 238.458371 
L 594.940175 244.573155 
L 604.465125 249.7474 
L 613.990075 254.078126 
L 623.515025 257.666118 
L 633.039975 260.659741 
L 642.564925 263.168515 
L 652.089875 265.315859 
L 661.614825 267.079489 
L 671.139775 268.437321 
L 680.664725 269.511821 
L 690.189675 270.45497 
L 699.714625 271.199963 
L 709.239575 271.66835 
L 718.764525 272.041926 
L 728.289475 272.409679 
L 737.814425 272.710728 
L 747.339375 272.975137 
L 756.864325 273.215153 
L 766.389275 273.373357 
L 775.914225 273.468068 
L 785.439175 273.540896 
L 794.964125 273.609909 
L 804.489075 273.679625 
L 814.014025 273.742064 
L 823.538975 273.789846 
L 833.063925 273.835771 
L 842.588875 273.892638 
L 852.113825 273.93776 
L 861.638775 273.959845 
L 871.163725 273.973145 
L 880.688675 273.982531 
L 890.213625 273.985493 
L 899.738575 273.986898 
L 909.263525 273.987701 
L 918.788475 273.988655 
L 928.313425 273.989408 
L 937.838375 273.989859 
L 947.363325 273.98996 
L 956.888275 273.98996 
L 966.413225 273.99001 
L 975.938175 273.99006 
L 985.463125 273.99006 
" style="fill:none;stroke:#5cb85c;stroke-linecap:square;"/>
   </g>
   <g id="line2d_12">
    <path clip-path="url(#p13ae42df6d)" d="M 32.968125 273.986447 
L 42.493075 273.984991 
L 52.018025 273.98188 
L 61.542975 273.978166 
L 71.067925 273.973198 
L 80.592875 273.966222 
L 90.117825 273.95187 
L 99.642775 273.930692 
L 109.167725 273.9057 
L 118.692675 273.868262 
L 128.217625 273.816673 
L 137.742575 273.746114 
L 147.267525 273.651265 
L 156.792475 273.493837 
L 166.317425 273.25521 
L 175.842375 272.927355 
L 185.367325 272.472082 
L 194.892275 271.807541 
L 204.417225 270.828242 
L 213.942175 269.425739 
L 223.467125 267.476176 
L 232.992075 264.781324 
L 242.517025 261.207894 
L 252.041975 256.497788 
L 261.566925 250.399129 
L 271.091875 242.681573 
L 280.616825 233.292926 
L 290.141775 222.213617 
L 299.666725 209.279393 
L 309.191675 194.532608 
L 318.716625 178.172295 
L 328.241575 160.413644 
L 337.766525 141.89741 
L 347.291475 123.312372 
L 356.816425 105.211564 
L 366.341375 88.531326 
L 375.866325 73.929424 
L 385.391275 61.987495 
L 394.916225 52.491906 
L 404.441175 46.14097 
L 413.966125 43.662664 
L 423.491075 44.758089 
L 433.016025 49.258023 
L 442.540975 56.278268 
L 452.065925 64.940546 
L 461.590875 75.752824 
L 471.115825 88.801669 
L 480.640775 103.330553 
L 490.165725 119.051717 
L 499.690675 134.962428 
L 509.215625 149.949044 
L 518.740575 164.514663 
L 528.265525 178.882956 
L 537.790475 192.182272 
L 547.315425 204.160032 
L 556.840375 214.681843 
L 566.365325 223.697419 
L 575.890275 231.518506 
L 585.415225 238.478479 
L 594.940175 244.537492 
L 604.465125 249.684955 
L 613.990075 254.03524 
L 623.515025 257.651828 
L 633.039975 260.627512 
L 642.564925 263.152941 
L 652.089875 265.288588 
L 661.614825 267.054125 
L 671.139775 268.410208 
L 680.664725 269.476526 
L 690.189675 270.417533 
L 699.714625 271.174866 
L 709.239575 271.68208 
L 718.764525 272.060269 
L 728.289475 272.419088 
L 737.814425 272.717986 
L 747.339375 272.969711 
L 756.864325 273.191927 
L 766.389275 273.361751 
L 775.914225 273.452886 
L 785.439175 273.520685 
L 794.964125 273.605798 
L 804.489075 273.677662 
L 814.014025 273.733768 
L 823.538975 273.787917 
L 833.063925 273.838102 
L 842.588875 273.884874 
L 852.113825 273.931645 
L 861.638775 273.959849 
L 871.163725 273.972596 
L 880.688675 273.979822 
L 890.213625 273.984389 
L 899.738575 273.986848 
L 909.263525 273.986898 
L 918.788475 273.988103 
L 928.313425 273.989357 
L 937.838375 273.989809 
L 947.363325 273.989909 
L 956.888275 273.98996 
L 966.413225 273.99006 
L 975.938175 273.99006 
L 985.463125 273.99006 
" style="fill:none;stroke:#5cb85c;stroke-linecap:square;"/>
   </g>
   <g id="line2d_13">
    <path clip-path="url(#p13ae42df6d)" d="M 32.968125 273.99006 
L 985.463125 273.99006 
" style="fill:none;stroke:#dedede;stroke-linecap:square;stroke-width:2;"/>
   </g>
   <g id="text_15">
    <!-- FastQC: Per Sequence GC Content -->
    <defs>
     <path d="M 9.8125 72.90625 
L 51.703125 72.90625 
L 51.703125 64.59375 
L 19.671875 64.59375 
L 19.671875 43.109375 
L 48.578125 43.109375 
L 48.578125 34.8125 
L 19.671875 34.8125 
L 19.671875 0 
L 9.8125 0 
z
" id="DejaVuSans-70"/>
     <path d="M 44.28125 53.078125 
L 44.28125 44.578125 
Q 40.484375 46.53125 36.375 47.5 
Q 32.28125 48.484375 27.875 48.484375 
Q 21.1875 48.484375 17.84375 46.4375 
Q 14.5 44.390625 14.5 40.28125 
Q 14.5 37.15625 16.890625 35.375 
Q 19.28125 33.59375 26.515625 31.984375 
L 29.59375 31.296875 
Q 39.15625 29.25 43.1875 25.515625 
Q 47.21875 21.78125 47.21875 15.09375 
Q 47.21875 7.46875 41.1875 3.015625 
Q 35.15625 -1.421875 24.609375 -1.421875 
Q 20.21875 -1.421875 15.453125 -0.5625 
Q 10.6875 0.296875 5.421875 2 
L 5.421875 11.28125 
Q 10.40625 8.6875 15.234375 7.390625 
Q 20.0625 6.109375 24.8125 6.109375 
Q 31.15625 6.109375 34.5625 8.28125 
Q 37.984375 10.453125 37.984375 14.40625 
Q 37.984375 18.0625 35.515625 20.015625 
Q 33.0625 21.96875 24.703125 23.78125 
L 21.578125 24.515625 
Q 13.234375 26.265625 9.515625 29.90625 
Q 5.8125 33.546875 5.8125 39.890625 
Q 5.8125 47.609375 11.28125 51.796875 
Q 16.75 56 26.8125 56 
Q 31.78125 56 36.171875 55.265625 
Q 40.578125 54.546875 44.28125 53.078125 
z
" id="DejaVuSans-115"/>
     <path d="M 39.40625 66.21875 
Q 28.65625 66.21875 22.328125 58.203125 
Q 16.015625 50.203125 16.015625 36.375 
Q 16.015625 22.609375 22.328125 14.59375 
Q 28.65625 6.59375 39.40625 6.59375 
Q 50.140625 6.59375 56.421875 14.59375 
Q 62.703125 22.609375 62.703125 36.375 
Q 62.703125 50.203125 56.421875 58.203125 
Q 50.140625 66.21875 39.40625 66.21875 
z
M 53.21875 1.3125 
L 66.21875 -12.890625 
L 54.296875 -12.890625 
L 43.5 -1.21875 
Q 41.890625 -1.3125 41.03125 -1.359375 
Q 40.1875 -1.421875 39.40625 -1.421875 
Q 24.03125 -1.421875 14.8125 8.859375 
Q 5.609375 19.140625 5.609375 36.375 
Q 5.609375 53.65625 14.8125 63.9375 
Q 24.03125 74.21875 39.40625 74.21875 
Q 54.734375 74.21875 63.90625 63.9375 
Q 73.09375 53.65625 73.09375 36.375 
Q 73.09375 23.6875 67.984375 14.640625 
Q 62.890625 5.609375 53.21875 1.3125 
z
" id="DejaVuSans-81"/>
     <path d="M 11.71875 12.40625 
L 22.015625 12.40625 
L 22.015625 0 
L 11.71875 0 
z
M 11.71875 51.703125 
L 22.015625 51.703125 
L 22.015625 39.3125 
L 11.71875 39.3125 
z
" id="DejaVuSans-58"/>
     <path d="M 53.515625 70.515625 
L 53.515625 60.890625 
Q 47.90625 63.578125 42.921875 64.890625 
Q 37.9375 66.21875 33.296875 66.21875 
Q 25.25 66.21875 20.875 63.09375 
Q 16.5 59.96875 16.5 54.203125 
Q 16.5 49.359375 19.40625 46.890625 
Q 22.3125 44.4375 30.421875 42.921875 
L 36.375 41.703125 
Q 47.40625 39.59375 52.65625 34.296875 
Q 57.90625 29 57.90625 20.125 
Q 57.90625 9.515625 50.796875 4.046875 
Q 43.703125 -1.421875 29.984375 -1.421875 
Q 24.8125 -1.421875 18.96875 -0.25 
Q 13.140625 0.921875 6.890625 3.21875 
L 6.890625 13.375 
Q 12.890625 10.015625 18.65625 8.296875 
Q 24.421875 6.59375 29.984375 6.59375 
Q 38.421875 6.59375 43.015625 9.90625 
Q 47.609375 13.234375 47.609375 19.390625 
Q 47.609375 24.75 44.3125 27.78125 
Q 41.015625 30.8125 33.5 32.328125 
L 27.484375 33.5 
Q 16.453125 35.6875 11.515625 40.375 
Q 6.59375 45.0625 6.59375 53.421875 
Q 6.59375 63.09375 13.40625 68.65625 
Q 20.21875 74.21875 32.171875 74.21875 
Q 37.3125 74.21875 42.625 73.28125 
Q 47.953125 72.359375 53.515625 70.515625 
z
" id="DejaVuSans-83"/>
     <path d="M 14.796875 27.296875 
Q 14.796875 17.390625 18.875 11.75 
Q 22.953125 6.109375 30.078125 6.109375 
Q 37.203125 6.109375 41.296875 11.75 
Q 45.40625 17.390625 45.40625 27.296875 
Q 45.40625 37.203125 41.296875 42.84375 
Q 37.203125 48.484375 30.078125 48.484375 
Q 22.953125 48.484375 18.875 42.84375 
Q 14.796875 37.203125 14.796875 27.296875 
z
M 45.40625 8.203125 
Q 42.578125 3.328125 38.25 0.953125 
Q 33.9375 -1.421875 27.875 -1.421875 
Q 17.96875 -1.421875 11.734375 6.484375 
Q 5.515625 14.40625 5.515625 27.296875 
Q 5.515625 40.1875 11.734375 48.09375 
Q 17.96875 56 27.875 56 
Q 33.9375 56 38.25 53.625 
Q 42.578125 51.265625 45.40625 46.390625 
L 45.40625 54.6875 
L 54.390625 54.6875 
L 54.390625 -20.796875 
L 45.40625 -20.796875 
z
" id="DejaVuSans-113"/>
     <path d="M 8.5 21.578125 
L 8.5 54.6875 
L 17.484375 54.6875 
L 17.484375 21.921875 
Q 17.484375 14.15625 20.5 10.265625 
Q 23.53125 6.390625 29.59375 6.390625 
Q 36.859375 6.390625 41.078125 11.03125 
Q 45.3125 15.671875 45.3125 23.6875 
L 45.3125 54.6875 
L 54.296875 54.6875 
L 54.296875 0 
L 45.3125 0 
L 45.3125 8.40625 
Q 42.046875 3.421875 37.71875 1 
Q 33.40625 -1.421875 27.6875 -1.421875 
Q 18.265625 -1.421875 13.375 4.4375 
Q 8.5 10.296875 8.5 21.578125 
z
M 31.109375 56 
z
" id="DejaVuSans-117"/>
     <path d="M 30.609375 48.390625 
Q 23.390625 48.390625 19.1875 42.75 
Q 14.984375 37.109375 14.984375 27.296875 
Q 14.984375 17.484375 19.15625 11.84375 
Q 23.34375 6.203125 30.609375 6.203125 
Q 37.796875 6.203125 41.984375 11.859375 
Q 46.1875 17.53125 46.1875 27.296875 
Q 46.1875 37.015625 41.984375 42.703125 
Q 37.796875 48.390625 30.609375 48.390625 
z
M 30.609375 56 
Q 42.328125 56 49.015625 48.375 
Q 55.71875 40.765625 55.71875 27.296875 
Q 55.71875 13.875 49.015625 6.21875 
Q 42.328125 -1.421875 30.609375 -1.421875 
Q 18.84375 -1.421875 12.171875 6.21875 
Q 5.515625 13.875 5.515625 27.296875 
Q 5.515625 40.765625 12.171875 48.375 
Q 18.84375 56 30.609375 56 
z
" id="DejaVuSans-111"/>
    </defs>
    <g transform="translate(371.574375 19.3575)scale(0.16 -0.16)">
     <use xlink:href="#DejaVuSans-70"/>
     <use x="57.378906" xlink:href="#DejaVuSans-97"/>
     <use x="118.658203" xlink:href="#DejaVuSans-115"/>
     <use x="170.757812" xlink:href="#DejaVuSans-116"/>
     <use x="209.966797" xlink:href="#DejaVuSans-81"/>
     <use x="288.677734" xlink:href="#DejaVuSans-67"/>
     <use x="358.501953" xlink:href="#DejaVuSans-58"/>
     <use x="392.193359" xlink:href="#DejaVuSans-32"/>
     <use x="423.980469" xlink:href="#DejaVuSans-80"/>
     <use x="484.236328" xlink:href="#DejaVuSans-101"/>
     <use x="545.759766" xlink:href="#DejaVuSans-114"/>
     <use x="586.873047" xlink:href="#DejaVuSans-32"/>
     <use x="618.660156" xlink:href="#DejaVuSans-83"/>
     <use x="682.136719" xlink:href="#DejaVuSans-101"/>
     <use x="743.660156" xlink:href="#DejaVuSans-113"/>
     <use x="807.136719" xlink:href="#DejaVuSans-117"/>
     <use x="870.515625" xlink:href="#DejaVuSans-101"/>
     <use x="932.039062" xlink:href="#DejaVuSans-110"/>
     <use x="995.417969" xlink:href="#DejaVuSans-99"/>
     <use x="1050.398438" xlink:href="#DejaVuSans-101"/>
     <use x="1111.921875" xlink:href="#DejaVuSans-32"/>
     <use x="1143.708984" xlink:href="#DejaVuSans-71"/>
     <use x="1221.199219" xlink:href="#DejaVuSans-67"/>
     <use x="1291.023438" xlink:href="#DejaVuSans-32"/>
     <use x="1322.810547" xlink:href="#DejaVuSans-67"/>
     <use x="1392.634766" xlink:href="#DejaVuSans-111"/>
     <use x="1453.816406" xlink:href="#DejaVuSans-110"/>
     <use x="1517.195312" xlink:href="#DejaVuSans-116"/>
     <use x="1556.404297" xlink:href="#DejaVuSans-101"/>
     <use x="1617.927734" xlink:href="#DejaVuSans-110"/>
     <use x="1681.306641" xlink:href="#DejaVuSans-116"/>
    </g>
   </g>
   <g id="legend_1">
    <g id="line2d_14">
     <path d="M 40.168125 303.490394 
L 56.168125 303.490394 
" style="fill:none;stroke:#5cb85c;stroke-linecap:square;"/>
    </g>
    <g id="line2d_15"/>
    <g id="text_16">
     <!-- Cvi-CPal_079-Ex1-1A-ssl-1-1.clmp.r1 -->
     <defs>
      <path d="M 2.984375 54.6875 
L 12.5 54.6875 
L 29.59375 8.796875 
L 46.6875 54.6875 
L 56.203125 54.6875 
L 35.6875 0 
L 23.484375 0 
z
" id="DejaVuSans-118"/>
      <path d="M 9.421875 54.6875 
L 18.40625 54.6875 
L 18.40625 0 
L 9.421875 0 
z
M 9.421875 75.984375 
L 18.40625 75.984375 
L 18.40625 64.59375 
L 9.421875 64.59375 
z
" id="DejaVuSans-105"/>
      <path d="M 4.890625 31.390625 
L 31.203125 31.390625 
L 31.203125 23.390625 
L 4.890625 23.390625 
z
" id="DejaVuSans-45"/>
      <path d="M 9.421875 75.984375 
L 18.40625 75.984375 
L 18.40625 0 
L 9.421875 0 
z
" id="DejaVuSans-108"/>
      <path d="M 50.984375 -16.609375 
L 50.984375 -23.578125 
L -0.984375 -23.578125 
L -0.984375 -16.609375 
z
" id="DejaVuSans-95"/>
      <path d="M 8.203125 72.90625 
L 55.078125 72.90625 
L 55.078125 68.703125 
L 28.609375 0 
L 18.3125 0 
L 43.21875 64.59375 
L 8.203125 64.59375 
z
" id="DejaVuSans-55"/>
      <path d="M 10.984375 1.515625 
L 10.984375 10.5 
Q 14.703125 8.734375 18.5 7.8125 
Q 22.3125 6.890625 25.984375 6.890625 
Q 35.75 6.890625 40.890625 13.453125 
Q 46.046875 20.015625 46.78125 33.40625 
Q 43.953125 29.203125 39.59375 26.953125 
Q 35.25 24.703125 29.984375 24.703125 
Q 19.046875 24.703125 12.671875 31.3125 
Q 6.296875 37.9375 6.296875 49.421875 
Q 6.296875 60.640625 12.9375 67.421875 
Q 19.578125 74.21875 30.609375 74.21875 
Q 43.265625 74.21875 49.921875 64.515625 
Q 56.59375 54.828125 56.59375 36.375 
Q 56.59375 19.140625 48.40625 8.859375 
Q 40.234375 -1.421875 26.421875 -1.421875 
Q 22.703125 -1.421875 18.890625 -0.6875 
Q 15.09375 0.046875 10.984375 1.515625 
z
M 30.609375 32.421875 
Q 37.25 32.421875 41.125 36.953125 
Q 45.015625 41.5 45.015625 49.421875 
Q 45.015625 57.28125 41.125 61.84375 
Q 37.25 66.40625 30.609375 66.40625 
Q 23.96875 66.40625 20.09375 61.84375 
Q 16.21875 57.28125 16.21875 49.421875 
Q 16.21875 41.5 20.09375 36.953125 
Q 23.96875 32.421875 30.609375 32.421875 
z
" id="DejaVuSans-57"/>
      <path d="M 9.8125 72.90625 
L 55.90625 72.90625 
L 55.90625 64.59375 
L 19.671875 64.59375 
L 19.671875 43.015625 
L 54.390625 43.015625 
L 54.390625 34.71875 
L 19.671875 34.71875 
L 19.671875 8.296875 
L 56.78125 8.296875 
L 56.78125 0 
L 9.8125 0 
z
" id="DejaVuSans-69"/>
      <path d="M 54.890625 54.6875 
L 35.109375 28.078125 
L 55.90625 0 
L 45.3125 0 
L 29.390625 21.484375 
L 13.484375 0 
L 2.875 0 
L 24.125 28.609375 
L 4.6875 54.6875 
L 15.28125 54.6875 
L 29.78125 35.203125 
L 44.28125 54.6875 
z
" id="DejaVuSans-120"/>
      <path d="M 34.1875 63.1875 
L 20.796875 26.90625 
L 47.609375 26.90625 
z
M 28.609375 72.90625 
L 39.796875 72.90625 
L 67.578125 0 
L 57.328125 0 
L 50.6875 18.703125 
L 17.828125 18.703125 
L 11.1875 0 
L 0.78125 0 
z
" id="DejaVuSans-65"/>
      <path d="M 10.6875 12.40625 
L 21 12.40625 
L 21 0 
L 10.6875 0 
z
" id="DejaVuSans-46"/>
      <path d="M 52 44.1875 
Q 55.375 50.25 60.0625 53.125 
Q 64.75 56 71.09375 56 
Q 79.640625 56 84.28125 50.015625 
Q 88.921875 44.046875 88.921875 33.015625 
L 88.921875 0 
L 79.890625 0 
L 79.890625 32.71875 
Q 79.890625 40.578125 77.09375 44.375 
Q 74.3125 48.1875 68.609375 48.1875 
Q 61.625 48.1875 57.5625 43.546875 
Q 53.515625 38.921875 53.515625 30.90625 
L 53.515625 0 
L 44.484375 0 
L 44.484375 32.71875 
Q 44.484375 40.625 41.703125 44.40625 
Q 38.921875 48.1875 33.109375 48.1875 
Q 26.21875 48.1875 22.15625 43.53125 
Q 18.109375 38.875 18.109375 30.90625 
L 18.109375 0 
L 9.078125 0 
L 9.078125 54.6875 
L 18.109375 54.6875 
L 18.109375 46.1875 
Q 21.1875 51.21875 25.484375 53.609375 
Q 29.78125 56 35.6875 56 
Q 41.65625 56 45.828125 52.96875 
Q 50 49.953125 52 44.1875 
z
" id="DejaVuSans-109"/>
      <path d="M 18.109375 8.203125 
L 18.109375 -20.796875 
L 9.078125 -20.796875 
L 9.078125 54.6875 
L 18.109375 54.6875 
L 18.109375 46.390625 
Q 20.953125 51.265625 25.265625 53.625 
Q 29.59375 56 35.59375 56 
Q 45.5625 56 51.78125 48.09375 
Q 58.015625 40.1875 58.015625 27.296875 
Q 58.015625 14.40625 51.78125 6.484375 
Q 45.5625 -1.421875 35.59375 -1.421875 
Q 29.59375 -1.421875 25.265625 0.953125 
Q 20.953125 3.328125 18.109375 8.203125 
z
M 48.6875 27.296875 
Q 48.6875 37.203125 44.609375 42.84375 
Q 40.53125 48.484375 33.40625 48.484375 
Q 26.265625 48.484375 22.1875 42.84375 
Q 18.109375 37.203125 18.109375 27.296875 
Q 18.109375 17.390625 22.1875 11.75 
Q 26.265625 6.109375 33.40625 6.109375 
Q 40.53125 6.109375 44.609375 11.75 
Q 48.6875 17.390625 48.6875 27.296875 
z
" id="DejaVuSans-112"/>
     </defs>
     <g transform="translate(62.568125 306.290394)scale(0.08 -0.08)">
      <use xlink:href="#DejaVuSans-67"/>
      <use x="69.824219" xlink:href="#DejaVuSans-118"/>
      <use x="129.003906" xlink:href="#DejaVuSans-105"/>
      <use x="156.787109" xlink:href="#DejaVuSans-45"/>
      <use x="192.871094" xlink:href="#DejaVuSans-67"/>
      <use x="262.695312" xlink:href="#DejaVuSans-80"/>
      <use x="322.935547" xlink:href="#DejaVuSans-97"/>
      <use x="384.214844" xlink:href="#DejaVuSans-108"/>
      <use x="411.998047" xlink:href="#DejaVuSans-95"/>
      <use x="461.998047" xlink:href="#DejaVuSans-48"/>
      <use x="525.621094" xlink:href="#DejaVuSans-55"/>
      <use x="589.244141" xlink:href="#DejaVuSans-57"/>
      <use x="652.867188" xlink:href="#DejaVuSans-45"/>
      <use x="688.951172" xlink:href="#DejaVuSans-69"/>
      <use x="752.134766" xlink:href="#DejaVuSans-120"/>
      <use x="811.314453" xlink:href="#DejaVuSans-49"/>
      <use x="874.9375" xlink:href="#DejaVuSans-45"/>
      <use x="911.021484" xlink:href="#DejaVuSans-49"/>
      <use x="974.644531" xlink:href="#DejaVuSans-65"/>
      <use x="1043.021484" xlink:href="#DejaVuSans-45"/>
      <use x="1079.105469" xlink:href="#DejaVuSans-115"/>
      <use x="1131.205078" xlink:href="#DejaVuSans-115"/>
      <use x="1183.304688" xlink:href="#DejaVuSans-108"/>
      <use x="1211.087891" xlink:href="#DejaVuSans-45"/>
      <use x="1247.171875" xlink:href="#DejaVuSans-49"/>
      <use x="1310.794922" xlink:href="#DejaVuSans-45"/>
      <use x="1346.878906" xlink:href="#DejaVuSans-49"/>
      <use x="1410.501953" xlink:href="#DejaVuSans-46"/>
      <use x="1442.289062" xlink:href="#DejaVuSans-99"/>
      <use x="1497.269531" xlink:href="#DejaVuSans-108"/>
      <use x="1525.052734" xlink:href="#DejaVuSans-109"/>
      <use x="1622.464844" xlink:href="#DejaVuSans-112"/>
      <use x="1685.941406" xlink:href="#DejaVuSans-46"/>
      <use x="1717.728516" xlink:href="#DejaVuSans-114"/>
      <use x="1758.841797" xlink:href="#DejaVuSans-49"/>
     </g>
    </g>
    <g id="line2d_16">
     <path d="M 40.168125 315.455394 
L 56.168125 315.455394 
" style="fill:none;stroke:#5cb85c;stroke-linecap:square;"/>
    </g>
    <g id="line2d_17"/>
    <g id="text_17">
     <!-- Cvi-CPal_079-Ex1-1A-ssl-1-1.clmp.r2 -->
     <g transform="translate(62.568125 318.255394)scale(0.08 -0.08)">
      <use xlink:href="#DejaVuSans-67"/>
      <use x="69.824219" xlink:href="#DejaVuSans-118"/>
      <use x="129.003906" xlink:href="#DejaVuSans-105"/>
      <use x="156.787109" xlink:href="#DejaVuSans-45"/>
      <use x="192.871094" xlink:href="#DejaVuSans-67"/>
      <use x="262.695312" xlink:href="#DejaVuSans-80"/>
      <use x="322.935547" xlink:href="#DejaVuSans-97"/>
      <use x="384.214844" xlink:href="#DejaVuSans-108"/>
      <use x="411.998047" xlink:href="#DejaVuSans-95"/>
      <use x="461.998047" xlink:href="#DejaVuSans-48"/>
      <use x="525.621094" xlink:href="#DejaVuSans-55"/>
      <use x="589.244141" xlink:href="#DejaVuSans-57"/>
      <use x="652.867188" xlink:href="#DejaVuSans-45"/>
      <use x="688.951172" xlink:href="#DejaVuSans-69"/>
      <use x="752.134766" xlink:href="#DejaVuSans-120"/>
      <use x="811.314453" xlink:href="#DejaVuSans-49"/>
      <use x="874.9375" xlink:href="#DejaVuSans-45"/>
      <use x="911.021484" xlink:href="#DejaVuSans-49"/>
      <use x="974.644531" xlink:href="#DejaVuSans-65"/>
      <use x="1043.021484" xlink:href="#DejaVuSans-45"/>
      <use x="1079.105469" xlink:href="#DejaVuSans-115"/>
      <use x="1131.205078" xlink:href="#DejaVuSans-115"/>
      <use x="1183.304688" xlink:href="#DejaVuSans-108"/>
      <use x="1211.087891" xlink:href="#DejaVuSans-45"/>
      <use x="1247.171875" xlink:href="#DejaVuSans-49"/>
      <use x="1310.794922" xlink:href="#DejaVuSans-45"/>
      <use x="1346.878906" xlink:href="#DejaVuSans-49"/>
      <use x="1410.501953" xlink:href="#DejaVuSans-46"/>
      <use x="1442.289062" xlink:href="#DejaVuSans-99"/>
      <use x="1497.269531" xlink:href="#DejaVuSans-108"/>
      <use x="1525.052734" xlink:href="#DejaVuSans-109"/>
      <use x="1622.464844" xlink:href="#DejaVuSans-112"/>
      <use x="1685.941406" xlink:href="#DejaVuSans-46"/>
      <use x="1717.728516" xlink:href="#DejaVuSans-114"/>
      <use x="1758.841797" xlink:href="#DejaVuSans-50"/>
     </g>
    </g>
    <g id="line2d_18">
     <path d="M 232.575625 303.490394 
L 248.575625 303.490394 
" style="fill:none;stroke:#5cb85c;stroke-linecap:square;"/>
    </g>
    <g id="line2d_19"/>
    <g id="text_18">
     <!-- Cvi-CPal_079-Ex1-1B-ssl-1-1.clmp.r1 -->
     <defs>
      <path d="M 19.671875 34.8125 
L 19.671875 8.109375 
L 35.5 8.109375 
Q 43.453125 8.109375 47.28125 11.40625 
Q 51.125 14.703125 51.125 21.484375 
Q 51.125 28.328125 47.28125 31.5625 
Q 43.453125 34.8125 35.5 34.8125 
z
M 19.671875 64.796875 
L 19.671875 42.828125 
L 34.28125 42.828125 
Q 41.5 42.828125 45.03125 45.53125 
Q 48.578125 48.25 48.578125 53.8125 
Q 48.578125 59.328125 45.03125 62.0625 
Q 41.5 64.796875 34.28125 64.796875 
z
M 9.8125 72.90625 
L 35.015625 72.90625 
Q 46.296875 72.90625 52.390625 68.21875 
Q 58.5 63.53125 58.5 54.890625 
Q 58.5 48.1875 55.375 44.234375 
Q 52.25 40.28125 46.1875 39.3125 
Q 53.46875 37.75 57.5 32.78125 
Q 61.53125 27.828125 61.53125 20.40625 
Q 61.53125 10.640625 54.890625 5.3125 
Q 48.25 0 35.984375 0 
L 9.8125 0 
z
" id="DejaVuSans-66"/>
     </defs>
     <g transform="translate(254.975625 306.290394)scale(0.08 -0.08)">
      <use xlink:href="#DejaVuSans-67"/>
      <use x="69.824219" xlink:href="#DejaVuSans-118"/>
      <use x="129.003906" xlink:href="#DejaVuSans-105"/>
      <use x="156.787109" xlink:href="#DejaVuSans-45"/>
      <use x="192.871094" xlink:href="#DejaVuSans-67"/>
      <use x="262.695312" xlink:href="#DejaVuSans-80"/>
      <use x="322.935547" xlink:href="#DejaVuSans-97"/>
      <use x="384.214844" xlink:href="#DejaVuSans-108"/>
      <use x="411.998047" xlink:href="#DejaVuSans-95"/>
      <use x="461.998047" xlink:href="#DejaVuSans-48"/>
      <use x="525.621094" xlink:href="#DejaVuSans-55"/>
      <use x="589.244141" xlink:href="#DejaVuSans-57"/>
      <use x="652.867188" xlink:href="#DejaVuSans-45"/>
      <use x="688.951172" xlink:href="#DejaVuSans-69"/>
      <use x="752.134766" xlink:href="#DejaVuSans-120"/>
      <use x="811.314453" xlink:href="#DejaVuSans-49"/>
      <use x="874.9375" xlink:href="#DejaVuSans-45"/>
      <use x="911.021484" xlink:href="#DejaVuSans-49"/>
      <use x="974.644531" xlink:href="#DejaVuSans-66"/>
      <use x="1043.248047" xlink:href="#DejaVuSans-45"/>
      <use x="1079.332031" xlink:href="#DejaVuSans-115"/>
      <use x="1131.431641" xlink:href="#DejaVuSans-115"/>
      <use x="1183.53125" xlink:href="#DejaVuSans-108"/>
      <use x="1211.314453" xlink:href="#DejaVuSans-45"/>
      <use x="1247.398438" xlink:href="#DejaVuSans-49"/>
      <use x="1311.021484" xlink:href="#DejaVuSans-45"/>
      <use x="1347.105469" xlink:href="#DejaVuSans-49"/>
      <use x="1410.728516" xlink:href="#DejaVuSans-46"/>
      <use x="1442.515625" xlink:href="#DejaVuSans-99"/>
      <use x="1497.496094" xlink:href="#DejaVuSans-108"/>
      <use x="1525.279297" xlink:href="#DejaVuSans-109"/>
      <use x="1622.691406" xlink:href="#DejaVuSans-112"/>
      <use x="1686.167969" xlink:href="#DejaVuSans-46"/>
      <use x="1717.955078" xlink:href="#DejaVuSans-114"/>
      <use x="1759.068359" xlink:href="#DejaVuSans-49"/>
     </g>
    </g>
    <g id="line2d_20">
     <path d="M 425.001875 303.490394 
L 441.001875 303.490394 
" style="fill:none;stroke:#5cb85c;stroke-linecap:square;"/>
    </g>
    <g id="line2d_21"/>
    <g id="text_19">
     <!-- Cvi-CPal_079-Ex1-1B-ssl-1-1.clmp.r2 -->
     <g transform="translate(447.401875 306.290394)scale(0.08 -0.08)">
      <use xlink:href="#DejaVuSans-67"/>
      <use x="69.824219" xlink:href="#DejaVuSans-118"/>
      <use x="129.003906" xlink:href="#DejaVuSans-105"/>
      <use x="156.787109" xlink:href="#DejaVuSans-45"/>
      <use x="192.871094" xlink:href="#DejaVuSans-67"/>
      <use x="262.695312" xlink:href="#DejaVuSans-80"/>
      <use x="322.935547" xlink:href="#DejaVuSans-97"/>
      <use x="384.214844" xlink:href="#DejaVuSans-108"/>
      <use x="411.998047" xlink:href="#DejaVuSans-95"/>
      <use x="461.998047" xlink:href="#DejaVuSans-48"/>
      <use x="525.621094" xlink:href="#DejaVuSans-55"/>
      <use x="589.244141" xlink:href="#DejaVuSans-57"/>
      <use x="652.867188" xlink:href="#DejaVuSans-45"/>
      <use x="688.951172" xlink:href="#DejaVuSans-69"/>
      <use x="752.134766" xlink:href="#DejaVuSans-120"/>
      <use x="811.314453" xlink:href="#DejaVuSans-49"/>
      <use x="874.9375" xlink:href="#DejaVuSans-45"/>
      <use x="911.021484" xlink:href="#DejaVuSans-49"/>
      <use x="974.644531" xlink:href="#DejaVuSans-66"/>
      <use x="1043.248047" xlink:href="#DejaVuSans-45"/>
      <use x="1079.332031" xlink:href="#DejaVuSans-115"/>
      <use x="1131.431641" xlink:href="#DejaVuSans-115"/>
      <use x="1183.53125" xlink:href="#DejaVuSans-108"/>
      <use x="1211.314453" xlink:href="#DejaVuSans-45"/>
      <use x="1247.398438" xlink:href="#DejaVuSans-49"/>
      <use x="1311.021484" xlink:href="#DejaVuSans-45"/>
      <use x="1347.105469" xlink:href="#DejaVuSans-49"/>
      <use x="1410.728516" xlink:href="#DejaVuSans-46"/>
      <use x="1442.515625" xlink:href="#DejaVuSans-99"/>
      <use x="1497.496094" xlink:href="#DejaVuSans-108"/>
      <use x="1525.279297" xlink:href="#DejaVuSans-109"/>
      <use x="1622.691406" xlink:href="#DejaVuSans-112"/>
      <use x="1686.167969" xlink:href="#DejaVuSans-46"/>
      <use x="1717.955078" xlink:href="#DejaVuSans-114"/>
      <use x="1759.068359" xlink:href="#DejaVuSans-50"/>
     </g>
    </g>
    <g id="line2d_22">
     <path d="M 617.428125 303.490394 
L 633.428125 303.490394 
" style="fill:none;stroke:#5cb85c;stroke-linecap:square;"/>
    </g>
    <g id="line2d_23"/>
    <g id="text_20">
     <!-- Cvi-CPal_079-Ex1-1C-ssl-1-1.clmp.r1 -->
     <g transform="translate(639.828125 306.290394)scale(0.08 -0.08)">
      <use xlink:href="#DejaVuSans-67"/>
      <use x="69.824219" xlink:href="#DejaVuSans-118"/>
      <use x="129.003906" xlink:href="#DejaVuSans-105"/>
      <use x="156.787109" xlink:href="#DejaVuSans-45"/>
      <use x="192.871094" xlink:href="#DejaVuSans-67"/>
      <use x="262.695312" xlink:href="#DejaVuSans-80"/>
      <use x="322.935547" xlink:href="#DejaVuSans-97"/>
      <use x="384.214844" xlink:href="#DejaVuSans-108"/>
      <use x="411.998047" xlink:href="#DejaVuSans-95"/>
      <use x="461.998047" xlink:href="#DejaVuSans-48"/>
      <use x="525.621094" xlink:href="#DejaVuSans-55"/>
      <use x="589.244141" xlink:href="#DejaVuSans-57"/>
      <use x="652.867188" xlink:href="#DejaVuSans-45"/>
      <use x="688.951172" xlink:href="#DejaVuSans-69"/>
      <use x="752.134766" xlink:href="#DejaVuSans-120"/>
      <use x="811.314453" xlink:href="#DejaVuSans-49"/>
      <use x="874.9375" xlink:href="#DejaVuSans-45"/>
      <use x="911.021484" xlink:href="#DejaVuSans-49"/>
      <use x="974.644531" xlink:href="#DejaVuSans-67"/>
      <use x="1044.46875" xlink:href="#DejaVuSans-45"/>
      <use x="1080.552734" xlink:href="#DejaVuSans-115"/>
      <use x="1132.652344" xlink:href="#DejaVuSans-115"/>
      <use x="1184.751953" xlink:href="#DejaVuSans-108"/>
      <use x="1212.535156" xlink:href="#DejaVuSans-45"/>
      <use x="1248.619141" xlink:href="#DejaVuSans-49"/>
      <use x="1312.242188" xlink:href="#DejaVuSans-45"/>
      <use x="1348.326172" xlink:href="#DejaVuSans-49"/>
      <use x="1411.949219" xlink:href="#DejaVuSans-46"/>
      <use x="1443.736328" xlink:href="#DejaVuSans-99"/>
      <use x="1498.716797" xlink:href="#DejaVuSans-108"/>
      <use x="1526.5" xlink:href="#DejaVuSans-109"/>
      <use x="1623.912109" xlink:href="#DejaVuSans-112"/>
      <use x="1687.388672" xlink:href="#DejaVuSans-46"/>
      <use x="1719.175781" xlink:href="#DejaVuSans-114"/>
      <use x="1760.289062" xlink:href="#DejaVuSans-49"/>
     </g>
    </g>
    <g id="line2d_24">
     <path d="M 809.951875 303.490394 
L 825.951875 303.490394 
" style="fill:none;stroke:#5cb85c;stroke-linecap:square;"/>
    </g>
    <g id="line2d_25"/>
    <g id="text_21">
     <!-- Cvi-CPal_079-Ex1-1C-ssl-1-1.clmp.r2 -->
     <g transform="translate(832.351875 306.290394)scale(0.08 -0.08)">
      <use xlink:href="#DejaVuSans-67"/>
      <use x="69.824219" xlink:href="#DejaVuSans-118"/>
      <use x="129.003906" xlink:href="#DejaVuSans-105"/>
      <use x="156.787109" xlink:href="#DejaVuSans-45"/>
      <use x="192.871094" xlink:href="#DejaVuSans-67"/>
      <use x="262.695312" xlink:href="#DejaVuSans-80"/>
      <use x="322.935547" xlink:href="#DejaVuSans-97"/>
      <use x="384.214844" xlink:href="#DejaVuSans-108"/>
      <use x="411.998047" xlink:href="#DejaVuSans-95"/>
      <use x="461.998047" xlink:href="#DejaVuSans-48"/>
      <use x="525.621094" xlink:href="#DejaVuSans-55"/>
      <use x="589.244141" xlink:href="#DejaVuSans-57"/>
      <use x="652.867188" xlink:href="#DejaVuSans-45"/>
      <use x="688.951172" xlink:href="#DejaVuSans-69"/>
      <use x="752.134766" xlink:href="#DejaVuSans-120"/>
      <use x="811.314453" xlink:href="#DejaVuSans-49"/>
      <use x="874.9375" xlink:href="#DejaVuSans-45"/>
      <use x="911.021484" xlink:href="#DejaVuSans-49"/>
      <use x="974.644531" xlink:href="#DejaVuSans-67"/>
      <use x="1044.46875" xlink:href="#DejaVuSans-45"/>
      <use x="1080.552734" xlink:href="#DejaVuSans-115"/>
      <use x="1132.652344" xlink:href="#DejaVuSans-115"/>
      <use x="1184.751953" xlink:href="#DejaVuSans-108"/>
      <use x="1212.535156" xlink:href="#DejaVuSans-45"/>
      <use x="1248.619141" xlink:href="#DejaVuSans-49"/>
      <use x="1312.242188" xlink:href="#DejaVuSans-45"/>
      <use x="1348.326172" xlink:href="#DejaVuSans-49"/>
      <use x="1411.949219" xlink:href="#DejaVuSans-46"/>
      <use x="1443.736328" xlink:href="#DejaVuSans-99"/>
      <use x="1498.716797" xlink:href="#DejaVuSans-108"/>
      <use x="1526.5" xlink:href="#DejaVuSans-109"/>
      <use x="1623.912109" xlink:href="#DejaVuSans-112"/>
      <use x="1687.388672" xlink:href="#DejaVuSans-46"/>
      <use x="1719.175781" xlink:href="#DejaVuSans-114"/>
      <use x="1760.289062" xlink:href="#DejaVuSans-50"/>
     </g>
    </g>
   </g>
  </g>
 </g>
 <defs>
  <clipPath id="p13ae42df6d">
   <rect height="242.5072" width="952.495" x="32.968125" y="31.48286"/>
  </clipPath>
 </defs>
</svg>
