<?xml version="1.0" encoding="utf-8" standalone="no"?>
<!DOCTYPE svg PUBLIC "-//W3C//DTD SVG 1.1//EN"
  "http://www.w3.org/Graphics/SVG/1.1/DTD/svg11.dtd">
<!-- Created with matplotlib (https://matplotlib.org/) -->
<svg height="330.541644pt" version="1.1" viewBox="0 0 1000.058125 330.541644" width="1000.058125pt" xmlns="http://www.w3.org/2000/svg" xmlns:xlink="http://www.w3.org/1999/xlink">
 <defs>
  <style type="text/css">
*{stroke-linecap:butt;stroke-linejoin:round;}
  </style>
 </defs>
 <g id="figure_1">
  <g id="axes_1">
   <g id="patch_1">
    <path d="M 63.508125 273.99006 
L 985.223125 273.99006 
L 985.223125 31.48286 
L 63.508125 31.48286 
z
" style="fill:#ffffff;"/>
   </g>
   <g id="matplotlib.axis_1">
    <g id="xtick_1">
     <g id="text_1">
      <!-- 0 -->
      <defs>
       <path d="M 31.78125 66.40625 
Q 24.171875 66.40625 20.328125 58.90625 
Q 16.5 51.421875 16.5 36.375 
Q 16.5 21.390625 20.328125 13.890625 
Q 24.171875 6.390625 31.78125 6.390625 
Q 39.453125 6.390625 43.28125 13.890625 
Q 47.125 21.390625 47.125 36.375 
Q 47.125 51.421875 43.28125 58.90625 
Q 39.453125 66.40625 31.78125 66.40625 
z
M 31.78125 74.21875 
Q 44.046875 74.21875 50.515625 64.515625 
Q 56.984375 54.828125 56.984375 36.375 
Q 56.984375 17.96875 50.515625 8.265625 
Q 44.046875 -1.421875 31.78125 -1.421875 
Q 19.53125 -1.421875 13.0625 8.265625 
Q 6.59375 17.96875 6.59375 36.375 
Q 6.59375 54.828125 13.0625 64.515625 
Q 19.53125 74.21875 31.78125 74.21875 
z
" id="DejaVuSans-48"/>
      </defs>
      <g transform="translate(60.963125 287.06881)scale(0.08 -0.08)">
       <use xlink:href="#DejaVuSans-48"/>
      </g>
     </g>
    </g>
    <g id="xtick_2">
     <g id="text_2">
      <!-- 20 -->
      <defs>
       <path d="M 19.1875 8.296875 
L 53.609375 8.296875 
L 53.609375 0 
L 7.328125 0 
L 7.328125 8.296875 
Q 12.9375 14.109375 22.625 23.890625 
Q 32.328125 33.6875 34.8125 36.53125 
Q 39.546875 41.84375 41.421875 45.53125 
Q 43.3125 49.21875 43.3125 52.78125 
Q 43.3125 58.59375 39.234375 62.25 
Q 35.15625 65.921875 28.609375 65.921875 
Q 23.96875 65.921875 18.8125 64.3125 
Q 13.671875 62.703125 7.8125 59.421875 
L 7.8125 69.390625 
Q 13.765625 71.78125 18.9375 73 
Q 24.125 74.21875 28.421875 74.21875 
Q 39.75 74.21875 46.484375 68.546875 
Q 53.21875 62.890625 53.21875 53.421875 
Q 53.21875 48.921875 51.53125 44.890625 
Q 49.859375 40.875 45.40625 35.40625 
Q 44.1875 33.984375 37.640625 27.21875 
Q 31.109375 20.453125 19.1875 8.296875 
z
" id="DejaVuSans-50"/>
      </defs>
      <g transform="translate(242.761125 287.06881)scale(0.08 -0.08)">
       <use xlink:href="#DejaVuSans-50"/>
       <use x="63.623047" xlink:href="#DejaVuSans-48"/>
      </g>
     </g>
    </g>
    <g id="xtick_3">
     <g id="text_3">
      <!-- 40 -->
      <defs>
       <path d="M 37.796875 64.3125 
L 12.890625 25.390625 
L 37.796875 25.390625 
z
M 35.203125 72.90625 
L 47.609375 72.90625 
L 47.609375 25.390625 
L 58.015625 25.390625 
L 58.015625 17.1875 
L 47.609375 17.1875 
L 47.609375 0 
L 37.796875 0 
L 37.796875 17.1875 
L 4.890625 17.1875 
L 4.890625 26.703125 
z
" id="DejaVuSans-52"/>
      </defs>
      <g transform="translate(427.104125 287.06881)scale(0.08 -0.08)">
       <use xlink:href="#DejaVuSans-52"/>
       <use x="63.623047" xlink:href="#DejaVuSans-48"/>
      </g>
     </g>
    </g>
    <g id="xtick_4">
     <g id="text_4">
      <!-- 60 -->
      <defs>
       <path d="M 33.015625 40.375 
Q 26.375 40.375 22.484375 35.828125 
Q 18.609375 31.296875 18.609375 23.390625 
Q 18.609375 15.53125 22.484375 10.953125 
Q 26.375 6.390625 33.015625 6.390625 
Q 39.65625 6.390625 43.53125 10.953125 
Q 47.40625 15.53125 47.40625 23.390625 
Q 47.40625 31.296875 43.53125 35.828125 
Q 39.65625 40.375 33.015625 40.375 
z
M 52.59375 71.296875 
L 52.59375 62.3125 
Q 48.875 64.0625 45.09375 64.984375 
Q 41.3125 65.921875 37.59375 65.921875 
Q 27.828125 65.921875 22.671875 59.328125 
Q 17.53125 52.734375 16.796875 39.40625 
Q 19.671875 43.65625 24.015625 45.921875 
Q 28.375 48.1875 33.59375 48.1875 
Q 44.578125 48.1875 50.953125 41.515625 
Q 57.328125 34.859375 57.328125 23.390625 
Q 57.328125 12.15625 50.6875 5.359375 
Q 44.046875 -1.421875 33.015625 -1.421875 
Q 20.359375 -1.421875 13.671875 8.265625 
Q 6.984375 17.96875 6.984375 36.375 
Q 6.984375 53.65625 15.1875 63.9375 
Q 23.390625 74.21875 37.203125 74.21875 
Q 40.921875 74.21875 44.703125 73.484375 
Q 48.484375 72.75 52.59375 71.296875 
z
" id="DejaVuSans-54"/>
      </defs>
      <g transform="translate(611.447125 287.06881)scale(0.08 -0.08)">
       <use xlink:href="#DejaVuSans-54"/>
       <use x="63.623047" xlink:href="#DejaVuSans-48"/>
      </g>
     </g>
    </g>
    <g id="xtick_5">
     <g id="text_5">
      <!-- 80 -->
      <defs>
       <path d="M 31.78125 34.625 
Q 24.75 34.625 20.71875 30.859375 
Q 16.703125 27.09375 16.703125 20.515625 
Q 16.703125 13.921875 20.71875 10.15625 
Q 24.75 6.390625 31.78125 6.390625 
Q 38.8125 6.390625 42.859375 10.171875 
Q 46.921875 13.96875 46.921875 20.515625 
Q 46.921875 27.09375 42.890625 30.859375 
Q 38.875 34.625 31.78125 34.625 
z
M 21.921875 38.8125 
Q 15.578125 40.375 12.03125 44.71875 
Q 8.5 49.078125 8.5 55.328125 
Q 8.5 64.0625 14.71875 69.140625 
Q 20.953125 74.21875 31.78125 74.21875 
Q 42.671875 74.21875 48.875 69.140625 
Q 55.078125 64.0625 55.078125 55.328125 
Q 55.078125 49.078125 51.53125 44.71875 
Q 48 40.375 41.703125 38.8125 
Q 48.828125 37.15625 52.796875 32.3125 
Q 56.78125 27.484375 56.78125 20.515625 
Q 56.78125 9.90625 50.3125 4.234375 
Q 43.84375 -1.421875 31.78125 -1.421875 
Q 19.734375 -1.421875 13.25 4.234375 
Q 6.78125 9.90625 6.78125 20.515625 
Q 6.78125 27.484375 10.78125 32.3125 
Q 14.796875 37.15625 21.921875 38.8125 
z
M 18.3125 54.390625 
Q 18.3125 48.734375 21.84375 45.5625 
Q 25.390625 42.390625 31.78125 42.390625 
Q 38.140625 42.390625 41.71875 45.5625 
Q 45.3125 48.734375 45.3125 54.390625 
Q 45.3125 60.0625 41.71875 63.234375 
Q 38.140625 66.40625 31.78125 66.40625 
Q 25.390625 66.40625 21.84375 63.234375 
Q 18.3125 60.0625 18.3125 54.390625 
z
" id="DejaVuSans-56"/>
      </defs>
      <g transform="translate(795.790125 287.06881)scale(0.08 -0.08)">
       <use xlink:href="#DejaVuSans-56"/>
       <use x="63.623047" xlink:href="#DejaVuSans-48"/>
      </g>
     </g>
    </g>
    <g id="xtick_6">
     <g id="text_6">
      <!-- 100 -->
      <defs>
       <path d="M 12.40625 8.296875 
L 28.515625 8.296875 
L 28.515625 63.921875 
L 10.984375 60.40625 
L 10.984375 69.390625 
L 28.421875 72.90625 
L 38.28125 72.90625 
L 38.28125 8.296875 
L 54.390625 8.296875 
L 54.390625 0 
L 12.40625 0 
z
" id="DejaVuSans-49"/>
      </defs>
      <g transform="translate(977.588125 287.06881)scale(0.08 -0.08)">
       <use xlink:href="#DejaVuSans-49"/>
       <use x="63.623047" xlink:href="#DejaVuSans-48"/>
       <use x="127.246094" xlink:href="#DejaVuSans-48"/>
      </g>
     </g>
    </g>
    <g id="text_7">
     <!-- % GC -->
     <defs>
      <path d="M 72.703125 32.078125 
Q 68.453125 32.078125 66.03125 28.46875 
Q 63.625 24.859375 63.625 18.40625 
Q 63.625 12.0625 66.03125 8.421875 
Q 68.453125 4.78125 72.703125 4.78125 
Q 76.859375 4.78125 79.265625 8.421875 
Q 81.6875 12.0625 81.6875 18.40625 
Q 81.6875 24.8125 79.265625 28.4375 
Q 76.859375 32.078125 72.703125 32.078125 
z
M 72.703125 38.28125 
Q 80.421875 38.28125 84.953125 32.90625 
Q 89.5 27.546875 89.5 18.40625 
Q 89.5 9.28125 84.9375 3.921875 
Q 80.375 -1.421875 72.703125 -1.421875 
Q 64.890625 -1.421875 60.34375 3.921875 
Q 55.8125 9.28125 55.8125 18.40625 
Q 55.8125 27.59375 60.375 32.9375 
Q 64.9375 38.28125 72.703125 38.28125 
z
M 22.3125 68.015625 
Q 18.109375 68.015625 15.6875 64.375 
Q 13.28125 60.75 13.28125 54.390625 
Q 13.28125 47.953125 15.671875 44.328125 
Q 18.0625 40.71875 22.3125 40.71875 
Q 26.5625 40.71875 28.96875 44.328125 
Q 31.390625 47.953125 31.390625 54.390625 
Q 31.390625 60.6875 28.953125 64.34375 
Q 26.515625 68.015625 22.3125 68.015625 
z
M 66.40625 74.21875 
L 74.21875 74.21875 
L 28.609375 -1.421875 
L 20.796875 -1.421875 
z
M 22.3125 74.21875 
Q 30.03125 74.21875 34.609375 68.875 
Q 39.203125 63.53125 39.203125 54.390625 
Q 39.203125 45.171875 34.640625 39.84375 
Q 30.078125 34.515625 22.3125 34.515625 
Q 14.546875 34.515625 10.03125 39.859375 
Q 5.515625 45.21875 5.515625 54.390625 
Q 5.515625 63.484375 10.046875 68.84375 
Q 14.59375 74.21875 22.3125 74.21875 
z
" id="DejaVuSans-37"/>
      <path id="DejaVuSans-32"/>
      <path d="M 59.515625 10.40625 
L 59.515625 29.984375 
L 43.40625 29.984375 
L 43.40625 38.09375 
L 69.28125 38.09375 
L 69.28125 6.78125 
Q 63.578125 2.734375 56.6875 0.65625 
Q 49.8125 -1.421875 42 -1.421875 
Q 24.90625 -1.421875 15.25 8.5625 
Q 5.609375 18.5625 5.609375 36.375 
Q 5.609375 54.25 15.25 64.234375 
Q 24.90625 74.21875 42 74.21875 
Q 49.125 74.21875 55.546875 72.453125 
Q 61.96875 70.703125 67.390625 67.28125 
L 67.390625 56.78125 
Q 61.921875 61.421875 55.765625 63.765625 
Q 49.609375 66.109375 42.828125 66.109375 
Q 29.4375 66.109375 22.71875 58.640625 
Q 16.015625 51.171875 16.015625 36.375 
Q 16.015625 21.625 22.71875 14.15625 
Q 29.4375 6.6875 42.828125 6.6875 
Q 48.046875 6.6875 52.140625 7.59375 
Q 56.25 8.5 59.515625 10.40625 
z
" id="DejaVuSans-71"/>
      <path d="M 64.40625 67.28125 
L 64.40625 56.890625 
Q 59.421875 61.53125 53.78125 63.8125 
Q 48.140625 66.109375 41.796875 66.109375 
Q 29.296875 66.109375 22.65625 58.46875 
Q 16.015625 50.828125 16.015625 36.375 
Q 16.015625 21.96875 22.65625 14.328125 
Q 29.296875 6.6875 41.796875 6.6875 
Q 48.140625 6.6875 53.78125 8.984375 
Q 59.421875 11.28125 64.40625 15.921875 
L 64.40625 5.609375 
Q 59.234375 2.09375 53.4375 0.328125 
Q 47.65625 -1.421875 41.21875 -1.421875 
Q 24.65625 -1.421875 15.125 8.703125 
Q 5.609375 18.84375 5.609375 36.375 
Q 5.609375 53.953125 15.125 64.078125 
Q 24.65625 74.21875 41.21875 74.21875 
Q 47.75 74.21875 53.53125 72.484375 
Q 59.328125 70.75 64.40625 67.28125 
z
" id="DejaVuSans-67"/>
     </defs>
     <g transform="translate(510.660156 300.330997)scale(0.1 -0.1)">
      <use xlink:href="#DejaVuSans-37"/>
      <use x="95.019531" xlink:href="#DejaVuSans-32"/>
      <use x="126.806641" xlink:href="#DejaVuSans-71"/>
      <use x="204.296875" xlink:href="#DejaVuSans-67"/>
     </g>
    </g>
   </g>
   <g id="matplotlib.axis_2">
    <g id="ytick_1">
     <g id="line2d_1">
      <path clip-path="url(#p0c6cb37e71)" d="M 63.508125 273.99006 
L 985.223125 273.99006 
" style="fill:none;stroke:#dedede;stroke-linecap:square;"/>
     </g>
     <g id="text_8">
      <!-- 0 -->
      <g transform="translate(51.418125 277.029435)scale(0.08 -0.08)">
       <use xlink:href="#DejaVuSans-48"/>
      </g>
     </g>
    </g>
    <g id="ytick_2">
     <g id="line2d_2">
      <path clip-path="url(#p0c6cb37e71)" d="M 63.508125 246.109892 
L 985.223125 246.109892 
" style="fill:none;stroke:#dedede;stroke-linecap:square;"/>
     </g>
     <g id="text_9">
      <!-- 200000 -->
      <g transform="translate(25.968125 249.149267)scale(0.08 -0.08)">
       <use xlink:href="#DejaVuSans-50"/>
       <use x="63.623047" xlink:href="#DejaVuSans-48"/>
       <use x="127.246094" xlink:href="#DejaVuSans-48"/>
       <use x="190.869141" xlink:href="#DejaVuSans-48"/>
       <use x="254.492188" xlink:href="#DejaVuSans-48"/>
       <use x="318.115234" xlink:href="#DejaVuSans-48"/>
      </g>
     </g>
    </g>
    <g id="ytick_3">
     <g id="line2d_3">
      <path clip-path="url(#p0c6cb37e71)" d="M 63.508125 218.229725 
L 985.223125 218.229725 
" style="fill:none;stroke:#dedede;stroke-linecap:square;"/>
     </g>
     <g id="text_10">
      <!-- 400000 -->
      <g transform="translate(25.968125 221.2691)scale(0.08 -0.08)">
       <use xlink:href="#DejaVuSans-52"/>
       <use x="63.623047" xlink:href="#DejaVuSans-48"/>
       <use x="127.246094" xlink:href="#DejaVuSans-48"/>
       <use x="190.869141" xlink:href="#DejaVuSans-48"/>
       <use x="254.492188" xlink:href="#DejaVuSans-48"/>
       <use x="318.115234" xlink:href="#DejaVuSans-48"/>
      </g>
     </g>
    </g>
    <g id="ytick_4">
     <g id="line2d_4">
      <path clip-path="url(#p0c6cb37e71)" d="M 63.508125 190.349557 
L 985.223125 190.349557 
" style="fill:none;stroke:#dedede;stroke-linecap:square;"/>
     </g>
     <g id="text_11">
      <!-- 600000 -->
      <g transform="translate(25.968125 193.388932)scale(0.08 -0.08)">
       <use xlink:href="#DejaVuSans-54"/>
       <use x="63.623047" xlink:href="#DejaVuSans-48"/>
       <use x="127.246094" xlink:href="#DejaVuSans-48"/>
       <use x="190.869141" xlink:href="#DejaVuSans-48"/>
       <use x="254.492188" xlink:href="#DejaVuSans-48"/>
       <use x="318.115234" xlink:href="#DejaVuSans-48"/>
      </g>
     </g>
    </g>
    <g id="ytick_5">
     <g id="line2d_5">
      <path clip-path="url(#p0c6cb37e71)" d="M 63.508125 162.46939 
L 985.223125 162.46939 
" style="fill:none;stroke:#dedede;stroke-linecap:square;"/>
     </g>
     <g id="text_12">
      <!-- 800000 -->
      <g transform="translate(25.968125 165.508765)scale(0.08 -0.08)">
       <use xlink:href="#DejaVuSans-56"/>
       <use x="63.623047" xlink:href="#DejaVuSans-48"/>
       <use x="127.246094" xlink:href="#DejaVuSans-48"/>
       <use x="190.869141" xlink:href="#DejaVuSans-48"/>
       <use x="254.492188" xlink:href="#DejaVuSans-48"/>
       <use x="318.115234" xlink:href="#DejaVuSans-48"/>
      </g>
     </g>
    </g>
    <g id="ytick_6">
     <g id="line2d_6">
      <path clip-path="url(#p0c6cb37e71)" d="M 63.508125 134.589222 
L 985.223125 134.589222 
" style="fill:none;stroke:#dedede;stroke-linecap:square;"/>
     </g>
     <g id="text_13">
      <!-- 1000000 -->
      <g transform="translate(20.878125 137.628597)scale(0.08 -0.08)">
       <use xlink:href="#DejaVuSans-49"/>
       <use x="63.623047" xlink:href="#DejaVuSans-48"/>
       <use x="127.246094" xlink:href="#DejaVuSans-48"/>
       <use x="190.869141" xlink:href="#DejaVuSans-48"/>
       <use x="254.492188" xlink:href="#DejaVuSans-48"/>
       <use x="318.115234" xlink:href="#DejaVuSans-48"/>
       <use x="381.738281" xlink:href="#DejaVuSans-48"/>
      </g>
     </g>
    </g>
    <g id="ytick_7">
     <g id="line2d_7">
      <path clip-path="url(#p0c6cb37e71)" d="M 63.508125 106.709055 
L 985.223125 106.709055 
" style="fill:none;stroke:#dedede;stroke-linecap:square;"/>
     </g>
     <g id="text_14">
      <!-- 1200000 -->
      <g transform="translate(20.878125 109.74843)scale(0.08 -0.08)">
       <use xlink:href="#DejaVuSans-49"/>
       <use x="63.623047" xlink:href="#DejaVuSans-50"/>
       <use x="127.246094" xlink:href="#DejaVuSans-48"/>
       <use x="190.869141" xlink:href="#DejaVuSans-48"/>
       <use x="254.492188" xlink:href="#DejaVuSans-48"/>
       <use x="318.115234" xlink:href="#DejaVuSans-48"/>
       <use x="381.738281" xlink:href="#DejaVuSans-48"/>
      </g>
     </g>
    </g>
    <g id="ytick_8">
     <g id="line2d_8">
      <path clip-path="url(#p0c6cb37e71)" d="M 63.508125 78.828887 
L 985.223125 78.828887 
" style="fill:none;stroke:#dedede;stroke-linecap:square;"/>
     </g>
     <g id="text_15">
      <!-- 1400000 -->
      <g transform="translate(20.878125 81.868262)scale(0.08 -0.08)">
       <use xlink:href="#DejaVuSans-49"/>
       <use x="63.623047" xlink:href="#DejaVuSans-52"/>
       <use x="127.246094" xlink:href="#DejaVuSans-48"/>
       <use x="190.869141" xlink:href="#DejaVuSans-48"/>
       <use x="254.492188" xlink:href="#DejaVuSans-48"/>
       <use x="318.115234" xlink:href="#DejaVuSans-48"/>
       <use x="381.738281" xlink:href="#DejaVuSans-48"/>
      </g>
     </g>
    </g>
    <g id="ytick_9">
     <g id="line2d_9">
      <path clip-path="url(#p0c6cb37e71)" d="M 63.508125 50.94872 
L 985.223125 50.94872 
" style="fill:none;stroke:#dedede;stroke-linecap:square;"/>
     </g>
     <g id="text_16">
      <!-- 1600000 -->
      <g transform="translate(20.878125 53.988095)scale(0.08 -0.08)">
       <use xlink:href="#DejaVuSans-49"/>
       <use x="63.623047" xlink:href="#DejaVuSans-54"/>
       <use x="127.246094" xlink:href="#DejaVuSans-48"/>
       <use x="190.869141" xlink:href="#DejaVuSans-48"/>
       <use x="254.492188" xlink:href="#DejaVuSans-48"/>
       <use x="318.115234" xlink:href="#DejaVuSans-48"/>
       <use x="381.738281" xlink:href="#DejaVuSans-48"/>
      </g>
     </g>
    </g>
    <g id="text_17">
     <!-- Count -->
     <defs>
      <path d="M 30.609375 48.390625 
Q 23.390625 48.390625 19.1875 42.75 
Q 14.984375 37.109375 14.984375 27.296875 
Q 14.984375 17.484375 19.15625 11.84375 
Q 23.34375 6.203125 30.609375 6.203125 
Q 37.796875 6.203125 41.984375 11.859375 
Q 46.1875 17.53125 46.1875 27.296875 
Q 46.1875 37.015625 41.984375 42.703125 
Q 37.796875 48.390625 30.609375 48.390625 
z
M 30.609375 56 
Q 42.328125 56 49.015625 48.375 
Q 55.71875 40.765625 55.71875 27.296875 
Q 55.71875 13.875 49.015625 6.21875 
Q 42.328125 -1.421875 30.609375 -1.421875 
Q 18.84375 -1.421875 12.171875 6.21875 
Q 5.515625 13.875 5.515625 27.296875 
Q 5.515625 40.765625 12.171875 48.375 
Q 18.84375 56 30.609375 56 
z
" id="DejaVuSans-111"/>
      <path d="M 8.5 21.578125 
L 8.5 54.6875 
L 17.484375 54.6875 
L 17.484375 21.921875 
Q 17.484375 14.15625 20.5 10.265625 
Q 23.53125 6.390625 29.59375 6.390625 
Q 36.859375 6.390625 41.078125 11.03125 
Q 45.3125 15.671875 45.3125 23.6875 
L 45.3125 54.6875 
L 54.296875 54.6875 
L 54.296875 0 
L 45.3125 0 
L 45.3125 8.40625 
Q 42.046875 3.421875 37.71875 1 
Q 33.40625 -1.421875 27.6875 -1.421875 
Q 18.265625 -1.421875 13.375 4.4375 
Q 8.5 10.296875 8.5 21.578125 
z
M 31.109375 56 
z
" id="DejaVuSans-117"/>
      <path d="M 54.890625 33.015625 
L 54.890625 0 
L 45.90625 0 
L 45.90625 32.71875 
Q 45.90625 40.484375 42.875 44.328125 
Q 39.84375 48.1875 33.796875 48.1875 
Q 26.515625 48.1875 22.3125 43.546875 
Q 18.109375 38.921875 18.109375 30.90625 
L 18.109375 0 
L 9.078125 0 
L 9.078125 54.6875 
L 18.109375 54.6875 
L 18.109375 46.1875 
Q 21.34375 51.125 25.703125 53.5625 
Q 30.078125 56 35.796875 56 
Q 45.21875 56 50.046875 50.171875 
Q 54.890625 44.34375 54.890625 33.015625 
z
" id="DejaVuSans-110"/>
      <path d="M 18.3125 70.21875 
L 18.3125 54.6875 
L 36.8125 54.6875 
L 36.8125 47.703125 
L 18.3125 47.703125 
L 18.3125 18.015625 
Q 18.3125 11.328125 20.140625 9.421875 
Q 21.96875 7.515625 27.59375 7.515625 
L 36.8125 7.515625 
L 36.8125 0 
L 27.59375 0 
Q 17.1875 0 13.234375 3.875 
Q 9.28125 7.765625 9.28125 18.015625 
L 9.28125 47.703125 
L 2.6875 47.703125 
L 2.6875 54.6875 
L 9.28125 54.6875 
L 9.28125 70.21875 
z
" id="DejaVuSans-116"/>
     </defs>
     <g transform="translate(14.798438 167.584897)rotate(-90)scale(0.1 -0.1)">
      <use xlink:href="#DejaVuSans-67"/>
      <use x="69.824219" xlink:href="#DejaVuSans-111"/>
      <use x="131.005859" xlink:href="#DejaVuSans-117"/>
      <use x="194.384766" xlink:href="#DejaVuSans-110"/>
      <use x="257.763672" xlink:href="#DejaVuSans-116"/>
     </g>
    </g>
   </g>
   <g id="line2d_10">
    <path clip-path="url(#p0c6cb37e71)" d="M 63.508125 273.99006 
L 72.725275 273.99006 
L 81.942425 273.99006 
L 91.159575 273.99006 
L 100.376725 273.99006 
L 109.593875 273.99006 
L 118.811025 273.99006 
L 128.028175 273.98999 
L 137.245325 273.989921 
L 146.462475 273.989711 
L 155.679625 273.988875 
L 164.896775 273.988457 
L 174.113925 273.987969 
L 183.331075 273.986854 
L 192.548225 273.983578 
L 201.765375 273.977584 
L 210.982525 273.967198 
L 220.199675 273.943849 
L 229.416825 273.899589 
L 238.633975 273.829679 
L 247.851125 273.721504 
L 257.068275 273.539586 
L 266.285425 273.24078 
L 275.502575 272.767584 
L 284.719725 272.067513 
L 293.936875 271.01211 
L 303.154025 269.57196 
L 312.371175 267.657638 
L 321.588325 265.105975 
L 330.805475 261.809145 
L 340.022625 257.484513 
L 349.239775 251.814593 
L 358.456925 244.654339 
L 367.674075 236.229231 
L 376.891225 227.163576 
L 386.108375 218.977471 
L 395.325525 212.192902 
L 404.542675 205.851697 
L 413.759825 200.184844 
L 422.976975 195.566634 
L 432.194125 191.649679 
L 441.411275 188.720031 
L 450.628425 187.474136 
L 459.845575 187.788346 
L 469.062725 189.625022 
L 478.279875 193.279136 
L 487.497025 198.332974 
L 496.714175 204.321425 
L 505.931325 210.928606 
L 515.148475 217.781203 
L 524.365625 224.71054 
L 533.582775 231.320579 
L 542.799925 237.415323 
L 552.017075 242.979507 
L 561.234225 247.916318 
L 570.451375 252.369896 
L 579.668525 256.25207 
L 588.885675 259.610794 
L 598.102825 262.501619 
L 607.319975 264.843344 
L 616.537125 266.695981 
L 625.754275 268.167426 
L 634.971425 269.327938 
L 644.188575 270.347377 
L 653.405725 271.291608 
L 662.622875 272.032106 
L 671.840025 272.568381 
L 681.057175 272.966928 
L 690.274325 273.258694 
L 699.491475 273.471559 
L 708.708625 273.617999 
L 717.925775 273.707355 
L 727.142925 273.770782 
L 736.360075 273.817551 
L 745.577225 273.849683 
L 754.794375 273.86683 
L 764.011525 273.881955 
L 773.228675 273.908859 
L 782.445825 273.930606 
L 791.662975 273.943709 
L 800.880125 273.957371 
L 810.097275 273.96671 
L 819.314425 273.97145 
L 828.531575 273.97368 
L 837.748725 273.977584 
L 846.965875 273.981626 
L 856.183025 273.985529 
L 865.400175 273.988596 
L 874.617325 273.989224 
L 883.834475 273.989711 
L 893.051625 273.98999 
L 902.268775 273.99006 
L 911.485925 273.99006 
L 920.703075 273.99006 
L 929.920225 273.99006 
L 939.137375 273.99006 
L 948.354525 273.99006 
L 957.571675 273.99006 
L 966.788825 273.99006 
L 976.005975 273.99006 
L 985.223125 273.99006 
" style="fill:none;stroke:#5cb85c;stroke-linecap:square;"/>
   </g>
   <g id="line2d_11">
    <path clip-path="url(#p0c6cb37e71)" d="M 63.508125 273.99006 
L 72.725275 273.99006 
L 81.942425 273.99006 
L 91.159575 273.99006 
L 100.376725 273.99006 
L 109.593875 273.99006 
L 118.811025 273.99006 
L 128.028175 273.99006 
L 137.245325 273.989921 
L 146.462475 273.989781 
L 155.679625 273.989711 
L 164.896775 273.989363 
L 174.113925 273.988666 
L 183.331075 273.986505 
L 192.548225 273.983717 
L 201.765375 273.979605 
L 210.982525 273.970335 
L 220.199675 273.948728 
L 229.416825 273.907535 
L 238.633975 273.843898 
L 247.851125 273.739348 
L 257.068275 273.567327 
L 266.285425 273.28051 
L 275.502575 272.823484 
L 284.719725 272.141953 
L 293.936875 271.146701 
L 303.154025 269.779388 
L 312.371175 267.903471 
L 321.588325 265.429873 
L 330.805475 262.178488 
L 340.022625 257.862916 
L 349.239775 252.267227 
L 358.456925 245.233758 
L 367.674075 236.835206 
L 376.891225 227.784886 
L 386.108375 219.572852 
L 395.325525 212.570399 
L 404.542675 205.974788 
L 413.759825 200.088936 
L 422.976975 195.231514 
L 432.194125 191.055553 
L 441.411275 188.068542 
L 450.628425 186.713914 
L 459.845575 186.980239 
L 469.062725 188.845353 
L 478.279875 192.510061 
L 487.497025 197.721771 
L 496.714175 203.882033 
L 505.931325 210.589932 
L 515.148475 217.495849 
L 524.365625 224.538589 
L 533.582775 231.2529 
L 542.799925 237.400337 
L 552.017075 242.955739 
L 561.234225 247.974867 
L 570.451375 252.531462 
L 579.668525 256.386034 
L 588.885675 259.70468 
L 598.102825 262.617182 
L 607.319975 264.943921 
L 616.537125 266.783734 
L 625.754275 268.27588 
L 634.971425 269.467548 
L 644.188575 270.499951 
L 653.405725 271.396717 
L 662.622875 272.081035 
L 671.840025 272.590336 
L 681.057175 272.996759 
L 690.274325 273.294729 
L 699.491475 273.491772 
L 708.708625 273.629988 
L 717.925775 273.726314 
L 727.142925 273.787301 
L 736.360075 273.8248 
L 745.577225 273.854005 
L 754.794375 273.872615 
L 764.011525 273.888228 
L 773.228675 273.911159 
L 782.445825 273.927818 
L 791.662975 273.940573 
L 800.880125 273.956116 
L 810.097275 273.967198 
L 819.314425 273.970195 
L 828.531575 273.972705 
L 837.748725 273.978559 
L 846.965875 273.982951 
L 856.183025 273.986645 
L 865.400175 273.988596 
L 874.617325 273.988945 
L 883.834475 273.989363 
L 893.051625 273.989851 
L 902.268775 273.99006 
L 911.485925 273.99006 
L 920.703075 273.99006 
L 929.920225 273.99006 
L 939.137375 273.99006 
L 948.354525 273.99006 
L 957.571675 273.99006 
L 966.788825 273.99006 
L 976.005975 273.99006 
L 985.223125 273.99006 
" style="fill:none;stroke:#5cb85c;stroke-linecap:square;"/>
   </g>
   <g id="line2d_12">
    <path clip-path="url(#p0c6cb37e71)" d="M 63.508125 273.99006 
L 72.725275 273.99006 
L 81.942425 273.99006 
L 91.159575 273.99006 
L 100.376725 273.99006 
L 109.593875 273.99006 
L 118.811025 273.98999 
L 128.028175 273.989642 
L 137.245325 273.989154 
L 146.462475 273.988178 
L 155.679625 273.986993 
L 164.896775 273.986296 
L 174.113925 273.984832 
L 183.331075 273.979187 
L 192.548225 273.96901 
L 201.765375 273.949634 
L 210.982525 273.915829 
L 220.199675 273.852193 
L 229.416825 273.734259 
L 238.633975 273.544396 
L 247.851125 273.243638 
L 257.068275 272.763333 
L 266.285425 271.940798 
L 275.502575 270.671344 
L 284.719725 268.81097 
L 293.936875 266.099206 
L 303.154025 262.293145 
L 312.371175 257.144445 
L 321.588325 250.445119 
L 330.805475 241.762886 
L 340.022625 230.424231 
L 349.239775 215.754105 
L 358.456925 197.820954 
L 367.674075 176.974117 
L 376.891225 154.310398 
L 386.108375 133.115895 
L 395.325525 114.29023 
L 404.542675 96.658812 
L 413.759825 80.870831 
L 422.976975 67.171144 
L 432.194125 55.993148 
L 441.411275 48.445987 
L 450.628425 44.828256 
L 459.845575 45.656158 
L 469.062725 51.059125 
L 478.279875 60.771391 
L 487.497025 74.410578 
L 496.714175 90.751353 
L 505.931325 108.597866 
L 515.148475 126.953263 
L 524.365625 145.247323 
L 533.582775 162.80214 
L 542.799925 178.998147 
L 552.017075 193.734279 
L 561.234225 206.960561 
L 570.451375 218.625972 
L 579.668525 228.745567 
L 588.885675 237.477426 
L 598.102825 244.894735 
L 607.319975 250.910857 
L 616.537125 255.740121 
L 625.754275 259.541163 
L 634.971425 262.533193 
L 644.188575 265.180345 
L 653.405725 267.484781 
L 662.622875 269.260329 
L 671.840025 270.545047 
L 681.057175 271.525174 
L 690.274325 272.254032 
L 699.491475 272.759499 
L 708.708625 273.11769 
L 717.925775 273.355995 
L 727.142925 273.50146 
L 736.360075 273.603223 
L 745.577225 273.680939 
L 754.794375 273.723735 
L 764.011525 273.760955 
L 773.228675 273.814973 
L 782.445825 273.856514 
L 791.662975 273.893386 
L 800.880125 273.92259 
L 810.097275 273.940015 
L 819.314425 273.946915 
L 828.531575 273.954164 
L 837.748725 273.966919 
L 846.965875 273.976329 
L 856.183025 273.98309 
L 865.400175 273.986854 
L 874.617325 273.98783 
L 883.834475 273.988875 
L 893.051625 273.98999 
L 902.268775 273.99006 
L 911.485925 273.99006 
L 920.703075 273.99006 
L 929.920225 273.99006 
L 939.137375 273.99006 
L 948.354525 273.99006 
L 957.571675 273.99006 
L 966.788825 273.99006 
L 976.005975 273.99006 
L 985.223125 273.99006 
" style="fill:none;stroke:#5cb85c;stroke-linecap:square;"/>
   </g>
   <g id="line2d_13">
    <path clip-path="url(#p0c6cb37e71)" d="M 63.508125 273.99006 
L 72.725275 273.99006 
L 81.942425 273.99006 
L 91.159575 273.99006 
L 100.376725 273.99006 
L 109.593875 273.99006 
L 118.811025 273.99006 
L 128.028175 273.989851 
L 137.245325 273.989293 
L 146.462475 273.988248 
L 155.679625 273.986993 
L 164.896775 273.98546 
L 174.113925 273.983369 
L 183.331075 273.978211 
L 192.548225 273.966571 
L 201.765375 273.951307 
L 210.982525 273.921057 
L 220.199675 273.858326 
L 229.416825 273.744227 
L 238.633975 273.565863 
L 247.851125 273.275979 
L 257.068275 272.78961 
L 266.285425 272.02416 
L 275.502575 270.832213 
L 284.719725 268.995189 
L 293.936875 266.30538 
L 303.154025 262.654681 
L 312.371175 257.713479 
L 321.588325 251.119401 
L 330.805475 242.632817 
L 340.022625 231.521316 
L 349.239775 217.087474 
L 358.456925 199.498574 
L 367.674075 178.807029 
L 376.891225 156.147353 
L 386.108375 134.601211 
L 395.325525 115.375605 
L 404.542675 97.178359 
L 413.759825 80.606178 
L 422.976975 66.501811 
L 432.194125 54.958236 
L 441.411275 46.830471 
L 450.628425 43.030822 
L 459.845575 44.097238 
L 469.062725 49.468771 
L 478.279875 59.071049 
L 487.497025 72.764951 
L 496.714175 89.214877 
L 505.931325 107.223653 
L 515.148475 126.006313 
L 524.365625 144.704426 
L 533.582775 162.502567 
L 542.799925 178.907746 
L 552.017075 193.665346 
L 561.234225 206.845486 
L 570.451375 218.672392 
L 579.668525 228.958432 
L 588.885675 237.730996 
L 598.102825 245.206157 
L 607.319975 251.284312 
L 616.537125 256.001985 
L 625.754275 259.758768 
L 634.971425 262.758047 
L 644.188575 265.362333 
L 653.405725 267.678687 
L 662.622875 269.385302 
L 671.840025 270.618581 
L 681.057175 271.590762 
L 690.274325 272.297037 
L 699.491475 272.797207 
L 708.708625 273.162437 
L 717.925775 273.383875 
L 727.142925 273.5177 
L 736.360075 273.627548 
L 745.577225 273.699061 
L 754.794375 273.73189 
L 764.011525 273.766322 
L 773.228675 273.818527 
L 782.445825 273.863414 
L 791.662975 273.892549 
L 800.880125 273.921057 
L 810.097275 273.938551 
L 819.314425 273.94587 
L 828.531575 273.956673 
L 837.748725 273.967616 
L 846.965875 273.976259 
L 856.183025 273.984414 
L 865.400175 273.986714 
L 874.617325 273.987133 
L 883.834475 273.988527 
L 893.051625 273.989711 
L 902.268775 273.99006 
L 911.485925 273.99006 
L 920.703075 273.99006 
L 929.920225 273.99006 
L 939.137375 273.99006 
L 948.354525 273.99006 
L 957.571675 273.99006 
L 966.788825 273.99006 
L 976.005975 273.99006 
L 985.223125 273.99006 
" style="fill:none;stroke:#5cb85c;stroke-linecap:square;"/>
   </g>
   <g id="line2d_14">
    <path clip-path="url(#p0c6cb37e71)" d="M 63.508125 273.99006 
L 72.725275 273.99006 
L 81.942425 273.99006 
L 91.159575 273.99006 
L 100.376725 273.99006 
L 109.593875 273.99006 
L 118.811025 273.99006 
L 128.028175 273.98999 
L 137.245325 273.98999 
L 146.462475 273.989851 
L 155.679625 273.989293 
L 164.896775 273.988736 
L 174.113925 273.988387 
L 183.331075 273.987411 
L 192.548225 273.98546 
L 201.765375 273.981696 
L 210.982525 273.972286 
L 220.199675 273.951237 
L 229.416825 273.916108 
L 238.633975 273.865993 
L 247.851125 273.779286 
L 257.068275 273.632776 
L 266.285425 273.403461 
L 275.502575 273.019133 
L 284.719725 272.458184 
L 293.936875 271.627146 
L 303.154025 270.447118 
L 312.371175 268.889314 
L 321.588325 266.788613 
L 330.805475 264.072597 
L 340.022625 260.407261 
L 349.239775 255.554927 
L 358.456925 249.588222 
L 367.674075 242.37172 
L 376.891225 234.529098 
L 386.108375 227.59307 
L 395.325525 221.786886 
L 404.542675 216.316588 
L 413.759825 211.40006 
L 422.976975 207.258112 
L 432.194125 203.711964 
L 441.411275 200.931893 
L 450.628425 199.30857 
L 459.845575 199.096054 
L 469.062725 200.364044 
L 478.279875 202.867892 
L 487.497025 206.662731 
L 496.714175 211.711899 
L 505.931325 217.240258 
L 515.148475 222.943216 
L 524.365625 228.845656 
L 533.582775 234.601378 
L 542.799925 239.974722 
L 552.017075 244.847409 
L 561.234225 249.284189 
L 570.451375 253.382295 
L 579.668525 257.079344 
L 588.885675 260.253083 
L 598.102825 262.929649 
L 607.319975 265.192543 
L 616.537125 266.958124 
L 625.754275 268.340771 
L 634.971425 269.487622 
L 644.188575 270.503018 
L 653.405725 271.400341 
L 662.622875 272.083823 
L 671.840025 272.575978 
L 681.057175 272.98038 
L 690.274325 273.275282 
L 699.491475 273.483617 
L 708.708625 273.627688 
L 717.925775 273.719762 
L 727.142925 273.780541 
L 736.360075 273.820827 
L 745.577225 273.849265 
L 754.794375 273.864948 
L 764.011525 273.878261 
L 773.228675 273.902168 
L 782.445825 273.922032 
L 791.662975 273.935833 
L 800.880125 273.952491 
L 810.097275 273.963504 
L 819.314425 273.965107 
L 828.531575 273.96901 
L 837.748725 273.975981 
L 846.965875 273.979953 
L 856.183025 273.984275 
L 865.400175 273.98776 
L 874.617325 273.988457 
L 883.834475 273.988875 
L 893.051625 273.989921 
L 902.268775 273.99006 
L 911.485925 273.99006 
L 920.703075 273.99006 
L 929.920225 273.99006 
L 939.137375 273.99006 
L 948.354525 273.99006 
L 957.571675 273.99006 
L 966.788825 273.99006 
L 976.005975 273.99006 
L 985.223125 273.99006 
" style="fill:none;stroke:#5cb85c;stroke-linecap:square;"/>
   </g>
   <g id="line2d_15">
    <path clip-path="url(#p0c6cb37e71)" d="M 63.508125 273.99006 
L 72.725275 273.99006 
L 81.942425 273.99006 
L 91.159575 273.99006 
L 100.376725 273.99006 
L 109.593875 273.99006 
L 118.811025 273.99006 
L 128.028175 273.99006 
L 137.245325 273.98999 
L 146.462475 273.989781 
L 155.679625 273.989293 
L 164.896775 273.989014 
L 174.113925 273.988945 
L 183.331075 273.988457 
L 192.548225 273.986226 
L 201.765375 273.980581 
L 210.982525 273.972217 
L 220.199675 273.955419 
L 229.416825 273.928445 
L 238.633975 273.880979 
L 247.851125 273.79706 
L 257.068275 273.655986 
L 266.285425 273.430784 
L 275.502575 273.053774 
L 284.719725 272.502026 
L 293.936875 271.714202 
L 303.154025 270.576552 
L 312.371175 268.985361 
L 321.588325 266.909891 
L 330.805475 264.256118 
L 340.022625 260.666198 
L 349.239775 255.937024 
L 358.456925 249.930382 
L 367.674075 242.7159 
L 376.891225 234.860942 
L 386.108375 227.7025 
L 395.325525 221.708264 
L 404.542675 216.096892 
L 413.759825 211.129343 
L 422.976975 206.909053 
L 432.194125 203.244971 
L 441.411275 200.271412 
L 450.628425 198.570792 
L 459.845575 198.425327 
L 469.062725 199.653518 
L 478.279875 202.360961 
L 487.497025 206.365738 
L 496.714175 211.446968 
L 505.931325 217.117585 
L 515.148475 222.977508 
L 524.365625 228.887825 
L 533.582775 234.669196 
L 542.799925 240.088543 
L 552.017075 245.116104 
L 561.234225 249.5609 
L 570.451375 253.609867 
L 579.668525 257.309286 
L 588.885675 260.433816 
L 598.102825 263.121255 
L 607.319975 265.330341 
L 616.537125 267.103937 
L 625.754275 268.500246 
L 634.971425 269.624444 
L 644.188575 270.61656 
L 653.405725 271.505728 
L 662.622875 272.181961 
L 671.840025 272.656482 
L 681.057175 273.01753 
L 690.274325 273.311317 
L 699.491475 273.522719 
L 708.708625 273.647761 
L 717.925775 273.734259 
L 727.142925 273.78758 
L 736.360075 273.827031 
L 745.577225 273.854562 
L 754.794375 273.867318 
L 764.011525 273.878748 
L 773.228675 273.902656 
L 782.445825 273.925796 
L 791.662975 273.939736 
L 800.880125 273.955419 
L 810.097275 273.963713 
L 819.314425 273.965944 
L 828.531575 273.969638 
L 837.748725 273.975702 
L 846.965875 273.981626 
L 856.183025 273.985181 
L 865.400175 273.986923 
L 874.617325 273.987411 
L 883.834475 273.98776 
L 893.051625 273.989224 
L 902.268775 273.98999 
L 911.485925 273.99006 
L 920.703075 273.99006 
L 929.920225 273.99006 
L 939.137375 273.99006 
L 948.354525 273.99006 
L 957.571675 273.99006 
L 966.788825 273.99006 
L 976.005975 273.99006 
L 985.223125 273.99006 
" style="fill:none;stroke:#5cb85c;stroke-linecap:square;"/>
   </g>
   <g id="line2d_16">
    <path clip-path="url(#p0c6cb37e71)" d="M 63.508125 273.99006 
L 985.223125 273.99006 
" style="fill:none;stroke:#dedede;stroke-linecap:square;stroke-width:2;"/>
   </g>
   <g id="text_18">
    <!-- FastQC: Per Sequence GC Content -->
    <defs>
     <path d="M 9.8125 72.90625 
L 51.703125 72.90625 
L 51.703125 64.59375 
L 19.671875 64.59375 
L 19.671875 43.109375 
L 48.578125 43.109375 
L 48.578125 34.8125 
L 19.671875 34.8125 
L 19.671875 0 
L 9.8125 0 
z
" id="DejaVuSans-70"/>
     <path d="M 34.28125 27.484375 
Q 23.390625 27.484375 19.1875 25 
Q 14.984375 22.515625 14.984375 16.5 
Q 14.984375 11.71875 18.140625 8.90625 
Q 21.296875 6.109375 26.703125 6.109375 
Q 34.1875 6.109375 38.703125 11.40625 
Q 43.21875 16.703125 43.21875 25.484375 
L 43.21875 27.484375 
z
M 52.203125 31.203125 
L 52.203125 0 
L 43.21875 0 
L 43.21875 8.296875 
Q 40.140625 3.328125 35.546875 0.953125 
Q 30.953125 -1.421875 24.3125 -1.421875 
Q 15.921875 -1.421875 10.953125 3.296875 
Q 6 8.015625 6 15.921875 
Q 6 25.140625 12.171875 29.828125 
Q 18.359375 34.515625 30.609375 34.515625 
L 43.21875 34.515625 
L 43.21875 35.40625 
Q 43.21875 41.609375 39.140625 45 
Q 35.0625 48.390625 27.6875 48.390625 
Q 23 48.390625 18.546875 47.265625 
Q 14.109375 46.140625 10.015625 43.890625 
L 10.015625 52.203125 
Q 14.9375 54.109375 19.578125 55.046875 
Q 24.21875 56 28.609375 56 
Q 40.484375 56 46.34375 49.84375 
Q 52.203125 43.703125 52.203125 31.203125 
z
" id="DejaVuSans-97"/>
     <path d="M 44.28125 53.078125 
L 44.28125 44.578125 
Q 40.484375 46.53125 36.375 47.5 
Q 32.28125 48.484375 27.875 48.484375 
Q 21.1875 48.484375 17.84375 46.4375 
Q 14.5 44.390625 14.5 40.28125 
Q 14.5 37.15625 16.890625 35.375 
Q 19.28125 33.59375 26.515625 31.984375 
L 29.59375 31.296875 
Q 39.15625 29.25 43.1875 25.515625 
Q 47.21875 21.78125 47.21875 15.09375 
Q 47.21875 7.46875 41.1875 3.015625 
Q 35.15625 -1.421875 24.609375 -1.421875 
Q 20.21875 -1.421875 15.453125 -0.5625 
Q 10.6875 0.296875 5.421875 2 
L 5.421875 11.28125 
Q 10.40625 8.6875 15.234375 7.390625 
Q 20.0625 6.109375 24.8125 6.109375 
Q 31.15625 6.109375 34.5625 8.28125 
Q 37.984375 10.453125 37.984375 14.40625 
Q 37.984375 18.0625 35.515625 20.015625 
Q 33.0625 21.96875 24.703125 23.78125 
L 21.578125 24.515625 
Q 13.234375 26.265625 9.515625 29.90625 
Q 5.8125 33.546875 5.8125 39.890625 
Q 5.8125 47.609375 11.28125 51.796875 
Q 16.75 56 26.8125 56 
Q 31.78125 56 36.171875 55.265625 
Q 40.578125 54.546875 44.28125 53.078125 
z
" id="DejaVuSans-115"/>
     <path d="M 39.40625 66.21875 
Q 28.65625 66.21875 22.328125 58.203125 
Q 16.015625 50.203125 16.015625 36.375 
Q 16.015625 22.609375 22.328125 14.59375 
Q 28.65625 6.59375 39.40625 6.59375 
Q 50.140625 6.59375 56.421875 14.59375 
Q 62.703125 22.609375 62.703125 36.375 
Q 62.703125 50.203125 56.421875 58.203125 
Q 50.140625 66.21875 39.40625 66.21875 
z
M 53.21875 1.3125 
L 66.21875 -12.890625 
L 54.296875 -12.890625 
L 43.5 -1.21875 
Q 41.890625 -1.3125 41.03125 -1.359375 
Q 40.1875 -1.421875 39.40625 -1.421875 
Q 24.03125 -1.421875 14.8125 8.859375 
Q 5.609375 19.140625 5.609375 36.375 
Q 5.609375 53.65625 14.8125 63.9375 
Q 24.03125 74.21875 39.40625 74.21875 
Q 54.734375 74.21875 63.90625 63.9375 
Q 73.09375 53.65625 73.09375 36.375 
Q 73.09375 23.6875 67.984375 14.640625 
Q 62.890625 5.609375 53.21875 1.3125 
z
" id="DejaVuSans-81"/>
     <path d="M 11.71875 12.40625 
L 22.015625 12.40625 
L 22.015625 0 
L 11.71875 0 
z
M 11.71875 51.703125 
L 22.015625 51.703125 
L 22.015625 39.3125 
L 11.71875 39.3125 
z
" id="DejaVuSans-58"/>
     <path d="M 19.671875 64.796875 
L 19.671875 37.40625 
L 32.078125 37.40625 
Q 38.96875 37.40625 42.71875 40.96875 
Q 46.484375 44.53125 46.484375 51.125 
Q 46.484375 57.671875 42.71875 61.234375 
Q 38.96875 64.796875 32.078125 64.796875 
z
M 9.8125 72.90625 
L 32.078125 72.90625 
Q 44.34375 72.90625 50.609375 67.359375 
Q 56.890625 61.8125 56.890625 51.125 
Q 56.890625 40.328125 50.609375 34.8125 
Q 44.34375 29.296875 32.078125 29.296875 
L 19.671875 29.296875 
L 19.671875 0 
L 9.8125 0 
z
" id="DejaVuSans-80"/>
     <path d="M 56.203125 29.59375 
L 56.203125 25.203125 
L 14.890625 25.203125 
Q 15.484375 15.921875 20.484375 11.0625 
Q 25.484375 6.203125 34.421875 6.203125 
Q 39.59375 6.203125 44.453125 7.46875 
Q 49.3125 8.734375 54.109375 11.28125 
L 54.109375 2.78125 
Q 49.265625 0.734375 44.1875 -0.34375 
Q 39.109375 -1.421875 33.890625 -1.421875 
Q 20.796875 -1.421875 13.15625 6.1875 
Q 5.515625 13.8125 5.515625 26.8125 
Q 5.515625 40.234375 12.765625 48.109375 
Q 20.015625 56 32.328125 56 
Q 43.359375 56 49.78125 48.890625 
Q 56.203125 41.796875 56.203125 29.59375 
z
M 47.21875 32.234375 
Q 47.125 39.59375 43.09375 43.984375 
Q 39.0625 48.390625 32.421875 48.390625 
Q 24.90625 48.390625 20.390625 44.140625 
Q 15.875 39.890625 15.1875 32.171875 
z
" id="DejaVuSans-101"/>
     <path d="M 41.109375 46.296875 
Q 39.59375 47.171875 37.8125 47.578125 
Q 36.03125 48 33.890625 48 
Q 26.265625 48 22.1875 43.046875 
Q 18.109375 38.09375 18.109375 28.8125 
L 18.109375 0 
L 9.078125 0 
L 9.078125 54.6875 
L 18.109375 54.6875 
L 18.109375 46.1875 
Q 20.953125 51.171875 25.484375 53.578125 
Q 30.03125 56 36.53125 56 
Q 37.453125 56 38.578125 55.875 
Q 39.703125 55.765625 41.0625 55.515625 
z
" id="DejaVuSans-114"/>
     <path d="M 53.515625 70.515625 
L 53.515625 60.890625 
Q 47.90625 63.578125 42.921875 64.890625 
Q 37.9375 66.21875 33.296875 66.21875 
Q 25.25 66.21875 20.875 63.09375 
Q 16.5 59.96875 16.5 54.203125 
Q 16.5 49.359375 19.40625 46.890625 
Q 22.3125 44.4375 30.421875 42.921875 
L 36.375 41.703125 
Q 47.40625 39.59375 52.65625 34.296875 
Q 57.90625 29 57.90625 20.125 
Q 57.90625 9.515625 50.796875 4.046875 
Q 43.703125 -1.421875 29.984375 -1.421875 
Q 24.8125 -1.421875 18.96875 -0.25 
Q 13.140625 0.921875 6.890625 3.21875 
L 6.890625 13.375 
Q 12.890625 10.015625 18.65625 8.296875 
Q 24.421875 6.59375 29.984375 6.59375 
Q 38.421875 6.59375 43.015625 9.90625 
Q 47.609375 13.234375 47.609375 19.390625 
Q 47.609375 24.75 44.3125 27.78125 
Q 41.015625 30.8125 33.5 32.328125 
L 27.484375 33.5 
Q 16.453125 35.6875 11.515625 40.375 
Q 6.59375 45.0625 6.59375 53.421875 
Q 6.59375 63.09375 13.40625 68.65625 
Q 20.21875 74.21875 32.171875 74.21875 
Q 37.3125 74.21875 42.625 73.28125 
Q 47.953125 72.359375 53.515625 70.515625 
z
" id="DejaVuSans-83"/>
     <path d="M 14.796875 27.296875 
Q 14.796875 17.390625 18.875 11.75 
Q 22.953125 6.109375 30.078125 6.109375 
Q 37.203125 6.109375 41.296875 11.75 
Q 45.40625 17.390625 45.40625 27.296875 
Q 45.40625 37.203125 41.296875 42.84375 
Q 37.203125 48.484375 30.078125 48.484375 
Q 22.953125 48.484375 18.875 42.84375 
Q 14.796875 37.203125 14.796875 27.296875 
z
M 45.40625 8.203125 
Q 42.578125 3.328125 38.25 0.953125 
Q 33.9375 -1.421875 27.875 -1.421875 
Q 17.96875 -1.421875 11.734375 6.484375 
Q 5.515625 14.40625 5.515625 27.296875 
Q 5.515625 40.1875 11.734375 48.09375 
Q 17.96875 56 27.875 56 
Q 33.9375 56 38.25 53.625 
Q 42.578125 51.265625 45.40625 46.390625 
L 45.40625 54.6875 
L 54.390625 54.6875 
L 54.390625 -20.796875 
L 45.40625 -20.796875 
z
" id="DejaVuSans-113"/>
     <path d="M 48.78125 52.59375 
L 48.78125 44.1875 
Q 44.96875 46.296875 41.140625 47.34375 
Q 37.3125 48.390625 33.40625 48.390625 
Q 24.65625 48.390625 19.8125 42.84375 
Q 14.984375 37.3125 14.984375 27.296875 
Q 14.984375 17.28125 19.8125 11.734375 
Q 24.65625 6.203125 33.40625 6.203125 
Q 37.3125 6.203125 41.140625 7.25 
Q 44.96875 8.296875 48.78125 10.40625 
L 48.78125 2.09375 
Q 45.015625 0.34375 40.984375 -0.53125 
Q 36.96875 -1.421875 32.421875 -1.421875 
Q 20.0625 -1.421875 12.78125 6.34375 
Q 5.515625 14.109375 5.515625 27.296875 
Q 5.515625 40.671875 12.859375 48.328125 
Q 20.21875 56 33.015625 56 
Q 37.15625 56 41.109375 55.140625 
Q 45.0625 54.296875 48.78125 52.59375 
z
" id="DejaVuSans-99"/>
    </defs>
    <g transform="translate(386.724375 19.3575)scale(0.16 -0.16)">
     <use xlink:href="#DejaVuSans-70"/>
     <use x="57.378906" xlink:href="#DejaVuSans-97"/>
     <use x="118.658203" xlink:href="#DejaVuSans-115"/>
     <use x="170.757812" xlink:href="#DejaVuSans-116"/>
     <use x="209.966797" xlink:href="#DejaVuSans-81"/>
     <use x="288.677734" xlink:href="#DejaVuSans-67"/>
     <use x="358.501953" xlink:href="#DejaVuSans-58"/>
     <use x="392.193359" xlink:href="#DejaVuSans-32"/>
     <use x="423.980469" xlink:href="#DejaVuSans-80"/>
     <use x="484.236328" xlink:href="#DejaVuSans-101"/>
     <use x="545.759766" xlink:href="#DejaVuSans-114"/>
     <use x="586.873047" xlink:href="#DejaVuSans-32"/>
     <use x="618.660156" xlink:href="#DejaVuSans-83"/>
     <use x="682.136719" xlink:href="#DejaVuSans-101"/>
     <use x="743.660156" xlink:href="#DejaVuSans-113"/>
     <use x="807.136719" xlink:href="#DejaVuSans-117"/>
     <use x="870.515625" xlink:href="#DejaVuSans-101"/>
     <use x="932.039062" xlink:href="#DejaVuSans-110"/>
     <use x="995.417969" xlink:href="#DejaVuSans-99"/>
     <use x="1050.398438" xlink:href="#DejaVuSans-101"/>
     <use x="1111.921875" xlink:href="#DejaVuSans-32"/>
     <use x="1143.708984" xlink:href="#DejaVuSans-71"/>
     <use x="1221.199219" xlink:href="#DejaVuSans-67"/>
     <use x="1291.023438" xlink:href="#DejaVuSans-32"/>
     <use x="1322.810547" xlink:href="#DejaVuSans-67"/>
     <use x="1392.634766" xlink:href="#DejaVuSans-111"/>
     <use x="1453.816406" xlink:href="#DejaVuSans-110"/>
     <use x="1517.195312" xlink:href="#DejaVuSans-116"/>
     <use x="1556.404297" xlink:href="#DejaVuSans-101"/>
     <use x="1617.927734" xlink:href="#DejaVuSans-110"/>
     <use x="1681.306641" xlink:href="#DejaVuSans-116"/>
    </g>
   </g>
   <g id="legend_1">
    <g id="line2d_17">
     <path d="M 70.708125 303.490394 
L 86.708125 303.490394 
" style="fill:none;stroke:#5cb85c;stroke-linecap:square;"/>
    </g>
    <g id="line2d_18"/>
    <g id="text_19">
     <!-- Sde-CMat_061-Ex1-7A-ssl.clmp.fp2_repr.R1 -->
     <defs>
      <path d="M 45.40625 46.390625 
L 45.40625 75.984375 
L 54.390625 75.984375 
L 54.390625 0 
L 45.40625 0 
L 45.40625 8.203125 
Q 42.578125 3.328125 38.25 0.953125 
Q 33.9375 -1.421875 27.875 -1.421875 
Q 17.96875 -1.421875 11.734375 6.484375 
Q 5.515625 14.40625 5.515625 27.296875 
Q 5.515625 40.1875 11.734375 48.09375 
Q 17.96875 56 27.875 56 
Q 33.9375 56 38.25 53.625 
Q 42.578125 51.265625 45.40625 46.390625 
z
M 14.796875 27.296875 
Q 14.796875 17.390625 18.875 11.75 
Q 22.953125 6.109375 30.078125 6.109375 
Q 37.203125 6.109375 41.296875 11.75 
Q 45.40625 17.390625 45.40625 27.296875 
Q 45.40625 37.203125 41.296875 42.84375 
Q 37.203125 48.484375 30.078125 48.484375 
Q 22.953125 48.484375 18.875 42.84375 
Q 14.796875 37.203125 14.796875 27.296875 
z
" id="DejaVuSans-100"/>
      <path d="M 4.890625 31.390625 
L 31.203125 31.390625 
L 31.203125 23.390625 
L 4.890625 23.390625 
z
" id="DejaVuSans-45"/>
      <path d="M 9.8125 72.90625 
L 24.515625 72.90625 
L 43.109375 23.296875 
L 61.8125 72.90625 
L 76.515625 72.90625 
L 76.515625 0 
L 66.890625 0 
L 66.890625 64.015625 
L 48.09375 14.015625 
L 38.1875 14.015625 
L 19.390625 64.015625 
L 19.390625 0 
L 9.8125 0 
z
" id="DejaVuSans-77"/>
      <path d="M 50.984375 -16.609375 
L 50.984375 -23.578125 
L -0.984375 -23.578125 
L -0.984375 -16.609375 
z
" id="DejaVuSans-95"/>
      <path d="M 9.8125 72.90625 
L 55.90625 72.90625 
L 55.90625 64.59375 
L 19.671875 64.59375 
L 19.671875 43.015625 
L 54.390625 43.015625 
L 54.390625 34.71875 
L 19.671875 34.71875 
L 19.671875 8.296875 
L 56.78125 8.296875 
L 56.78125 0 
L 9.8125 0 
z
" id="DejaVuSans-69"/>
      <path d="M 54.890625 54.6875 
L 35.109375 28.078125 
L 55.90625 0 
L 45.3125 0 
L 29.390625 21.484375 
L 13.484375 0 
L 2.875 0 
L 24.125 28.609375 
L 4.6875 54.6875 
L 15.28125 54.6875 
L 29.78125 35.203125 
L 44.28125 54.6875 
z
" id="DejaVuSans-120"/>
      <path d="M 8.203125 72.90625 
L 55.078125 72.90625 
L 55.078125 68.703125 
L 28.609375 0 
L 18.3125 0 
L 43.21875 64.59375 
L 8.203125 64.59375 
z
" id="DejaVuSans-55"/>
      <path d="M 34.1875 63.1875 
L 20.796875 26.90625 
L 47.609375 26.90625 
z
M 28.609375 72.90625 
L 39.796875 72.90625 
L 67.578125 0 
L 57.328125 0 
L 50.6875 18.703125 
L 17.828125 18.703125 
L 11.1875 0 
L 0.78125 0 
z
" id="DejaVuSans-65"/>
      <path d="M 9.421875 75.984375 
L 18.40625 75.984375 
L 18.40625 0 
L 9.421875 0 
z
" id="DejaVuSans-108"/>
      <path d="M 10.6875 12.40625 
L 21 12.40625 
L 21 0 
L 10.6875 0 
z
" id="DejaVuSans-46"/>
      <path d="M 52 44.1875 
Q 55.375 50.25 60.0625 53.125 
Q 64.75 56 71.09375 56 
Q 79.640625 56 84.28125 50.015625 
Q 88.921875 44.046875 88.921875 33.015625 
L 88.921875 0 
L 79.890625 0 
L 79.890625 32.71875 
Q 79.890625 40.578125 77.09375 44.375 
Q 74.3125 48.1875 68.609375 48.1875 
Q 61.625 48.1875 57.5625 43.546875 
Q 53.515625 38.921875 53.515625 30.90625 
L 53.515625 0 
L 44.484375 0 
L 44.484375 32.71875 
Q 44.484375 40.625 41.703125 44.40625 
Q 38.921875 48.1875 33.109375 48.1875 
Q 26.21875 48.1875 22.15625 43.53125 
Q 18.109375 38.875 18.109375 30.90625 
L 18.109375 0 
L 9.078125 0 
L 9.078125 54.6875 
L 18.109375 54.6875 
L 18.109375 46.1875 
Q 21.1875 51.21875 25.484375 53.609375 
Q 29.78125 56 35.6875 56 
Q 41.65625 56 45.828125 52.96875 
Q 50 49.953125 52 44.1875 
z
" id="DejaVuSans-109"/>
      <path d="M 18.109375 8.203125 
L 18.109375 -20.796875 
L 9.078125 -20.796875 
L 9.078125 54.6875 
L 18.109375 54.6875 
L 18.109375 46.390625 
Q 20.953125 51.265625 25.265625 53.625 
Q 29.59375 56 35.59375 56 
Q 45.5625 56 51.78125 48.09375 
Q 58.015625 40.1875 58.015625 27.296875 
Q 58.015625 14.40625 51.78125 6.484375 
Q 45.5625 -1.421875 35.59375 -1.421875 
Q 29.59375 -1.421875 25.265625 0.953125 
Q 20.953125 3.328125 18.109375 8.203125 
z
M 48.6875 27.296875 
Q 48.6875 37.203125 44.609375 42.84375 
Q 40.53125 48.484375 33.40625 48.484375 
Q 26.265625 48.484375 22.1875 42.84375 
Q 18.109375 37.203125 18.109375 27.296875 
Q 18.109375 17.390625 22.1875 11.75 
Q 26.265625 6.109375 33.40625 6.109375 
Q 40.53125 6.109375 44.609375 11.75 
Q 48.6875 17.390625 48.6875 27.296875 
z
" id="DejaVuSans-112"/>
      <path d="M 37.109375 75.984375 
L 37.109375 68.5 
L 28.515625 68.5 
Q 23.6875 68.5 21.796875 66.546875 
Q 19.921875 64.59375 19.921875 59.515625 
L 19.921875 54.6875 
L 34.71875 54.6875 
L 34.71875 47.703125 
L 19.921875 47.703125 
L 19.921875 0 
L 10.890625 0 
L 10.890625 47.703125 
L 2.296875 47.703125 
L 2.296875 54.6875 
L 10.890625 54.6875 
L 10.890625 58.5 
Q 10.890625 67.625 15.140625 71.796875 
Q 19.390625 75.984375 28.609375 75.984375 
z
" id="DejaVuSans-102"/>
      <path d="M 44.390625 34.1875 
Q 47.5625 33.109375 50.5625 29.59375 
Q 53.5625 26.078125 56.59375 19.921875 
L 66.609375 0 
L 56 0 
L 46.6875 18.703125 
Q 43.0625 26.03125 39.671875 28.421875 
Q 36.28125 30.8125 30.421875 30.8125 
L 19.671875 30.8125 
L 19.671875 0 
L 9.8125 0 
L 9.8125 72.90625 
L 32.078125 72.90625 
Q 44.578125 72.90625 50.734375 67.671875 
Q 56.890625 62.453125 56.890625 51.90625 
Q 56.890625 45.015625 53.6875 40.46875 
Q 50.484375 35.9375 44.390625 34.1875 
z
M 19.671875 64.796875 
L 19.671875 38.921875 
L 32.078125 38.921875 
Q 39.203125 38.921875 42.84375 42.21875 
Q 46.484375 45.515625 46.484375 51.90625 
Q 46.484375 58.296875 42.84375 61.546875 
Q 39.203125 64.796875 32.078125 64.796875 
z
" id="DejaVuSans-82"/>
     </defs>
     <g transform="translate(93.108125 306.290394)scale(0.08 -0.08)">
      <use xlink:href="#DejaVuSans-83"/>
      <use x="63.476562" xlink:href="#DejaVuSans-100"/>
      <use x="126.953125" xlink:href="#DejaVuSans-101"/>
      <use x="188.476562" xlink:href="#DejaVuSans-45"/>
      <use x="224.560547" xlink:href="#DejaVuSans-67"/>
      <use x="294.384766" xlink:href="#DejaVuSans-77"/>
      <use x="380.664062" xlink:href="#DejaVuSans-97"/>
      <use x="441.943359" xlink:href="#DejaVuSans-116"/>
      <use x="481.152344" xlink:href="#DejaVuSans-95"/>
      <use x="531.152344" xlink:href="#DejaVuSans-48"/>
      <use x="594.775391" xlink:href="#DejaVuSans-54"/>
      <use x="658.398438" xlink:href="#DejaVuSans-49"/>
      <use x="722.021484" xlink:href="#DejaVuSans-45"/>
      <use x="758.105469" xlink:href="#DejaVuSans-69"/>
      <use x="821.289062" xlink:href="#DejaVuSans-120"/>
      <use x="880.46875" xlink:href="#DejaVuSans-49"/>
      <use x="944.091797" xlink:href="#DejaVuSans-45"/>
      <use x="980.175781" xlink:href="#DejaVuSans-55"/>
      <use x="1043.798828" xlink:href="#DejaVuSans-65"/>
      <use x="1112.175781" xlink:href="#DejaVuSans-45"/>
      <use x="1148.259766" xlink:href="#DejaVuSans-115"/>
      <use x="1200.359375" xlink:href="#DejaVuSans-115"/>
      <use x="1252.458984" xlink:href="#DejaVuSans-108"/>
      <use x="1280.242188" xlink:href="#DejaVuSans-46"/>
      <use x="1312.029297" xlink:href="#DejaVuSans-99"/>
      <use x="1367.009766" xlink:href="#DejaVuSans-108"/>
      <use x="1394.792969" xlink:href="#DejaVuSans-109"/>
      <use x="1492.205078" xlink:href="#DejaVuSans-112"/>
      <use x="1555.681641" xlink:href="#DejaVuSans-46"/>
      <use x="1587.46875" xlink:href="#DejaVuSans-102"/>
      <use x="1622.673828" xlink:href="#DejaVuSans-112"/>
      <use x="1686.150391" xlink:href="#DejaVuSans-50"/>
      <use x="1749.773438" xlink:href="#DejaVuSans-95"/>
      <use x="1799.773438" xlink:href="#DejaVuSans-114"/>
      <use x="1840.855469" xlink:href="#DejaVuSans-101"/>
      <use x="1902.378906" xlink:href="#DejaVuSans-112"/>
      <use x="1965.855469" xlink:href="#DejaVuSans-114"/>
      <use x="2006.828125" xlink:href="#DejaVuSans-46"/>
      <use x="2038.615234" xlink:href="#DejaVuSans-82"/>
      <use x="2108.097656" xlink:href="#DejaVuSans-49"/>
     </g>
    </g>
    <g id="line2d_19">
     <path d="M 70.708125 315.455394 
L 86.708125 315.455394 
" style="fill:none;stroke:#5cb85c;stroke-linecap:square;"/>
    </g>
    <g id="line2d_20"/>
    <g id="text_20">
     <!-- Sde-CMat_061-Ex1-7A-ssl.clmp.fp2_repr.R2 -->
     <g transform="translate(93.108125 318.255394)scale(0.08 -0.08)">
      <use xlink:href="#DejaVuSans-83"/>
      <use x="63.476562" xlink:href="#DejaVuSans-100"/>
      <use x="126.953125" xlink:href="#DejaVuSans-101"/>
      <use x="188.476562" xlink:href="#DejaVuSans-45"/>
      <use x="224.560547" xlink:href="#DejaVuSans-67"/>
      <use x="294.384766" xlink:href="#DejaVuSans-77"/>
      <use x="380.664062" xlink:href="#DejaVuSans-97"/>
      <use x="441.943359" xlink:href="#DejaVuSans-116"/>
      <use x="481.152344" xlink:href="#DejaVuSans-95"/>
      <use x="531.152344" xlink:href="#DejaVuSans-48"/>
      <use x="594.775391" xlink:href="#DejaVuSans-54"/>
      <use x="658.398438" xlink:href="#DejaVuSans-49"/>
      <use x="722.021484" xlink:href="#DejaVuSans-45"/>
      <use x="758.105469" xlink:href="#DejaVuSans-69"/>
      <use x="821.289062" xlink:href="#DejaVuSans-120"/>
      <use x="880.46875" xlink:href="#DejaVuSans-49"/>
      <use x="944.091797" xlink:href="#DejaVuSans-45"/>
      <use x="980.175781" xlink:href="#DejaVuSans-55"/>
      <use x="1043.798828" xlink:href="#DejaVuSans-65"/>
      <use x="1112.175781" xlink:href="#DejaVuSans-45"/>
      <use x="1148.259766" xlink:href="#DejaVuSans-115"/>
      <use x="1200.359375" xlink:href="#DejaVuSans-115"/>
      <use x="1252.458984" xlink:href="#DejaVuSans-108"/>
      <use x="1280.242188" xlink:href="#DejaVuSans-46"/>
      <use x="1312.029297" xlink:href="#DejaVuSans-99"/>
      <use x="1367.009766" xlink:href="#DejaVuSans-108"/>
      <use x="1394.792969" xlink:href="#DejaVuSans-109"/>
      <use x="1492.205078" xlink:href="#DejaVuSans-112"/>
      <use x="1555.681641" xlink:href="#DejaVuSans-46"/>
      <use x="1587.46875" xlink:href="#DejaVuSans-102"/>
      <use x="1622.673828" xlink:href="#DejaVuSans-112"/>
      <use x="1686.150391" xlink:href="#DejaVuSans-50"/>
      <use x="1749.773438" xlink:href="#DejaVuSans-95"/>
      <use x="1799.773438" xlink:href="#DejaVuSans-114"/>
      <use x="1840.855469" xlink:href="#DejaVuSans-101"/>
      <use x="1902.378906" xlink:href="#DejaVuSans-112"/>
      <use x="1965.855469" xlink:href="#DejaVuSans-114"/>
      <use x="2006.828125" xlink:href="#DejaVuSans-46"/>
      <use x="2038.615234" xlink:href="#DejaVuSans-82"/>
      <use x="2108.097656" xlink:href="#DejaVuSans-50"/>
     </g>
    </g>
    <g id="line2d_21">
     <path d="M 248.502187 303.490394 
L 264.502187 303.490394 
" style="fill:none;stroke:#5cb85c;stroke-linecap:square;"/>
    </g>
    <g id="line2d_22"/>
    <g id="text_21">
     <!-- Sde-CMat_061-Ex1-8A-ssl.clmp.fp2_repr.R1 -->
     <g transform="translate(270.902187 306.290394)scale(0.08 -0.08)">
      <use xlink:href="#DejaVuSans-83"/>
      <use x="63.476562" xlink:href="#DejaVuSans-100"/>
      <use x="126.953125" xlink:href="#DejaVuSans-101"/>
      <use x="188.476562" xlink:href="#DejaVuSans-45"/>
      <use x="224.560547" xlink:href="#DejaVuSans-67"/>
      <use x="294.384766" xlink:href="#DejaVuSans-77"/>
      <use x="380.664062" xlink:href="#DejaVuSans-97"/>
      <use x="441.943359" xlink:href="#DejaVuSans-116"/>
      <use x="481.152344" xlink:href="#DejaVuSans-95"/>
      <use x="531.152344" xlink:href="#DejaVuSans-48"/>
      <use x="594.775391" xlink:href="#DejaVuSans-54"/>
      <use x="658.398438" xlink:href="#DejaVuSans-49"/>
      <use x="722.021484" xlink:href="#DejaVuSans-45"/>
      <use x="758.105469" xlink:href="#DejaVuSans-69"/>
      <use x="821.289062" xlink:href="#DejaVuSans-120"/>
      <use x="880.46875" xlink:href="#DejaVuSans-49"/>
      <use x="944.091797" xlink:href="#DejaVuSans-45"/>
      <use x="980.175781" xlink:href="#DejaVuSans-56"/>
      <use x="1043.798828" xlink:href="#DejaVuSans-65"/>
      <use x="1112.175781" xlink:href="#DejaVuSans-45"/>
      <use x="1148.259766" xlink:href="#DejaVuSans-115"/>
      <use x="1200.359375" xlink:href="#DejaVuSans-115"/>
      <use x="1252.458984" xlink:href="#DejaVuSans-108"/>
      <use x="1280.242188" xlink:href="#DejaVuSans-46"/>
      <use x="1312.029297" xlink:href="#DejaVuSans-99"/>
      <use x="1367.009766" xlink:href="#DejaVuSans-108"/>
      <use x="1394.792969" xlink:href="#DejaVuSans-109"/>
      <use x="1492.205078" xlink:href="#DejaVuSans-112"/>
      <use x="1555.681641" xlink:href="#DejaVuSans-46"/>
      <use x="1587.46875" xlink:href="#DejaVuSans-102"/>
      <use x="1622.673828" xlink:href="#DejaVuSans-112"/>
      <use x="1686.150391" xlink:href="#DejaVuSans-50"/>
      <use x="1749.773438" xlink:href="#DejaVuSans-95"/>
      <use x="1799.773438" xlink:href="#DejaVuSans-114"/>
      <use x="1840.855469" xlink:href="#DejaVuSans-101"/>
      <use x="1902.378906" xlink:href="#DejaVuSans-112"/>
      <use x="1965.855469" xlink:href="#DejaVuSans-114"/>
      <use x="2006.828125" xlink:href="#DejaVuSans-46"/>
      <use x="2038.615234" xlink:href="#DejaVuSans-82"/>
      <use x="2108.097656" xlink:href="#DejaVuSans-49"/>
     </g>
    </g>
    <g id="line2d_23">
     <path d="M 426.29625 303.490394 
L 442.29625 303.490394 
" style="fill:none;stroke:#5cb85c;stroke-linecap:square;"/>
    </g>
    <g id="line2d_24"/>
    <g id="text_22">
     <!-- Sde-CMat_061-Ex1-8A-ssl.clmp.fp2_repr.R2 -->
     <g transform="translate(448.69625 306.290394)scale(0.08 -0.08)">
      <use xlink:href="#DejaVuSans-83"/>
      <use x="63.476562" xlink:href="#DejaVuSans-100"/>
      <use x="126.953125" xlink:href="#DejaVuSans-101"/>
      <use x="188.476562" xlink:href="#DejaVuSans-45"/>
      <use x="224.560547" xlink:href="#DejaVuSans-67"/>
      <use x="294.384766" xlink:href="#DejaVuSans-77"/>
      <use x="380.664062" xlink:href="#DejaVuSans-97"/>
      <use x="441.943359" xlink:href="#DejaVuSans-116"/>
      <use x="481.152344" xlink:href="#DejaVuSans-95"/>
      <use x="531.152344" xlink:href="#DejaVuSans-48"/>
      <use x="594.775391" xlink:href="#DejaVuSans-54"/>
      <use x="658.398438" xlink:href="#DejaVuSans-49"/>
      <use x="722.021484" xlink:href="#DejaVuSans-45"/>
      <use x="758.105469" xlink:href="#DejaVuSans-69"/>
      <use x="821.289062" xlink:href="#DejaVuSans-120"/>
      <use x="880.46875" xlink:href="#DejaVuSans-49"/>
      <use x="944.091797" xlink:href="#DejaVuSans-45"/>
      <use x="980.175781" xlink:href="#DejaVuSans-56"/>
      <use x="1043.798828" xlink:href="#DejaVuSans-65"/>
      <use x="1112.175781" xlink:href="#DejaVuSans-45"/>
      <use x="1148.259766" xlink:href="#DejaVuSans-115"/>
      <use x="1200.359375" xlink:href="#DejaVuSans-115"/>
      <use x="1252.458984" xlink:href="#DejaVuSans-108"/>
      <use x="1280.242188" xlink:href="#DejaVuSans-46"/>
      <use x="1312.029297" xlink:href="#DejaVuSans-99"/>
      <use x="1367.009766" xlink:href="#DejaVuSans-108"/>
      <use x="1394.792969" xlink:href="#DejaVuSans-109"/>
      <use x="1492.205078" xlink:href="#DejaVuSans-112"/>
      <use x="1555.681641" xlink:href="#DejaVuSans-46"/>
      <use x="1587.46875" xlink:href="#DejaVuSans-102"/>
      <use x="1622.673828" xlink:href="#DejaVuSans-112"/>
      <use x="1686.150391" xlink:href="#DejaVuSans-50"/>
      <use x="1749.773438" xlink:href="#DejaVuSans-95"/>
      <use x="1799.773438" xlink:href="#DejaVuSans-114"/>
      <use x="1840.855469" xlink:href="#DejaVuSans-101"/>
      <use x="1902.378906" xlink:href="#DejaVuSans-112"/>
      <use x="1965.855469" xlink:href="#DejaVuSans-114"/>
      <use x="2006.828125" xlink:href="#DejaVuSans-46"/>
      <use x="2038.615234" xlink:href="#DejaVuSans-82"/>
      <use x="2108.097656" xlink:href="#DejaVuSans-50"/>
     </g>
    </g>
    <g id="line2d_25">
     <path d="M 604.090312 303.490394 
L 620.090312 303.490394 
" style="fill:none;stroke:#5cb85c;stroke-linecap:square;"/>
    </g>
    <g id="line2d_26"/>
    <g id="text_23">
     <!-- Sde-CMat_061-Ex1-9A-ssl.clmp.fp2_repr.R1 -->
     <defs>
      <path d="M 10.984375 1.515625 
L 10.984375 10.5 
Q 14.703125 8.734375 18.5 7.8125 
Q 22.3125 6.890625 25.984375 6.890625 
Q 35.75 6.890625 40.890625 13.453125 
Q 46.046875 20.015625 46.78125 33.40625 
Q 43.953125 29.203125 39.59375 26.953125 
Q 35.25 24.703125 29.984375 24.703125 
Q 19.046875 24.703125 12.671875 31.3125 
Q 6.296875 37.9375 6.296875 49.421875 
Q 6.296875 60.640625 12.9375 67.421875 
Q 19.578125 74.21875 30.609375 74.21875 
Q 43.265625 74.21875 49.921875 64.515625 
Q 56.59375 54.828125 56.59375 36.375 
Q 56.59375 19.140625 48.40625 8.859375 
Q 40.234375 -1.421875 26.421875 -1.421875 
Q 22.703125 -1.421875 18.890625 -0.6875 
Q 15.09375 0.046875 10.984375 1.515625 
z
M 30.609375 32.421875 
Q 37.25 32.421875 41.125 36.953125 
Q 45.015625 41.5 45.015625 49.421875 
Q 45.015625 57.28125 41.125 61.84375 
Q 37.25 66.40625 30.609375 66.40625 
Q 23.96875 66.40625 20.09375 61.84375 
Q 16.21875 57.28125 16.21875 49.421875 
Q 16.21875 41.5 20.09375 36.953125 
Q 23.96875 32.421875 30.609375 32.421875 
z
" id="DejaVuSans-57"/>
     </defs>
     <g transform="translate(626.490312 306.290394)scale(0.08 -0.08)">
      <use xlink:href="#DejaVuSans-83"/>
      <use x="63.476562" xlink:href="#DejaVuSans-100"/>
      <use x="126.953125" xlink:href="#DejaVuSans-101"/>
      <use x="188.476562" xlink:href="#DejaVuSans-45"/>
      <use x="224.560547" xlink:href="#DejaVuSans-67"/>
      <use x="294.384766" xlink:href="#DejaVuSans-77"/>
      <use x="380.664062" xlink:href="#DejaVuSans-97"/>
      <use x="441.943359" xlink:href="#DejaVuSans-116"/>
      <use x="481.152344" xlink:href="#DejaVuSans-95"/>
      <use x="531.152344" xlink:href="#DejaVuSans-48"/>
      <use x="594.775391" xlink:href="#DejaVuSans-54"/>
      <use x="658.398438" xlink:href="#DejaVuSans-49"/>
      <use x="722.021484" xlink:href="#DejaVuSans-45"/>
      <use x="758.105469" xlink:href="#DejaVuSans-69"/>
      <use x="821.289062" xlink:href="#DejaVuSans-120"/>
      <use x="880.46875" xlink:href="#DejaVuSans-49"/>
      <use x="944.091797" xlink:href="#DejaVuSans-45"/>
      <use x="980.175781" xlink:href="#DejaVuSans-57"/>
      <use x="1043.798828" xlink:href="#DejaVuSans-65"/>
      <use x="1112.175781" xlink:href="#DejaVuSans-45"/>
      <use x="1148.259766" xlink:href="#DejaVuSans-115"/>
      <use x="1200.359375" xlink:href="#DejaVuSans-115"/>
      <use x="1252.458984" xlink:href="#DejaVuSans-108"/>
      <use x="1280.242188" xlink:href="#DejaVuSans-46"/>
      <use x="1312.029297" xlink:href="#DejaVuSans-99"/>
      <use x="1367.009766" xlink:href="#DejaVuSans-108"/>
      <use x="1394.792969" xlink:href="#DejaVuSans-109"/>
      <use x="1492.205078" xlink:href="#DejaVuSans-112"/>
      <use x="1555.681641" xlink:href="#DejaVuSans-46"/>
      <use x="1587.46875" xlink:href="#DejaVuSans-102"/>
      <use x="1622.673828" xlink:href="#DejaVuSans-112"/>
      <use x="1686.150391" xlink:href="#DejaVuSans-50"/>
      <use x="1749.773438" xlink:href="#DejaVuSans-95"/>
      <use x="1799.773438" xlink:href="#DejaVuSans-114"/>
      <use x="1840.855469" xlink:href="#DejaVuSans-101"/>
      <use x="1902.378906" xlink:href="#DejaVuSans-112"/>
      <use x="1965.855469" xlink:href="#DejaVuSans-114"/>
      <use x="2006.828125" xlink:href="#DejaVuSans-46"/>
      <use x="2038.615234" xlink:href="#DejaVuSans-82"/>
      <use x="2108.097656" xlink:href="#DejaVuSans-49"/>
     </g>
    </g>
    <g id="line2d_27">
     <path d="M 781.884375 303.490394 
L 797.884375 303.490394 
" style="fill:none;stroke:#5cb85c;stroke-linecap:square;"/>
    </g>
    <g id="line2d_28"/>
    <g id="text_24">
     <!-- Sde-CMat_061-Ex1-9A-ssl.clmp.fp2_repr.R2 -->
     <g transform="translate(804.284375 306.290394)scale(0.08 -0.08)">
      <use xlink:href="#DejaVuSans-83"/>
      <use x="63.476562" xlink:href="#DejaVuSans-100"/>
      <use x="126.953125" xlink:href="#DejaVuSans-101"/>
      <use x="188.476562" xlink:href="#DejaVuSans-45"/>
      <use x="224.560547" xlink:href="#DejaVuSans-67"/>
      <use x="294.384766" xlink:href="#DejaVuSans-77"/>
      <use x="380.664062" xlink:href="#DejaVuSans-97"/>
      <use x="441.943359" xlink:href="#DejaVuSans-116"/>
      <use x="481.152344" xlink:href="#DejaVuSans-95"/>
      <use x="531.152344" xlink:href="#DejaVuSans-48"/>
      <use x="594.775391" xlink:href="#DejaVuSans-54"/>
      <use x="658.398438" xlink:href="#DejaVuSans-49"/>
      <use x="722.021484" xlink:href="#DejaVuSans-45"/>
      <use x="758.105469" xlink:href="#DejaVuSans-69"/>
      <use x="821.289062" xlink:href="#DejaVuSans-120"/>
      <use x="880.46875" xlink:href="#DejaVuSans-49"/>
      <use x="944.091797" xlink:href="#DejaVuSans-45"/>
      <use x="980.175781" xlink:href="#DejaVuSans-57"/>
      <use x="1043.798828" xlink:href="#DejaVuSans-65"/>
      <use x="1112.175781" xlink:href="#DejaVuSans-45"/>
      <use x="1148.259766" xlink:href="#DejaVuSans-115"/>
      <use x="1200.359375" xlink:href="#DejaVuSans-115"/>
      <use x="1252.458984" xlink:href="#DejaVuSans-108"/>
      <use x="1280.242188" xlink:href="#DejaVuSans-46"/>
      <use x="1312.029297" xlink:href="#DejaVuSans-99"/>
      <use x="1367.009766" xlink:href="#DejaVuSans-108"/>
      <use x="1394.792969" xlink:href="#DejaVuSans-109"/>
      <use x="1492.205078" xlink:href="#DejaVuSans-112"/>
      <use x="1555.681641" xlink:href="#DejaVuSans-46"/>
      <use x="1587.46875" xlink:href="#DejaVuSans-102"/>
      <use x="1622.673828" xlink:href="#DejaVuSans-112"/>
      <use x="1686.150391" xlink:href="#DejaVuSans-50"/>
      <use x="1749.773438" xlink:href="#DejaVuSans-95"/>
      <use x="1799.773438" xlink:href="#DejaVuSans-114"/>
      <use x="1840.855469" xlink:href="#DejaVuSans-101"/>
      <use x="1902.378906" xlink:href="#DejaVuSans-112"/>
      <use x="1965.855469" xlink:href="#DejaVuSans-114"/>
      <use x="2006.828125" xlink:href="#DejaVuSans-46"/>
      <use x="2038.615234" xlink:href="#DejaVuSans-82"/>
      <use x="2108.097656" xlink:href="#DejaVuSans-50"/>
     </g>
    </g>
   </g>
  </g>
 </g>
 <defs>
  <clipPath id="p0c6cb37e71">
   <rect height="242.5072" width="921.715" x="63.508125" y="31.48286"/>
  </clipPath>
 </defs>
</svg>
