<?xml version="1.0" encoding="utf-8" standalone="no"?>
<!DOCTYPE svg PUBLIC "-//W3C//DTD SVG 1.1//EN"
  "http://www.w3.org/Graphics/SVG/1.1/DTD/svg11.dtd">
<!-- Created with matplotlib (https://matplotlib.org/) -->
<svg height="330.541644pt" version="1.1" viewBox="0 0 1000.340625 330.541644" width="1000.340625pt" xmlns="http://www.w3.org/2000/svg" xmlns:xlink="http://www.w3.org/1999/xlink">
 <defs>
  <style type="text/css">
*{stroke-linecap:butt;stroke-linejoin:round;}
  </style>
 </defs>
 <g id="figure_1">
  <g id="axes_1">
   <g id="patch_1">
    <path d="M 40.600625 273.99006 
L 993.140625 273.99006 
L 993.140625 31.48286 
L 40.600625 31.48286 
z
" style="fill:#ffffff;"/>
   </g>
   <g id="matplotlib.axis_1">
    <g id="xtick_1">
     <g id="text_1">
      <!-- 0 -->
      <defs>
       <path d="M 31.78125 66.40625 
Q 24.171875 66.40625 20.328125 58.90625 
Q 16.5 51.421875 16.5 36.375 
Q 16.5 21.390625 20.328125 13.890625 
Q 24.171875 6.390625 31.78125 6.390625 
Q 39.453125 6.390625 43.28125 13.890625 
Q 47.125 21.390625 47.125 36.375 
Q 47.125 51.421875 43.28125 58.90625 
Q 39.453125 66.40625 31.78125 66.40625 
z
M 31.78125 74.21875 
Q 44.046875 74.21875 50.515625 64.515625 
Q 56.984375 54.828125 56.984375 36.375 
Q 56.984375 17.96875 50.515625 8.265625 
Q 44.046875 -1.421875 31.78125 -1.421875 
Q 19.53125 -1.421875 13.0625 8.265625 
Q 6.59375 17.96875 6.59375 36.375 
Q 6.59375 54.828125 13.0625 64.515625 
Q 19.53125 74.21875 31.78125 74.21875 
z
" id="DejaVuSans-48"/>
      </defs>
      <g transform="translate(78.13377 287.06881)scale(0.08 -0.08)">
       <use xlink:href="#DejaVuSans-48"/>
      </g>
     </g>
    </g>
    <g id="xtick_2">
     <g id="text_2">
      <!-- 50 -->
      <defs>
       <path d="M 10.796875 72.90625 
L 49.515625 72.90625 
L 49.515625 64.59375 
L 19.828125 64.59375 
L 19.828125 46.734375 
Q 21.96875 47.46875 24.109375 47.828125 
Q 26.265625 48.1875 28.421875 48.1875 
Q 40.625 48.1875 47.75 41.5 
Q 54.890625 34.8125 54.890625 23.390625 
Q 54.890625 11.625 47.5625 5.09375 
Q 40.234375 -1.421875 26.90625 -1.421875 
Q 22.3125 -1.421875 17.546875 -0.640625 
Q 12.796875 0.140625 7.71875 1.703125 
L 7.71875 11.625 
Q 12.109375 9.234375 16.796875 8.0625 
Q 21.484375 6.890625 26.703125 6.890625 
Q 35.15625 6.890625 40.078125 11.328125 
Q 45.015625 15.765625 45.015625 23.390625 
Q 45.015625 31 40.078125 35.4375 
Q 35.15625 39.890625 26.703125 39.890625 
Q 22.75 39.890625 18.8125 39.015625 
Q 14.890625 38.140625 10.796875 36.28125 
z
" id="DejaVuSans-53"/>
      </defs>
      <g transform="translate(236.545174 287.06881)scale(0.08 -0.08)">
       <use xlink:href="#DejaVuSans-53"/>
       <use x="63.623047" xlink:href="#DejaVuSans-48"/>
      </g>
     </g>
    </g>
    <g id="xtick_3">
     <g id="text_3">
      <!-- 100 -->
      <defs>
       <path d="M 12.40625 8.296875 
L 28.515625 8.296875 
L 28.515625 63.921875 
L 10.984375 60.40625 
L 10.984375 69.390625 
L 28.421875 72.90625 
L 38.28125 72.90625 
L 38.28125 8.296875 
L 54.390625 8.296875 
L 54.390625 0 
L 12.40625 0 
z
" id="DejaVuSans-49"/>
      </defs>
      <g transform="translate(394.956578 287.06881)scale(0.08 -0.08)">
       <use xlink:href="#DejaVuSans-49"/>
       <use x="63.623047" xlink:href="#DejaVuSans-48"/>
       <use x="127.246094" xlink:href="#DejaVuSans-48"/>
      </g>
     </g>
    </g>
    <g id="xtick_4">
     <g id="text_4">
      <!-- 150 -->
      <g transform="translate(555.912982 287.06881)scale(0.08 -0.08)">
       <use xlink:href="#DejaVuSans-49"/>
       <use x="63.623047" xlink:href="#DejaVuSans-53"/>
       <use x="127.246094" xlink:href="#DejaVuSans-48"/>
      </g>
     </g>
    </g>
    <g id="xtick_5">
     <g id="text_5">
      <!-- 200 -->
      <defs>
       <path d="M 19.1875 8.296875 
L 53.609375 8.296875 
L 53.609375 0 
L 7.328125 0 
L 7.328125 8.296875 
Q 12.9375 14.109375 22.625 23.890625 
Q 32.328125 33.6875 34.8125 36.53125 
Q 39.546875 41.84375 41.421875 45.53125 
Q 43.3125 49.21875 43.3125 52.78125 
Q 43.3125 58.59375 39.234375 62.25 
Q 35.15625 65.921875 28.609375 65.921875 
Q 23.96875 65.921875 18.8125 64.3125 
Q 13.671875 62.703125 7.8125 59.421875 
L 7.8125 69.390625 
Q 13.765625 71.78125 18.9375 73 
Q 24.125 74.21875 28.421875 74.21875 
Q 39.75 74.21875 46.484375 68.546875 
Q 53.21875 62.890625 53.21875 53.421875 
Q 53.21875 48.921875 51.53125 44.890625 
Q 49.859375 40.875 45.40625 35.40625 
Q 44.1875 33.984375 37.640625 27.21875 
Q 31.109375 20.453125 19.1875 8.296875 
z
" id="DejaVuSans-50"/>
      </defs>
      <g transform="translate(716.869386 287.06881)scale(0.08 -0.08)">
       <use xlink:href="#DejaVuSans-50"/>
       <use x="63.623047" xlink:href="#DejaVuSans-48"/>
       <use x="127.246094" xlink:href="#DejaVuSans-48"/>
      </g>
     </g>
    </g>
    <g id="xtick_6">
     <g id="text_6">
      <!-- 250 -->
      <g transform="translate(877.825791 287.06881)scale(0.08 -0.08)">
       <use xlink:href="#DejaVuSans-50"/>
       <use x="63.623047" xlink:href="#DejaVuSans-53"/>
       <use x="127.246094" xlink:href="#DejaVuSans-48"/>
      </g>
     </g>
    </g>
    <g id="text_7">
     <!-- Insert size -->
     <defs>
      <path d="M 9.8125 72.90625 
L 19.671875 72.90625 
L 19.671875 0 
L 9.8125 0 
z
" id="DejaVuSans-73"/>
      <path d="M 54.890625 33.015625 
L 54.890625 0 
L 45.90625 0 
L 45.90625 32.71875 
Q 45.90625 40.484375 42.875 44.328125 
Q 39.84375 48.1875 33.796875 48.1875 
Q 26.515625 48.1875 22.3125 43.546875 
Q 18.109375 38.921875 18.109375 30.90625 
L 18.109375 0 
L 9.078125 0 
L 9.078125 54.6875 
L 18.109375 54.6875 
L 18.109375 46.1875 
Q 21.34375 51.125 25.703125 53.5625 
Q 30.078125 56 35.796875 56 
Q 45.21875 56 50.046875 50.171875 
Q 54.890625 44.34375 54.890625 33.015625 
z
" id="DejaVuSans-110"/>
      <path d="M 44.28125 53.078125 
L 44.28125 44.578125 
Q 40.484375 46.53125 36.375 47.5 
Q 32.28125 48.484375 27.875 48.484375 
Q 21.1875 48.484375 17.84375 46.4375 
Q 14.5 44.390625 14.5 40.28125 
Q 14.5 37.15625 16.890625 35.375 
Q 19.28125 33.59375 26.515625 31.984375 
L 29.59375 31.296875 
Q 39.15625 29.25 43.1875 25.515625 
Q 47.21875 21.78125 47.21875 15.09375 
Q 47.21875 7.46875 41.1875 3.015625 
Q 35.15625 -1.421875 24.609375 -1.421875 
Q 20.21875 -1.421875 15.453125 -0.5625 
Q 10.6875 0.296875 5.421875 2 
L 5.421875 11.28125 
Q 10.40625 8.6875 15.234375 7.390625 
Q 20.0625 6.109375 24.8125 6.109375 
Q 31.15625 6.109375 34.5625 8.28125 
Q 37.984375 10.453125 37.984375 14.40625 
Q 37.984375 18.0625 35.515625 20.015625 
Q 33.0625 21.96875 24.703125 23.78125 
L 21.578125 24.515625 
Q 13.234375 26.265625 9.515625 29.90625 
Q 5.8125 33.546875 5.8125 39.890625 
Q 5.8125 47.609375 11.28125 51.796875 
Q 16.75 56 26.8125 56 
Q 31.78125 56 36.171875 55.265625 
Q 40.578125 54.546875 44.28125 53.078125 
z
" id="DejaVuSans-115"/>
      <path d="M 56.203125 29.59375 
L 56.203125 25.203125 
L 14.890625 25.203125 
Q 15.484375 15.921875 20.484375 11.0625 
Q 25.484375 6.203125 34.421875 6.203125 
Q 39.59375 6.203125 44.453125 7.46875 
Q 49.3125 8.734375 54.109375 11.28125 
L 54.109375 2.78125 
Q 49.265625 0.734375 44.1875 -0.34375 
Q 39.109375 -1.421875 33.890625 -1.421875 
Q 20.796875 -1.421875 13.15625 6.1875 
Q 5.515625 13.8125 5.515625 26.8125 
Q 5.515625 40.234375 12.765625 48.109375 
Q 20.015625 56 32.328125 56 
Q 43.359375 56 49.78125 48.890625 
Q 56.203125 41.796875 56.203125 29.59375 
z
M 47.21875 32.234375 
Q 47.125 39.59375 43.09375 43.984375 
Q 39.0625 48.390625 32.421875 48.390625 
Q 24.90625 48.390625 20.390625 44.140625 
Q 15.875 39.890625 15.1875 32.171875 
z
" id="DejaVuSans-101"/>
      <path d="M 41.109375 46.296875 
Q 39.59375 47.171875 37.8125 47.578125 
Q 36.03125 48 33.890625 48 
Q 26.265625 48 22.1875 43.046875 
Q 18.109375 38.09375 18.109375 28.8125 
L 18.109375 0 
L 9.078125 0 
L 9.078125 54.6875 
L 18.109375 54.6875 
L 18.109375 46.1875 
Q 20.953125 51.171875 25.484375 53.578125 
Q 30.03125 56 36.53125 56 
Q 37.453125 56 38.578125 55.875 
Q 39.703125 55.765625 41.0625 55.515625 
z
" id="DejaVuSans-114"/>
      <path d="M 18.3125 70.21875 
L 18.3125 54.6875 
L 36.8125 54.6875 
L 36.8125 47.703125 
L 18.3125 47.703125 
L 18.3125 18.015625 
Q 18.3125 11.328125 20.140625 9.421875 
Q 21.96875 7.515625 27.59375 7.515625 
L 36.8125 7.515625 
L 36.8125 0 
L 27.59375 0 
Q 17.1875 0 13.234375 3.875 
Q 9.28125 7.765625 9.28125 18.015625 
L 9.28125 47.703125 
L 2.6875 47.703125 
L 2.6875 54.6875 
L 9.28125 54.6875 
L 9.28125 70.21875 
z
" id="DejaVuSans-116"/>
      <path id="DejaVuSans-32"/>
      <path d="M 9.421875 54.6875 
L 18.40625 54.6875 
L 18.40625 0 
L 9.421875 0 
z
M 9.421875 75.984375 
L 18.40625 75.984375 
L 18.40625 64.59375 
L 9.421875 64.59375 
z
" id="DejaVuSans-105"/>
      <path d="M 5.515625 54.6875 
L 48.1875 54.6875 
L 48.1875 46.484375 
L 14.40625 7.171875 
L 48.1875 7.171875 
L 48.1875 0 
L 4.296875 0 
L 4.296875 8.203125 
L 38.09375 47.515625 
L 5.515625 47.515625 
z
" id="DejaVuSans-122"/>
     </defs>
     <g transform="translate(491.246406 300.330997)scale(0.1 -0.1)">
      <use xlink:href="#DejaVuSans-73"/>
      <use x="29.492188" xlink:href="#DejaVuSans-110"/>
      <use x="92.871094" xlink:href="#DejaVuSans-115"/>
      <use x="144.970703" xlink:href="#DejaVuSans-101"/>
      <use x="206.494141" xlink:href="#DejaVuSans-114"/>
      <use x="247.607422" xlink:href="#DejaVuSans-116"/>
      <use x="286.816406" xlink:href="#DejaVuSans-32"/>
      <use x="318.603516" xlink:href="#DejaVuSans-115"/>
      <use x="370.703125" xlink:href="#DejaVuSans-105"/>
      <use x="398.486328" xlink:href="#DejaVuSans-122"/>
      <use x="450.976562" xlink:href="#DejaVuSans-101"/>
     </g>
    </g>
   </g>
   <g id="matplotlib.axis_2">
    <g id="ytick_1">
     <g id="line2d_1">
      <path clip-path="url(#p40f1fcf15e)" d="M 40.600625 273.99006 
L 993.140625 273.99006 
" style="fill:none;stroke:#dedede;stroke-linecap:square;"/>
     </g>
     <g id="text_8">
      <!-- 0.0 -->
      <defs>
       <path d="M 10.6875 12.40625 
L 21 12.40625 
L 21 0 
L 10.6875 0 
z
" id="DejaVuSans-46"/>
      </defs>
      <g transform="translate(20.878125 277.029435)scale(0.08 -0.08)">
       <use xlink:href="#DejaVuSans-48"/>
       <use x="63.623047" xlink:href="#DejaVuSans-46"/>
       <use x="95.410156" xlink:href="#DejaVuSans-48"/>
      </g>
     </g>
    </g>
    <g id="ytick_2">
     <g id="line2d_2">
      <path clip-path="url(#p40f1fcf15e)" d="M 40.600625 237.75913 
L 993.140625 237.75913 
" style="fill:none;stroke:#dedede;stroke-linecap:square;"/>
     </g>
     <g id="text_9">
      <!-- 0.1 -->
      <g transform="translate(20.878125 240.798505)scale(0.08 -0.08)">
       <use xlink:href="#DejaVuSans-48"/>
       <use x="63.623047" xlink:href="#DejaVuSans-46"/>
       <use x="95.410156" xlink:href="#DejaVuSans-49"/>
      </g>
     </g>
    </g>
    <g id="ytick_3">
     <g id="line2d_3">
      <path clip-path="url(#p40f1fcf15e)" d="M 40.600625 201.5282 
L 993.140625 201.5282 
" style="fill:none;stroke:#dedede;stroke-linecap:square;"/>
     </g>
     <g id="text_10">
      <!-- 0.2 -->
      <g transform="translate(20.878125 204.567575)scale(0.08 -0.08)">
       <use xlink:href="#DejaVuSans-48"/>
       <use x="63.623047" xlink:href="#DejaVuSans-46"/>
       <use x="95.410156" xlink:href="#DejaVuSans-50"/>
      </g>
     </g>
    </g>
    <g id="ytick_4">
     <g id="line2d_4">
      <path clip-path="url(#p40f1fcf15e)" d="M 40.600625 165.297269 
L 993.140625 165.297269 
" style="fill:none;stroke:#dedede;stroke-linecap:square;"/>
     </g>
     <g id="text_11">
      <!-- 0.3 -->
      <defs>
       <path d="M 40.578125 39.3125 
Q 47.65625 37.796875 51.625 33 
Q 55.609375 28.21875 55.609375 21.1875 
Q 55.609375 10.40625 48.1875 4.484375 
Q 40.765625 -1.421875 27.09375 -1.421875 
Q 22.515625 -1.421875 17.65625 -0.515625 
Q 12.796875 0.390625 7.625 2.203125 
L 7.625 11.71875 
Q 11.71875 9.328125 16.59375 8.109375 
Q 21.484375 6.890625 26.8125 6.890625 
Q 36.078125 6.890625 40.9375 10.546875 
Q 45.796875 14.203125 45.796875 21.1875 
Q 45.796875 27.640625 41.28125 31.265625 
Q 36.765625 34.90625 28.71875 34.90625 
L 20.21875 34.90625 
L 20.21875 43.015625 
L 29.109375 43.015625 
Q 36.375 43.015625 40.234375 45.921875 
Q 44.09375 48.828125 44.09375 54.296875 
Q 44.09375 59.90625 40.109375 62.90625 
Q 36.140625 65.921875 28.71875 65.921875 
Q 24.65625 65.921875 20.015625 65.03125 
Q 15.375 64.15625 9.8125 62.3125 
L 9.8125 71.09375 
Q 15.4375 72.65625 20.34375 73.4375 
Q 25.25 74.21875 29.59375 74.21875 
Q 40.828125 74.21875 47.359375 69.109375 
Q 53.90625 64.015625 53.90625 55.328125 
Q 53.90625 49.265625 50.4375 45.09375 
Q 46.96875 40.921875 40.578125 39.3125 
z
" id="DejaVuSans-51"/>
      </defs>
      <g transform="translate(20.878125 168.336644)scale(0.08 -0.08)">
       <use xlink:href="#DejaVuSans-48"/>
       <use x="63.623047" xlink:href="#DejaVuSans-46"/>
       <use x="95.410156" xlink:href="#DejaVuSans-51"/>
      </g>
     </g>
    </g>
    <g id="ytick_5">
     <g id="line2d_5">
      <path clip-path="url(#p40f1fcf15e)" d="M 40.600625 129.066339 
L 993.140625 129.066339 
" style="fill:none;stroke:#dedede;stroke-linecap:square;"/>
     </g>
     <g id="text_12">
      <!-- 0.4 -->
      <defs>
       <path d="M 37.796875 64.3125 
L 12.890625 25.390625 
L 37.796875 25.390625 
z
M 35.203125 72.90625 
L 47.609375 72.90625 
L 47.609375 25.390625 
L 58.015625 25.390625 
L 58.015625 17.1875 
L 47.609375 17.1875 
L 47.609375 0 
L 37.796875 0 
L 37.796875 17.1875 
L 4.890625 17.1875 
L 4.890625 26.703125 
z
" id="DejaVuSans-52"/>
      </defs>
      <g transform="translate(20.878125 132.105714)scale(0.08 -0.08)">
       <use xlink:href="#DejaVuSans-48"/>
       <use x="63.623047" xlink:href="#DejaVuSans-46"/>
       <use x="95.410156" xlink:href="#DejaVuSans-52"/>
      </g>
     </g>
    </g>
    <g id="ytick_6">
     <g id="line2d_6">
      <path clip-path="url(#p40f1fcf15e)" d="M 40.600625 92.835409 
L 993.140625 92.835409 
" style="fill:none;stroke:#dedede;stroke-linecap:square;"/>
     </g>
     <g id="text_13">
      <!-- 0.5 -->
      <g transform="translate(20.878125 95.874784)scale(0.08 -0.08)">
       <use xlink:href="#DejaVuSans-48"/>
       <use x="63.623047" xlink:href="#DejaVuSans-46"/>
       <use x="95.410156" xlink:href="#DejaVuSans-53"/>
      </g>
     </g>
    </g>
    <g id="ytick_7">
     <g id="line2d_7">
      <path clip-path="url(#p40f1fcf15e)" d="M 40.600625 56.604479 
L 993.140625 56.604479 
" style="fill:none;stroke:#dedede;stroke-linecap:square;"/>
     </g>
     <g id="text_14">
      <!-- 0.6 -->
      <defs>
       <path d="M 33.015625 40.375 
Q 26.375 40.375 22.484375 35.828125 
Q 18.609375 31.296875 18.609375 23.390625 
Q 18.609375 15.53125 22.484375 10.953125 
Q 26.375 6.390625 33.015625 6.390625 
Q 39.65625 6.390625 43.53125 10.953125 
Q 47.40625 15.53125 47.40625 23.390625 
Q 47.40625 31.296875 43.53125 35.828125 
Q 39.65625 40.375 33.015625 40.375 
z
M 52.59375 71.296875 
L 52.59375 62.3125 
Q 48.875 64.0625 45.09375 64.984375 
Q 41.3125 65.921875 37.59375 65.921875 
Q 27.828125 65.921875 22.671875 59.328125 
Q 17.53125 52.734375 16.796875 39.40625 
Q 19.671875 43.65625 24.015625 45.921875 
Q 28.375 48.1875 33.59375 48.1875 
Q 44.578125 48.1875 50.953125 41.515625 
Q 57.328125 34.859375 57.328125 23.390625 
Q 57.328125 12.15625 50.6875 5.359375 
Q 44.046875 -1.421875 33.015625 -1.421875 
Q 20.359375 -1.421875 13.671875 8.265625 
Q 6.984375 17.96875 6.984375 36.375 
Q 6.984375 53.65625 15.1875 63.9375 
Q 23.390625 74.21875 37.203125 74.21875 
Q 40.921875 74.21875 44.703125 73.484375 
Q 48.484375 72.75 52.59375 71.296875 
z
" id="DejaVuSans-54"/>
      </defs>
      <g transform="translate(20.878125 59.643854)scale(0.08 -0.08)">
       <use xlink:href="#DejaVuSans-48"/>
       <use x="63.623047" xlink:href="#DejaVuSans-46"/>
       <use x="95.410156" xlink:href="#DejaVuSans-54"/>
      </g>
     </g>
    </g>
    <g id="text_15">
     <!-- Read percent -->
     <defs>
      <path d="M 44.390625 34.1875 
Q 47.5625 33.109375 50.5625 29.59375 
Q 53.5625 26.078125 56.59375 19.921875 
L 66.609375 0 
L 56 0 
L 46.6875 18.703125 
Q 43.0625 26.03125 39.671875 28.421875 
Q 36.28125 30.8125 30.421875 30.8125 
L 19.671875 30.8125 
L 19.671875 0 
L 9.8125 0 
L 9.8125 72.90625 
L 32.078125 72.90625 
Q 44.578125 72.90625 50.734375 67.671875 
Q 56.890625 62.453125 56.890625 51.90625 
Q 56.890625 45.015625 53.6875 40.46875 
Q 50.484375 35.9375 44.390625 34.1875 
z
M 19.671875 64.796875 
L 19.671875 38.921875 
L 32.078125 38.921875 
Q 39.203125 38.921875 42.84375 42.21875 
Q 46.484375 45.515625 46.484375 51.90625 
Q 46.484375 58.296875 42.84375 61.546875 
Q 39.203125 64.796875 32.078125 64.796875 
z
" id="DejaVuSans-82"/>
      <path d="M 34.28125 27.484375 
Q 23.390625 27.484375 19.1875 25 
Q 14.984375 22.515625 14.984375 16.5 
Q 14.984375 11.71875 18.140625 8.90625 
Q 21.296875 6.109375 26.703125 6.109375 
Q 34.1875 6.109375 38.703125 11.40625 
Q 43.21875 16.703125 43.21875 25.484375 
L 43.21875 27.484375 
z
M 52.203125 31.203125 
L 52.203125 0 
L 43.21875 0 
L 43.21875 8.296875 
Q 40.140625 3.328125 35.546875 0.953125 
Q 30.953125 -1.421875 24.3125 -1.421875 
Q 15.921875 -1.421875 10.953125 3.296875 
Q 6 8.015625 6 15.921875 
Q 6 25.140625 12.171875 29.828125 
Q 18.359375 34.515625 30.609375 34.515625 
L 43.21875 34.515625 
L 43.21875 35.40625 
Q 43.21875 41.609375 39.140625 45 
Q 35.0625 48.390625 27.6875 48.390625 
Q 23 48.390625 18.546875 47.265625 
Q 14.109375 46.140625 10.015625 43.890625 
L 10.015625 52.203125 
Q 14.9375 54.109375 19.578125 55.046875 
Q 24.21875 56 28.609375 56 
Q 40.484375 56 46.34375 49.84375 
Q 52.203125 43.703125 52.203125 31.203125 
z
" id="DejaVuSans-97"/>
      <path d="M 45.40625 46.390625 
L 45.40625 75.984375 
L 54.390625 75.984375 
L 54.390625 0 
L 45.40625 0 
L 45.40625 8.203125 
Q 42.578125 3.328125 38.25 0.953125 
Q 33.9375 -1.421875 27.875 -1.421875 
Q 17.96875 -1.421875 11.734375 6.484375 
Q 5.515625 14.40625 5.515625 27.296875 
Q 5.515625 40.1875 11.734375 48.09375 
Q 17.96875 56 27.875 56 
Q 33.9375 56 38.25 53.625 
Q 42.578125 51.265625 45.40625 46.390625 
z
M 14.796875 27.296875 
Q 14.796875 17.390625 18.875 11.75 
Q 22.953125 6.109375 30.078125 6.109375 
Q 37.203125 6.109375 41.296875 11.75 
Q 45.40625 17.390625 45.40625 27.296875 
Q 45.40625 37.203125 41.296875 42.84375 
Q 37.203125 48.484375 30.078125 48.484375 
Q 22.953125 48.484375 18.875 42.84375 
Q 14.796875 37.203125 14.796875 27.296875 
z
" id="DejaVuSans-100"/>
      <path d="M 18.109375 8.203125 
L 18.109375 -20.796875 
L 9.078125 -20.796875 
L 9.078125 54.6875 
L 18.109375 54.6875 
L 18.109375 46.390625 
Q 20.953125 51.265625 25.265625 53.625 
Q 29.59375 56 35.59375 56 
Q 45.5625 56 51.78125 48.09375 
Q 58.015625 40.1875 58.015625 27.296875 
Q 58.015625 14.40625 51.78125 6.484375 
Q 45.5625 -1.421875 35.59375 -1.421875 
Q 29.59375 -1.421875 25.265625 0.953125 
Q 20.953125 3.328125 18.109375 8.203125 
z
M 48.6875 27.296875 
Q 48.6875 37.203125 44.609375 42.84375 
Q 40.53125 48.484375 33.40625 48.484375 
Q 26.265625 48.484375 22.1875 42.84375 
Q 18.109375 37.203125 18.109375 27.296875 
Q 18.109375 17.390625 22.1875 11.75 
Q 26.265625 6.109375 33.40625 6.109375 
Q 40.53125 6.109375 44.609375 11.75 
Q 48.6875 17.390625 48.6875 27.296875 
z
" id="DejaVuSans-112"/>
      <path d="M 48.78125 52.59375 
L 48.78125 44.1875 
Q 44.96875 46.296875 41.140625 47.34375 
Q 37.3125 48.390625 33.40625 48.390625 
Q 24.65625 48.390625 19.8125 42.84375 
Q 14.984375 37.3125 14.984375 27.296875 
Q 14.984375 17.28125 19.8125 11.734375 
Q 24.65625 6.203125 33.40625 6.203125 
Q 37.3125 6.203125 41.140625 7.25 
Q 44.96875 8.296875 48.78125 10.40625 
L 48.78125 2.09375 
Q 45.015625 0.34375 40.984375 -0.53125 
Q 36.96875 -1.421875 32.421875 -1.421875 
Q 20.0625 -1.421875 12.78125 6.34375 
Q 5.515625 14.109375 5.515625 27.296875 
Q 5.515625 40.671875 12.859375 48.328125 
Q 20.21875 56 33.015625 56 
Q 37.15625 56 41.109375 55.140625 
Q 45.0625 54.296875 48.78125 52.59375 
z
" id="DejaVuSans-99"/>
     </defs>
     <g transform="translate(14.798438 186.370835)rotate(-90)scale(0.1 -0.1)">
      <use xlink:href="#DejaVuSans-82"/>
      <use x="69.419922" xlink:href="#DejaVuSans-101"/>
      <use x="130.943359" xlink:href="#DejaVuSans-97"/>
      <use x="192.222656" xlink:href="#DejaVuSans-100"/>
      <use x="255.699219" xlink:href="#DejaVuSans-32"/>
      <use x="287.486328" xlink:href="#DejaVuSans-112"/>
      <use x="350.962891" xlink:href="#DejaVuSans-101"/>
      <use x="412.486328" xlink:href="#DejaVuSans-114"/>
      <use x="453.568359" xlink:href="#DejaVuSans-99"/>
      <use x="508.548828" xlink:href="#DejaVuSans-101"/>
      <use x="570.072266" xlink:href="#DejaVuSans-110"/>
      <use x="633.451172" xlink:href="#DejaVuSans-116"/>
     </g>
    </g>
   </g>
   <g id="line2d_8">
    <path clip-path="url(#p40f1fcf15e)" d="M 83.897898 273.986941 
L 90.336154 273.99006 
L 180.47174 273.99006 
L 183.690868 262.455374 
L 186.909996 261.101654 
L 190.129124 259.981873 
L 193.348253 258.375501 
L 196.567381 255.608798 
L 199.786509 253.157131 
L 203.005637 250.037963 
L 206.224765 246.160836 
L 209.443893 242.792133 
L 212.663021 238.553183 
L 215.882149 234.560647 
L 219.101277 229.292371 
L 222.320405 224.513804 
L 225.539533 218.531238 
L 231.97779 207.517453 
L 235.196918 201.325903 
L 238.416046 194.382633 
L 244.854302 184.588443 
L 248.07343 177.682603 
L 251.292558 172.005716 
L 254.511686 166.930828 
L 257.730814 159.497849 
L 260.949942 154.925147 
L 264.16907 150.093555 
L 267.388199 144.641248 
L 270.607327 139.896992 
L 273.826455 134.46028 
L 277.045583 128.150202 
L 280.264711 124.644256 
L 283.483839 119.656705 
L 286.702967 115.62362 
L 289.922095 111.774565 
L 293.141223 107.342227 
L 296.360351 103.957928 
L 299.579479 99.563019 
L 302.798607 96.902368 
L 306.017736 92.819376 
L 309.236864 90.486238 
L 312.455992 89.148115 
L 315.67512 86.437557 
L 318.894248 84.307165 
L 322.113376 81.072587 
L 325.332504 81.212949 
L 328.551632 77.444993 
L 331.77076 76.465574 
L 334.989888 73.355763 
L 338.209016 71.00079 
L 341.428144 71.337661 
L 344.647273 68.315186 
L 347.866401 66.892845 
L 351.085529 66.097457 
L 354.304657 66.531021 
L 357.523785 65.916545 
L 360.742913 62.93462 
L 363.962041 61.886579 
L 367.181169 64.041925 
L 370.400297 62.610226 
L 373.619425 61.811719 
L 376.838553 62.104921 
L 380.057681 60.458 
L 383.27681 59.484819 
L 386.495938 61.109906 
L 389.715066 59.884073 
L 392.934194 60.295803 
L 396.153322 60.355067 
L 399.37245 59.25712 
L 402.591578 58.776768 
L 409.029834 60.049389 
L 412.248962 59.537845 
L 415.46809 60.183513 
L 418.687218 59.25712 
L 421.906347 60.058746 
L 425.125475 62.875356 
L 428.344603 61.768051 
L 431.563731 63.302682 
L 434.782859 61.961439 
L 438.001987 62.310786 
L 441.221115 61.162932 
L 444.440243 62.74747 
L 447.659371 64.503562 
L 450.878499 64.431821 
L 454.097627 65.841685 
L 457.316755 64.852909 
L 460.535884 67.086234 
L 463.755012 67.073757 
L 466.97414 66.708814 
L 470.193268 69.422491 
L 473.412396 69.87477 
L 476.631524 68.583435 
L 479.850652 70.277143 
L 483.06978 71.777463 
L 486.288908 69.76248 
L 489.508036 71.874158 
L 492.727164 72.738167 
L 495.946292 72.65395 
L 499.165421 73.025131 
L 502.384549 76.615294 
L 505.603677 74.962135 
L 508.822805 77.133076 
L 512.041933 77.922226 
L 515.261061 77.838009 
L 518.480189 80.065095 
L 521.699317 79.291541 
L 524.918445 80.807457 
L 528.137573 83.00959 
L 531.356701 83.8736 
L 534.575829 84.169921 
L 537.794958 84.768802 
L 541.014086 86.939743 
L 544.233214 88.764457 
L 547.452342 90.25542 
L 550.67147 90.108819 
L 553.890598 91.727667 
L 560.328854 93.805034 
L 563.547982 89.980933 
L 566.76711 55.785485 
L 569.986238 68.764346 
L 573.205366 71.343899 
L 576.424495 71.736914 
L 579.643623 77.379491 
L 582.862751 77.647739 
L 586.081879 79.453738 
L 589.301007 79.940328 
L 592.520135 81.007084 
L 595.739263 84.21047 
L 598.958391 84.837423 
L 602.177519 85.954086 
L 605.396647 88.352727 
L 608.615775 91.668403 
L 611.834903 92.142517 
L 615.054032 93.767604 
L 618.27316 96.412659 
L 621.492288 99.441372 
L 624.711416 101.696531 
L 627.930544 104.350944 
L 631.149672 107.298558 
L 634.3688 107.651024 
L 637.587928 109.959209 
L 640.807056 112.747746 
L 644.026184 113.97046 
L 647.245312 116.440842 
L 650.46444 116.665422 
L 653.683569 119.257452 
L 656.902697 121.172621 
L 660.121825 122.392216 
L 663.340953 124.101521 
L 666.560081 125.508266 
L 669.779209 128.742844 
L 672.998337 129.410346 
L 676.217465 132.208241 
L 679.436593 133.321784 
L 682.655721 135.495844 
L 685.874849 135.558228 
L 689.093977 136.993046 
L 692.313106 139.71608 
L 695.532234 141.690514 
L 698.751362 141.921332 
L 701.97049 143.84274 
L 705.189618 145.2682 
L 708.408746 147.432904 
L 714.847002 150.377399 
L 718.06613 150.904539 
L 721.285258 153.212723 
L 727.723514 155.315043 
L 730.942643 156.144742 
L 734.161771 157.161591 
L 737.380899 159.048688 
L 740.600027 160.773589 
L 743.819155 161.871536 
L 747.038283 163.827255 
L 750.257411 165.923336 
L 753.476539 164.419897 
L 756.695667 167.620164 
L 759.914795 169.129842 
L 763.133923 168.272071 
L 766.353051 170.52723 
L 769.57218 171.784255 
L 772.791308 172.557809 
L 776.010436 174.254636 
L 779.229564 175.227817 
L 782.448692 173.615207 
L 785.66782 177.220966 
L 788.886948 176.918407 
L 792.106076 177.433069 
L 795.325204 179.217234 
L 798.544332 179.49484 
L 801.76346 180.296466 
L 804.982589 180.574073 
L 808.201717 182.302092 
L 811.420845 181.400652 
L 814.639973 182.005771 
L 817.859101 182.389429 
L 821.078229 182.096227 
L 824.297357 182.167968 
L 827.516485 180.452425 
L 830.735613 180.402518 
L 833.954741 181.924673 
L 837.173869 180.723793 
L 840.392997 180.895347 
L 846.831254 178.097452 
L 850.050382 179.235949 
L 853.26951 175.914034 
L 856.488638 174.660128 
L 859.707766 171.556555 
L 862.926894 170.471085 
L 866.146022 166.204062 
L 869.36515 164.787959 
L 872.584278 162.392437 
L 875.803406 159.282626 
L 879.022534 157.149115 
L 882.241663 153.243915 
L 885.460791 148.212696 
L 888.679919 145.817174 
L 891.899047 141.756016 
L 898.337303 133.053535 
L 901.556431 127.785259 
L 904.775559 124.547562 
L 907.994687 119.410291 
L 911.213815 116.540655 
L 914.432943 110.673499 
L 917.652071 108.08147 
L 920.8712 101.952303 
L 924.090328 99.026522 
L 927.309456 94.541158 
L 930.528584 92.594796 
L 933.747712 88.742623 
L 936.96684 86.687091 
L 940.185968 86.141236 
L 943.405096 86.08821 
L 946.624224 90.676507 
L 949.843352 105.760808 
L 949.843352 105.760808 
" style="fill:none;stroke:#7cb5ec;stroke-linecap:square;"/>
   </g>
   <g id="line2d_9">
    <path clip-path="url(#p40f1fcf15e)" d="M 83.897898 273.99006 
L 112.87005 273.99006 
L 180.47174 273.99006 
L 183.690868 262.774596 
L 186.909996 260.578738 
L 190.129124 259.203867 
L 196.567381 253.70157 
L 199.786509 250.00713 
L 206.224765 241.726975 
L 209.443893 236.325895 
L 212.663021 231.498382 
L 215.882149 225.489997 
L 219.101277 219.72341 
L 222.320405 214.848099 
L 225.539533 207.999047 
L 228.758661 203.008461 
L 231.97779 196.744221 
L 235.196918 188.551225 
L 238.416046 183.813682 
L 244.854302 172.415465 
L 248.07343 167.208386 
L 251.292558 161.326523 
L 254.511686 156.881387 
L 257.730814 151.387524 
L 260.949942 145.159835 
L 264.16907 142.567542 
L 267.388199 138.336087 
L 270.607327 134.869387 
L 273.826455 129.071872 
L 277.045583 127.294943 
L 280.264711 122.501168 
L 283.483839 118.626786 
L 286.702967 116.543392 
L 289.922095 112.899562 
L 293.141223 111.552806 
L 296.360351 107.998947 
L 299.579479 105.232334 
L 302.798607 102.685027 
L 306.017736 99.935284 
L 309.236864 99.476994 
L 312.455992 98.464818 
L 315.67512 93.448928 
L 318.894248 94.657915 
L 322.113376 92.55484 
L 325.332504 90.586721 
L 328.551632 89.717937 
L 331.77076 87.932573 
L 334.989888 87.696399 
L 338.209016 85.258743 
L 344.647273 82.295319 
L 347.866401 81.201608 
L 354.304657 78.271923 
L 357.523785 77.276617 
L 360.742913 77.324414 
L 363.962041 76.96453 
L 367.181169 76.776153 
L 370.400297 76.002963 
L 373.619425 74.093888 
L 376.838553 72.955191 
L 386.495938 71.167015 
L 389.715066 69.907419 
L 392.934194 69.806201 
L 396.153322 70.337593 
L 402.591578 68.006779 
L 405.810706 67.486633 
L 409.029834 68.394779 
L 412.248962 66.395733 
L 415.46809 65.903704 
L 418.687218 67.419155 
L 421.906347 65.600051 
L 425.125475 68.560664 
L 428.344603 65.959936 
L 431.563731 67.615967 
L 434.782859 66.648777 
L 438.001987 66.016168 
L 441.221115 65.560689 
L 444.440243 64.87747 
L 447.659371 66.485704 
L 450.878499 63.586947 
L 454.097627 65.414486 
L 457.316755 65.869965 
L 460.535884 64.731267 
L 463.755012 66.274835 
L 466.97414 67.989909 
L 470.193268 66.516632 
L 473.412396 66.40698 
L 476.631524 65.951501 
L 479.850652 68.147359 
L 483.06978 68.068634 
L 486.288908 65.909327 
L 489.508036 68.4482 
L 492.727164 67.770605 
L 495.946292 69.153911 
L 499.165421 67.922431 
L 505.603677 70.928029 
L 508.822805 70.199825 
L 512.041933 71.431305 
L 515.261061 71.61687 
L 518.480189 71.192319 
L 521.699317 73.008611 
L 524.918445 72.51377 
L 528.137573 73.424728 
L 531.356701 75.986094 
L 534.575829 75.401281 
L 537.794958 75.710557 
L 541.014086 78.924213 
L 544.233214 78.491227 
L 547.452342 78.434995 
L 550.67147 80.164128 
L 553.890598 82.362797 
L 557.109726 83.931669 
L 563.547982 82.014159 
L 566.76711 51.446468 
L 569.986238 60.685378 
L 573.205366 62.124916 
L 576.424495 64.272977 
L 579.643623 68.602838 
L 582.862751 69.809013 
L 586.081879 69.648752 
L 589.301007 72.887713 
L 592.520135 73.292583 
L 595.739263 74.425657 
L 598.958391 77.636501 
L 602.177519 78.370329 
L 605.396647 79.556823 
L 608.615775 81.063839 
L 611.834903 82.303754 
L 615.054032 84.859496 
L 618.27316 84.904482 
L 621.492288 89.552053 
L 624.711416 90.693562 
L 627.930544 93.041246 
L 631.149672 94.742263 
L 634.3688 97.9756 
L 637.587928 100.424502 
L 640.807056 102.617548 
L 644.026184 103.222042 
L 647.245312 105.828393 
L 650.46444 106.075814 
L 653.683569 109.247296 
L 656.902697 111.960488 
L 660.121825 113.489997 
L 663.340953 114.833941 
L 666.560081 115.725217 
L 672.998337 120.333426 
L 676.217465 121.331544 
L 679.436593 124.632359 
L 682.655721 124.252794 
L 685.874849 127.559233 
L 689.093977 128.835698 
L 692.313106 130.604193 
L 695.532234 131.981876 
L 698.751362 134.616343 
L 701.97049 137.711913 
L 705.189618 138.372638 
L 711.627874 141.178613 
L 714.847002 143.413833 
L 718.06613 145.005197 
L 721.285258 145.345401 
L 724.504386 148.081085 
L 727.723514 148.79242 
L 730.942643 150.417523 
L 734.161771 152.354714 
L 737.380899 154.533702 
L 740.600027 154.932949 
L 743.819155 155.509327 
L 747.038283 157.975098 
L 750.257411 159.223448 
L 753.476539 161.852292 
L 756.695667 162.732322 
L 759.914795 164.067831 
L 763.133923 166.120297 
L 766.353051 167.115603 
L 772.791308 169.882215 
L 776.010436 171.484826 
L 779.229564 171.706942 
L 782.448692 173.916858 
L 788.886948 175.052744 
L 792.106076 177.029297 
L 795.325204 177.49321 
L 801.76346 178.825908 
L 804.982589 180.76591 
L 808.201717 180.895244 
L 814.639973 181.876491 
L 817.859101 182.686232 
L 821.078229 182.759333 
L 824.297357 184.086407 
L 830.735613 184.359132 
L 833.954741 183.636552 
L 837.173869 184.839916 
L 840.392997 183.535334 
L 843.612126 183.943016 
L 850.050382 181.227012 
L 853.26951 181.370404 
L 856.488638 181.137041 
L 859.707766 179.247648 
L 862.926894 177.167065 
L 866.146022 175.359208 
L 872.584278 171.023724 
L 875.803406 168.501721 
L 879.022534 166.443631 
L 882.241663 163.615163 
L 885.460791 161.121276 
L 891.899047 154.778311 
L 895.118175 150.785843 
L 898.337303 147.215113 
L 901.556431 144.490675 
L 904.775559 141.08583 
L 907.994687 136.609766 
L 911.213815 134.290198 
L 914.432943 130.741962 
L 917.652071 126.755116 
L 920.8712 123.026937 
L 924.090328 120.578035 
L 927.309456 117.04948 
L 930.528584 113.785215 
L 933.747712 110.726196 
L 936.96684 108.971759 
L 940.185968 108.609063 
L 943.405096 107.751526 
L 946.624224 112.736489 
L 949.843352 126.383985 
L 949.843352 126.383985 
" style="fill:none;stroke:#434348;stroke-linecap:square;"/>
   </g>
   <g id="line2d_10">
    <path clip-path="url(#p40f1fcf15e)" d="M 83.897898 273.99006 
L 87.117026 273.885919 
L 93.555282 273.99006 
L 180.47174 273.99006 
L 183.690868 258.919416 
L 186.909996 257.97719 
L 190.129124 256.816766 
L 193.348253 255.145556 
L 196.567381 253.811563 
L 199.786509 251.093987 
L 203.005637 246.561388 
L 206.224765 244.205825 
L 209.443893 239.628594 
L 212.663021 236.677941 
L 215.882149 230.434459 
L 219.101277 225.534888 
L 222.320405 221.15602 
L 225.539533 213.806664 
L 228.758661 207.915277 
L 231.97779 201.101501 
L 235.196918 196.787101 
L 238.416046 189.338562 
L 241.635174 182.4504 
L 244.854302 177.397098 
L 248.07343 170.072536 
L 251.292558 164.796075 
L 254.511686 158.924524 
L 257.730814 153.548881 
L 260.949942 149.249359 
L 264.16907 142.271933 
L 267.388199 140.982572 
L 270.607327 136.30616 
L 273.826455 128.604708 
L 277.045583 125.837542 
L 280.264711 123.412551 
L 283.483839 117.873259 
L 286.702967 114.932524 
L 289.922095 112.591839 
L 293.141223 109.646145 
L 296.360351 105.812776 
L 299.579479 103.69029 
L 302.798607 102.34142 
L 306.017736 99.693271 
L 309.236864 96.792209 
L 312.455992 95.175549 
L 315.67512 92.353833 
L 318.894248 90.390037 
L 322.113376 89.214735 
L 325.332504 88.475832 
L 328.551632 86.784786 
L 331.77076 88.922149 
L 334.989888 85.807847 
L 338.209016 84.344918 
L 341.428144 82.71834 
L 344.647273 81.85546 
L 347.866401 81.453775 
L 351.085529 78.141109 
L 354.304657 79.028784 
L 357.523785 78.646935 
L 360.742913 77.992337 
L 363.962041 76.226904 
L 367.181169 78.607263 
L 370.400297 76.370718 
L 373.619425 75.11607 
L 376.838553 74.005236 
L 380.057681 73.896137 
L 383.27681 73.573796 
L 386.495938 75.359065 
L 389.715066 73.315924 
L 392.934194 72.596858 
L 396.153322 72.646448 
L 399.37245 73.563878 
L 402.591578 72.671244 
L 405.810706 71.406678 
L 409.029834 72.686121 
L 412.248962 70.781834 
L 415.46809 72.036481 
L 418.687218 70.638021 
L 421.906347 72.696039 
L 425.125475 71.897627 
L 428.344603 72.472881 
L 431.563731 73.33576 
L 434.782859 69.462719 
L 438.001987 73.950686 
L 441.221115 72.507594 
L 444.440243 75.215252 
L 447.659371 72.433208 
L 450.878499 73.578755 
L 454.097627 72.056318 
L 457.316755 75.235088 
L 460.535884 73.112602 
L 463.755012 76.0335 
L 466.97414 74.977216 
L 470.193268 75.810341 
L 473.412396 76.221945 
L 476.631524 77.997296 
L 479.850652 76.430226 
L 483.06978 77.699751 
L 486.288908 77.550979 
L 492.727164 78.51304 
L 495.946292 80.898358 
L 499.165421 79.708178 
L 502.384549 81.686851 
L 505.603677 82.698504 
L 508.822805 83.928356 
L 512.041933 81.74636 
L 515.261061 84.141596 
L 518.480189 84.295328 
L 521.699317 83.913478 
L 524.918445 84.568077 
L 528.137573 86.596341 
L 531.356701 84.920172 
L 534.575829 87.012903 
L 537.794958 87.131921 
L 541.014086 89.378385 
L 544.233214 90.097451 
L 547.452342 91.843047 
L 550.67147 93.211754 
L 553.890598 90.900822 
L 557.109726 94.406892 
L 560.328854 92.338955 
L 563.547982 88.446078 
L 566.76711 43.030822 
L 569.986238 54.863187 
L 573.205366 58.527947 
L 576.424495 60.387602 
L 579.643623 64.677207 
L 582.862751 65.078892 
L 586.081879 67.751836 
L 589.301007 68.262622 
L 592.520135 71.223192 
L 595.739263 69.958627 
L 598.958391 72.988625 
L 602.177519 76.400472 
L 605.396647 75.611978 
L 608.615775 77.709669 
L 611.834903 81.91001 
L 615.054032 81.508325 
L 618.27316 84.979681 
L 621.492288 89.358548 
L 624.711416 90.474341 
L 627.930544 93.221672 
L 631.149672 93.980411 
L 634.3688 97.580703 
L 637.587928 98.924614 
L 640.807056 103.873776 
L 644.026184 103.853939 
L 647.245312 107.067423 
L 650.46444 103.41754 
L 653.683569 108.113789 
L 656.902697 110.280907 
L 660.121825 111.515718 
L 663.340953 114.808547 
L 666.560081 116.965747 
L 669.779209 116.846729 
L 672.998337 119.579183 
L 676.217465 120.903257 
L 679.436593 121.270229 
L 682.655721 123.948132 
L 685.874849 126.268982 
L 689.093977 127.102107 
L 692.313106 129.56677 
L 695.532234 130.975149 
L 698.751362 131.684297 
L 701.97049 133.87621 
L 705.189618 135.433362 
L 708.408746 136.529318 
L 711.627874 139.16259 
L 714.847002 139.584112 
L 718.06613 141.433849 
L 724.504386 143.739821 
L 730.942643 145.758166 
L 734.161771 148.485661 
L 737.380899 148.723696 
L 740.600027 151.01975 
L 743.819155 151.158605 
L 747.038283 154.03983 
L 750.257411 155.001892 
L 753.476539 155.487882 
L 756.695667 158.641857 
L 759.914795 159.75765 
L 763.133923 162.12809 
L 766.353051 162.043786 
L 769.57218 162.331412 
L 772.791308 165.083702 
L 776.010436 164.801034 
L 779.229564 166.457367 
L 782.448692 167.171474 
L 785.66782 168.728626 
L 788.886948 170.543649 
L 792.106076 171.461079 
L 795.325204 170.796562 
L 798.544332 172.095841 
L 801.76346 172.219818 
L 804.982589 173.514138 
L 808.201717 174.282795 
L 811.420845 173.057902 
L 814.639973 174.322468 
L 817.859101 174.927476 
L 821.078229 175.993678 
L 824.297357 175.740765 
L 827.516485 174.867967 
L 830.735613 175.849865 
L 833.954741 176.291223 
L 837.173869 174.84813 
L 840.392997 176.281305 
L 843.612126 173.697624 
L 846.831254 175.304366 
L 850.050382 172.472731 
L 856.488638 169.750196 
L 859.707766 171.634646 
L 862.926894 169.274124 
L 869.36515 166.581344 
L 872.584278 163.586059 
L 875.803406 162.554571 
L 879.022534 159.960972 
L 882.241663 158.468289 
L 885.460791 157.3277 
L 888.679919 152.482679 
L 891.899047 149.968425 
L 895.118175 146.908673 
L 898.337303 143.085222 
L 901.556431 140.099856 
L 904.775559 136.08796 
L 907.994687 133.88117 
L 911.213815 131.50577 
L 914.432943 127.072353 
L 917.652071 121.890114 
L 920.8712 119.346106 
L 924.090328 114.565553 
L 927.309456 112.646389 
L 930.528584 109.522168 
L 933.747712 106.045853 
L 936.96684 103.288604 
L 940.185968 102.961305 
L 943.405096 100.704924 
L 946.624224 104.12173 
L 949.843352 117.476533 
L 949.843352 117.476533 
" style="fill:none;stroke:#90ed7d;stroke-linecap:square;"/>
   </g>
   <g id="line2d_11">
    <path clip-path="url(#p40f1fcf15e)" d="M 40.600625 273.99006 
L 993.140625 273.99006 
" style="fill:none;stroke:#dedede;stroke-linecap:square;stroke-width:2;"/>
   </g>
   <g id="text_16">
    <!-- Fastp: Insert Size Distribution -->
    <defs>
     <path d="M 9.8125 72.90625 
L 51.703125 72.90625 
L 51.703125 64.59375 
L 19.671875 64.59375 
L 19.671875 43.109375 
L 48.578125 43.109375 
L 48.578125 34.8125 
L 19.671875 34.8125 
L 19.671875 0 
L 9.8125 0 
z
" id="DejaVuSans-70"/>
     <path d="M 11.71875 12.40625 
L 22.015625 12.40625 
L 22.015625 0 
L 11.71875 0 
z
M 11.71875 51.703125 
L 22.015625 51.703125 
L 22.015625 39.3125 
L 11.71875 39.3125 
z
" id="DejaVuSans-58"/>
     <path d="M 53.515625 70.515625 
L 53.515625 60.890625 
Q 47.90625 63.578125 42.921875 64.890625 
Q 37.9375 66.21875 33.296875 66.21875 
Q 25.25 66.21875 20.875 63.09375 
Q 16.5 59.96875 16.5 54.203125 
Q 16.5 49.359375 19.40625 46.890625 
Q 22.3125 44.4375 30.421875 42.921875 
L 36.375 41.703125 
Q 47.40625 39.59375 52.65625 34.296875 
Q 57.90625 29 57.90625 20.125 
Q 57.90625 9.515625 50.796875 4.046875 
Q 43.703125 -1.421875 29.984375 -1.421875 
Q 24.8125 -1.421875 18.96875 -0.25 
Q 13.140625 0.921875 6.890625 3.21875 
L 6.890625 13.375 
Q 12.890625 10.015625 18.65625 8.296875 
Q 24.421875 6.59375 29.984375 6.59375 
Q 38.421875 6.59375 43.015625 9.90625 
Q 47.609375 13.234375 47.609375 19.390625 
Q 47.609375 24.75 44.3125 27.78125 
Q 41.015625 30.8125 33.5 32.328125 
L 27.484375 33.5 
Q 16.453125 35.6875 11.515625 40.375 
Q 6.59375 45.0625 6.59375 53.421875 
Q 6.59375 63.09375 13.40625 68.65625 
Q 20.21875 74.21875 32.171875 74.21875 
Q 37.3125 74.21875 42.625 73.28125 
Q 47.953125 72.359375 53.515625 70.515625 
z
" id="DejaVuSans-83"/>
     <path d="M 19.671875 64.796875 
L 19.671875 8.109375 
L 31.59375 8.109375 
Q 46.6875 8.109375 53.6875 14.9375 
Q 60.6875 21.78125 60.6875 36.53125 
Q 60.6875 51.171875 53.6875 57.984375 
Q 46.6875 64.796875 31.59375 64.796875 
z
M 9.8125 72.90625 
L 30.078125 72.90625 
Q 51.265625 72.90625 61.171875 64.09375 
Q 71.09375 55.28125 71.09375 36.53125 
Q 71.09375 17.671875 61.125 8.828125 
Q 51.171875 0 30.078125 0 
L 9.8125 0 
z
" id="DejaVuSans-68"/>
     <path d="M 48.6875 27.296875 
Q 48.6875 37.203125 44.609375 42.84375 
Q 40.53125 48.484375 33.40625 48.484375 
Q 26.265625 48.484375 22.1875 42.84375 
Q 18.109375 37.203125 18.109375 27.296875 
Q 18.109375 17.390625 22.1875 11.75 
Q 26.265625 6.109375 33.40625 6.109375 
Q 40.53125 6.109375 44.609375 11.75 
Q 48.6875 17.390625 48.6875 27.296875 
z
M 18.109375 46.390625 
Q 20.953125 51.265625 25.265625 53.625 
Q 29.59375 56 35.59375 56 
Q 45.5625 56 51.78125 48.09375 
Q 58.015625 40.1875 58.015625 27.296875 
Q 58.015625 14.40625 51.78125 6.484375 
Q 45.5625 -1.421875 35.59375 -1.421875 
Q 29.59375 -1.421875 25.265625 0.953125 
Q 20.953125 3.328125 18.109375 8.203125 
L 18.109375 0 
L 9.078125 0 
L 9.078125 75.984375 
L 18.109375 75.984375 
z
" id="DejaVuSans-98"/>
     <path d="M 8.5 21.578125 
L 8.5 54.6875 
L 17.484375 54.6875 
L 17.484375 21.921875 
Q 17.484375 14.15625 20.5 10.265625 
Q 23.53125 6.390625 29.59375 6.390625 
Q 36.859375 6.390625 41.078125 11.03125 
Q 45.3125 15.671875 45.3125 23.6875 
L 45.3125 54.6875 
L 54.296875 54.6875 
L 54.296875 0 
L 45.3125 0 
L 45.3125 8.40625 
Q 42.046875 3.421875 37.71875 1 
Q 33.40625 -1.421875 27.6875 -1.421875 
Q 18.265625 -1.421875 13.375 4.4375 
Q 8.5 10.296875 8.5 21.578125 
z
M 31.109375 56 
z
" id="DejaVuSans-117"/>
     <path d="M 30.609375 48.390625 
Q 23.390625 48.390625 19.1875 42.75 
Q 14.984375 37.109375 14.984375 27.296875 
Q 14.984375 17.484375 19.15625 11.84375 
Q 23.34375 6.203125 30.609375 6.203125 
Q 37.796875 6.203125 41.984375 11.859375 
Q 46.1875 17.53125 46.1875 27.296875 
Q 46.1875 37.015625 41.984375 42.703125 
Q 37.796875 48.390625 30.609375 48.390625 
z
M 30.609375 56 
Q 42.328125 56 49.015625 48.375 
Q 55.71875 40.765625 55.71875 27.296875 
Q 55.71875 13.875 49.015625 6.21875 
Q 42.328125 -1.421875 30.609375 -1.421875 
Q 18.84375 -1.421875 12.171875 6.21875 
Q 5.515625 13.875 5.515625 27.296875 
Q 5.515625 40.765625 12.171875 48.375 
Q 18.84375 56 30.609375 56 
z
" id="DejaVuSans-111"/>
    </defs>
    <g transform="translate(398.635625 19.3575)scale(0.16 -0.16)">
     <use xlink:href="#DejaVuSans-70"/>
     <use x="57.378906" xlink:href="#DejaVuSans-97"/>
     <use x="118.658203" xlink:href="#DejaVuSans-115"/>
     <use x="170.757812" xlink:href="#DejaVuSans-116"/>
     <use x="209.966797" xlink:href="#DejaVuSans-112"/>
     <use x="273.443359" xlink:href="#DejaVuSans-58"/>
     <use x="307.134766" xlink:href="#DejaVuSans-32"/>
     <use x="338.921875" xlink:href="#DejaVuSans-73"/>
     <use x="368.414062" xlink:href="#DejaVuSans-110"/>
     <use x="431.792969" xlink:href="#DejaVuSans-115"/>
     <use x="483.892578" xlink:href="#DejaVuSans-101"/>
     <use x="545.416016" xlink:href="#DejaVuSans-114"/>
     <use x="586.529297" xlink:href="#DejaVuSans-116"/>
     <use x="625.738281" xlink:href="#DejaVuSans-32"/>
     <use x="657.525391" xlink:href="#DejaVuSans-83"/>
     <use x="721.001953" xlink:href="#DejaVuSans-105"/>
     <use x="748.785156" xlink:href="#DejaVuSans-122"/>
     <use x="801.275391" xlink:href="#DejaVuSans-101"/>
     <use x="862.798828" xlink:href="#DejaVuSans-32"/>
     <use x="894.585938" xlink:href="#DejaVuSans-68"/>
     <use x="971.587891" xlink:href="#DejaVuSans-105"/>
     <use x="999.371094" xlink:href="#DejaVuSans-115"/>
     <use x="1051.470703" xlink:href="#DejaVuSans-116"/>
     <use x="1090.679688" xlink:href="#DejaVuSans-114"/>
     <use x="1131.792969" xlink:href="#DejaVuSans-105"/>
     <use x="1159.576172" xlink:href="#DejaVuSans-98"/>
     <use x="1223.052734" xlink:href="#DejaVuSans-117"/>
     <use x="1286.431641" xlink:href="#DejaVuSans-116"/>
     <use x="1325.640625" xlink:href="#DejaVuSans-105"/>
     <use x="1353.423828" xlink:href="#DejaVuSans-111"/>
     <use x="1414.605469" xlink:href="#DejaVuSans-110"/>
    </g>
   </g>
   <g id="legend_1">
    <g id="line2d_12">
     <path d="M 47.800625 315.455394 
L 63.800625 315.455394 
" style="fill:none;stroke:#7cb5ec;stroke-linecap:square;"/>
    </g>
    <g id="line2d_13"/>
    <g id="text_17">
     <!-- Cvi-CPal_079-Ex1-1A-ssl-1-1 -->
     <defs>
      <path d="M 64.40625 67.28125 
L 64.40625 56.890625 
Q 59.421875 61.53125 53.78125 63.8125 
Q 48.140625 66.109375 41.796875 66.109375 
Q 29.296875 66.109375 22.65625 58.46875 
Q 16.015625 50.828125 16.015625 36.375 
Q 16.015625 21.96875 22.65625 14.328125 
Q 29.296875 6.6875 41.796875 6.6875 
Q 48.140625 6.6875 53.78125 8.984375 
Q 59.421875 11.28125 64.40625 15.921875 
L 64.40625 5.609375 
Q 59.234375 2.09375 53.4375 0.328125 
Q 47.65625 -1.421875 41.21875 -1.421875 
Q 24.65625 -1.421875 15.125 8.703125 
Q 5.609375 18.84375 5.609375 36.375 
Q 5.609375 53.953125 15.125 64.078125 
Q 24.65625 74.21875 41.21875 74.21875 
Q 47.75 74.21875 53.53125 72.484375 
Q 59.328125 70.75 64.40625 67.28125 
z
" id="DejaVuSans-67"/>
      <path d="M 2.984375 54.6875 
L 12.5 54.6875 
L 29.59375 8.796875 
L 46.6875 54.6875 
L 56.203125 54.6875 
L 35.6875 0 
L 23.484375 0 
z
" id="DejaVuSans-118"/>
      <path d="M 4.890625 31.390625 
L 31.203125 31.390625 
L 31.203125 23.390625 
L 4.890625 23.390625 
z
" id="DejaVuSans-45"/>
      <path d="M 19.671875 64.796875 
L 19.671875 37.40625 
L 32.078125 37.40625 
Q 38.96875 37.40625 42.71875 40.96875 
Q 46.484375 44.53125 46.484375 51.125 
Q 46.484375 57.671875 42.71875 61.234375 
Q 38.96875 64.796875 32.078125 64.796875 
z
M 9.8125 72.90625 
L 32.078125 72.90625 
Q 44.34375 72.90625 50.609375 67.359375 
Q 56.890625 61.8125 56.890625 51.125 
Q 56.890625 40.328125 50.609375 34.8125 
Q 44.34375 29.296875 32.078125 29.296875 
L 19.671875 29.296875 
L 19.671875 0 
L 9.8125 0 
z
" id="DejaVuSans-80"/>
      <path d="M 9.421875 75.984375 
L 18.40625 75.984375 
L 18.40625 0 
L 9.421875 0 
z
" id="DejaVuSans-108"/>
      <path d="M 50.984375 -16.609375 
L 50.984375 -23.578125 
L -0.984375 -23.578125 
L -0.984375 -16.609375 
z
" id="DejaVuSans-95"/>
      <path d="M 8.203125 72.90625 
L 55.078125 72.90625 
L 55.078125 68.703125 
L 28.609375 0 
L 18.3125 0 
L 43.21875 64.59375 
L 8.203125 64.59375 
z
" id="DejaVuSans-55"/>
      <path d="M 10.984375 1.515625 
L 10.984375 10.5 
Q 14.703125 8.734375 18.5 7.8125 
Q 22.3125 6.890625 25.984375 6.890625 
Q 35.75 6.890625 40.890625 13.453125 
Q 46.046875 20.015625 46.78125 33.40625 
Q 43.953125 29.203125 39.59375 26.953125 
Q 35.25 24.703125 29.984375 24.703125 
Q 19.046875 24.703125 12.671875 31.3125 
Q 6.296875 37.9375 6.296875 49.421875 
Q 6.296875 60.640625 12.9375 67.421875 
Q 19.578125 74.21875 30.609375 74.21875 
Q 43.265625 74.21875 49.921875 64.515625 
Q 56.59375 54.828125 56.59375 36.375 
Q 56.59375 19.140625 48.40625 8.859375 
Q 40.234375 -1.421875 26.421875 -1.421875 
Q 22.703125 -1.421875 18.890625 -0.6875 
Q 15.09375 0.046875 10.984375 1.515625 
z
M 30.609375 32.421875 
Q 37.25 32.421875 41.125 36.953125 
Q 45.015625 41.5 45.015625 49.421875 
Q 45.015625 57.28125 41.125 61.84375 
Q 37.25 66.40625 30.609375 66.40625 
Q 23.96875 66.40625 20.09375 61.84375 
Q 16.21875 57.28125 16.21875 49.421875 
Q 16.21875 41.5 20.09375 36.953125 
Q 23.96875 32.421875 30.609375 32.421875 
z
" id="DejaVuSans-57"/>
      <path d="M 9.8125 72.90625 
L 55.90625 72.90625 
L 55.90625 64.59375 
L 19.671875 64.59375 
L 19.671875 43.015625 
L 54.390625 43.015625 
L 54.390625 34.71875 
L 19.671875 34.71875 
L 19.671875 8.296875 
L 56.78125 8.296875 
L 56.78125 0 
L 9.8125 0 
z
" id="DejaVuSans-69"/>
      <path d="M 54.890625 54.6875 
L 35.109375 28.078125 
L 55.90625 0 
L 45.3125 0 
L 29.390625 21.484375 
L 13.484375 0 
L 2.875 0 
L 24.125 28.609375 
L 4.6875 54.6875 
L 15.28125 54.6875 
L 29.78125 35.203125 
L 44.28125 54.6875 
z
" id="DejaVuSans-120"/>
      <path d="M 34.1875 63.1875 
L 20.796875 26.90625 
L 47.609375 26.90625 
z
M 28.609375 72.90625 
L 39.796875 72.90625 
L 67.578125 0 
L 57.328125 0 
L 50.6875 18.703125 
L 17.828125 18.703125 
L 11.1875 0 
L 0.78125 0 
z
" id="DejaVuSans-65"/>
     </defs>
     <g transform="translate(70.200625 318.255394)scale(0.08 -0.08)">
      <use xlink:href="#DejaVuSans-67"/>
      <use x="69.824219" xlink:href="#DejaVuSans-118"/>
      <use x="129.003906" xlink:href="#DejaVuSans-105"/>
      <use x="156.787109" xlink:href="#DejaVuSans-45"/>
      <use x="192.871094" xlink:href="#DejaVuSans-67"/>
      <use x="262.695312" xlink:href="#DejaVuSans-80"/>
      <use x="322.935547" xlink:href="#DejaVuSans-97"/>
      <use x="384.214844" xlink:href="#DejaVuSans-108"/>
      <use x="411.998047" xlink:href="#DejaVuSans-95"/>
      <use x="461.998047" xlink:href="#DejaVuSans-48"/>
      <use x="525.621094" xlink:href="#DejaVuSans-55"/>
      <use x="589.244141" xlink:href="#DejaVuSans-57"/>
      <use x="652.867188" xlink:href="#DejaVuSans-45"/>
      <use x="688.951172" xlink:href="#DejaVuSans-69"/>
      <use x="752.134766" xlink:href="#DejaVuSans-120"/>
      <use x="811.314453" xlink:href="#DejaVuSans-49"/>
      <use x="874.9375" xlink:href="#DejaVuSans-45"/>
      <use x="911.021484" xlink:href="#DejaVuSans-49"/>
      <use x="974.644531" xlink:href="#DejaVuSans-65"/>
      <use x="1043.021484" xlink:href="#DejaVuSans-45"/>
      <use x="1079.105469" xlink:href="#DejaVuSans-115"/>
      <use x="1131.205078" xlink:href="#DejaVuSans-115"/>
      <use x="1183.304688" xlink:href="#DejaVuSans-108"/>
      <use x="1211.087891" xlink:href="#DejaVuSans-45"/>
      <use x="1247.171875" xlink:href="#DejaVuSans-49"/>
      <use x="1310.794922" xlink:href="#DejaVuSans-45"/>
      <use x="1346.878906" xlink:href="#DejaVuSans-49"/>
     </g>
    </g>
    <g id="line2d_14">
     <path d="M 449.18375 315.455394 
L 465.18375 315.455394 
" style="fill:none;stroke:#434348;stroke-linecap:square;"/>
    </g>
    <g id="line2d_15"/>
    <g id="text_18">
     <!-- Cvi-CPal_079-Ex1-1B-ssl-1-1 -->
     <defs>
      <path d="M 19.671875 34.8125 
L 19.671875 8.109375 
L 35.5 8.109375 
Q 43.453125 8.109375 47.28125 11.40625 
Q 51.125 14.703125 51.125 21.484375 
Q 51.125 28.328125 47.28125 31.5625 
Q 43.453125 34.8125 35.5 34.8125 
z
M 19.671875 64.796875 
L 19.671875 42.828125 
L 34.28125 42.828125 
Q 41.5 42.828125 45.03125 45.53125 
Q 48.578125 48.25 48.578125 53.8125 
Q 48.578125 59.328125 45.03125 62.0625 
Q 41.5 64.796875 34.28125 64.796875 
z
M 9.8125 72.90625 
L 35.015625 72.90625 
Q 46.296875 72.90625 52.390625 68.21875 
Q 58.5 63.53125 58.5 54.890625 
Q 58.5 48.1875 55.375 44.234375 
Q 52.25 40.28125 46.1875 39.3125 
Q 53.46875 37.75 57.5 32.78125 
Q 61.53125 27.828125 61.53125 20.40625 
Q 61.53125 10.640625 54.890625 5.3125 
Q 48.25 0 35.984375 0 
L 9.8125 0 
z
" id="DejaVuSans-66"/>
     </defs>
     <g transform="translate(471.58375 318.255394)scale(0.08 -0.08)">
      <use xlink:href="#DejaVuSans-67"/>
      <use x="69.824219" xlink:href="#DejaVuSans-118"/>
      <use x="129.003906" xlink:href="#DejaVuSans-105"/>
      <use x="156.787109" xlink:href="#DejaVuSans-45"/>
      <use x="192.871094" xlink:href="#DejaVuSans-67"/>
      <use x="262.695312" xlink:href="#DejaVuSans-80"/>
      <use x="322.935547" xlink:href="#DejaVuSans-97"/>
      <use x="384.214844" xlink:href="#DejaVuSans-108"/>
      <use x="411.998047" xlink:href="#DejaVuSans-95"/>
      <use x="461.998047" xlink:href="#DejaVuSans-48"/>
      <use x="525.621094" xlink:href="#DejaVuSans-55"/>
      <use x="589.244141" xlink:href="#DejaVuSans-57"/>
      <use x="652.867188" xlink:href="#DejaVuSans-45"/>
      <use x="688.951172" xlink:href="#DejaVuSans-69"/>
      <use x="752.134766" xlink:href="#DejaVuSans-120"/>
      <use x="811.314453" xlink:href="#DejaVuSans-49"/>
      <use x="874.9375" xlink:href="#DejaVuSans-45"/>
      <use x="911.021484" xlink:href="#DejaVuSans-49"/>
      <use x="974.644531" xlink:href="#DejaVuSans-66"/>
      <use x="1043.248047" xlink:href="#DejaVuSans-45"/>
      <use x="1079.332031" xlink:href="#DejaVuSans-115"/>
      <use x="1131.431641" xlink:href="#DejaVuSans-115"/>
      <use x="1183.53125" xlink:href="#DejaVuSans-108"/>
      <use x="1211.314453" xlink:href="#DejaVuSans-45"/>
      <use x="1247.398438" xlink:href="#DejaVuSans-49"/>
      <use x="1311.021484" xlink:href="#DejaVuSans-45"/>
      <use x="1347.105469" xlink:href="#DejaVuSans-49"/>
     </g>
    </g>
    <g id="line2d_16">
     <path d="M 850.585625 315.455394 
L 866.585625 315.455394 
" style="fill:none;stroke:#90ed7d;stroke-linecap:square;"/>
    </g>
    <g id="line2d_17"/>
    <g id="text_19">
     <!-- Cvi-CPal_079-Ex1-1C-ssl-1-1 -->
     <g transform="translate(872.985625 318.255394)scale(0.08 -0.08)">
      <use xlink:href="#DejaVuSans-67"/>
      <use x="69.824219" xlink:href="#DejaVuSans-118"/>
      <use x="129.003906" xlink:href="#DejaVuSans-105"/>
      <use x="156.787109" xlink:href="#DejaVuSans-45"/>
      <use x="192.871094" xlink:href="#DejaVuSans-67"/>
      <use x="262.695312" xlink:href="#DejaVuSans-80"/>
      <use x="322.935547" xlink:href="#DejaVuSans-97"/>
      <use x="384.214844" xlink:href="#DejaVuSans-108"/>
      <use x="411.998047" xlink:href="#DejaVuSans-95"/>
      <use x="461.998047" xlink:href="#DejaVuSans-48"/>
      <use x="525.621094" xlink:href="#DejaVuSans-55"/>
      <use x="589.244141" xlink:href="#DejaVuSans-57"/>
      <use x="652.867188" xlink:href="#DejaVuSans-45"/>
      <use x="688.951172" xlink:href="#DejaVuSans-69"/>
      <use x="752.134766" xlink:href="#DejaVuSans-120"/>
      <use x="811.314453" xlink:href="#DejaVuSans-49"/>
      <use x="874.9375" xlink:href="#DejaVuSans-45"/>
      <use x="911.021484" xlink:href="#DejaVuSans-49"/>
      <use x="974.644531" xlink:href="#DejaVuSans-67"/>
      <use x="1044.46875" xlink:href="#DejaVuSans-45"/>
      <use x="1080.552734" xlink:href="#DejaVuSans-115"/>
      <use x="1132.652344" xlink:href="#DejaVuSans-115"/>
      <use x="1184.751953" xlink:href="#DejaVuSans-108"/>
      <use x="1212.535156" xlink:href="#DejaVuSans-45"/>
      <use x="1248.619141" xlink:href="#DejaVuSans-49"/>
      <use x="1312.242188" xlink:href="#DejaVuSans-45"/>
      <use x="1348.326172" xlink:href="#DejaVuSans-49"/>
     </g>
    </g>
   </g>
  </g>
 </g>
 <defs>
  <clipPath id="p40f1fcf15e">
   <rect height="242.5072" width="952.54" x="40.600625" y="31.48286"/>
  </clipPath>
 </defs>
</svg>
