<?xml version="1.0" encoding="utf-8" standalone="no"?>
<!DOCTYPE svg PUBLIC "-//W3C//DTD SVG 1.1//EN"
  "http://www.w3.org/Graphics/SVG/1.1/DTD/svg11.dtd">
<!-- Created with matplotlib (https://matplotlib.org/) -->
<svg height="330.541644pt" version="1.1" viewBox="0 0 1000.340625 330.541644" width="1000.340625pt" xmlns="http://www.w3.org/2000/svg" xmlns:xlink="http://www.w3.org/1999/xlink">
 <defs>
  <style type="text/css">
*{stroke-linecap:butt;stroke-linejoin:round;}
  </style>
 </defs>
 <g id="figure_1">
  <g id="axes_1">
   <g id="patch_1">
    <path d="M 40.600625 273.99006 
L 993.140625 273.99006 
L 993.140625 31.48286 
L 40.600625 31.48286 
z
" style="fill:#ffffff;"/>
   </g>
   <g id="matplotlib.axis_1">
    <g id="xtick_1">
     <g id="text_1">
      <!-- 0 -->
      <defs>
       <path d="M 31.78125 66.40625 
Q 24.171875 66.40625 20.328125 58.90625 
Q 16.5 51.421875 16.5 36.375 
Q 16.5 21.390625 20.328125 13.890625 
Q 24.171875 6.390625 31.78125 6.390625 
Q 39.453125 6.390625 43.28125 13.890625 
Q 47.125 21.390625 47.125 36.375 
Q 47.125 51.421875 43.28125 58.90625 
Q 39.453125 66.40625 31.78125 66.40625 
z
M 31.78125 74.21875 
Q 44.046875 74.21875 50.515625 64.515625 
Q 56.984375 54.828125 56.984375 36.375 
Q 56.984375 17.96875 50.515625 8.265625 
Q 44.046875 -1.421875 31.78125 -1.421875 
Q 19.53125 -1.421875 13.0625 8.265625 
Q 6.59375 17.96875 6.59375 36.375 
Q 6.59375 54.828125 13.0625 64.515625 
Q 19.53125 74.21875 31.78125 74.21875 
z
" id="DejaVuSans-48"/>
      </defs>
      <g transform="translate(78.13377 287.06881)scale(0.08 -0.08)">
       <use xlink:href="#DejaVuSans-48"/>
      </g>
     </g>
    </g>
    <g id="xtick_2">
     <g id="text_2">
      <!-- 50 -->
      <defs>
       <path d="M 10.796875 72.90625 
L 49.515625 72.90625 
L 49.515625 64.59375 
L 19.828125 64.59375 
L 19.828125 46.734375 
Q 21.96875 47.46875 24.109375 47.828125 
Q 26.265625 48.1875 28.421875 48.1875 
Q 40.625 48.1875 47.75 41.5 
Q 54.890625 34.8125 54.890625 23.390625 
Q 54.890625 11.625 47.5625 5.09375 
Q 40.234375 -1.421875 26.90625 -1.421875 
Q 22.3125 -1.421875 17.546875 -0.640625 
Q 12.796875 0.140625 7.71875 1.703125 
L 7.71875 11.625 
Q 12.109375 9.234375 16.796875 8.0625 
Q 21.484375 6.890625 26.703125 6.890625 
Q 35.15625 6.890625 40.078125 11.328125 
Q 45.015625 15.765625 45.015625 23.390625 
Q 45.015625 31 40.078125 35.4375 
Q 35.15625 39.890625 26.703125 39.890625 
Q 22.75 39.890625 18.8125 39.015625 
Q 14.890625 38.140625 10.796875 36.28125 
z
" id="DejaVuSans-53"/>
      </defs>
      <g transform="translate(236.545174 287.06881)scale(0.08 -0.08)">
       <use xlink:href="#DejaVuSans-53"/>
       <use x="63.623047" xlink:href="#DejaVuSans-48"/>
      </g>
     </g>
    </g>
    <g id="xtick_3">
     <g id="text_3">
      <!-- 100 -->
      <defs>
       <path d="M 12.40625 8.296875 
L 28.515625 8.296875 
L 28.515625 63.921875 
L 10.984375 60.40625 
L 10.984375 69.390625 
L 28.421875 72.90625 
L 38.28125 72.90625 
L 38.28125 8.296875 
L 54.390625 8.296875 
L 54.390625 0 
L 12.40625 0 
z
" id="DejaVuSans-49"/>
      </defs>
      <g transform="translate(394.956578 287.06881)scale(0.08 -0.08)">
       <use xlink:href="#DejaVuSans-49"/>
       <use x="63.623047" xlink:href="#DejaVuSans-48"/>
       <use x="127.246094" xlink:href="#DejaVuSans-48"/>
      </g>
     </g>
    </g>
    <g id="xtick_4">
     <g id="text_4">
      <!-- 150 -->
      <g transform="translate(555.912982 287.06881)scale(0.08 -0.08)">
       <use xlink:href="#DejaVuSans-49"/>
       <use x="63.623047" xlink:href="#DejaVuSans-53"/>
       <use x="127.246094" xlink:href="#DejaVuSans-48"/>
      </g>
     </g>
    </g>
    <g id="xtick_5">
     <g id="text_5">
      <!-- 200 -->
      <defs>
       <path d="M 19.1875 8.296875 
L 53.609375 8.296875 
L 53.609375 0 
L 7.328125 0 
L 7.328125 8.296875 
Q 12.9375 14.109375 22.625 23.890625 
Q 32.328125 33.6875 34.8125 36.53125 
Q 39.546875 41.84375 41.421875 45.53125 
Q 43.3125 49.21875 43.3125 52.78125 
Q 43.3125 58.59375 39.234375 62.25 
Q 35.15625 65.921875 28.609375 65.921875 
Q 23.96875 65.921875 18.8125 64.3125 
Q 13.671875 62.703125 7.8125 59.421875 
L 7.8125 69.390625 
Q 13.765625 71.78125 18.9375 73 
Q 24.125 74.21875 28.421875 74.21875 
Q 39.75 74.21875 46.484375 68.546875 
Q 53.21875 62.890625 53.21875 53.421875 
Q 53.21875 48.921875 51.53125 44.890625 
Q 49.859375 40.875 45.40625 35.40625 
Q 44.1875 33.984375 37.640625 27.21875 
Q 31.109375 20.453125 19.1875 8.296875 
z
" id="DejaVuSans-50"/>
      </defs>
      <g transform="translate(716.869386 287.06881)scale(0.08 -0.08)">
       <use xlink:href="#DejaVuSans-50"/>
       <use x="63.623047" xlink:href="#DejaVuSans-48"/>
       <use x="127.246094" xlink:href="#DejaVuSans-48"/>
      </g>
     </g>
    </g>
    <g id="xtick_6">
     <g id="text_6">
      <!-- 250 -->
      <g transform="translate(877.825791 287.06881)scale(0.08 -0.08)">
       <use xlink:href="#DejaVuSans-50"/>
       <use x="63.623047" xlink:href="#DejaVuSans-53"/>
       <use x="127.246094" xlink:href="#DejaVuSans-48"/>
      </g>
     </g>
    </g>
    <g id="text_7">
     <!-- Insert size -->
     <defs>
      <path d="M 9.8125 72.90625 
L 19.671875 72.90625 
L 19.671875 0 
L 9.8125 0 
z
" id="DejaVuSans-73"/>
      <path d="M 54.890625 33.015625 
L 54.890625 0 
L 45.90625 0 
L 45.90625 32.71875 
Q 45.90625 40.484375 42.875 44.328125 
Q 39.84375 48.1875 33.796875 48.1875 
Q 26.515625 48.1875 22.3125 43.546875 
Q 18.109375 38.921875 18.109375 30.90625 
L 18.109375 0 
L 9.078125 0 
L 9.078125 54.6875 
L 18.109375 54.6875 
L 18.109375 46.1875 
Q 21.34375 51.125 25.703125 53.5625 
Q 30.078125 56 35.796875 56 
Q 45.21875 56 50.046875 50.171875 
Q 54.890625 44.34375 54.890625 33.015625 
z
" id="DejaVuSans-110"/>
      <path d="M 44.28125 53.078125 
L 44.28125 44.578125 
Q 40.484375 46.53125 36.375 47.5 
Q 32.28125 48.484375 27.875 48.484375 
Q 21.1875 48.484375 17.84375 46.4375 
Q 14.5 44.390625 14.5 40.28125 
Q 14.5 37.15625 16.890625 35.375 
Q 19.28125 33.59375 26.515625 31.984375 
L 29.59375 31.296875 
Q 39.15625 29.25 43.1875 25.515625 
Q 47.21875 21.78125 47.21875 15.09375 
Q 47.21875 7.46875 41.1875 3.015625 
Q 35.15625 -1.421875 24.609375 -1.421875 
Q 20.21875 -1.421875 15.453125 -0.5625 
Q 10.6875 0.296875 5.421875 2 
L 5.421875 11.28125 
Q 10.40625 8.6875 15.234375 7.390625 
Q 20.0625 6.109375 24.8125 6.109375 
Q 31.15625 6.109375 34.5625 8.28125 
Q 37.984375 10.453125 37.984375 14.40625 
Q 37.984375 18.0625 35.515625 20.015625 
Q 33.0625 21.96875 24.703125 23.78125 
L 21.578125 24.515625 
Q 13.234375 26.265625 9.515625 29.90625 
Q 5.8125 33.546875 5.8125 39.890625 
Q 5.8125 47.609375 11.28125 51.796875 
Q 16.75 56 26.8125 56 
Q 31.78125 56 36.171875 55.265625 
Q 40.578125 54.546875 44.28125 53.078125 
z
" id="DejaVuSans-115"/>
      <path d="M 56.203125 29.59375 
L 56.203125 25.203125 
L 14.890625 25.203125 
Q 15.484375 15.921875 20.484375 11.0625 
Q 25.484375 6.203125 34.421875 6.203125 
Q 39.59375 6.203125 44.453125 7.46875 
Q 49.3125 8.734375 54.109375 11.28125 
L 54.109375 2.78125 
Q 49.265625 0.734375 44.1875 -0.34375 
Q 39.109375 -1.421875 33.890625 -1.421875 
Q 20.796875 -1.421875 13.15625 6.1875 
Q 5.515625 13.8125 5.515625 26.8125 
Q 5.515625 40.234375 12.765625 48.109375 
Q 20.015625 56 32.328125 56 
Q 43.359375 56 49.78125 48.890625 
Q 56.203125 41.796875 56.203125 29.59375 
z
M 47.21875 32.234375 
Q 47.125 39.59375 43.09375 43.984375 
Q 39.0625 48.390625 32.421875 48.390625 
Q 24.90625 48.390625 20.390625 44.140625 
Q 15.875 39.890625 15.1875 32.171875 
z
" id="DejaVuSans-101"/>
      <path d="M 41.109375 46.296875 
Q 39.59375 47.171875 37.8125 47.578125 
Q 36.03125 48 33.890625 48 
Q 26.265625 48 22.1875 43.046875 
Q 18.109375 38.09375 18.109375 28.8125 
L 18.109375 0 
L 9.078125 0 
L 9.078125 54.6875 
L 18.109375 54.6875 
L 18.109375 46.1875 
Q 20.953125 51.171875 25.484375 53.578125 
Q 30.03125 56 36.53125 56 
Q 37.453125 56 38.578125 55.875 
Q 39.703125 55.765625 41.0625 55.515625 
z
" id="DejaVuSans-114"/>
      <path d="M 18.3125 70.21875 
L 18.3125 54.6875 
L 36.8125 54.6875 
L 36.8125 47.703125 
L 18.3125 47.703125 
L 18.3125 18.015625 
Q 18.3125 11.328125 20.140625 9.421875 
Q 21.96875 7.515625 27.59375 7.515625 
L 36.8125 7.515625 
L 36.8125 0 
L 27.59375 0 
Q 17.1875 0 13.234375 3.875 
Q 9.28125 7.765625 9.28125 18.015625 
L 9.28125 47.703125 
L 2.6875 47.703125 
L 2.6875 54.6875 
L 9.28125 54.6875 
L 9.28125 70.21875 
z
" id="DejaVuSans-116"/>
      <path id="DejaVuSans-32"/>
      <path d="M 9.421875 54.6875 
L 18.40625 54.6875 
L 18.40625 0 
L 9.421875 0 
z
M 9.421875 75.984375 
L 18.40625 75.984375 
L 18.40625 64.59375 
L 9.421875 64.59375 
z
" id="DejaVuSans-105"/>
      <path d="M 5.515625 54.6875 
L 48.1875 54.6875 
L 48.1875 46.484375 
L 14.40625 7.171875 
L 48.1875 7.171875 
L 48.1875 0 
L 4.296875 0 
L 4.296875 8.203125 
L 38.09375 47.515625 
L 5.515625 47.515625 
z
" id="DejaVuSans-122"/>
     </defs>
     <g transform="translate(491.246406 300.330997)scale(0.1 -0.1)">
      <use xlink:href="#DejaVuSans-73"/>
      <use x="29.492188" xlink:href="#DejaVuSans-110"/>
      <use x="92.871094" xlink:href="#DejaVuSans-115"/>
      <use x="144.970703" xlink:href="#DejaVuSans-101"/>
      <use x="206.494141" xlink:href="#DejaVuSans-114"/>
      <use x="247.607422" xlink:href="#DejaVuSans-116"/>
      <use x="286.816406" xlink:href="#DejaVuSans-32"/>
      <use x="318.603516" xlink:href="#DejaVuSans-115"/>
      <use x="370.703125" xlink:href="#DejaVuSans-105"/>
      <use x="398.486328" xlink:href="#DejaVuSans-122"/>
      <use x="450.976562" xlink:href="#DejaVuSans-101"/>
     </g>
    </g>
   </g>
   <g id="matplotlib.axis_2">
    <g id="ytick_1">
     <g id="line2d_1">
      <path clip-path="url(#p763406636f)" d="M 40.600625 273.99006 
L 993.140625 273.99006 
" style="fill:none;stroke:#dedede;stroke-linecap:square;"/>
     </g>
     <g id="text_8">
      <!-- 0.0 -->
      <defs>
       <path d="M 10.6875 12.40625 
L 21 12.40625 
L 21 0 
L 10.6875 0 
z
" id="DejaVuSans-46"/>
      </defs>
      <g transform="translate(20.878125 277.029435)scale(0.08 -0.08)">
       <use xlink:href="#DejaVuSans-48"/>
       <use x="63.623047" xlink:href="#DejaVuSans-46"/>
       <use x="95.410156" xlink:href="#DejaVuSans-48"/>
      </g>
     </g>
    </g>
    <g id="ytick_2">
     <g id="line2d_2">
      <path clip-path="url(#p763406636f)" d="M 40.600625 237.029339 
L 993.140625 237.029339 
" style="fill:none;stroke:#dedede;stroke-linecap:square;"/>
     </g>
     <g id="text_9">
      <!-- 0.1 -->
      <g transform="translate(20.878125 240.068714)scale(0.08 -0.08)">
       <use xlink:href="#DejaVuSans-48"/>
       <use x="63.623047" xlink:href="#DejaVuSans-46"/>
       <use x="95.410156" xlink:href="#DejaVuSans-49"/>
      </g>
     </g>
    </g>
    <g id="ytick_3">
     <g id="line2d_3">
      <path clip-path="url(#p763406636f)" d="M 40.600625 200.068617 
L 993.140625 200.068617 
" style="fill:none;stroke:#dedede;stroke-linecap:square;"/>
     </g>
     <g id="text_10">
      <!-- 0.2 -->
      <g transform="translate(20.878125 203.107992)scale(0.08 -0.08)">
       <use xlink:href="#DejaVuSans-48"/>
       <use x="63.623047" xlink:href="#DejaVuSans-46"/>
       <use x="95.410156" xlink:href="#DejaVuSans-50"/>
      </g>
     </g>
    </g>
    <g id="ytick_4">
     <g id="line2d_4">
      <path clip-path="url(#p763406636f)" d="M 40.600625 163.107896 
L 993.140625 163.107896 
" style="fill:none;stroke:#dedede;stroke-linecap:square;"/>
     </g>
     <g id="text_11">
      <!-- 0.3 -->
      <defs>
       <path d="M 40.578125 39.3125 
Q 47.65625 37.796875 51.625 33 
Q 55.609375 28.21875 55.609375 21.1875 
Q 55.609375 10.40625 48.1875 4.484375 
Q 40.765625 -1.421875 27.09375 -1.421875 
Q 22.515625 -1.421875 17.65625 -0.515625 
Q 12.796875 0.390625 7.625 2.203125 
L 7.625 11.71875 
Q 11.71875 9.328125 16.59375 8.109375 
Q 21.484375 6.890625 26.8125 6.890625 
Q 36.078125 6.890625 40.9375 10.546875 
Q 45.796875 14.203125 45.796875 21.1875 
Q 45.796875 27.640625 41.28125 31.265625 
Q 36.765625 34.90625 28.71875 34.90625 
L 20.21875 34.90625 
L 20.21875 43.015625 
L 29.109375 43.015625 
Q 36.375 43.015625 40.234375 45.921875 
Q 44.09375 48.828125 44.09375 54.296875 
Q 44.09375 59.90625 40.109375 62.90625 
Q 36.140625 65.921875 28.71875 65.921875 
Q 24.65625 65.921875 20.015625 65.03125 
Q 15.375 64.15625 9.8125 62.3125 
L 9.8125 71.09375 
Q 15.4375 72.65625 20.34375 73.4375 
Q 25.25 74.21875 29.59375 74.21875 
Q 40.828125 74.21875 47.359375 69.109375 
Q 53.90625 64.015625 53.90625 55.328125 
Q 53.90625 49.265625 50.4375 45.09375 
Q 46.96875 40.921875 40.578125 39.3125 
z
" id="DejaVuSans-51"/>
      </defs>
      <g transform="translate(20.878125 166.147271)scale(0.08 -0.08)">
       <use xlink:href="#DejaVuSans-48"/>
       <use x="63.623047" xlink:href="#DejaVuSans-46"/>
       <use x="95.410156" xlink:href="#DejaVuSans-51"/>
      </g>
     </g>
    </g>
    <g id="ytick_5">
     <g id="line2d_5">
      <path clip-path="url(#p763406636f)" d="M 40.600625 126.147175 
L 993.140625 126.147175 
" style="fill:none;stroke:#dedede;stroke-linecap:square;"/>
     </g>
     <g id="text_12">
      <!-- 0.4 -->
      <defs>
       <path d="M 37.796875 64.3125 
L 12.890625 25.390625 
L 37.796875 25.390625 
z
M 35.203125 72.90625 
L 47.609375 72.90625 
L 47.609375 25.390625 
L 58.015625 25.390625 
L 58.015625 17.1875 
L 47.609375 17.1875 
L 47.609375 0 
L 37.796875 0 
L 37.796875 17.1875 
L 4.890625 17.1875 
L 4.890625 26.703125 
z
" id="DejaVuSans-52"/>
      </defs>
      <g transform="translate(20.878125 129.18655)scale(0.08 -0.08)">
       <use xlink:href="#DejaVuSans-48"/>
       <use x="63.623047" xlink:href="#DejaVuSans-46"/>
       <use x="95.410156" xlink:href="#DejaVuSans-52"/>
      </g>
     </g>
    </g>
    <g id="ytick_6">
     <g id="line2d_6">
      <path clip-path="url(#p763406636f)" d="M 40.600625 89.186454 
L 993.140625 89.186454 
" style="fill:none;stroke:#dedede;stroke-linecap:square;"/>
     </g>
     <g id="text_13">
      <!-- 0.5 -->
      <g transform="translate(20.878125 92.225829)scale(0.08 -0.08)">
       <use xlink:href="#DejaVuSans-48"/>
       <use x="63.623047" xlink:href="#DejaVuSans-46"/>
       <use x="95.410156" xlink:href="#DejaVuSans-53"/>
      </g>
     </g>
    </g>
    <g id="ytick_7">
     <g id="line2d_7">
      <path clip-path="url(#p763406636f)" d="M 40.600625 52.225732 
L 993.140625 52.225732 
" style="fill:none;stroke:#dedede;stroke-linecap:square;"/>
     </g>
     <g id="text_14">
      <!-- 0.6 -->
      <defs>
       <path d="M 33.015625 40.375 
Q 26.375 40.375 22.484375 35.828125 
Q 18.609375 31.296875 18.609375 23.390625 
Q 18.609375 15.53125 22.484375 10.953125 
Q 26.375 6.390625 33.015625 6.390625 
Q 39.65625 6.390625 43.53125 10.953125 
Q 47.40625 15.53125 47.40625 23.390625 
Q 47.40625 31.296875 43.53125 35.828125 
Q 39.65625 40.375 33.015625 40.375 
z
M 52.59375 71.296875 
L 52.59375 62.3125 
Q 48.875 64.0625 45.09375 64.984375 
Q 41.3125 65.921875 37.59375 65.921875 
Q 27.828125 65.921875 22.671875 59.328125 
Q 17.53125 52.734375 16.796875 39.40625 
Q 19.671875 43.65625 24.015625 45.921875 
Q 28.375 48.1875 33.59375 48.1875 
Q 44.578125 48.1875 50.953125 41.515625 
Q 57.328125 34.859375 57.328125 23.390625 
Q 57.328125 12.15625 50.6875 5.359375 
Q 44.046875 -1.421875 33.015625 -1.421875 
Q 20.359375 -1.421875 13.671875 8.265625 
Q 6.984375 17.96875 6.984375 36.375 
Q 6.984375 53.65625 15.1875 63.9375 
Q 23.390625 74.21875 37.203125 74.21875 
Q 40.921875 74.21875 44.703125 73.484375 
Q 48.484375 72.75 52.59375 71.296875 
z
" id="DejaVuSans-54"/>
      </defs>
      <g transform="translate(20.878125 55.265107)scale(0.08 -0.08)">
       <use xlink:href="#DejaVuSans-48"/>
       <use x="63.623047" xlink:href="#DejaVuSans-46"/>
       <use x="95.410156" xlink:href="#DejaVuSans-54"/>
      </g>
     </g>
    </g>
    <g id="text_15">
     <!-- Read percent -->
     <defs>
      <path d="M 44.390625 34.1875 
Q 47.5625 33.109375 50.5625 29.59375 
Q 53.5625 26.078125 56.59375 19.921875 
L 66.609375 0 
L 56 0 
L 46.6875 18.703125 
Q 43.0625 26.03125 39.671875 28.421875 
Q 36.28125 30.8125 30.421875 30.8125 
L 19.671875 30.8125 
L 19.671875 0 
L 9.8125 0 
L 9.8125 72.90625 
L 32.078125 72.90625 
Q 44.578125 72.90625 50.734375 67.671875 
Q 56.890625 62.453125 56.890625 51.90625 
Q 56.890625 45.015625 53.6875 40.46875 
Q 50.484375 35.9375 44.390625 34.1875 
z
M 19.671875 64.796875 
L 19.671875 38.921875 
L 32.078125 38.921875 
Q 39.203125 38.921875 42.84375 42.21875 
Q 46.484375 45.515625 46.484375 51.90625 
Q 46.484375 58.296875 42.84375 61.546875 
Q 39.203125 64.796875 32.078125 64.796875 
z
" id="DejaVuSans-82"/>
      <path d="M 34.28125 27.484375 
Q 23.390625 27.484375 19.1875 25 
Q 14.984375 22.515625 14.984375 16.5 
Q 14.984375 11.71875 18.140625 8.90625 
Q 21.296875 6.109375 26.703125 6.109375 
Q 34.1875 6.109375 38.703125 11.40625 
Q 43.21875 16.703125 43.21875 25.484375 
L 43.21875 27.484375 
z
M 52.203125 31.203125 
L 52.203125 0 
L 43.21875 0 
L 43.21875 8.296875 
Q 40.140625 3.328125 35.546875 0.953125 
Q 30.953125 -1.421875 24.3125 -1.421875 
Q 15.921875 -1.421875 10.953125 3.296875 
Q 6 8.015625 6 15.921875 
Q 6 25.140625 12.171875 29.828125 
Q 18.359375 34.515625 30.609375 34.515625 
L 43.21875 34.515625 
L 43.21875 35.40625 
Q 43.21875 41.609375 39.140625 45 
Q 35.0625 48.390625 27.6875 48.390625 
Q 23 48.390625 18.546875 47.265625 
Q 14.109375 46.140625 10.015625 43.890625 
L 10.015625 52.203125 
Q 14.9375 54.109375 19.578125 55.046875 
Q 24.21875 56 28.609375 56 
Q 40.484375 56 46.34375 49.84375 
Q 52.203125 43.703125 52.203125 31.203125 
z
" id="DejaVuSans-97"/>
      <path d="M 45.40625 46.390625 
L 45.40625 75.984375 
L 54.390625 75.984375 
L 54.390625 0 
L 45.40625 0 
L 45.40625 8.203125 
Q 42.578125 3.328125 38.25 0.953125 
Q 33.9375 -1.421875 27.875 -1.421875 
Q 17.96875 -1.421875 11.734375 6.484375 
Q 5.515625 14.40625 5.515625 27.296875 
Q 5.515625 40.1875 11.734375 48.09375 
Q 17.96875 56 27.875 56 
Q 33.9375 56 38.25 53.625 
Q 42.578125 51.265625 45.40625 46.390625 
z
M 14.796875 27.296875 
Q 14.796875 17.390625 18.875 11.75 
Q 22.953125 6.109375 30.078125 6.109375 
Q 37.203125 6.109375 41.296875 11.75 
Q 45.40625 17.390625 45.40625 27.296875 
Q 45.40625 37.203125 41.296875 42.84375 
Q 37.203125 48.484375 30.078125 48.484375 
Q 22.953125 48.484375 18.875 42.84375 
Q 14.796875 37.203125 14.796875 27.296875 
z
" id="DejaVuSans-100"/>
      <path d="M 18.109375 8.203125 
L 18.109375 -20.796875 
L 9.078125 -20.796875 
L 9.078125 54.6875 
L 18.109375 54.6875 
L 18.109375 46.390625 
Q 20.953125 51.265625 25.265625 53.625 
Q 29.59375 56 35.59375 56 
Q 45.5625 56 51.78125 48.09375 
Q 58.015625 40.1875 58.015625 27.296875 
Q 58.015625 14.40625 51.78125 6.484375 
Q 45.5625 -1.421875 35.59375 -1.421875 
Q 29.59375 -1.421875 25.265625 0.953125 
Q 20.953125 3.328125 18.109375 8.203125 
z
M 48.6875 27.296875 
Q 48.6875 37.203125 44.609375 42.84375 
Q 40.53125 48.484375 33.40625 48.484375 
Q 26.265625 48.484375 22.1875 42.84375 
Q 18.109375 37.203125 18.109375 27.296875 
Q 18.109375 17.390625 22.1875 11.75 
Q 26.265625 6.109375 33.40625 6.109375 
Q 40.53125 6.109375 44.609375 11.75 
Q 48.6875 17.390625 48.6875 27.296875 
z
" id="DejaVuSans-112"/>
      <path d="M 48.78125 52.59375 
L 48.78125 44.1875 
Q 44.96875 46.296875 41.140625 47.34375 
Q 37.3125 48.390625 33.40625 48.390625 
Q 24.65625 48.390625 19.8125 42.84375 
Q 14.984375 37.3125 14.984375 27.296875 
Q 14.984375 17.28125 19.8125 11.734375 
Q 24.65625 6.203125 33.40625 6.203125 
Q 37.3125 6.203125 41.140625 7.25 
Q 44.96875 8.296875 48.78125 10.40625 
L 48.78125 2.09375 
Q 45.015625 0.34375 40.984375 -0.53125 
Q 36.96875 -1.421875 32.421875 -1.421875 
Q 20.0625 -1.421875 12.78125 6.34375 
Q 5.515625 14.109375 5.515625 27.296875 
Q 5.515625 40.671875 12.859375 48.328125 
Q 20.21875 56 33.015625 56 
Q 37.15625 56 41.109375 55.140625 
Q 45.0625 54.296875 48.78125 52.59375 
z
" id="DejaVuSans-99"/>
     </defs>
     <g transform="translate(14.798438 186.370835)rotate(-90)scale(0.1 -0.1)">
      <use xlink:href="#DejaVuSans-82"/>
      <use x="69.419922" xlink:href="#DejaVuSans-101"/>
      <use x="130.943359" xlink:href="#DejaVuSans-97"/>
      <use x="192.222656" xlink:href="#DejaVuSans-100"/>
      <use x="255.699219" xlink:href="#DejaVuSans-32"/>
      <use x="287.486328" xlink:href="#DejaVuSans-112"/>
      <use x="350.962891" xlink:href="#DejaVuSans-101"/>
      <use x="412.486328" xlink:href="#DejaVuSans-114"/>
      <use x="453.568359" xlink:href="#DejaVuSans-99"/>
      <use x="508.548828" xlink:href="#DejaVuSans-101"/>
      <use x="570.072266" xlink:href="#DejaVuSans-110"/>
      <use x="633.451172" xlink:href="#DejaVuSans-116"/>
     </g>
    </g>
   </g>
   <g id="line2d_8">
    <path clip-path="url(#p763406636f)" d="M 83.897898 273.983001 
L 112.87005 273.99006 
L 180.47174 273.99006 
L 183.690868 226.751604 
L 186.909996 217.917335 
L 190.129124 210.148967 
L 193.348253 195.131062 
L 196.567381 186.070907 
L 199.786509 172.358908 
L 203.005637 163.799937 
L 206.224765 151.090308 
L 209.443893 146.300814 
L 212.663021 135.458275 
L 215.882149 131.251145 
L 219.101277 121.820395 
L 222.320405 116.90384 
L 225.539533 108.175455 
L 228.758661 106.057772 
L 231.97779 99.288244 
L 235.196918 98.225873 
L 238.416046 93.778738 
L 241.635174 94.989347 
L 244.854302 90.598684 
L 248.07343 91.766939 
L 251.292558 85.092707 
L 254.511686 85.456243 
L 257.730814 82.184422 
L 260.949942 81.962065 
L 264.16907 79.290255 
L 267.388199 79.304373 
L 270.607327 76.463147 
L 273.826455 76.007845 
L 277.045583 72.877204 
L 280.264711 74.338405 
L 283.483839 70.981877 
L 286.702967 71.521886 
L 289.922095 69.954801 
L 293.141223 68.239477 
L 296.360351 66.877101 
L 299.579479 69.379497 
L 302.798607 66.262973 
L 306.017736 67.883 
L 309.236864 66.199442 
L 312.455992 67.625349 
L 315.67512 65.391193 
L 318.894248 66.1465 
L 322.113376 65.147659 
L 325.332504 67.410051 
L 328.551632 63.121742 
L 331.77076 65.924143 
L 334.989888 63.573515 
L 338.209016 65.910025 
L 341.428144 64.692358 
L 344.647273 65.581785 
L 347.866401 63.929992 
L 351.085529 65.991203 
L 354.304657 65.458253 
L 357.523785 66.337092 
L 360.742913 62.814678 
L 363.962041 65.627668 
L 370.400297 65.137071 
L 376.838553 64.600591 
L 380.057681 65.539431 
L 383.27681 65.359428 
L 386.495938 67.025339 
L 389.715066 67.124164 
L 392.934194 66.178265 
L 396.153322 66.245325 
L 399.37245 66.834747 
L 402.591578 68.511246 
L 405.810706 68.105357 
L 409.029834 67.307696 
L 412.248962 67.621819 
L 415.46809 69.107727 
L 418.687218 68.380656 
L 421.906347 69.065374 
L 425.125475 68.977137 
L 428.344603 70.501869 
L 431.563731 70.967759 
L 434.782859 70.261865 
L 438.001987 71.426591 
L 441.221115 73.251328 
L 444.440243 71.147762 
L 447.659371 72.545433 
L 450.878499 71.663065 
L 454.097627 73.007794 
L 457.316755 71.401884 
L 463.755012 74.804295 
L 466.97414 73.653687 
L 470.193268 74.617233 
L 473.412396 76.194907 
L 476.631524 74.490172 
L 479.850652 76.551384 
L 483.06978 76.681975 
L 486.288908 75.859608 
L 489.508036 77.903172 
L 492.727164 76.152554 
L 495.946292 76.060788 
L 499.165421 76.283144 
L 502.384549 78.192589 
L 505.603677 79.180841 
L 508.822805 76.727858 
L 512.041933 78.965543 
L 515.261061 79.844382 
L 518.480189 82.985612 
L 521.699317 81.2597 
L 524.918445 82.629135 
L 528.137573 81.757356 
L 531.356701 82.286777 
L 534.575829 82.311483 
L 537.794958 81.566764 
L 541.014086 83.423267 
L 544.233214 81.72559 
L 547.452342 78.757304 
L 550.67147 82.290306 
L 553.890598 81.566764 
L 557.109726 77.765523 
L 560.328854 82.212658 
L 563.547982 81.280877 
L 566.76711 71.603064 
L 569.986238 46.42028 
L 573.205366 76.840801 
L 576.424495 80.493805 
L 579.643623 82.089126 
L 582.862751 83.204439 
L 586.081879 82.971494 
L 589.301007 84.030336 
L 592.520135 86.250374 
L 595.739263 88.639827 
L 598.958391 87.189213 
L 602.177519 89.130423 
L 605.396647 89.144541 
L 608.615775 90.68692 
L 611.834903 90.365738 
L 615.054032 91.657525 
L 618.27316 93.623441 
L 621.492288 92.984607 
L 624.711416 94.985818 
L 627.930544 97.44586 
L 631.149672 98.868237 
L 634.3688 98.787059 
L 640.807056 101.434163 
L 644.026184 101.998879 
L 647.245312 105.034225 
L 650.46444 105.750708 
L 653.683569 105.824827 
L 656.902697 109.67901 
L 660.121825 108.722523 
L 663.340953 112.227289 
L 666.560081 113.815552 
L 672.998337 115.844998 
L 676.217465 117.63797 
L 679.436593 118.739166 
L 682.655721 120.920379 
L 685.874849 123.673368 
L 689.093977 123.765134 
L 692.313106 125.921642 
L 695.532234 129.07699 
L 698.751362 129.405231 
L 701.97049 130.354659 
L 711.627874 136.252407 
L 714.847002 138.260676 
L 718.06613 140.907781 
L 721.285258 142.492514 
L 724.504386 143.028993 
L 727.723514 145.270208 
L 730.942643 146.752587 
L 734.161771 148.047903 
L 737.380899 149.73852 
L 740.600027 151.175015 
L 743.819155 154.005652 
L 747.038283 155.855095 
L 750.257411 158.551612 
L 753.476539 157.679833 
L 756.695667 159.419862 
L 759.914795 162.197557 
L 763.133923 163.6517 
L 766.353051 165.861149 
L 769.57218 166.079976 
L 776.010436 171.451833 
L 779.229564 170.491817 
L 782.448692 174.229528 
L 785.66782 174.794243 
L 788.886948 176.244856 
L 792.106076 178.284891 
L 795.325204 179.477853 
L 798.544332 181.937895 
L 801.76346 182.813204 
L 811.420845 186.152085 
L 814.639973 188.746247 
L 817.859101 188.442712 
L 821.078229 191.425116 
L 824.297357 193.549859 
L 827.516485 193.458092 
L 833.954741 196.849915 
L 837.173869 197.322865 
L 840.392997 197.55228 
L 843.612126 198.575827 
L 846.831254 200.153501 
L 850.050382 201.593526 
L 853.26951 202.818253 
L 856.488638 202.761781 
L 859.707766 204.335926 
L 862.926894 204.30769 
L 866.146022 205.027702 
L 869.36515 206.711261 
L 872.584278 206.464198 
L 875.803406 208.020695 
L 879.022534 206.940676 
L 882.241663 206.668907 
L 885.460791 206.675966 
L 888.679919 206.859498 
L 891.899047 206.263018 
L 895.118175 206.495963 
L 898.337303 204.830052 
L 904.775559 204.332396 
L 907.994687 204.265336 
L 911.213815 203.400616 
L 914.432943 201.409993 
L 917.652071 201.113518 
L 920.8712 199.984087 
L 924.090328 200.555861 
L 927.309456 198.798184 
L 930.528584 198.307587 
L 933.747712 197.668753 
L 936.96684 198.618181 
L 940.185968 200.301739 
L 943.405096 203.57003 
L 946.624224 210.52662 
L 949.843352 224.460976 
L 949.843352 224.460976 
" style="fill:none;stroke:#7cb5ec;stroke-linecap:square;"/>
   </g>
   <g id="line2d_9">
    <path clip-path="url(#p763406636f)" d="M 83.897898 273.977911 
L 141.842203 273.99006 
L 180.47174 273.99006 
L 183.690868 233.945178 
L 186.909996 226.183234 
L 190.129124 217.711241 
L 193.348253 206.786473 
L 196.567381 196.612252 
L 199.786509 183.927211 
L 203.005637 176.641782 
L 206.224765 165.996445 
L 209.443893 159.098439 
L 212.663021 148.443652 
L 215.882149 143.393664 
L 219.101277 132.788823 
L 222.320405 129.171082 
L 225.539533 119.615117 
L 228.758661 117.214989 
L 231.97779 108.865837 
L 235.196918 109.052123 
L 238.416046 103.188143 
L 241.635174 103.93599 
L 244.854302 100.620627 
L 248.07343 98.934598 
L 251.292558 93.985853 
L 254.511686 94.398923 
L 257.730814 88.980411 
L 260.949942 89.362434 
L 264.16907 85.800039 
L 267.388199 86.350799 
L 270.607327 81.858321 
L 273.826455 82.832951 
L 277.045583 78.911482 
L 280.264711 80.810796 
L 283.483839 77.661472 
L 286.702967 78.038095 
L 289.922095 74.724082 
L 293.141223 76.531603 
L 296.360351 73.962737 
L 299.579479 75.960594 
L 302.798607 73.065051 
L 306.017736 75.081807 
L 309.236864 72.10257 
L 312.455992 73.544267 
L 315.67512 71.299377 
L 318.894248 73.389028 
L 322.113376 71.412769 
L 325.332504 73.07315 
L 328.551632 71.102292 
L 331.77076 72.857166 
L 334.989888 70.15196 
L 338.209016 71.998627 
L 341.428144 70.643324 
L 344.647273 70.70407 
L 347.866401 67.842275 
L 351.085529 68.818255 
L 354.304657 68.372787 
L 357.523785 69.092286 
L 360.742913 68.618469 
L 363.962041 69.270473 
L 367.181169 70.380093 
L 370.400297 70.779665 
L 376.838553 70.910605 
L 380.057681 71.600406 
L 383.27681 70.613627 
L 386.495938 72.359052 
L 389.715066 73.22299 
L 392.934194 72.132268 
L 396.153322 74.529696 
L 399.37245 72.815319 
L 402.591578 74.632289 
L 405.810706 74.174671 
L 409.029834 75.268093 
L 412.248962 76.092884 
L 415.46809 76.105033 
L 418.687218 76.690891 
L 421.906347 77.892305 
L 425.125475 77.283499 
L 431.563731 79.028924 
L 438.001987 79.886112 
L 441.221115 81.553243 
L 444.440243 81.758428 
L 447.659371 82.766806 
L 450.878499 81.491147 
L 454.097627 83.529501 
L 457.316755 83.526802 
L 460.535884 84.779512 
L 463.755012 84.563527 
L 470.193268 86.561384 
L 473.412396 87.029801 
L 476.631524 87.149942 
L 479.850652 88.131322 
L 483.06978 88.987161 
L 486.288908 90.200724 
L 489.508036 89.201795 
L 492.727164 91.78146 
L 495.946292 90.068433 
L 499.165421 92.044692 
L 502.384549 91.607323 
L 505.603677 92.284974 
L 508.822805 92.224229 
L 512.041933 95.241263 
L 515.261061 93.532285 
L 518.480189 95.343855 
L 521.699317 94.567661 
L 524.918445 96.338734 
L 528.137573 97.249919 
L 531.356701 97.013686 
L 534.575829 97.580645 
L 537.794958 97.766932 
L 541.014086 97.753433 
L 544.233214 98.277195 
L 547.452342 95.97831 
L 550.67147 97.448355 
L 553.890598 97.307965 
L 557.109726 95.176467 
L 560.328854 96.510172 
L 563.547982 93.385146 
L 566.76711 79.768671 
L 569.986238 56.354598 
L 573.205366 92.49151 
L 576.424495 93.925107 
L 582.862751 99.137084 
L 589.301007 101.649254 
L 592.520135 102.274259 
L 598.958391 104.558295 
L 602.177519 105.308842 
L 605.396647 106.653345 
L 608.615775 106.72354 
L 611.834903 106.936825 
L 615.054032 109.615033 
L 618.27316 110.468172 
L 621.492288 110.941988 
L 624.711416 111.587242 
L 631.149672 114.524631 
L 634.3688 116.284905 
L 637.587928 116.283555 
L 640.807056 117.324331 
L 644.026184 118.652636 
L 647.245312 120.986619 
L 650.46444 122.607853 
L 653.683569 123.050621 
L 656.902697 124.32358 
L 660.121825 125.117323 
L 666.560081 128.412437 
L 669.779209 130.496688 
L 672.998337 129.978325 
L 676.217465 131.804744 
L 679.436593 134.37631 
L 682.655721 136.112285 
L 685.874849 136.024542 
L 689.093977 137.516185 
L 692.313106 138.640654 
L 695.532234 141.499749 
L 698.751362 143.420662 
L 701.97049 143.72979 
L 705.189618 144.545131 
L 708.408746 145.947681 
L 714.847002 149.757108 
L 718.06613 151.844059 
L 721.285258 152.347572 
L 724.504386 154.260385 
L 727.723514 155.073027 
L 730.942643 155.693983 
L 734.161771 158.230451 
L 737.380899 159.50476 
L 740.600027 160.125715 
L 743.819155 162.29636 
L 747.038283 162.942964 
L 750.257411 163.702959 
L 753.476539 165.440285 
L 756.695667 166.659247 
L 759.914795 168.963532 
L 763.133923 169.948962 
L 766.353051 170.324235 
L 769.57218 171.772681 
L 772.791308 172.49218 
L 776.010436 174.365845 
L 779.229564 175.00435 
L 782.448692 176.795671 
L 785.66782 178.406106 
L 788.886948 178.663938 
L 792.106076 180.262223 
L 795.325204 180.5862 
L 798.544332 181.27735 
L 801.76346 182.430168 
L 804.982589 182.96068 
L 808.201717 185.026032 
L 811.420845 185.301412 
L 817.859101 186.772807 
L 821.078229 188.009318 
L 827.516485 188.699119 
L 830.735613 189.554958 
L 833.954741 190.140816 
L 837.173869 189.433466 
L 840.392997 190.320353 
L 843.612126 190.165114 
L 846.831254 189.849236 
L 850.050382 190.182663 
L 853.26951 188.878656 
L 856.488638 188.608675 
L 859.707766 187.628646 
L 862.926894 187.536852 
L 866.146022 186.803855 
L 869.36515 184.479321 
L 872.584278 183.678828 
L 879.022534 179.699313 
L 882.241663 177.260038 
L 885.460791 173.476259 
L 888.679919 169.882817 
L 891.899047 165.434885 
L 895.118175 159.743693 
L 904.775559 145.162037 
L 907.994687 138.821541 
L 911.213815 131.307979 
L 914.432943 124.357327 
L 917.652071 118.604039 
L 920.8712 109.786471 
L 924.090328 104.166823 
L 927.309456 96.630313 
L 930.528584 89.922644 
L 933.747712 83.911524 
L 936.96684 80.326181 
L 940.185968 77.832909 
L 943.405096 80.646108 
L 946.624224 93.119215 
L 949.843352 127.615994 
L 949.843352 127.615994 
" style="fill:none;stroke:#434348;stroke-linecap:square;"/>
   </g>
   <g id="line2d_10">
    <path clip-path="url(#p763406636f)" d="M 83.897898 273.99006 
L 90.336154 273.99006 
L 180.47174 273.99006 
L 183.690868 229.862112 
L 186.909996 220.808115 
L 190.129124 213.290554 
L 193.348253 201.143107 
L 196.567381 190.230297 
L 199.786509 176.470965 
L 203.005637 167.633029 
L 206.224765 156.061746 
L 209.443893 150.828261 
L 212.663021 138.26584 
L 215.882149 134.078367 
L 219.101277 123.443349 
L 222.320405 121.124977 
L 225.539533 109.251895 
L 228.758661 107.228464 
L 231.97779 98.640884 
L 235.196918 99.374807 
L 238.416046 93.969845 
L 241.635174 93.764072 
L 248.07343 89.459994 
L 251.292558 85.155916 
L 254.511686 85.697784 
L 257.730814 80.45744 
L 260.949942 79.720088 
L 264.16907 75.632071 
L 267.388199 78.783822 
L 270.607327 75.975025 
L 273.826455 76.043616 
L 277.045583 71.684665 
L 280.264711 72.620931 
L 283.483839 69.095359 
L 286.702967 71.266261 
L 289.922095 66.711826 
L 293.141223 68.814137 
L 296.360351 63.464047 
L 299.579479 69.6921 
L 302.798607 64.379736 
L 306.017736 66.711826 
L 309.236864 65.336579 
L 312.455992 66.447751 
L 315.67512 64.42432 
L 318.894248 66.389449 
L 322.113376 63.29257 
L 325.332504 65.02792 
L 331.77076 63.686968 
L 334.989888 63.782995 
L 338.209016 66.526631 
L 341.428144 64.057359 
L 344.647273 64.335152 
L 347.866401 65.007342 
L 351.085529 65.089651 
L 354.304657 63.601229 
L 357.523785 64.016204 
L 360.742913 65.291995 
L 363.962041 66.399737 
L 367.181169 63.206832 
L 370.400297 65.117088 
L 373.619425 66.362012 
L 376.838553 66.334576 
L 380.057681 63.584081 
L 383.27681 66.334576 
L 386.495938 66.790706 
L 389.715066 68.934171 
L 392.934194 67.58636 
L 396.153322 69.181098 
L 399.37245 67.212539 
L 402.591578 69.249689 
L 405.810706 67.565783 
L 409.029834 69.301132 
L 412.248962 69.037057 
L 415.46809 70.563204 
L 418.687218 70.179095 
L 421.906347 69.572066 
L 425.125475 70.758688 
L 428.344603 72.120218 
L 431.563731 70.82385 
L 434.782859 72.494038 
L 438.001987 72.247111 
L 441.221115 73.594922 
L 444.440243 73.018758 
L 447.659371 73.917299 
L 450.878499 71.996754 
L 454.097627 75.580628 
L 457.316755 75.254821 
L 463.755012 75.278828 
L 466.97414 76.050475 
L 470.193268 75.083344 
L 473.412396 76.630068 
L 476.631524 76.434584 
L 479.850652 77.689798 
L 483.06978 75.971596 
L 486.288908 77.034755 
L 489.508036 76.61635 
L 492.727164 76.99703 
L 495.946292 78.842125 
L 499.165421 78.581479 
L 502.384549 79.637779 
L 505.603677 79.833263 
L 508.822805 78.763245 
L 512.041933 80.851838 
L 515.261061 78.900427 
L 518.480189 81.911567 
L 521.699317 81.235947 
L 524.918445 82.107051 
L 528.137573 81.030174 
L 531.356701 81.016456 
L 534.575829 82.137917 
L 537.794958 79.428577 
L 541.014086 80.217372 
L 544.233214 80.416285 
L 547.452342 80.011599 
L 553.890598 81.198222 
L 557.109726 79.569188 
L 560.328854 80.282533 
L 563.547982 80.467729 
L 566.76711 66.097938 
L 569.986238 43.030822 
L 573.205366 75.388573 
L 576.424495 76.441443 
L 579.643623 81.311397 
L 582.862751 81.88756 
L 586.081879 83.255948 
L 589.301007 82.978155 
L 592.520135 85.323963 
L 595.739263 82.765523 
L 598.958391 86.304813 
L 602.177519 87.271945 
L 605.396647 87.289092 
L 608.615775 87.724645 
L 611.834903 90.183628 
L 615.054032 89.71721 
L 618.27316 90.61575 
L 621.492288 91.164478 
L 624.711416 94.223631 
L 627.930544 94.443122 
L 631.149672 96.04129 
L 634.3688 95.842376 
L 637.587928 97.76978 
L 640.807056 97.704619 
L 644.026184 98.479696 
L 647.245312 102.650022 
L 650.46444 101.902381 
L 653.683569 103.03756 
L 656.902697 106.443098 
L 660.121825 106.357359 
L 663.340953 108.586563 
L 666.560081 110.637431 
L 669.779209 110.79176 
L 672.998337 112.729453 
L 676.217465 113.463375 
L 679.436593 117.023242 
L 682.655721 118.024669 
L 685.874849 118.69343 
L 689.093977 121.512516 
L 692.313106 123.865183 
L 695.532234 124.523656 
L 698.751362 127.812589 
L 701.97049 129.678261 
L 705.189618 132.185258 
L 708.408746 130.960911 
L 711.627874 134.939182 
L 714.847002 135.779421 
L 718.06613 137.51477 
L 721.285258 139.826283 
L 724.504386 140.364722 
L 727.723514 143.814843 
L 730.942643 144.829988 
L 734.161771 145.039191 
L 737.380899 148.499601 
L 740.600027 150.560757 
L 743.819155 151.308398 
L 747.038283 153.530742 
L 750.257411 155.416992 
L 753.476539 158.092037 
L 756.695667 158.74708 
L 759.914795 161.182056 
L 763.133923 162.704774 
L 766.353051 165.3661 
L 769.57218 166.202909 
L 772.791308 168.00342 
L 776.010436 169.515849 
L 779.229564 170.853371 
L 782.448692 172.345223 
L 785.66782 174.132016 
L 788.886948 177.160303 
L 792.106076 177.757044 
L 795.325204 180.521257 
L 798.544332 179.759898 
L 801.76346 182.60642 
L 804.982589 184.166863 
L 808.201717 185.929648 
L 811.420845 188.0251 
L 814.639973 188.909923 
L 817.859101 189.222011 
L 821.078229 191.351758 
L 824.297357 192.195426 
L 827.516485 193.776446 
L 830.735613 194.626973 
L 833.954741 196.180557 
L 837.173869 196.15655 
L 840.392997 198.86589 
L 843.612126 200.357742 
L 846.831254 201.187691 
L 850.050382 201.136248 
L 853.26951 203.176827 
L 856.488638 203.581513 
L 859.707766 205.179681 
L 862.926894 205.587797 
L 866.146022 205.735267 
L 869.36515 206.911601 
L 872.584278 207.011058 
L 875.803406 207.676389 
L 879.022534 209.209396 
L 882.241663 209.09965 
L 885.460791 208.259412 
L 888.679919 208.060498 
L 895.118175 207.991908 
L 898.337303 207.330005 
L 901.556431 207.645524 
L 904.775559 207.22369 
L 907.994687 206.482908 
L 911.213815 205.104231 
L 914.432943 206.311431 
L 917.652071 205.382024 
L 920.8712 204.774995 
L 924.090328 203.190545 
L 927.309456 204.037643 
L 930.528584 204.66182 
L 933.747712 204.867593 
L 936.96684 204.949902 
L 940.185968 206.438324 
L 943.405096 209.93303 
L 946.624224 217.217382 
L 949.843352 229.742078 
L 949.843352 229.742078 
" style="fill:none;stroke:#90ed7d;stroke-linecap:square;"/>
   </g>
   <g id="line2d_11">
    <path clip-path="url(#p763406636f)" d="M 40.600625 273.99006 
L 993.140625 273.99006 
" style="fill:none;stroke:#dedede;stroke-linecap:square;stroke-width:2;"/>
   </g>
   <g id="text_16">
    <!-- Fastp: Insert Size Distribution -->
    <defs>
     <path d="M 9.8125 72.90625 
L 51.703125 72.90625 
L 51.703125 64.59375 
L 19.671875 64.59375 
L 19.671875 43.109375 
L 48.578125 43.109375 
L 48.578125 34.8125 
L 19.671875 34.8125 
L 19.671875 0 
L 9.8125 0 
z
" id="DejaVuSans-70"/>
     <path d="M 11.71875 12.40625 
L 22.015625 12.40625 
L 22.015625 0 
L 11.71875 0 
z
M 11.71875 51.703125 
L 22.015625 51.703125 
L 22.015625 39.3125 
L 11.71875 39.3125 
z
" id="DejaVuSans-58"/>
     <path d="M 53.515625 70.515625 
L 53.515625 60.890625 
Q 47.90625 63.578125 42.921875 64.890625 
Q 37.9375 66.21875 33.296875 66.21875 
Q 25.25 66.21875 20.875 63.09375 
Q 16.5 59.96875 16.5 54.203125 
Q 16.5 49.359375 19.40625 46.890625 
Q 22.3125 44.4375 30.421875 42.921875 
L 36.375 41.703125 
Q 47.40625 39.59375 52.65625 34.296875 
Q 57.90625 29 57.90625 20.125 
Q 57.90625 9.515625 50.796875 4.046875 
Q 43.703125 -1.421875 29.984375 -1.421875 
Q 24.8125 -1.421875 18.96875 -0.25 
Q 13.140625 0.921875 6.890625 3.21875 
L 6.890625 13.375 
Q 12.890625 10.015625 18.65625 8.296875 
Q 24.421875 6.59375 29.984375 6.59375 
Q 38.421875 6.59375 43.015625 9.90625 
Q 47.609375 13.234375 47.609375 19.390625 
Q 47.609375 24.75 44.3125 27.78125 
Q 41.015625 30.8125 33.5 32.328125 
L 27.484375 33.5 
Q 16.453125 35.6875 11.515625 40.375 
Q 6.59375 45.0625 6.59375 53.421875 
Q 6.59375 63.09375 13.40625 68.65625 
Q 20.21875 74.21875 32.171875 74.21875 
Q 37.3125 74.21875 42.625 73.28125 
Q 47.953125 72.359375 53.515625 70.515625 
z
" id="DejaVuSans-83"/>
     <path d="M 19.671875 64.796875 
L 19.671875 8.109375 
L 31.59375 8.109375 
Q 46.6875 8.109375 53.6875 14.9375 
Q 60.6875 21.78125 60.6875 36.53125 
Q 60.6875 51.171875 53.6875 57.984375 
Q 46.6875 64.796875 31.59375 64.796875 
z
M 9.8125 72.90625 
L 30.078125 72.90625 
Q 51.265625 72.90625 61.171875 64.09375 
Q 71.09375 55.28125 71.09375 36.53125 
Q 71.09375 17.671875 61.125 8.828125 
Q 51.171875 0 30.078125 0 
L 9.8125 0 
z
" id="DejaVuSans-68"/>
     <path d="M 48.6875 27.296875 
Q 48.6875 37.203125 44.609375 42.84375 
Q 40.53125 48.484375 33.40625 48.484375 
Q 26.265625 48.484375 22.1875 42.84375 
Q 18.109375 37.203125 18.109375 27.296875 
Q 18.109375 17.390625 22.1875 11.75 
Q 26.265625 6.109375 33.40625 6.109375 
Q 40.53125 6.109375 44.609375 11.75 
Q 48.6875 17.390625 48.6875 27.296875 
z
M 18.109375 46.390625 
Q 20.953125 51.265625 25.265625 53.625 
Q 29.59375 56 35.59375 56 
Q 45.5625 56 51.78125 48.09375 
Q 58.015625 40.1875 58.015625 27.296875 
Q 58.015625 14.40625 51.78125 6.484375 
Q 45.5625 -1.421875 35.59375 -1.421875 
Q 29.59375 -1.421875 25.265625 0.953125 
Q 20.953125 3.328125 18.109375 8.203125 
L 18.109375 0 
L 9.078125 0 
L 9.078125 75.984375 
L 18.109375 75.984375 
z
" id="DejaVuSans-98"/>
     <path d="M 8.5 21.578125 
L 8.5 54.6875 
L 17.484375 54.6875 
L 17.484375 21.921875 
Q 17.484375 14.15625 20.5 10.265625 
Q 23.53125 6.390625 29.59375 6.390625 
Q 36.859375 6.390625 41.078125 11.03125 
Q 45.3125 15.671875 45.3125 23.6875 
L 45.3125 54.6875 
L 54.296875 54.6875 
L 54.296875 0 
L 45.3125 0 
L 45.3125 8.40625 
Q 42.046875 3.421875 37.71875 1 
Q 33.40625 -1.421875 27.6875 -1.421875 
Q 18.265625 -1.421875 13.375 4.4375 
Q 8.5 10.296875 8.5 21.578125 
z
M 31.109375 56 
z
" id="DejaVuSans-117"/>
     <path d="M 30.609375 48.390625 
Q 23.390625 48.390625 19.1875 42.75 
Q 14.984375 37.109375 14.984375 27.296875 
Q 14.984375 17.484375 19.15625 11.84375 
Q 23.34375 6.203125 30.609375 6.203125 
Q 37.796875 6.203125 41.984375 11.859375 
Q 46.1875 17.53125 46.1875 27.296875 
Q 46.1875 37.015625 41.984375 42.703125 
Q 37.796875 48.390625 30.609375 48.390625 
z
M 30.609375 56 
Q 42.328125 56 49.015625 48.375 
Q 55.71875 40.765625 55.71875 27.296875 
Q 55.71875 13.875 49.015625 6.21875 
Q 42.328125 -1.421875 30.609375 -1.421875 
Q 18.84375 -1.421875 12.171875 6.21875 
Q 5.515625 13.875 5.515625 27.296875 
Q 5.515625 40.765625 12.171875 48.375 
Q 18.84375 56 30.609375 56 
z
" id="DejaVuSans-111"/>
    </defs>
    <g transform="translate(398.635625 19.3575)scale(0.16 -0.16)">
     <use xlink:href="#DejaVuSans-70"/>
     <use x="57.378906" xlink:href="#DejaVuSans-97"/>
     <use x="118.658203" xlink:href="#DejaVuSans-115"/>
     <use x="170.757812" xlink:href="#DejaVuSans-116"/>
     <use x="209.966797" xlink:href="#DejaVuSans-112"/>
     <use x="273.443359" xlink:href="#DejaVuSans-58"/>
     <use x="307.134766" xlink:href="#DejaVuSans-32"/>
     <use x="338.921875" xlink:href="#DejaVuSans-73"/>
     <use x="368.414062" xlink:href="#DejaVuSans-110"/>
     <use x="431.792969" xlink:href="#DejaVuSans-115"/>
     <use x="483.892578" xlink:href="#DejaVuSans-101"/>
     <use x="545.416016" xlink:href="#DejaVuSans-114"/>
     <use x="586.529297" xlink:href="#DejaVuSans-116"/>
     <use x="625.738281" xlink:href="#DejaVuSans-32"/>
     <use x="657.525391" xlink:href="#DejaVuSans-83"/>
     <use x="721.001953" xlink:href="#DejaVuSans-105"/>
     <use x="748.785156" xlink:href="#DejaVuSans-122"/>
     <use x="801.275391" xlink:href="#DejaVuSans-101"/>
     <use x="862.798828" xlink:href="#DejaVuSans-32"/>
     <use x="894.585938" xlink:href="#DejaVuSans-68"/>
     <use x="971.587891" xlink:href="#DejaVuSans-105"/>
     <use x="999.371094" xlink:href="#DejaVuSans-115"/>
     <use x="1051.470703" xlink:href="#DejaVuSans-116"/>
     <use x="1090.679688" xlink:href="#DejaVuSans-114"/>
     <use x="1131.792969" xlink:href="#DejaVuSans-105"/>
     <use x="1159.576172" xlink:href="#DejaVuSans-98"/>
     <use x="1223.052734" xlink:href="#DejaVuSans-117"/>
     <use x="1286.431641" xlink:href="#DejaVuSans-116"/>
     <use x="1325.640625" xlink:href="#DejaVuSans-105"/>
     <use x="1353.423828" xlink:href="#DejaVuSans-111"/>
     <use x="1414.605469" xlink:href="#DejaVuSans-110"/>
    </g>
   </g>
   <g id="legend_1">
    <g id="line2d_12">
     <path d="M 47.800625 315.455394 
L 63.800625 315.455394 
" style="fill:none;stroke:#7cb5ec;stroke-linecap:square;"/>
    </g>
    <g id="line2d_13"/>
    <g id="text_17">
     <!-- Sde-CMat_061-Ex1-7A-ssl -->
     <defs>
      <path d="M 4.890625 31.390625 
L 31.203125 31.390625 
L 31.203125 23.390625 
L 4.890625 23.390625 
z
" id="DejaVuSans-45"/>
      <path d="M 64.40625 67.28125 
L 64.40625 56.890625 
Q 59.421875 61.53125 53.78125 63.8125 
Q 48.140625 66.109375 41.796875 66.109375 
Q 29.296875 66.109375 22.65625 58.46875 
Q 16.015625 50.828125 16.015625 36.375 
Q 16.015625 21.96875 22.65625 14.328125 
Q 29.296875 6.6875 41.796875 6.6875 
Q 48.140625 6.6875 53.78125 8.984375 
Q 59.421875 11.28125 64.40625 15.921875 
L 64.40625 5.609375 
Q 59.234375 2.09375 53.4375 0.328125 
Q 47.65625 -1.421875 41.21875 -1.421875 
Q 24.65625 -1.421875 15.125 8.703125 
Q 5.609375 18.84375 5.609375 36.375 
Q 5.609375 53.953125 15.125 64.078125 
Q 24.65625 74.21875 41.21875 74.21875 
Q 47.75 74.21875 53.53125 72.484375 
Q 59.328125 70.75 64.40625 67.28125 
z
" id="DejaVuSans-67"/>
      <path d="M 9.8125 72.90625 
L 24.515625 72.90625 
L 43.109375 23.296875 
L 61.8125 72.90625 
L 76.515625 72.90625 
L 76.515625 0 
L 66.890625 0 
L 66.890625 64.015625 
L 48.09375 14.015625 
L 38.1875 14.015625 
L 19.390625 64.015625 
L 19.390625 0 
L 9.8125 0 
z
" id="DejaVuSans-77"/>
      <path d="M 50.984375 -16.609375 
L 50.984375 -23.578125 
L -0.984375 -23.578125 
L -0.984375 -16.609375 
z
" id="DejaVuSans-95"/>
      <path d="M 9.8125 72.90625 
L 55.90625 72.90625 
L 55.90625 64.59375 
L 19.671875 64.59375 
L 19.671875 43.015625 
L 54.390625 43.015625 
L 54.390625 34.71875 
L 19.671875 34.71875 
L 19.671875 8.296875 
L 56.78125 8.296875 
L 56.78125 0 
L 9.8125 0 
z
" id="DejaVuSans-69"/>
      <path d="M 54.890625 54.6875 
L 35.109375 28.078125 
L 55.90625 0 
L 45.3125 0 
L 29.390625 21.484375 
L 13.484375 0 
L 2.875 0 
L 24.125 28.609375 
L 4.6875 54.6875 
L 15.28125 54.6875 
L 29.78125 35.203125 
L 44.28125 54.6875 
z
" id="DejaVuSans-120"/>
      <path d="M 8.203125 72.90625 
L 55.078125 72.90625 
L 55.078125 68.703125 
L 28.609375 0 
L 18.3125 0 
L 43.21875 64.59375 
L 8.203125 64.59375 
z
" id="DejaVuSans-55"/>
      <path d="M 34.1875 63.1875 
L 20.796875 26.90625 
L 47.609375 26.90625 
z
M 28.609375 72.90625 
L 39.796875 72.90625 
L 67.578125 0 
L 57.328125 0 
L 50.6875 18.703125 
L 17.828125 18.703125 
L 11.1875 0 
L 0.78125 0 
z
" id="DejaVuSans-65"/>
      <path d="M 9.421875 75.984375 
L 18.40625 75.984375 
L 18.40625 0 
L 9.421875 0 
z
" id="DejaVuSans-108"/>
     </defs>
     <g transform="translate(70.200625 318.255394)scale(0.08 -0.08)">
      <use xlink:href="#DejaVuSans-83"/>
      <use x="63.476562" xlink:href="#DejaVuSans-100"/>
      <use x="126.953125" xlink:href="#DejaVuSans-101"/>
      <use x="188.476562" xlink:href="#DejaVuSans-45"/>
      <use x="224.560547" xlink:href="#DejaVuSans-67"/>
      <use x="294.384766" xlink:href="#DejaVuSans-77"/>
      <use x="380.664062" xlink:href="#DejaVuSans-97"/>
      <use x="441.943359" xlink:href="#DejaVuSans-116"/>
      <use x="481.152344" xlink:href="#DejaVuSans-95"/>
      <use x="531.152344" xlink:href="#DejaVuSans-48"/>
      <use x="594.775391" xlink:href="#DejaVuSans-54"/>
      <use x="658.398438" xlink:href="#DejaVuSans-49"/>
      <use x="722.021484" xlink:href="#DejaVuSans-45"/>
      <use x="758.105469" xlink:href="#DejaVuSans-69"/>
      <use x="821.289062" xlink:href="#DejaVuSans-120"/>
      <use x="880.46875" xlink:href="#DejaVuSans-49"/>
      <use x="944.091797" xlink:href="#DejaVuSans-45"/>
      <use x="980.175781" xlink:href="#DejaVuSans-55"/>
      <use x="1043.798828" xlink:href="#DejaVuSans-65"/>
      <use x="1112.175781" xlink:href="#DejaVuSans-45"/>
      <use x="1148.259766" xlink:href="#DejaVuSans-115"/>
      <use x="1200.359375" xlink:href="#DejaVuSans-115"/>
      <use x="1252.458984" xlink:href="#DejaVuSans-108"/>
     </g>
    </g>
    <g id="line2d_14">
     <path d="M 454.460625 315.455394 
L 470.460625 315.455394 
" style="fill:none;stroke:#434348;stroke-linecap:square;"/>
    </g>
    <g id="line2d_15"/>
    <g id="text_18">
     <!-- Sde-CMat_061-Ex1-8A-ssl -->
     <defs>
      <path d="M 31.78125 34.625 
Q 24.75 34.625 20.71875 30.859375 
Q 16.703125 27.09375 16.703125 20.515625 
Q 16.703125 13.921875 20.71875 10.15625 
Q 24.75 6.390625 31.78125 6.390625 
Q 38.8125 6.390625 42.859375 10.171875 
Q 46.921875 13.96875 46.921875 20.515625 
Q 46.921875 27.09375 42.890625 30.859375 
Q 38.875 34.625 31.78125 34.625 
z
M 21.921875 38.8125 
Q 15.578125 40.375 12.03125 44.71875 
Q 8.5 49.078125 8.5 55.328125 
Q 8.5 64.0625 14.71875 69.140625 
Q 20.953125 74.21875 31.78125 74.21875 
Q 42.671875 74.21875 48.875 69.140625 
Q 55.078125 64.0625 55.078125 55.328125 
Q 55.078125 49.078125 51.53125 44.71875 
Q 48 40.375 41.703125 38.8125 
Q 48.828125 37.15625 52.796875 32.3125 
Q 56.78125 27.484375 56.78125 20.515625 
Q 56.78125 9.90625 50.3125 4.234375 
Q 43.84375 -1.421875 31.78125 -1.421875 
Q 19.734375 -1.421875 13.25 4.234375 
Q 6.78125 9.90625 6.78125 20.515625 
Q 6.78125 27.484375 10.78125 32.3125 
Q 14.796875 37.15625 21.921875 38.8125 
z
M 18.3125 54.390625 
Q 18.3125 48.734375 21.84375 45.5625 
Q 25.390625 42.390625 31.78125 42.390625 
Q 38.140625 42.390625 41.71875 45.5625 
Q 45.3125 48.734375 45.3125 54.390625 
Q 45.3125 60.0625 41.71875 63.234375 
Q 38.140625 66.40625 31.78125 66.40625 
Q 25.390625 66.40625 21.84375 63.234375 
Q 18.3125 60.0625 18.3125 54.390625 
z
" id="DejaVuSans-56"/>
     </defs>
     <g transform="translate(476.860625 318.255394)scale(0.08 -0.08)">
      <use xlink:href="#DejaVuSans-83"/>
      <use x="63.476562" xlink:href="#DejaVuSans-100"/>
      <use x="126.953125" xlink:href="#DejaVuSans-101"/>
      <use x="188.476562" xlink:href="#DejaVuSans-45"/>
      <use x="224.560547" xlink:href="#DejaVuSans-67"/>
      <use x="294.384766" xlink:href="#DejaVuSans-77"/>
      <use x="380.664062" xlink:href="#DejaVuSans-97"/>
      <use x="441.943359" xlink:href="#DejaVuSans-116"/>
      <use x="481.152344" xlink:href="#DejaVuSans-95"/>
      <use x="531.152344" xlink:href="#DejaVuSans-48"/>
      <use x="594.775391" xlink:href="#DejaVuSans-54"/>
      <use x="658.398438" xlink:href="#DejaVuSans-49"/>
      <use x="722.021484" xlink:href="#DejaVuSans-45"/>
      <use x="758.105469" xlink:href="#DejaVuSans-69"/>
      <use x="821.289062" xlink:href="#DejaVuSans-120"/>
      <use x="880.46875" xlink:href="#DejaVuSans-49"/>
      <use x="944.091797" xlink:href="#DejaVuSans-45"/>
      <use x="980.175781" xlink:href="#DejaVuSans-56"/>
      <use x="1043.798828" xlink:href="#DejaVuSans-65"/>
      <use x="1112.175781" xlink:href="#DejaVuSans-45"/>
      <use x="1148.259766" xlink:href="#DejaVuSans-115"/>
      <use x="1200.359375" xlink:href="#DejaVuSans-115"/>
      <use x="1252.458984" xlink:href="#DejaVuSans-108"/>
     </g>
    </g>
    <g id="line2d_16">
     <path d="M 861.120625 315.455394 
L 877.120625 315.455394 
" style="fill:none;stroke:#90ed7d;stroke-linecap:square;"/>
    </g>
    <g id="line2d_17"/>
    <g id="text_19">
     <!-- Sde-CMat_061-Ex1-9A-ssl -->
     <defs>
      <path d="M 10.984375 1.515625 
L 10.984375 10.5 
Q 14.703125 8.734375 18.5 7.8125 
Q 22.3125 6.890625 25.984375 6.890625 
Q 35.75 6.890625 40.890625 13.453125 
Q 46.046875 20.015625 46.78125 33.40625 
Q 43.953125 29.203125 39.59375 26.953125 
Q 35.25 24.703125 29.984375 24.703125 
Q 19.046875 24.703125 12.671875 31.3125 
Q 6.296875 37.9375 6.296875 49.421875 
Q 6.296875 60.640625 12.9375 67.421875 
Q 19.578125 74.21875 30.609375 74.21875 
Q 43.265625 74.21875 49.921875 64.515625 
Q 56.59375 54.828125 56.59375 36.375 
Q 56.59375 19.140625 48.40625 8.859375 
Q 40.234375 -1.421875 26.421875 -1.421875 
Q 22.703125 -1.421875 18.890625 -0.6875 
Q 15.09375 0.046875 10.984375 1.515625 
z
M 30.609375 32.421875 
Q 37.25 32.421875 41.125 36.953125 
Q 45.015625 41.5 45.015625 49.421875 
Q 45.015625 57.28125 41.125 61.84375 
Q 37.25 66.40625 30.609375 66.40625 
Q 23.96875 66.40625 20.09375 61.84375 
Q 16.21875 57.28125 16.21875 49.421875 
Q 16.21875 41.5 20.09375 36.953125 
Q 23.96875 32.421875 30.609375 32.421875 
z
" id="DejaVuSans-57"/>
     </defs>
     <g transform="translate(883.520625 318.255394)scale(0.08 -0.08)">
      <use xlink:href="#DejaVuSans-83"/>
      <use x="63.476562" xlink:href="#DejaVuSans-100"/>
      <use x="126.953125" xlink:href="#DejaVuSans-101"/>
      <use x="188.476562" xlink:href="#DejaVuSans-45"/>
      <use x="224.560547" xlink:href="#DejaVuSans-67"/>
      <use x="294.384766" xlink:href="#DejaVuSans-77"/>
      <use x="380.664062" xlink:href="#DejaVuSans-97"/>
      <use x="441.943359" xlink:href="#DejaVuSans-116"/>
      <use x="481.152344" xlink:href="#DejaVuSans-95"/>
      <use x="531.152344" xlink:href="#DejaVuSans-48"/>
      <use x="594.775391" xlink:href="#DejaVuSans-54"/>
      <use x="658.398438" xlink:href="#DejaVuSans-49"/>
      <use x="722.021484" xlink:href="#DejaVuSans-45"/>
      <use x="758.105469" xlink:href="#DejaVuSans-69"/>
      <use x="821.289062" xlink:href="#DejaVuSans-120"/>
      <use x="880.46875" xlink:href="#DejaVuSans-49"/>
      <use x="944.091797" xlink:href="#DejaVuSans-45"/>
      <use x="980.175781" xlink:href="#DejaVuSans-57"/>
      <use x="1043.798828" xlink:href="#DejaVuSans-65"/>
      <use x="1112.175781" xlink:href="#DejaVuSans-45"/>
      <use x="1148.259766" xlink:href="#DejaVuSans-115"/>
      <use x="1200.359375" xlink:href="#DejaVuSans-115"/>
      <use x="1252.458984" xlink:href="#DejaVuSans-108"/>
     </g>
    </g>
   </g>
  </g>
 </g>
 <defs>
  <clipPath id="p763406636f">
   <rect height="242.5072" width="952.54" x="40.600625" y="31.48286"/>
  </clipPath>
 </defs>
</svg>
