<?xml version="1.0" encoding="utf-8" standalone="no"?>
<!DOCTYPE svg PUBLIC "-//W3C//DTD SVG 1.1//EN"
  "http://www.w3.org/Graphics/SVG/1.1/DTD/svg11.dtd">
<!-- Created with matplotlib (https://matplotlib.org/) -->
<svg height="330.541644pt" version="1.1" viewBox="0 0 1000.318125 330.541644" width="1000.318125pt" xmlns="http://www.w3.org/2000/svg" xmlns:xlink="http://www.w3.org/1999/xlink">
 <defs>
  <style type="text/css">
*{stroke-linecap:butt;stroke-linejoin:round;}
  </style>
 </defs>
 <g id="figure_1">
  <g id="axes_1">
   <g id="patch_1">
    <path d="M 38.058125 273.99006 
L 993.118125 273.99006 
L 993.118125 31.48286 
L 38.058125 31.48286 
z
" style="fill:#ffffff;"/>
   </g>
   <g id="matplotlib.axis_1">
    <g id="xtick_1">
     <g id="text_1">
      <!-- 0 -->
      <defs>
       <path d="M 31.78125 66.40625 
Q 24.171875 66.40625 20.328125 58.90625 
Q 16.5 51.421875 16.5 36.375 
Q 16.5 21.390625 20.328125 13.890625 
Q 24.171875 6.390625 31.78125 6.390625 
Q 39.453125 6.390625 43.28125 13.890625 
Q 47.125 21.390625 47.125 36.375 
Q 47.125 51.421875 43.28125 58.90625 
Q 39.453125 66.40625 31.78125 66.40625 
z
M 31.78125 74.21875 
Q 44.046875 74.21875 50.515625 64.515625 
Q 56.984375 54.828125 56.984375 36.375 
Q 56.984375 17.96875 50.515625 8.265625 
Q 44.046875 -1.421875 31.78125 -1.421875 
Q 19.53125 -1.421875 13.0625 8.265625 
Q 6.59375 17.96875 6.59375 36.375 
Q 6.59375 54.828125 13.0625 64.515625 
Q 19.53125 74.21875 31.78125 74.21875 
z
" id="DejaVuSans-48"/>
      </defs>
      <g transform="translate(73.097853 287.06881)scale(0.08 -0.08)">
       <use xlink:href="#DejaVuSans-48"/>
      </g>
     </g>
    </g>
    <g id="xtick_2">
     <g id="text_2">
      <!-- 20 -->
      <defs>
       <path d="M 19.1875 8.296875 
L 53.609375 8.296875 
L 53.609375 0 
L 7.328125 0 
L 7.328125 8.296875 
Q 12.9375 14.109375 22.625 23.890625 
Q 32.328125 33.6875 34.8125 36.53125 
Q 39.546875 41.84375 41.421875 45.53125 
Q 43.3125 49.21875 43.3125 52.78125 
Q 43.3125 58.59375 39.234375 62.25 
Q 35.15625 65.921875 28.609375 65.921875 
Q 23.96875 65.921875 18.8125 64.3125 
Q 13.671875 62.703125 7.8125 59.421875 
L 7.8125 69.390625 
Q 13.765625 71.78125 18.9375 73 
Q 24.125 74.21875 28.421875 74.21875 
Q 39.75 74.21875 46.484375 68.546875 
Q 53.21875 62.890625 53.21875 53.421875 
Q 53.21875 48.921875 51.53125 44.890625 
Q 49.859375 40.875 45.40625 35.40625 
Q 44.1875 33.984375 37.640625 27.21875 
Q 31.109375 20.453125 19.1875 8.296875 
z
" id="DejaVuSans-50"/>
      </defs>
      <g transform="translate(187.094647 287.06881)scale(0.08 -0.08)">
       <use xlink:href="#DejaVuSans-50"/>
       <use x="63.623047" xlink:href="#DejaVuSans-48"/>
      </g>
     </g>
    </g>
    <g id="xtick_3">
     <g id="text_3">
      <!-- 40 -->
      <defs>
       <path d="M 37.796875 64.3125 
L 12.890625 25.390625 
L 37.796875 25.390625 
z
M 35.203125 72.90625 
L 47.609375 72.90625 
L 47.609375 25.390625 
L 58.015625 25.390625 
L 58.015625 17.1875 
L 47.609375 17.1875 
L 47.609375 0 
L 37.796875 0 
L 37.796875 17.1875 
L 4.890625 17.1875 
L 4.890625 26.703125 
z
" id="DejaVuSans-52"/>
      </defs>
      <g transform="translate(303.636441 287.06881)scale(0.08 -0.08)">
       <use xlink:href="#DejaVuSans-52"/>
       <use x="63.623047" xlink:href="#DejaVuSans-48"/>
      </g>
     </g>
    </g>
    <g id="xtick_4">
     <g id="text_4">
      <!-- 60 -->
      <defs>
       <path d="M 33.015625 40.375 
Q 26.375 40.375 22.484375 35.828125 
Q 18.609375 31.296875 18.609375 23.390625 
Q 18.609375 15.53125 22.484375 10.953125 
Q 26.375 6.390625 33.015625 6.390625 
Q 39.65625 6.390625 43.53125 10.953125 
Q 47.40625 15.53125 47.40625 23.390625 
Q 47.40625 31.296875 43.53125 35.828125 
Q 39.65625 40.375 33.015625 40.375 
z
M 52.59375 71.296875 
L 52.59375 62.3125 
Q 48.875 64.0625 45.09375 64.984375 
Q 41.3125 65.921875 37.59375 65.921875 
Q 27.828125 65.921875 22.671875 59.328125 
Q 17.53125 52.734375 16.796875 39.40625 
Q 19.671875 43.65625 24.015625 45.921875 
Q 28.375 48.1875 33.59375 48.1875 
Q 44.578125 48.1875 50.953125 41.515625 
Q 57.328125 34.859375 57.328125 23.390625 
Q 57.328125 12.15625 50.6875 5.359375 
Q 44.046875 -1.421875 33.015625 -1.421875 
Q 20.359375 -1.421875 13.671875 8.265625 
Q 6.984375 17.96875 6.984375 36.375 
Q 6.984375 53.65625 15.1875 63.9375 
Q 23.390625 74.21875 37.203125 74.21875 
Q 40.921875 74.21875 44.703125 73.484375 
Q 48.484375 72.75 52.59375 71.296875 
z
" id="DejaVuSans-54"/>
      </defs>
      <g transform="translate(420.178235 287.06881)scale(0.08 -0.08)">
       <use xlink:href="#DejaVuSans-54"/>
       <use x="63.623047" xlink:href="#DejaVuSans-48"/>
      </g>
     </g>
    </g>
    <g id="xtick_5">
     <g id="text_5">
      <!-- 80 -->
      <defs>
       <path d="M 31.78125 34.625 
Q 24.75 34.625 20.71875 30.859375 
Q 16.703125 27.09375 16.703125 20.515625 
Q 16.703125 13.921875 20.71875 10.15625 
Q 24.75 6.390625 31.78125 6.390625 
Q 38.8125 6.390625 42.859375 10.171875 
Q 46.921875 13.96875 46.921875 20.515625 
Q 46.921875 27.09375 42.890625 30.859375 
Q 38.875 34.625 31.78125 34.625 
z
M 21.921875 38.8125 
Q 15.578125 40.375 12.03125 44.71875 
Q 8.5 49.078125 8.5 55.328125 
Q 8.5 64.0625 14.71875 69.140625 
Q 20.953125 74.21875 31.78125 74.21875 
Q 42.671875 74.21875 48.875 69.140625 
Q 55.078125 64.0625 55.078125 55.328125 
Q 55.078125 49.078125 51.53125 44.71875 
Q 48 40.375 41.703125 38.8125 
Q 48.828125 37.15625 52.796875 32.3125 
Q 56.78125 27.484375 56.78125 20.515625 
Q 56.78125 9.90625 50.3125 4.234375 
Q 43.84375 -1.421875 31.78125 -1.421875 
Q 19.734375 -1.421875 13.25 4.234375 
Q 6.78125 9.90625 6.78125 20.515625 
Q 6.78125 27.484375 10.78125 32.3125 
Q 14.796875 37.15625 21.921875 38.8125 
z
M 18.3125 54.390625 
Q 18.3125 48.734375 21.84375 45.5625 
Q 25.390625 42.390625 31.78125 42.390625 
Q 38.140625 42.390625 41.71875 45.5625 
Q 45.3125 48.734375 45.3125 54.390625 
Q 45.3125 60.0625 41.71875 63.234375 
Q 38.140625 66.40625 31.78125 66.40625 
Q 25.390625 66.40625 21.84375 63.234375 
Q 18.3125 60.0625 18.3125 54.390625 
z
" id="DejaVuSans-56"/>
      </defs>
      <g transform="translate(536.720029 287.06881)scale(0.08 -0.08)">
       <use xlink:href="#DejaVuSans-56"/>
       <use x="63.623047" xlink:href="#DejaVuSans-48"/>
      </g>
     </g>
    </g>
    <g id="xtick_6">
     <g id="text_6">
      <!-- 100 -->
      <defs>
       <path d="M 12.40625 8.296875 
L 28.515625 8.296875 
L 28.515625 63.921875 
L 10.984375 60.40625 
L 10.984375 69.390625 
L 28.421875 72.90625 
L 38.28125 72.90625 
L 38.28125 8.296875 
L 54.390625 8.296875 
L 54.390625 0 
L 12.40625 0 
z
" id="DejaVuSans-49"/>
      </defs>
      <g transform="translate(650.716822 287.06881)scale(0.08 -0.08)">
       <use xlink:href="#DejaVuSans-49"/>
       <use x="63.623047" xlink:href="#DejaVuSans-48"/>
       <use x="127.246094" xlink:href="#DejaVuSans-48"/>
      </g>
     </g>
    </g>
    <g id="xtick_7">
     <g id="text_7">
      <!-- 120 -->
      <g transform="translate(767.258616 287.06881)scale(0.08 -0.08)">
       <use xlink:href="#DejaVuSans-49"/>
       <use x="63.623047" xlink:href="#DejaVuSans-50"/>
       <use x="127.246094" xlink:href="#DejaVuSans-48"/>
      </g>
     </g>
    </g>
    <g id="xtick_8">
     <g id="text_8">
      <!-- 140 -->
      <g transform="translate(883.80041 287.06881)scale(0.08 -0.08)">
       <use xlink:href="#DejaVuSans-49"/>
       <use x="63.623047" xlink:href="#DejaVuSans-52"/>
       <use x="127.246094" xlink:href="#DejaVuSans-48"/>
      </g>
     </g>
    </g>
    <g id="text_9">
     <!-- Read Position -->
     <defs>
      <path d="M 44.390625 34.1875 
Q 47.5625 33.109375 50.5625 29.59375 
Q 53.5625 26.078125 56.59375 19.921875 
L 66.609375 0 
L 56 0 
L 46.6875 18.703125 
Q 43.0625 26.03125 39.671875 28.421875 
Q 36.28125 30.8125 30.421875 30.8125 
L 19.671875 30.8125 
L 19.671875 0 
L 9.8125 0 
L 9.8125 72.90625 
L 32.078125 72.90625 
Q 44.578125 72.90625 50.734375 67.671875 
Q 56.890625 62.453125 56.890625 51.90625 
Q 56.890625 45.015625 53.6875 40.46875 
Q 50.484375 35.9375 44.390625 34.1875 
z
M 19.671875 64.796875 
L 19.671875 38.921875 
L 32.078125 38.921875 
Q 39.203125 38.921875 42.84375 42.21875 
Q 46.484375 45.515625 46.484375 51.90625 
Q 46.484375 58.296875 42.84375 61.546875 
Q 39.203125 64.796875 32.078125 64.796875 
z
" id="DejaVuSans-82"/>
      <path d="M 56.203125 29.59375 
L 56.203125 25.203125 
L 14.890625 25.203125 
Q 15.484375 15.921875 20.484375 11.0625 
Q 25.484375 6.203125 34.421875 6.203125 
Q 39.59375 6.203125 44.453125 7.46875 
Q 49.3125 8.734375 54.109375 11.28125 
L 54.109375 2.78125 
Q 49.265625 0.734375 44.1875 -0.34375 
Q 39.109375 -1.421875 33.890625 -1.421875 
Q 20.796875 -1.421875 13.15625 6.1875 
Q 5.515625 13.8125 5.515625 26.8125 
Q 5.515625 40.234375 12.765625 48.109375 
Q 20.015625 56 32.328125 56 
Q 43.359375 56 49.78125 48.890625 
Q 56.203125 41.796875 56.203125 29.59375 
z
M 47.21875 32.234375 
Q 47.125 39.59375 43.09375 43.984375 
Q 39.0625 48.390625 32.421875 48.390625 
Q 24.90625 48.390625 20.390625 44.140625 
Q 15.875 39.890625 15.1875 32.171875 
z
" id="DejaVuSans-101"/>
      <path d="M 34.28125 27.484375 
Q 23.390625 27.484375 19.1875 25 
Q 14.984375 22.515625 14.984375 16.5 
Q 14.984375 11.71875 18.140625 8.90625 
Q 21.296875 6.109375 26.703125 6.109375 
Q 34.1875 6.109375 38.703125 11.40625 
Q 43.21875 16.703125 43.21875 25.484375 
L 43.21875 27.484375 
z
M 52.203125 31.203125 
L 52.203125 0 
L 43.21875 0 
L 43.21875 8.296875 
Q 40.140625 3.328125 35.546875 0.953125 
Q 30.953125 -1.421875 24.3125 -1.421875 
Q 15.921875 -1.421875 10.953125 3.296875 
Q 6 8.015625 6 15.921875 
Q 6 25.140625 12.171875 29.828125 
Q 18.359375 34.515625 30.609375 34.515625 
L 43.21875 34.515625 
L 43.21875 35.40625 
Q 43.21875 41.609375 39.140625 45 
Q 35.0625 48.390625 27.6875 48.390625 
Q 23 48.390625 18.546875 47.265625 
Q 14.109375 46.140625 10.015625 43.890625 
L 10.015625 52.203125 
Q 14.9375 54.109375 19.578125 55.046875 
Q 24.21875 56 28.609375 56 
Q 40.484375 56 46.34375 49.84375 
Q 52.203125 43.703125 52.203125 31.203125 
z
" id="DejaVuSans-97"/>
      <path d="M 45.40625 46.390625 
L 45.40625 75.984375 
L 54.390625 75.984375 
L 54.390625 0 
L 45.40625 0 
L 45.40625 8.203125 
Q 42.578125 3.328125 38.25 0.953125 
Q 33.9375 -1.421875 27.875 -1.421875 
Q 17.96875 -1.421875 11.734375 6.484375 
Q 5.515625 14.40625 5.515625 27.296875 
Q 5.515625 40.1875 11.734375 48.09375 
Q 17.96875 56 27.875 56 
Q 33.9375 56 38.25 53.625 
Q 42.578125 51.265625 45.40625 46.390625 
z
M 14.796875 27.296875 
Q 14.796875 17.390625 18.875 11.75 
Q 22.953125 6.109375 30.078125 6.109375 
Q 37.203125 6.109375 41.296875 11.75 
Q 45.40625 17.390625 45.40625 27.296875 
Q 45.40625 37.203125 41.296875 42.84375 
Q 37.203125 48.484375 30.078125 48.484375 
Q 22.953125 48.484375 18.875 42.84375 
Q 14.796875 37.203125 14.796875 27.296875 
z
" id="DejaVuSans-100"/>
      <path id="DejaVuSans-32"/>
      <path d="M 19.671875 64.796875 
L 19.671875 37.40625 
L 32.078125 37.40625 
Q 38.96875 37.40625 42.71875 40.96875 
Q 46.484375 44.53125 46.484375 51.125 
Q 46.484375 57.671875 42.71875 61.234375 
Q 38.96875 64.796875 32.078125 64.796875 
z
M 9.8125 72.90625 
L 32.078125 72.90625 
Q 44.34375 72.90625 50.609375 67.359375 
Q 56.890625 61.8125 56.890625 51.125 
Q 56.890625 40.328125 50.609375 34.8125 
Q 44.34375 29.296875 32.078125 29.296875 
L 19.671875 29.296875 
L 19.671875 0 
L 9.8125 0 
z
" id="DejaVuSans-80"/>
      <path d="M 30.609375 48.390625 
Q 23.390625 48.390625 19.1875 42.75 
Q 14.984375 37.109375 14.984375 27.296875 
Q 14.984375 17.484375 19.15625 11.84375 
Q 23.34375 6.203125 30.609375 6.203125 
Q 37.796875 6.203125 41.984375 11.859375 
Q 46.1875 17.53125 46.1875 27.296875 
Q 46.1875 37.015625 41.984375 42.703125 
Q 37.796875 48.390625 30.609375 48.390625 
z
M 30.609375 56 
Q 42.328125 56 49.015625 48.375 
Q 55.71875 40.765625 55.71875 27.296875 
Q 55.71875 13.875 49.015625 6.21875 
Q 42.328125 -1.421875 30.609375 -1.421875 
Q 18.84375 -1.421875 12.171875 6.21875 
Q 5.515625 13.875 5.515625 27.296875 
Q 5.515625 40.765625 12.171875 48.375 
Q 18.84375 56 30.609375 56 
z
" id="DejaVuSans-111"/>
      <path d="M 44.28125 53.078125 
L 44.28125 44.578125 
Q 40.484375 46.53125 36.375 47.5 
Q 32.28125 48.484375 27.875 48.484375 
Q 21.1875 48.484375 17.84375 46.4375 
Q 14.5 44.390625 14.5 40.28125 
Q 14.5 37.15625 16.890625 35.375 
Q 19.28125 33.59375 26.515625 31.984375 
L 29.59375 31.296875 
Q 39.15625 29.25 43.1875 25.515625 
Q 47.21875 21.78125 47.21875 15.09375 
Q 47.21875 7.46875 41.1875 3.015625 
Q 35.15625 -1.421875 24.609375 -1.421875 
Q 20.21875 -1.421875 15.453125 -0.5625 
Q 10.6875 0.296875 5.421875 2 
L 5.421875 11.28125 
Q 10.40625 8.6875 15.234375 7.390625 
Q 20.0625 6.109375 24.8125 6.109375 
Q 31.15625 6.109375 34.5625 8.28125 
Q 37.984375 10.453125 37.984375 14.40625 
Q 37.984375 18.0625 35.515625 20.015625 
Q 33.0625 21.96875 24.703125 23.78125 
L 21.578125 24.515625 
Q 13.234375 26.265625 9.515625 29.90625 
Q 5.8125 33.546875 5.8125 39.890625 
Q 5.8125 47.609375 11.28125 51.796875 
Q 16.75 56 26.8125 56 
Q 31.78125 56 36.171875 55.265625 
Q 40.578125 54.546875 44.28125 53.078125 
z
" id="DejaVuSans-115"/>
      <path d="M 9.421875 54.6875 
L 18.40625 54.6875 
L 18.40625 0 
L 9.421875 0 
z
M 9.421875 75.984375 
L 18.40625 75.984375 
L 18.40625 64.59375 
L 9.421875 64.59375 
z
" id="DejaVuSans-105"/>
      <path d="M 18.3125 70.21875 
L 18.3125 54.6875 
L 36.8125 54.6875 
L 36.8125 47.703125 
L 18.3125 47.703125 
L 18.3125 18.015625 
Q 18.3125 11.328125 20.140625 9.421875 
Q 21.96875 7.515625 27.59375 7.515625 
L 36.8125 7.515625 
L 36.8125 0 
L 27.59375 0 
Q 17.1875 0 13.234375 3.875 
Q 9.28125 7.765625 9.28125 18.015625 
L 9.28125 47.703125 
L 2.6875 47.703125 
L 2.6875 54.6875 
L 9.28125 54.6875 
L 9.28125 70.21875 
z
" id="DejaVuSans-116"/>
      <path d="M 54.890625 33.015625 
L 54.890625 0 
L 45.90625 0 
L 45.90625 32.71875 
Q 45.90625 40.484375 42.875 44.328125 
Q 39.84375 48.1875 33.796875 48.1875 
Q 26.515625 48.1875 22.3125 43.546875 
Q 18.109375 38.921875 18.109375 30.90625 
L 18.109375 0 
L 9.078125 0 
L 9.078125 54.6875 
L 18.109375 54.6875 
L 18.109375 46.1875 
Q 21.34375 51.125 25.703125 53.5625 
Q 30.078125 56 35.796875 56 
Q 45.21875 56 50.046875 50.171875 
Q 54.890625 44.34375 54.890625 33.015625 
z
" id="DejaVuSans-110"/>
     </defs>
     <g transform="translate(481.570156 300.330997)scale(0.1 -0.1)">
      <use xlink:href="#DejaVuSans-82"/>
      <use x="69.419922" xlink:href="#DejaVuSans-101"/>
      <use x="130.943359" xlink:href="#DejaVuSans-97"/>
      <use x="192.222656" xlink:href="#DejaVuSans-100"/>
      <use x="255.699219" xlink:href="#DejaVuSans-32"/>
      <use x="287.486328" xlink:href="#DejaVuSans-80"/>
      <use x="347.742188" xlink:href="#DejaVuSans-111"/>
      <use x="408.923828" xlink:href="#DejaVuSans-115"/>
      <use x="461.023438" xlink:href="#DejaVuSans-105"/>
      <use x="488.806641" xlink:href="#DejaVuSans-116"/>
      <use x="528.015625" xlink:href="#DejaVuSans-105"/>
      <use x="555.798828" xlink:href="#DejaVuSans-111"/>
      <use x="616.980469" xlink:href="#DejaVuSans-110"/>
     </g>
    </g>
   </g>
   <g id="matplotlib.axis_2">
    <g id="ytick_1">
     <g id="line2d_1">
      <path clip-path="url(#p0b0dbd2eff)" d="M 38.058125 273.99006 
L 993.118125 273.99006 
" style="fill:none;stroke:#dedede;stroke-linecap:square;"/>
     </g>
     <g id="text_10">
      <!-- 0 -->
      <g transform="translate(25.968125 277.029435)scale(0.08 -0.08)">
       <use xlink:href="#DejaVuSans-48"/>
      </g>
     </g>
    </g>
    <g id="ytick_2">
     <g id="line2d_2">
      <path clip-path="url(#p0b0dbd2eff)" d="M 38.058125 243.326571 
L 993.118125 243.326571 
" style="fill:none;stroke:#dedede;stroke-linecap:square;"/>
     </g>
     <g id="text_11">
      <!-- 5 -->
      <defs>
       <path d="M 10.796875 72.90625 
L 49.515625 72.90625 
L 49.515625 64.59375 
L 19.828125 64.59375 
L 19.828125 46.734375 
Q 21.96875 47.46875 24.109375 47.828125 
Q 26.265625 48.1875 28.421875 48.1875 
Q 40.625 48.1875 47.75 41.5 
Q 54.890625 34.8125 54.890625 23.390625 
Q 54.890625 11.625 47.5625 5.09375 
Q 40.234375 -1.421875 26.90625 -1.421875 
Q 22.3125 -1.421875 17.546875 -0.640625 
Q 12.796875 0.140625 7.71875 1.703125 
L 7.71875 11.625 
Q 12.109375 9.234375 16.796875 8.0625 
Q 21.484375 6.890625 26.703125 6.890625 
Q 35.15625 6.890625 40.078125 11.328125 
Q 45.015625 15.765625 45.015625 23.390625 
Q 45.015625 31 40.078125 35.4375 
Q 35.15625 39.890625 26.703125 39.890625 
Q 22.75 39.890625 18.8125 39.015625 
Q 14.890625 38.140625 10.796875 36.28125 
z
" id="DejaVuSans-53"/>
      </defs>
      <g transform="translate(25.968125 246.365946)scale(0.08 -0.08)">
       <use xlink:href="#DejaVuSans-53"/>
      </g>
     </g>
    </g>
    <g id="ytick_3">
     <g id="line2d_3">
      <path clip-path="url(#p0b0dbd2eff)" d="M 38.058125 212.663082 
L 993.118125 212.663082 
" style="fill:none;stroke:#dedede;stroke-linecap:square;"/>
     </g>
     <g id="text_12">
      <!-- 10 -->
      <g transform="translate(20.878125 215.702457)scale(0.08 -0.08)">
       <use xlink:href="#DejaVuSans-49"/>
       <use x="63.623047" xlink:href="#DejaVuSans-48"/>
      </g>
     </g>
    </g>
    <g id="ytick_4">
     <g id="line2d_4">
      <path clip-path="url(#p0b0dbd2eff)" d="M 38.058125 181.999593 
L 993.118125 181.999593 
" style="fill:none;stroke:#dedede;stroke-linecap:square;"/>
     </g>
     <g id="text_13">
      <!-- 15 -->
      <g transform="translate(20.878125 185.038968)scale(0.08 -0.08)">
       <use xlink:href="#DejaVuSans-49"/>
       <use x="63.623047" xlink:href="#DejaVuSans-53"/>
      </g>
     </g>
    </g>
    <g id="ytick_5">
     <g id="line2d_5">
      <path clip-path="url(#p0b0dbd2eff)" d="M 38.058125 151.336104 
L 993.118125 151.336104 
" style="fill:none;stroke:#dedede;stroke-linecap:square;"/>
     </g>
     <g id="text_14">
      <!-- 20 -->
      <g transform="translate(20.878125 154.375479)scale(0.08 -0.08)">
       <use xlink:href="#DejaVuSans-50"/>
       <use x="63.623047" xlink:href="#DejaVuSans-48"/>
      </g>
     </g>
    </g>
    <g id="ytick_6">
     <g id="line2d_6">
      <path clip-path="url(#p0b0dbd2eff)" d="M 38.058125 120.672616 
L 993.118125 120.672616 
" style="fill:none;stroke:#dedede;stroke-linecap:square;"/>
     </g>
     <g id="text_15">
      <!-- 25 -->
      <g transform="translate(20.878125 123.711991)scale(0.08 -0.08)">
       <use xlink:href="#DejaVuSans-50"/>
       <use x="63.623047" xlink:href="#DejaVuSans-53"/>
      </g>
     </g>
    </g>
    <g id="ytick_7">
     <g id="line2d_7">
      <path clip-path="url(#p0b0dbd2eff)" d="M 38.058125 90.009127 
L 993.118125 90.009127 
" style="fill:none;stroke:#dedede;stroke-linecap:square;"/>
     </g>
     <g id="text_16">
      <!-- 30 -->
      <defs>
       <path d="M 40.578125 39.3125 
Q 47.65625 37.796875 51.625 33 
Q 55.609375 28.21875 55.609375 21.1875 
Q 55.609375 10.40625 48.1875 4.484375 
Q 40.765625 -1.421875 27.09375 -1.421875 
Q 22.515625 -1.421875 17.65625 -0.515625 
Q 12.796875 0.390625 7.625 2.203125 
L 7.625 11.71875 
Q 11.71875 9.328125 16.59375 8.109375 
Q 21.484375 6.890625 26.8125 6.890625 
Q 36.078125 6.890625 40.9375 10.546875 
Q 45.796875 14.203125 45.796875 21.1875 
Q 45.796875 27.640625 41.28125 31.265625 
Q 36.765625 34.90625 28.71875 34.90625 
L 20.21875 34.90625 
L 20.21875 43.015625 
L 29.109375 43.015625 
Q 36.375 43.015625 40.234375 45.921875 
Q 44.09375 48.828125 44.09375 54.296875 
Q 44.09375 59.90625 40.109375 62.90625 
Q 36.140625 65.921875 28.71875 65.921875 
Q 24.65625 65.921875 20.015625 65.03125 
Q 15.375 64.15625 9.8125 62.3125 
L 9.8125 71.09375 
Q 15.4375 72.65625 20.34375 73.4375 
Q 25.25 74.21875 29.59375 74.21875 
Q 40.828125 74.21875 47.359375 69.109375 
Q 53.90625 64.015625 53.90625 55.328125 
Q 53.90625 49.265625 50.4375 45.09375 
Q 46.96875 40.921875 40.578125 39.3125 
z
" id="DejaVuSans-51"/>
      </defs>
      <g transform="translate(20.878125 93.048502)scale(0.08 -0.08)">
       <use xlink:href="#DejaVuSans-51"/>
       <use x="63.623047" xlink:href="#DejaVuSans-48"/>
      </g>
     </g>
    </g>
    <g id="ytick_8">
     <g id="line2d_8">
      <path clip-path="url(#p0b0dbd2eff)" d="M 38.058125 59.345638 
L 993.118125 59.345638 
" style="fill:none;stroke:#dedede;stroke-linecap:square;"/>
     </g>
     <g id="text_17">
      <!-- 35 -->
      <g transform="translate(20.878125 62.385013)scale(0.08 -0.08)">
       <use xlink:href="#DejaVuSans-51"/>
       <use x="63.623047" xlink:href="#DejaVuSans-53"/>
      </g>
     </g>
    </g>
    <g id="text_18">
     <!-- R2 Before filtering: Sequence Quality -->
     <defs>
      <path d="M 19.671875 34.8125 
L 19.671875 8.109375 
L 35.5 8.109375 
Q 43.453125 8.109375 47.28125 11.40625 
Q 51.125 14.703125 51.125 21.484375 
Q 51.125 28.328125 47.28125 31.5625 
Q 43.453125 34.8125 35.5 34.8125 
z
M 19.671875 64.796875 
L 19.671875 42.828125 
L 34.28125 42.828125 
Q 41.5 42.828125 45.03125 45.53125 
Q 48.578125 48.25 48.578125 53.8125 
Q 48.578125 59.328125 45.03125 62.0625 
Q 41.5 64.796875 34.28125 64.796875 
z
M 9.8125 72.90625 
L 35.015625 72.90625 
Q 46.296875 72.90625 52.390625 68.21875 
Q 58.5 63.53125 58.5 54.890625 
Q 58.5 48.1875 55.375 44.234375 
Q 52.25 40.28125 46.1875 39.3125 
Q 53.46875 37.75 57.5 32.78125 
Q 61.53125 27.828125 61.53125 20.40625 
Q 61.53125 10.640625 54.890625 5.3125 
Q 48.25 0 35.984375 0 
L 9.8125 0 
z
" id="DejaVuSans-66"/>
      <path d="M 37.109375 75.984375 
L 37.109375 68.5 
L 28.515625 68.5 
Q 23.6875 68.5 21.796875 66.546875 
Q 19.921875 64.59375 19.921875 59.515625 
L 19.921875 54.6875 
L 34.71875 54.6875 
L 34.71875 47.703125 
L 19.921875 47.703125 
L 19.921875 0 
L 10.890625 0 
L 10.890625 47.703125 
L 2.296875 47.703125 
L 2.296875 54.6875 
L 10.890625 54.6875 
L 10.890625 58.5 
Q 10.890625 67.625 15.140625 71.796875 
Q 19.390625 75.984375 28.609375 75.984375 
z
" id="DejaVuSans-102"/>
      <path d="M 41.109375 46.296875 
Q 39.59375 47.171875 37.8125 47.578125 
Q 36.03125 48 33.890625 48 
Q 26.265625 48 22.1875 43.046875 
Q 18.109375 38.09375 18.109375 28.8125 
L 18.109375 0 
L 9.078125 0 
L 9.078125 54.6875 
L 18.109375 54.6875 
L 18.109375 46.1875 
Q 20.953125 51.171875 25.484375 53.578125 
Q 30.03125 56 36.53125 56 
Q 37.453125 56 38.578125 55.875 
Q 39.703125 55.765625 41.0625 55.515625 
z
" id="DejaVuSans-114"/>
      <path d="M 9.421875 75.984375 
L 18.40625 75.984375 
L 18.40625 0 
L 9.421875 0 
z
" id="DejaVuSans-108"/>
      <path d="M 45.40625 27.984375 
Q 45.40625 37.75 41.375 43.109375 
Q 37.359375 48.484375 30.078125 48.484375 
Q 22.859375 48.484375 18.828125 43.109375 
Q 14.796875 37.75 14.796875 27.984375 
Q 14.796875 18.265625 18.828125 12.890625 
Q 22.859375 7.515625 30.078125 7.515625 
Q 37.359375 7.515625 41.375 12.890625 
Q 45.40625 18.265625 45.40625 27.984375 
z
M 54.390625 6.78125 
Q 54.390625 -7.171875 48.1875 -13.984375 
Q 42 -20.796875 29.203125 -20.796875 
Q 24.46875 -20.796875 20.265625 -20.09375 
Q 16.0625 -19.390625 12.109375 -17.921875 
L 12.109375 -9.1875 
Q 16.0625 -11.328125 19.921875 -12.34375 
Q 23.78125 -13.375 27.78125 -13.375 
Q 36.625 -13.375 41.015625 -8.765625 
Q 45.40625 -4.15625 45.40625 5.171875 
L 45.40625 9.625 
Q 42.625 4.78125 38.28125 2.390625 
Q 33.9375 0 27.875 0 
Q 17.828125 0 11.671875 7.65625 
Q 5.515625 15.328125 5.515625 27.984375 
Q 5.515625 40.671875 11.671875 48.328125 
Q 17.828125 56 27.875 56 
Q 33.9375 56 38.28125 53.609375 
Q 42.625 51.21875 45.40625 46.390625 
L 45.40625 54.6875 
L 54.390625 54.6875 
z
" id="DejaVuSans-103"/>
      <path d="M 11.71875 12.40625 
L 22.015625 12.40625 
L 22.015625 0 
L 11.71875 0 
z
M 11.71875 51.703125 
L 22.015625 51.703125 
L 22.015625 39.3125 
L 11.71875 39.3125 
z
" id="DejaVuSans-58"/>
      <path d="M 53.515625 70.515625 
L 53.515625 60.890625 
Q 47.90625 63.578125 42.921875 64.890625 
Q 37.9375 66.21875 33.296875 66.21875 
Q 25.25 66.21875 20.875 63.09375 
Q 16.5 59.96875 16.5 54.203125 
Q 16.5 49.359375 19.40625 46.890625 
Q 22.3125 44.4375 30.421875 42.921875 
L 36.375 41.703125 
Q 47.40625 39.59375 52.65625 34.296875 
Q 57.90625 29 57.90625 20.125 
Q 57.90625 9.515625 50.796875 4.046875 
Q 43.703125 -1.421875 29.984375 -1.421875 
Q 24.8125 -1.421875 18.96875 -0.25 
Q 13.140625 0.921875 6.890625 3.21875 
L 6.890625 13.375 
Q 12.890625 10.015625 18.65625 8.296875 
Q 24.421875 6.59375 29.984375 6.59375 
Q 38.421875 6.59375 43.015625 9.90625 
Q 47.609375 13.234375 47.609375 19.390625 
Q 47.609375 24.75 44.3125 27.78125 
Q 41.015625 30.8125 33.5 32.328125 
L 27.484375 33.5 
Q 16.453125 35.6875 11.515625 40.375 
Q 6.59375 45.0625 6.59375 53.421875 
Q 6.59375 63.09375 13.40625 68.65625 
Q 20.21875 74.21875 32.171875 74.21875 
Q 37.3125 74.21875 42.625 73.28125 
Q 47.953125 72.359375 53.515625 70.515625 
z
" id="DejaVuSans-83"/>
      <path d="M 14.796875 27.296875 
Q 14.796875 17.390625 18.875 11.75 
Q 22.953125 6.109375 30.078125 6.109375 
Q 37.203125 6.109375 41.296875 11.75 
Q 45.40625 17.390625 45.40625 27.296875 
Q 45.40625 37.203125 41.296875 42.84375 
Q 37.203125 48.484375 30.078125 48.484375 
Q 22.953125 48.484375 18.875 42.84375 
Q 14.796875 37.203125 14.796875 27.296875 
z
M 45.40625 8.203125 
Q 42.578125 3.328125 38.25 0.953125 
Q 33.9375 -1.421875 27.875 -1.421875 
Q 17.96875 -1.421875 11.734375 6.484375 
Q 5.515625 14.40625 5.515625 27.296875 
Q 5.515625 40.1875 11.734375 48.09375 
Q 17.96875 56 27.875 56 
Q 33.9375 56 38.25 53.625 
Q 42.578125 51.265625 45.40625 46.390625 
L 45.40625 54.6875 
L 54.390625 54.6875 
L 54.390625 -20.796875 
L 45.40625 -20.796875 
z
" id="DejaVuSans-113"/>
      <path d="M 8.5 21.578125 
L 8.5 54.6875 
L 17.484375 54.6875 
L 17.484375 21.921875 
Q 17.484375 14.15625 20.5 10.265625 
Q 23.53125 6.390625 29.59375 6.390625 
Q 36.859375 6.390625 41.078125 11.03125 
Q 45.3125 15.671875 45.3125 23.6875 
L 45.3125 54.6875 
L 54.296875 54.6875 
L 54.296875 0 
L 45.3125 0 
L 45.3125 8.40625 
Q 42.046875 3.421875 37.71875 1 
Q 33.40625 -1.421875 27.6875 -1.421875 
Q 18.265625 -1.421875 13.375 4.4375 
Q 8.5 10.296875 8.5 21.578125 
z
M 31.109375 56 
z
" id="DejaVuSans-117"/>
      <path d="M 48.78125 52.59375 
L 48.78125 44.1875 
Q 44.96875 46.296875 41.140625 47.34375 
Q 37.3125 48.390625 33.40625 48.390625 
Q 24.65625 48.390625 19.8125 42.84375 
Q 14.984375 37.3125 14.984375 27.296875 
Q 14.984375 17.28125 19.8125 11.734375 
Q 24.65625 6.203125 33.40625 6.203125 
Q 37.3125 6.203125 41.140625 7.25 
Q 44.96875 8.296875 48.78125 10.40625 
L 48.78125 2.09375 
Q 45.015625 0.34375 40.984375 -0.53125 
Q 36.96875 -1.421875 32.421875 -1.421875 
Q 20.0625 -1.421875 12.78125 6.34375 
Q 5.515625 14.109375 5.515625 27.296875 
Q 5.515625 40.671875 12.859375 48.328125 
Q 20.21875 56 33.015625 56 
Q 37.15625 56 41.109375 55.140625 
Q 45.0625 54.296875 48.78125 52.59375 
z
" id="DejaVuSans-99"/>
      <path d="M 39.40625 66.21875 
Q 28.65625 66.21875 22.328125 58.203125 
Q 16.015625 50.203125 16.015625 36.375 
Q 16.015625 22.609375 22.328125 14.59375 
Q 28.65625 6.59375 39.40625 6.59375 
Q 50.140625 6.59375 56.421875 14.59375 
Q 62.703125 22.609375 62.703125 36.375 
Q 62.703125 50.203125 56.421875 58.203125 
Q 50.140625 66.21875 39.40625 66.21875 
z
M 53.21875 1.3125 
L 66.21875 -12.890625 
L 54.296875 -12.890625 
L 43.5 -1.21875 
Q 41.890625 -1.3125 41.03125 -1.359375 
Q 40.1875 -1.421875 39.40625 -1.421875 
Q 24.03125 -1.421875 14.8125 8.859375 
Q 5.609375 19.140625 5.609375 36.375 
Q 5.609375 53.65625 14.8125 63.9375 
Q 24.03125 74.21875 39.40625 74.21875 
Q 54.734375 74.21875 63.90625 63.9375 
Q 73.09375 53.65625 73.09375 36.375 
Q 73.09375 23.6875 67.984375 14.640625 
Q 62.890625 5.609375 53.21875 1.3125 
z
" id="DejaVuSans-81"/>
      <path d="M 32.171875 -5.078125 
Q 28.375 -14.84375 24.75 -17.8125 
Q 21.140625 -20.796875 15.09375 -20.796875 
L 7.90625 -20.796875 
L 7.90625 -13.28125 
L 13.1875 -13.28125 
Q 16.890625 -13.28125 18.9375 -11.515625 
Q 21 -9.765625 23.484375 -3.21875 
L 25.09375 0.875 
L 2.984375 54.6875 
L 12.5 54.6875 
L 29.59375 11.921875 
L 46.6875 54.6875 
L 56.203125 54.6875 
z
" id="DejaVuSans-121"/>
     </defs>
     <g transform="translate(14.798437 245.783335)rotate(-90)scale(0.1 -0.1)">
      <use xlink:href="#DejaVuSans-82"/>
      <use x="69.482422" xlink:href="#DejaVuSans-50"/>
      <use x="133.105469" xlink:href="#DejaVuSans-32"/>
      <use x="164.892578" xlink:href="#DejaVuSans-66"/>
      <use x="233.496094" xlink:href="#DejaVuSans-101"/>
      <use x="295.019531" xlink:href="#DejaVuSans-102"/>
      <use x="330.224609" xlink:href="#DejaVuSans-111"/>
      <use x="391.40625" xlink:href="#DejaVuSans-114"/>
      <use x="432.488281" xlink:href="#DejaVuSans-101"/>
      <use x="494.011719" xlink:href="#DejaVuSans-32"/>
      <use x="525.798828" xlink:href="#DejaVuSans-102"/>
      <use x="561.003906" xlink:href="#DejaVuSans-105"/>
      <use x="588.787109" xlink:href="#DejaVuSans-108"/>
      <use x="616.570312" xlink:href="#DejaVuSans-116"/>
      <use x="655.779297" xlink:href="#DejaVuSans-101"/>
      <use x="717.302734" xlink:href="#DejaVuSans-114"/>
      <use x="758.416016" xlink:href="#DejaVuSans-105"/>
      <use x="786.199219" xlink:href="#DejaVuSans-110"/>
      <use x="849.578125" xlink:href="#DejaVuSans-103"/>
      <use x="913.054688" xlink:href="#DejaVuSans-58"/>
      <use x="946.746094" xlink:href="#DejaVuSans-32"/>
      <use x="978.533203" xlink:href="#DejaVuSans-83"/>
      <use x="1042.009766" xlink:href="#DejaVuSans-101"/>
      <use x="1103.533203" xlink:href="#DejaVuSans-113"/>
      <use x="1167.009766" xlink:href="#DejaVuSans-117"/>
      <use x="1230.388672" xlink:href="#DejaVuSans-101"/>
      <use x="1291.912109" xlink:href="#DejaVuSans-110"/>
      <use x="1355.291016" xlink:href="#DejaVuSans-99"/>
      <use x="1410.271484" xlink:href="#DejaVuSans-101"/>
      <use x="1471.794922" xlink:href="#DejaVuSans-32"/>
      <use x="1503.582031" xlink:href="#DejaVuSans-81"/>
      <use x="1582.292969" xlink:href="#DejaVuSans-117"/>
      <use x="1645.671875" xlink:href="#DejaVuSans-97"/>
      <use x="1706.951172" xlink:href="#DejaVuSans-108"/>
      <use x="1734.734375" xlink:href="#DejaVuSans-105"/>
      <use x="1762.517578" xlink:href="#DejaVuSans-116"/>
      <use x="1801.726562" xlink:href="#DejaVuSans-121"/>
     </g>
    </g>
   </g>
   <g id="line2d_9">
    <path clip-path="url(#p0b0dbd2eff)" d="M 81.469943 92.914186 
L 87.297033 83.829207 
L 93.124123 63.981344 
L 98.951212 58.328837 
L 104.778302 56.051766 
L 110.605392 36.861941 
L 116.432481 35.761122 
L 122.259571 35.298103 
L 133.91375 35.023358 
L 145.56793 35.447741 
L 151.395019 35.792399 
L 157.222109 35.573461 
L 163.049199 35.641534 
L 168.876289 36.097807 
L 174.703378 36.053652 
L 186.357558 36.32533 
L 192.184647 36.864394 
L 198.011737 36.980302 
L 203.838827 36.909776 
L 209.665916 37.22929 
L 215.493006 37.22745 
L 227.147185 37.403458 
L 232.974275 38.059657 
L 244.628454 37.800244 
L 250.455544 37.831521 
L 256.282634 38.178631 
L 273.763903 38.848322 
L 279.590993 38.770437 
L 285.418082 38.975269 
L 297.072262 39.889654 
L 302.899351 39.477537 
L 308.726441 39.54009 
L 314.553531 39.73511 
L 320.38062 40.198129 
L 326.20771 39.949141 
L 332.0348 40.702237 
L 337.861889 41.206958 
L 343.688979 40.919947 
L 349.516069 41.388485 
L 361.170248 41.187333 
L 366.997338 41.495808 
L 372.824428 41.423442 
L 378.651517 41.589638 
L 384.478607 42.259329 
L 396.132786 42.267301 
L 401.959876 42.483172 
L 407.786966 42.551245 
L 413.614055 42.948644 
L 419.441145 43.079883 
L 431.095325 43.661877 
L 442.749504 43.82562 
L 448.576594 44.124895 
L 454.403683 45.081596 
L 460.230773 45.057679 
L 471.884952 45.579571 
L 477.712042 45.52683 
L 489.366221 45.97513 
L 495.193311 46.419751 
L 501.020401 46.451027 
L 512.67458 47.32923 
L 518.50167 51.901156 
L 524.32876 48.027131 
L 530.155849 45.612074 
L 535.982939 44.930732 
L 541.810029 44.556024 
L 547.637118 44.486724 
L 553.464208 45.195664 
L 559.291298 45.553814 
L 565.118387 45.382712 
L 570.945477 45.532349 
L 576.772567 46.004567 
L 582.599656 46.164017 
L 588.426746 46.536272 
L 594.253836 46.709827 
L 600.080925 47.32739 
L 611.735105 47.432872 
L 623.389284 48.616483 
L 635.043464 49.012042 
L 640.870553 49.080728 
L 652.524733 50.166216 
L 658.351822 50.807083 
L 687.487271 51.881531 
L 693.314361 52.781198 
L 704.96854 53.484619 
L 710.79563 53.621991 
L 716.622719 53.990566 
L 722.449809 54.63082 
L 728.276899 55.793579 
L 734.103988 55.678898 
L 739.931078 56.016809 
L 751.585257 57.488044 
L 757.412347 57.433463 
L 763.239437 58.26015 
L 769.066526 58.545934 
L 786.547796 60.136143 
L 792.374885 60.567884 
L 798.201975 60.858574 
L 804.029065 61.433821 
L 809.856154 61.861884 
L 815.683244 62.470247 
L 821.510334 62.578796 
L 827.337423 63.073705 
L 833.164513 63.409163 
L 838.991603 64.096639 
L 844.818692 64.506916 
L 850.645782 65.064992 
L 862.299961 67.809987 
L 868.127051 67.736395 
L 873.954141 67.825932 
L 879.781231 68.520767 
L 891.43541 68.821269 
L 897.2625 69.432086 
L 903.089589 70.390013 
L 908.916679 70.568475 
L 914.743769 71.090981 
L 920.570858 71.124097 
L 926.397948 71.322183 
L 932.225038 70.736511 
L 938.052127 69.444351 
L 943.879217 65.347709 
L 949.706307 52.386866 
L 949.706307 52.386866 
" style="fill:none;stroke:#7cb5ec;stroke-linecap:square;"/>
   </g>
   <g id="line2d_10">
    <path clip-path="url(#p0b0dbd2eff)" d="M 81.469943 92.760255 
L 87.297033 83.496202 
L 93.124123 63.317173 
L 98.951212 57.791612 
L 104.778302 55.625543 
L 110.605392 36.135217 
L 116.432481 35.084072 
L 122.259571 34.657236 
L 133.91375 34.421741 
L 145.56793 34.842444 
L 151.395019 35.184035 
L 157.222109 34.940567 
L 163.049199 35.005574 
L 168.876289 35.441608 
L 174.703378 35.380895 
L 186.357558 35.624363 
L 192.184647 36.152388 
L 198.011737 36.278108 
L 203.838827 36.192251 
L 209.665916 36.483554 
L 215.493006 36.480487 
L 227.147185 36.630739 
L 232.974275 37.275285 
L 238.801365 37.089464 
L 250.455544 37.029977 
L 256.282634 37.388127 
L 273.763903 38.008142 
L 279.590993 37.89898 
L 285.418082 38.080508 
L 297.072262 38.997347 
L 302.899351 38.584616 
L 308.726441 38.657595 
L 314.553531 38.867947 
L 320.38062 39.319926 
L 326.20771 39.073392 
L 332.0348 39.817902 
L 337.861889 40.298092 
L 343.688979 40.021507 
L 349.516069 40.4741 
L 361.170248 40.248417 
L 366.997338 40.559345 
L 372.824428 40.486979 
L 378.651517 40.660534 
L 384.478607 41.339424 
L 390.305697 41.270738 
L 396.132786 41.326545 
L 401.959876 41.540576 
L 407.786966 41.596384 
L 413.614055 41.987037 
L 419.441145 42.130542 
L 431.095325 42.672672 
L 442.749504 42.856653 
L 448.576594 43.142437 
L 454.403683 44.090552 
L 460.230773 44.057436 
L 471.884952 44.578715 
L 477.712042 44.519228 
L 489.366221 44.95097 
L 495.193311 45.381485 
L 501.020401 45.403563 
L 512.67458 46.285445 
L 518.50167 50.864117 
L 524.32876 47.064297 
L 530.155849 44.699529 
L 535.982939 44.035971 
L 541.810029 43.667396 
L 547.637118 43.604842 
L 553.464208 44.313169 
L 559.291298 44.672545 
L 565.118387 44.503896 
L 570.945477 44.651081 
L 576.772567 45.116552 
L 582.599656 45.261897 
L 588.426746 45.610848 
L 594.253836 45.799122 
L 600.080925 46.413618 
L 605.908015 46.401353 
L 611.735105 46.503155 
L 623.389284 47.68002 
L 635.043464 48.065154 
L 640.870553 48.133226 
L 652.524733 49.19541 
L 658.351822 49.831984 
L 687.487271 50.883128 
L 693.314361 51.776662 
L 704.96854 52.467204 
L 710.79563 52.583112 
L 716.622719 52.949234 
L 722.449809 53.586421 
L 728.276899 54.738755 
L 734.103988 54.617941 
L 739.931078 54.940521 
L 751.585257 56.408689 
L 757.412347 56.344296 
L 763.239437 57.16669 
L 769.066526 57.447568 
L 774.893616 57.992151 
L 780.720706 58.660615 
L 798.201975 59.736291 
L 804.029065 60.302952 
L 809.856154 60.718136 
L 815.683244 61.326499 
L 821.510334 61.433821 
L 827.337423 61.92689 
L 833.164513 62.247017 
L 838.991603 62.955344 
L 844.818692 63.358262 
L 850.645782 63.901006 
L 862.299961 66.639869 
L 868.127051 66.571796 
L 873.954141 66.649681 
L 879.781231 67.319985 
L 891.43541 67.609448 
L 897.2625 68.227011 
L 903.089589 69.171446 
L 908.916679 69.348068 
L 914.743769 69.890812 
L 920.570858 69.931287 
L 926.397948 70.150225 
L 932.225038 69.605028 
L 938.052127 68.348438 
L 943.879217 64.389782 
L 949.706307 51.733733 
L 949.706307 51.733733 
" style="fill:none;stroke:#434348;stroke-linecap:square;"/>
   </g>
   <g id="line2d_11">
    <path clip-path="url(#p0b0dbd2eff)" d="M 81.469943 93.199356 
L 87.297033 84.305718 
L 93.124123 64.671273 
L 98.951212 58.988715 
L 104.778302 56.586537 
L 110.605392 37.634661 
L 116.432481 36.45105 
L 122.259571 36.061624 
L 133.91375 35.774614 
L 139.74084 35.922412 
L 151.395019 36.570638 
L 157.222109 36.350474 
L 163.049199 36.432652 
L 168.876289 36.879113 
L 174.703378 36.840477 
L 186.357558 37.145272 
L 192.184647 37.702121 
L 198.011737 37.830907 
L 203.838827 37.776326 
L 209.665916 38.115465 
L 215.493006 38.119758 
L 227.147185 38.313551 
L 232.974275 38.958711 
L 244.628454 38.723828 
L 250.455544 38.764304 
L 262.109724 39.337098 
L 273.763903 39.80073 
L 279.590993 39.722231 
L 285.418082 39.941782 
L 297.072262 40.881925 
L 302.899351 40.475327 
L 314.553531 40.748845 
L 320.38062 41.244367 
L 326.20771 41.007032 
L 332.0348 41.767486 
L 337.861889 42.280793 
L 343.688979 41.988263 
L 349.516069 42.489305 
L 361.170248 42.31207 
L 366.997338 42.62729 
L 372.824428 42.553085 
L 378.651517 42.706402 
L 384.478607 43.377319 
L 396.132786 43.426381 
L 401.959876 43.66065 
L 407.786966 43.729336 
L 413.614055 44.133481 
L 419.441145 44.279439 
L 431.095325 44.844261 
L 442.749504 45.034374 
L 448.576594 45.340396 
L 454.403683 46.306296 
L 460.230773 46.29403 
L 471.884952 46.830641 
L 477.712042 46.796298 
L 489.366221 47.260544 
L 495.193311 47.71559 
L 501.020401 47.735828 
L 512.67458 48.604218 
L 518.50167 53.18289 
L 524.32876 49.251217 
L 530.155849 46.775447 
L 535.982939 46.049949 
L 541.810029 45.658683 
L 547.637118 45.58693 
L 553.464208 46.29403 
L 559.291298 46.661992 
L 565.118387 46.497636 
L 570.945477 46.638075 
L 576.772567 47.118265 
L 582.599656 47.287527 
L 588.426746 47.666528 
L 594.253836 47.844376 
L 600.080925 48.458259 
L 611.735105 48.554543 
L 623.389284 49.761458 
L 635.043464 50.165602 
L 640.870553 50.242874 
L 652.524733 51.338788 
L 658.351822 51.971069 
L 687.487271 53.05533 
L 693.314361 53.960516 
L 704.96854 54.638792 
L 710.79563 54.762673 
L 716.622719 55.140447 
L 722.449809 55.785607 
L 728.276899 56.944687 
L 734.103988 56.826939 
L 739.931078 57.169143 
L 751.585257 58.623206 
L 757.412347 58.556973 
L 763.239437 59.410031 
L 769.066526 59.697655 
L 774.893616 60.22568 
L 780.720706 60.900277 
L 798.201975 61.977792 
L 804.029065 62.546906 
L 809.856154 62.968836 
L 815.683244 63.574746 
L 821.510334 63.669803 
L 827.337423 64.162872 
L 833.164513 64.490358 
L 838.991603 65.17906 
L 844.818692 65.577072 
L 850.645782 66.10939 
L 862.299961 68.839667 
L 868.127051 68.748903 
L 873.954141 68.847026 
L 879.781231 69.513037 
L 891.43541 69.798208 
L 897.2625 70.405958 
L 903.089589 71.327703 
L 908.916679 71.499418 
L 914.743769 72.031736 
L 920.570858 72.040322 
L 926.397948 72.22185 
L 932.225038 71.590795 
L 938.052127 70.262453 
L 943.879217 66.061555 
L 949.706307 52.838232 
L 949.706307 52.838232 
" style="fill:none;stroke:#90ed7d;stroke-linecap:square;"/>
   </g>
   <g id="line2d_12">
    <path clip-path="url(#p0b0dbd2eff)" d="M 38.058125 273.99006 
L 993.118125 273.99006 
" style="fill:none;stroke:#dedede;stroke-linecap:square;stroke-width:2;"/>
   </g>
   <g id="text_19">
    <!-- Fastp: Sequence Quality -->
    <defs>
     <path d="M 9.8125 72.90625 
L 51.703125 72.90625 
L 51.703125 64.59375 
L 19.671875 64.59375 
L 19.671875 43.109375 
L 48.578125 43.109375 
L 48.578125 34.8125 
L 19.671875 34.8125 
L 19.671875 0 
L 9.8125 0 
z
" id="DejaVuSans-70"/>
     <path d="M 18.109375 8.203125 
L 18.109375 -20.796875 
L 9.078125 -20.796875 
L 9.078125 54.6875 
L 18.109375 54.6875 
L 18.109375 46.390625 
Q 20.953125 51.265625 25.265625 53.625 
Q 29.59375 56 35.59375 56 
Q 45.5625 56 51.78125 48.09375 
Q 58.015625 40.1875 58.015625 27.296875 
Q 58.015625 14.40625 51.78125 6.484375 
Q 45.5625 -1.421875 35.59375 -1.421875 
Q 29.59375 -1.421875 25.265625 0.953125 
Q 20.953125 3.328125 18.109375 8.203125 
z
M 48.6875 27.296875 
Q 48.6875 37.203125 44.609375 42.84375 
Q 40.53125 48.484375 33.40625 48.484375 
Q 26.265625 48.484375 22.1875 42.84375 
Q 18.109375 37.203125 18.109375 27.296875 
Q 18.109375 17.390625 22.1875 11.75 
Q 26.265625 6.109375 33.40625 6.109375 
Q 40.53125 6.109375 44.609375 11.75 
Q 48.6875 17.390625 48.6875 27.296875 
z
" id="DejaVuSans-112"/>
    </defs>
    <g transform="translate(417.883125 19.3575)scale(0.16 -0.16)">
     <use xlink:href="#DejaVuSans-70"/>
     <use x="57.378906" xlink:href="#DejaVuSans-97"/>
     <use x="118.658203" xlink:href="#DejaVuSans-115"/>
     <use x="170.757812" xlink:href="#DejaVuSans-116"/>
     <use x="209.966797" xlink:href="#DejaVuSans-112"/>
     <use x="273.443359" xlink:href="#DejaVuSans-58"/>
     <use x="307.134766" xlink:href="#DejaVuSans-32"/>
     <use x="338.921875" xlink:href="#DejaVuSans-83"/>
     <use x="402.398438" xlink:href="#DejaVuSans-101"/>
     <use x="463.921875" xlink:href="#DejaVuSans-113"/>
     <use x="527.398438" xlink:href="#DejaVuSans-117"/>
     <use x="590.777344" xlink:href="#DejaVuSans-101"/>
     <use x="652.300781" xlink:href="#DejaVuSans-110"/>
     <use x="715.679688" xlink:href="#DejaVuSans-99"/>
     <use x="770.660156" xlink:href="#DejaVuSans-101"/>
     <use x="832.183594" xlink:href="#DejaVuSans-32"/>
     <use x="863.970703" xlink:href="#DejaVuSans-81"/>
     <use x="942.681641" xlink:href="#DejaVuSans-117"/>
     <use x="1006.060547" xlink:href="#DejaVuSans-97"/>
     <use x="1067.339844" xlink:href="#DejaVuSans-108"/>
     <use x="1095.123047" xlink:href="#DejaVuSans-105"/>
     <use x="1122.90625" xlink:href="#DejaVuSans-116"/>
     <use x="1162.115234" xlink:href="#DejaVuSans-121"/>
    </g>
   </g>
   <g id="legend_1">
    <g id="line2d_13">
     <path d="M 45.258125 315.455394 
L 61.258125 315.455394 
" style="fill:none;stroke:#7cb5ec;stroke-linecap:square;"/>
    </g>
    <g id="line2d_14"/>
    <g id="text_20">
     <!-- Cvi-CPal_079-Ex1-1A-ssl-1-1.clmp.r1r2_fastp -->
     <defs>
      <path d="M 64.40625 67.28125 
L 64.40625 56.890625 
Q 59.421875 61.53125 53.78125 63.8125 
Q 48.140625 66.109375 41.796875 66.109375 
Q 29.296875 66.109375 22.65625 58.46875 
Q 16.015625 50.828125 16.015625 36.375 
Q 16.015625 21.96875 22.65625 14.328125 
Q 29.296875 6.6875 41.796875 6.6875 
Q 48.140625 6.6875 53.78125 8.984375 
Q 59.421875 11.28125 64.40625 15.921875 
L 64.40625 5.609375 
Q 59.234375 2.09375 53.4375 0.328125 
Q 47.65625 -1.421875 41.21875 -1.421875 
Q 24.65625 -1.421875 15.125 8.703125 
Q 5.609375 18.84375 5.609375 36.375 
Q 5.609375 53.953125 15.125 64.078125 
Q 24.65625 74.21875 41.21875 74.21875 
Q 47.75 74.21875 53.53125 72.484375 
Q 59.328125 70.75 64.40625 67.28125 
z
" id="DejaVuSans-67"/>
      <path d="M 2.984375 54.6875 
L 12.5 54.6875 
L 29.59375 8.796875 
L 46.6875 54.6875 
L 56.203125 54.6875 
L 35.6875 0 
L 23.484375 0 
z
" id="DejaVuSans-118"/>
      <path d="M 4.890625 31.390625 
L 31.203125 31.390625 
L 31.203125 23.390625 
L 4.890625 23.390625 
z
" id="DejaVuSans-45"/>
      <path d="M 50.984375 -16.609375 
L 50.984375 -23.578125 
L -0.984375 -23.578125 
L -0.984375 -16.609375 
z
" id="DejaVuSans-95"/>
      <path d="M 8.203125 72.90625 
L 55.078125 72.90625 
L 55.078125 68.703125 
L 28.609375 0 
L 18.3125 0 
L 43.21875 64.59375 
L 8.203125 64.59375 
z
" id="DejaVuSans-55"/>
      <path d="M 10.984375 1.515625 
L 10.984375 10.5 
Q 14.703125 8.734375 18.5 7.8125 
Q 22.3125 6.890625 25.984375 6.890625 
Q 35.75 6.890625 40.890625 13.453125 
Q 46.046875 20.015625 46.78125 33.40625 
Q 43.953125 29.203125 39.59375 26.953125 
Q 35.25 24.703125 29.984375 24.703125 
Q 19.046875 24.703125 12.671875 31.3125 
Q 6.296875 37.9375 6.296875 49.421875 
Q 6.296875 60.640625 12.9375 67.421875 
Q 19.578125 74.21875 30.609375 74.21875 
Q 43.265625 74.21875 49.921875 64.515625 
Q 56.59375 54.828125 56.59375 36.375 
Q 56.59375 19.140625 48.40625 8.859375 
Q 40.234375 -1.421875 26.421875 -1.421875 
Q 22.703125 -1.421875 18.890625 -0.6875 
Q 15.09375 0.046875 10.984375 1.515625 
z
M 30.609375 32.421875 
Q 37.25 32.421875 41.125 36.953125 
Q 45.015625 41.5 45.015625 49.421875 
Q 45.015625 57.28125 41.125 61.84375 
Q 37.25 66.40625 30.609375 66.40625 
Q 23.96875 66.40625 20.09375 61.84375 
Q 16.21875 57.28125 16.21875 49.421875 
Q 16.21875 41.5 20.09375 36.953125 
Q 23.96875 32.421875 30.609375 32.421875 
z
" id="DejaVuSans-57"/>
      <path d="M 9.8125 72.90625 
L 55.90625 72.90625 
L 55.90625 64.59375 
L 19.671875 64.59375 
L 19.671875 43.015625 
L 54.390625 43.015625 
L 54.390625 34.71875 
L 19.671875 34.71875 
L 19.671875 8.296875 
L 56.78125 8.296875 
L 56.78125 0 
L 9.8125 0 
z
" id="DejaVuSans-69"/>
      <path d="M 54.890625 54.6875 
L 35.109375 28.078125 
L 55.90625 0 
L 45.3125 0 
L 29.390625 21.484375 
L 13.484375 0 
L 2.875 0 
L 24.125 28.609375 
L 4.6875 54.6875 
L 15.28125 54.6875 
L 29.78125 35.203125 
L 44.28125 54.6875 
z
" id="DejaVuSans-120"/>
      <path d="M 34.1875 63.1875 
L 20.796875 26.90625 
L 47.609375 26.90625 
z
M 28.609375 72.90625 
L 39.796875 72.90625 
L 67.578125 0 
L 57.328125 0 
L 50.6875 18.703125 
L 17.828125 18.703125 
L 11.1875 0 
L 0.78125 0 
z
" id="DejaVuSans-65"/>
      <path d="M 10.6875 12.40625 
L 21 12.40625 
L 21 0 
L 10.6875 0 
z
" id="DejaVuSans-46"/>
      <path d="M 52 44.1875 
Q 55.375 50.25 60.0625 53.125 
Q 64.75 56 71.09375 56 
Q 79.640625 56 84.28125 50.015625 
Q 88.921875 44.046875 88.921875 33.015625 
L 88.921875 0 
L 79.890625 0 
L 79.890625 32.71875 
Q 79.890625 40.578125 77.09375 44.375 
Q 74.3125 48.1875 68.609375 48.1875 
Q 61.625 48.1875 57.5625 43.546875 
Q 53.515625 38.921875 53.515625 30.90625 
L 53.515625 0 
L 44.484375 0 
L 44.484375 32.71875 
Q 44.484375 40.625 41.703125 44.40625 
Q 38.921875 48.1875 33.109375 48.1875 
Q 26.21875 48.1875 22.15625 43.53125 
Q 18.109375 38.875 18.109375 30.90625 
L 18.109375 0 
L 9.078125 0 
L 9.078125 54.6875 
L 18.109375 54.6875 
L 18.109375 46.1875 
Q 21.1875 51.21875 25.484375 53.609375 
Q 29.78125 56 35.6875 56 
Q 41.65625 56 45.828125 52.96875 
Q 50 49.953125 52 44.1875 
z
" id="DejaVuSans-109"/>
     </defs>
     <g transform="translate(67.658125 318.255394)scale(0.08 -0.08)">
      <use xlink:href="#DejaVuSans-67"/>
      <use x="69.824219" xlink:href="#DejaVuSans-118"/>
      <use x="129.003906" xlink:href="#DejaVuSans-105"/>
      <use x="156.787109" xlink:href="#DejaVuSans-45"/>
      <use x="192.871094" xlink:href="#DejaVuSans-67"/>
      <use x="262.695312" xlink:href="#DejaVuSans-80"/>
      <use x="322.935547" xlink:href="#DejaVuSans-97"/>
      <use x="384.214844" xlink:href="#DejaVuSans-108"/>
      <use x="411.998047" xlink:href="#DejaVuSans-95"/>
      <use x="461.998047" xlink:href="#DejaVuSans-48"/>
      <use x="525.621094" xlink:href="#DejaVuSans-55"/>
      <use x="589.244141" xlink:href="#DejaVuSans-57"/>
      <use x="652.867188" xlink:href="#DejaVuSans-45"/>
      <use x="688.951172" xlink:href="#DejaVuSans-69"/>
      <use x="752.134766" xlink:href="#DejaVuSans-120"/>
      <use x="811.314453" xlink:href="#DejaVuSans-49"/>
      <use x="874.9375" xlink:href="#DejaVuSans-45"/>
      <use x="911.021484" xlink:href="#DejaVuSans-49"/>
      <use x="974.644531" xlink:href="#DejaVuSans-65"/>
      <use x="1043.021484" xlink:href="#DejaVuSans-45"/>
      <use x="1079.105469" xlink:href="#DejaVuSans-115"/>
      <use x="1131.205078" xlink:href="#DejaVuSans-115"/>
      <use x="1183.304688" xlink:href="#DejaVuSans-108"/>
      <use x="1211.087891" xlink:href="#DejaVuSans-45"/>
      <use x="1247.171875" xlink:href="#DejaVuSans-49"/>
      <use x="1310.794922" xlink:href="#DejaVuSans-45"/>
      <use x="1346.878906" xlink:href="#DejaVuSans-49"/>
      <use x="1410.501953" xlink:href="#DejaVuSans-46"/>
      <use x="1442.289062" xlink:href="#DejaVuSans-99"/>
      <use x="1497.269531" xlink:href="#DejaVuSans-108"/>
      <use x="1525.052734" xlink:href="#DejaVuSans-109"/>
      <use x="1622.464844" xlink:href="#DejaVuSans-112"/>
      <use x="1685.941406" xlink:href="#DejaVuSans-46"/>
      <use x="1717.728516" xlink:href="#DejaVuSans-114"/>
      <use x="1758.841797" xlink:href="#DejaVuSans-49"/>
      <use x="1822.464844" xlink:href="#DejaVuSans-114"/>
      <use x="1863.578125" xlink:href="#DejaVuSans-50"/>
      <use x="1927.201172" xlink:href="#DejaVuSans-95"/>
      <use x="1977.201172" xlink:href="#DejaVuSans-102"/>
      <use x="2012.40625" xlink:href="#DejaVuSans-97"/>
      <use x="2073.685547" xlink:href="#DejaVuSans-115"/>
      <use x="2125.785156" xlink:href="#DejaVuSans-116"/>
      <use x="2164.994141" xlink:href="#DejaVuSans-112"/>
     </g>
    </g>
    <g id="line2d_15">
     <path d="M 415.183125 315.455394 
L 431.183125 315.455394 
" style="fill:none;stroke:#434348;stroke-linecap:square;"/>
    </g>
    <g id="line2d_16"/>
    <g id="text_21">
     <!-- Cvi-CPal_079-Ex1-1B-ssl-1-1.clmp.r1r2_fastp -->
     <g transform="translate(437.583125 318.255394)scale(0.08 -0.08)">
      <use xlink:href="#DejaVuSans-67"/>
      <use x="69.824219" xlink:href="#DejaVuSans-118"/>
      <use x="129.003906" xlink:href="#DejaVuSans-105"/>
      <use x="156.787109" xlink:href="#DejaVuSans-45"/>
      <use x="192.871094" xlink:href="#DejaVuSans-67"/>
      <use x="262.695312" xlink:href="#DejaVuSans-80"/>
      <use x="322.935547" xlink:href="#DejaVuSans-97"/>
      <use x="384.214844" xlink:href="#DejaVuSans-108"/>
      <use x="411.998047" xlink:href="#DejaVuSans-95"/>
      <use x="461.998047" xlink:href="#DejaVuSans-48"/>
      <use x="525.621094" xlink:href="#DejaVuSans-55"/>
      <use x="589.244141" xlink:href="#DejaVuSans-57"/>
      <use x="652.867188" xlink:href="#DejaVuSans-45"/>
      <use x="688.951172" xlink:href="#DejaVuSans-69"/>
      <use x="752.134766" xlink:href="#DejaVuSans-120"/>
      <use x="811.314453" xlink:href="#DejaVuSans-49"/>
      <use x="874.9375" xlink:href="#DejaVuSans-45"/>
      <use x="911.021484" xlink:href="#DejaVuSans-49"/>
      <use x="974.644531" xlink:href="#DejaVuSans-66"/>
      <use x="1043.248047" xlink:href="#DejaVuSans-45"/>
      <use x="1079.332031" xlink:href="#DejaVuSans-115"/>
      <use x="1131.431641" xlink:href="#DejaVuSans-115"/>
      <use x="1183.53125" xlink:href="#DejaVuSans-108"/>
      <use x="1211.314453" xlink:href="#DejaVuSans-45"/>
      <use x="1247.398438" xlink:href="#DejaVuSans-49"/>
      <use x="1311.021484" xlink:href="#DejaVuSans-45"/>
      <use x="1347.105469" xlink:href="#DejaVuSans-49"/>
      <use x="1410.728516" xlink:href="#DejaVuSans-46"/>
      <use x="1442.515625" xlink:href="#DejaVuSans-99"/>
      <use x="1497.496094" xlink:href="#DejaVuSans-108"/>
      <use x="1525.279297" xlink:href="#DejaVuSans-109"/>
      <use x="1622.691406" xlink:href="#DejaVuSans-112"/>
      <use x="1686.167969" xlink:href="#DejaVuSans-46"/>
      <use x="1717.955078" xlink:href="#DejaVuSans-114"/>
      <use x="1759.068359" xlink:href="#DejaVuSans-49"/>
      <use x="1822.691406" xlink:href="#DejaVuSans-114"/>
      <use x="1863.804688" xlink:href="#DejaVuSans-50"/>
      <use x="1927.427734" xlink:href="#DejaVuSans-95"/>
      <use x="1977.427734" xlink:href="#DejaVuSans-102"/>
      <use x="2012.632812" xlink:href="#DejaVuSans-97"/>
      <use x="2073.912109" xlink:href="#DejaVuSans-115"/>
      <use x="2126.011719" xlink:href="#DejaVuSans-116"/>
      <use x="2165.220703" xlink:href="#DejaVuSans-112"/>
     </g>
    </g>
    <g id="line2d_17">
     <path d="M 785.126875 315.455394 
L 801.126875 315.455394 
" style="fill:none;stroke:#90ed7d;stroke-linecap:square;"/>
    </g>
    <g id="line2d_18"/>
    <g id="text_22">
     <!-- Cvi-CPal_079-Ex1-1C-ssl-1-1.clmp.r1r2_fastp -->
     <g transform="translate(807.526875 318.255394)scale(0.08 -0.08)">
      <use xlink:href="#DejaVuSans-67"/>
      <use x="69.824219" xlink:href="#DejaVuSans-118"/>
      <use x="129.003906" xlink:href="#DejaVuSans-105"/>
      <use x="156.787109" xlink:href="#DejaVuSans-45"/>
      <use x="192.871094" xlink:href="#DejaVuSans-67"/>
      <use x="262.695312" xlink:href="#DejaVuSans-80"/>
      <use x="322.935547" xlink:href="#DejaVuSans-97"/>
      <use x="384.214844" xlink:href="#DejaVuSans-108"/>
      <use x="411.998047" xlink:href="#DejaVuSans-95"/>
      <use x="461.998047" xlink:href="#DejaVuSans-48"/>
      <use x="525.621094" xlink:href="#DejaVuSans-55"/>
      <use x="589.244141" xlink:href="#DejaVuSans-57"/>
      <use x="652.867188" xlink:href="#DejaVuSans-45"/>
      <use x="688.951172" xlink:href="#DejaVuSans-69"/>
      <use x="752.134766" xlink:href="#DejaVuSans-120"/>
      <use x="811.314453" xlink:href="#DejaVuSans-49"/>
      <use x="874.9375" xlink:href="#DejaVuSans-45"/>
      <use x="911.021484" xlink:href="#DejaVuSans-49"/>
      <use x="974.644531" xlink:href="#DejaVuSans-67"/>
      <use x="1044.46875" xlink:href="#DejaVuSans-45"/>
      <use x="1080.552734" xlink:href="#DejaVuSans-115"/>
      <use x="1132.652344" xlink:href="#DejaVuSans-115"/>
      <use x="1184.751953" xlink:href="#DejaVuSans-108"/>
      <use x="1212.535156" xlink:href="#DejaVuSans-45"/>
      <use x="1248.619141" xlink:href="#DejaVuSans-49"/>
      <use x="1312.242188" xlink:href="#DejaVuSans-45"/>
      <use x="1348.326172" xlink:href="#DejaVuSans-49"/>
      <use x="1411.949219" xlink:href="#DejaVuSans-46"/>
      <use x="1443.736328" xlink:href="#DejaVuSans-99"/>
      <use x="1498.716797" xlink:href="#DejaVuSans-108"/>
      <use x="1526.5" xlink:href="#DejaVuSans-109"/>
      <use x="1623.912109" xlink:href="#DejaVuSans-112"/>
      <use x="1687.388672" xlink:href="#DejaVuSans-46"/>
      <use x="1719.175781" xlink:href="#DejaVuSans-114"/>
      <use x="1760.289062" xlink:href="#DejaVuSans-49"/>
      <use x="1823.912109" xlink:href="#DejaVuSans-114"/>
      <use x="1865.025391" xlink:href="#DejaVuSans-50"/>
      <use x="1928.648438" xlink:href="#DejaVuSans-95"/>
      <use x="1978.648438" xlink:href="#DejaVuSans-102"/>
      <use x="2013.853516" xlink:href="#DejaVuSans-97"/>
      <use x="2075.132812" xlink:href="#DejaVuSans-115"/>
      <use x="2127.232422" xlink:href="#DejaVuSans-116"/>
      <use x="2166.441406" xlink:href="#DejaVuSans-112"/>
     </g>
    </g>
   </g>
  </g>
 </g>
 <defs>
  <clipPath id="p0b0dbd2eff">
   <rect height="242.5072" width="955.06" x="38.058125" y="31.48286"/>
  </clipPath>
 </defs>
</svg>
