<?xml version="1.0" encoding="utf-8" standalone="no"?>
<!DOCTYPE svg PUBLIC "-//W3C//DTD SVG 1.1//EN"
  "http://www.w3.org/Graphics/SVG/1.1/DTD/svg11.dtd">
<!-- Created with matplotlib (https://matplotlib.org/) -->
<svg height="330.541644pt" version="1.1" viewBox="0 0 1000.098125 330.541644" width="1000.098125pt" xmlns="http://www.w3.org/2000/svg" xmlns:xlink="http://www.w3.org/1999/xlink">
 <defs>
  <style type="text/css">
*{stroke-linecap:butt;stroke-linejoin:round;}
  </style>
 </defs>
 <g id="figure_1">
  <g id="axes_1">
   <g id="patch_1">
    <path d="M 58.418125 273.99006 
L 985.263125 273.99006 
L 985.263125 31.48286 
L 58.418125 31.48286 
z
" style="fill:#ffffff;"/>
   </g>
   <g id="matplotlib.axis_1">
    <g id="xtick_1">
     <g id="text_1">
      <!-- 0 -->
      <defs>
       <path d="M 31.78125 66.40625 
Q 24.171875 66.40625 20.328125 58.90625 
Q 16.5 51.421875 16.5 36.375 
Q 16.5 21.390625 20.328125 13.890625 
Q 24.171875 6.390625 31.78125 6.390625 
Q 39.453125 6.390625 43.28125 13.890625 
Q 47.125 21.390625 47.125 36.375 
Q 47.125 51.421875 43.28125 58.90625 
Q 39.453125 66.40625 31.78125 66.40625 
z
M 31.78125 74.21875 
Q 44.046875 74.21875 50.515625 64.515625 
Q 56.984375 54.828125 56.984375 36.375 
Q 56.984375 17.96875 50.515625 8.265625 
Q 44.046875 -1.421875 31.78125 -1.421875 
Q 19.53125 -1.421875 13.0625 8.265625 
Q 6.59375 17.96875 6.59375 36.375 
Q 6.59375 54.828125 13.0625 64.515625 
Q 19.53125 74.21875 31.78125 74.21875 
z
" id="DejaVuSans-48"/>
      </defs>
      <g transform="translate(55.873125 287.06881)scale(0.08 -0.08)">
       <use xlink:href="#DejaVuSans-48"/>
      </g>
     </g>
    </g>
    <g id="xtick_2">
     <g id="text_2">
      <!-- 20 -->
      <defs>
       <path d="M 19.1875 8.296875 
L 53.609375 8.296875 
L 53.609375 0 
L 7.328125 0 
L 7.328125 8.296875 
Q 12.9375 14.109375 22.625 23.890625 
Q 32.328125 33.6875 34.8125 36.53125 
Q 39.546875 41.84375 41.421875 45.53125 
Q 43.3125 49.21875 43.3125 52.78125 
Q 43.3125 58.59375 39.234375 62.25 
Q 35.15625 65.921875 28.609375 65.921875 
Q 23.96875 65.921875 18.8125 64.3125 
Q 13.671875 62.703125 7.8125 59.421875 
L 7.8125 69.390625 
Q 13.765625 71.78125 18.9375 73 
Q 24.125 74.21875 28.421875 74.21875 
Q 39.75 74.21875 46.484375 68.546875 
Q 53.21875 62.890625 53.21875 53.421875 
Q 53.21875 48.921875 51.53125 44.890625 
Q 49.859375 40.875 45.40625 35.40625 
Q 44.1875 33.984375 37.640625 27.21875 
Q 31.109375 20.453125 19.1875 8.296875 
z
" id="DejaVuSans-50"/>
      </defs>
      <g transform="translate(238.697125 287.06881)scale(0.08 -0.08)">
       <use xlink:href="#DejaVuSans-50"/>
       <use x="63.623047" xlink:href="#DejaVuSans-48"/>
      </g>
     </g>
    </g>
    <g id="xtick_3">
     <g id="text_3">
      <!-- 40 -->
      <defs>
       <path d="M 37.796875 64.3125 
L 12.890625 25.390625 
L 37.796875 25.390625 
z
M 35.203125 72.90625 
L 47.609375 72.90625 
L 47.609375 25.390625 
L 58.015625 25.390625 
L 58.015625 17.1875 
L 47.609375 17.1875 
L 47.609375 0 
L 37.796875 0 
L 37.796875 17.1875 
L 4.890625 17.1875 
L 4.890625 26.703125 
z
" id="DejaVuSans-52"/>
      </defs>
      <g transform="translate(424.066125 287.06881)scale(0.08 -0.08)">
       <use xlink:href="#DejaVuSans-52"/>
       <use x="63.623047" xlink:href="#DejaVuSans-48"/>
      </g>
     </g>
    </g>
    <g id="xtick_4">
     <g id="text_4">
      <!-- 60 -->
      <defs>
       <path d="M 33.015625 40.375 
Q 26.375 40.375 22.484375 35.828125 
Q 18.609375 31.296875 18.609375 23.390625 
Q 18.609375 15.53125 22.484375 10.953125 
Q 26.375 6.390625 33.015625 6.390625 
Q 39.65625 6.390625 43.53125 10.953125 
Q 47.40625 15.53125 47.40625 23.390625 
Q 47.40625 31.296875 43.53125 35.828125 
Q 39.65625 40.375 33.015625 40.375 
z
M 52.59375 71.296875 
L 52.59375 62.3125 
Q 48.875 64.0625 45.09375 64.984375 
Q 41.3125 65.921875 37.59375 65.921875 
Q 27.828125 65.921875 22.671875 59.328125 
Q 17.53125 52.734375 16.796875 39.40625 
Q 19.671875 43.65625 24.015625 45.921875 
Q 28.375 48.1875 33.59375 48.1875 
Q 44.578125 48.1875 50.953125 41.515625 
Q 57.328125 34.859375 57.328125 23.390625 
Q 57.328125 12.15625 50.6875 5.359375 
Q 44.046875 -1.421875 33.015625 -1.421875 
Q 20.359375 -1.421875 13.671875 8.265625 
Q 6.984375 17.96875 6.984375 36.375 
Q 6.984375 53.65625 15.1875 63.9375 
Q 23.390625 74.21875 37.203125 74.21875 
Q 40.921875 74.21875 44.703125 73.484375 
Q 48.484375 72.75 52.59375 71.296875 
z
" id="DejaVuSans-54"/>
      </defs>
      <g transform="translate(609.435125 287.06881)scale(0.08 -0.08)">
       <use xlink:href="#DejaVuSans-54"/>
       <use x="63.623047" xlink:href="#DejaVuSans-48"/>
      </g>
     </g>
    </g>
    <g id="xtick_5">
     <g id="text_5">
      <!-- 80 -->
      <defs>
       <path d="M 31.78125 34.625 
Q 24.75 34.625 20.71875 30.859375 
Q 16.703125 27.09375 16.703125 20.515625 
Q 16.703125 13.921875 20.71875 10.15625 
Q 24.75 6.390625 31.78125 6.390625 
Q 38.8125 6.390625 42.859375 10.171875 
Q 46.921875 13.96875 46.921875 20.515625 
Q 46.921875 27.09375 42.890625 30.859375 
Q 38.875 34.625 31.78125 34.625 
z
M 21.921875 38.8125 
Q 15.578125 40.375 12.03125 44.71875 
Q 8.5 49.078125 8.5 55.328125 
Q 8.5 64.0625 14.71875 69.140625 
Q 20.953125 74.21875 31.78125 74.21875 
Q 42.671875 74.21875 48.875 69.140625 
Q 55.078125 64.0625 55.078125 55.328125 
Q 55.078125 49.078125 51.53125 44.71875 
Q 48 40.375 41.703125 38.8125 
Q 48.828125 37.15625 52.796875 32.3125 
Q 56.78125 27.484375 56.78125 20.515625 
Q 56.78125 9.90625 50.3125 4.234375 
Q 43.84375 -1.421875 31.78125 -1.421875 
Q 19.734375 -1.421875 13.25 4.234375 
Q 6.78125 9.90625 6.78125 20.515625 
Q 6.78125 27.484375 10.78125 32.3125 
Q 14.796875 37.15625 21.921875 38.8125 
z
M 18.3125 54.390625 
Q 18.3125 48.734375 21.84375 45.5625 
Q 25.390625 42.390625 31.78125 42.390625 
Q 38.140625 42.390625 41.71875 45.5625 
Q 45.3125 48.734375 45.3125 54.390625 
Q 45.3125 60.0625 41.71875 63.234375 
Q 38.140625 66.40625 31.78125 66.40625 
Q 25.390625 66.40625 21.84375 63.234375 
Q 18.3125 60.0625 18.3125 54.390625 
z
" id="DejaVuSans-56"/>
      </defs>
      <g transform="translate(794.804125 287.06881)scale(0.08 -0.08)">
       <use xlink:href="#DejaVuSans-56"/>
       <use x="63.623047" xlink:href="#DejaVuSans-48"/>
      </g>
     </g>
    </g>
    <g id="xtick_6">
     <g id="text_6">
      <!-- 100 -->
      <defs>
       <path d="M 12.40625 8.296875 
L 28.515625 8.296875 
L 28.515625 63.921875 
L 10.984375 60.40625 
L 10.984375 69.390625 
L 28.421875 72.90625 
L 38.28125 72.90625 
L 38.28125 8.296875 
L 54.390625 8.296875 
L 54.390625 0 
L 12.40625 0 
z
" id="DejaVuSans-49"/>
      </defs>
      <g transform="translate(977.628125 287.06881)scale(0.08 -0.08)">
       <use xlink:href="#DejaVuSans-49"/>
       <use x="63.623047" xlink:href="#DejaVuSans-48"/>
       <use x="127.246094" xlink:href="#DejaVuSans-48"/>
      </g>
     </g>
    </g>
    <g id="text_7">
     <!-- % GC -->
     <defs>
      <path d="M 72.703125 32.078125 
Q 68.453125 32.078125 66.03125 28.46875 
Q 63.625 24.859375 63.625 18.40625 
Q 63.625 12.0625 66.03125 8.421875 
Q 68.453125 4.78125 72.703125 4.78125 
Q 76.859375 4.78125 79.265625 8.421875 
Q 81.6875 12.0625 81.6875 18.40625 
Q 81.6875 24.8125 79.265625 28.4375 
Q 76.859375 32.078125 72.703125 32.078125 
z
M 72.703125 38.28125 
Q 80.421875 38.28125 84.953125 32.90625 
Q 89.5 27.546875 89.5 18.40625 
Q 89.5 9.28125 84.9375 3.921875 
Q 80.375 -1.421875 72.703125 -1.421875 
Q 64.890625 -1.421875 60.34375 3.921875 
Q 55.8125 9.28125 55.8125 18.40625 
Q 55.8125 27.59375 60.375 32.9375 
Q 64.9375 38.28125 72.703125 38.28125 
z
M 22.3125 68.015625 
Q 18.109375 68.015625 15.6875 64.375 
Q 13.28125 60.75 13.28125 54.390625 
Q 13.28125 47.953125 15.671875 44.328125 
Q 18.0625 40.71875 22.3125 40.71875 
Q 26.5625 40.71875 28.96875 44.328125 
Q 31.390625 47.953125 31.390625 54.390625 
Q 31.390625 60.6875 28.953125 64.34375 
Q 26.515625 68.015625 22.3125 68.015625 
z
M 66.40625 74.21875 
L 74.21875 74.21875 
L 28.609375 -1.421875 
L 20.796875 -1.421875 
z
M 22.3125 74.21875 
Q 30.03125 74.21875 34.609375 68.875 
Q 39.203125 63.53125 39.203125 54.390625 
Q 39.203125 45.171875 34.640625 39.84375 
Q 30.078125 34.515625 22.3125 34.515625 
Q 14.546875 34.515625 10.03125 39.859375 
Q 5.515625 45.21875 5.515625 54.390625 
Q 5.515625 63.484375 10.046875 68.84375 
Q 14.59375 74.21875 22.3125 74.21875 
z
" id="DejaVuSans-37"/>
      <path id="DejaVuSans-32"/>
      <path d="M 59.515625 10.40625 
L 59.515625 29.984375 
L 43.40625 29.984375 
L 43.40625 38.09375 
L 69.28125 38.09375 
L 69.28125 6.78125 
Q 63.578125 2.734375 56.6875 0.65625 
Q 49.8125 -1.421875 42 -1.421875 
Q 24.90625 -1.421875 15.25 8.5625 
Q 5.609375 18.5625 5.609375 36.375 
Q 5.609375 54.25 15.25 64.234375 
Q 24.90625 74.21875 42 74.21875 
Q 49.125 74.21875 55.546875 72.453125 
Q 61.96875 70.703125 67.390625 67.28125 
L 67.390625 56.78125 
Q 61.921875 61.421875 55.765625 63.765625 
Q 49.609375 66.109375 42.828125 66.109375 
Q 29.4375 66.109375 22.71875 58.640625 
Q 16.015625 51.171875 16.015625 36.375 
Q 16.015625 21.625 22.71875 14.15625 
Q 29.4375 6.6875 42.828125 6.6875 
Q 48.046875 6.6875 52.140625 7.59375 
Q 56.25 8.5 59.515625 10.40625 
z
" id="DejaVuSans-71"/>
      <path d="M 64.40625 67.28125 
L 64.40625 56.890625 
Q 59.421875 61.53125 53.78125 63.8125 
Q 48.140625 66.109375 41.796875 66.109375 
Q 29.296875 66.109375 22.65625 58.46875 
Q 16.015625 50.828125 16.015625 36.375 
Q 16.015625 21.96875 22.65625 14.328125 
Q 29.296875 6.6875 41.796875 6.6875 
Q 48.140625 6.6875 53.78125 8.984375 
Q 59.421875 11.28125 64.40625 15.921875 
L 64.40625 5.609375 
Q 59.234375 2.09375 53.4375 0.328125 
Q 47.65625 -1.421875 41.21875 -1.421875 
Q 24.65625 -1.421875 15.125 8.703125 
Q 5.609375 18.84375 5.609375 36.375 
Q 5.609375 53.953125 15.125 64.078125 
Q 24.65625 74.21875 41.21875 74.21875 
Q 47.75 74.21875 53.53125 72.484375 
Q 59.328125 70.75 64.40625 67.28125 
z
" id="DejaVuSans-67"/>
     </defs>
     <g transform="translate(508.135156 300.330997)scale(0.1 -0.1)">
      <use xlink:href="#DejaVuSans-37"/>
      <use x="95.019531" xlink:href="#DejaVuSans-32"/>
      <use x="126.806641" xlink:href="#DejaVuSans-71"/>
      <use x="204.296875" xlink:href="#DejaVuSans-67"/>
     </g>
    </g>
   </g>
   <g id="matplotlib.axis_2">
    <g id="ytick_1">
     <g id="line2d_1">
      <path clip-path="url(#p42ebadee2a)" d="M 58.418125 273.99006 
L 985.263125 273.99006 
" style="fill:none;stroke:#dedede;stroke-linecap:square;"/>
     </g>
     <g id="text_8">
      <!-- 0 -->
      <g transform="translate(46.328125 277.029435)scale(0.08 -0.08)">
       <use xlink:href="#DejaVuSans-48"/>
      </g>
     </g>
    </g>
    <g id="ytick_2">
     <g id="line2d_2">
      <path clip-path="url(#p42ebadee2a)" d="M 58.418125 235.386254 
L 985.263125 235.386254 
" style="fill:none;stroke:#dedede;stroke-linecap:square;"/>
     </g>
     <g id="text_9">
      <!-- 50000 -->
      <defs>
       <path d="M 10.796875 72.90625 
L 49.515625 72.90625 
L 49.515625 64.59375 
L 19.828125 64.59375 
L 19.828125 46.734375 
Q 21.96875 47.46875 24.109375 47.828125 
Q 26.265625 48.1875 28.421875 48.1875 
Q 40.625 48.1875 47.75 41.5 
Q 54.890625 34.8125 54.890625 23.390625 
Q 54.890625 11.625 47.5625 5.09375 
Q 40.234375 -1.421875 26.90625 -1.421875 
Q 22.3125 -1.421875 17.546875 -0.640625 
Q 12.796875 0.140625 7.71875 1.703125 
L 7.71875 11.625 
Q 12.109375 9.234375 16.796875 8.0625 
Q 21.484375 6.890625 26.703125 6.890625 
Q 35.15625 6.890625 40.078125 11.328125 
Q 45.015625 15.765625 45.015625 23.390625 
Q 45.015625 31 40.078125 35.4375 
Q 35.15625 39.890625 26.703125 39.890625 
Q 22.75 39.890625 18.8125 39.015625 
Q 14.890625 38.140625 10.796875 36.28125 
z
" id="DejaVuSans-53"/>
      </defs>
      <g transform="translate(25.968125 238.425629)scale(0.08 -0.08)">
       <use xlink:href="#DejaVuSans-53"/>
       <use x="63.623047" xlink:href="#DejaVuSans-48"/>
       <use x="127.246094" xlink:href="#DejaVuSans-48"/>
       <use x="190.869141" xlink:href="#DejaVuSans-48"/>
       <use x="254.492188" xlink:href="#DejaVuSans-48"/>
      </g>
     </g>
    </g>
    <g id="ytick_3">
     <g id="line2d_3">
      <path clip-path="url(#p42ebadee2a)" d="M 58.418125 196.782447 
L 985.263125 196.782447 
" style="fill:none;stroke:#dedede;stroke-linecap:square;"/>
     </g>
     <g id="text_10">
      <!-- 100000 -->
      <g transform="translate(20.878125 199.821822)scale(0.08 -0.08)">
       <use xlink:href="#DejaVuSans-49"/>
       <use x="63.623047" xlink:href="#DejaVuSans-48"/>
       <use x="127.246094" xlink:href="#DejaVuSans-48"/>
       <use x="190.869141" xlink:href="#DejaVuSans-48"/>
       <use x="254.492188" xlink:href="#DejaVuSans-48"/>
       <use x="318.115234" xlink:href="#DejaVuSans-48"/>
      </g>
     </g>
    </g>
    <g id="ytick_4">
     <g id="line2d_4">
      <path clip-path="url(#p42ebadee2a)" d="M 58.418125 158.178641 
L 985.263125 158.178641 
" style="fill:none;stroke:#dedede;stroke-linecap:square;"/>
     </g>
     <g id="text_11">
      <!-- 150000 -->
      <g transform="translate(20.878125 161.218016)scale(0.08 -0.08)">
       <use xlink:href="#DejaVuSans-49"/>
       <use x="63.623047" xlink:href="#DejaVuSans-53"/>
       <use x="127.246094" xlink:href="#DejaVuSans-48"/>
       <use x="190.869141" xlink:href="#DejaVuSans-48"/>
       <use x="254.492188" xlink:href="#DejaVuSans-48"/>
       <use x="318.115234" xlink:href="#DejaVuSans-48"/>
      </g>
     </g>
    </g>
    <g id="ytick_5">
     <g id="line2d_5">
      <path clip-path="url(#p42ebadee2a)" d="M 58.418125 119.574835 
L 985.263125 119.574835 
" style="fill:none;stroke:#dedede;stroke-linecap:square;"/>
     </g>
     <g id="text_12">
      <!-- 200000 -->
      <g transform="translate(20.878125 122.61421)scale(0.08 -0.08)">
       <use xlink:href="#DejaVuSans-50"/>
       <use x="63.623047" xlink:href="#DejaVuSans-48"/>
       <use x="127.246094" xlink:href="#DejaVuSans-48"/>
       <use x="190.869141" xlink:href="#DejaVuSans-48"/>
       <use x="254.492188" xlink:href="#DejaVuSans-48"/>
       <use x="318.115234" xlink:href="#DejaVuSans-48"/>
      </g>
     </g>
    </g>
    <g id="ytick_6">
     <g id="line2d_6">
      <path clip-path="url(#p42ebadee2a)" d="M 58.418125 80.971029 
L 985.263125 80.971029 
" style="fill:none;stroke:#dedede;stroke-linecap:square;"/>
     </g>
     <g id="text_13">
      <!-- 250000 -->
      <g transform="translate(20.878125 84.010404)scale(0.08 -0.08)">
       <use xlink:href="#DejaVuSans-50"/>
       <use x="63.623047" xlink:href="#DejaVuSans-53"/>
       <use x="127.246094" xlink:href="#DejaVuSans-48"/>
       <use x="190.869141" xlink:href="#DejaVuSans-48"/>
       <use x="254.492188" xlink:href="#DejaVuSans-48"/>
       <use x="318.115234" xlink:href="#DejaVuSans-48"/>
      </g>
     </g>
    </g>
    <g id="ytick_7">
     <g id="line2d_7">
      <path clip-path="url(#p42ebadee2a)" d="M 58.418125 42.367222 
L 985.263125 42.367222 
" style="fill:none;stroke:#dedede;stroke-linecap:square;"/>
     </g>
     <g id="text_14">
      <!-- 300000 -->
      <defs>
       <path d="M 40.578125 39.3125 
Q 47.65625 37.796875 51.625 33 
Q 55.609375 28.21875 55.609375 21.1875 
Q 55.609375 10.40625 48.1875 4.484375 
Q 40.765625 -1.421875 27.09375 -1.421875 
Q 22.515625 -1.421875 17.65625 -0.515625 
Q 12.796875 0.390625 7.625 2.203125 
L 7.625 11.71875 
Q 11.71875 9.328125 16.59375 8.109375 
Q 21.484375 6.890625 26.8125 6.890625 
Q 36.078125 6.890625 40.9375 10.546875 
Q 45.796875 14.203125 45.796875 21.1875 
Q 45.796875 27.640625 41.28125 31.265625 
Q 36.765625 34.90625 28.71875 34.90625 
L 20.21875 34.90625 
L 20.21875 43.015625 
L 29.109375 43.015625 
Q 36.375 43.015625 40.234375 45.921875 
Q 44.09375 48.828125 44.09375 54.296875 
Q 44.09375 59.90625 40.109375 62.90625 
Q 36.140625 65.921875 28.71875 65.921875 
Q 24.65625 65.921875 20.015625 65.03125 
Q 15.375 64.15625 9.8125 62.3125 
L 9.8125 71.09375 
Q 15.4375 72.65625 20.34375 73.4375 
Q 25.25 74.21875 29.59375 74.21875 
Q 40.828125 74.21875 47.359375 69.109375 
Q 53.90625 64.015625 53.90625 55.328125 
Q 53.90625 49.265625 50.4375 45.09375 
Q 46.96875 40.921875 40.578125 39.3125 
z
" id="DejaVuSans-51"/>
      </defs>
      <g transform="translate(20.878125 45.406597)scale(0.08 -0.08)">
       <use xlink:href="#DejaVuSans-51"/>
       <use x="63.623047" xlink:href="#DejaVuSans-48"/>
       <use x="127.246094" xlink:href="#DejaVuSans-48"/>
       <use x="190.869141" xlink:href="#DejaVuSans-48"/>
       <use x="254.492188" xlink:href="#DejaVuSans-48"/>
       <use x="318.115234" xlink:href="#DejaVuSans-48"/>
      </g>
     </g>
    </g>
    <g id="text_15">
     <!-- Count -->
     <defs>
      <path d="M 30.609375 48.390625 
Q 23.390625 48.390625 19.1875 42.75 
Q 14.984375 37.109375 14.984375 27.296875 
Q 14.984375 17.484375 19.15625 11.84375 
Q 23.34375 6.203125 30.609375 6.203125 
Q 37.796875 6.203125 41.984375 11.859375 
Q 46.1875 17.53125 46.1875 27.296875 
Q 46.1875 37.015625 41.984375 42.703125 
Q 37.796875 48.390625 30.609375 48.390625 
z
M 30.609375 56 
Q 42.328125 56 49.015625 48.375 
Q 55.71875 40.765625 55.71875 27.296875 
Q 55.71875 13.875 49.015625 6.21875 
Q 42.328125 -1.421875 30.609375 -1.421875 
Q 18.84375 -1.421875 12.171875 6.21875 
Q 5.515625 13.875 5.515625 27.296875 
Q 5.515625 40.765625 12.171875 48.375 
Q 18.84375 56 30.609375 56 
z
" id="DejaVuSans-111"/>
      <path d="M 8.5 21.578125 
L 8.5 54.6875 
L 17.484375 54.6875 
L 17.484375 21.921875 
Q 17.484375 14.15625 20.5 10.265625 
Q 23.53125 6.390625 29.59375 6.390625 
Q 36.859375 6.390625 41.078125 11.03125 
Q 45.3125 15.671875 45.3125 23.6875 
L 45.3125 54.6875 
L 54.296875 54.6875 
L 54.296875 0 
L 45.3125 0 
L 45.3125 8.40625 
Q 42.046875 3.421875 37.71875 1 
Q 33.40625 -1.421875 27.6875 -1.421875 
Q 18.265625 -1.421875 13.375 4.4375 
Q 8.5 10.296875 8.5 21.578125 
z
M 31.109375 56 
z
" id="DejaVuSans-117"/>
      <path d="M 54.890625 33.015625 
L 54.890625 0 
L 45.90625 0 
L 45.90625 32.71875 
Q 45.90625 40.484375 42.875 44.328125 
Q 39.84375 48.1875 33.796875 48.1875 
Q 26.515625 48.1875 22.3125 43.546875 
Q 18.109375 38.921875 18.109375 30.90625 
L 18.109375 0 
L 9.078125 0 
L 9.078125 54.6875 
L 18.109375 54.6875 
L 18.109375 46.1875 
Q 21.34375 51.125 25.703125 53.5625 
Q 30.078125 56 35.796875 56 
Q 45.21875 56 50.046875 50.171875 
Q 54.890625 44.34375 54.890625 33.015625 
z
" id="DejaVuSans-110"/>
      <path d="M 18.3125 70.21875 
L 18.3125 54.6875 
L 36.8125 54.6875 
L 36.8125 47.703125 
L 18.3125 47.703125 
L 18.3125 18.015625 
Q 18.3125 11.328125 20.140625 9.421875 
Q 21.96875 7.515625 27.59375 7.515625 
L 36.8125 7.515625 
L 36.8125 0 
L 27.59375 0 
Q 17.1875 0 13.234375 3.875 
Q 9.28125 7.765625 9.28125 18.015625 
L 9.28125 47.703125 
L 2.6875 47.703125 
L 2.6875 54.6875 
L 9.28125 54.6875 
L 9.28125 70.21875 
z
" id="DejaVuSans-116"/>
     </defs>
     <g transform="translate(14.798438 167.584897)rotate(-90)scale(0.1 -0.1)">
      <use xlink:href="#DejaVuSans-67"/>
      <use x="69.824219" xlink:href="#DejaVuSans-111"/>
      <use x="131.005859" xlink:href="#DejaVuSans-117"/>
      <use x="194.384766" xlink:href="#DejaVuSans-110"/>
      <use x="257.763672" xlink:href="#DejaVuSans-116"/>
     </g>
    </g>
   </g>
   <g id="line2d_8">
    <path clip-path="url(#p42ebadee2a)" d="M 58.418125 273.99006 
L 67.686575 273.99006 
L 76.955025 273.989288 
L 86.223475 273.986972 
L 95.491925 273.986972 
L 104.760375 273.986586 
L 114.028825 273.983883 
L 123.297275 273.980409 
L 132.565725 273.977707 
L 141.834175 273.972688 
L 151.102625 273.965354 
L 160.371075 273.959949 
L 169.639525 273.947596 
L 178.907975 273.93254 
L 188.176425 273.902043 
L 197.444875 273.839119 
L 206.713325 273.789706 
L 215.981775 273.714429 
L 225.250225 273.552679 
L 234.518675 273.344218 
L 243.787125 273.061638 
L 253.055575 272.556315 
L 262.324025 271.683869 
L 271.592475 270.482518 
L 280.860925 268.806341 
L 290.129375 266.406728 
L 299.397825 263.09954 
L 308.666275 258.819536 
L 317.934725 253.167553 
L 327.203175 246.346646 
L 336.471625 238.276907 
L 345.740075 228.112139 
L 355.008525 215.817598 
L 364.276975 201.957674 
L 373.545425 186.630805 
L 382.813875 169.576801 
L 392.082325 151.506359 
L 401.350775 132.656507 
L 410.619225 113.900075 
L 419.887675 95.801453 
L 429.156125 79.149315 
L 438.424575 65.418327 
L 447.693025 54.991439 
L 456.961475 47.371048 
L 466.229925 43.030822 
L 475.498375 43.374396 
L 484.766825 47.47026 
L 494.035275 55.067489 
L 503.303725 65.517153 
L 512.572175 77.811693 
L 521.840625 92.177714 
L 531.109075 110.931829 
L 540.377525 130.629035 
L 549.645975 147.344097 
L 558.914425 162.055235 
L 568.182875 175.428366 
L 577.451325 189.713318 
L 586.719775 203.730361 
L 595.988225 215.730354 
L 605.256675 223.902779 
L 614.525125 228.481577 
L 623.793575 232.378631 
L 633.062025 237.874269 
L 642.330475 245.639811 
L 651.598925 252.693884 
L 660.867375 257.142201 
L 670.135825 260.528141 
L 679.404275 263.328847 
L 688.672725 265.399555 
L 697.941175 266.924405 
L 707.209625 267.816153 
L 716.478075 268.233074 
L 725.746525 268.515654 
L 735.014975 269.136403 
L 744.283425 269.823937 
L 753.551875 270.248193 
L 762.820325 270.587521 
L 772.088775 270.919127 
L 781.357225 270.974331 
L 790.625675 270.923374 
L 799.894125 271.382373 
L 809.162575 272.150975 
L 818.431025 272.564421 
L 827.699475 272.822295 
L 836.967925 273.128037 
L 846.236375 273.332637 
L 855.504825 273.510601 
L 864.773275 273.643784 
L 874.041725 273.718675 
L 883.310175 273.778511 
L 892.578625 273.827924 
L 901.847075 273.864598 
L 911.115525 273.897797 
L 920.383975 273.931382 
L 929.652425 273.945666 
L 938.920875 273.94721 
L 948.189325 273.94721 
L 957.457775 273.954158 
L 966.726225 273.967284 
L 975.994675 273.981181 
L 985.263125 273.987744 
" style="fill:none;stroke:#5cb85c;stroke-linecap:square;"/>
   </g>
   <g id="line2d_9">
    <path clip-path="url(#p42ebadee2a)" d="M 58.418125 273.980795 
L 67.686575 273.977321 
L 76.955025 273.967284 
L 86.223475 273.944894 
L 95.491925 273.920573 
L 104.760375 273.898955 
L 114.028825 273.868072 
L 123.297275 273.826766 
L 132.565725 273.780441 
L 141.834175 273.74647 
L 151.102625 273.730642 
L 160.371075 273.72215 
L 169.639525 273.678527 
L 178.907975 273.606338 
L 188.176425 273.573139 
L 197.444875 273.549205 
L 206.713325 273.516391 
L 215.981775 273.430305 
L 225.250225 273.249253 
L 234.518675 273.011454 
L 243.787125 272.654368 
L 253.055575 272.143254 
L 262.324025 271.467301 
L 271.592475 270.343544 
L 280.860925 268.693232 
L 290.129375 266.150785 
L 299.397825 262.718907 
L 308.666275 258.764719 
L 317.934725 253.564014 
L 327.203175 246.897909 
L 336.471625 238.857508 
L 345.740075 228.712428 
L 355.008525 217.091524 
L 364.276975 203.60567 
L 373.545425 187.953371 
L 382.813875 170.740706 
L 392.082325 152.316653 
L 401.350775 133.450587 
L 410.619225 114.977122 
L 419.887675 97.581474 
L 429.156125 80.678026 
L 438.424575 66.051044 
L 447.693025 55.382496 
L 456.961475 47.787583 
L 466.229925 43.553131 
L 475.498375 43.828763 
L 484.766825 48.083288 
L 494.035275 55.521855 
L 503.303725 65.956078 
L 512.572175 79.327279 
L 521.840625 94.229892 
L 531.109075 111.756406 
L 540.377525 130.671499 
L 549.645975 147.086224 
L 558.914425 161.805469 
L 568.182875 175.383586 
L 577.451325 189.550796 
L 586.719775 203.906394 
L 595.988225 215.736916 
L 605.256675 223.793531 
L 614.525125 228.636764 
L 623.793575 232.75 
L 633.062025 238.242935 
L 642.330475 245.587696 
L 651.598925 252.555297 
L 660.867375 257.685742 
L 670.135825 261.061259 
L 679.404275 263.340428 
L 688.672725 265.24514 
L 697.941175 266.739879 
L 707.209625 267.590321 
L 716.478075 267.960532 
L 725.746525 268.355834 
L 735.014975 268.83761 
L 744.283425 269.473029 
L 753.551875 269.929326 
L 762.820325 270.19878 
L 772.088775 270.536563 
L 781.357225 270.650445 
L 790.625675 270.611841 
L 799.894125 271.026832 
L 809.162575 271.691975 
L 818.431025 272.069135 
L 827.699475 272.359435 
L 836.967925 272.653982 
L 846.236375 272.880587 
L 855.504825 273.050443 
L 864.773275 273.193663 
L 874.041725 273.288629 
L 883.310175 273.3392 
L 892.578625 273.368925 
L 901.847075 273.418724 
L 911.115525 273.479332 
L 920.383975 273.52334 
L 929.652425 273.545344 
L 938.920875 273.56619 
L 948.189325 273.590897 
L 957.457775 273.58472 
L 966.726225 273.578157 
L 975.994675 273.491299 
L 985.263125 271.200549 
" style="fill:none;stroke:#5cb85c;stroke-linecap:square;"/>
   </g>
   <g id="line2d_10">
    <path clip-path="url(#p42ebadee2a)" d="M 58.418125 273.99006 
L 67.686575 273.989674 
L 76.955025 273.988902 
L 86.223475 273.988902 
L 95.491925 273.987358 
L 104.760375 273.986586 
L 114.028825 273.986586 
L 123.297275 273.985814 
L 132.565725 273.973846 
L 141.834175 273.972688 
L 151.102625 273.983111 
L 160.371075 273.979637 
L 169.639525 273.976935 
L 178.907975 273.967284 
L 188.176425 273.954544 
L 197.444875 273.936401 
L 206.713325 273.894709 
L 215.981775 273.833715 
L 225.250225 273.735661 
L 234.518675 273.571595 
L 243.787125 273.316424 
L 253.055575 272.946599 
L 262.324025 272.396881 
L 271.592475 271.458036 
L 280.860925 270.058648 
L 290.129375 267.975973 
L 299.397825 265.227768 
L 308.666275 261.505975 
L 317.934725 256.583604 
L 327.203175 250.517788 
L 336.471625 242.813626 
L 345.740075 233.482314 
L 355.008525 222.704517 
L 364.276975 210.211554 
L 373.545425 196.018092 
L 382.813875 180.563058 
L 392.082325 164.179989 
L 401.350775 146.937599 
L 410.619225 130.270406 
L 419.887675 114.592628 
L 429.156125 100.219273 
L 438.424575 88.311929 
L 447.693025 79.186375 
L 456.961475 73.854417 
L 466.229925 71.194229 
L 475.498375 72.130757 
L 484.766825 76.760126 
L 494.035275 84.349248 
L 503.303725 94.097095 
L 512.572175 106.262698 
L 521.840625 120.565795 
L 531.109075 136.016196 
L 540.377525 152.037162 
L 549.645975 165.66971 
L 558.914425 178.6541 
L 568.182875 191.176403 
L 577.451325 203.017348 
L 586.719775 214.364165 
L 595.988225 223.868036 
L 605.256675 231.315482 
L 614.525125 236.881379 
L 623.793575 241.697204 
L 633.062025 246.441612 
L 642.330475 251.964272 
L 651.598925 257.151852 
L 660.867375 260.415032 
L 670.135825 262.906521 
L 679.404275 265.060228 
L 688.672725 266.741809 
L 697.941175 268.12923 
L 707.209625 269.080042 
L 716.478075 269.655625 
L 725.746525 270.185269 
L 735.014975 270.670133 
L 744.283425 271.027218 
L 753.551875 271.274282 
L 762.820325 271.368476 
L 772.088775 271.537946 
L 781.357225 271.453018 
L 790.625675 270.938815 
L 799.894125 270.885542 
L 809.162575 271.724403 
L 818.431025 272.643559 
L 827.699475 273.103331 
L 836.967925 273.321442 
L 846.236375 273.476629 
L 855.504825 273.621008 
L 864.773275 273.736819 
L 874.041725 273.794339 
L 883.310175 273.848384 
L 892.578625 273.879267 
L 901.847075 273.898569 
L 911.115525 273.923661 
L 920.383975 273.939103 
L 929.652425 273.951456 
L 938.920875 273.954931 
L 948.189325 273.955317 
L 957.457775 273.968828 
L 966.726225 273.980023 
L 975.994675 273.985042 
L 985.263125 273.989674 
" style="fill:none;stroke:#5cb85c;stroke-linecap:square;"/>
   </g>
   <g id="line2d_11">
    <path clip-path="url(#p42ebadee2a)" d="M 58.418125 273.9862 
L 67.686575 273.985042 
L 76.955025 273.977321 
L 86.223475 273.963037 
L 95.491925 273.949912 
L 104.760375 273.933312 
L 114.028825 273.903974 
L 123.297275 273.884672 
L 132.565725 273.87309 
L 141.834175 273.868844 
L 151.102625 273.86537 
L 160.371075 273.842593 
L 169.639525 273.819431 
L 178.907975 273.807078 
L 188.176425 273.78932 
L 197.444875 273.760367 
L 206.713325 273.726396 
L 215.981775 273.676983 
L 225.250225 273.584334 
L 234.518675 273.443044 
L 243.787125 273.205631 
L 253.055575 272.805695 
L 262.324025 272.233201 
L 271.592475 271.281231 
L 280.860925 269.974878 
L 290.129375 267.964006 
L 299.397825 265.099989 
L 308.666275 261.541491 
L 317.934725 256.807506 
L 327.203175 250.819283 
L 336.471625 243.485718 
L 345.740075 234.650079 
L 355.008525 224.055265 
L 364.276975 211.479303 
L 373.545425 197.716274 
L 382.813875 182.491318 
L 392.082325 165.916774 
L 401.350775 149.052315 
L 410.619225 132.094049 
L 419.887675 116.325553 
L 429.156125 102.554031 
L 438.424575 90.071104 
L 447.693025 80.680728 
L 456.961475 74.870469 
L 466.229925 72.052005 
L 475.498375 73.669891 
L 484.766825 78.023242 
L 494.035275 84.55076 
L 503.303725 94.02452 
L 512.572175 106.020267 
L 521.840625 119.30538 
L 531.109075 134.745359 
L 540.377525 150.839672 
L 549.645975 164.518544 
L 558.914425 177.539994 
L 568.182875 190.099743 
L 577.451325 202.094717 
L 586.719775 213.246971 
L 595.988225 222.841947 
L 605.256675 230.874627 
L 614.525125 236.80533 
L 623.793575 241.34977 
L 633.062025 246.36672 
L 642.330475 252.216355 
L 651.598925 257.256854 
L 660.867375 260.638934 
L 670.135825 263.080238 
L 679.404275 264.957155 
L 688.672725 266.680429 
L 697.941175 268.098347 
L 707.209625 268.883162 
L 716.478075 269.326334 
L 725.746525 269.771822 
L 735.014975 270.225417 
L 744.283425 270.580186 
L 753.551875 270.894035 
L 762.820325 270.966996 
L 772.088775 271.114849 
L 781.357225 271.205567 
L 790.625675 270.846166 
L 799.894125 270.702946 
L 809.162575 271.308254 
L 818.431025 272.092297 
L 827.699475 272.574844 
L 836.967925 272.855108 
L 846.236375 273.06048 
L 855.504825 273.232653 
L 864.773275 273.360046 
L 874.041725 273.448063 
L 883.310175 273.494773 
L 892.578625 273.520252 
L 901.847075 273.578929 
L 911.115525 273.608654 
L 920.383975 273.615989 
L 929.652425 273.696671 
L 938.920875 273.748014 
L 948.189325 273.747628 
L 957.457775 273.773493 
L 966.726225 273.774265 
L 975.994675 273.731414 
L 985.263125 272.525046 
" style="fill:none;stroke:#5cb85c;stroke-linecap:square;"/>
   </g>
   <g id="line2d_12">
    <path clip-path="url(#p42ebadee2a)" d="M 58.418125 273.99006 
L 985.263125 273.99006 
" style="fill:none;stroke:#dedede;stroke-linecap:square;stroke-width:2;"/>
   </g>
   <g id="text_16">
    <!-- FastQC: Per Sequence GC Content -->
    <defs>
     <path d="M 9.8125 72.90625 
L 51.703125 72.90625 
L 51.703125 64.59375 
L 19.671875 64.59375 
L 19.671875 43.109375 
L 48.578125 43.109375 
L 48.578125 34.8125 
L 19.671875 34.8125 
L 19.671875 0 
L 9.8125 0 
z
" id="DejaVuSans-70"/>
     <path d="M 34.28125 27.484375 
Q 23.390625 27.484375 19.1875 25 
Q 14.984375 22.515625 14.984375 16.5 
Q 14.984375 11.71875 18.140625 8.90625 
Q 21.296875 6.109375 26.703125 6.109375 
Q 34.1875 6.109375 38.703125 11.40625 
Q 43.21875 16.703125 43.21875 25.484375 
L 43.21875 27.484375 
z
M 52.203125 31.203125 
L 52.203125 0 
L 43.21875 0 
L 43.21875 8.296875 
Q 40.140625 3.328125 35.546875 0.953125 
Q 30.953125 -1.421875 24.3125 -1.421875 
Q 15.921875 -1.421875 10.953125 3.296875 
Q 6 8.015625 6 15.921875 
Q 6 25.140625 12.171875 29.828125 
Q 18.359375 34.515625 30.609375 34.515625 
L 43.21875 34.515625 
L 43.21875 35.40625 
Q 43.21875 41.609375 39.140625 45 
Q 35.0625 48.390625 27.6875 48.390625 
Q 23 48.390625 18.546875 47.265625 
Q 14.109375 46.140625 10.015625 43.890625 
L 10.015625 52.203125 
Q 14.9375 54.109375 19.578125 55.046875 
Q 24.21875 56 28.609375 56 
Q 40.484375 56 46.34375 49.84375 
Q 52.203125 43.703125 52.203125 31.203125 
z
" id="DejaVuSans-97"/>
     <path d="M 44.28125 53.078125 
L 44.28125 44.578125 
Q 40.484375 46.53125 36.375 47.5 
Q 32.28125 48.484375 27.875 48.484375 
Q 21.1875 48.484375 17.84375 46.4375 
Q 14.5 44.390625 14.5 40.28125 
Q 14.5 37.15625 16.890625 35.375 
Q 19.28125 33.59375 26.515625 31.984375 
L 29.59375 31.296875 
Q 39.15625 29.25 43.1875 25.515625 
Q 47.21875 21.78125 47.21875 15.09375 
Q 47.21875 7.46875 41.1875 3.015625 
Q 35.15625 -1.421875 24.609375 -1.421875 
Q 20.21875 -1.421875 15.453125 -0.5625 
Q 10.6875 0.296875 5.421875 2 
L 5.421875 11.28125 
Q 10.40625 8.6875 15.234375 7.390625 
Q 20.0625 6.109375 24.8125 6.109375 
Q 31.15625 6.109375 34.5625 8.28125 
Q 37.984375 10.453125 37.984375 14.40625 
Q 37.984375 18.0625 35.515625 20.015625 
Q 33.0625 21.96875 24.703125 23.78125 
L 21.578125 24.515625 
Q 13.234375 26.265625 9.515625 29.90625 
Q 5.8125 33.546875 5.8125 39.890625 
Q 5.8125 47.609375 11.28125 51.796875 
Q 16.75 56 26.8125 56 
Q 31.78125 56 36.171875 55.265625 
Q 40.578125 54.546875 44.28125 53.078125 
z
" id="DejaVuSans-115"/>
     <path d="M 39.40625 66.21875 
Q 28.65625 66.21875 22.328125 58.203125 
Q 16.015625 50.203125 16.015625 36.375 
Q 16.015625 22.609375 22.328125 14.59375 
Q 28.65625 6.59375 39.40625 6.59375 
Q 50.140625 6.59375 56.421875 14.59375 
Q 62.703125 22.609375 62.703125 36.375 
Q 62.703125 50.203125 56.421875 58.203125 
Q 50.140625 66.21875 39.40625 66.21875 
z
M 53.21875 1.3125 
L 66.21875 -12.890625 
L 54.296875 -12.890625 
L 43.5 -1.21875 
Q 41.890625 -1.3125 41.03125 -1.359375 
Q 40.1875 -1.421875 39.40625 -1.421875 
Q 24.03125 -1.421875 14.8125 8.859375 
Q 5.609375 19.140625 5.609375 36.375 
Q 5.609375 53.65625 14.8125 63.9375 
Q 24.03125 74.21875 39.40625 74.21875 
Q 54.734375 74.21875 63.90625 63.9375 
Q 73.09375 53.65625 73.09375 36.375 
Q 73.09375 23.6875 67.984375 14.640625 
Q 62.890625 5.609375 53.21875 1.3125 
z
" id="DejaVuSans-81"/>
     <path d="M 11.71875 12.40625 
L 22.015625 12.40625 
L 22.015625 0 
L 11.71875 0 
z
M 11.71875 51.703125 
L 22.015625 51.703125 
L 22.015625 39.3125 
L 11.71875 39.3125 
z
" id="DejaVuSans-58"/>
     <path d="M 19.671875 64.796875 
L 19.671875 37.40625 
L 32.078125 37.40625 
Q 38.96875 37.40625 42.71875 40.96875 
Q 46.484375 44.53125 46.484375 51.125 
Q 46.484375 57.671875 42.71875 61.234375 
Q 38.96875 64.796875 32.078125 64.796875 
z
M 9.8125 72.90625 
L 32.078125 72.90625 
Q 44.34375 72.90625 50.609375 67.359375 
Q 56.890625 61.8125 56.890625 51.125 
Q 56.890625 40.328125 50.609375 34.8125 
Q 44.34375 29.296875 32.078125 29.296875 
L 19.671875 29.296875 
L 19.671875 0 
L 9.8125 0 
z
" id="DejaVuSans-80"/>
     <path d="M 56.203125 29.59375 
L 56.203125 25.203125 
L 14.890625 25.203125 
Q 15.484375 15.921875 20.484375 11.0625 
Q 25.484375 6.203125 34.421875 6.203125 
Q 39.59375 6.203125 44.453125 7.46875 
Q 49.3125 8.734375 54.109375 11.28125 
L 54.109375 2.78125 
Q 49.265625 0.734375 44.1875 -0.34375 
Q 39.109375 -1.421875 33.890625 -1.421875 
Q 20.796875 -1.421875 13.15625 6.1875 
Q 5.515625 13.8125 5.515625 26.8125 
Q 5.515625 40.234375 12.765625 48.109375 
Q 20.015625 56 32.328125 56 
Q 43.359375 56 49.78125 48.890625 
Q 56.203125 41.796875 56.203125 29.59375 
z
M 47.21875 32.234375 
Q 47.125 39.59375 43.09375 43.984375 
Q 39.0625 48.390625 32.421875 48.390625 
Q 24.90625 48.390625 20.390625 44.140625 
Q 15.875 39.890625 15.1875 32.171875 
z
" id="DejaVuSans-101"/>
     <path d="M 41.109375 46.296875 
Q 39.59375 47.171875 37.8125 47.578125 
Q 36.03125 48 33.890625 48 
Q 26.265625 48 22.1875 43.046875 
Q 18.109375 38.09375 18.109375 28.8125 
L 18.109375 0 
L 9.078125 0 
L 9.078125 54.6875 
L 18.109375 54.6875 
L 18.109375 46.1875 
Q 20.953125 51.171875 25.484375 53.578125 
Q 30.03125 56 36.53125 56 
Q 37.453125 56 38.578125 55.875 
Q 39.703125 55.765625 41.0625 55.515625 
z
" id="DejaVuSans-114"/>
     <path d="M 53.515625 70.515625 
L 53.515625 60.890625 
Q 47.90625 63.578125 42.921875 64.890625 
Q 37.9375 66.21875 33.296875 66.21875 
Q 25.25 66.21875 20.875 63.09375 
Q 16.5 59.96875 16.5 54.203125 
Q 16.5 49.359375 19.40625 46.890625 
Q 22.3125 44.4375 30.421875 42.921875 
L 36.375 41.703125 
Q 47.40625 39.59375 52.65625 34.296875 
Q 57.90625 29 57.90625 20.125 
Q 57.90625 9.515625 50.796875 4.046875 
Q 43.703125 -1.421875 29.984375 -1.421875 
Q 24.8125 -1.421875 18.96875 -0.25 
Q 13.140625 0.921875 6.890625 3.21875 
L 6.890625 13.375 
Q 12.890625 10.015625 18.65625 8.296875 
Q 24.421875 6.59375 29.984375 6.59375 
Q 38.421875 6.59375 43.015625 9.90625 
Q 47.609375 13.234375 47.609375 19.390625 
Q 47.609375 24.75 44.3125 27.78125 
Q 41.015625 30.8125 33.5 32.328125 
L 27.484375 33.5 
Q 16.453125 35.6875 11.515625 40.375 
Q 6.59375 45.0625 6.59375 53.421875 
Q 6.59375 63.09375 13.40625 68.65625 
Q 20.21875 74.21875 32.171875 74.21875 
Q 37.3125 74.21875 42.625 73.28125 
Q 47.953125 72.359375 53.515625 70.515625 
z
" id="DejaVuSans-83"/>
     <path d="M 14.796875 27.296875 
Q 14.796875 17.390625 18.875 11.75 
Q 22.953125 6.109375 30.078125 6.109375 
Q 37.203125 6.109375 41.296875 11.75 
Q 45.40625 17.390625 45.40625 27.296875 
Q 45.40625 37.203125 41.296875 42.84375 
Q 37.203125 48.484375 30.078125 48.484375 
Q 22.953125 48.484375 18.875 42.84375 
Q 14.796875 37.203125 14.796875 27.296875 
z
M 45.40625 8.203125 
Q 42.578125 3.328125 38.25 0.953125 
Q 33.9375 -1.421875 27.875 -1.421875 
Q 17.96875 -1.421875 11.734375 6.484375 
Q 5.515625 14.40625 5.515625 27.296875 
Q 5.515625 40.1875 11.734375 48.09375 
Q 17.96875 56 27.875 56 
Q 33.9375 56 38.25 53.625 
Q 42.578125 51.265625 45.40625 46.390625 
L 45.40625 54.6875 
L 54.390625 54.6875 
L 54.390625 -20.796875 
L 45.40625 -20.796875 
z
" id="DejaVuSans-113"/>
     <path d="M 48.78125 52.59375 
L 48.78125 44.1875 
Q 44.96875 46.296875 41.140625 47.34375 
Q 37.3125 48.390625 33.40625 48.390625 
Q 24.65625 48.390625 19.8125 42.84375 
Q 14.984375 37.3125 14.984375 27.296875 
Q 14.984375 17.28125 19.8125 11.734375 
Q 24.65625 6.203125 33.40625 6.203125 
Q 37.3125 6.203125 41.140625 7.25 
Q 44.96875 8.296875 48.78125 10.40625 
L 48.78125 2.09375 
Q 45.015625 0.34375 40.984375 -0.53125 
Q 36.96875 -1.421875 32.421875 -1.421875 
Q 20.0625 -1.421875 12.78125 6.34375 
Q 5.515625 14.109375 5.515625 27.296875 
Q 5.515625 40.671875 12.859375 48.328125 
Q 20.21875 56 33.015625 56 
Q 37.15625 56 41.109375 55.140625 
Q 45.0625 54.296875 48.78125 52.59375 
z
" id="DejaVuSans-99"/>
    </defs>
    <g transform="translate(384.199375 19.3575)scale(0.16 -0.16)">
     <use xlink:href="#DejaVuSans-70"/>
     <use x="57.378906" xlink:href="#DejaVuSans-97"/>
     <use x="118.658203" xlink:href="#DejaVuSans-115"/>
     <use x="170.757812" xlink:href="#DejaVuSans-116"/>
     <use x="209.966797" xlink:href="#DejaVuSans-81"/>
     <use x="288.677734" xlink:href="#DejaVuSans-67"/>
     <use x="358.501953" xlink:href="#DejaVuSans-58"/>
     <use x="392.193359" xlink:href="#DejaVuSans-32"/>
     <use x="423.980469" xlink:href="#DejaVuSans-80"/>
     <use x="484.236328" xlink:href="#DejaVuSans-101"/>
     <use x="545.759766" xlink:href="#DejaVuSans-114"/>
     <use x="586.873047" xlink:href="#DejaVuSans-32"/>
     <use x="618.660156" xlink:href="#DejaVuSans-83"/>
     <use x="682.136719" xlink:href="#DejaVuSans-101"/>
     <use x="743.660156" xlink:href="#DejaVuSans-113"/>
     <use x="807.136719" xlink:href="#DejaVuSans-117"/>
     <use x="870.515625" xlink:href="#DejaVuSans-101"/>
     <use x="932.039062" xlink:href="#DejaVuSans-110"/>
     <use x="995.417969" xlink:href="#DejaVuSans-99"/>
     <use x="1050.398438" xlink:href="#DejaVuSans-101"/>
     <use x="1111.921875" xlink:href="#DejaVuSans-32"/>
     <use x="1143.708984" xlink:href="#DejaVuSans-71"/>
     <use x="1221.199219" xlink:href="#DejaVuSans-67"/>
     <use x="1291.023438" xlink:href="#DejaVuSans-32"/>
     <use x="1322.810547" xlink:href="#DejaVuSans-67"/>
     <use x="1392.634766" xlink:href="#DejaVuSans-111"/>
     <use x="1453.816406" xlink:href="#DejaVuSans-110"/>
     <use x="1517.195312" xlink:href="#DejaVuSans-116"/>
     <use x="1556.404297" xlink:href="#DejaVuSans-101"/>
     <use x="1617.927734" xlink:href="#DejaVuSans-110"/>
     <use x="1681.306641" xlink:href="#DejaVuSans-116"/>
    </g>
   </g>
   <g id="legend_1">
    <g id="line2d_13">
     <path d="M 65.618125 315.455394 
L 81.618125 315.455394 
" style="fill:none;stroke:#5cb85c;stroke-linecap:square;"/>
    </g>
    <g id="line2d_14"/>
    <g id="text_17">
     <!-- Tcr-CJol_006-Ex1-2B-ssl-1-1.1 -->
     <defs>
      <path d="M -0.296875 72.90625 
L 61.375 72.90625 
L 61.375 64.59375 
L 35.5 64.59375 
L 35.5 0 
L 25.59375 0 
L 25.59375 64.59375 
L -0.296875 64.59375 
z
" id="DejaVuSans-84"/>
      <path d="M 4.890625 31.390625 
L 31.203125 31.390625 
L 31.203125 23.390625 
L 4.890625 23.390625 
z
" id="DejaVuSans-45"/>
      <path d="M 9.8125 72.90625 
L 19.671875 72.90625 
L 19.671875 5.078125 
Q 19.671875 -8.109375 14.671875 -14.0625 
Q 9.671875 -20.015625 -1.421875 -20.015625 
L -5.171875 -20.015625 
L -5.171875 -11.71875 
L -2.09375 -11.71875 
Q 4.4375 -11.71875 7.125 -8.046875 
Q 9.8125 -4.390625 9.8125 5.078125 
z
" id="DejaVuSans-74"/>
      <path d="M 9.421875 75.984375 
L 18.40625 75.984375 
L 18.40625 0 
L 9.421875 0 
z
" id="DejaVuSans-108"/>
      <path d="M 50.984375 -16.609375 
L 50.984375 -23.578125 
L -0.984375 -23.578125 
L -0.984375 -16.609375 
z
" id="DejaVuSans-95"/>
      <path d="M 9.8125 72.90625 
L 55.90625 72.90625 
L 55.90625 64.59375 
L 19.671875 64.59375 
L 19.671875 43.015625 
L 54.390625 43.015625 
L 54.390625 34.71875 
L 19.671875 34.71875 
L 19.671875 8.296875 
L 56.78125 8.296875 
L 56.78125 0 
L 9.8125 0 
z
" id="DejaVuSans-69"/>
      <path d="M 54.890625 54.6875 
L 35.109375 28.078125 
L 55.90625 0 
L 45.3125 0 
L 29.390625 21.484375 
L 13.484375 0 
L 2.875 0 
L 24.125 28.609375 
L 4.6875 54.6875 
L 15.28125 54.6875 
L 29.78125 35.203125 
L 44.28125 54.6875 
z
" id="DejaVuSans-120"/>
      <path d="M 19.671875 34.8125 
L 19.671875 8.109375 
L 35.5 8.109375 
Q 43.453125 8.109375 47.28125 11.40625 
Q 51.125 14.703125 51.125 21.484375 
Q 51.125 28.328125 47.28125 31.5625 
Q 43.453125 34.8125 35.5 34.8125 
z
M 19.671875 64.796875 
L 19.671875 42.828125 
L 34.28125 42.828125 
Q 41.5 42.828125 45.03125 45.53125 
Q 48.578125 48.25 48.578125 53.8125 
Q 48.578125 59.328125 45.03125 62.0625 
Q 41.5 64.796875 34.28125 64.796875 
z
M 9.8125 72.90625 
L 35.015625 72.90625 
Q 46.296875 72.90625 52.390625 68.21875 
Q 58.5 63.53125 58.5 54.890625 
Q 58.5 48.1875 55.375 44.234375 
Q 52.25 40.28125 46.1875 39.3125 
Q 53.46875 37.75 57.5 32.78125 
Q 61.53125 27.828125 61.53125 20.40625 
Q 61.53125 10.640625 54.890625 5.3125 
Q 48.25 0 35.984375 0 
L 9.8125 0 
z
" id="DejaVuSans-66"/>
      <path d="M 10.6875 12.40625 
L 21 12.40625 
L 21 0 
L 10.6875 0 
z
" id="DejaVuSans-46"/>
     </defs>
     <g transform="translate(88.018125 318.255394)scale(0.08 -0.08)">
      <use xlink:href="#DejaVuSans-84"/>
      <use x="60.818359" xlink:href="#DejaVuSans-99"/>
      <use x="115.798828" xlink:href="#DejaVuSans-114"/>
      <use x="156.818359" xlink:href="#DejaVuSans-45"/>
      <use x="192.902344" xlink:href="#DejaVuSans-67"/>
      <use x="262.726562" xlink:href="#DejaVuSans-74"/>
      <use x="292.21875" xlink:href="#DejaVuSans-111"/>
      <use x="353.400391" xlink:href="#DejaVuSans-108"/>
      <use x="381.183594" xlink:href="#DejaVuSans-95"/>
      <use x="431.183594" xlink:href="#DejaVuSans-48"/>
      <use x="494.806641" xlink:href="#DejaVuSans-48"/>
      <use x="558.429688" xlink:href="#DejaVuSans-54"/>
      <use x="622.052734" xlink:href="#DejaVuSans-45"/>
      <use x="658.136719" xlink:href="#DejaVuSans-69"/>
      <use x="721.320312" xlink:href="#DejaVuSans-120"/>
      <use x="780.5" xlink:href="#DejaVuSans-49"/>
      <use x="844.123047" xlink:href="#DejaVuSans-45"/>
      <use x="880.207031" xlink:href="#DejaVuSans-50"/>
      <use x="943.830078" xlink:href="#DejaVuSans-66"/>
      <use x="1012.433594" xlink:href="#DejaVuSans-45"/>
      <use x="1048.517578" xlink:href="#DejaVuSans-115"/>
      <use x="1100.617188" xlink:href="#DejaVuSans-115"/>
      <use x="1152.716797" xlink:href="#DejaVuSans-108"/>
      <use x="1180.5" xlink:href="#DejaVuSans-45"/>
      <use x="1216.583984" xlink:href="#DejaVuSans-49"/>
      <use x="1280.207031" xlink:href="#DejaVuSans-45"/>
      <use x="1316.291016" xlink:href="#DejaVuSans-49"/>
      <use x="1379.914062" xlink:href="#DejaVuSans-46"/>
      <use x="1411.701172" xlink:href="#DejaVuSans-49"/>
     </g>
    </g>
    <g id="line2d_15">
     <path d="M 322.893125 315.455394 
L 338.893125 315.455394 
" style="fill:none;stroke:#5cb85c;stroke-linecap:square;"/>
    </g>
    <g id="line2d_16"/>
    <g id="text_18">
     <!-- Tcr-CJol_006-Ex1-2B-ssl-1-1.2 -->
     <g transform="translate(345.293125 318.255394)scale(0.08 -0.08)">
      <use xlink:href="#DejaVuSans-84"/>
      <use x="60.818359" xlink:href="#DejaVuSans-99"/>
      <use x="115.798828" xlink:href="#DejaVuSans-114"/>
      <use x="156.818359" xlink:href="#DejaVuSans-45"/>
      <use x="192.902344" xlink:href="#DejaVuSans-67"/>
      <use x="262.726562" xlink:href="#DejaVuSans-74"/>
      <use x="292.21875" xlink:href="#DejaVuSans-111"/>
      <use x="353.400391" xlink:href="#DejaVuSans-108"/>
      <use x="381.183594" xlink:href="#DejaVuSans-95"/>
      <use x="431.183594" xlink:href="#DejaVuSans-48"/>
      <use x="494.806641" xlink:href="#DejaVuSans-48"/>
      <use x="558.429688" xlink:href="#DejaVuSans-54"/>
      <use x="622.052734" xlink:href="#DejaVuSans-45"/>
      <use x="658.136719" xlink:href="#DejaVuSans-69"/>
      <use x="721.320312" xlink:href="#DejaVuSans-120"/>
      <use x="780.5" xlink:href="#DejaVuSans-49"/>
      <use x="844.123047" xlink:href="#DejaVuSans-45"/>
      <use x="880.207031" xlink:href="#DejaVuSans-50"/>
      <use x="943.830078" xlink:href="#DejaVuSans-66"/>
      <use x="1012.433594" xlink:href="#DejaVuSans-45"/>
      <use x="1048.517578" xlink:href="#DejaVuSans-115"/>
      <use x="1100.617188" xlink:href="#DejaVuSans-115"/>
      <use x="1152.716797" xlink:href="#DejaVuSans-108"/>
      <use x="1180.5" xlink:href="#DejaVuSans-45"/>
      <use x="1216.583984" xlink:href="#DejaVuSans-49"/>
      <use x="1280.207031" xlink:href="#DejaVuSans-45"/>
      <use x="1316.291016" xlink:href="#DejaVuSans-49"/>
      <use x="1379.914062" xlink:href="#DejaVuSans-46"/>
      <use x="1411.701172" xlink:href="#DejaVuSans-50"/>
     </g>
    </g>
    <g id="line2d_17">
     <path d="M 580.168125 315.455394 
L 596.168125 315.455394 
" style="fill:none;stroke:#5cb85c;stroke-linecap:square;"/>
    </g>
    <g id="line2d_18"/>
    <g id="text_19">
     <!-- Tcr-CJol_006-Ex1-2C-ssl-1-1.1 -->
     <g transform="translate(602.568125 318.255394)scale(0.08 -0.08)">
      <use xlink:href="#DejaVuSans-84"/>
      <use x="60.818359" xlink:href="#DejaVuSans-99"/>
      <use x="115.798828" xlink:href="#DejaVuSans-114"/>
      <use x="156.818359" xlink:href="#DejaVuSans-45"/>
      <use x="192.902344" xlink:href="#DejaVuSans-67"/>
      <use x="262.726562" xlink:href="#DejaVuSans-74"/>
      <use x="292.21875" xlink:href="#DejaVuSans-111"/>
      <use x="353.400391" xlink:href="#DejaVuSans-108"/>
      <use x="381.183594" xlink:href="#DejaVuSans-95"/>
      <use x="431.183594" xlink:href="#DejaVuSans-48"/>
      <use x="494.806641" xlink:href="#DejaVuSans-48"/>
      <use x="558.429688" xlink:href="#DejaVuSans-54"/>
      <use x="622.052734" xlink:href="#DejaVuSans-45"/>
      <use x="658.136719" xlink:href="#DejaVuSans-69"/>
      <use x="721.320312" xlink:href="#DejaVuSans-120"/>
      <use x="780.5" xlink:href="#DejaVuSans-49"/>
      <use x="844.123047" xlink:href="#DejaVuSans-45"/>
      <use x="880.207031" xlink:href="#DejaVuSans-50"/>
      <use x="943.830078" xlink:href="#DejaVuSans-67"/>
      <use x="1013.654297" xlink:href="#DejaVuSans-45"/>
      <use x="1049.738281" xlink:href="#DejaVuSans-115"/>
      <use x="1101.837891" xlink:href="#DejaVuSans-115"/>
      <use x="1153.9375" xlink:href="#DejaVuSans-108"/>
      <use x="1181.720703" xlink:href="#DejaVuSans-45"/>
      <use x="1217.804688" xlink:href="#DejaVuSans-49"/>
      <use x="1281.427734" xlink:href="#DejaVuSans-45"/>
      <use x="1317.511719" xlink:href="#DejaVuSans-49"/>
      <use x="1381.134766" xlink:href="#DejaVuSans-46"/>
      <use x="1412.921875" xlink:href="#DejaVuSans-49"/>
     </g>
    </g>
    <g id="line2d_19">
     <path d="M 837.540625 315.455394 
L 853.540625 315.455394 
" style="fill:none;stroke:#5cb85c;stroke-linecap:square;"/>
    </g>
    <g id="line2d_20"/>
    <g id="text_20">
     <!-- Tcr-CJol_006-Ex1-2C-ssl-1-1.2 -->
     <g transform="translate(859.940625 318.255394)scale(0.08 -0.08)">
      <use xlink:href="#DejaVuSans-84"/>
      <use x="60.818359" xlink:href="#DejaVuSans-99"/>
      <use x="115.798828" xlink:href="#DejaVuSans-114"/>
      <use x="156.818359" xlink:href="#DejaVuSans-45"/>
      <use x="192.902344" xlink:href="#DejaVuSans-67"/>
      <use x="262.726562" xlink:href="#DejaVuSans-74"/>
      <use x="292.21875" xlink:href="#DejaVuSans-111"/>
      <use x="353.400391" xlink:href="#DejaVuSans-108"/>
      <use x="381.183594" xlink:href="#DejaVuSans-95"/>
      <use x="431.183594" xlink:href="#DejaVuSans-48"/>
      <use x="494.806641" xlink:href="#DejaVuSans-48"/>
      <use x="558.429688" xlink:href="#DejaVuSans-54"/>
      <use x="622.052734" xlink:href="#DejaVuSans-45"/>
      <use x="658.136719" xlink:href="#DejaVuSans-69"/>
      <use x="721.320312" xlink:href="#DejaVuSans-120"/>
      <use x="780.5" xlink:href="#DejaVuSans-49"/>
      <use x="844.123047" xlink:href="#DejaVuSans-45"/>
      <use x="880.207031" xlink:href="#DejaVuSans-50"/>
      <use x="943.830078" xlink:href="#DejaVuSans-67"/>
      <use x="1013.654297" xlink:href="#DejaVuSans-45"/>
      <use x="1049.738281" xlink:href="#DejaVuSans-115"/>
      <use x="1101.837891" xlink:href="#DejaVuSans-115"/>
      <use x="1153.9375" xlink:href="#DejaVuSans-108"/>
      <use x="1181.720703" xlink:href="#DejaVuSans-45"/>
      <use x="1217.804688" xlink:href="#DejaVuSans-49"/>
      <use x="1281.427734" xlink:href="#DejaVuSans-45"/>
      <use x="1317.511719" xlink:href="#DejaVuSans-49"/>
      <use x="1381.134766" xlink:href="#DejaVuSans-46"/>
      <use x="1412.921875" xlink:href="#DejaVuSans-50"/>
     </g>
    </g>
   </g>
  </g>
 </g>
 <defs>
  <clipPath id="p42ebadee2a">
   <rect height="242.5072" width="926.845" x="58.418125" y="31.48286"/>
  </clipPath>
 </defs>
</svg>
