<?xml version="1.0" encoding="utf-8" standalone="no"?>
<!DOCTYPE svg PUBLIC "-//W3C//DTD SVG 1.1//EN"
  "http://www.w3.org/Graphics/SVG/1.1/DTD/svg11.dtd">
<!-- Created with matplotlib (https://matplotlib.org/) -->
<svg height="330.541644pt" version="1.1" viewBox="0 0 1000.318125 330.541644" width="1000.318125pt" xmlns="http://www.w3.org/2000/svg" xmlns:xlink="http://www.w3.org/1999/xlink">
 <defs>
  <style type="text/css">
*{stroke-linecap:butt;stroke-linejoin:round;}
  </style>
 </defs>
 <g id="figure_1">
  <g id="axes_1">
   <g id="patch_1">
    <path d="M 38.058125 273.99006 
L 993.118125 273.99006 
L 993.118125 31.48286 
L 38.058125 31.48286 
z
" style="fill:#ffffff;"/>
   </g>
   <g id="patch_2">
    <path clip-path="url(#pc1fef4e42f)" d="M 38.058125 82.918698 
L 956.043799 82.918698 
L 956.043799 -681.366751 
L 38.058125 -681.366751 
z
" style="fill:#e6c3c3;"/>
   </g>
   <g id="patch_3">
    <path clip-path="url(#pc1fef4e42f)" d="M 38.058125 226.222219 
L 956.043799 226.222219 
L 956.043799 82.918698 
L 38.058125 82.918698 
z
" style="fill:#e6dcc3;"/>
   </g>
   <g id="patch_4">
    <path clip-path="url(#pc1fef4e42f)" d="M 38.058125 273.99006 
L 956.043799 273.99006 
L 956.043799 226.222219 
L 38.058125 226.222219 
z
" style="fill:#c3e6c3;"/>
   </g>
   <g id="matplotlib.axis_1">
    <g id="xtick_1">
     <g id="text_1">
      <!-- 0 -->
      <defs>
       <path d="M 31.78125 66.40625 
Q 24.171875 66.40625 20.328125 58.90625 
Q 16.5 51.421875 16.5 36.375 
Q 16.5 21.390625 20.328125 13.890625 
Q 24.171875 6.390625 31.78125 6.390625 
Q 39.453125 6.390625 43.28125 13.890625 
Q 47.125 21.390625 47.125 36.375 
Q 47.125 51.421875 43.28125 58.90625 
Q 39.453125 66.40625 31.78125 66.40625 
z
M 31.78125 74.21875 
Q 44.046875 74.21875 50.515625 64.515625 
Q 56.984375 54.828125 56.984375 36.375 
Q 56.984375 17.96875 50.515625 8.265625 
Q 44.046875 -1.421875 31.78125 -1.421875 
Q 19.53125 -1.421875 13.0625 8.265625 
Q 6.59375 17.96875 6.59375 36.375 
Q 6.59375 54.828125 13.0625 64.515625 
Q 19.53125 74.21875 31.78125 74.21875 
z
" id="DejaVuSans-48"/>
      </defs>
      <g transform="translate(72.587451 287.06881)scale(0.08 -0.08)">
       <use xlink:href="#DejaVuSans-48"/>
      </g>
     </g>
    </g>
    <g id="xtick_2">
     <g id="text_2">
      <!-- 20 -->
      <defs>
       <path d="M 19.1875 8.296875 
L 53.609375 8.296875 
L 53.609375 0 
L 7.328125 0 
L 7.328125 8.296875 
Q 12.9375 14.109375 22.625 23.890625 
Q 32.328125 33.6875 34.8125 36.53125 
Q 39.546875 41.84375 41.421875 45.53125 
Q 43.3125 49.21875 43.3125 52.78125 
Q 43.3125 58.59375 39.234375 62.25 
Q 35.15625 65.921875 28.609375 65.921875 
Q 23.96875 65.921875 18.8125 64.3125 
Q 13.671875 62.703125 7.8125 59.421875 
L 7.8125 69.390625 
Q 13.765625 71.78125 18.9375 73 
Q 24.125 74.21875 28.421875 74.21875 
Q 39.75 74.21875 46.484375 68.546875 
Q 53.21875 62.890625 53.21875 53.421875 
Q 53.21875 48.921875 51.53125 44.890625 
Q 49.859375 40.875 45.40625 35.40625 
Q 44.1875 33.984375 37.640625 27.21875 
Q 31.109375 20.453125 19.1875 8.296875 
z
" id="DejaVuSans-50"/>
      </defs>
      <g transform="translate(196.792286 287.06881)scale(0.08 -0.08)">
       <use xlink:href="#DejaVuSans-50"/>
       <use x="63.623047" xlink:href="#DejaVuSans-48"/>
      </g>
     </g>
    </g>
    <g id="xtick_3">
     <g id="text_3">
      <!-- 40 -->
      <defs>
       <path d="M 37.796875 64.3125 
L 12.890625 25.390625 
L 37.796875 25.390625 
z
M 35.203125 72.90625 
L 47.609375 72.90625 
L 47.609375 25.390625 
L 58.015625 25.390625 
L 58.015625 17.1875 
L 47.609375 17.1875 
L 47.609375 0 
L 37.796875 0 
L 37.796875 17.1875 
L 4.890625 17.1875 
L 4.890625 26.703125 
z
" id="DejaVuSans-52"/>
      </defs>
      <g transform="translate(323.54212 287.06881)scale(0.08 -0.08)">
       <use xlink:href="#DejaVuSans-52"/>
       <use x="63.623047" xlink:href="#DejaVuSans-48"/>
      </g>
     </g>
    </g>
    <g id="xtick_4">
     <g id="text_4">
      <!-- 60 -->
      <defs>
       <path d="M 33.015625 40.375 
Q 26.375 40.375 22.484375 35.828125 
Q 18.609375 31.296875 18.609375 23.390625 
Q 18.609375 15.53125 22.484375 10.953125 
Q 26.375 6.390625 33.015625 6.390625 
Q 39.65625 6.390625 43.53125 10.953125 
Q 47.40625 15.53125 47.40625 23.390625 
Q 47.40625 31.296875 43.53125 35.828125 
Q 39.65625 40.375 33.015625 40.375 
z
M 52.59375 71.296875 
L 52.59375 62.3125 
Q 48.875 64.0625 45.09375 64.984375 
Q 41.3125 65.921875 37.59375 65.921875 
Q 27.828125 65.921875 22.671875 59.328125 
Q 17.53125 52.734375 16.796875 39.40625 
Q 19.671875 43.65625 24.015625 45.921875 
Q 28.375 48.1875 33.59375 48.1875 
Q 44.578125 48.1875 50.953125 41.515625 
Q 57.328125 34.859375 57.328125 23.390625 
Q 57.328125 12.15625 50.6875 5.359375 
Q 44.046875 -1.421875 33.015625 -1.421875 
Q 20.359375 -1.421875 13.671875 8.265625 
Q 6.984375 17.96875 6.984375 36.375 
Q 6.984375 53.65625 15.1875 63.9375 
Q 23.390625 74.21875 37.203125 74.21875 
Q 40.921875 74.21875 44.703125 73.484375 
Q 48.484375 72.75 52.59375 71.296875 
z
" id="DejaVuSans-54"/>
      </defs>
      <g transform="translate(450.291954 287.06881)scale(0.08 -0.08)">
       <use xlink:href="#DejaVuSans-54"/>
       <use x="63.623047" xlink:href="#DejaVuSans-48"/>
      </g>
     </g>
    </g>
    <g id="xtick_5">
     <g id="text_5">
      <!-- 80 -->
      <defs>
       <path d="M 31.78125 34.625 
Q 24.75 34.625 20.71875 30.859375 
Q 16.703125 27.09375 16.703125 20.515625 
Q 16.703125 13.921875 20.71875 10.15625 
Q 24.75 6.390625 31.78125 6.390625 
Q 38.8125 6.390625 42.859375 10.171875 
Q 46.921875 13.96875 46.921875 20.515625 
Q 46.921875 27.09375 42.890625 30.859375 
Q 38.875 34.625 31.78125 34.625 
z
M 21.921875 38.8125 
Q 15.578125 40.375 12.03125 44.71875 
Q 8.5 49.078125 8.5 55.328125 
Q 8.5 64.0625 14.71875 69.140625 
Q 20.953125 74.21875 31.78125 74.21875 
Q 42.671875 74.21875 48.875 69.140625 
Q 55.078125 64.0625 55.078125 55.328125 
Q 55.078125 49.078125 51.53125 44.71875 
Q 48 40.375 41.703125 38.8125 
Q 48.828125 37.15625 52.796875 32.3125 
Q 56.78125 27.484375 56.78125 20.515625 
Q 56.78125 9.90625 50.3125 4.234375 
Q 43.84375 -1.421875 31.78125 -1.421875 
Q 19.734375 -1.421875 13.25 4.234375 
Q 6.78125 9.90625 6.78125 20.515625 
Q 6.78125 27.484375 10.78125 32.3125 
Q 14.796875 37.15625 21.921875 38.8125 
z
M 18.3125 54.390625 
Q 18.3125 48.734375 21.84375 45.5625 
Q 25.390625 42.390625 31.78125 42.390625 
Q 38.140625 42.390625 41.71875 45.5625 
Q 45.3125 48.734375 45.3125 54.390625 
Q 45.3125 60.0625 41.71875 63.234375 
Q 38.140625 66.40625 31.78125 66.40625 
Q 25.390625 66.40625 21.84375 63.234375 
Q 18.3125 60.0625 18.3125 54.390625 
z
" id="DejaVuSans-56"/>
      </defs>
      <g transform="translate(577.041788 287.06881)scale(0.08 -0.08)">
       <use xlink:href="#DejaVuSans-56"/>
       <use x="63.623047" xlink:href="#DejaVuSans-48"/>
      </g>
     </g>
    </g>
    <g id="xtick_6">
     <g id="text_6">
      <!-- 100 -->
      <defs>
       <path d="M 12.40625 8.296875 
L 28.515625 8.296875 
L 28.515625 63.921875 
L 10.984375 60.40625 
L 10.984375 69.390625 
L 28.421875 72.90625 
L 38.28125 72.90625 
L 38.28125 8.296875 
L 54.390625 8.296875 
L 54.390625 0 
L 12.40625 0 
z
" id="DejaVuSans-49"/>
      </defs>
      <g transform="translate(701.246622 287.06881)scale(0.08 -0.08)">
       <use xlink:href="#DejaVuSans-49"/>
       <use x="63.623047" xlink:href="#DejaVuSans-48"/>
       <use x="127.246094" xlink:href="#DejaVuSans-48"/>
      </g>
     </g>
    </g>
    <g id="xtick_7">
     <g id="text_7">
      <!-- 120 -->
      <g transform="translate(827.996456 287.06881)scale(0.08 -0.08)">
       <use xlink:href="#DejaVuSans-49"/>
       <use x="63.623047" xlink:href="#DejaVuSans-50"/>
       <use x="127.246094" xlink:href="#DejaVuSans-48"/>
      </g>
     </g>
    </g>
    <g id="xtick_8">
     <g id="text_8">
      <!-- 140 -->
      <g transform="translate(954.74629 287.06881)scale(0.08 -0.08)">
       <use xlink:href="#DejaVuSans-49"/>
       <use x="63.623047" xlink:href="#DejaVuSans-52"/>
       <use x="127.246094" xlink:href="#DejaVuSans-48"/>
      </g>
     </g>
    </g>
    <g id="text_9">
     <!-- Position (bp) -->
     <defs>
      <path d="M 19.671875 64.796875 
L 19.671875 37.40625 
L 32.078125 37.40625 
Q 38.96875 37.40625 42.71875 40.96875 
Q 46.484375 44.53125 46.484375 51.125 
Q 46.484375 57.671875 42.71875 61.234375 
Q 38.96875 64.796875 32.078125 64.796875 
z
M 9.8125 72.90625 
L 32.078125 72.90625 
Q 44.34375 72.90625 50.609375 67.359375 
Q 56.890625 61.8125 56.890625 51.125 
Q 56.890625 40.328125 50.609375 34.8125 
Q 44.34375 29.296875 32.078125 29.296875 
L 19.671875 29.296875 
L 19.671875 0 
L 9.8125 0 
z
" id="DejaVuSans-80"/>
      <path d="M 30.609375 48.390625 
Q 23.390625 48.390625 19.1875 42.75 
Q 14.984375 37.109375 14.984375 27.296875 
Q 14.984375 17.484375 19.15625 11.84375 
Q 23.34375 6.203125 30.609375 6.203125 
Q 37.796875 6.203125 41.984375 11.859375 
Q 46.1875 17.53125 46.1875 27.296875 
Q 46.1875 37.015625 41.984375 42.703125 
Q 37.796875 48.390625 30.609375 48.390625 
z
M 30.609375 56 
Q 42.328125 56 49.015625 48.375 
Q 55.71875 40.765625 55.71875 27.296875 
Q 55.71875 13.875 49.015625 6.21875 
Q 42.328125 -1.421875 30.609375 -1.421875 
Q 18.84375 -1.421875 12.171875 6.21875 
Q 5.515625 13.875 5.515625 27.296875 
Q 5.515625 40.765625 12.171875 48.375 
Q 18.84375 56 30.609375 56 
z
" id="DejaVuSans-111"/>
      <path d="M 44.28125 53.078125 
L 44.28125 44.578125 
Q 40.484375 46.53125 36.375 47.5 
Q 32.28125 48.484375 27.875 48.484375 
Q 21.1875 48.484375 17.84375 46.4375 
Q 14.5 44.390625 14.5 40.28125 
Q 14.5 37.15625 16.890625 35.375 
Q 19.28125 33.59375 26.515625 31.984375 
L 29.59375 31.296875 
Q 39.15625 29.25 43.1875 25.515625 
Q 47.21875 21.78125 47.21875 15.09375 
Q 47.21875 7.46875 41.1875 3.015625 
Q 35.15625 -1.421875 24.609375 -1.421875 
Q 20.21875 -1.421875 15.453125 -0.5625 
Q 10.6875 0.296875 5.421875 2 
L 5.421875 11.28125 
Q 10.40625 8.6875 15.234375 7.390625 
Q 20.0625 6.109375 24.8125 6.109375 
Q 31.15625 6.109375 34.5625 8.28125 
Q 37.984375 10.453125 37.984375 14.40625 
Q 37.984375 18.0625 35.515625 20.015625 
Q 33.0625 21.96875 24.703125 23.78125 
L 21.578125 24.515625 
Q 13.234375 26.265625 9.515625 29.90625 
Q 5.8125 33.546875 5.8125 39.890625 
Q 5.8125 47.609375 11.28125 51.796875 
Q 16.75 56 26.8125 56 
Q 31.78125 56 36.171875 55.265625 
Q 40.578125 54.546875 44.28125 53.078125 
z
" id="DejaVuSans-115"/>
      <path d="M 9.421875 54.6875 
L 18.40625 54.6875 
L 18.40625 0 
L 9.421875 0 
z
M 9.421875 75.984375 
L 18.40625 75.984375 
L 18.40625 64.59375 
L 9.421875 64.59375 
z
" id="DejaVuSans-105"/>
      <path d="M 18.3125 70.21875 
L 18.3125 54.6875 
L 36.8125 54.6875 
L 36.8125 47.703125 
L 18.3125 47.703125 
L 18.3125 18.015625 
Q 18.3125 11.328125 20.140625 9.421875 
Q 21.96875 7.515625 27.59375 7.515625 
L 36.8125 7.515625 
L 36.8125 0 
L 27.59375 0 
Q 17.1875 0 13.234375 3.875 
Q 9.28125 7.765625 9.28125 18.015625 
L 9.28125 47.703125 
L 2.6875 47.703125 
L 2.6875 54.6875 
L 9.28125 54.6875 
L 9.28125 70.21875 
z
" id="DejaVuSans-116"/>
      <path d="M 54.890625 33.015625 
L 54.890625 0 
L 45.90625 0 
L 45.90625 32.71875 
Q 45.90625 40.484375 42.875 44.328125 
Q 39.84375 48.1875 33.796875 48.1875 
Q 26.515625 48.1875 22.3125 43.546875 
Q 18.109375 38.921875 18.109375 30.90625 
L 18.109375 0 
L 9.078125 0 
L 9.078125 54.6875 
L 18.109375 54.6875 
L 18.109375 46.1875 
Q 21.34375 51.125 25.703125 53.5625 
Q 30.078125 56 35.796875 56 
Q 45.21875 56 50.046875 50.171875 
Q 54.890625 44.34375 54.890625 33.015625 
z
" id="DejaVuSans-110"/>
      <path id="DejaVuSans-32"/>
      <path d="M 31 75.875 
Q 24.46875 64.65625 21.28125 53.65625 
Q 18.109375 42.671875 18.109375 31.390625 
Q 18.109375 20.125 21.3125 9.0625 
Q 24.515625 -2 31 -13.1875 
L 23.1875 -13.1875 
Q 15.875 -1.703125 12.234375 9.375 
Q 8.59375 20.453125 8.59375 31.390625 
Q 8.59375 42.28125 12.203125 53.3125 
Q 15.828125 64.359375 23.1875 75.875 
z
" id="DejaVuSans-40"/>
      <path d="M 48.6875 27.296875 
Q 48.6875 37.203125 44.609375 42.84375 
Q 40.53125 48.484375 33.40625 48.484375 
Q 26.265625 48.484375 22.1875 42.84375 
Q 18.109375 37.203125 18.109375 27.296875 
Q 18.109375 17.390625 22.1875 11.75 
Q 26.265625 6.109375 33.40625 6.109375 
Q 40.53125 6.109375 44.609375 11.75 
Q 48.6875 17.390625 48.6875 27.296875 
z
M 18.109375 46.390625 
Q 20.953125 51.265625 25.265625 53.625 
Q 29.59375 56 35.59375 56 
Q 45.5625 56 51.78125 48.09375 
Q 58.015625 40.1875 58.015625 27.296875 
Q 58.015625 14.40625 51.78125 6.484375 
Q 45.5625 -1.421875 35.59375 -1.421875 
Q 29.59375 -1.421875 25.265625 0.953125 
Q 20.953125 3.328125 18.109375 8.203125 
L 18.109375 0 
L 9.078125 0 
L 9.078125 75.984375 
L 18.109375 75.984375 
z
" id="DejaVuSans-98"/>
      <path d="M 18.109375 8.203125 
L 18.109375 -20.796875 
L 9.078125 -20.796875 
L 9.078125 54.6875 
L 18.109375 54.6875 
L 18.109375 46.390625 
Q 20.953125 51.265625 25.265625 53.625 
Q 29.59375 56 35.59375 56 
Q 45.5625 56 51.78125 48.09375 
Q 58.015625 40.1875 58.015625 27.296875 
Q 58.015625 14.40625 51.78125 6.484375 
Q 45.5625 -1.421875 35.59375 -1.421875 
Q 29.59375 -1.421875 25.265625 0.953125 
Q 20.953125 3.328125 18.109375 8.203125 
z
M 48.6875 27.296875 
Q 48.6875 37.203125 44.609375 42.84375 
Q 40.53125 48.484375 33.40625 48.484375 
Q 26.265625 48.484375 22.1875 42.84375 
Q 18.109375 37.203125 18.109375 27.296875 
Q 18.109375 17.390625 22.1875 11.75 
Q 26.265625 6.109375 33.40625 6.109375 
Q 40.53125 6.109375 44.609375 11.75 
Q 48.6875 17.390625 48.6875 27.296875 
z
" id="DejaVuSans-112"/>
      <path d="M 8.015625 75.875 
L 15.828125 75.875 
Q 23.140625 64.359375 26.78125 53.3125 
Q 30.421875 42.28125 30.421875 31.390625 
Q 30.421875 20.453125 26.78125 9.375 
Q 23.140625 -1.703125 15.828125 -13.1875 
L 8.015625 -13.1875 
Q 14.5 -2 17.703125 9.0625 
Q 20.90625 20.125 20.90625 31.390625 
Q 20.90625 42.671875 17.703125 53.65625 
Q 14.5 64.65625 8.015625 75.875 
z
" id="DejaVuSans-41"/>
     </defs>
     <g transform="translate(484.106094 300.330997)scale(0.1 -0.1)">
      <use xlink:href="#DejaVuSans-80"/>
      <use x="60.255859" xlink:href="#DejaVuSans-111"/>
      <use x="121.4375" xlink:href="#DejaVuSans-115"/>
      <use x="173.537109" xlink:href="#DejaVuSans-105"/>
      <use x="201.320312" xlink:href="#DejaVuSans-116"/>
      <use x="240.529297" xlink:href="#DejaVuSans-105"/>
      <use x="268.3125" xlink:href="#DejaVuSans-111"/>
      <use x="329.494141" xlink:href="#DejaVuSans-110"/>
      <use x="392.873047" xlink:href="#DejaVuSans-32"/>
      <use x="424.660156" xlink:href="#DejaVuSans-40"/>
      <use x="463.673828" xlink:href="#DejaVuSans-98"/>
      <use x="527.150391" xlink:href="#DejaVuSans-112"/>
      <use x="590.626953" xlink:href="#DejaVuSans-41"/>
     </g>
    </g>
   </g>
   <g id="matplotlib.axis_2">
    <g id="ytick_1">
     <g id="line2d_1">
      <path clip-path="url(#pc1fef4e42f)" d="M 38.058125 273.99006 
L 993.118125 273.99006 
" style="fill:none;stroke:#dedede;stroke-linecap:square;"/>
     </g>
     <g id="text_10">
      <!-- 0 -->
      <g transform="translate(25.968125 277.029435)scale(0.08 -0.08)">
       <use xlink:href="#DejaVuSans-48"/>
      </g>
     </g>
    </g>
    <g id="ytick_2">
     <g id="line2d_2">
      <path clip-path="url(#pc1fef4e42f)" d="M 38.058125 226.222219 
L 993.118125 226.222219 
" style="fill:none;stroke:#dedede;stroke-linecap:square;"/>
     </g>
     <g id="text_11">
      <!-- 5 -->
      <defs>
       <path d="M 10.796875 72.90625 
L 49.515625 72.90625 
L 49.515625 64.59375 
L 19.828125 64.59375 
L 19.828125 46.734375 
Q 21.96875 47.46875 24.109375 47.828125 
Q 26.265625 48.1875 28.421875 48.1875 
Q 40.625 48.1875 47.75 41.5 
Q 54.890625 34.8125 54.890625 23.390625 
Q 54.890625 11.625 47.5625 5.09375 
Q 40.234375 -1.421875 26.90625 -1.421875 
Q 22.3125 -1.421875 17.546875 -0.640625 
Q 12.796875 0.140625 7.71875 1.703125 
L 7.71875 11.625 
Q 12.109375 9.234375 16.796875 8.0625 
Q 21.484375 6.890625 26.703125 6.890625 
Q 35.15625 6.890625 40.078125 11.328125 
Q 45.015625 15.765625 45.015625 23.390625 
Q 45.015625 31 40.078125 35.4375 
Q 35.15625 39.890625 26.703125 39.890625 
Q 22.75 39.890625 18.8125 39.015625 
Q 14.890625 38.140625 10.796875 36.28125 
z
" id="DejaVuSans-53"/>
      </defs>
      <g transform="translate(25.968125 229.261594)scale(0.08 -0.08)">
       <use xlink:href="#DejaVuSans-53"/>
      </g>
     </g>
    </g>
    <g id="ytick_3">
     <g id="line2d_3">
      <path clip-path="url(#pc1fef4e42f)" d="M 38.058125 178.454379 
L 993.118125 178.454379 
" style="fill:none;stroke:#dedede;stroke-linecap:square;"/>
     </g>
     <g id="text_12">
      <!-- 10 -->
      <g transform="translate(20.878125 181.493754)scale(0.08 -0.08)">
       <use xlink:href="#DejaVuSans-49"/>
       <use x="63.623047" xlink:href="#DejaVuSans-48"/>
      </g>
     </g>
    </g>
    <g id="ytick_4">
     <g id="line2d_4">
      <path clip-path="url(#pc1fef4e42f)" d="M 38.058125 130.686538 
L 993.118125 130.686538 
" style="fill:none;stroke:#dedede;stroke-linecap:square;"/>
     </g>
     <g id="text_13">
      <!-- 15 -->
      <g transform="translate(20.878125 133.725913)scale(0.08 -0.08)">
       <use xlink:href="#DejaVuSans-49"/>
       <use x="63.623047" xlink:href="#DejaVuSans-53"/>
      </g>
     </g>
    </g>
    <g id="ytick_5">
     <g id="line2d_5">
      <path clip-path="url(#pc1fef4e42f)" d="M 38.058125 82.918698 
L 993.118125 82.918698 
" style="fill:none;stroke:#dedede;stroke-linecap:square;"/>
     </g>
     <g id="text_14">
      <!-- 20 -->
      <g transform="translate(20.878125 85.958073)scale(0.08 -0.08)">
       <use xlink:href="#DejaVuSans-50"/>
       <use x="63.623047" xlink:href="#DejaVuSans-48"/>
      </g>
     </g>
    </g>
    <g id="ytick_6">
     <g id="line2d_6">
      <path clip-path="url(#pc1fef4e42f)" d="M 38.058125 35.150857 
L 993.118125 35.150857 
" style="fill:none;stroke:#dedede;stroke-linecap:square;"/>
     </g>
     <g id="text_15">
      <!-- 25 -->
      <g transform="translate(20.878125 38.190232)scale(0.08 -0.08)">
       <use xlink:href="#DejaVuSans-50"/>
       <use x="63.623047" xlink:href="#DejaVuSans-53"/>
      </g>
     </g>
    </g>
    <g id="text_16">
     <!-- % of Sequences -->
     <defs>
      <path d="M 72.703125 32.078125 
Q 68.453125 32.078125 66.03125 28.46875 
Q 63.625 24.859375 63.625 18.40625 
Q 63.625 12.0625 66.03125 8.421875 
Q 68.453125 4.78125 72.703125 4.78125 
Q 76.859375 4.78125 79.265625 8.421875 
Q 81.6875 12.0625 81.6875 18.40625 
Q 81.6875 24.8125 79.265625 28.4375 
Q 76.859375 32.078125 72.703125 32.078125 
z
M 72.703125 38.28125 
Q 80.421875 38.28125 84.953125 32.90625 
Q 89.5 27.546875 89.5 18.40625 
Q 89.5 9.28125 84.9375 3.921875 
Q 80.375 -1.421875 72.703125 -1.421875 
Q 64.890625 -1.421875 60.34375 3.921875 
Q 55.8125 9.28125 55.8125 18.40625 
Q 55.8125 27.59375 60.375 32.9375 
Q 64.9375 38.28125 72.703125 38.28125 
z
M 22.3125 68.015625 
Q 18.109375 68.015625 15.6875 64.375 
Q 13.28125 60.75 13.28125 54.390625 
Q 13.28125 47.953125 15.671875 44.328125 
Q 18.0625 40.71875 22.3125 40.71875 
Q 26.5625 40.71875 28.96875 44.328125 
Q 31.390625 47.953125 31.390625 54.390625 
Q 31.390625 60.6875 28.953125 64.34375 
Q 26.515625 68.015625 22.3125 68.015625 
z
M 66.40625 74.21875 
L 74.21875 74.21875 
L 28.609375 -1.421875 
L 20.796875 -1.421875 
z
M 22.3125 74.21875 
Q 30.03125 74.21875 34.609375 68.875 
Q 39.203125 63.53125 39.203125 54.390625 
Q 39.203125 45.171875 34.640625 39.84375 
Q 30.078125 34.515625 22.3125 34.515625 
Q 14.546875 34.515625 10.03125 39.859375 
Q 5.515625 45.21875 5.515625 54.390625 
Q 5.515625 63.484375 10.046875 68.84375 
Q 14.59375 74.21875 22.3125 74.21875 
z
" id="DejaVuSans-37"/>
      <path d="M 37.109375 75.984375 
L 37.109375 68.5 
L 28.515625 68.5 
Q 23.6875 68.5 21.796875 66.546875 
Q 19.921875 64.59375 19.921875 59.515625 
L 19.921875 54.6875 
L 34.71875 54.6875 
L 34.71875 47.703125 
L 19.921875 47.703125 
L 19.921875 0 
L 10.890625 0 
L 10.890625 47.703125 
L 2.296875 47.703125 
L 2.296875 54.6875 
L 10.890625 54.6875 
L 10.890625 58.5 
Q 10.890625 67.625 15.140625 71.796875 
Q 19.390625 75.984375 28.609375 75.984375 
z
" id="DejaVuSans-102"/>
      <path d="M 53.515625 70.515625 
L 53.515625 60.890625 
Q 47.90625 63.578125 42.921875 64.890625 
Q 37.9375 66.21875 33.296875 66.21875 
Q 25.25 66.21875 20.875 63.09375 
Q 16.5 59.96875 16.5 54.203125 
Q 16.5 49.359375 19.40625 46.890625 
Q 22.3125 44.4375 30.421875 42.921875 
L 36.375 41.703125 
Q 47.40625 39.59375 52.65625 34.296875 
Q 57.90625 29 57.90625 20.125 
Q 57.90625 9.515625 50.796875 4.046875 
Q 43.703125 -1.421875 29.984375 -1.421875 
Q 24.8125 -1.421875 18.96875 -0.25 
Q 13.140625 0.921875 6.890625 3.21875 
L 6.890625 13.375 
Q 12.890625 10.015625 18.65625 8.296875 
Q 24.421875 6.59375 29.984375 6.59375 
Q 38.421875 6.59375 43.015625 9.90625 
Q 47.609375 13.234375 47.609375 19.390625 
Q 47.609375 24.75 44.3125 27.78125 
Q 41.015625 30.8125 33.5 32.328125 
L 27.484375 33.5 
Q 16.453125 35.6875 11.515625 40.375 
Q 6.59375 45.0625 6.59375 53.421875 
Q 6.59375 63.09375 13.40625 68.65625 
Q 20.21875 74.21875 32.171875 74.21875 
Q 37.3125 74.21875 42.625 73.28125 
Q 47.953125 72.359375 53.515625 70.515625 
z
" id="DejaVuSans-83"/>
      <path d="M 56.203125 29.59375 
L 56.203125 25.203125 
L 14.890625 25.203125 
Q 15.484375 15.921875 20.484375 11.0625 
Q 25.484375 6.203125 34.421875 6.203125 
Q 39.59375 6.203125 44.453125 7.46875 
Q 49.3125 8.734375 54.109375 11.28125 
L 54.109375 2.78125 
Q 49.265625 0.734375 44.1875 -0.34375 
Q 39.109375 -1.421875 33.890625 -1.421875 
Q 20.796875 -1.421875 13.15625 6.1875 
Q 5.515625 13.8125 5.515625 26.8125 
Q 5.515625 40.234375 12.765625 48.109375 
Q 20.015625 56 32.328125 56 
Q 43.359375 56 49.78125 48.890625 
Q 56.203125 41.796875 56.203125 29.59375 
z
M 47.21875 32.234375 
Q 47.125 39.59375 43.09375 43.984375 
Q 39.0625 48.390625 32.421875 48.390625 
Q 24.90625 48.390625 20.390625 44.140625 
Q 15.875 39.890625 15.1875 32.171875 
z
" id="DejaVuSans-101"/>
      <path d="M 14.796875 27.296875 
Q 14.796875 17.390625 18.875 11.75 
Q 22.953125 6.109375 30.078125 6.109375 
Q 37.203125 6.109375 41.296875 11.75 
Q 45.40625 17.390625 45.40625 27.296875 
Q 45.40625 37.203125 41.296875 42.84375 
Q 37.203125 48.484375 30.078125 48.484375 
Q 22.953125 48.484375 18.875 42.84375 
Q 14.796875 37.203125 14.796875 27.296875 
z
M 45.40625 8.203125 
Q 42.578125 3.328125 38.25 0.953125 
Q 33.9375 -1.421875 27.875 -1.421875 
Q 17.96875 -1.421875 11.734375 6.484375 
Q 5.515625 14.40625 5.515625 27.296875 
Q 5.515625 40.1875 11.734375 48.09375 
Q 17.96875 56 27.875 56 
Q 33.9375 56 38.25 53.625 
Q 42.578125 51.265625 45.40625 46.390625 
L 45.40625 54.6875 
L 54.390625 54.6875 
L 54.390625 -20.796875 
L 45.40625 -20.796875 
z
" id="DejaVuSans-113"/>
      <path d="M 8.5 21.578125 
L 8.5 54.6875 
L 17.484375 54.6875 
L 17.484375 21.921875 
Q 17.484375 14.15625 20.5 10.265625 
Q 23.53125 6.390625 29.59375 6.390625 
Q 36.859375 6.390625 41.078125 11.03125 
Q 45.3125 15.671875 45.3125 23.6875 
L 45.3125 54.6875 
L 54.296875 54.6875 
L 54.296875 0 
L 45.3125 0 
L 45.3125 8.40625 
Q 42.046875 3.421875 37.71875 1 
Q 33.40625 -1.421875 27.6875 -1.421875 
Q 18.265625 -1.421875 13.375 4.4375 
Q 8.5 10.296875 8.5 21.578125 
z
M 31.109375 56 
z
" id="DejaVuSans-117"/>
      <path d="M 48.78125 52.59375 
L 48.78125 44.1875 
Q 44.96875 46.296875 41.140625 47.34375 
Q 37.3125 48.390625 33.40625 48.390625 
Q 24.65625 48.390625 19.8125 42.84375 
Q 14.984375 37.3125 14.984375 27.296875 
Q 14.984375 17.28125 19.8125 11.734375 
Q 24.65625 6.203125 33.40625 6.203125 
Q 37.3125 6.203125 41.140625 7.25 
Q 44.96875 8.296875 48.78125 10.40625 
L 48.78125 2.09375 
Q 45.015625 0.34375 40.984375 -0.53125 
Q 36.96875 -1.421875 32.421875 -1.421875 
Q 20.0625 -1.421875 12.78125 6.34375 
Q 5.515625 14.109375 5.515625 27.296875 
Q 5.515625 40.671875 12.859375 48.328125 
Q 20.21875 56 33.015625 56 
Q 37.15625 56 41.109375 55.140625 
Q 45.0625 54.296875 48.78125 52.59375 
z
" id="DejaVuSans-99"/>
     </defs>
     <g transform="translate(14.798438 192.754429)rotate(-90)scale(0.1 -0.1)">
      <use xlink:href="#DejaVuSans-37"/>
      <use x="95.019531" xlink:href="#DejaVuSans-32"/>
      <use x="126.806641" xlink:href="#DejaVuSans-111"/>
      <use x="187.988281" xlink:href="#DejaVuSans-102"/>
      <use x="223.193359" xlink:href="#DejaVuSans-32"/>
      <use x="254.980469" xlink:href="#DejaVuSans-83"/>
      <use x="318.457031" xlink:href="#DejaVuSans-101"/>
      <use x="379.980469" xlink:href="#DejaVuSans-113"/>
      <use x="443.457031" xlink:href="#DejaVuSans-117"/>
      <use x="506.835938" xlink:href="#DejaVuSans-101"/>
      <use x="568.359375" xlink:href="#DejaVuSans-110"/>
      <use x="631.738281" xlink:href="#DejaVuSans-99"/>
      <use x="686.71875" xlink:href="#DejaVuSans-101"/>
      <use x="748.242188" xlink:href="#DejaVuSans-115"/>
     </g>
    </g>
   </g>
   <g id="line2d_7">
    <path clip-path="url(#pc1fef4e42f)" d="M 81.469943 273.989742 
L 87.807435 273.989742 
L 94.144927 273.989742 
L 100.482418 273.989423 
L 106.81991 273.988787 
L 113.157402 273.988628 
L 119.494893 273.98815 
L 125.832385 273.98815 
L 132.169877 273.987832 
L 138.507369 273.986002 
L 151.182352 273.983694 
L 163.857335 273.979954 
L 176.532319 273.977249 
L 189.207302 273.972952 
L 201.882286 273.965472 
L 214.557269 273.954889 
L 227.232252 273.94359 
L 239.907236 273.927278 
L 252.582219 273.906191 
L 265.257203 273.869349 
L 277.932186 273.808874 
L 290.607169 273.710443 
L 303.282153 273.545252 
L 315.957136 273.299851 
L 328.63212 272.971934 
L 341.307103 272.553465 
L 353.982087 272.040463 
L 366.65707 271.428633 
L 379.332053 270.720043 
L 392.007037 269.93387 
L 404.68202 269.063033 
L 417.357004 268.10761 
L 430.031987 267.079777 
L 442.70697 265.965448 
L 455.381954 264.767569 
L 468.056937 263.49163 
L 480.731921 262.158797 
L 493.406904 260.70939 
L 506.081887 259.192904 
L 518.756871 257.60361 
L 531.431854 255.908644 
L 544.106838 254.087715 
L 556.781821 252.146712 
L 569.456804 250.043461 
L 582.131788 247.772392 
L 594.806771 245.333506 
L 607.481755 242.762292 
L 620.156738 239.903344 
L 632.831722 236.77409 
L 645.506705 233.304665 
L 658.181688 229.45035 
L 670.856672 225.108257 
L 683.531655 220.313956 
L 696.206639 214.972676 
L 708.881622 209.10073 
L 721.556605 202.733049 
L 734.231589 195.950956 
L 746.906572 188.709334 
L 759.581556 181.205204 
L 772.256539 173.362255 
L 784.931522 165.245022 
L 797.606506 156.861699 
L 810.281489 148.230986 
L 822.956473 139.395216 
L 835.631456 130.416932 
L 848.30644 121.319847 
L 860.981423 111.941952 
L 873.656406 102.510266 
L 886.33139 92.85538 
L 899.006373 83.126015 
L 911.681357 73.288352 
L 924.35634 63.304117 
L 937.031323 53.198057 
L 949.706307 43.030807 
" style="fill:none;stroke:#7cb5ec;stroke-linecap:square;"/>
   </g>
   <g id="line2d_8">
    <path clip-path="url(#pc1fef4e42f)" d="M 81.469943 273.989742 
L 87.807435 273.989742 
L 94.144927 273.989742 
L 100.482418 273.989583 
L 106.81991 273.988946 
L 113.157402 273.988787 
L 119.494893 273.988628 
L 125.832385 273.988469 
L 132.169877 273.98815 
L 138.507369 273.986479 
L 151.182352 273.984172 
L 163.857335 273.98067 
L 176.532319 273.977806 
L 189.207302 273.973509 
L 201.882286 273.966188 
L 214.557269 273.955605 
L 227.232252 273.943829 
L 239.907236 273.926004 
L 252.582219 273.903883 
L 265.257203 273.865609 
L 277.932186 273.803622 
L 290.607169 273.705669 
L 303.282153 273.537374 
L 315.957136 273.290939 
L 328.63212 272.959839 
L 341.307103 272.537152 
L 353.982087 272.023912 
L 366.65707 271.405477 
L 379.332053 270.688851 
L 392.007037 269.897426 
L 404.68202 269.017915 
L 417.357004 268.060503 
L 430.031987 267.01779 
L 442.70697 265.894629 
L 455.381954 264.687201 
L 468.056937 263.408238 
L 480.731921 262.06697 
L 493.406904 260.615893 
L 506.081887 259.095826 
L 518.756871 257.496904 
L 531.431854 255.790956 
L 544.106838 253.96764 
L 556.781821 252.025603 
L 569.456804 249.922193 
L 582.131788 247.653591 
L 594.806771 245.216615 
L 607.481755 242.647787 
L 620.156738 239.791386 
L 632.831722 236.664678 
L 645.506705 233.210611 
L 658.181688 229.37969 
L 670.856672 225.064413 
L 683.531655 220.290482 
L 696.206639 214.977689 
L 708.881622 209.178392 
L 721.556605 202.886543 
L 734.231589 196.174951 
L 746.906572 189.010276 
L 759.581556 181.59089 
L 772.256539 173.849953 
L 784.931522 165.839346 
L 797.606506 157.571562 
L 810.281489 149.073098 
L 822.956473 140.377216 
L 835.631456 131.53317 
L 848.30644 122.571755 
L 860.981423 113.370829 
L 873.656406 104.139665 
L 886.33139 94.690314 
L 899.006373 85.211123 
L 911.681357 75.636128 
L 924.35634 65.929202 
L 937.031323 56.126551 
L 949.706307 46.309577 
" style="fill:none;stroke:#434348;stroke-linecap:square;"/>
   </g>
   <g id="line2d_9">
    <path clip-path="url(#pc1fef4e42f)" d="M 81.469943 273.989693 
L 87.807435 273.989693 
L 94.144927 273.989693 
L 100.482418 273.989142 
L 106.81991 273.988408 
L 113.157402 273.988041 
L 119.494893 273.98639 
L 125.832385 273.986206 
L 132.169877 273.984555 
L 138.507369 273.982536 
L 151.182352 273.97859 
L 163.857335 273.975287 
L 176.532319 273.971066 
L 189.207302 273.966387 
L 201.882286 273.958862 
L 214.557269 273.947668 
L 227.232252 273.932528 
L 239.907236 273.918673 
L 252.582219 273.900413 
L 265.257203 273.867472 
L 277.932186 273.815904 
L 290.607169 273.734791 
L 303.282153 273.600275 
L 315.957136 273.416668 
L 328.63212 273.186632 
L 341.307103 272.89411 
L 353.982087 272.570481 
L 366.65707 272.180053 
L 379.332053 271.762374 
L 392.007037 271.293769 
L 404.68202 270.751024 
L 417.357004 270.191946 
L 430.031987 269.59332 
L 442.70697 268.948541 
L 455.381954 268.269353 
L 468.056937 267.511987 
L 480.731921 266.701402 
L 493.406904 265.802088 
L 506.081887 264.839002 
L 518.756871 263.793243 
L 531.431854 262.674629 
L 544.106838 261.444345 
L 556.781821 260.09698 
L 569.456804 258.634183 
L 582.131788 257.017601 
L 594.806771 255.220165 
L 607.481755 253.201594 
L 620.156738 250.948766 
L 632.831722 248.32533 
L 645.506705 245.386708 
L 658.181688 242.022239 
L 670.856672 238.170263 
L 683.531655 233.754805 
L 696.206639 228.862117 
L 708.881622 223.304462 
L 721.556605 217.216542 
L 734.231589 210.712043 
L 746.906572 203.828861 
L 759.581556 196.508456 
L 772.256539 188.876901 
L 784.931522 180.949244 
L 797.606506 172.667405 
L 810.281489 164.099098 
L 822.956473 155.336266 
L 835.631456 146.358813 
L 848.30644 137.161601 
L 860.981423 127.790326 
L 873.656406 118.238013 
L 886.33139 108.547147 
L 899.006373 98.601011 
L 911.681357 88.460441 
L 924.35634 78.269497 
L 937.031323 67.983033 
L 949.706307 57.584717 
" style="fill:none;stroke:#90ed7d;stroke-linecap:square;"/>
   </g>
   <g id="line2d_10">
    <path clip-path="url(#pc1fef4e42f)" d="M 81.469943 273.989693 
L 87.807435 273.989693 
L 94.144927 273.989693 
L 100.482418 273.988959 
L 106.81991 273.988041 
L 113.157402 273.987674 
L 119.494893 273.986023 
L 125.832385 273.985839 
L 132.169877 273.984188 
L 138.507369 273.982352 
L 151.182352 273.978223 
L 163.857335 273.975195 
L 176.532319 273.971066 
L 189.207302 273.967304 
L 201.882286 273.960331 
L 214.557269 273.949687 
L 227.232252 273.933904 
L 239.907236 273.919132 
L 252.582219 273.899495 
L 265.257203 273.866004 
L 277.932186 273.812051 
L 290.607169 273.73002 
L 303.282153 273.594402 
L 315.957136 273.408226 
L 328.63212 273.177365 
L 341.307103 272.881355 
L 353.982087 272.555616 
L 366.65707 272.164271 
L 379.332053 271.74393 
L 392.007037 271.276243 
L 404.68202 270.728635 
L 417.357004 270.160748 
L 430.031987 269.558177 
L 442.70697 268.914591 
L 455.381954 268.236687 
L 468.056937 267.475651 
L 480.731921 266.666167 
L 493.406904 265.769881 
L 506.081887 264.803309 
L 518.756871 263.751493 
L 531.431854 262.635907 
L 544.106838 261.408376 
L 556.781821 260.071471 
L 569.456804 258.611794 
L 582.131788 257.000442 
L 594.806771 255.20475 
L 607.481755 253.191868 
L 620.156738 250.94271 
L 632.831722 248.32322 
L 645.506705 245.398636 
L 658.181688 242.058942 
L 670.856672 238.233209 
L 683.531655 233.839772 
L 696.206639 228.956535 
L 708.881622 223.436043 
L 721.556605 217.404278 
L 734.231589 210.959696 
L 746.906572 204.14258 
L 759.581556 196.885579 
L 772.256539 189.332751 
L 784.931522 181.49098 
L 797.606506 173.314386 
L 810.281489 164.848848 
L 822.956473 156.191445 
L 835.631456 147.353647 
L 848.30644 138.274527 
L 860.981423 129.07337 
L 873.656406 119.718886 
L 886.33139 110.229152 
L 899.006373 100.4947 
L 911.681357 90.633073 
L 924.35634 80.723732 
L 937.031323 70.723001 
L 949.706307 60.656755 
" style="fill:none;stroke:#f7a35c;stroke-linecap:square;"/>
   </g>
   <g id="line2d_11">
    <path clip-path="url(#pc1fef4e42f)" d="M 38.058125 273.99006 
L 993.118125 273.99006 
" style="fill:none;stroke:#dedede;stroke-linecap:square;stroke-width:2;"/>
   </g>
   <g id="text_17">
    <!-- FastQC: Adapter Content -->
    <defs>
     <path d="M 9.8125 72.90625 
L 51.703125 72.90625 
L 51.703125 64.59375 
L 19.671875 64.59375 
L 19.671875 43.109375 
L 48.578125 43.109375 
L 48.578125 34.8125 
L 19.671875 34.8125 
L 19.671875 0 
L 9.8125 0 
z
" id="DejaVuSans-70"/>
     <path d="M 34.28125 27.484375 
Q 23.390625 27.484375 19.1875 25 
Q 14.984375 22.515625 14.984375 16.5 
Q 14.984375 11.71875 18.140625 8.90625 
Q 21.296875 6.109375 26.703125 6.109375 
Q 34.1875 6.109375 38.703125 11.40625 
Q 43.21875 16.703125 43.21875 25.484375 
L 43.21875 27.484375 
z
M 52.203125 31.203125 
L 52.203125 0 
L 43.21875 0 
L 43.21875 8.296875 
Q 40.140625 3.328125 35.546875 0.953125 
Q 30.953125 -1.421875 24.3125 -1.421875 
Q 15.921875 -1.421875 10.953125 3.296875 
Q 6 8.015625 6 15.921875 
Q 6 25.140625 12.171875 29.828125 
Q 18.359375 34.515625 30.609375 34.515625 
L 43.21875 34.515625 
L 43.21875 35.40625 
Q 43.21875 41.609375 39.140625 45 
Q 35.0625 48.390625 27.6875 48.390625 
Q 23 48.390625 18.546875 47.265625 
Q 14.109375 46.140625 10.015625 43.890625 
L 10.015625 52.203125 
Q 14.9375 54.109375 19.578125 55.046875 
Q 24.21875 56 28.609375 56 
Q 40.484375 56 46.34375 49.84375 
Q 52.203125 43.703125 52.203125 31.203125 
z
" id="DejaVuSans-97"/>
     <path d="M 39.40625 66.21875 
Q 28.65625 66.21875 22.328125 58.203125 
Q 16.015625 50.203125 16.015625 36.375 
Q 16.015625 22.609375 22.328125 14.59375 
Q 28.65625 6.59375 39.40625 6.59375 
Q 50.140625 6.59375 56.421875 14.59375 
Q 62.703125 22.609375 62.703125 36.375 
Q 62.703125 50.203125 56.421875 58.203125 
Q 50.140625 66.21875 39.40625 66.21875 
z
M 53.21875 1.3125 
L 66.21875 -12.890625 
L 54.296875 -12.890625 
L 43.5 -1.21875 
Q 41.890625 -1.3125 41.03125 -1.359375 
Q 40.1875 -1.421875 39.40625 -1.421875 
Q 24.03125 -1.421875 14.8125 8.859375 
Q 5.609375 19.140625 5.609375 36.375 
Q 5.609375 53.65625 14.8125 63.9375 
Q 24.03125 74.21875 39.40625 74.21875 
Q 54.734375 74.21875 63.90625 63.9375 
Q 73.09375 53.65625 73.09375 36.375 
Q 73.09375 23.6875 67.984375 14.640625 
Q 62.890625 5.609375 53.21875 1.3125 
z
" id="DejaVuSans-81"/>
     <path d="M 64.40625 67.28125 
L 64.40625 56.890625 
Q 59.421875 61.53125 53.78125 63.8125 
Q 48.140625 66.109375 41.796875 66.109375 
Q 29.296875 66.109375 22.65625 58.46875 
Q 16.015625 50.828125 16.015625 36.375 
Q 16.015625 21.96875 22.65625 14.328125 
Q 29.296875 6.6875 41.796875 6.6875 
Q 48.140625 6.6875 53.78125 8.984375 
Q 59.421875 11.28125 64.40625 15.921875 
L 64.40625 5.609375 
Q 59.234375 2.09375 53.4375 0.328125 
Q 47.65625 -1.421875 41.21875 -1.421875 
Q 24.65625 -1.421875 15.125 8.703125 
Q 5.609375 18.84375 5.609375 36.375 
Q 5.609375 53.953125 15.125 64.078125 
Q 24.65625 74.21875 41.21875 74.21875 
Q 47.75 74.21875 53.53125 72.484375 
Q 59.328125 70.75 64.40625 67.28125 
z
" id="DejaVuSans-67"/>
     <path d="M 11.71875 12.40625 
L 22.015625 12.40625 
L 22.015625 0 
L 11.71875 0 
z
M 11.71875 51.703125 
L 22.015625 51.703125 
L 22.015625 39.3125 
L 11.71875 39.3125 
z
" id="DejaVuSans-58"/>
     <path d="M 34.1875 63.1875 
L 20.796875 26.90625 
L 47.609375 26.90625 
z
M 28.609375 72.90625 
L 39.796875 72.90625 
L 67.578125 0 
L 57.328125 0 
L 50.6875 18.703125 
L 17.828125 18.703125 
L 11.1875 0 
L 0.78125 0 
z
" id="DejaVuSans-65"/>
     <path d="M 45.40625 46.390625 
L 45.40625 75.984375 
L 54.390625 75.984375 
L 54.390625 0 
L 45.40625 0 
L 45.40625 8.203125 
Q 42.578125 3.328125 38.25 0.953125 
Q 33.9375 -1.421875 27.875 -1.421875 
Q 17.96875 -1.421875 11.734375 6.484375 
Q 5.515625 14.40625 5.515625 27.296875 
Q 5.515625 40.1875 11.734375 48.09375 
Q 17.96875 56 27.875 56 
Q 33.9375 56 38.25 53.625 
Q 42.578125 51.265625 45.40625 46.390625 
z
M 14.796875 27.296875 
Q 14.796875 17.390625 18.875 11.75 
Q 22.953125 6.109375 30.078125 6.109375 
Q 37.203125 6.109375 41.296875 11.75 
Q 45.40625 17.390625 45.40625 27.296875 
Q 45.40625 37.203125 41.296875 42.84375 
Q 37.203125 48.484375 30.078125 48.484375 
Q 22.953125 48.484375 18.875 42.84375 
Q 14.796875 37.203125 14.796875 27.296875 
z
" id="DejaVuSans-100"/>
     <path d="M 41.109375 46.296875 
Q 39.59375 47.171875 37.8125 47.578125 
Q 36.03125 48 33.890625 48 
Q 26.265625 48 22.1875 43.046875 
Q 18.109375 38.09375 18.109375 28.8125 
L 18.109375 0 
L 9.078125 0 
L 9.078125 54.6875 
L 18.109375 54.6875 
L 18.109375 46.1875 
Q 20.953125 51.171875 25.484375 53.578125 
Q 30.03125 56 36.53125 56 
Q 37.453125 56 38.578125 55.875 
Q 39.703125 55.765625 41.0625 55.515625 
z
" id="DejaVuSans-114"/>
    </defs>
    <g transform="translate(415.433125 19.3575)scale(0.16 -0.16)">
     <use xlink:href="#DejaVuSans-70"/>
     <use x="57.378906" xlink:href="#DejaVuSans-97"/>
     <use x="118.658203" xlink:href="#DejaVuSans-115"/>
     <use x="170.757812" xlink:href="#DejaVuSans-116"/>
     <use x="209.966797" xlink:href="#DejaVuSans-81"/>
     <use x="288.677734" xlink:href="#DejaVuSans-67"/>
     <use x="358.501953" xlink:href="#DejaVuSans-58"/>
     <use x="392.193359" xlink:href="#DejaVuSans-32"/>
     <use x="423.980469" xlink:href="#DejaVuSans-65"/>
     <use x="492.373047" xlink:href="#DejaVuSans-100"/>
     <use x="555.849609" xlink:href="#DejaVuSans-97"/>
     <use x="617.128906" xlink:href="#DejaVuSans-112"/>
     <use x="680.605469" xlink:href="#DejaVuSans-116"/>
     <use x="719.814453" xlink:href="#DejaVuSans-101"/>
     <use x="781.337891" xlink:href="#DejaVuSans-114"/>
     <use x="822.451172" xlink:href="#DejaVuSans-32"/>
     <use x="854.238281" xlink:href="#DejaVuSans-67"/>
     <use x="924.0625" xlink:href="#DejaVuSans-111"/>
     <use x="985.244141" xlink:href="#DejaVuSans-110"/>
     <use x="1048.623047" xlink:href="#DejaVuSans-116"/>
     <use x="1087.832031" xlink:href="#DejaVuSans-101"/>
     <use x="1149.355469" xlink:href="#DejaVuSans-110"/>
     <use x="1212.734375" xlink:href="#DejaVuSans-116"/>
    </g>
   </g>
   <g id="legend_1">
    <g id="line2d_12">
     <path d="M 45.258125 315.455394 
L 61.258125 315.455394 
" style="fill:none;stroke:#7cb5ec;stroke-linecap:square;"/>
    </g>
    <g id="line2d_13"/>
    <g id="text_18">
     <!-- Tcr-CJol_006-Ex1-2B-ssl-1-1.1 - illumina_universal_adapter -->
     <defs>
      <path d="M -0.296875 72.90625 
L 61.375 72.90625 
L 61.375 64.59375 
L 35.5 64.59375 
L 35.5 0 
L 25.59375 0 
L 25.59375 64.59375 
L -0.296875 64.59375 
z
" id="DejaVuSans-84"/>
      <path d="M 4.890625 31.390625 
L 31.203125 31.390625 
L 31.203125 23.390625 
L 4.890625 23.390625 
z
" id="DejaVuSans-45"/>
      <path d="M 9.8125 72.90625 
L 19.671875 72.90625 
L 19.671875 5.078125 
Q 19.671875 -8.109375 14.671875 -14.0625 
Q 9.671875 -20.015625 -1.421875 -20.015625 
L -5.171875 -20.015625 
L -5.171875 -11.71875 
L -2.09375 -11.71875 
Q 4.4375 -11.71875 7.125 -8.046875 
Q 9.8125 -4.390625 9.8125 5.078125 
z
" id="DejaVuSans-74"/>
      <path d="M 9.421875 75.984375 
L 18.40625 75.984375 
L 18.40625 0 
L 9.421875 0 
z
" id="DejaVuSans-108"/>
      <path d="M 50.984375 -16.609375 
L 50.984375 -23.578125 
L -0.984375 -23.578125 
L -0.984375 -16.609375 
z
" id="DejaVuSans-95"/>
      <path d="M 9.8125 72.90625 
L 55.90625 72.90625 
L 55.90625 64.59375 
L 19.671875 64.59375 
L 19.671875 43.015625 
L 54.390625 43.015625 
L 54.390625 34.71875 
L 19.671875 34.71875 
L 19.671875 8.296875 
L 56.78125 8.296875 
L 56.78125 0 
L 9.8125 0 
z
" id="DejaVuSans-69"/>
      <path d="M 54.890625 54.6875 
L 35.109375 28.078125 
L 55.90625 0 
L 45.3125 0 
L 29.390625 21.484375 
L 13.484375 0 
L 2.875 0 
L 24.125 28.609375 
L 4.6875 54.6875 
L 15.28125 54.6875 
L 29.78125 35.203125 
L 44.28125 54.6875 
z
" id="DejaVuSans-120"/>
      <path d="M 19.671875 34.8125 
L 19.671875 8.109375 
L 35.5 8.109375 
Q 43.453125 8.109375 47.28125 11.40625 
Q 51.125 14.703125 51.125 21.484375 
Q 51.125 28.328125 47.28125 31.5625 
Q 43.453125 34.8125 35.5 34.8125 
z
M 19.671875 64.796875 
L 19.671875 42.828125 
L 34.28125 42.828125 
Q 41.5 42.828125 45.03125 45.53125 
Q 48.578125 48.25 48.578125 53.8125 
Q 48.578125 59.328125 45.03125 62.0625 
Q 41.5 64.796875 34.28125 64.796875 
z
M 9.8125 72.90625 
L 35.015625 72.90625 
Q 46.296875 72.90625 52.390625 68.21875 
Q 58.5 63.53125 58.5 54.890625 
Q 58.5 48.1875 55.375 44.234375 
Q 52.25 40.28125 46.1875 39.3125 
Q 53.46875 37.75 57.5 32.78125 
Q 61.53125 27.828125 61.53125 20.40625 
Q 61.53125 10.640625 54.890625 5.3125 
Q 48.25 0 35.984375 0 
L 9.8125 0 
z
" id="DejaVuSans-66"/>
      <path d="M 10.6875 12.40625 
L 21 12.40625 
L 21 0 
L 10.6875 0 
z
" id="DejaVuSans-46"/>
      <path d="M 52 44.1875 
Q 55.375 50.25 60.0625 53.125 
Q 64.75 56 71.09375 56 
Q 79.640625 56 84.28125 50.015625 
Q 88.921875 44.046875 88.921875 33.015625 
L 88.921875 0 
L 79.890625 0 
L 79.890625 32.71875 
Q 79.890625 40.578125 77.09375 44.375 
Q 74.3125 48.1875 68.609375 48.1875 
Q 61.625 48.1875 57.5625 43.546875 
Q 53.515625 38.921875 53.515625 30.90625 
L 53.515625 0 
L 44.484375 0 
L 44.484375 32.71875 
Q 44.484375 40.625 41.703125 44.40625 
Q 38.921875 48.1875 33.109375 48.1875 
Q 26.21875 48.1875 22.15625 43.53125 
Q 18.109375 38.875 18.109375 30.90625 
L 18.109375 0 
L 9.078125 0 
L 9.078125 54.6875 
L 18.109375 54.6875 
L 18.109375 46.1875 
Q 21.1875 51.21875 25.484375 53.609375 
Q 29.78125 56 35.6875 56 
Q 41.65625 56 45.828125 52.96875 
Q 50 49.953125 52 44.1875 
z
" id="DejaVuSans-109"/>
      <path d="M 2.984375 54.6875 
L 12.5 54.6875 
L 29.59375 8.796875 
L 46.6875 54.6875 
L 56.203125 54.6875 
L 35.6875 0 
L 23.484375 0 
z
" id="DejaVuSans-118"/>
     </defs>
     <g transform="translate(67.658125 318.255394)scale(0.08 -0.08)">
      <use xlink:href="#DejaVuSans-84"/>
      <use x="60.818359" xlink:href="#DejaVuSans-99"/>
      <use x="115.798828" xlink:href="#DejaVuSans-114"/>
      <use x="156.818359" xlink:href="#DejaVuSans-45"/>
      <use x="192.902344" xlink:href="#DejaVuSans-67"/>
      <use x="262.726562" xlink:href="#DejaVuSans-74"/>
      <use x="292.21875" xlink:href="#DejaVuSans-111"/>
      <use x="353.400391" xlink:href="#DejaVuSans-108"/>
      <use x="381.183594" xlink:href="#DejaVuSans-95"/>
      <use x="431.183594" xlink:href="#DejaVuSans-48"/>
      <use x="494.806641" xlink:href="#DejaVuSans-48"/>
      <use x="558.429688" xlink:href="#DejaVuSans-54"/>
      <use x="622.052734" xlink:href="#DejaVuSans-45"/>
      <use x="658.136719" xlink:href="#DejaVuSans-69"/>
      <use x="721.320312" xlink:href="#DejaVuSans-120"/>
      <use x="780.5" xlink:href="#DejaVuSans-49"/>
      <use x="844.123047" xlink:href="#DejaVuSans-45"/>
      <use x="880.207031" xlink:href="#DejaVuSans-50"/>
      <use x="943.830078" xlink:href="#DejaVuSans-66"/>
      <use x="1012.433594" xlink:href="#DejaVuSans-45"/>
      <use x="1048.517578" xlink:href="#DejaVuSans-115"/>
      <use x="1100.617188" xlink:href="#DejaVuSans-115"/>
      <use x="1152.716797" xlink:href="#DejaVuSans-108"/>
      <use x="1180.5" xlink:href="#DejaVuSans-45"/>
      <use x="1216.583984" xlink:href="#DejaVuSans-49"/>
      <use x="1280.207031" xlink:href="#DejaVuSans-45"/>
      <use x="1316.291016" xlink:href="#DejaVuSans-49"/>
      <use x="1379.914062" xlink:href="#DejaVuSans-46"/>
      <use x="1411.701172" xlink:href="#DejaVuSans-49"/>
      <use x="1475.324219" xlink:href="#DejaVuSans-32"/>
      <use x="1507.111328" xlink:href="#DejaVuSans-45"/>
      <use x="1543.195312" xlink:href="#DejaVuSans-32"/>
      <use x="1574.982422" xlink:href="#DejaVuSans-105"/>
      <use x="1602.765625" xlink:href="#DejaVuSans-108"/>
      <use x="1630.548828" xlink:href="#DejaVuSans-108"/>
      <use x="1658.332031" xlink:href="#DejaVuSans-117"/>
      <use x="1721.710938" xlink:href="#DejaVuSans-109"/>
      <use x="1819.123047" xlink:href="#DejaVuSans-105"/>
      <use x="1846.90625" xlink:href="#DejaVuSans-110"/>
      <use x="1910.285156" xlink:href="#DejaVuSans-97"/>
      <use x="1971.564453" xlink:href="#DejaVuSans-95"/>
      <use x="2021.564453" xlink:href="#DejaVuSans-117"/>
      <use x="2084.943359" xlink:href="#DejaVuSans-110"/>
      <use x="2148.322266" xlink:href="#DejaVuSans-105"/>
      <use x="2176.105469" xlink:href="#DejaVuSans-118"/>
      <use x="2235.285156" xlink:href="#DejaVuSans-101"/>
      <use x="2296.808594" xlink:href="#DejaVuSans-114"/>
      <use x="2337.921875" xlink:href="#DejaVuSans-115"/>
      <use x="2390.021484" xlink:href="#DejaVuSans-97"/>
      <use x="2451.300781" xlink:href="#DejaVuSans-108"/>
      <use x="2479.083984" xlink:href="#DejaVuSans-95"/>
      <use x="2529.083984" xlink:href="#DejaVuSans-97"/>
      <use x="2590.363281" xlink:href="#DejaVuSans-100"/>
      <use x="2653.839844" xlink:href="#DejaVuSans-97"/>
      <use x="2715.119141" xlink:href="#DejaVuSans-112"/>
      <use x="2778.595703" xlink:href="#DejaVuSans-116"/>
      <use x="2817.804688" xlink:href="#DejaVuSans-101"/>
      <use x="2879.328125" xlink:href="#DejaVuSans-114"/>
     </g>
    </g>
    <g id="line2d_14">
     <path d="M 273.402292 315.455394 
L 289.402292 315.455394 
" style="fill:none;stroke:#434348;stroke-linecap:square;"/>
    </g>
    <g id="line2d_15"/>
    <g id="text_19">
     <!-- Tcr-CJol_006-Ex1-2B-ssl-1-1.2 - illumina_universal_adapter -->
     <g transform="translate(295.802292 318.255394)scale(0.08 -0.08)">
      <use xlink:href="#DejaVuSans-84"/>
      <use x="60.818359" xlink:href="#DejaVuSans-99"/>
      <use x="115.798828" xlink:href="#DejaVuSans-114"/>
      <use x="156.818359" xlink:href="#DejaVuSans-45"/>
      <use x="192.902344" xlink:href="#DejaVuSans-67"/>
      <use x="262.726562" xlink:href="#DejaVuSans-74"/>
      <use x="292.21875" xlink:href="#DejaVuSans-111"/>
      <use x="353.400391" xlink:href="#DejaVuSans-108"/>
      <use x="381.183594" xlink:href="#DejaVuSans-95"/>
      <use x="431.183594" xlink:href="#DejaVuSans-48"/>
      <use x="494.806641" xlink:href="#DejaVuSans-48"/>
      <use x="558.429688" xlink:href="#DejaVuSans-54"/>
      <use x="622.052734" xlink:href="#DejaVuSans-45"/>
      <use x="658.136719" xlink:href="#DejaVuSans-69"/>
      <use x="721.320312" xlink:href="#DejaVuSans-120"/>
      <use x="780.5" xlink:href="#DejaVuSans-49"/>
      <use x="844.123047" xlink:href="#DejaVuSans-45"/>
      <use x="880.207031" xlink:href="#DejaVuSans-50"/>
      <use x="943.830078" xlink:href="#DejaVuSans-66"/>
      <use x="1012.433594" xlink:href="#DejaVuSans-45"/>
      <use x="1048.517578" xlink:href="#DejaVuSans-115"/>
      <use x="1100.617188" xlink:href="#DejaVuSans-115"/>
      <use x="1152.716797" xlink:href="#DejaVuSans-108"/>
      <use x="1180.5" xlink:href="#DejaVuSans-45"/>
      <use x="1216.583984" xlink:href="#DejaVuSans-49"/>
      <use x="1280.207031" xlink:href="#DejaVuSans-45"/>
      <use x="1316.291016" xlink:href="#DejaVuSans-49"/>
      <use x="1379.914062" xlink:href="#DejaVuSans-46"/>
      <use x="1411.701172" xlink:href="#DejaVuSans-50"/>
      <use x="1475.324219" xlink:href="#DejaVuSans-32"/>
      <use x="1507.111328" xlink:href="#DejaVuSans-45"/>
      <use x="1543.195312" xlink:href="#DejaVuSans-32"/>
      <use x="1574.982422" xlink:href="#DejaVuSans-105"/>
      <use x="1602.765625" xlink:href="#DejaVuSans-108"/>
      <use x="1630.548828" xlink:href="#DejaVuSans-108"/>
      <use x="1658.332031" xlink:href="#DejaVuSans-117"/>
      <use x="1721.710938" xlink:href="#DejaVuSans-109"/>
      <use x="1819.123047" xlink:href="#DejaVuSans-105"/>
      <use x="1846.90625" xlink:href="#DejaVuSans-110"/>
      <use x="1910.285156" xlink:href="#DejaVuSans-97"/>
      <use x="1971.564453" xlink:href="#DejaVuSans-95"/>
      <use x="2021.564453" xlink:href="#DejaVuSans-117"/>
      <use x="2084.943359" xlink:href="#DejaVuSans-110"/>
      <use x="2148.322266" xlink:href="#DejaVuSans-105"/>
      <use x="2176.105469" xlink:href="#DejaVuSans-118"/>
      <use x="2235.285156" xlink:href="#DejaVuSans-101"/>
      <use x="2296.808594" xlink:href="#DejaVuSans-114"/>
      <use x="2337.921875" xlink:href="#DejaVuSans-115"/>
      <use x="2390.021484" xlink:href="#DejaVuSans-97"/>
      <use x="2451.300781" xlink:href="#DejaVuSans-108"/>
      <use x="2479.083984" xlink:href="#DejaVuSans-95"/>
      <use x="2529.083984" xlink:href="#DejaVuSans-97"/>
      <use x="2590.363281" xlink:href="#DejaVuSans-100"/>
      <use x="2653.839844" xlink:href="#DejaVuSans-97"/>
      <use x="2715.119141" xlink:href="#DejaVuSans-112"/>
      <use x="2778.595703" xlink:href="#DejaVuSans-116"/>
      <use x="2817.804688" xlink:href="#DejaVuSans-101"/>
      <use x="2879.328125" xlink:href="#DejaVuSans-114"/>
     </g>
    </g>
    <g id="line2d_16">
     <path d="M 501.546458 315.455394 
L 517.546458 315.455394 
" style="fill:none;stroke:#90ed7d;stroke-linecap:square;"/>
    </g>
    <g id="line2d_17"/>
    <g id="text_20">
     <!-- Tcr-CJol_006-Ex1-2C-ssl-1-1.1 - illumina_universal_adapter -->
     <g transform="translate(523.946458 318.255394)scale(0.08 -0.08)">
      <use xlink:href="#DejaVuSans-84"/>
      <use x="60.818359" xlink:href="#DejaVuSans-99"/>
      <use x="115.798828" xlink:href="#DejaVuSans-114"/>
      <use x="156.818359" xlink:href="#DejaVuSans-45"/>
      <use x="192.902344" xlink:href="#DejaVuSans-67"/>
      <use x="262.726562" xlink:href="#DejaVuSans-74"/>
      <use x="292.21875" xlink:href="#DejaVuSans-111"/>
      <use x="353.400391" xlink:href="#DejaVuSans-108"/>
      <use x="381.183594" xlink:href="#DejaVuSans-95"/>
      <use x="431.183594" xlink:href="#DejaVuSans-48"/>
      <use x="494.806641" xlink:href="#DejaVuSans-48"/>
      <use x="558.429688" xlink:href="#DejaVuSans-54"/>
      <use x="622.052734" xlink:href="#DejaVuSans-45"/>
      <use x="658.136719" xlink:href="#DejaVuSans-69"/>
      <use x="721.320312" xlink:href="#DejaVuSans-120"/>
      <use x="780.5" xlink:href="#DejaVuSans-49"/>
      <use x="844.123047" xlink:href="#DejaVuSans-45"/>
      <use x="880.207031" xlink:href="#DejaVuSans-50"/>
      <use x="943.830078" xlink:href="#DejaVuSans-67"/>
      <use x="1013.654297" xlink:href="#DejaVuSans-45"/>
      <use x="1049.738281" xlink:href="#DejaVuSans-115"/>
      <use x="1101.837891" xlink:href="#DejaVuSans-115"/>
      <use x="1153.9375" xlink:href="#DejaVuSans-108"/>
      <use x="1181.720703" xlink:href="#DejaVuSans-45"/>
      <use x="1217.804688" xlink:href="#DejaVuSans-49"/>
      <use x="1281.427734" xlink:href="#DejaVuSans-45"/>
      <use x="1317.511719" xlink:href="#DejaVuSans-49"/>
      <use x="1381.134766" xlink:href="#DejaVuSans-46"/>
      <use x="1412.921875" xlink:href="#DejaVuSans-49"/>
      <use x="1476.544922" xlink:href="#DejaVuSans-32"/>
      <use x="1508.332031" xlink:href="#DejaVuSans-45"/>
      <use x="1544.416016" xlink:href="#DejaVuSans-32"/>
      <use x="1576.203125" xlink:href="#DejaVuSans-105"/>
      <use x="1603.986328" xlink:href="#DejaVuSans-108"/>
      <use x="1631.769531" xlink:href="#DejaVuSans-108"/>
      <use x="1659.552734" xlink:href="#DejaVuSans-117"/>
      <use x="1722.931641" xlink:href="#DejaVuSans-109"/>
      <use x="1820.34375" xlink:href="#DejaVuSans-105"/>
      <use x="1848.126953" xlink:href="#DejaVuSans-110"/>
      <use x="1911.505859" xlink:href="#DejaVuSans-97"/>
      <use x="1972.785156" xlink:href="#DejaVuSans-95"/>
      <use x="2022.785156" xlink:href="#DejaVuSans-117"/>
      <use x="2086.164062" xlink:href="#DejaVuSans-110"/>
      <use x="2149.542969" xlink:href="#DejaVuSans-105"/>
      <use x="2177.326172" xlink:href="#DejaVuSans-118"/>
      <use x="2236.505859" xlink:href="#DejaVuSans-101"/>
      <use x="2298.029297" xlink:href="#DejaVuSans-114"/>
      <use x="2339.142578" xlink:href="#DejaVuSans-115"/>
      <use x="2391.242188" xlink:href="#DejaVuSans-97"/>
      <use x="2452.521484" xlink:href="#DejaVuSans-108"/>
      <use x="2480.304688" xlink:href="#DejaVuSans-95"/>
      <use x="2530.304688" xlink:href="#DejaVuSans-97"/>
      <use x="2591.583984" xlink:href="#DejaVuSans-100"/>
      <use x="2655.060547" xlink:href="#DejaVuSans-97"/>
      <use x="2716.339844" xlink:href="#DejaVuSans-112"/>
      <use x="2779.816406" xlink:href="#DejaVuSans-116"/>
      <use x="2819.025391" xlink:href="#DejaVuSans-101"/>
      <use x="2880.548828" xlink:href="#DejaVuSans-114"/>
     </g>
    </g>
    <g id="line2d_18">
     <path d="M 729.788125 315.455394 
L 745.788125 315.455394 
" style="fill:none;stroke:#f7a35c;stroke-linecap:square;"/>
    </g>
    <g id="line2d_19"/>
    <g id="text_21">
     <!-- Tcr-CJol_006-Ex1-2C-ssl-1-1.2 - illumina_universal_adapter -->
     <g transform="translate(752.188125 318.255394)scale(0.08 -0.08)">
      <use xlink:href="#DejaVuSans-84"/>
      <use x="60.818359" xlink:href="#DejaVuSans-99"/>
      <use x="115.798828" xlink:href="#DejaVuSans-114"/>
      <use x="156.818359" xlink:href="#DejaVuSans-45"/>
      <use x="192.902344" xlink:href="#DejaVuSans-67"/>
      <use x="262.726562" xlink:href="#DejaVuSans-74"/>
      <use x="292.21875" xlink:href="#DejaVuSans-111"/>
      <use x="353.400391" xlink:href="#DejaVuSans-108"/>
      <use x="381.183594" xlink:href="#DejaVuSans-95"/>
      <use x="431.183594" xlink:href="#DejaVuSans-48"/>
      <use x="494.806641" xlink:href="#DejaVuSans-48"/>
      <use x="558.429688" xlink:href="#DejaVuSans-54"/>
      <use x="622.052734" xlink:href="#DejaVuSans-45"/>
      <use x="658.136719" xlink:href="#DejaVuSans-69"/>
      <use x="721.320312" xlink:href="#DejaVuSans-120"/>
      <use x="780.5" xlink:href="#DejaVuSans-49"/>
      <use x="844.123047" xlink:href="#DejaVuSans-45"/>
      <use x="880.207031" xlink:href="#DejaVuSans-50"/>
      <use x="943.830078" xlink:href="#DejaVuSans-67"/>
      <use x="1013.654297" xlink:href="#DejaVuSans-45"/>
      <use x="1049.738281" xlink:href="#DejaVuSans-115"/>
      <use x="1101.837891" xlink:href="#DejaVuSans-115"/>
      <use x="1153.9375" xlink:href="#DejaVuSans-108"/>
      <use x="1181.720703" xlink:href="#DejaVuSans-45"/>
      <use x="1217.804688" xlink:href="#DejaVuSans-49"/>
      <use x="1281.427734" xlink:href="#DejaVuSans-45"/>
      <use x="1317.511719" xlink:href="#DejaVuSans-49"/>
      <use x="1381.134766" xlink:href="#DejaVuSans-46"/>
      <use x="1412.921875" xlink:href="#DejaVuSans-50"/>
      <use x="1476.544922" xlink:href="#DejaVuSans-32"/>
      <use x="1508.332031" xlink:href="#DejaVuSans-45"/>
      <use x="1544.416016" xlink:href="#DejaVuSans-32"/>
      <use x="1576.203125" xlink:href="#DejaVuSans-105"/>
      <use x="1603.986328" xlink:href="#DejaVuSans-108"/>
      <use x="1631.769531" xlink:href="#DejaVuSans-108"/>
      <use x="1659.552734" xlink:href="#DejaVuSans-117"/>
      <use x="1722.931641" xlink:href="#DejaVuSans-109"/>
      <use x="1820.34375" xlink:href="#DejaVuSans-105"/>
      <use x="1848.126953" xlink:href="#DejaVuSans-110"/>
      <use x="1911.505859" xlink:href="#DejaVuSans-97"/>
      <use x="1972.785156" xlink:href="#DejaVuSans-95"/>
      <use x="2022.785156" xlink:href="#DejaVuSans-117"/>
      <use x="2086.164062" xlink:href="#DejaVuSans-110"/>
      <use x="2149.542969" xlink:href="#DejaVuSans-105"/>
      <use x="2177.326172" xlink:href="#DejaVuSans-118"/>
      <use x="2236.505859" xlink:href="#DejaVuSans-101"/>
      <use x="2298.029297" xlink:href="#DejaVuSans-114"/>
      <use x="2339.142578" xlink:href="#DejaVuSans-115"/>
      <use x="2391.242188" xlink:href="#DejaVuSans-97"/>
      <use x="2452.521484" xlink:href="#DejaVuSans-108"/>
      <use x="2480.304688" xlink:href="#DejaVuSans-95"/>
      <use x="2530.304688" xlink:href="#DejaVuSans-97"/>
      <use x="2591.583984" xlink:href="#DejaVuSans-100"/>
      <use x="2655.060547" xlink:href="#DejaVuSans-97"/>
      <use x="2716.339844" xlink:href="#DejaVuSans-112"/>
      <use x="2779.816406" xlink:href="#DejaVuSans-116"/>
      <use x="2819.025391" xlink:href="#DejaVuSans-101"/>
      <use x="2880.548828" xlink:href="#DejaVuSans-114"/>
     </g>
    </g>
   </g>
  </g>
 </g>
 <defs>
  <clipPath id="pc1fef4e42f">
   <rect height="242.5072" width="955.06" x="38.058125" y="31.48286"/>
  </clipPath>
 </defs>
</svg>
