<?xml version="1.0" encoding="utf-8" standalone="no"?>
<!DOCTYPE svg PUBLIC "-//W3C//DTD SVG 1.1//EN"
  "http://www.w3.org/Graphics/SVG/1.1/DTD/svg11.dtd">
<!-- Created with matplotlib (https://matplotlib.org/) -->
<svg height="330.541644pt" version="1.1" viewBox="0 0 1000.340625 330.541644" width="1000.340625pt" xmlns="http://www.w3.org/2000/svg" xmlns:xlink="http://www.w3.org/1999/xlink">
 <defs>
  <style type="text/css">
*{stroke-linecap:butt;stroke-linejoin:round;}
  </style>
 </defs>
 <g id="figure_1">
  <g id="axes_1">
   <g id="patch_1">
    <path d="M 40.600625 273.99006 
L 993.140625 273.99006 
L 993.140625 31.48286 
L 40.600625 31.48286 
z
" style="fill:#ffffff;"/>
   </g>
   <g id="matplotlib.axis_1">
    <g id="xtick_1">
     <g id="text_1">
      <!-- 0 -->
      <defs>
       <path d="M 31.78125 66.40625 
Q 24.171875 66.40625 20.328125 58.90625 
Q 16.5 51.421875 16.5 36.375 
Q 16.5 21.390625 20.328125 13.890625 
Q 24.171875 6.390625 31.78125 6.390625 
Q 39.453125 6.390625 43.28125 13.890625 
Q 47.125 21.390625 47.125 36.375 
Q 47.125 51.421875 43.28125 58.90625 
Q 39.453125 66.40625 31.78125 66.40625 
z
M 31.78125 74.21875 
Q 44.046875 74.21875 50.515625 64.515625 
Q 56.984375 54.828125 56.984375 36.375 
Q 56.984375 17.96875 50.515625 8.265625 
Q 44.046875 -1.421875 31.78125 -1.421875 
Q 19.53125 -1.421875 13.0625 8.265625 
Q 6.59375 17.96875 6.59375 36.375 
Q 6.59375 54.828125 13.0625 64.515625 
Q 19.53125 74.21875 31.78125 74.21875 
z
" id="DejaVuSans-48"/>
      </defs>
      <g transform="translate(78.13377 287.06881)scale(0.08 -0.08)">
       <use xlink:href="#DejaVuSans-48"/>
      </g>
     </g>
    </g>
    <g id="xtick_2">
     <g id="text_2">
      <!-- 50 -->
      <defs>
       <path d="M 10.796875 72.90625 
L 49.515625 72.90625 
L 49.515625 64.59375 
L 19.828125 64.59375 
L 19.828125 46.734375 
Q 21.96875 47.46875 24.109375 47.828125 
Q 26.265625 48.1875 28.421875 48.1875 
Q 40.625 48.1875 47.75 41.5 
Q 54.890625 34.8125 54.890625 23.390625 
Q 54.890625 11.625 47.5625 5.09375 
Q 40.234375 -1.421875 26.90625 -1.421875 
Q 22.3125 -1.421875 17.546875 -0.640625 
Q 12.796875 0.140625 7.71875 1.703125 
L 7.71875 11.625 
Q 12.109375 9.234375 16.796875 8.0625 
Q 21.484375 6.890625 26.703125 6.890625 
Q 35.15625 6.890625 40.078125 11.328125 
Q 45.015625 15.765625 45.015625 23.390625 
Q 45.015625 31 40.078125 35.4375 
Q 35.15625 39.890625 26.703125 39.890625 
Q 22.75 39.890625 18.8125 39.015625 
Q 14.890625 38.140625 10.796875 36.28125 
z
" id="DejaVuSans-53"/>
      </defs>
      <g transform="translate(236.545174 287.06881)scale(0.08 -0.08)">
       <use xlink:href="#DejaVuSans-53"/>
       <use x="63.623047" xlink:href="#DejaVuSans-48"/>
      </g>
     </g>
    </g>
    <g id="xtick_3">
     <g id="text_3">
      <!-- 100 -->
      <defs>
       <path d="M 12.40625 8.296875 
L 28.515625 8.296875 
L 28.515625 63.921875 
L 10.984375 60.40625 
L 10.984375 69.390625 
L 28.421875 72.90625 
L 38.28125 72.90625 
L 38.28125 8.296875 
L 54.390625 8.296875 
L 54.390625 0 
L 12.40625 0 
z
" id="DejaVuSans-49"/>
      </defs>
      <g transform="translate(394.956578 287.06881)scale(0.08 -0.08)">
       <use xlink:href="#DejaVuSans-49"/>
       <use x="63.623047" xlink:href="#DejaVuSans-48"/>
       <use x="127.246094" xlink:href="#DejaVuSans-48"/>
      </g>
     </g>
    </g>
    <g id="xtick_4">
     <g id="text_4">
      <!-- 150 -->
      <g transform="translate(555.912982 287.06881)scale(0.08 -0.08)">
       <use xlink:href="#DejaVuSans-49"/>
       <use x="63.623047" xlink:href="#DejaVuSans-53"/>
       <use x="127.246094" xlink:href="#DejaVuSans-48"/>
      </g>
     </g>
    </g>
    <g id="xtick_5">
     <g id="text_5">
      <!-- 200 -->
      <defs>
       <path d="M 19.1875 8.296875 
L 53.609375 8.296875 
L 53.609375 0 
L 7.328125 0 
L 7.328125 8.296875 
Q 12.9375 14.109375 22.625 23.890625 
Q 32.328125 33.6875 34.8125 36.53125 
Q 39.546875 41.84375 41.421875 45.53125 
Q 43.3125 49.21875 43.3125 52.78125 
Q 43.3125 58.59375 39.234375 62.25 
Q 35.15625 65.921875 28.609375 65.921875 
Q 23.96875 65.921875 18.8125 64.3125 
Q 13.671875 62.703125 7.8125 59.421875 
L 7.8125 69.390625 
Q 13.765625 71.78125 18.9375 73 
Q 24.125 74.21875 28.421875 74.21875 
Q 39.75 74.21875 46.484375 68.546875 
Q 53.21875 62.890625 53.21875 53.421875 
Q 53.21875 48.921875 51.53125 44.890625 
Q 49.859375 40.875 45.40625 35.40625 
Q 44.1875 33.984375 37.640625 27.21875 
Q 31.109375 20.453125 19.1875 8.296875 
z
" id="DejaVuSans-50"/>
      </defs>
      <g transform="translate(716.869386 287.06881)scale(0.08 -0.08)">
       <use xlink:href="#DejaVuSans-50"/>
       <use x="63.623047" xlink:href="#DejaVuSans-48"/>
       <use x="127.246094" xlink:href="#DejaVuSans-48"/>
      </g>
     </g>
    </g>
    <g id="xtick_6">
     <g id="text_6">
      <!-- 250 -->
      <g transform="translate(877.825791 287.06881)scale(0.08 -0.08)">
       <use xlink:href="#DejaVuSans-50"/>
       <use x="63.623047" xlink:href="#DejaVuSans-53"/>
       <use x="127.246094" xlink:href="#DejaVuSans-48"/>
      </g>
     </g>
    </g>
    <g id="text_7">
     <!-- Insert size -->
     <defs>
      <path d="M 9.8125 72.90625 
L 19.671875 72.90625 
L 19.671875 0 
L 9.8125 0 
z
" id="DejaVuSans-73"/>
      <path d="M 54.890625 33.015625 
L 54.890625 0 
L 45.90625 0 
L 45.90625 32.71875 
Q 45.90625 40.484375 42.875 44.328125 
Q 39.84375 48.1875 33.796875 48.1875 
Q 26.515625 48.1875 22.3125 43.546875 
Q 18.109375 38.921875 18.109375 30.90625 
L 18.109375 0 
L 9.078125 0 
L 9.078125 54.6875 
L 18.109375 54.6875 
L 18.109375 46.1875 
Q 21.34375 51.125 25.703125 53.5625 
Q 30.078125 56 35.796875 56 
Q 45.21875 56 50.046875 50.171875 
Q 54.890625 44.34375 54.890625 33.015625 
z
" id="DejaVuSans-110"/>
      <path d="M 44.28125 53.078125 
L 44.28125 44.578125 
Q 40.484375 46.53125 36.375 47.5 
Q 32.28125 48.484375 27.875 48.484375 
Q 21.1875 48.484375 17.84375 46.4375 
Q 14.5 44.390625 14.5 40.28125 
Q 14.5 37.15625 16.890625 35.375 
Q 19.28125 33.59375 26.515625 31.984375 
L 29.59375 31.296875 
Q 39.15625 29.25 43.1875 25.515625 
Q 47.21875 21.78125 47.21875 15.09375 
Q 47.21875 7.46875 41.1875 3.015625 
Q 35.15625 -1.421875 24.609375 -1.421875 
Q 20.21875 -1.421875 15.453125 -0.5625 
Q 10.6875 0.296875 5.421875 2 
L 5.421875 11.28125 
Q 10.40625 8.6875 15.234375 7.390625 
Q 20.0625 6.109375 24.8125 6.109375 
Q 31.15625 6.109375 34.5625 8.28125 
Q 37.984375 10.453125 37.984375 14.40625 
Q 37.984375 18.0625 35.515625 20.015625 
Q 33.0625 21.96875 24.703125 23.78125 
L 21.578125 24.515625 
Q 13.234375 26.265625 9.515625 29.90625 
Q 5.8125 33.546875 5.8125 39.890625 
Q 5.8125 47.609375 11.28125 51.796875 
Q 16.75 56 26.8125 56 
Q 31.78125 56 36.171875 55.265625 
Q 40.578125 54.546875 44.28125 53.078125 
z
" id="DejaVuSans-115"/>
      <path d="M 56.203125 29.59375 
L 56.203125 25.203125 
L 14.890625 25.203125 
Q 15.484375 15.921875 20.484375 11.0625 
Q 25.484375 6.203125 34.421875 6.203125 
Q 39.59375 6.203125 44.453125 7.46875 
Q 49.3125 8.734375 54.109375 11.28125 
L 54.109375 2.78125 
Q 49.265625 0.734375 44.1875 -0.34375 
Q 39.109375 -1.421875 33.890625 -1.421875 
Q 20.796875 -1.421875 13.15625 6.1875 
Q 5.515625 13.8125 5.515625 26.8125 
Q 5.515625 40.234375 12.765625 48.109375 
Q 20.015625 56 32.328125 56 
Q 43.359375 56 49.78125 48.890625 
Q 56.203125 41.796875 56.203125 29.59375 
z
M 47.21875 32.234375 
Q 47.125 39.59375 43.09375 43.984375 
Q 39.0625 48.390625 32.421875 48.390625 
Q 24.90625 48.390625 20.390625 44.140625 
Q 15.875 39.890625 15.1875 32.171875 
z
" id="DejaVuSans-101"/>
      <path d="M 41.109375 46.296875 
Q 39.59375 47.171875 37.8125 47.578125 
Q 36.03125 48 33.890625 48 
Q 26.265625 48 22.1875 43.046875 
Q 18.109375 38.09375 18.109375 28.8125 
L 18.109375 0 
L 9.078125 0 
L 9.078125 54.6875 
L 18.109375 54.6875 
L 18.109375 46.1875 
Q 20.953125 51.171875 25.484375 53.578125 
Q 30.03125 56 36.53125 56 
Q 37.453125 56 38.578125 55.875 
Q 39.703125 55.765625 41.0625 55.515625 
z
" id="DejaVuSans-114"/>
      <path d="M 18.3125 70.21875 
L 18.3125 54.6875 
L 36.8125 54.6875 
L 36.8125 47.703125 
L 18.3125 47.703125 
L 18.3125 18.015625 
Q 18.3125 11.328125 20.140625 9.421875 
Q 21.96875 7.515625 27.59375 7.515625 
L 36.8125 7.515625 
L 36.8125 0 
L 27.59375 0 
Q 17.1875 0 13.234375 3.875 
Q 9.28125 7.765625 9.28125 18.015625 
L 9.28125 47.703125 
L 2.6875 47.703125 
L 2.6875 54.6875 
L 9.28125 54.6875 
L 9.28125 70.21875 
z
" id="DejaVuSans-116"/>
      <path id="DejaVuSans-32"/>
      <path d="M 9.421875 54.6875 
L 18.40625 54.6875 
L 18.40625 0 
L 9.421875 0 
z
M 9.421875 75.984375 
L 18.40625 75.984375 
L 18.40625 64.59375 
L 9.421875 64.59375 
z
" id="DejaVuSans-105"/>
      <path d="M 5.515625 54.6875 
L 48.1875 54.6875 
L 48.1875 46.484375 
L 14.40625 7.171875 
L 48.1875 7.171875 
L 48.1875 0 
L 4.296875 0 
L 4.296875 8.203125 
L 38.09375 47.515625 
L 5.515625 47.515625 
z
" id="DejaVuSans-122"/>
     </defs>
     <g transform="translate(491.246406 300.330997)scale(0.1 -0.1)">
      <use xlink:href="#DejaVuSans-73"/>
      <use x="29.492188" xlink:href="#DejaVuSans-110"/>
      <use x="92.871094" xlink:href="#DejaVuSans-115"/>
      <use x="144.970703" xlink:href="#DejaVuSans-101"/>
      <use x="206.494141" xlink:href="#DejaVuSans-114"/>
      <use x="247.607422" xlink:href="#DejaVuSans-116"/>
      <use x="286.816406" xlink:href="#DejaVuSans-32"/>
      <use x="318.603516" xlink:href="#DejaVuSans-115"/>
      <use x="370.703125" xlink:href="#DejaVuSans-105"/>
      <use x="398.486328" xlink:href="#DejaVuSans-122"/>
      <use x="450.976562" xlink:href="#DejaVuSans-101"/>
     </g>
    </g>
   </g>
   <g id="matplotlib.axis_2">
    <g id="ytick_1">
     <g id="line2d_1">
      <path clip-path="url(#p1a197baa47)" d="M 40.600625 273.99006 
L 993.140625 273.99006 
" style="fill:none;stroke:#dedede;stroke-linecap:square;"/>
     </g>
     <g id="text_8">
      <!-- 0.0 -->
      <defs>
       <path d="M 10.6875 12.40625 
L 21 12.40625 
L 21 0 
L 10.6875 0 
z
" id="DejaVuSans-46"/>
      </defs>
      <g transform="translate(20.878125 277.029435)scale(0.08 -0.08)">
       <use xlink:href="#DejaVuSans-48"/>
       <use x="63.623047" xlink:href="#DejaVuSans-46"/>
       <use x="95.410156" xlink:href="#DejaVuSans-48"/>
      </g>
     </g>
    </g>
    <g id="ytick_2">
     <g id="line2d_2">
      <path clip-path="url(#p1a197baa47)" d="M 40.600625 228.686738 
L 993.140625 228.686738 
" style="fill:none;stroke:#dedede;stroke-linecap:square;"/>
     </g>
     <g id="text_9">
      <!-- 0.2 -->
      <g transform="translate(20.878125 231.726113)scale(0.08 -0.08)">
       <use xlink:href="#DejaVuSans-48"/>
       <use x="63.623047" xlink:href="#DejaVuSans-46"/>
       <use x="95.410156" xlink:href="#DejaVuSans-50"/>
      </g>
     </g>
    </g>
    <g id="ytick_3">
     <g id="line2d_3">
      <path clip-path="url(#p1a197baa47)" d="M 40.600625 183.383415 
L 993.140625 183.383415 
" style="fill:none;stroke:#dedede;stroke-linecap:square;"/>
     </g>
     <g id="text_10">
      <!-- 0.4 -->
      <defs>
       <path d="M 37.796875 64.3125 
L 12.890625 25.390625 
L 37.796875 25.390625 
z
M 35.203125 72.90625 
L 47.609375 72.90625 
L 47.609375 25.390625 
L 58.015625 25.390625 
L 58.015625 17.1875 
L 47.609375 17.1875 
L 47.609375 0 
L 37.796875 0 
L 37.796875 17.1875 
L 4.890625 17.1875 
L 4.890625 26.703125 
z
" id="DejaVuSans-52"/>
      </defs>
      <g transform="translate(20.878125 186.42279)scale(0.08 -0.08)">
       <use xlink:href="#DejaVuSans-48"/>
       <use x="63.623047" xlink:href="#DejaVuSans-46"/>
       <use x="95.410156" xlink:href="#DejaVuSans-52"/>
      </g>
     </g>
    </g>
    <g id="ytick_4">
     <g id="line2d_4">
      <path clip-path="url(#p1a197baa47)" d="M 40.600625 138.080093 
L 993.140625 138.080093 
" style="fill:none;stroke:#dedede;stroke-linecap:square;"/>
     </g>
     <g id="text_11">
      <!-- 0.6 -->
      <defs>
       <path d="M 33.015625 40.375 
Q 26.375 40.375 22.484375 35.828125 
Q 18.609375 31.296875 18.609375 23.390625 
Q 18.609375 15.53125 22.484375 10.953125 
Q 26.375 6.390625 33.015625 6.390625 
Q 39.65625 6.390625 43.53125 10.953125 
Q 47.40625 15.53125 47.40625 23.390625 
Q 47.40625 31.296875 43.53125 35.828125 
Q 39.65625 40.375 33.015625 40.375 
z
M 52.59375 71.296875 
L 52.59375 62.3125 
Q 48.875 64.0625 45.09375 64.984375 
Q 41.3125 65.921875 37.59375 65.921875 
Q 27.828125 65.921875 22.671875 59.328125 
Q 17.53125 52.734375 16.796875 39.40625 
Q 19.671875 43.65625 24.015625 45.921875 
Q 28.375 48.1875 33.59375 48.1875 
Q 44.578125 48.1875 50.953125 41.515625 
Q 57.328125 34.859375 57.328125 23.390625 
Q 57.328125 12.15625 50.6875 5.359375 
Q 44.046875 -1.421875 33.015625 -1.421875 
Q 20.359375 -1.421875 13.671875 8.265625 
Q 6.984375 17.96875 6.984375 36.375 
Q 6.984375 53.65625 15.1875 63.9375 
Q 23.390625 74.21875 37.203125 74.21875 
Q 40.921875 74.21875 44.703125 73.484375 
Q 48.484375 72.75 52.59375 71.296875 
z
" id="DejaVuSans-54"/>
      </defs>
      <g transform="translate(20.878125 141.119468)scale(0.08 -0.08)">
       <use xlink:href="#DejaVuSans-48"/>
       <use x="63.623047" xlink:href="#DejaVuSans-46"/>
       <use x="95.410156" xlink:href="#DejaVuSans-54"/>
      </g>
     </g>
    </g>
    <g id="ytick_5">
     <g id="line2d_5">
      <path clip-path="url(#p1a197baa47)" d="M 40.600625 92.77677 
L 993.140625 92.77677 
" style="fill:none;stroke:#dedede;stroke-linecap:square;"/>
     </g>
     <g id="text_12">
      <!-- 0.8 -->
      <defs>
       <path d="M 31.78125 34.625 
Q 24.75 34.625 20.71875 30.859375 
Q 16.703125 27.09375 16.703125 20.515625 
Q 16.703125 13.921875 20.71875 10.15625 
Q 24.75 6.390625 31.78125 6.390625 
Q 38.8125 6.390625 42.859375 10.171875 
Q 46.921875 13.96875 46.921875 20.515625 
Q 46.921875 27.09375 42.890625 30.859375 
Q 38.875 34.625 31.78125 34.625 
z
M 21.921875 38.8125 
Q 15.578125 40.375 12.03125 44.71875 
Q 8.5 49.078125 8.5 55.328125 
Q 8.5 64.0625 14.71875 69.140625 
Q 20.953125 74.21875 31.78125 74.21875 
Q 42.671875 74.21875 48.875 69.140625 
Q 55.078125 64.0625 55.078125 55.328125 
Q 55.078125 49.078125 51.53125 44.71875 
Q 48 40.375 41.703125 38.8125 
Q 48.828125 37.15625 52.796875 32.3125 
Q 56.78125 27.484375 56.78125 20.515625 
Q 56.78125 9.90625 50.3125 4.234375 
Q 43.84375 -1.421875 31.78125 -1.421875 
Q 19.734375 -1.421875 13.25 4.234375 
Q 6.78125 9.90625 6.78125 20.515625 
Q 6.78125 27.484375 10.78125 32.3125 
Q 14.796875 37.15625 21.921875 38.8125 
z
M 18.3125 54.390625 
Q 18.3125 48.734375 21.84375 45.5625 
Q 25.390625 42.390625 31.78125 42.390625 
Q 38.140625 42.390625 41.71875 45.5625 
Q 45.3125 48.734375 45.3125 54.390625 
Q 45.3125 60.0625 41.71875 63.234375 
Q 38.140625 66.40625 31.78125 66.40625 
Q 25.390625 66.40625 21.84375 63.234375 
Q 18.3125 60.0625 18.3125 54.390625 
z
" id="DejaVuSans-56"/>
      </defs>
      <g transform="translate(20.878125 95.816145)scale(0.08 -0.08)">
       <use xlink:href="#DejaVuSans-48"/>
       <use x="63.623047" xlink:href="#DejaVuSans-46"/>
       <use x="95.410156" xlink:href="#DejaVuSans-56"/>
      </g>
     </g>
    </g>
    <g id="ytick_6">
     <g id="line2d_6">
      <path clip-path="url(#p1a197baa47)" d="M 40.600625 47.473448 
L 993.140625 47.473448 
" style="fill:none;stroke:#dedede;stroke-linecap:square;"/>
     </g>
     <g id="text_13">
      <!-- 1.0 -->
      <g transform="translate(20.878125 50.512823)scale(0.08 -0.08)">
       <use xlink:href="#DejaVuSans-49"/>
       <use x="63.623047" xlink:href="#DejaVuSans-46"/>
       <use x="95.410156" xlink:href="#DejaVuSans-48"/>
      </g>
     </g>
    </g>
    <g id="text_14">
     <!-- Read percent -->
     <defs>
      <path d="M 44.390625 34.1875 
Q 47.5625 33.109375 50.5625 29.59375 
Q 53.5625 26.078125 56.59375 19.921875 
L 66.609375 0 
L 56 0 
L 46.6875 18.703125 
Q 43.0625 26.03125 39.671875 28.421875 
Q 36.28125 30.8125 30.421875 30.8125 
L 19.671875 30.8125 
L 19.671875 0 
L 9.8125 0 
L 9.8125 72.90625 
L 32.078125 72.90625 
Q 44.578125 72.90625 50.734375 67.671875 
Q 56.890625 62.453125 56.890625 51.90625 
Q 56.890625 45.015625 53.6875 40.46875 
Q 50.484375 35.9375 44.390625 34.1875 
z
M 19.671875 64.796875 
L 19.671875 38.921875 
L 32.078125 38.921875 
Q 39.203125 38.921875 42.84375 42.21875 
Q 46.484375 45.515625 46.484375 51.90625 
Q 46.484375 58.296875 42.84375 61.546875 
Q 39.203125 64.796875 32.078125 64.796875 
z
" id="DejaVuSans-82"/>
      <path d="M 34.28125 27.484375 
Q 23.390625 27.484375 19.1875 25 
Q 14.984375 22.515625 14.984375 16.5 
Q 14.984375 11.71875 18.140625 8.90625 
Q 21.296875 6.109375 26.703125 6.109375 
Q 34.1875 6.109375 38.703125 11.40625 
Q 43.21875 16.703125 43.21875 25.484375 
L 43.21875 27.484375 
z
M 52.203125 31.203125 
L 52.203125 0 
L 43.21875 0 
L 43.21875 8.296875 
Q 40.140625 3.328125 35.546875 0.953125 
Q 30.953125 -1.421875 24.3125 -1.421875 
Q 15.921875 -1.421875 10.953125 3.296875 
Q 6 8.015625 6 15.921875 
Q 6 25.140625 12.171875 29.828125 
Q 18.359375 34.515625 30.609375 34.515625 
L 43.21875 34.515625 
L 43.21875 35.40625 
Q 43.21875 41.609375 39.140625 45 
Q 35.0625 48.390625 27.6875 48.390625 
Q 23 48.390625 18.546875 47.265625 
Q 14.109375 46.140625 10.015625 43.890625 
L 10.015625 52.203125 
Q 14.9375 54.109375 19.578125 55.046875 
Q 24.21875 56 28.609375 56 
Q 40.484375 56 46.34375 49.84375 
Q 52.203125 43.703125 52.203125 31.203125 
z
" id="DejaVuSans-97"/>
      <path d="M 45.40625 46.390625 
L 45.40625 75.984375 
L 54.390625 75.984375 
L 54.390625 0 
L 45.40625 0 
L 45.40625 8.203125 
Q 42.578125 3.328125 38.25 0.953125 
Q 33.9375 -1.421875 27.875 -1.421875 
Q 17.96875 -1.421875 11.734375 6.484375 
Q 5.515625 14.40625 5.515625 27.296875 
Q 5.515625 40.1875 11.734375 48.09375 
Q 17.96875 56 27.875 56 
Q 33.9375 56 38.25 53.625 
Q 42.578125 51.265625 45.40625 46.390625 
z
M 14.796875 27.296875 
Q 14.796875 17.390625 18.875 11.75 
Q 22.953125 6.109375 30.078125 6.109375 
Q 37.203125 6.109375 41.296875 11.75 
Q 45.40625 17.390625 45.40625 27.296875 
Q 45.40625 37.203125 41.296875 42.84375 
Q 37.203125 48.484375 30.078125 48.484375 
Q 22.953125 48.484375 18.875 42.84375 
Q 14.796875 37.203125 14.796875 27.296875 
z
" id="DejaVuSans-100"/>
      <path d="M 18.109375 8.203125 
L 18.109375 -20.796875 
L 9.078125 -20.796875 
L 9.078125 54.6875 
L 18.109375 54.6875 
L 18.109375 46.390625 
Q 20.953125 51.265625 25.265625 53.625 
Q 29.59375 56 35.59375 56 
Q 45.5625 56 51.78125 48.09375 
Q 58.015625 40.1875 58.015625 27.296875 
Q 58.015625 14.40625 51.78125 6.484375 
Q 45.5625 -1.421875 35.59375 -1.421875 
Q 29.59375 -1.421875 25.265625 0.953125 
Q 20.953125 3.328125 18.109375 8.203125 
z
M 48.6875 27.296875 
Q 48.6875 37.203125 44.609375 42.84375 
Q 40.53125 48.484375 33.40625 48.484375 
Q 26.265625 48.484375 22.1875 42.84375 
Q 18.109375 37.203125 18.109375 27.296875 
Q 18.109375 17.390625 22.1875 11.75 
Q 26.265625 6.109375 33.40625 6.109375 
Q 40.53125 6.109375 44.609375 11.75 
Q 48.6875 17.390625 48.6875 27.296875 
z
" id="DejaVuSans-112"/>
      <path d="M 48.78125 52.59375 
L 48.78125 44.1875 
Q 44.96875 46.296875 41.140625 47.34375 
Q 37.3125 48.390625 33.40625 48.390625 
Q 24.65625 48.390625 19.8125 42.84375 
Q 14.984375 37.3125 14.984375 27.296875 
Q 14.984375 17.28125 19.8125 11.734375 
Q 24.65625 6.203125 33.40625 6.203125 
Q 37.3125 6.203125 41.140625 7.25 
Q 44.96875 8.296875 48.78125 10.40625 
L 48.78125 2.09375 
Q 45.015625 0.34375 40.984375 -0.53125 
Q 36.96875 -1.421875 32.421875 -1.421875 
Q 20.0625 -1.421875 12.78125 6.34375 
Q 5.515625 14.109375 5.515625 27.296875 
Q 5.515625 40.671875 12.859375 48.328125 
Q 20.21875 56 33.015625 56 
Q 37.15625 56 41.109375 55.140625 
Q 45.0625 54.296875 48.78125 52.59375 
z
" id="DejaVuSans-99"/>
     </defs>
     <g transform="translate(14.798438 186.370835)rotate(-90)scale(0.1 -0.1)">
      <use xlink:href="#DejaVuSans-82"/>
      <use x="69.419922" xlink:href="#DejaVuSans-101"/>
      <use x="130.943359" xlink:href="#DejaVuSans-97"/>
      <use x="192.222656" xlink:href="#DejaVuSans-100"/>
      <use x="255.699219" xlink:href="#DejaVuSans-32"/>
      <use x="287.486328" xlink:href="#DejaVuSans-112"/>
      <use x="350.962891" xlink:href="#DejaVuSans-101"/>
      <use x="412.486328" xlink:href="#DejaVuSans-114"/>
      <use x="453.568359" xlink:href="#DejaVuSans-99"/>
      <use x="508.548828" xlink:href="#DejaVuSans-101"/>
      <use x="570.072266" xlink:href="#DejaVuSans-110"/>
      <use x="633.451172" xlink:href="#DejaVuSans-116"/>
     </g>
    </g>
   </g>
   <g id="line2d_7">
    <path clip-path="url(#p1a197baa47)" d="M 83.897898 273.99006 
L 87.117026 262.611288 
L 90.336154 267.710327 
L 93.555282 270.839814 
L 96.77441 272.529114 
L 103.212666 273.250505 
L 106.431794 273.535947 
L 112.87005 273.79544 
L 116.089179 273.689048 
L 122.527435 273.725377 
L 128.965691 273.777276 
L 141.842203 273.43215 
L 145.061331 273.406201 
L 148.280459 272.822341 
L 151.499587 272.962467 
L 154.718716 272.326709 
L 157.937844 272.012723 
L 161.156972 271.402914 
L 164.3761 269.962727 
L 167.595228 269.345134 
L 170.814356 270.333802 
L 174.033484 269.768107 
L 177.252612 270.03279 
L 180.47174 269.493045 
L 183.690868 267.056404 
L 186.909996 266.342798 
L 190.129124 227.081492 
L 193.348253 218.71803 
L 196.567381 212.695195 
L 199.786509 203.636291 
L 203.005637 199.069212 
L 206.224765 192.117392 
L 209.443893 188.803665 
L 212.663021 183.432158 
L 215.882149 180.372735 
L 219.101277 175.808251 
L 222.320405 173.091358 
L 225.539533 167.647193 
L 228.758661 165.747703 
L 231.97779 161.972079 
L 235.196918 161.36227 
L 238.416046 158.811453 
L 244.854302 155.666397 
L 248.07343 153.035137 
L 251.292558 149.666916 
L 254.511686 148.667868 
L 257.730814 147.44825 
L 260.949942 146.981163 
L 264.16907 145.066103 
L 267.388199 144.861104 
L 270.607327 142.984969 
L 273.826455 142.712501 
L 277.045583 140.971302 
L 280.264711 141.319023 
L 283.483839 138.698143 
L 286.702967 140.32257 
L 289.922095 140.190228 
L 293.141223 139.684217 
L 296.360351 136.842767 
L 299.579479 137.847005 
L 302.798607 135.98644 
L 309.236864 137.732828 
L 312.455992 137.255361 
L 315.67512 136.91802 
L 318.894248 139.297572 
L 322.113376 138.436055 
L 325.332504 139.93333 
L 328.551632 140.104595 
L 331.77076 139.785419 
L 334.989888 141.565542 
L 338.209016 142.460793 
L 341.428144 142.730666 
L 344.647273 142.458198 
L 347.866401 141.45396 
L 351.085529 141.830225 
L 357.523785 141.490289 
L 363.962041 140.252506 
L 367.181169 140.428962 
L 370.400297 142.297312 
L 373.619425 141.311238 
L 376.838553 140.898644 
L 380.057681 140.797442 
L 383.27681 141.095859 
L 386.495938 142.107882 
L 389.715066 143.594778 
L 392.934194 140.400418 
L 396.153322 141.887313 
L 399.37245 141.542187 
L 405.810706 143.119905 
L 409.029834 140.005988 
L 412.248962 142.489337 
L 415.46809 142.299907 
L 418.687218 143.86465 
L 421.906347 143.478006 
L 425.125475 143.50655 
L 428.344603 143.392373 
L 431.563731 143.568828 
L 434.782859 144.220156 
L 438.001987 145.151736 
L 441.221115 146.664581 
L 444.440243 147.056416 
L 447.659371 145.966545 
L 450.878499 148.369451 
L 454.097627 148.95331 
L 457.316755 149.91084 
L 460.535884 148.756095 
L 463.755012 151.104508 
L 466.97414 150.440206 
L 470.193268 150.850205 
L 473.412396 152.269632 
L 476.631524 152.274822 
L 479.850652 153.014377 
L 483.06978 153.076655 
L 486.288908 153.907033 
L 489.508036 155.995953 
L 492.727164 156.709559 
L 495.946292 157.838354 
L 499.165421 157.293418 
L 502.384549 159.060566 
L 505.603677 159.522464 
L 508.822805 159.750818 
L 512.041933 161.110562 
L 515.261061 162.921824 
L 518.480189 164.9303 
L 524.918445 167.20346 
L 528.137573 167.039979 
L 531.356701 169.069215 
L 534.575829 170.039719 
L 537.794958 172.543828 
L 541.014086 174.113761 
L 544.233214 174.580849 
L 547.452342 174.225343 
L 550.67147 174.048888 
L 553.890598 173.366421 
L 557.109726 171.557754 
L 560.328854 164.891376 
L 563.547982 145.649963 
L 566.76711 43.030822 
L 569.986238 113.690793 
L 573.205366 137.169728 
L 576.424495 143.091361 
L 579.643623 145.77452 
L 582.862751 147.383377 
L 586.081879 147.398946 
L 589.301007 148.073628 
L 592.520135 149.825207 
L 595.739263 150.302674 
L 598.958391 150.917673 
L 602.177519 150.920268 
L 605.396647 152.658872 
L 608.615775 153.626781 
L 611.834903 153.09482 
L 615.054032 156.159433 
L 618.27316 155.554815 
L 621.492288 156.367028 
L 624.711416 157.506203 
L 627.930544 159.408287 
L 631.149672 160.223095 
L 634.3688 159.709299 
L 637.587928 162.462521 
L 640.807056 162.171889 
L 644.026184 163.313658 
L 647.245312 164.639668 
L 650.46444 166.43017 
L 653.683569 166.591056 
L 656.902697 169.694594 
L 660.121825 168.306305 
L 663.340953 170.288833 
L 669.779209 172.927878 
L 672.998337 173.729711 
L 676.217465 175.372303 
L 679.436593 176.882552 
L 682.655721 177.494956 
L 685.874849 179.731787 
L 689.093977 180.411659 
L 692.313106 181.779187 
L 695.532234 183.022159 
L 698.751362 185.194116 
L 701.97049 185.116268 
L 705.189618 186.857467 
L 711.627874 189.460183 
L 714.847002 191.658089 
L 718.06613 193.451187 
L 721.285258 193.464161 
L 727.723514 196.378269 
L 730.942643 197.665355 
L 734.161771 198.311493 
L 737.380899 199.956679 
L 740.600027 201.103638 
L 743.819155 202.429648 
L 747.038283 204.502998 
L 753.476539 206.721664 
L 756.695667 208.56147 
L 759.914795 209.656531 
L 763.133923 210.933237 
L 766.353051 212.588803 
L 769.57218 213.325763 
L 772.791308 215.015063 
L 776.010436 216.011517 
L 779.229564 216.787401 
L 782.448692 218.432587 
L 788.886948 219.852015 
L 792.106076 221.665871 
L 795.325204 222.257516 
L 801.76346 225.809976 
L 808.201717 227.058138 
L 811.420845 227.92225 
L 814.639973 229.468829 
L 817.859101 229.899587 
L 821.078229 231.277496 
L 824.297357 232.782556 
L 827.516485 233.791984 
L 830.735613 234.030718 
L 833.954741 235.551347 
L 840.392997 236.088498 
L 843.612126 237.295141 
L 846.831254 237.484571 
L 850.050382 239.38925 
L 856.488638 240.307856 
L 859.707766 241.280955 
L 862.926894 241.85184 
L 866.146022 241.898548 
L 869.36515 243.208989 
L 872.584278 243.533355 
L 875.803406 244.254746 
L 882.241663 244.301455 
L 885.460791 245.207085 
L 888.679919 246.239868 
L 891.899047 246.242463 
L 895.118175 246.429298 
L 898.337303 246.089362 
L 901.556431 246.828917 
L 904.775559 247.30898 
L 907.994687 247.996636 
L 911.213815 247.643726 
L 914.432943 248.149737 
L 917.652071 247.892839 
L 920.8712 248.712837 
L 924.090328 248.712837 
L 927.309456 248.289863 
L 933.747712 247.908409 
L 940.185968 248.079674 
L 943.405096 247.573662 
L 946.624224 248.588281 
L 949.843352 252.104412 
L 949.843352 252.104412 
" style="fill:none;stroke:#7cb5ec;stroke-linecap:square;"/>
   </g>
   <g id="line2d_8">
    <path clip-path="url(#p1a197baa47)" d="M 83.897898 273.99006 
L 87.117026 264.374207 
L 90.336154 268.246627 
L 93.555282 271.244595 
L 96.77441 272.47607 
L 99.993538 272.989357 
L 103.212666 273.345347 
L 106.431794 273.583363 
L 112.87005 273.782055 
L 116.089179 273.686848 
L 122.527435 273.725138 
L 128.965691 273.698231 
L 138.623075 273.580258 
L 145.061331 273.333963 
L 148.280459 272.899325 
L 151.499587 272.915883 
L 154.718716 272.420188 
L 157.937844 272.12422 
L 161.156972 271.285989 
L 164.3761 270.209743 
L 167.595228 269.529844 
L 170.814356 270.105222 
L 180.47174 269.809254 
L 183.690868 267.145543 
L 186.909996 266.733672 
L 190.129124 231.796005 
L 193.348253 224.572732 
L 196.567381 218.983491 
L 199.786509 210.064095 
L 203.005637 205.979531 
L 206.224765 200.721443 
L 209.443893 195.946632 
L 212.663021 191.8155 
L 215.882149 188.948957 
L 219.101277 182.861953 
L 222.320405 181.263105 
L 225.539533 176.035028 
L 228.758661 174.256116 
L 231.97779 169.726565 
L 235.196918 169.23708 
L 238.416046 166.173916 
L 241.635174 165.8231 
L 244.854302 163.878612 
L 248.07343 160.068284 
L 251.292558 157.955114 
L 254.511686 157.13758 
L 257.730814 154.033022 
L 260.949942 152.970228 
L 264.16907 152.884335 
L 267.388199 151.543166 
L 270.607327 149.868774 
L 273.826455 150.450361 
L 277.045583 148.03605 
L 280.264711 148.864967 
L 283.483839 147.161599 
L 286.702967 147.54346 
L 289.922095 146.439272 
L 293.141223 147.145041 
L 296.360351 144.157421 
L 299.579479 144.991513 
L 302.798607 142.607212 
L 306.017736 143.934928 
L 309.236864 143.056338 
L 312.455992 142.998386 
L 315.67512 144.13362 
L 318.894248 145.706596 
L 322.113376 144.665534 
L 325.332504 145.308178 
L 328.551632 145.517218 
L 331.77076 146.058446 
L 334.989888 147.92532 
L 338.209016 147.595202 
L 344.647273 147.897379 
L 347.866401 147.267154 
L 354.304657 147.578645 
L 357.523785 146.45169 
L 367.181169 146.505502 
L 370.400297 146.909095 
L 373.619425 146.83562 
L 380.057681 145.638296 
L 386.495938 146.360623 
L 389.715066 147.968784 
L 392.934194 145.815255 
L 396.153322 146.652451 
L 399.37245 146.52413 
L 402.591578 145.803872 
L 405.810706 147.108821 
L 409.029834 145.78007 
L 412.248962 147.455497 
L 415.46809 147.098473 
L 418.687218 148.757342 
L 421.906347 147.457567 
L 425.125475 148.119873 
L 428.344603 148.040189 
L 431.563731 148.211975 
L 434.782859 149.315128 
L 444.440243 151.553514 
L 447.659371 151.465552 
L 450.878499 152.492126 
L 454.097627 153.948164 
L 457.316755 153.910909 
L 460.535884 154.512159 
L 463.755012 155.320379 
L 466.97414 156.351092 
L 470.193268 155.927837 
L 473.412396 156.371789 
L 476.631524 156.195864 
L 479.850652 157.345586 
L 483.06978 157.49357 
L 486.288908 159.713329 
L 489.508036 159.583973 
L 492.727164 162.02519 
L 495.946292 161.543984 
L 499.165421 162.59229 
L 502.384549 163.329105 
L 505.603677 163.600237 
L 508.822805 164.448816 
L 512.041933 166.727562 
L 515.261061 167.383659 
L 518.480189 169.052876 
L 521.699317 169.445085 
L 524.918445 170.78315 
L 528.137573 171.750738 
L 531.356701 173.778014 
L 534.575829 175.072615 
L 537.794958 176.494503 
L 541.014086 178.06541 
L 544.233214 178.953313 
L 547.452342 178.800155 
L 550.67147 178.174069 
L 553.890598 177.768407 
L 557.109726 175.339607 
L 560.328854 168.512683 
L 563.547982 149.247862 
L 566.76711 50.06653 
L 569.986238 117.115681 
L 573.205366 143.659657 
L 576.424495 148.1385 
L 579.643623 150.930533 
L 582.862751 152.698062 
L 586.081879 153.163746 
L 589.301007 154.313467 
L 595.739263 156.33143 
L 598.958391 157.549452 
L 602.177519 157.340412 
L 605.396647 159.472209 
L 608.615775 158.953747 
L 611.834903 159.880975 
L 615.054032 161.409453 
L 618.27316 162.522955 
L 621.492288 162.716472 
L 624.711416 163.499856 
L 627.930544 164.755132 
L 634.3688 166.383991 
L 637.587928 167.728265 
L 640.807056 167.994222 
L 644.026184 169.601348 
L 650.46444 172.050845 
L 663.340953 175.407908 
L 666.560081 177.283061 
L 669.779209 178.83741 
L 672.998337 179.058868 
L 676.217465 180.463164 
L 679.436593 182.24725 
L 682.655721 183.224151 
L 685.874849 183.697079 
L 689.093977 185.37561 
L 692.313106 186.119669 
L 698.751362 189.285284 
L 701.97049 189.925858 
L 705.189618 191.526776 
L 708.408746 192.036958 
L 711.627874 193.674095 
L 714.847002 194.848653 
L 718.06613 196.185683 
L 721.285258 196.576858 
L 724.504386 198.786268 
L 727.723514 199.440295 
L 730.942643 200.612784 
L 734.161771 201.371331 
L 737.380899 203.089187 
L 740.600027 203.319959 
L 743.819155 205.081278 
L 747.038283 205.926753 
L 750.257411 206.606651 
L 753.476539 207.909531 
L 756.695667 208.701194 
L 759.914795 210.594974 
L 766.353051 212.040664 
L 769.57218 213.287661 
L 772.791308 213.819576 
L 776.010436 215.54778 
L 779.229564 215.786831 
L 782.448692 217.301856 
L 785.66782 217.94243 
L 788.886948 219.427443 
L 795.325204 220.845192 
L 798.544332 221.760002 
L 801.76346 222.170838 
L 804.982589 223.347466 
L 808.201717 224.351273 
L 811.420845 224.714507 
L 814.639973 225.469949 
L 817.859101 226.388898 
L 821.078229 227.696953 
L 824.297357 227.821135 
L 827.516485 228.209205 
L 830.735613 229.174722 
L 837.173869 229.777007 
L 840.392997 230.529345 
L 843.612126 230.87602 
L 846.831254 230.91638 
L 850.050382 231.279613 
L 853.26951 231.166814 
L 856.488638 231.385168 
L 859.707766 231.122315 
L 862.926894 231.241324 
L 866.146022 231.111967 
L 869.36515 230.480707 
L 872.584278 230.643179 
L 875.803406 230.254074 
L 879.022534 229.699393 
L 882.241663 229.426192 
L 888.679919 226.859757 
L 891.899047 225.831113 
L 898.337303 223.087718 
L 901.556431 221.478522 
L 904.775559 220.466436 
L 914.432943 215.535362 
L 917.652071 213.57742 
L 920.8712 210.926127 
L 924.090328 208.884362 
L 927.309456 206.574571 
L 930.528584 203.578672 
L 933.747712 200.365454 
L 936.96684 198.298853 
L 940.185968 196.523045 
L 943.405096 195.008021 
L 946.624224 195.82245 
L 949.843352 204.495552 
L 949.843352 204.495552 
" style="fill:none;stroke:#434348;stroke-linecap:square;"/>
   </g>
   <g id="line2d_9">
    <path clip-path="url(#p1a197baa47)" d="M 83.897898 273.99006 
L 87.117026 263.815592 
L 90.336154 268.523182 
L 93.555282 271.264214 
L 96.77441 272.633464 
L 103.212666 273.380098 
L 109.650922 273.721778 
L 112.87005 273.795176 
L 122.527435 273.709123 
L 125.746563 273.77999 
L 145.061331 273.271267 
L 148.280459 272.838472 
L 151.499587 272.88403 
L 161.156972 271.269276 
L 164.3761 270.056945 
L 167.595228 269.36093 
L 170.814356 270.087316 
L 174.033484 269.732982 
L 177.252612 270.01898 
L 180.47174 269.720327 
L 183.690868 267.009666 
L 186.909996 266.397173 
L 190.129124 229.913353 
L 193.348253 221.842115 
L 196.567381 215.003455 
L 199.786509 206.096999 
L 203.005637 201.599479 
L 206.224765 195.292321 
L 209.443893 192.470298 
L 212.663021 186.203636 
L 215.882149 183.379082 
L 219.101277 177.178225 
L 222.320405 175.717859 
L 225.539533 169.484099 
L 228.758661 167.254322 
L 231.97779 162.346786 
L 235.196918 161.825408 
L 241.635174 158.522502 
L 244.854302 154.989279 
L 248.07343 152.162194 
L 251.292558 149.902045 
L 254.511686 149.479374 
L 257.730814 146.31314 
L 260.949942 145.346313 
L 264.16907 143.18234 
L 267.388199 144.89074 
L 270.607327 143.516427 
L 273.826455 142.992518 
L 277.045583 139.909806 
L 280.264711 141.304366 
L 283.483839 138.664573 
L 286.702967 140.281858 
L 289.922095 139.433985 
L 293.141223 139.641524 
L 296.360351 136.108301 
L 299.579479 137.877443 
L 302.798607 134.678307 
L 306.017736 136.629679 
L 309.236864 136.399362 
L 312.455992 136.687891 
L 315.67512 137.153588 
L 318.894248 139.079651 
L 322.113376 138.786059 
L 325.332504 139.350463 
L 328.551632 140.600759 
L 331.77076 139.542817 
L 334.989888 140.415999 
L 338.209016 142.845722 
L 341.428144 141.625798 
L 344.647273 142.253477 
L 347.866401 141.653639 
L 351.085529 141.795373 
L 354.304657 140.517237 
L 360.742913 141.263871 
L 363.962041 140.302105 
L 367.181169 140.028761 
L 370.400297 141.311959 
L 373.619425 140.863979 
L 376.838553 142.220575 
L 380.057681 139.940178 
L 383.27681 141.258809 
L 386.495938 141.101889 
L 389.715066 142.250946 
L 392.934194 140.42106 
L 396.153322 142.172486 
L 399.37245 142.124398 
L 402.591578 141.952293 
L 405.810706 142.612874 
L 409.029834 141.263871 
L 412.248962 143.62779 
L 415.46809 142.805227 
L 418.687218 143.830267 
L 421.906347 143.081102 
L 425.125475 145.047659 
L 428.344603 143.410127 
L 431.563731 144.280778 
L 434.782859 146.23215 
L 438.001987 145.652559 
L 441.221115 147.140765 
L 444.440243 147.034465 
L 447.659371 147.454604 
L 450.878499 148.52267 
L 454.097627 149.428755 
L 457.316755 149.960257 
L 460.535884 150.985297 
L 463.755012 150.944801 
L 466.97414 152.86074 
L 470.193268 151.397844 
L 473.412396 152.701289 
L 476.631524 151.721807 
L 479.850652 152.999943 
L 483.06978 153.351746 
L 486.288908 154.918412 
L 489.508036 155.36133 
L 492.727164 157.462029 
L 495.946292 158.208663 
L 499.165421 157.505055 
L 502.384549 159.405808 
L 505.603677 160.04108 
L 508.822805 160.375167 
L 515.261061 163.237685 
L 518.480189 164.687926 
L 521.699317 165.67247 
L 524.918445 166.955668 
L 528.137573 167.264446 
L 531.356701 169.081677 
L 534.575829 170.407901 
L 537.794958 172.250441 
L 541.014086 172.888244 
L 544.233214 174.060079 
L 550.67147 173.055287 
L 553.890598 174.945916 
L 557.109726 171.068482 
L 560.328854 163.227561 
L 563.547982 145.622188 
L 566.76711 51.981648 
L 569.986238 113.370136 
L 573.205366 136.358866 
L 576.424495 141.985195 
L 579.643623 144.875554 
L 582.862751 145.903125 
L 586.081879 146.196716 
L 592.520135 147.745665 
L 598.958391 150.241194 
L 602.177519 149.479374 
L 605.396647 150.590467 
L 608.615775 150.798006 
L 611.834903 152.964509 
L 615.054032 153.270756 
L 618.27316 153.328968 
L 621.492288 155.067739 
L 624.711416 155.454976 
L 637.587928 159.238764 
L 640.807056 159.949965 
L 644.026184 161.149641 
L 647.245312 162.77705 
L 650.46444 164.234884 
L 653.683569 164.632245 
L 656.902697 165.928098 
L 660.121825 166.735475 
L 663.340953 167.945274 
L 666.560081 168.702032 
L 669.779209 170.617971 
L 672.998337 171.827771 
L 676.217465 172.627555 
L 679.436593 174.687758 
L 682.655721 176.196211 
L 685.874849 176.563201 
L 689.093977 178.395617 
L 692.313106 180.830403 
L 695.532234 180.582369 
L 698.751362 182.885544 
L 701.97049 184.495236 
L 705.189618 186.421299 
L 708.408746 186.659209 
L 711.627874 188.066424 
L 714.847002 189.088933 
L 718.06613 191.754036 
L 721.285258 192.768952 
L 724.504386 193.034703 
L 727.723514 195.226516 
L 730.942643 196.456564 
L 734.161771 197.023499 
L 737.380899 198.170025 
L 740.600027 200.318812 
L 743.819155 201.867761 
L 747.038283 204.353166 
L 750.257411 204.451873 
L 753.476539 206.053972 
L 756.695667 207.848425 
L 759.914795 208.676049 
L 763.133923 210.085795 
L 766.353051 212.130813 
L 769.57218 212.844544 
L 772.791308 214.158113 
L 776.010436 215.190746 
L 779.229564 216.929517 
L 782.448692 218.25321 
L 785.66782 218.744217 
L 788.886948 220.298228 
L 792.106076 222.214166 
L 795.325204 223.763115 
L 798.544332 223.950406 
L 801.76346 225.770168 
L 804.982589 226.445935 
L 808.201717 228.080937 
L 811.420845 229.255303 
L 817.859101 230.330962 
L 821.078229 232.095043 
L 824.297357 232.910012 
L 827.516485 233.175763 
L 830.735613 234.45643 
L 833.954741 235.182816 
L 837.173869 236.433112 
L 850.050382 239.429771 
L 853.26951 240.211838 
L 856.488638 240.771181 
L 859.707766 241.844309 
L 866.146022 242.613722 
L 869.36515 244.018406 
L 872.584278 244.29428 
L 875.803406 245.175055 
L 882.241663 245.919158 
L 885.460791 246.010273 
L 888.679919 246.526589 
L 891.899047 246.880924 
L 895.118175 247.452921 
L 898.337303 248.214741 
L 901.556431 248.753836 
L 907.994687 248.968968 
L 911.213815 249.252435 
L 914.432943 250.280006 
L 917.652071 250.522978 
L 920.8712 250.325563 
L 927.309456 250.690022 
L 930.528584 250.533102 
L 940.185968 250.639403 
L 943.405096 250.801384 
L 946.624224 251.978282 
L 949.843352 254.97241 
L 949.843352 254.97241 
" style="fill:none;stroke:#90ed7d;stroke-linecap:square;"/>
   </g>
   <g id="line2d_10">
    <path clip-path="url(#p1a197baa47)" d="M 40.600625 273.99006 
L 993.140625 273.99006 
" style="fill:none;stroke:#dedede;stroke-linecap:square;stroke-width:2;"/>
   </g>
   <g id="text_15">
    <!-- Fastp: Insert Size Distribution -->
    <defs>
     <path d="M 9.8125 72.90625 
L 51.703125 72.90625 
L 51.703125 64.59375 
L 19.671875 64.59375 
L 19.671875 43.109375 
L 48.578125 43.109375 
L 48.578125 34.8125 
L 19.671875 34.8125 
L 19.671875 0 
L 9.8125 0 
z
" id="DejaVuSans-70"/>
     <path d="M 11.71875 12.40625 
L 22.015625 12.40625 
L 22.015625 0 
L 11.71875 0 
z
M 11.71875 51.703125 
L 22.015625 51.703125 
L 22.015625 39.3125 
L 11.71875 39.3125 
z
" id="DejaVuSans-58"/>
     <path d="M 53.515625 70.515625 
L 53.515625 60.890625 
Q 47.90625 63.578125 42.921875 64.890625 
Q 37.9375 66.21875 33.296875 66.21875 
Q 25.25 66.21875 20.875 63.09375 
Q 16.5 59.96875 16.5 54.203125 
Q 16.5 49.359375 19.40625 46.890625 
Q 22.3125 44.4375 30.421875 42.921875 
L 36.375 41.703125 
Q 47.40625 39.59375 52.65625 34.296875 
Q 57.90625 29 57.90625 20.125 
Q 57.90625 9.515625 50.796875 4.046875 
Q 43.703125 -1.421875 29.984375 -1.421875 
Q 24.8125 -1.421875 18.96875 -0.25 
Q 13.140625 0.921875 6.890625 3.21875 
L 6.890625 13.375 
Q 12.890625 10.015625 18.65625 8.296875 
Q 24.421875 6.59375 29.984375 6.59375 
Q 38.421875 6.59375 43.015625 9.90625 
Q 47.609375 13.234375 47.609375 19.390625 
Q 47.609375 24.75 44.3125 27.78125 
Q 41.015625 30.8125 33.5 32.328125 
L 27.484375 33.5 
Q 16.453125 35.6875 11.515625 40.375 
Q 6.59375 45.0625 6.59375 53.421875 
Q 6.59375 63.09375 13.40625 68.65625 
Q 20.21875 74.21875 32.171875 74.21875 
Q 37.3125 74.21875 42.625 73.28125 
Q 47.953125 72.359375 53.515625 70.515625 
z
" id="DejaVuSans-83"/>
     <path d="M 19.671875 64.796875 
L 19.671875 8.109375 
L 31.59375 8.109375 
Q 46.6875 8.109375 53.6875 14.9375 
Q 60.6875 21.78125 60.6875 36.53125 
Q 60.6875 51.171875 53.6875 57.984375 
Q 46.6875 64.796875 31.59375 64.796875 
z
M 9.8125 72.90625 
L 30.078125 72.90625 
Q 51.265625 72.90625 61.171875 64.09375 
Q 71.09375 55.28125 71.09375 36.53125 
Q 71.09375 17.671875 61.125 8.828125 
Q 51.171875 0 30.078125 0 
L 9.8125 0 
z
" id="DejaVuSans-68"/>
     <path d="M 48.6875 27.296875 
Q 48.6875 37.203125 44.609375 42.84375 
Q 40.53125 48.484375 33.40625 48.484375 
Q 26.265625 48.484375 22.1875 42.84375 
Q 18.109375 37.203125 18.109375 27.296875 
Q 18.109375 17.390625 22.1875 11.75 
Q 26.265625 6.109375 33.40625 6.109375 
Q 40.53125 6.109375 44.609375 11.75 
Q 48.6875 17.390625 48.6875 27.296875 
z
M 18.109375 46.390625 
Q 20.953125 51.265625 25.265625 53.625 
Q 29.59375 56 35.59375 56 
Q 45.5625 56 51.78125 48.09375 
Q 58.015625 40.1875 58.015625 27.296875 
Q 58.015625 14.40625 51.78125 6.484375 
Q 45.5625 -1.421875 35.59375 -1.421875 
Q 29.59375 -1.421875 25.265625 0.953125 
Q 20.953125 3.328125 18.109375 8.203125 
L 18.109375 0 
L 9.078125 0 
L 9.078125 75.984375 
L 18.109375 75.984375 
z
" id="DejaVuSans-98"/>
     <path d="M 8.5 21.578125 
L 8.5 54.6875 
L 17.484375 54.6875 
L 17.484375 21.921875 
Q 17.484375 14.15625 20.5 10.265625 
Q 23.53125 6.390625 29.59375 6.390625 
Q 36.859375 6.390625 41.078125 11.03125 
Q 45.3125 15.671875 45.3125 23.6875 
L 45.3125 54.6875 
L 54.296875 54.6875 
L 54.296875 0 
L 45.3125 0 
L 45.3125 8.40625 
Q 42.046875 3.421875 37.71875 1 
Q 33.40625 -1.421875 27.6875 -1.421875 
Q 18.265625 -1.421875 13.375 4.4375 
Q 8.5 10.296875 8.5 21.578125 
z
M 31.109375 56 
z
" id="DejaVuSans-117"/>
     <path d="M 30.609375 48.390625 
Q 23.390625 48.390625 19.1875 42.75 
Q 14.984375 37.109375 14.984375 27.296875 
Q 14.984375 17.484375 19.15625 11.84375 
Q 23.34375 6.203125 30.609375 6.203125 
Q 37.796875 6.203125 41.984375 11.859375 
Q 46.1875 17.53125 46.1875 27.296875 
Q 46.1875 37.015625 41.984375 42.703125 
Q 37.796875 48.390625 30.609375 48.390625 
z
M 30.609375 56 
Q 42.328125 56 49.015625 48.375 
Q 55.71875 40.765625 55.71875 27.296875 
Q 55.71875 13.875 49.015625 6.21875 
Q 42.328125 -1.421875 30.609375 -1.421875 
Q 18.84375 -1.421875 12.171875 6.21875 
Q 5.515625 13.875 5.515625 27.296875 
Q 5.515625 40.765625 12.171875 48.375 
Q 18.84375 56 30.609375 56 
z
" id="DejaVuSans-111"/>
    </defs>
    <g transform="translate(398.635625 19.3575)scale(0.16 -0.16)">
     <use xlink:href="#DejaVuSans-70"/>
     <use x="57.378906" xlink:href="#DejaVuSans-97"/>
     <use x="118.658203" xlink:href="#DejaVuSans-115"/>
     <use x="170.757812" xlink:href="#DejaVuSans-116"/>
     <use x="209.966797" xlink:href="#DejaVuSans-112"/>
     <use x="273.443359" xlink:href="#DejaVuSans-58"/>
     <use x="307.134766" xlink:href="#DejaVuSans-32"/>
     <use x="338.921875" xlink:href="#DejaVuSans-73"/>
     <use x="368.414062" xlink:href="#DejaVuSans-110"/>
     <use x="431.792969" xlink:href="#DejaVuSans-115"/>
     <use x="483.892578" xlink:href="#DejaVuSans-101"/>
     <use x="545.416016" xlink:href="#DejaVuSans-114"/>
     <use x="586.529297" xlink:href="#DejaVuSans-116"/>
     <use x="625.738281" xlink:href="#DejaVuSans-32"/>
     <use x="657.525391" xlink:href="#DejaVuSans-83"/>
     <use x="721.001953" xlink:href="#DejaVuSans-105"/>
     <use x="748.785156" xlink:href="#DejaVuSans-122"/>
     <use x="801.275391" xlink:href="#DejaVuSans-101"/>
     <use x="862.798828" xlink:href="#DejaVuSans-32"/>
     <use x="894.585938" xlink:href="#DejaVuSans-68"/>
     <use x="971.587891" xlink:href="#DejaVuSans-105"/>
     <use x="999.371094" xlink:href="#DejaVuSans-115"/>
     <use x="1051.470703" xlink:href="#DejaVuSans-116"/>
     <use x="1090.679688" xlink:href="#DejaVuSans-114"/>
     <use x="1131.792969" xlink:href="#DejaVuSans-105"/>
     <use x="1159.576172" xlink:href="#DejaVuSans-98"/>
     <use x="1223.052734" xlink:href="#DejaVuSans-117"/>
     <use x="1286.431641" xlink:href="#DejaVuSans-116"/>
     <use x="1325.640625" xlink:href="#DejaVuSans-105"/>
     <use x="1353.423828" xlink:href="#DejaVuSans-111"/>
     <use x="1414.605469" xlink:href="#DejaVuSans-110"/>
    </g>
   </g>
   <g id="legend_1">
    <g id="line2d_11">
     <path d="M 47.800625 315.455394 
L 63.800625 315.455394 
" style="fill:none;stroke:#7cb5ec;stroke-linecap:square;"/>
    </g>
    <g id="line2d_12"/>
    <g id="text_16">
     <!-- Sde-CMat_061-Ex1-7A-ssl.clmp.r1r2_fastp -->
     <defs>
      <path d="M 4.890625 31.390625 
L 31.203125 31.390625 
L 31.203125 23.390625 
L 4.890625 23.390625 
z
" id="DejaVuSans-45"/>
      <path d="M 64.40625 67.28125 
L 64.40625 56.890625 
Q 59.421875 61.53125 53.78125 63.8125 
Q 48.140625 66.109375 41.796875 66.109375 
Q 29.296875 66.109375 22.65625 58.46875 
Q 16.015625 50.828125 16.015625 36.375 
Q 16.015625 21.96875 22.65625 14.328125 
Q 29.296875 6.6875 41.796875 6.6875 
Q 48.140625 6.6875 53.78125 8.984375 
Q 59.421875 11.28125 64.40625 15.921875 
L 64.40625 5.609375 
Q 59.234375 2.09375 53.4375 0.328125 
Q 47.65625 -1.421875 41.21875 -1.421875 
Q 24.65625 -1.421875 15.125 8.703125 
Q 5.609375 18.84375 5.609375 36.375 
Q 5.609375 53.953125 15.125 64.078125 
Q 24.65625 74.21875 41.21875 74.21875 
Q 47.75 74.21875 53.53125 72.484375 
Q 59.328125 70.75 64.40625 67.28125 
z
" id="DejaVuSans-67"/>
      <path d="M 9.8125 72.90625 
L 24.515625 72.90625 
L 43.109375 23.296875 
L 61.8125 72.90625 
L 76.515625 72.90625 
L 76.515625 0 
L 66.890625 0 
L 66.890625 64.015625 
L 48.09375 14.015625 
L 38.1875 14.015625 
L 19.390625 64.015625 
L 19.390625 0 
L 9.8125 0 
z
" id="DejaVuSans-77"/>
      <path d="M 50.984375 -16.609375 
L 50.984375 -23.578125 
L -0.984375 -23.578125 
L -0.984375 -16.609375 
z
" id="DejaVuSans-95"/>
      <path d="M 9.8125 72.90625 
L 55.90625 72.90625 
L 55.90625 64.59375 
L 19.671875 64.59375 
L 19.671875 43.015625 
L 54.390625 43.015625 
L 54.390625 34.71875 
L 19.671875 34.71875 
L 19.671875 8.296875 
L 56.78125 8.296875 
L 56.78125 0 
L 9.8125 0 
z
" id="DejaVuSans-69"/>
      <path d="M 54.890625 54.6875 
L 35.109375 28.078125 
L 55.90625 0 
L 45.3125 0 
L 29.390625 21.484375 
L 13.484375 0 
L 2.875 0 
L 24.125 28.609375 
L 4.6875 54.6875 
L 15.28125 54.6875 
L 29.78125 35.203125 
L 44.28125 54.6875 
z
" id="DejaVuSans-120"/>
      <path d="M 8.203125 72.90625 
L 55.078125 72.90625 
L 55.078125 68.703125 
L 28.609375 0 
L 18.3125 0 
L 43.21875 64.59375 
L 8.203125 64.59375 
z
" id="DejaVuSans-55"/>
      <path d="M 34.1875 63.1875 
L 20.796875 26.90625 
L 47.609375 26.90625 
z
M 28.609375 72.90625 
L 39.796875 72.90625 
L 67.578125 0 
L 57.328125 0 
L 50.6875 18.703125 
L 17.828125 18.703125 
L 11.1875 0 
L 0.78125 0 
z
" id="DejaVuSans-65"/>
      <path d="M 9.421875 75.984375 
L 18.40625 75.984375 
L 18.40625 0 
L 9.421875 0 
z
" id="DejaVuSans-108"/>
      <path d="M 52 44.1875 
Q 55.375 50.25 60.0625 53.125 
Q 64.75 56 71.09375 56 
Q 79.640625 56 84.28125 50.015625 
Q 88.921875 44.046875 88.921875 33.015625 
L 88.921875 0 
L 79.890625 0 
L 79.890625 32.71875 
Q 79.890625 40.578125 77.09375 44.375 
Q 74.3125 48.1875 68.609375 48.1875 
Q 61.625 48.1875 57.5625 43.546875 
Q 53.515625 38.921875 53.515625 30.90625 
L 53.515625 0 
L 44.484375 0 
L 44.484375 32.71875 
Q 44.484375 40.625 41.703125 44.40625 
Q 38.921875 48.1875 33.109375 48.1875 
Q 26.21875 48.1875 22.15625 43.53125 
Q 18.109375 38.875 18.109375 30.90625 
L 18.109375 0 
L 9.078125 0 
L 9.078125 54.6875 
L 18.109375 54.6875 
L 18.109375 46.1875 
Q 21.1875 51.21875 25.484375 53.609375 
Q 29.78125 56 35.6875 56 
Q 41.65625 56 45.828125 52.96875 
Q 50 49.953125 52 44.1875 
z
" id="DejaVuSans-109"/>
      <path d="M 37.109375 75.984375 
L 37.109375 68.5 
L 28.515625 68.5 
Q 23.6875 68.5 21.796875 66.546875 
Q 19.921875 64.59375 19.921875 59.515625 
L 19.921875 54.6875 
L 34.71875 54.6875 
L 34.71875 47.703125 
L 19.921875 47.703125 
L 19.921875 0 
L 10.890625 0 
L 10.890625 47.703125 
L 2.296875 47.703125 
L 2.296875 54.6875 
L 10.890625 54.6875 
L 10.890625 58.5 
Q 10.890625 67.625 15.140625 71.796875 
Q 19.390625 75.984375 28.609375 75.984375 
z
" id="DejaVuSans-102"/>
     </defs>
     <g transform="translate(70.200625 318.255394)scale(0.08 -0.08)">
      <use xlink:href="#DejaVuSans-83"/>
      <use x="63.476562" xlink:href="#DejaVuSans-100"/>
      <use x="126.953125" xlink:href="#DejaVuSans-101"/>
      <use x="188.476562" xlink:href="#DejaVuSans-45"/>
      <use x="224.560547" xlink:href="#DejaVuSans-67"/>
      <use x="294.384766" xlink:href="#DejaVuSans-77"/>
      <use x="380.664062" xlink:href="#DejaVuSans-97"/>
      <use x="441.943359" xlink:href="#DejaVuSans-116"/>
      <use x="481.152344" xlink:href="#DejaVuSans-95"/>
      <use x="531.152344" xlink:href="#DejaVuSans-48"/>
      <use x="594.775391" xlink:href="#DejaVuSans-54"/>
      <use x="658.398438" xlink:href="#DejaVuSans-49"/>
      <use x="722.021484" xlink:href="#DejaVuSans-45"/>
      <use x="758.105469" xlink:href="#DejaVuSans-69"/>
      <use x="821.289062" xlink:href="#DejaVuSans-120"/>
      <use x="880.46875" xlink:href="#DejaVuSans-49"/>
      <use x="944.091797" xlink:href="#DejaVuSans-45"/>
      <use x="980.175781" xlink:href="#DejaVuSans-55"/>
      <use x="1043.798828" xlink:href="#DejaVuSans-65"/>
      <use x="1112.175781" xlink:href="#DejaVuSans-45"/>
      <use x="1148.259766" xlink:href="#DejaVuSans-115"/>
      <use x="1200.359375" xlink:href="#DejaVuSans-115"/>
      <use x="1252.458984" xlink:href="#DejaVuSans-108"/>
      <use x="1280.242188" xlink:href="#DejaVuSans-46"/>
      <use x="1312.029297" xlink:href="#DejaVuSans-99"/>
      <use x="1367.009766" xlink:href="#DejaVuSans-108"/>
      <use x="1394.792969" xlink:href="#DejaVuSans-109"/>
      <use x="1492.205078" xlink:href="#DejaVuSans-112"/>
      <use x="1555.681641" xlink:href="#DejaVuSans-46"/>
      <use x="1587.46875" xlink:href="#DejaVuSans-114"/>
      <use x="1628.582031" xlink:href="#DejaVuSans-49"/>
      <use x="1692.205078" xlink:href="#DejaVuSans-114"/>
      <use x="1733.318359" xlink:href="#DejaVuSans-50"/>
      <use x="1796.941406" xlink:href="#DejaVuSans-95"/>
      <use x="1846.941406" xlink:href="#DejaVuSans-102"/>
      <use x="1882.146484" xlink:href="#DejaVuSans-97"/>
      <use x="1943.425781" xlink:href="#DejaVuSans-115"/>
      <use x="1995.525391" xlink:href="#DejaVuSans-116"/>
      <use x="2034.734375" xlink:href="#DejaVuSans-112"/>
     </g>
    </g>
    <g id="line2d_13">
     <path d="M 421.7425 315.455394 
L 437.7425 315.455394 
" style="fill:none;stroke:#434348;stroke-linecap:square;"/>
    </g>
    <g id="line2d_14"/>
    <g id="text_17">
     <!-- Sde-CMat_061-Ex1-8A-ssl.clmp.r1r2_fastp -->
     <g transform="translate(444.1425 318.255394)scale(0.08 -0.08)">
      <use xlink:href="#DejaVuSans-83"/>
      <use x="63.476562" xlink:href="#DejaVuSans-100"/>
      <use x="126.953125" xlink:href="#DejaVuSans-101"/>
      <use x="188.476562" xlink:href="#DejaVuSans-45"/>
      <use x="224.560547" xlink:href="#DejaVuSans-67"/>
      <use x="294.384766" xlink:href="#DejaVuSans-77"/>
      <use x="380.664062" xlink:href="#DejaVuSans-97"/>
      <use x="441.943359" xlink:href="#DejaVuSans-116"/>
      <use x="481.152344" xlink:href="#DejaVuSans-95"/>
      <use x="531.152344" xlink:href="#DejaVuSans-48"/>
      <use x="594.775391" xlink:href="#DejaVuSans-54"/>
      <use x="658.398438" xlink:href="#DejaVuSans-49"/>
      <use x="722.021484" xlink:href="#DejaVuSans-45"/>
      <use x="758.105469" xlink:href="#DejaVuSans-69"/>
      <use x="821.289062" xlink:href="#DejaVuSans-120"/>
      <use x="880.46875" xlink:href="#DejaVuSans-49"/>
      <use x="944.091797" xlink:href="#DejaVuSans-45"/>
      <use x="980.175781" xlink:href="#DejaVuSans-56"/>
      <use x="1043.798828" xlink:href="#DejaVuSans-65"/>
      <use x="1112.175781" xlink:href="#DejaVuSans-45"/>
      <use x="1148.259766" xlink:href="#DejaVuSans-115"/>
      <use x="1200.359375" xlink:href="#DejaVuSans-115"/>
      <use x="1252.458984" xlink:href="#DejaVuSans-108"/>
      <use x="1280.242188" xlink:href="#DejaVuSans-46"/>
      <use x="1312.029297" xlink:href="#DejaVuSans-99"/>
      <use x="1367.009766" xlink:href="#DejaVuSans-108"/>
      <use x="1394.792969" xlink:href="#DejaVuSans-109"/>
      <use x="1492.205078" xlink:href="#DejaVuSans-112"/>
      <use x="1555.681641" xlink:href="#DejaVuSans-46"/>
      <use x="1587.46875" xlink:href="#DejaVuSans-114"/>
      <use x="1628.582031" xlink:href="#DejaVuSans-49"/>
      <use x="1692.205078" xlink:href="#DejaVuSans-114"/>
      <use x="1733.318359" xlink:href="#DejaVuSans-50"/>
      <use x="1796.941406" xlink:href="#DejaVuSans-95"/>
      <use x="1846.941406" xlink:href="#DejaVuSans-102"/>
      <use x="1882.146484" xlink:href="#DejaVuSans-97"/>
      <use x="1943.425781" xlink:href="#DejaVuSans-115"/>
      <use x="1995.525391" xlink:href="#DejaVuSans-116"/>
      <use x="2034.734375" xlink:href="#DejaVuSans-112"/>
     </g>
    </g>
    <g id="line2d_15">
     <path d="M 795.684375 315.455394 
L 811.684375 315.455394 
" style="fill:none;stroke:#90ed7d;stroke-linecap:square;"/>
    </g>
    <g id="line2d_16"/>
    <g id="text_18">
     <!-- Sde-CMat_061-Ex1-9A-ssl.clmp.r1r2_fastp -->
     <defs>
      <path d="M 10.984375 1.515625 
L 10.984375 10.5 
Q 14.703125 8.734375 18.5 7.8125 
Q 22.3125 6.890625 25.984375 6.890625 
Q 35.75 6.890625 40.890625 13.453125 
Q 46.046875 20.015625 46.78125 33.40625 
Q 43.953125 29.203125 39.59375 26.953125 
Q 35.25 24.703125 29.984375 24.703125 
Q 19.046875 24.703125 12.671875 31.3125 
Q 6.296875 37.9375 6.296875 49.421875 
Q 6.296875 60.640625 12.9375 67.421875 
Q 19.578125 74.21875 30.609375 74.21875 
Q 43.265625 74.21875 49.921875 64.515625 
Q 56.59375 54.828125 56.59375 36.375 
Q 56.59375 19.140625 48.40625 8.859375 
Q 40.234375 -1.421875 26.421875 -1.421875 
Q 22.703125 -1.421875 18.890625 -0.6875 
Q 15.09375 0.046875 10.984375 1.515625 
z
M 30.609375 32.421875 
Q 37.25 32.421875 41.125 36.953125 
Q 45.015625 41.5 45.015625 49.421875 
Q 45.015625 57.28125 41.125 61.84375 
Q 37.25 66.40625 30.609375 66.40625 
Q 23.96875 66.40625 20.09375 61.84375 
Q 16.21875 57.28125 16.21875 49.421875 
Q 16.21875 41.5 20.09375 36.953125 
Q 23.96875 32.421875 30.609375 32.421875 
z
" id="DejaVuSans-57"/>
     </defs>
     <g transform="translate(818.084375 318.255394)scale(0.08 -0.08)">
      <use xlink:href="#DejaVuSans-83"/>
      <use x="63.476562" xlink:href="#DejaVuSans-100"/>
      <use x="126.953125" xlink:href="#DejaVuSans-101"/>
      <use x="188.476562" xlink:href="#DejaVuSans-45"/>
      <use x="224.560547" xlink:href="#DejaVuSans-67"/>
      <use x="294.384766" xlink:href="#DejaVuSans-77"/>
      <use x="380.664062" xlink:href="#DejaVuSans-97"/>
      <use x="441.943359" xlink:href="#DejaVuSans-116"/>
      <use x="481.152344" xlink:href="#DejaVuSans-95"/>
      <use x="531.152344" xlink:href="#DejaVuSans-48"/>
      <use x="594.775391" xlink:href="#DejaVuSans-54"/>
      <use x="658.398438" xlink:href="#DejaVuSans-49"/>
      <use x="722.021484" xlink:href="#DejaVuSans-45"/>
      <use x="758.105469" xlink:href="#DejaVuSans-69"/>
      <use x="821.289062" xlink:href="#DejaVuSans-120"/>
      <use x="880.46875" xlink:href="#DejaVuSans-49"/>
      <use x="944.091797" xlink:href="#DejaVuSans-45"/>
      <use x="980.175781" xlink:href="#DejaVuSans-57"/>
      <use x="1043.798828" xlink:href="#DejaVuSans-65"/>
      <use x="1112.175781" xlink:href="#DejaVuSans-45"/>
      <use x="1148.259766" xlink:href="#DejaVuSans-115"/>
      <use x="1200.359375" xlink:href="#DejaVuSans-115"/>
      <use x="1252.458984" xlink:href="#DejaVuSans-108"/>
      <use x="1280.242188" xlink:href="#DejaVuSans-46"/>
      <use x="1312.029297" xlink:href="#DejaVuSans-99"/>
      <use x="1367.009766" xlink:href="#DejaVuSans-108"/>
      <use x="1394.792969" xlink:href="#DejaVuSans-109"/>
      <use x="1492.205078" xlink:href="#DejaVuSans-112"/>
      <use x="1555.681641" xlink:href="#DejaVuSans-46"/>
      <use x="1587.46875" xlink:href="#DejaVuSans-114"/>
      <use x="1628.582031" xlink:href="#DejaVuSans-49"/>
      <use x="1692.205078" xlink:href="#DejaVuSans-114"/>
      <use x="1733.318359" xlink:href="#DejaVuSans-50"/>
      <use x="1796.941406" xlink:href="#DejaVuSans-95"/>
      <use x="1846.941406" xlink:href="#DejaVuSans-102"/>
      <use x="1882.146484" xlink:href="#DejaVuSans-97"/>
      <use x="1943.425781" xlink:href="#DejaVuSans-115"/>
      <use x="1995.525391" xlink:href="#DejaVuSans-116"/>
      <use x="2034.734375" xlink:href="#DejaVuSans-112"/>
     </g>
    </g>
   </g>
  </g>
 </g>
 <defs>
  <clipPath id="p1a197baa47">
   <rect height="242.5072" width="952.54" x="40.600625" y="31.48286"/>
  </clipPath>
 </defs>
</svg>
