<?xml version="1.0" encoding="utf-8" standalone="no"?>
<!DOCTYPE svg PUBLIC "-//W3C//DTD SVG 1.1//EN"
  "http://www.w3.org/Graphics/SVG/1.1/DTD/svg11.dtd">
<!-- Created with matplotlib (https://matplotlib.org/) -->
<svg height="330.541644pt" version="1.1" viewBox="0 0 1000.278125 330.541644" width="1000.278125pt" xmlns="http://www.w3.org/2000/svg" xmlns:xlink="http://www.w3.org/1999/xlink">
 <defs>
  <style type="text/css">
*{stroke-linecap:butt;stroke-linejoin:round;}
  </style>
 </defs>
 <g id="figure_1">
  <g id="axes_1">
   <g id="patch_1">
    <path d="M 43.148125 273.99006 
L 993.078125 273.99006 
L 993.078125 31.48286 
L 43.148125 31.48286 
z
" style="fill:#ffffff;"/>
   </g>
   <g id="matplotlib.axis_1">
    <g id="xtick_1">
     <g id="text_1">
      <!-- 0 -->
      <defs>
       <path d="M 31.78125 66.40625 
Q 24.171875 66.40625 20.328125 58.90625 
Q 16.5 51.421875 16.5 36.375 
Q 16.5 21.390625 20.328125 13.890625 
Q 24.171875 6.390625 31.78125 6.390625 
Q 39.453125 6.390625 43.28125 13.890625 
Q 47.125 21.390625 47.125 36.375 
Q 47.125 51.421875 43.28125 58.90625 
Q 39.453125 66.40625 31.78125 66.40625 
z
M 31.78125 74.21875 
Q 44.046875 74.21875 50.515625 64.515625 
Q 56.984375 54.828125 56.984375 36.375 
Q 56.984375 17.96875 50.515625 8.265625 
Q 44.046875 -1.421875 31.78125 -1.421875 
Q 19.53125 -1.421875 13.0625 8.265625 
Q 6.59375 17.96875 6.59375 36.375 
Q 6.59375 54.828125 13.0625 64.515625 
Q 19.53125 74.21875 31.78125 74.21875 
z
" id="DejaVuSans-48"/>
      </defs>
      <g transform="translate(77.985971 287.06881)scale(0.08 -0.08)">
       <use xlink:href="#DejaVuSans-48"/>
      </g>
     </g>
    </g>
    <g id="xtick_2">
     <g id="text_2">
      <!-- 20 -->
      <defs>
       <path d="M 19.1875 8.296875 
L 53.609375 8.296875 
L 53.609375 0 
L 7.328125 0 
L 7.328125 8.296875 
Q 12.9375 14.109375 22.625 23.890625 
Q 32.328125 33.6875 34.8125 36.53125 
Q 39.546875 41.84375 41.421875 45.53125 
Q 43.3125 49.21875 43.3125 52.78125 
Q 43.3125 58.59375 39.234375 62.25 
Q 35.15625 65.921875 28.609375 65.921875 
Q 23.96875 65.921875 18.8125 64.3125 
Q 13.671875 62.703125 7.8125 59.421875 
L 7.8125 69.390625 
Q 13.765625 71.78125 18.9375 73 
Q 24.125 74.21875 28.421875 74.21875 
Q 39.75 74.21875 46.484375 68.546875 
Q 53.21875 62.890625 53.21875 53.421875 
Q 53.21875 48.921875 51.53125 44.890625 
Q 49.859375 40.875 45.40625 35.40625 
Q 44.1875 33.984375 37.640625 27.21875 
Q 31.109375 20.453125 19.1875 8.296875 
z
" id="DejaVuSans-50"/>
      </defs>
      <g transform="translate(191.356774 287.06881)scale(0.08 -0.08)">
       <use xlink:href="#DejaVuSans-50"/>
       <use x="63.623047" xlink:href="#DejaVuSans-48"/>
      </g>
     </g>
    </g>
    <g id="xtick_3">
     <g id="text_3">
      <!-- 40 -->
      <defs>
       <path d="M 37.796875 64.3125 
L 12.890625 25.390625 
L 37.796875 25.390625 
z
M 35.203125 72.90625 
L 47.609375 72.90625 
L 47.609375 25.390625 
L 58.015625 25.390625 
L 58.015625 17.1875 
L 47.609375 17.1875 
L 47.609375 0 
L 37.796875 0 
L 37.796875 17.1875 
L 4.890625 17.1875 
L 4.890625 26.703125 
z
" id="DejaVuSans-52"/>
      </defs>
      <g transform="translate(307.272576 287.06881)scale(0.08 -0.08)">
       <use xlink:href="#DejaVuSans-52"/>
       <use x="63.623047" xlink:href="#DejaVuSans-48"/>
      </g>
     </g>
    </g>
    <g id="xtick_4">
     <g id="text_4">
      <!-- 60 -->
      <defs>
       <path d="M 33.015625 40.375 
Q 26.375 40.375 22.484375 35.828125 
Q 18.609375 31.296875 18.609375 23.390625 
Q 18.609375 15.53125 22.484375 10.953125 
Q 26.375 6.390625 33.015625 6.390625 
Q 39.65625 6.390625 43.53125 10.953125 
Q 47.40625 15.53125 47.40625 23.390625 
Q 47.40625 31.296875 43.53125 35.828125 
Q 39.65625 40.375 33.015625 40.375 
z
M 52.59375 71.296875 
L 52.59375 62.3125 
Q 48.875 64.0625 45.09375 64.984375 
Q 41.3125 65.921875 37.59375 65.921875 
Q 27.828125 65.921875 22.671875 59.328125 
Q 17.53125 52.734375 16.796875 39.40625 
Q 19.671875 43.65625 24.015625 45.921875 
Q 28.375 48.1875 33.59375 48.1875 
Q 44.578125 48.1875 50.953125 41.515625 
Q 57.328125 34.859375 57.328125 23.390625 
Q 57.328125 12.15625 50.6875 5.359375 
Q 44.046875 -1.421875 33.015625 -1.421875 
Q 20.359375 -1.421875 13.671875 8.265625 
Q 6.984375 17.96875 6.984375 36.375 
Q 6.984375 53.65625 15.1875 63.9375 
Q 23.390625 74.21875 37.203125 74.21875 
Q 40.921875 74.21875 44.703125 73.484375 
Q 48.484375 72.75 52.59375 71.296875 
z
" id="DejaVuSans-54"/>
      </defs>
      <g transform="translate(423.188378 287.06881)scale(0.08 -0.08)">
       <use xlink:href="#DejaVuSans-54"/>
       <use x="63.623047" xlink:href="#DejaVuSans-48"/>
      </g>
     </g>
    </g>
    <g id="xtick_5">
     <g id="text_5">
      <!-- 80 -->
      <defs>
       <path d="M 31.78125 34.625 
Q 24.75 34.625 20.71875 30.859375 
Q 16.703125 27.09375 16.703125 20.515625 
Q 16.703125 13.921875 20.71875 10.15625 
Q 24.75 6.390625 31.78125 6.390625 
Q 38.8125 6.390625 42.859375 10.171875 
Q 46.921875 13.96875 46.921875 20.515625 
Q 46.921875 27.09375 42.890625 30.859375 
Q 38.875 34.625 31.78125 34.625 
z
M 21.921875 38.8125 
Q 15.578125 40.375 12.03125 44.71875 
Q 8.5 49.078125 8.5 55.328125 
Q 8.5 64.0625 14.71875 69.140625 
Q 20.953125 74.21875 31.78125 74.21875 
Q 42.671875 74.21875 48.875 69.140625 
Q 55.078125 64.0625 55.078125 55.328125 
Q 55.078125 49.078125 51.53125 44.71875 
Q 48 40.375 41.703125 38.8125 
Q 48.828125 37.15625 52.796875 32.3125 
Q 56.78125 27.484375 56.78125 20.515625 
Q 56.78125 9.90625 50.3125 4.234375 
Q 43.84375 -1.421875 31.78125 -1.421875 
Q 19.734375 -1.421875 13.25 4.234375 
Q 6.78125 9.90625 6.78125 20.515625 
Q 6.78125 27.484375 10.78125 32.3125 
Q 14.796875 37.15625 21.921875 38.8125 
z
M 18.3125 54.390625 
Q 18.3125 48.734375 21.84375 45.5625 
Q 25.390625 42.390625 31.78125 42.390625 
Q 38.140625 42.390625 41.71875 45.5625 
Q 45.3125 48.734375 45.3125 54.390625 
Q 45.3125 60.0625 41.71875 63.234375 
Q 38.140625 66.40625 31.78125 66.40625 
Q 25.390625 66.40625 21.84375 63.234375 
Q 18.3125 60.0625 18.3125 54.390625 
z
" id="DejaVuSans-56"/>
      </defs>
      <g transform="translate(539.104181 287.06881)scale(0.08 -0.08)">
       <use xlink:href="#DejaVuSans-56"/>
       <use x="63.623047" xlink:href="#DejaVuSans-48"/>
      </g>
     </g>
    </g>
    <g id="xtick_6">
     <g id="text_6">
      <!-- 100 -->
      <defs>
       <path d="M 12.40625 8.296875 
L 28.515625 8.296875 
L 28.515625 63.921875 
L 10.984375 60.40625 
L 10.984375 69.390625 
L 28.421875 72.90625 
L 38.28125 72.90625 
L 38.28125 8.296875 
L 54.390625 8.296875 
L 54.390625 0 
L 12.40625 0 
z
" id="DejaVuSans-49"/>
      </defs>
      <g transform="translate(652.474983 287.06881)scale(0.08 -0.08)">
       <use xlink:href="#DejaVuSans-49"/>
       <use x="63.623047" xlink:href="#DejaVuSans-48"/>
       <use x="127.246094" xlink:href="#DejaVuSans-48"/>
      </g>
     </g>
    </g>
    <g id="xtick_7">
     <g id="text_7">
      <!-- 120 -->
      <g transform="translate(768.390785 287.06881)scale(0.08 -0.08)">
       <use xlink:href="#DejaVuSans-49"/>
       <use x="63.623047" xlink:href="#DejaVuSans-50"/>
       <use x="127.246094" xlink:href="#DejaVuSans-48"/>
      </g>
     </g>
    </g>
    <g id="xtick_8">
     <g id="text_8">
      <!-- 140 -->
      <g transform="translate(884.306587 287.06881)scale(0.08 -0.08)">
       <use xlink:href="#DejaVuSans-49"/>
       <use x="63.623047" xlink:href="#DejaVuSans-52"/>
       <use x="127.246094" xlink:href="#DejaVuSans-48"/>
      </g>
     </g>
    </g>
    <g id="text_9">
     <!-- Read Position -->
     <defs>
      <path d="M 44.390625 34.1875 
Q 47.5625 33.109375 50.5625 29.59375 
Q 53.5625 26.078125 56.59375 19.921875 
L 66.609375 0 
L 56 0 
L 46.6875 18.703125 
Q 43.0625 26.03125 39.671875 28.421875 
Q 36.28125 30.8125 30.421875 30.8125 
L 19.671875 30.8125 
L 19.671875 0 
L 9.8125 0 
L 9.8125 72.90625 
L 32.078125 72.90625 
Q 44.578125 72.90625 50.734375 67.671875 
Q 56.890625 62.453125 56.890625 51.90625 
Q 56.890625 45.015625 53.6875 40.46875 
Q 50.484375 35.9375 44.390625 34.1875 
z
M 19.671875 64.796875 
L 19.671875 38.921875 
L 32.078125 38.921875 
Q 39.203125 38.921875 42.84375 42.21875 
Q 46.484375 45.515625 46.484375 51.90625 
Q 46.484375 58.296875 42.84375 61.546875 
Q 39.203125 64.796875 32.078125 64.796875 
z
" id="DejaVuSans-82"/>
      <path d="M 56.203125 29.59375 
L 56.203125 25.203125 
L 14.890625 25.203125 
Q 15.484375 15.921875 20.484375 11.0625 
Q 25.484375 6.203125 34.421875 6.203125 
Q 39.59375 6.203125 44.453125 7.46875 
Q 49.3125 8.734375 54.109375 11.28125 
L 54.109375 2.78125 
Q 49.265625 0.734375 44.1875 -0.34375 
Q 39.109375 -1.421875 33.890625 -1.421875 
Q 20.796875 -1.421875 13.15625 6.1875 
Q 5.515625 13.8125 5.515625 26.8125 
Q 5.515625 40.234375 12.765625 48.109375 
Q 20.015625 56 32.328125 56 
Q 43.359375 56 49.78125 48.890625 
Q 56.203125 41.796875 56.203125 29.59375 
z
M 47.21875 32.234375 
Q 47.125 39.59375 43.09375 43.984375 
Q 39.0625 48.390625 32.421875 48.390625 
Q 24.90625 48.390625 20.390625 44.140625 
Q 15.875 39.890625 15.1875 32.171875 
z
" id="DejaVuSans-101"/>
      <path d="M 34.28125 27.484375 
Q 23.390625 27.484375 19.1875 25 
Q 14.984375 22.515625 14.984375 16.5 
Q 14.984375 11.71875 18.140625 8.90625 
Q 21.296875 6.109375 26.703125 6.109375 
Q 34.1875 6.109375 38.703125 11.40625 
Q 43.21875 16.703125 43.21875 25.484375 
L 43.21875 27.484375 
z
M 52.203125 31.203125 
L 52.203125 0 
L 43.21875 0 
L 43.21875 8.296875 
Q 40.140625 3.328125 35.546875 0.953125 
Q 30.953125 -1.421875 24.3125 -1.421875 
Q 15.921875 -1.421875 10.953125 3.296875 
Q 6 8.015625 6 15.921875 
Q 6 25.140625 12.171875 29.828125 
Q 18.359375 34.515625 30.609375 34.515625 
L 43.21875 34.515625 
L 43.21875 35.40625 
Q 43.21875 41.609375 39.140625 45 
Q 35.0625 48.390625 27.6875 48.390625 
Q 23 48.390625 18.546875 47.265625 
Q 14.109375 46.140625 10.015625 43.890625 
L 10.015625 52.203125 
Q 14.9375 54.109375 19.578125 55.046875 
Q 24.21875 56 28.609375 56 
Q 40.484375 56 46.34375 49.84375 
Q 52.203125 43.703125 52.203125 31.203125 
z
" id="DejaVuSans-97"/>
      <path d="M 45.40625 46.390625 
L 45.40625 75.984375 
L 54.390625 75.984375 
L 54.390625 0 
L 45.40625 0 
L 45.40625 8.203125 
Q 42.578125 3.328125 38.25 0.953125 
Q 33.9375 -1.421875 27.875 -1.421875 
Q 17.96875 -1.421875 11.734375 6.484375 
Q 5.515625 14.40625 5.515625 27.296875 
Q 5.515625 40.1875 11.734375 48.09375 
Q 17.96875 56 27.875 56 
Q 33.9375 56 38.25 53.625 
Q 42.578125 51.265625 45.40625 46.390625 
z
M 14.796875 27.296875 
Q 14.796875 17.390625 18.875 11.75 
Q 22.953125 6.109375 30.078125 6.109375 
Q 37.203125 6.109375 41.296875 11.75 
Q 45.40625 17.390625 45.40625 27.296875 
Q 45.40625 37.203125 41.296875 42.84375 
Q 37.203125 48.484375 30.078125 48.484375 
Q 22.953125 48.484375 18.875 42.84375 
Q 14.796875 37.203125 14.796875 27.296875 
z
" id="DejaVuSans-100"/>
      <path id="DejaVuSans-32"/>
      <path d="M 19.671875 64.796875 
L 19.671875 37.40625 
L 32.078125 37.40625 
Q 38.96875 37.40625 42.71875 40.96875 
Q 46.484375 44.53125 46.484375 51.125 
Q 46.484375 57.671875 42.71875 61.234375 
Q 38.96875 64.796875 32.078125 64.796875 
z
M 9.8125 72.90625 
L 32.078125 72.90625 
Q 44.34375 72.90625 50.609375 67.359375 
Q 56.890625 61.8125 56.890625 51.125 
Q 56.890625 40.328125 50.609375 34.8125 
Q 44.34375 29.296875 32.078125 29.296875 
L 19.671875 29.296875 
L 19.671875 0 
L 9.8125 0 
z
" id="DejaVuSans-80"/>
      <path d="M 30.609375 48.390625 
Q 23.390625 48.390625 19.1875 42.75 
Q 14.984375 37.109375 14.984375 27.296875 
Q 14.984375 17.484375 19.15625 11.84375 
Q 23.34375 6.203125 30.609375 6.203125 
Q 37.796875 6.203125 41.984375 11.859375 
Q 46.1875 17.53125 46.1875 27.296875 
Q 46.1875 37.015625 41.984375 42.703125 
Q 37.796875 48.390625 30.609375 48.390625 
z
M 30.609375 56 
Q 42.328125 56 49.015625 48.375 
Q 55.71875 40.765625 55.71875 27.296875 
Q 55.71875 13.875 49.015625 6.21875 
Q 42.328125 -1.421875 30.609375 -1.421875 
Q 18.84375 -1.421875 12.171875 6.21875 
Q 5.515625 13.875 5.515625 27.296875 
Q 5.515625 40.765625 12.171875 48.375 
Q 18.84375 56 30.609375 56 
z
" id="DejaVuSans-111"/>
      <path d="M 44.28125 53.078125 
L 44.28125 44.578125 
Q 40.484375 46.53125 36.375 47.5 
Q 32.28125 48.484375 27.875 48.484375 
Q 21.1875 48.484375 17.84375 46.4375 
Q 14.5 44.390625 14.5 40.28125 
Q 14.5 37.15625 16.890625 35.375 
Q 19.28125 33.59375 26.515625 31.984375 
L 29.59375 31.296875 
Q 39.15625 29.25 43.1875 25.515625 
Q 47.21875 21.78125 47.21875 15.09375 
Q 47.21875 7.46875 41.1875 3.015625 
Q 35.15625 -1.421875 24.609375 -1.421875 
Q 20.21875 -1.421875 15.453125 -0.5625 
Q 10.6875 0.296875 5.421875 2 
L 5.421875 11.28125 
Q 10.40625 8.6875 15.234375 7.390625 
Q 20.0625 6.109375 24.8125 6.109375 
Q 31.15625 6.109375 34.5625 8.28125 
Q 37.984375 10.453125 37.984375 14.40625 
Q 37.984375 18.0625 35.515625 20.015625 
Q 33.0625 21.96875 24.703125 23.78125 
L 21.578125 24.515625 
Q 13.234375 26.265625 9.515625 29.90625 
Q 5.8125 33.546875 5.8125 39.890625 
Q 5.8125 47.609375 11.28125 51.796875 
Q 16.75 56 26.8125 56 
Q 31.78125 56 36.171875 55.265625 
Q 40.578125 54.546875 44.28125 53.078125 
z
" id="DejaVuSans-115"/>
      <path d="M 9.421875 54.6875 
L 18.40625 54.6875 
L 18.40625 0 
L 9.421875 0 
z
M 9.421875 75.984375 
L 18.40625 75.984375 
L 18.40625 64.59375 
L 9.421875 64.59375 
z
" id="DejaVuSans-105"/>
      <path d="M 18.3125 70.21875 
L 18.3125 54.6875 
L 36.8125 54.6875 
L 36.8125 47.703125 
L 18.3125 47.703125 
L 18.3125 18.015625 
Q 18.3125 11.328125 20.140625 9.421875 
Q 21.96875 7.515625 27.59375 7.515625 
L 36.8125 7.515625 
L 36.8125 0 
L 27.59375 0 
Q 17.1875 0 13.234375 3.875 
Q 9.28125 7.765625 9.28125 18.015625 
L 9.28125 47.703125 
L 2.6875 47.703125 
L 2.6875 54.6875 
L 9.28125 54.6875 
L 9.28125 70.21875 
z
" id="DejaVuSans-116"/>
      <path d="M 54.890625 33.015625 
L 54.890625 0 
L 45.90625 0 
L 45.90625 32.71875 
Q 45.90625 40.484375 42.875 44.328125 
Q 39.84375 48.1875 33.796875 48.1875 
Q 26.515625 48.1875 22.3125 43.546875 
Q 18.109375 38.921875 18.109375 30.90625 
L 18.109375 0 
L 9.078125 0 
L 9.078125 54.6875 
L 18.109375 54.6875 
L 18.109375 46.1875 
Q 21.34375 51.125 25.703125 53.5625 
Q 30.078125 56 35.796875 56 
Q 45.21875 56 50.046875 50.171875 
Q 54.890625 44.34375 54.890625 33.015625 
z
" id="DejaVuSans-110"/>
     </defs>
     <g transform="translate(484.095156 300.330997)scale(0.1 -0.1)">
      <use xlink:href="#DejaVuSans-82"/>
      <use x="69.419922" xlink:href="#DejaVuSans-101"/>
      <use x="130.943359" xlink:href="#DejaVuSans-97"/>
      <use x="192.222656" xlink:href="#DejaVuSans-100"/>
      <use x="255.699219" xlink:href="#DejaVuSans-32"/>
      <use x="287.486328" xlink:href="#DejaVuSans-80"/>
      <use x="347.742188" xlink:href="#DejaVuSans-111"/>
      <use x="408.923828" xlink:href="#DejaVuSans-115"/>
      <use x="461.023438" xlink:href="#DejaVuSans-105"/>
      <use x="488.806641" xlink:href="#DejaVuSans-116"/>
      <use x="528.015625" xlink:href="#DejaVuSans-105"/>
      <use x="555.798828" xlink:href="#DejaVuSans-111"/>
      <use x="616.980469" xlink:href="#DejaVuSans-110"/>
     </g>
    </g>
   </g>
   <g id="matplotlib.axis_2">
    <g id="ytick_1">
     <g id="line2d_1">
      <path clip-path="url(#p227c88ba8a)" d="M 43.148125 273.99006 
L 993.078125 273.99006 
" style="fill:none;stroke:#dedede;stroke-linecap:square;"/>
     </g>
     <g id="text_10">
      <!-- 0 -->
      <g transform="translate(31.058125 277.029435)scale(0.08 -0.08)">
       <use xlink:href="#DejaVuSans-48"/>
      </g>
     </g>
    </g>
    <g id="ytick_2">
     <g id="line2d_2">
      <path clip-path="url(#p227c88ba8a)" d="M 43.148125 225.48862 
L 993.078125 225.48862 
" style="fill:none;stroke:#dedede;stroke-linecap:square;"/>
     </g>
     <g id="text_11">
      <!-- 20 -->
      <g transform="translate(25.968125 228.527995)scale(0.08 -0.08)">
       <use xlink:href="#DejaVuSans-50"/>
       <use x="63.623047" xlink:href="#DejaVuSans-48"/>
      </g>
     </g>
    </g>
    <g id="ytick_3">
     <g id="line2d_3">
      <path clip-path="url(#p227c88ba8a)" d="M 43.148125 176.98718 
L 993.078125 176.98718 
" style="fill:none;stroke:#dedede;stroke-linecap:square;"/>
     </g>
     <g id="text_12">
      <!-- 40 -->
      <g transform="translate(25.968125 180.026555)scale(0.08 -0.08)">
       <use xlink:href="#DejaVuSans-52"/>
       <use x="63.623047" xlink:href="#DejaVuSans-48"/>
      </g>
     </g>
    </g>
    <g id="ytick_4">
     <g id="line2d_4">
      <path clip-path="url(#p227c88ba8a)" d="M 43.148125 128.48574 
L 993.078125 128.48574 
" style="fill:none;stroke:#dedede;stroke-linecap:square;"/>
     </g>
     <g id="text_13">
      <!-- 60 -->
      <g transform="translate(25.968125 131.525115)scale(0.08 -0.08)">
       <use xlink:href="#DejaVuSans-54"/>
       <use x="63.623047" xlink:href="#DejaVuSans-48"/>
      </g>
     </g>
    </g>
    <g id="ytick_5">
     <g id="line2d_5">
      <path clip-path="url(#p227c88ba8a)" d="M 43.148125 79.9843 
L 993.078125 79.9843 
" style="fill:none;stroke:#dedede;stroke-linecap:square;"/>
     </g>
     <g id="text_14">
      <!-- 80 -->
      <g transform="translate(25.968125 83.023675)scale(0.08 -0.08)">
       <use xlink:href="#DejaVuSans-56"/>
       <use x="63.623047" xlink:href="#DejaVuSans-48"/>
      </g>
     </g>
    </g>
    <g id="ytick_6">
     <g id="line2d_6">
      <path clip-path="url(#p227c88ba8a)" d="M 43.148125 31.48286 
L 993.078125 31.48286 
" style="fill:none;stroke:#dedede;stroke-linecap:square;"/>
     </g>
     <g id="text_15">
      <!-- 100 -->
      <g transform="translate(20.878125 34.522235)scale(0.08 -0.08)">
       <use xlink:href="#DejaVuSans-49"/>
       <use x="63.623047" xlink:href="#DejaVuSans-48"/>
       <use x="127.246094" xlink:href="#DejaVuSans-48"/>
      </g>
     </g>
    </g>
    <g id="text_16">
     <!-- R2 Before filtering: Base Content Percent -->
     <defs>
      <path d="M 19.671875 34.8125 
L 19.671875 8.109375 
L 35.5 8.109375 
Q 43.453125 8.109375 47.28125 11.40625 
Q 51.125 14.703125 51.125 21.484375 
Q 51.125 28.328125 47.28125 31.5625 
Q 43.453125 34.8125 35.5 34.8125 
z
M 19.671875 64.796875 
L 19.671875 42.828125 
L 34.28125 42.828125 
Q 41.5 42.828125 45.03125 45.53125 
Q 48.578125 48.25 48.578125 53.8125 
Q 48.578125 59.328125 45.03125 62.0625 
Q 41.5 64.796875 34.28125 64.796875 
z
M 9.8125 72.90625 
L 35.015625 72.90625 
Q 46.296875 72.90625 52.390625 68.21875 
Q 58.5 63.53125 58.5 54.890625 
Q 58.5 48.1875 55.375 44.234375 
Q 52.25 40.28125 46.1875 39.3125 
Q 53.46875 37.75 57.5 32.78125 
Q 61.53125 27.828125 61.53125 20.40625 
Q 61.53125 10.640625 54.890625 5.3125 
Q 48.25 0 35.984375 0 
L 9.8125 0 
z
" id="DejaVuSans-66"/>
      <path d="M 37.109375 75.984375 
L 37.109375 68.5 
L 28.515625 68.5 
Q 23.6875 68.5 21.796875 66.546875 
Q 19.921875 64.59375 19.921875 59.515625 
L 19.921875 54.6875 
L 34.71875 54.6875 
L 34.71875 47.703125 
L 19.921875 47.703125 
L 19.921875 0 
L 10.890625 0 
L 10.890625 47.703125 
L 2.296875 47.703125 
L 2.296875 54.6875 
L 10.890625 54.6875 
L 10.890625 58.5 
Q 10.890625 67.625 15.140625 71.796875 
Q 19.390625 75.984375 28.609375 75.984375 
z
" id="DejaVuSans-102"/>
      <path d="M 41.109375 46.296875 
Q 39.59375 47.171875 37.8125 47.578125 
Q 36.03125 48 33.890625 48 
Q 26.265625 48 22.1875 43.046875 
Q 18.109375 38.09375 18.109375 28.8125 
L 18.109375 0 
L 9.078125 0 
L 9.078125 54.6875 
L 18.109375 54.6875 
L 18.109375 46.1875 
Q 20.953125 51.171875 25.484375 53.578125 
Q 30.03125 56 36.53125 56 
Q 37.453125 56 38.578125 55.875 
Q 39.703125 55.765625 41.0625 55.515625 
z
" id="DejaVuSans-114"/>
      <path d="M 9.421875 75.984375 
L 18.40625 75.984375 
L 18.40625 0 
L 9.421875 0 
z
" id="DejaVuSans-108"/>
      <path d="M 45.40625 27.984375 
Q 45.40625 37.75 41.375 43.109375 
Q 37.359375 48.484375 30.078125 48.484375 
Q 22.859375 48.484375 18.828125 43.109375 
Q 14.796875 37.75 14.796875 27.984375 
Q 14.796875 18.265625 18.828125 12.890625 
Q 22.859375 7.515625 30.078125 7.515625 
Q 37.359375 7.515625 41.375 12.890625 
Q 45.40625 18.265625 45.40625 27.984375 
z
M 54.390625 6.78125 
Q 54.390625 -7.171875 48.1875 -13.984375 
Q 42 -20.796875 29.203125 -20.796875 
Q 24.46875 -20.796875 20.265625 -20.09375 
Q 16.0625 -19.390625 12.109375 -17.921875 
L 12.109375 -9.1875 
Q 16.0625 -11.328125 19.921875 -12.34375 
Q 23.78125 -13.375 27.78125 -13.375 
Q 36.625 -13.375 41.015625 -8.765625 
Q 45.40625 -4.15625 45.40625 5.171875 
L 45.40625 9.625 
Q 42.625 4.78125 38.28125 2.390625 
Q 33.9375 0 27.875 0 
Q 17.828125 0 11.671875 7.65625 
Q 5.515625 15.328125 5.515625 27.984375 
Q 5.515625 40.671875 11.671875 48.328125 
Q 17.828125 56 27.875 56 
Q 33.9375 56 38.28125 53.609375 
Q 42.625 51.21875 45.40625 46.390625 
L 45.40625 54.6875 
L 54.390625 54.6875 
z
" id="DejaVuSans-103"/>
      <path d="M 11.71875 12.40625 
L 22.015625 12.40625 
L 22.015625 0 
L 11.71875 0 
z
M 11.71875 51.703125 
L 22.015625 51.703125 
L 22.015625 39.3125 
L 11.71875 39.3125 
z
" id="DejaVuSans-58"/>
      <path d="M 64.40625 67.28125 
L 64.40625 56.890625 
Q 59.421875 61.53125 53.78125 63.8125 
Q 48.140625 66.109375 41.796875 66.109375 
Q 29.296875 66.109375 22.65625 58.46875 
Q 16.015625 50.828125 16.015625 36.375 
Q 16.015625 21.96875 22.65625 14.328125 
Q 29.296875 6.6875 41.796875 6.6875 
Q 48.140625 6.6875 53.78125 8.984375 
Q 59.421875 11.28125 64.40625 15.921875 
L 64.40625 5.609375 
Q 59.234375 2.09375 53.4375 0.328125 
Q 47.65625 -1.421875 41.21875 -1.421875 
Q 24.65625 -1.421875 15.125 8.703125 
Q 5.609375 18.84375 5.609375 36.375 
Q 5.609375 53.953125 15.125 64.078125 
Q 24.65625 74.21875 41.21875 74.21875 
Q 47.75 74.21875 53.53125 72.484375 
Q 59.328125 70.75 64.40625 67.28125 
z
" id="DejaVuSans-67"/>
      <path d="M 48.78125 52.59375 
L 48.78125 44.1875 
Q 44.96875 46.296875 41.140625 47.34375 
Q 37.3125 48.390625 33.40625 48.390625 
Q 24.65625 48.390625 19.8125 42.84375 
Q 14.984375 37.3125 14.984375 27.296875 
Q 14.984375 17.28125 19.8125 11.734375 
Q 24.65625 6.203125 33.40625 6.203125 
Q 37.3125 6.203125 41.140625 7.25 
Q 44.96875 8.296875 48.78125 10.40625 
L 48.78125 2.09375 
Q 45.015625 0.34375 40.984375 -0.53125 
Q 36.96875 -1.421875 32.421875 -1.421875 
Q 20.0625 -1.421875 12.78125 6.34375 
Q 5.515625 14.109375 5.515625 27.296875 
Q 5.515625 40.671875 12.859375 48.328125 
Q 20.21875 56 33.015625 56 
Q 37.15625 56 41.109375 55.140625 
Q 45.0625 54.296875 48.78125 52.59375 
z
" id="DejaVuSans-99"/>
     </defs>
     <g transform="translate(14.798438 255.999741)rotate(-90)scale(0.1 -0.1)">
      <use xlink:href="#DejaVuSans-82"/>
      <use x="69.482422" xlink:href="#DejaVuSans-50"/>
      <use x="133.105469" xlink:href="#DejaVuSans-32"/>
      <use x="164.892578" xlink:href="#DejaVuSans-66"/>
      <use x="233.496094" xlink:href="#DejaVuSans-101"/>
      <use x="295.019531" xlink:href="#DejaVuSans-102"/>
      <use x="330.224609" xlink:href="#DejaVuSans-111"/>
      <use x="391.40625" xlink:href="#DejaVuSans-114"/>
      <use x="432.488281" xlink:href="#DejaVuSans-101"/>
      <use x="494.011719" xlink:href="#DejaVuSans-32"/>
      <use x="525.798828" xlink:href="#DejaVuSans-102"/>
      <use x="561.003906" xlink:href="#DejaVuSans-105"/>
      <use x="588.787109" xlink:href="#DejaVuSans-108"/>
      <use x="616.570312" xlink:href="#DejaVuSans-116"/>
      <use x="655.779297" xlink:href="#DejaVuSans-101"/>
      <use x="717.302734" xlink:href="#DejaVuSans-114"/>
      <use x="758.416016" xlink:href="#DejaVuSans-105"/>
      <use x="786.199219" xlink:href="#DejaVuSans-110"/>
      <use x="849.578125" xlink:href="#DejaVuSans-103"/>
      <use x="913.054688" xlink:href="#DejaVuSans-58"/>
      <use x="946.746094" xlink:href="#DejaVuSans-32"/>
      <use x="978.533203" xlink:href="#DejaVuSans-66"/>
      <use x="1047.136719" xlink:href="#DejaVuSans-97"/>
      <use x="1108.416016" xlink:href="#DejaVuSans-115"/>
      <use x="1160.515625" xlink:href="#DejaVuSans-101"/>
      <use x="1222.039062" xlink:href="#DejaVuSans-32"/>
      <use x="1253.826172" xlink:href="#DejaVuSans-67"/>
      <use x="1323.650391" xlink:href="#DejaVuSans-111"/>
      <use x="1384.832031" xlink:href="#DejaVuSans-110"/>
      <use x="1448.210938" xlink:href="#DejaVuSans-116"/>
      <use x="1487.419922" xlink:href="#DejaVuSans-101"/>
      <use x="1548.943359" xlink:href="#DejaVuSans-110"/>
      <use x="1612.322266" xlink:href="#DejaVuSans-116"/>
      <use x="1651.53125" xlink:href="#DejaVuSans-32"/>
      <use x="1683.318359" xlink:href="#DejaVuSans-80"/>
      <use x="1743.574219" xlink:href="#DejaVuSans-101"/>
      <use x="1805.097656" xlink:href="#DejaVuSans-114"/>
      <use x="1846.179688" xlink:href="#DejaVuSans-99"/>
      <use x="1901.160156" xlink:href="#DejaVuSans-101"/>
      <use x="1962.683594" xlink:href="#DejaVuSans-110"/>
      <use x="2026.0625" xlink:href="#DejaVuSans-116"/>
     </g>
    </g>
   </g>
   <g id="line2d_7">
    <path clip-path="url(#p227c88ba8a)" d="M 86.326761 130.068099 
L 92.122551 170.379829 
L 97.918342 169.691836 
L 103.714132 174.987951 
L 109.509922 168.090076 
L 115.305712 172.894143 
L 121.101502 171.985954 
L 126.897292 170.707699 
L 132.693082 166.828068 
L 138.488872 176.034612 
L 144.284663 160.047082 
L 150.080453 164.458288 
L 155.876243 163.459401 
L 161.672033 167.6281 
L 167.467823 164.963431 
L 173.263613 168.197022 
L 179.059403 164.514307 
L 184.855193 168.296449 
L 190.650983 165.090989 
L 196.446774 168.32555 
L 202.242564 165.314823 
L 208.038354 168.911205 
L 213.834144 165.716173 
L 219.629934 169.097451 
L 225.425724 166.264482 
L 231.221514 169.037309 
L 237.017304 166.61539 
L 242.813094 169.065682 
L 248.608885 166.148078 
L 254.404675 169.06544 
L 260.200465 166.423566 
L 265.996255 168.804017 
L 271.792045 166.517417 
L 277.587835 168.920663 
L 283.383625 166.456062 
L 289.179415 168.853003 
L 294.975206 166.788297 
L 300.770996 168.736843 
L 306.566786 166.733733 
L 312.362576 168.967709 
L 318.158366 166.71312 
L 323.954156 168.982017 
L 329.749946 167.030319 
L 335.545736 168.600311 
L 341.341526 166.923859 
L 347.137317 168.898352 
L 352.933107 166.823461 
L 358.728897 168.823175 
L 364.524687 166.926526 
L 370.320477 168.682521 
L 376.116267 166.900336 
L 381.912057 168.82075 
L 387.707847 166.874872 
L 393.503638 168.688584 
L 399.299428 167.225538 
L 405.095218 168.522951 
L 410.891008 167.30605 
L 416.686798 168.831905 
L 422.482588 166.87366 
L 428.278378 168.573635 
L 434.074168 167.053115 
L 439.869958 168.350286 
L 445.665749 167.272342 
L 451.461539 168.626744 
L 457.257329 167.087551 
L 463.053119 168.496033 
L 468.848909 167.3805 
L 474.644699 168.450199 
L 480.440489 167.204925 
L 486.236279 168.619227 
L 492.032069 166.953687 
L 497.82786 168.505006 
L 503.62365 167.240573 
L 509.41944 168.238005 
L 515.21523 167.449129 
L 521.01102 168.650995 
L 526.80681 167.443067 
L 532.6026 168.610254 
L 538.39839 167.368374 
L 544.194181 168.48415 
L 549.989971 167.31672 
L 555.785761 168.564662 
L 561.581551 167.186494 
L 567.377341 168.287477 
L 573.173131 167.499328 
L 578.968921 168.340343 
L 584.764711 167.619612 
L 590.560501 168.670153 
L 596.356292 167.311143 
L 602.152082 168.820993 
L 607.947872 167.629312 
L 613.743662 168.300087 
L 619.539452 167.501268 
L 625.335242 168.460869 
L 631.131032 167.551225 
L 636.926822 168.405093 
L 642.722612 167.521154 
L 648.518403 168.318033 
L 654.314193 167.684604 
L 660.109983 168.47736 
L 665.905773 167.453494 
L 671.701563 168.289659 
L 677.497353 167.618399 
L 683.293143 168.295479 
L 689.088933 167.850964 
L 694.884724 168.31391 
L 700.680514 167.584448 
L 706.476304 168.249403 
L 712.272094 167.73262 
L 718.067884 168.095896 
L 723.863674 167.893403 
L 729.659464 168.212784 
L 735.455254 167.692607 
L 741.251044 168.106566 
L 747.046835 167.820165 
L 752.842625 168.039149 
L 758.638415 167.669083 
L 764.434205 168.142215 
L 770.229995 167.551467 
L 776.025785 167.995256 
L 781.821575 167.578871 
L 787.617365 167.823075 
L 793.413156 167.656473 
L 799.208946 167.937539 
L 805.004736 167.581781 
L 810.800526 167.760509 
L 816.596316 167.607002 
L 822.392106 167.90868 
L 828.187896 167.450342 
L 833.983686 167.776757 
L 839.779476 167.335636 
L 857.166847 167.462467 
L 862.962637 167.363767 
L 868.758427 167.435549 
L 874.554217 167.314538 
L 880.350007 167.730438 
L 886.145797 167.319873 
L 891.941587 167.345336 
L 897.737378 166.887483 
L 903.533168 167.431669 
L 909.328958 166.564221 
L 915.124748 167.450584 
L 920.920538 167.140418 
L 926.716328 167.271129 
L 932.512118 167.736743 
L 938.307908 167.835686 
L 944.103699 167.785002 
L 949.899489 167.572565 
L 949.899489 167.572565 
" style="fill:none;stroke:#7cb5ec;stroke-linecap:square;"/>
   </g>
   <g id="line2d_8">
    <path clip-path="url(#p227c88ba8a)" d="M 86.326761 129.804009 
L 92.122551 170.392197 
L 97.918342 170.197948 
L 103.714132 175.332068 
L 109.509922 168.074555 
L 115.305712 173.177149 
L 121.101502 172.131458 
L 126.897292 171.349373 
L 132.693082 167.178006 
L 138.488872 175.940519 
L 144.284663 160.38635 
L 150.080453 164.858667 
L 155.876243 163.535063 
L 161.672033 167.827926 
L 167.467823 165.040063 
L 173.263613 168.420128 
L 179.059403 164.605732 
L 184.855193 168.496033 
L 190.650983 165.124698 
L 196.446774 168.524164 
L 202.242564 165.368903 
L 208.038354 169.037309 
L 213.834144 165.78747 
L 219.629934 169.245623 
L 225.425724 166.269817 
L 231.221514 169.201486 
L 237.017304 166.575376 
L 242.813094 169.257506 
L 248.608885 166.207007 
L 254.404675 169.263326 
L 260.200465 166.364637 
L 265.996255 168.939821 
L 271.792045 166.53803 
L 277.587835 169.107394 
L 283.383625 166.46358 
L 289.179415 169.00263 
L 294.975206 166.765987 
L 300.770996 168.912175 
L 306.566786 166.721608 
L 312.362576 169.153227 
L 318.158366 166.733248 
L 323.954156 169.164625 
L 329.749946 167.015041 
L 335.545736 168.825843 
L 341.341526 166.957082 
L 347.137317 169.07514 
L 352.933107 166.852562 
L 358.728897 169.030761 
L 364.524687 167.002189 
L 370.320477 168.923816 
L 376.116267 166.989821 
L 381.912057 168.996568 
L 387.707847 166.900093 
L 393.503638 168.930606 
L 399.299428 167.234753 
L 405.095218 168.751393 
L 410.891008 167.340486 
L 416.686798 169.052829 
L 422.482588 166.938652 
L 428.278378 168.815657 
L 434.074168 167.146965 
L 439.869958 168.603221 
L 445.665749 167.316235 
L 451.461539 168.829238 
L 457.257329 167.122715 
L 463.053119 168.725687 
L 468.848909 167.484778 
L 474.644699 168.644932 
L 480.440489 167.323511 
L 486.236279 168.877739 
L 492.032069 167.062573 
L 497.82786 168.759153 
L 503.62365 167.340001 
L 509.41944 168.502823 
L 515.21523 167.582751 
L 521.01102 168.830208 
L 526.80681 167.496661 
L 532.6026 168.869736 
L 538.39839 167.442582 
L 544.194181 168.654875 
L 549.989971 167.447917 
L 555.785761 168.731022 
L 561.581551 167.284709 
L 567.377341 168.531924 
L 573.173131 167.622764 
L 578.968921 168.530954 
L 584.764711 167.757841 
L 590.560501 168.815415 
L 596.356292 167.452282 
L 602.152082 168.926241 
L 607.947872 167.760751 
L 613.743662 168.472995 
L 619.539452 167.677329 
L 625.335242 168.667485 
L 631.131032 167.668841 
L 636.926822 168.614134 
L 642.722612 167.647985 
L 648.518403 168.495063 
L 654.314193 167.82162 
L 660.109983 168.65439 
L 665.905773 167.582751 
L 671.701563 168.511311 
L 677.497353 167.743291 
L 683.293143 168.437104 
L 689.088933 168.002288 
L 694.884724 168.474935 
L 700.680514 167.721222 
L 706.476304 168.435649 
L 712.272094 167.851691 
L 718.067884 168.277291 
L 723.863674 168.000348 
L 729.659464 168.459414 
L 735.455254 167.867697 
L 741.251044 168.346406 
L 747.046835 167.953787 
L 752.842625 168.230245 
L 758.638415 167.790337 
L 764.434205 168.343253 
L 770.229995 167.682421 
L 776.025785 168.199447 
L 781.821575 167.756143 
L 787.617365 168.05079 
L 793.413156 167.786942 
L 799.208946 168.108264 
L 805.004736 167.747171 
L 810.800526 167.969792 
L 816.596316 167.829381 
L 822.392106 168.077465 
L 828.187896 167.613064 
L 833.983686 168.012716 
L 839.779476 167.520911 
L 857.166847 167.702792 
L 862.962637 167.568685 
L 868.758427 167.736258 
L 874.554217 167.498358 
L 880.350007 167.935356 
L 886.145797 167.517031 
L 891.941587 167.577658 
L 897.737378 167.182371 
L 903.533168 167.663263 
L 909.328958 166.871235 
L 915.124748 167.714917 
L 920.920538 167.414693 
L 926.716328 167.546617 
L 932.512118 167.954272 
L 938.307908 168.04788 
L 949.899489 167.918623 
L 949.899489 167.918623 
" style="fill:none;stroke:#434348;stroke-linecap:square;"/>
   </g>
   <g id="line2d_9">
    <path clip-path="url(#p227c88ba8a)" d="M 86.326761 130.805806 
L 92.122551 167.829866 
L 97.918342 168.471055 
L 103.714132 173.782932 
L 109.509922 166.821521 
L 115.305712 171.665117 
L 126.897292 169.356448 
L 132.693082 165.369873 
L 138.488872 175.313638 
L 144.284663 159.03801 
L 150.080453 163.733919 
L 155.876243 162.463181 
L 161.672033 166.938167 
L 167.467823 163.967938 
L 173.263613 167.55074 
L 179.059403 163.459643 
L 184.855193 167.600454 
L 190.650983 164.001162 
L 196.446774 167.557288 
L 202.242564 164.266222 
L 208.038354 168.107051 
L 213.834144 164.698128 
L 219.629934 168.319003 
L 225.425724 165.304638 
L 231.221514 168.251101 
L 237.017304 165.644633 
L 242.813094 168.32749 
L 248.608885 165.177079 
L 254.404675 168.358531 
L 260.200465 165.362355 
L 265.996255 167.973915 
L 271.792045 165.484821 
L 277.587835 168.123299 
L 283.383625 165.417404 
L 289.179415 168.072615 
L 294.975206 165.753761 
L 300.770996 167.944087 
L 306.566786 165.728783 
L 312.362576 168.21715 
L 318.158366 165.686102 
L 323.954156 168.223212 
L 329.749946 166.005241 
L 335.545736 167.770936 
L 341.341526 165.965955 
L 347.137317 168.06146 
L 352.933107 165.870892 
L 358.728897 167.996468 
L 364.524687 165.95383 
L 370.320477 167.89704 
L 376.116267 165.961833 
L 381.912057 168.003258 
L 387.707847 165.903146 
L 393.503638 167.880792 
L 399.299428 166.254539 
L 405.095218 167.684119 
L 410.891008 166.368032 
L 416.686798 167.987738 
L 422.482588 165.862162 
L 428.278378 167.760509 
L 434.074168 166.163599 
L 439.869958 167.531339 
L 445.665749 166.304253 
L 451.461539 167.747898 
L 457.257329 166.075326 
L 463.053119 167.673691 
L 468.848909 166.46843 
L 474.644699 167.569413 
L 480.440489 166.244839 
L 486.236279 167.80901 
L 492.032069 165.994814 
L 497.82786 167.665446 
L 503.62365 166.290915 
L 509.41944 167.343154 
L 515.21523 166.514749 
L 521.01102 167.766086 
L 526.80681 166.385978 
L 532.6026 167.774816 
L 538.39839 166.413381 
L 544.194181 167.566745 
L 549.989971 166.390585 
L 555.785761 167.672236 
L 561.581551 166.171844 
L 567.377341 167.384137 
L 573.173131 166.54773 
L 578.968921 167.438459 
L 584.764711 166.689112 
L 590.560501 167.719767 
L 596.356292 166.363667 
L 602.152082 167.9048 
L 607.947872 166.677471 
L 613.743662 167.325936 
L 619.539452 166.62897 
L 625.335242 167.526004 
L 631.131032 166.626787 
L 636.926822 167.479685 
L 642.722612 166.563251 
L 648.518403 167.372497 
L 654.314193 166.739068 
L 660.109983 167.568443 
L 665.905773 166.504321 
L 671.701563 167.405478 
L 677.497353 166.658798 
L 683.293143 167.336848 
L 689.088933 166.991761 
L 694.884724 167.38147 
L 700.680514 166.679411 
L 706.476304 167.31769 
L 712.272094 166.801393 
L 718.067884 167.13484 
L 723.863674 166.938894 
L 729.659464 167.321086 
L 735.455254 166.686929 
L 741.251044 167.146965 
L 747.046835 166.883118 
L 752.842625 167.066695 
L 758.638415 166.708997 
L 764.434205 167.22481 
L 770.229995 166.562038 
L 776.025785 167.073486 
L 781.821575 166.601567 
L 787.617365 166.883845 
L 793.413156 166.714575 
L 799.208946 166.986183 
L 805.004736 166.647158 
L 810.800526 166.765259 
L 816.596316 166.670681 
L 822.392106 166.956597 
L 828.187896 166.514264 
L 833.983686 166.837041 
L 839.779476 166.322926 
L 851.371057 166.558885 
L 874.554217 166.421869 
L 880.350007 166.79533 
L 886.145797 166.409016 
L 891.941587 166.382825 
L 897.737378 166.018094 
L 903.533168 166.525177 
L 909.328958 165.643421 
L 915.124748 166.590411 
L 920.920538 166.238291 
L 926.716328 166.373367 
L 932.512118 166.853774 
L 938.307908 166.965327 
L 944.103699 166.851834 
L 949.899489 166.551853 
L 949.899489 166.551853 
" style="fill:none;stroke:#90ed7d;stroke-linecap:square;"/>
   </g>
   <g id="line2d_10">
    <path clip-path="url(#p227c88ba8a)" d="M 43.148125 273.99006 
L 993.078125 273.99006 
" style="fill:none;stroke:#dedede;stroke-linecap:square;stroke-width:2;"/>
   </g>
   <g id="text_17">
    <!-- Fastp: Read GC Content -->
    <defs>
     <path d="M 9.8125 72.90625 
L 51.703125 72.90625 
L 51.703125 64.59375 
L 19.671875 64.59375 
L 19.671875 43.109375 
L 48.578125 43.109375 
L 48.578125 34.8125 
L 19.671875 34.8125 
L 19.671875 0 
L 9.8125 0 
z
" id="DejaVuSans-70"/>
     <path d="M 18.109375 8.203125 
L 18.109375 -20.796875 
L 9.078125 -20.796875 
L 9.078125 54.6875 
L 18.109375 54.6875 
L 18.109375 46.390625 
Q 20.953125 51.265625 25.265625 53.625 
Q 29.59375 56 35.59375 56 
Q 45.5625 56 51.78125 48.09375 
Q 58.015625 40.1875 58.015625 27.296875 
Q 58.015625 14.40625 51.78125 6.484375 
Q 45.5625 -1.421875 35.59375 -1.421875 
Q 29.59375 -1.421875 25.265625 0.953125 
Q 20.953125 3.328125 18.109375 8.203125 
z
M 48.6875 27.296875 
Q 48.6875 37.203125 44.609375 42.84375 
Q 40.53125 48.484375 33.40625 48.484375 
Q 26.265625 48.484375 22.1875 42.84375 
Q 18.109375 37.203125 18.109375 27.296875 
Q 18.109375 17.390625 22.1875 11.75 
Q 26.265625 6.109375 33.40625 6.109375 
Q 40.53125 6.109375 44.609375 11.75 
Q 48.6875 17.390625 48.6875 27.296875 
z
" id="DejaVuSans-112"/>
     <path d="M 59.515625 10.40625 
L 59.515625 29.984375 
L 43.40625 29.984375 
L 43.40625 38.09375 
L 69.28125 38.09375 
L 69.28125 6.78125 
Q 63.578125 2.734375 56.6875 0.65625 
Q 49.8125 -1.421875 42 -1.421875 
Q 24.90625 -1.421875 15.25 8.5625 
Q 5.609375 18.5625 5.609375 36.375 
Q 5.609375 54.25 15.25 64.234375 
Q 24.90625 74.21875 42 74.21875 
Q 49.125 74.21875 55.546875 72.453125 
Q 61.96875 70.703125 67.390625 67.28125 
L 67.390625 56.78125 
Q 61.921875 61.421875 55.765625 63.765625 
Q 49.609375 66.109375 42.828125 66.109375 
Q 29.4375 66.109375 22.71875 58.640625 
Q 16.015625 51.171875 16.015625 36.375 
Q 16.015625 21.625 22.71875 14.15625 
Q 29.4375 6.6875 42.828125 6.6875 
Q 48.046875 6.6875 52.140625 7.59375 
Q 56.25 8.5 59.515625 10.40625 
z
" id="DejaVuSans-71"/>
    </defs>
    <g transform="translate(421.856875 19.3575)scale(0.16 -0.16)">
     <use xlink:href="#DejaVuSans-70"/>
     <use x="57.378906" xlink:href="#DejaVuSans-97"/>
     <use x="118.658203" xlink:href="#DejaVuSans-115"/>
     <use x="170.757812" xlink:href="#DejaVuSans-116"/>
     <use x="209.966797" xlink:href="#DejaVuSans-112"/>
     <use x="273.443359" xlink:href="#DejaVuSans-58"/>
     <use x="307.134766" xlink:href="#DejaVuSans-32"/>
     <use x="338.921875" xlink:href="#DejaVuSans-82"/>
     <use x="408.341797" xlink:href="#DejaVuSans-101"/>
     <use x="469.865234" xlink:href="#DejaVuSans-97"/>
     <use x="531.144531" xlink:href="#DejaVuSans-100"/>
     <use x="594.621094" xlink:href="#DejaVuSans-32"/>
     <use x="626.408203" xlink:href="#DejaVuSans-71"/>
     <use x="703.898438" xlink:href="#DejaVuSans-67"/>
     <use x="773.722656" xlink:href="#DejaVuSans-32"/>
     <use x="805.509766" xlink:href="#DejaVuSans-67"/>
     <use x="875.333984" xlink:href="#DejaVuSans-111"/>
     <use x="936.515625" xlink:href="#DejaVuSans-110"/>
     <use x="999.894531" xlink:href="#DejaVuSans-116"/>
     <use x="1039.103516" xlink:href="#DejaVuSans-101"/>
     <use x="1100.626953" xlink:href="#DejaVuSans-110"/>
     <use x="1164.005859" xlink:href="#DejaVuSans-116"/>
    </g>
   </g>
   <g id="legend_1">
    <g id="line2d_11">
     <path d="M 50.348125 315.455394 
L 66.348125 315.455394 
" style="fill:none;stroke:#7cb5ec;stroke-linecap:square;"/>
    </g>
    <g id="line2d_12"/>
    <g id="text_18">
     <!-- Sde-CMat_061-Ex1-7A-ssl.clmp.r1r2_fastp -->
     <defs>
      <path d="M 53.515625 70.515625 
L 53.515625 60.890625 
Q 47.90625 63.578125 42.921875 64.890625 
Q 37.9375 66.21875 33.296875 66.21875 
Q 25.25 66.21875 20.875 63.09375 
Q 16.5 59.96875 16.5 54.203125 
Q 16.5 49.359375 19.40625 46.890625 
Q 22.3125 44.4375 30.421875 42.921875 
L 36.375 41.703125 
Q 47.40625 39.59375 52.65625 34.296875 
Q 57.90625 29 57.90625 20.125 
Q 57.90625 9.515625 50.796875 4.046875 
Q 43.703125 -1.421875 29.984375 -1.421875 
Q 24.8125 -1.421875 18.96875 -0.25 
Q 13.140625 0.921875 6.890625 3.21875 
L 6.890625 13.375 
Q 12.890625 10.015625 18.65625 8.296875 
Q 24.421875 6.59375 29.984375 6.59375 
Q 38.421875 6.59375 43.015625 9.90625 
Q 47.609375 13.234375 47.609375 19.390625 
Q 47.609375 24.75 44.3125 27.78125 
Q 41.015625 30.8125 33.5 32.328125 
L 27.484375 33.5 
Q 16.453125 35.6875 11.515625 40.375 
Q 6.59375 45.0625 6.59375 53.421875 
Q 6.59375 63.09375 13.40625 68.65625 
Q 20.21875 74.21875 32.171875 74.21875 
Q 37.3125 74.21875 42.625 73.28125 
Q 47.953125 72.359375 53.515625 70.515625 
z
" id="DejaVuSans-83"/>
      <path d="M 4.890625 31.390625 
L 31.203125 31.390625 
L 31.203125 23.390625 
L 4.890625 23.390625 
z
" id="DejaVuSans-45"/>
      <path d="M 9.8125 72.90625 
L 24.515625 72.90625 
L 43.109375 23.296875 
L 61.8125 72.90625 
L 76.515625 72.90625 
L 76.515625 0 
L 66.890625 0 
L 66.890625 64.015625 
L 48.09375 14.015625 
L 38.1875 14.015625 
L 19.390625 64.015625 
L 19.390625 0 
L 9.8125 0 
z
" id="DejaVuSans-77"/>
      <path d="M 50.984375 -16.609375 
L 50.984375 -23.578125 
L -0.984375 -23.578125 
L -0.984375 -16.609375 
z
" id="DejaVuSans-95"/>
      <path d="M 9.8125 72.90625 
L 55.90625 72.90625 
L 55.90625 64.59375 
L 19.671875 64.59375 
L 19.671875 43.015625 
L 54.390625 43.015625 
L 54.390625 34.71875 
L 19.671875 34.71875 
L 19.671875 8.296875 
L 56.78125 8.296875 
L 56.78125 0 
L 9.8125 0 
z
" id="DejaVuSans-69"/>
      <path d="M 54.890625 54.6875 
L 35.109375 28.078125 
L 55.90625 0 
L 45.3125 0 
L 29.390625 21.484375 
L 13.484375 0 
L 2.875 0 
L 24.125 28.609375 
L 4.6875 54.6875 
L 15.28125 54.6875 
L 29.78125 35.203125 
L 44.28125 54.6875 
z
" id="DejaVuSans-120"/>
      <path d="M 8.203125 72.90625 
L 55.078125 72.90625 
L 55.078125 68.703125 
L 28.609375 0 
L 18.3125 0 
L 43.21875 64.59375 
L 8.203125 64.59375 
z
" id="DejaVuSans-55"/>
      <path d="M 34.1875 63.1875 
L 20.796875 26.90625 
L 47.609375 26.90625 
z
M 28.609375 72.90625 
L 39.796875 72.90625 
L 67.578125 0 
L 57.328125 0 
L 50.6875 18.703125 
L 17.828125 18.703125 
L 11.1875 0 
L 0.78125 0 
z
" id="DejaVuSans-65"/>
      <path d="M 10.6875 12.40625 
L 21 12.40625 
L 21 0 
L 10.6875 0 
z
" id="DejaVuSans-46"/>
      <path d="M 52 44.1875 
Q 55.375 50.25 60.0625 53.125 
Q 64.75 56 71.09375 56 
Q 79.640625 56 84.28125 50.015625 
Q 88.921875 44.046875 88.921875 33.015625 
L 88.921875 0 
L 79.890625 0 
L 79.890625 32.71875 
Q 79.890625 40.578125 77.09375 44.375 
Q 74.3125 48.1875 68.609375 48.1875 
Q 61.625 48.1875 57.5625 43.546875 
Q 53.515625 38.921875 53.515625 30.90625 
L 53.515625 0 
L 44.484375 0 
L 44.484375 32.71875 
Q 44.484375 40.625 41.703125 44.40625 
Q 38.921875 48.1875 33.109375 48.1875 
Q 26.21875 48.1875 22.15625 43.53125 
Q 18.109375 38.875 18.109375 30.90625 
L 18.109375 0 
L 9.078125 0 
L 9.078125 54.6875 
L 18.109375 54.6875 
L 18.109375 46.1875 
Q 21.1875 51.21875 25.484375 53.609375 
Q 29.78125 56 35.6875 56 
Q 41.65625 56 45.828125 52.96875 
Q 50 49.953125 52 44.1875 
z
" id="DejaVuSans-109"/>
     </defs>
     <g transform="translate(72.748125 318.255394)scale(0.08 -0.08)">
      <use xlink:href="#DejaVuSans-83"/>
      <use x="63.476562" xlink:href="#DejaVuSans-100"/>
      <use x="126.953125" xlink:href="#DejaVuSans-101"/>
      <use x="188.476562" xlink:href="#DejaVuSans-45"/>
      <use x="224.560547" xlink:href="#DejaVuSans-67"/>
      <use x="294.384766" xlink:href="#DejaVuSans-77"/>
      <use x="380.664062" xlink:href="#DejaVuSans-97"/>
      <use x="441.943359" xlink:href="#DejaVuSans-116"/>
      <use x="481.152344" xlink:href="#DejaVuSans-95"/>
      <use x="531.152344" xlink:href="#DejaVuSans-48"/>
      <use x="594.775391" xlink:href="#DejaVuSans-54"/>
      <use x="658.398438" xlink:href="#DejaVuSans-49"/>
      <use x="722.021484" xlink:href="#DejaVuSans-45"/>
      <use x="758.105469" xlink:href="#DejaVuSans-69"/>
      <use x="821.289062" xlink:href="#DejaVuSans-120"/>
      <use x="880.46875" xlink:href="#DejaVuSans-49"/>
      <use x="944.091797" xlink:href="#DejaVuSans-45"/>
      <use x="980.175781" xlink:href="#DejaVuSans-55"/>
      <use x="1043.798828" xlink:href="#DejaVuSans-65"/>
      <use x="1112.175781" xlink:href="#DejaVuSans-45"/>
      <use x="1148.259766" xlink:href="#DejaVuSans-115"/>
      <use x="1200.359375" xlink:href="#DejaVuSans-115"/>
      <use x="1252.458984" xlink:href="#DejaVuSans-108"/>
      <use x="1280.242188" xlink:href="#DejaVuSans-46"/>
      <use x="1312.029297" xlink:href="#DejaVuSans-99"/>
      <use x="1367.009766" xlink:href="#DejaVuSans-108"/>
      <use x="1394.792969" xlink:href="#DejaVuSans-109"/>
      <use x="1492.205078" xlink:href="#DejaVuSans-112"/>
      <use x="1555.681641" xlink:href="#DejaVuSans-46"/>
      <use x="1587.46875" xlink:href="#DejaVuSans-114"/>
      <use x="1628.582031" xlink:href="#DejaVuSans-49"/>
      <use x="1692.205078" xlink:href="#DejaVuSans-114"/>
      <use x="1733.318359" xlink:href="#DejaVuSans-50"/>
      <use x="1796.941406" xlink:href="#DejaVuSans-95"/>
      <use x="1846.941406" xlink:href="#DejaVuSans-102"/>
      <use x="1882.146484" xlink:href="#DejaVuSans-97"/>
      <use x="1943.425781" xlink:href="#DejaVuSans-115"/>
      <use x="1995.525391" xlink:href="#DejaVuSans-116"/>
      <use x="2034.734375" xlink:href="#DejaVuSans-112"/>
     </g>
    </g>
    <g id="line2d_13">
     <path d="M 422.985 315.455394 
L 438.985 315.455394 
" style="fill:none;stroke:#434348;stroke-linecap:square;"/>
    </g>
    <g id="line2d_14"/>
    <g id="text_19">
     <!-- Sde-CMat_061-Ex1-8A-ssl.clmp.r1r2_fastp -->
     <g transform="translate(445.385 318.255394)scale(0.08 -0.08)">
      <use xlink:href="#DejaVuSans-83"/>
      <use x="63.476562" xlink:href="#DejaVuSans-100"/>
      <use x="126.953125" xlink:href="#DejaVuSans-101"/>
      <use x="188.476562" xlink:href="#DejaVuSans-45"/>
      <use x="224.560547" xlink:href="#DejaVuSans-67"/>
      <use x="294.384766" xlink:href="#DejaVuSans-77"/>
      <use x="380.664062" xlink:href="#DejaVuSans-97"/>
      <use x="441.943359" xlink:href="#DejaVuSans-116"/>
      <use x="481.152344" xlink:href="#DejaVuSans-95"/>
      <use x="531.152344" xlink:href="#DejaVuSans-48"/>
      <use x="594.775391" xlink:href="#DejaVuSans-54"/>
      <use x="658.398438" xlink:href="#DejaVuSans-49"/>
      <use x="722.021484" xlink:href="#DejaVuSans-45"/>
      <use x="758.105469" xlink:href="#DejaVuSans-69"/>
      <use x="821.289062" xlink:href="#DejaVuSans-120"/>
      <use x="880.46875" xlink:href="#DejaVuSans-49"/>
      <use x="944.091797" xlink:href="#DejaVuSans-45"/>
      <use x="980.175781" xlink:href="#DejaVuSans-56"/>
      <use x="1043.798828" xlink:href="#DejaVuSans-65"/>
      <use x="1112.175781" xlink:href="#DejaVuSans-45"/>
      <use x="1148.259766" xlink:href="#DejaVuSans-115"/>
      <use x="1200.359375" xlink:href="#DejaVuSans-115"/>
      <use x="1252.458984" xlink:href="#DejaVuSans-108"/>
      <use x="1280.242188" xlink:href="#DejaVuSans-46"/>
      <use x="1312.029297" xlink:href="#DejaVuSans-99"/>
      <use x="1367.009766" xlink:href="#DejaVuSans-108"/>
      <use x="1394.792969" xlink:href="#DejaVuSans-109"/>
      <use x="1492.205078" xlink:href="#DejaVuSans-112"/>
      <use x="1555.681641" xlink:href="#DejaVuSans-46"/>
      <use x="1587.46875" xlink:href="#DejaVuSans-114"/>
      <use x="1628.582031" xlink:href="#DejaVuSans-49"/>
      <use x="1692.205078" xlink:href="#DejaVuSans-114"/>
      <use x="1733.318359" xlink:href="#DejaVuSans-50"/>
      <use x="1796.941406" xlink:href="#DejaVuSans-95"/>
      <use x="1846.941406" xlink:href="#DejaVuSans-102"/>
      <use x="1882.146484" xlink:href="#DejaVuSans-97"/>
      <use x="1943.425781" xlink:href="#DejaVuSans-115"/>
      <use x="1995.525391" xlink:href="#DejaVuSans-116"/>
      <use x="2034.734375" xlink:href="#DejaVuSans-112"/>
     </g>
    </g>
    <g id="line2d_15">
     <path d="M 795.621875 315.455394 
L 811.621875 315.455394 
" style="fill:none;stroke:#90ed7d;stroke-linecap:square;"/>
    </g>
    <g id="line2d_16"/>
    <g id="text_20">
     <!-- Sde-CMat_061-Ex1-9A-ssl.clmp.r1r2_fastp -->
     <defs>
      <path d="M 10.984375 1.515625 
L 10.984375 10.5 
Q 14.703125 8.734375 18.5 7.8125 
Q 22.3125 6.890625 25.984375 6.890625 
Q 35.75 6.890625 40.890625 13.453125 
Q 46.046875 20.015625 46.78125 33.40625 
Q 43.953125 29.203125 39.59375 26.953125 
Q 35.25 24.703125 29.984375 24.703125 
Q 19.046875 24.703125 12.671875 31.3125 
Q 6.296875 37.9375 6.296875 49.421875 
Q 6.296875 60.640625 12.9375 67.421875 
Q 19.578125 74.21875 30.609375 74.21875 
Q 43.265625 74.21875 49.921875 64.515625 
Q 56.59375 54.828125 56.59375 36.375 
Q 56.59375 19.140625 48.40625 8.859375 
Q 40.234375 -1.421875 26.421875 -1.421875 
Q 22.703125 -1.421875 18.890625 -0.6875 
Q 15.09375 0.046875 10.984375 1.515625 
z
M 30.609375 32.421875 
Q 37.25 32.421875 41.125 36.953125 
Q 45.015625 41.5 45.015625 49.421875 
Q 45.015625 57.28125 41.125 61.84375 
Q 37.25 66.40625 30.609375 66.40625 
Q 23.96875 66.40625 20.09375 61.84375 
Q 16.21875 57.28125 16.21875 49.421875 
Q 16.21875 41.5 20.09375 36.953125 
Q 23.96875 32.421875 30.609375 32.421875 
z
" id="DejaVuSans-57"/>
     </defs>
     <g transform="translate(818.021875 318.255394)scale(0.08 -0.08)">
      <use xlink:href="#DejaVuSans-83"/>
      <use x="63.476562" xlink:href="#DejaVuSans-100"/>
      <use x="126.953125" xlink:href="#DejaVuSans-101"/>
      <use x="188.476562" xlink:href="#DejaVuSans-45"/>
      <use x="224.560547" xlink:href="#DejaVuSans-67"/>
      <use x="294.384766" xlink:href="#DejaVuSans-77"/>
      <use x="380.664062" xlink:href="#DejaVuSans-97"/>
      <use x="441.943359" xlink:href="#DejaVuSans-116"/>
      <use x="481.152344" xlink:href="#DejaVuSans-95"/>
      <use x="531.152344" xlink:href="#DejaVuSans-48"/>
      <use x="594.775391" xlink:href="#DejaVuSans-54"/>
      <use x="658.398438" xlink:href="#DejaVuSans-49"/>
      <use x="722.021484" xlink:href="#DejaVuSans-45"/>
      <use x="758.105469" xlink:href="#DejaVuSans-69"/>
      <use x="821.289062" xlink:href="#DejaVuSans-120"/>
      <use x="880.46875" xlink:href="#DejaVuSans-49"/>
      <use x="944.091797" xlink:href="#DejaVuSans-45"/>
      <use x="980.175781" xlink:href="#DejaVuSans-57"/>
      <use x="1043.798828" xlink:href="#DejaVuSans-65"/>
      <use x="1112.175781" xlink:href="#DejaVuSans-45"/>
      <use x="1148.259766" xlink:href="#DejaVuSans-115"/>
      <use x="1200.359375" xlink:href="#DejaVuSans-115"/>
      <use x="1252.458984" xlink:href="#DejaVuSans-108"/>
      <use x="1280.242188" xlink:href="#DejaVuSans-46"/>
      <use x="1312.029297" xlink:href="#DejaVuSans-99"/>
      <use x="1367.009766" xlink:href="#DejaVuSans-108"/>
      <use x="1394.792969" xlink:href="#DejaVuSans-109"/>
      <use x="1492.205078" xlink:href="#DejaVuSans-112"/>
      <use x="1555.681641" xlink:href="#DejaVuSans-46"/>
      <use x="1587.46875" xlink:href="#DejaVuSans-114"/>
      <use x="1628.582031" xlink:href="#DejaVuSans-49"/>
      <use x="1692.205078" xlink:href="#DejaVuSans-114"/>
      <use x="1733.318359" xlink:href="#DejaVuSans-50"/>
      <use x="1796.941406" xlink:href="#DejaVuSans-95"/>
      <use x="1846.941406" xlink:href="#DejaVuSans-102"/>
      <use x="1882.146484" xlink:href="#DejaVuSans-97"/>
      <use x="1943.425781" xlink:href="#DejaVuSans-115"/>
      <use x="1995.525391" xlink:href="#DejaVuSans-116"/>
      <use x="2034.734375" xlink:href="#DejaVuSans-112"/>
     </g>
    </g>
   </g>
  </g>
 </g>
 <defs>
  <clipPath id="p227c88ba8a">
   <rect height="242.5072" width="949.93" x="43.148125" y="31.48286"/>
  </clipPath>
 </defs>
</svg>
