<?xml version="1.0" encoding="utf-8" standalone="no"?>
<!DOCTYPE svg PUBLIC "-//W3C//DTD SVG 1.1//EN"
  "http://www.w3.org/Graphics/SVG/1.1/DTD/svg11.dtd">
<!-- Created with matplotlib (https://matplotlib.org/) -->
<svg height="330.541644pt" version="1.1" viewBox="0 0 1000.278125 330.541644" width="1000.278125pt" xmlns="http://www.w3.org/2000/svg" xmlns:xlink="http://www.w3.org/1999/xlink">
 <defs>
  <style type="text/css">
*{stroke-linecap:butt;stroke-linejoin:round;}
  </style>
 </defs>
 <g id="figure_1">
  <g id="axes_1">
   <g id="patch_1">
    <path d="M 43.148125 273.99006 
L 993.078125 273.99006 
L 993.078125 31.48286 
L 43.148125 31.48286 
z
" style="fill:#ffffff;"/>
   </g>
   <g id="matplotlib.axis_1">
    <g id="xtick_1">
     <g id="text_1">
      <!-- 0 -->
      <defs>
       <path d="M 31.78125 66.40625 
Q 24.171875 66.40625 20.328125 58.90625 
Q 16.5 51.421875 16.5 36.375 
Q 16.5 21.390625 20.328125 13.890625 
Q 24.171875 6.390625 31.78125 6.390625 
Q 39.453125 6.390625 43.28125 13.890625 
Q 47.125 21.390625 47.125 36.375 
Q 47.125 51.421875 43.28125 58.90625 
Q 39.453125 66.40625 31.78125 66.40625 
z
M 31.78125 74.21875 
Q 44.046875 74.21875 50.515625 64.515625 
Q 56.984375 54.828125 56.984375 36.375 
Q 56.984375 17.96875 50.515625 8.265625 
Q 44.046875 -1.421875 31.78125 -1.421875 
Q 19.53125 -1.421875 13.0625 8.265625 
Q 6.59375 17.96875 6.59375 36.375 
Q 6.59375 54.828125 13.0625 64.515625 
Q 19.53125 74.21875 31.78125 74.21875 
z
" id="DejaVuSans-48"/>
      </defs>
      <g transform="translate(77.985971 287.06881)scale(0.08 -0.08)">
       <use xlink:href="#DejaVuSans-48"/>
      </g>
     </g>
    </g>
    <g id="xtick_2">
     <g id="text_2">
      <!-- 20 -->
      <defs>
       <path d="M 19.1875 8.296875 
L 53.609375 8.296875 
L 53.609375 0 
L 7.328125 0 
L 7.328125 8.296875 
Q 12.9375 14.109375 22.625 23.890625 
Q 32.328125 33.6875 34.8125 36.53125 
Q 39.546875 41.84375 41.421875 45.53125 
Q 43.3125 49.21875 43.3125 52.78125 
Q 43.3125 58.59375 39.234375 62.25 
Q 35.15625 65.921875 28.609375 65.921875 
Q 23.96875 65.921875 18.8125 64.3125 
Q 13.671875 62.703125 7.8125 59.421875 
L 7.8125 69.390625 
Q 13.765625 71.78125 18.9375 73 
Q 24.125 74.21875 28.421875 74.21875 
Q 39.75 74.21875 46.484375 68.546875 
Q 53.21875 62.890625 53.21875 53.421875 
Q 53.21875 48.921875 51.53125 44.890625 
Q 49.859375 40.875 45.40625 35.40625 
Q 44.1875 33.984375 37.640625 27.21875 
Q 31.109375 20.453125 19.1875 8.296875 
z
" id="DejaVuSans-50"/>
      </defs>
      <g transform="translate(191.356774 287.06881)scale(0.08 -0.08)">
       <use xlink:href="#DejaVuSans-50"/>
       <use x="63.623047" xlink:href="#DejaVuSans-48"/>
      </g>
     </g>
    </g>
    <g id="xtick_3">
     <g id="text_3">
      <!-- 40 -->
      <defs>
       <path d="M 37.796875 64.3125 
L 12.890625 25.390625 
L 37.796875 25.390625 
z
M 35.203125 72.90625 
L 47.609375 72.90625 
L 47.609375 25.390625 
L 58.015625 25.390625 
L 58.015625 17.1875 
L 47.609375 17.1875 
L 47.609375 0 
L 37.796875 0 
L 37.796875 17.1875 
L 4.890625 17.1875 
L 4.890625 26.703125 
z
" id="DejaVuSans-52"/>
      </defs>
      <g transform="translate(307.272576 287.06881)scale(0.08 -0.08)">
       <use xlink:href="#DejaVuSans-52"/>
       <use x="63.623047" xlink:href="#DejaVuSans-48"/>
      </g>
     </g>
    </g>
    <g id="xtick_4">
     <g id="text_4">
      <!-- 60 -->
      <defs>
       <path d="M 33.015625 40.375 
Q 26.375 40.375 22.484375 35.828125 
Q 18.609375 31.296875 18.609375 23.390625 
Q 18.609375 15.53125 22.484375 10.953125 
Q 26.375 6.390625 33.015625 6.390625 
Q 39.65625 6.390625 43.53125 10.953125 
Q 47.40625 15.53125 47.40625 23.390625 
Q 47.40625 31.296875 43.53125 35.828125 
Q 39.65625 40.375 33.015625 40.375 
z
M 52.59375 71.296875 
L 52.59375 62.3125 
Q 48.875 64.0625 45.09375 64.984375 
Q 41.3125 65.921875 37.59375 65.921875 
Q 27.828125 65.921875 22.671875 59.328125 
Q 17.53125 52.734375 16.796875 39.40625 
Q 19.671875 43.65625 24.015625 45.921875 
Q 28.375 48.1875 33.59375 48.1875 
Q 44.578125 48.1875 50.953125 41.515625 
Q 57.328125 34.859375 57.328125 23.390625 
Q 57.328125 12.15625 50.6875 5.359375 
Q 44.046875 -1.421875 33.015625 -1.421875 
Q 20.359375 -1.421875 13.671875 8.265625 
Q 6.984375 17.96875 6.984375 36.375 
Q 6.984375 53.65625 15.1875 63.9375 
Q 23.390625 74.21875 37.203125 74.21875 
Q 40.921875 74.21875 44.703125 73.484375 
Q 48.484375 72.75 52.59375 71.296875 
z
" id="DejaVuSans-54"/>
      </defs>
      <g transform="translate(423.188378 287.06881)scale(0.08 -0.08)">
       <use xlink:href="#DejaVuSans-54"/>
       <use x="63.623047" xlink:href="#DejaVuSans-48"/>
      </g>
     </g>
    </g>
    <g id="xtick_5">
     <g id="text_5">
      <!-- 80 -->
      <defs>
       <path d="M 31.78125 34.625 
Q 24.75 34.625 20.71875 30.859375 
Q 16.703125 27.09375 16.703125 20.515625 
Q 16.703125 13.921875 20.71875 10.15625 
Q 24.75 6.390625 31.78125 6.390625 
Q 38.8125 6.390625 42.859375 10.171875 
Q 46.921875 13.96875 46.921875 20.515625 
Q 46.921875 27.09375 42.890625 30.859375 
Q 38.875 34.625 31.78125 34.625 
z
M 21.921875 38.8125 
Q 15.578125 40.375 12.03125 44.71875 
Q 8.5 49.078125 8.5 55.328125 
Q 8.5 64.0625 14.71875 69.140625 
Q 20.953125 74.21875 31.78125 74.21875 
Q 42.671875 74.21875 48.875 69.140625 
Q 55.078125 64.0625 55.078125 55.328125 
Q 55.078125 49.078125 51.53125 44.71875 
Q 48 40.375 41.703125 38.8125 
Q 48.828125 37.15625 52.796875 32.3125 
Q 56.78125 27.484375 56.78125 20.515625 
Q 56.78125 9.90625 50.3125 4.234375 
Q 43.84375 -1.421875 31.78125 -1.421875 
Q 19.734375 -1.421875 13.25 4.234375 
Q 6.78125 9.90625 6.78125 20.515625 
Q 6.78125 27.484375 10.78125 32.3125 
Q 14.796875 37.15625 21.921875 38.8125 
z
M 18.3125 54.390625 
Q 18.3125 48.734375 21.84375 45.5625 
Q 25.390625 42.390625 31.78125 42.390625 
Q 38.140625 42.390625 41.71875 45.5625 
Q 45.3125 48.734375 45.3125 54.390625 
Q 45.3125 60.0625 41.71875 63.234375 
Q 38.140625 66.40625 31.78125 66.40625 
Q 25.390625 66.40625 21.84375 63.234375 
Q 18.3125 60.0625 18.3125 54.390625 
z
" id="DejaVuSans-56"/>
      </defs>
      <g transform="translate(539.104181 287.06881)scale(0.08 -0.08)">
       <use xlink:href="#DejaVuSans-56"/>
       <use x="63.623047" xlink:href="#DejaVuSans-48"/>
      </g>
     </g>
    </g>
    <g id="xtick_6">
     <g id="text_6">
      <!-- 100 -->
      <defs>
       <path d="M 12.40625 8.296875 
L 28.515625 8.296875 
L 28.515625 63.921875 
L 10.984375 60.40625 
L 10.984375 69.390625 
L 28.421875 72.90625 
L 38.28125 72.90625 
L 38.28125 8.296875 
L 54.390625 8.296875 
L 54.390625 0 
L 12.40625 0 
z
" id="DejaVuSans-49"/>
      </defs>
      <g transform="translate(652.474983 287.06881)scale(0.08 -0.08)">
       <use xlink:href="#DejaVuSans-49"/>
       <use x="63.623047" xlink:href="#DejaVuSans-48"/>
       <use x="127.246094" xlink:href="#DejaVuSans-48"/>
      </g>
     </g>
    </g>
    <g id="xtick_7">
     <g id="text_7">
      <!-- 120 -->
      <g transform="translate(768.390785 287.06881)scale(0.08 -0.08)">
       <use xlink:href="#DejaVuSans-49"/>
       <use x="63.623047" xlink:href="#DejaVuSans-50"/>
       <use x="127.246094" xlink:href="#DejaVuSans-48"/>
      </g>
     </g>
    </g>
    <g id="xtick_8">
     <g id="text_8">
      <!-- 140 -->
      <g transform="translate(884.306587 287.06881)scale(0.08 -0.08)">
       <use xlink:href="#DejaVuSans-49"/>
       <use x="63.623047" xlink:href="#DejaVuSans-52"/>
       <use x="127.246094" xlink:href="#DejaVuSans-48"/>
      </g>
     </g>
    </g>
    <g id="text_9">
     <!-- Read Position -->
     <defs>
      <path d="M 44.390625 34.1875 
Q 47.5625 33.109375 50.5625 29.59375 
Q 53.5625 26.078125 56.59375 19.921875 
L 66.609375 0 
L 56 0 
L 46.6875 18.703125 
Q 43.0625 26.03125 39.671875 28.421875 
Q 36.28125 30.8125 30.421875 30.8125 
L 19.671875 30.8125 
L 19.671875 0 
L 9.8125 0 
L 9.8125 72.90625 
L 32.078125 72.90625 
Q 44.578125 72.90625 50.734375 67.671875 
Q 56.890625 62.453125 56.890625 51.90625 
Q 56.890625 45.015625 53.6875 40.46875 
Q 50.484375 35.9375 44.390625 34.1875 
z
M 19.671875 64.796875 
L 19.671875 38.921875 
L 32.078125 38.921875 
Q 39.203125 38.921875 42.84375 42.21875 
Q 46.484375 45.515625 46.484375 51.90625 
Q 46.484375 58.296875 42.84375 61.546875 
Q 39.203125 64.796875 32.078125 64.796875 
z
" id="DejaVuSans-82"/>
      <path d="M 56.203125 29.59375 
L 56.203125 25.203125 
L 14.890625 25.203125 
Q 15.484375 15.921875 20.484375 11.0625 
Q 25.484375 6.203125 34.421875 6.203125 
Q 39.59375 6.203125 44.453125 7.46875 
Q 49.3125 8.734375 54.109375 11.28125 
L 54.109375 2.78125 
Q 49.265625 0.734375 44.1875 -0.34375 
Q 39.109375 -1.421875 33.890625 -1.421875 
Q 20.796875 -1.421875 13.15625 6.1875 
Q 5.515625 13.8125 5.515625 26.8125 
Q 5.515625 40.234375 12.765625 48.109375 
Q 20.015625 56 32.328125 56 
Q 43.359375 56 49.78125 48.890625 
Q 56.203125 41.796875 56.203125 29.59375 
z
M 47.21875 32.234375 
Q 47.125 39.59375 43.09375 43.984375 
Q 39.0625 48.390625 32.421875 48.390625 
Q 24.90625 48.390625 20.390625 44.140625 
Q 15.875 39.890625 15.1875 32.171875 
z
" id="DejaVuSans-101"/>
      <path d="M 34.28125 27.484375 
Q 23.390625 27.484375 19.1875 25 
Q 14.984375 22.515625 14.984375 16.5 
Q 14.984375 11.71875 18.140625 8.90625 
Q 21.296875 6.109375 26.703125 6.109375 
Q 34.1875 6.109375 38.703125 11.40625 
Q 43.21875 16.703125 43.21875 25.484375 
L 43.21875 27.484375 
z
M 52.203125 31.203125 
L 52.203125 0 
L 43.21875 0 
L 43.21875 8.296875 
Q 40.140625 3.328125 35.546875 0.953125 
Q 30.953125 -1.421875 24.3125 -1.421875 
Q 15.921875 -1.421875 10.953125 3.296875 
Q 6 8.015625 6 15.921875 
Q 6 25.140625 12.171875 29.828125 
Q 18.359375 34.515625 30.609375 34.515625 
L 43.21875 34.515625 
L 43.21875 35.40625 
Q 43.21875 41.609375 39.140625 45 
Q 35.0625 48.390625 27.6875 48.390625 
Q 23 48.390625 18.546875 47.265625 
Q 14.109375 46.140625 10.015625 43.890625 
L 10.015625 52.203125 
Q 14.9375 54.109375 19.578125 55.046875 
Q 24.21875 56 28.609375 56 
Q 40.484375 56 46.34375 49.84375 
Q 52.203125 43.703125 52.203125 31.203125 
z
" id="DejaVuSans-97"/>
      <path d="M 45.40625 46.390625 
L 45.40625 75.984375 
L 54.390625 75.984375 
L 54.390625 0 
L 45.40625 0 
L 45.40625 8.203125 
Q 42.578125 3.328125 38.25 0.953125 
Q 33.9375 -1.421875 27.875 -1.421875 
Q 17.96875 -1.421875 11.734375 6.484375 
Q 5.515625 14.40625 5.515625 27.296875 
Q 5.515625 40.1875 11.734375 48.09375 
Q 17.96875 56 27.875 56 
Q 33.9375 56 38.25 53.625 
Q 42.578125 51.265625 45.40625 46.390625 
z
M 14.796875 27.296875 
Q 14.796875 17.390625 18.875 11.75 
Q 22.953125 6.109375 30.078125 6.109375 
Q 37.203125 6.109375 41.296875 11.75 
Q 45.40625 17.390625 45.40625 27.296875 
Q 45.40625 37.203125 41.296875 42.84375 
Q 37.203125 48.484375 30.078125 48.484375 
Q 22.953125 48.484375 18.875 42.84375 
Q 14.796875 37.203125 14.796875 27.296875 
z
" id="DejaVuSans-100"/>
      <path id="DejaVuSans-32"/>
      <path d="M 19.671875 64.796875 
L 19.671875 37.40625 
L 32.078125 37.40625 
Q 38.96875 37.40625 42.71875 40.96875 
Q 46.484375 44.53125 46.484375 51.125 
Q 46.484375 57.671875 42.71875 61.234375 
Q 38.96875 64.796875 32.078125 64.796875 
z
M 9.8125 72.90625 
L 32.078125 72.90625 
Q 44.34375 72.90625 50.609375 67.359375 
Q 56.890625 61.8125 56.890625 51.125 
Q 56.890625 40.328125 50.609375 34.8125 
Q 44.34375 29.296875 32.078125 29.296875 
L 19.671875 29.296875 
L 19.671875 0 
L 9.8125 0 
z
" id="DejaVuSans-80"/>
      <path d="M 30.609375 48.390625 
Q 23.390625 48.390625 19.1875 42.75 
Q 14.984375 37.109375 14.984375 27.296875 
Q 14.984375 17.484375 19.15625 11.84375 
Q 23.34375 6.203125 30.609375 6.203125 
Q 37.796875 6.203125 41.984375 11.859375 
Q 46.1875 17.53125 46.1875 27.296875 
Q 46.1875 37.015625 41.984375 42.703125 
Q 37.796875 48.390625 30.609375 48.390625 
z
M 30.609375 56 
Q 42.328125 56 49.015625 48.375 
Q 55.71875 40.765625 55.71875 27.296875 
Q 55.71875 13.875 49.015625 6.21875 
Q 42.328125 -1.421875 30.609375 -1.421875 
Q 18.84375 -1.421875 12.171875 6.21875 
Q 5.515625 13.875 5.515625 27.296875 
Q 5.515625 40.765625 12.171875 48.375 
Q 18.84375 56 30.609375 56 
z
" id="DejaVuSans-111"/>
      <path d="M 44.28125 53.078125 
L 44.28125 44.578125 
Q 40.484375 46.53125 36.375 47.5 
Q 32.28125 48.484375 27.875 48.484375 
Q 21.1875 48.484375 17.84375 46.4375 
Q 14.5 44.390625 14.5 40.28125 
Q 14.5 37.15625 16.890625 35.375 
Q 19.28125 33.59375 26.515625 31.984375 
L 29.59375 31.296875 
Q 39.15625 29.25 43.1875 25.515625 
Q 47.21875 21.78125 47.21875 15.09375 
Q 47.21875 7.46875 41.1875 3.015625 
Q 35.15625 -1.421875 24.609375 -1.421875 
Q 20.21875 -1.421875 15.453125 -0.5625 
Q 10.6875 0.296875 5.421875 2 
L 5.421875 11.28125 
Q 10.40625 8.6875 15.234375 7.390625 
Q 20.0625 6.109375 24.8125 6.109375 
Q 31.15625 6.109375 34.5625 8.28125 
Q 37.984375 10.453125 37.984375 14.40625 
Q 37.984375 18.0625 35.515625 20.015625 
Q 33.0625 21.96875 24.703125 23.78125 
L 21.578125 24.515625 
Q 13.234375 26.265625 9.515625 29.90625 
Q 5.8125 33.546875 5.8125 39.890625 
Q 5.8125 47.609375 11.28125 51.796875 
Q 16.75 56 26.8125 56 
Q 31.78125 56 36.171875 55.265625 
Q 40.578125 54.546875 44.28125 53.078125 
z
" id="DejaVuSans-115"/>
      <path d="M 9.421875 54.6875 
L 18.40625 54.6875 
L 18.40625 0 
L 9.421875 0 
z
M 9.421875 75.984375 
L 18.40625 75.984375 
L 18.40625 64.59375 
L 9.421875 64.59375 
z
" id="DejaVuSans-105"/>
      <path d="M 18.3125 70.21875 
L 18.3125 54.6875 
L 36.8125 54.6875 
L 36.8125 47.703125 
L 18.3125 47.703125 
L 18.3125 18.015625 
Q 18.3125 11.328125 20.140625 9.421875 
Q 21.96875 7.515625 27.59375 7.515625 
L 36.8125 7.515625 
L 36.8125 0 
L 27.59375 0 
Q 17.1875 0 13.234375 3.875 
Q 9.28125 7.765625 9.28125 18.015625 
L 9.28125 47.703125 
L 2.6875 47.703125 
L 2.6875 54.6875 
L 9.28125 54.6875 
L 9.28125 70.21875 
z
" id="DejaVuSans-116"/>
      <path d="M 54.890625 33.015625 
L 54.890625 0 
L 45.90625 0 
L 45.90625 32.71875 
Q 45.90625 40.484375 42.875 44.328125 
Q 39.84375 48.1875 33.796875 48.1875 
Q 26.515625 48.1875 22.3125 43.546875 
Q 18.109375 38.921875 18.109375 30.90625 
L 18.109375 0 
L 9.078125 0 
L 9.078125 54.6875 
L 18.109375 54.6875 
L 18.109375 46.1875 
Q 21.34375 51.125 25.703125 53.5625 
Q 30.078125 56 35.796875 56 
Q 45.21875 56 50.046875 50.171875 
Q 54.890625 44.34375 54.890625 33.015625 
z
" id="DejaVuSans-110"/>
     </defs>
     <g transform="translate(484.095156 300.330997)scale(0.1 -0.1)">
      <use xlink:href="#DejaVuSans-82"/>
      <use x="69.419922" xlink:href="#DejaVuSans-101"/>
      <use x="130.943359" xlink:href="#DejaVuSans-97"/>
      <use x="192.222656" xlink:href="#DejaVuSans-100"/>
      <use x="255.699219" xlink:href="#DejaVuSans-32"/>
      <use x="287.486328" xlink:href="#DejaVuSans-80"/>
      <use x="347.742188" xlink:href="#DejaVuSans-111"/>
      <use x="408.923828" xlink:href="#DejaVuSans-115"/>
      <use x="461.023438" xlink:href="#DejaVuSans-105"/>
      <use x="488.806641" xlink:href="#DejaVuSans-116"/>
      <use x="528.015625" xlink:href="#DejaVuSans-105"/>
      <use x="555.798828" xlink:href="#DejaVuSans-111"/>
      <use x="616.980469" xlink:href="#DejaVuSans-110"/>
     </g>
    </g>
   </g>
   <g id="matplotlib.axis_2">
    <g id="ytick_1">
     <g id="line2d_1">
      <path clip-path="url(#pc55e5ad329)" d="M 43.148125 273.99006 
L 993.078125 273.99006 
" style="fill:none;stroke:#dedede;stroke-linecap:square;"/>
     </g>
     <g id="text_10">
      <!-- 0 -->
      <g transform="translate(31.058125 277.029435)scale(0.08 -0.08)">
       <use xlink:href="#DejaVuSans-48"/>
      </g>
     </g>
    </g>
    <g id="ytick_2">
     <g id="line2d_2">
      <path clip-path="url(#pc55e5ad329)" d="M 43.148125 225.48862 
L 993.078125 225.48862 
" style="fill:none;stroke:#dedede;stroke-linecap:square;"/>
     </g>
     <g id="text_11">
      <!-- 20 -->
      <g transform="translate(25.968125 228.527995)scale(0.08 -0.08)">
       <use xlink:href="#DejaVuSans-50"/>
       <use x="63.623047" xlink:href="#DejaVuSans-48"/>
      </g>
     </g>
    </g>
    <g id="ytick_3">
     <g id="line2d_3">
      <path clip-path="url(#pc55e5ad329)" d="M 43.148125 176.98718 
L 993.078125 176.98718 
" style="fill:none;stroke:#dedede;stroke-linecap:square;"/>
     </g>
     <g id="text_12">
      <!-- 40 -->
      <g transform="translate(25.968125 180.026555)scale(0.08 -0.08)">
       <use xlink:href="#DejaVuSans-52"/>
       <use x="63.623047" xlink:href="#DejaVuSans-48"/>
      </g>
     </g>
    </g>
    <g id="ytick_4">
     <g id="line2d_4">
      <path clip-path="url(#pc55e5ad329)" d="M 43.148125 128.48574 
L 993.078125 128.48574 
" style="fill:none;stroke:#dedede;stroke-linecap:square;"/>
     </g>
     <g id="text_13">
      <!-- 60 -->
      <g transform="translate(25.968125 131.525115)scale(0.08 -0.08)">
       <use xlink:href="#DejaVuSans-54"/>
       <use x="63.623047" xlink:href="#DejaVuSans-48"/>
      </g>
     </g>
    </g>
    <g id="ytick_5">
     <g id="line2d_5">
      <path clip-path="url(#pc55e5ad329)" d="M 43.148125 79.9843 
L 993.078125 79.9843 
" style="fill:none;stroke:#dedede;stroke-linecap:square;"/>
     </g>
     <g id="text_14">
      <!-- 80 -->
      <g transform="translate(25.968125 83.023675)scale(0.08 -0.08)">
       <use xlink:href="#DejaVuSans-56"/>
       <use x="63.623047" xlink:href="#DejaVuSans-48"/>
      </g>
     </g>
    </g>
    <g id="ytick_6">
     <g id="line2d_6">
      <path clip-path="url(#pc55e5ad329)" d="M 43.148125 31.48286 
L 993.078125 31.48286 
" style="fill:none;stroke:#dedede;stroke-linecap:square;"/>
     </g>
     <g id="text_15">
      <!-- 100 -->
      <g transform="translate(20.878125 34.522235)scale(0.08 -0.08)">
       <use xlink:href="#DejaVuSans-49"/>
       <use x="63.623047" xlink:href="#DejaVuSans-48"/>
       <use x="127.246094" xlink:href="#DejaVuSans-48"/>
      </g>
     </g>
    </g>
    <g id="text_16">
     <!-- R2 After filtering: Base Content Percent -->
     <defs>
      <path d="M 34.1875 63.1875 
L 20.796875 26.90625 
L 47.609375 26.90625 
z
M 28.609375 72.90625 
L 39.796875 72.90625 
L 67.578125 0 
L 57.328125 0 
L 50.6875 18.703125 
L 17.828125 18.703125 
L 11.1875 0 
L 0.78125 0 
z
" id="DejaVuSans-65"/>
      <path d="M 37.109375 75.984375 
L 37.109375 68.5 
L 28.515625 68.5 
Q 23.6875 68.5 21.796875 66.546875 
Q 19.921875 64.59375 19.921875 59.515625 
L 19.921875 54.6875 
L 34.71875 54.6875 
L 34.71875 47.703125 
L 19.921875 47.703125 
L 19.921875 0 
L 10.890625 0 
L 10.890625 47.703125 
L 2.296875 47.703125 
L 2.296875 54.6875 
L 10.890625 54.6875 
L 10.890625 58.5 
Q 10.890625 67.625 15.140625 71.796875 
Q 19.390625 75.984375 28.609375 75.984375 
z
" id="DejaVuSans-102"/>
      <path d="M 41.109375 46.296875 
Q 39.59375 47.171875 37.8125 47.578125 
Q 36.03125 48 33.890625 48 
Q 26.265625 48 22.1875 43.046875 
Q 18.109375 38.09375 18.109375 28.8125 
L 18.109375 0 
L 9.078125 0 
L 9.078125 54.6875 
L 18.109375 54.6875 
L 18.109375 46.1875 
Q 20.953125 51.171875 25.484375 53.578125 
Q 30.03125 56 36.53125 56 
Q 37.453125 56 38.578125 55.875 
Q 39.703125 55.765625 41.0625 55.515625 
z
" id="DejaVuSans-114"/>
      <path d="M 9.421875 75.984375 
L 18.40625 75.984375 
L 18.40625 0 
L 9.421875 0 
z
" id="DejaVuSans-108"/>
      <path d="M 45.40625 27.984375 
Q 45.40625 37.75 41.375 43.109375 
Q 37.359375 48.484375 30.078125 48.484375 
Q 22.859375 48.484375 18.828125 43.109375 
Q 14.796875 37.75 14.796875 27.984375 
Q 14.796875 18.265625 18.828125 12.890625 
Q 22.859375 7.515625 30.078125 7.515625 
Q 37.359375 7.515625 41.375 12.890625 
Q 45.40625 18.265625 45.40625 27.984375 
z
M 54.390625 6.78125 
Q 54.390625 -7.171875 48.1875 -13.984375 
Q 42 -20.796875 29.203125 -20.796875 
Q 24.46875 -20.796875 20.265625 -20.09375 
Q 16.0625 -19.390625 12.109375 -17.921875 
L 12.109375 -9.1875 
Q 16.0625 -11.328125 19.921875 -12.34375 
Q 23.78125 -13.375 27.78125 -13.375 
Q 36.625 -13.375 41.015625 -8.765625 
Q 45.40625 -4.15625 45.40625 5.171875 
L 45.40625 9.625 
Q 42.625 4.78125 38.28125 2.390625 
Q 33.9375 0 27.875 0 
Q 17.828125 0 11.671875 7.65625 
Q 5.515625 15.328125 5.515625 27.984375 
Q 5.515625 40.671875 11.671875 48.328125 
Q 17.828125 56 27.875 56 
Q 33.9375 56 38.28125 53.609375 
Q 42.625 51.21875 45.40625 46.390625 
L 45.40625 54.6875 
L 54.390625 54.6875 
z
" id="DejaVuSans-103"/>
      <path d="M 11.71875 12.40625 
L 22.015625 12.40625 
L 22.015625 0 
L 11.71875 0 
z
M 11.71875 51.703125 
L 22.015625 51.703125 
L 22.015625 39.3125 
L 11.71875 39.3125 
z
" id="DejaVuSans-58"/>
      <path d="M 19.671875 34.8125 
L 19.671875 8.109375 
L 35.5 8.109375 
Q 43.453125 8.109375 47.28125 11.40625 
Q 51.125 14.703125 51.125 21.484375 
Q 51.125 28.328125 47.28125 31.5625 
Q 43.453125 34.8125 35.5 34.8125 
z
M 19.671875 64.796875 
L 19.671875 42.828125 
L 34.28125 42.828125 
Q 41.5 42.828125 45.03125 45.53125 
Q 48.578125 48.25 48.578125 53.8125 
Q 48.578125 59.328125 45.03125 62.0625 
Q 41.5 64.796875 34.28125 64.796875 
z
M 9.8125 72.90625 
L 35.015625 72.90625 
Q 46.296875 72.90625 52.390625 68.21875 
Q 58.5 63.53125 58.5 54.890625 
Q 58.5 48.1875 55.375 44.234375 
Q 52.25 40.28125 46.1875 39.3125 
Q 53.46875 37.75 57.5 32.78125 
Q 61.53125 27.828125 61.53125 20.40625 
Q 61.53125 10.640625 54.890625 5.3125 
Q 48.25 0 35.984375 0 
L 9.8125 0 
z
" id="DejaVuSans-66"/>
      <path d="M 64.40625 67.28125 
L 64.40625 56.890625 
Q 59.421875 61.53125 53.78125 63.8125 
Q 48.140625 66.109375 41.796875 66.109375 
Q 29.296875 66.109375 22.65625 58.46875 
Q 16.015625 50.828125 16.015625 36.375 
Q 16.015625 21.96875 22.65625 14.328125 
Q 29.296875 6.6875 41.796875 6.6875 
Q 48.140625 6.6875 53.78125 8.984375 
Q 59.421875 11.28125 64.40625 15.921875 
L 64.40625 5.609375 
Q 59.234375 2.09375 53.4375 0.328125 
Q 47.65625 -1.421875 41.21875 -1.421875 
Q 24.65625 -1.421875 15.125 8.703125 
Q 5.609375 18.84375 5.609375 36.375 
Q 5.609375 53.953125 15.125 64.078125 
Q 24.65625 74.21875 41.21875 74.21875 
Q 47.75 74.21875 53.53125 72.484375 
Q 59.328125 70.75 64.40625 67.28125 
z
" id="DejaVuSans-67"/>
      <path d="M 48.78125 52.59375 
L 48.78125 44.1875 
Q 44.96875 46.296875 41.140625 47.34375 
Q 37.3125 48.390625 33.40625 48.390625 
Q 24.65625 48.390625 19.8125 42.84375 
Q 14.984375 37.3125 14.984375 27.296875 
Q 14.984375 17.28125 19.8125 11.734375 
Q 24.65625 6.203125 33.40625 6.203125 
Q 37.3125 6.203125 41.140625 7.25 
Q 44.96875 8.296875 48.78125 10.40625 
L 48.78125 2.09375 
Q 45.015625 0.34375 40.984375 -0.53125 
Q 36.96875 -1.421875 32.421875 -1.421875 
Q 20.0625 -1.421875 12.78125 6.34375 
Q 5.515625 14.109375 5.515625 27.296875 
Q 5.515625 40.671875 12.859375 48.328125 
Q 20.21875 56 33.015625 56 
Q 37.15625 56 41.109375 55.140625 
Q 45.0625 54.296875 48.78125 52.59375 
z
" id="DejaVuSans-99"/>
     </defs>
     <g transform="translate(14.798438 251.812241)rotate(-90)scale(0.1 -0.1)">
      <use xlink:href="#DejaVuSans-82"/>
      <use x="69.482422" xlink:href="#DejaVuSans-50"/>
      <use x="133.105469" xlink:href="#DejaVuSans-32"/>
      <use x="164.892578" xlink:href="#DejaVuSans-65"/>
      <use x="233.253906" xlink:href="#DejaVuSans-102"/>
      <use x="268.443359" xlink:href="#DejaVuSans-116"/>
      <use x="307.652344" xlink:href="#DejaVuSans-101"/>
      <use x="369.175781" xlink:href="#DejaVuSans-114"/>
      <use x="410.289062" xlink:href="#DejaVuSans-32"/>
      <use x="442.076172" xlink:href="#DejaVuSans-102"/>
      <use x="477.28125" xlink:href="#DejaVuSans-105"/>
      <use x="505.064453" xlink:href="#DejaVuSans-108"/>
      <use x="532.847656" xlink:href="#DejaVuSans-116"/>
      <use x="572.056641" xlink:href="#DejaVuSans-101"/>
      <use x="633.580078" xlink:href="#DejaVuSans-114"/>
      <use x="674.693359" xlink:href="#DejaVuSans-105"/>
      <use x="702.476562" xlink:href="#DejaVuSans-110"/>
      <use x="765.855469" xlink:href="#DejaVuSans-103"/>
      <use x="829.332031" xlink:href="#DejaVuSans-58"/>
      <use x="863.023438" xlink:href="#DejaVuSans-32"/>
      <use x="894.810547" xlink:href="#DejaVuSans-66"/>
      <use x="963.414062" xlink:href="#DejaVuSans-97"/>
      <use x="1024.693359" xlink:href="#DejaVuSans-115"/>
      <use x="1076.792969" xlink:href="#DejaVuSans-101"/>
      <use x="1138.316406" xlink:href="#DejaVuSans-32"/>
      <use x="1170.103516" xlink:href="#DejaVuSans-67"/>
      <use x="1239.927734" xlink:href="#DejaVuSans-111"/>
      <use x="1301.109375" xlink:href="#DejaVuSans-110"/>
      <use x="1364.488281" xlink:href="#DejaVuSans-116"/>
      <use x="1403.697266" xlink:href="#DejaVuSans-101"/>
      <use x="1465.220703" xlink:href="#DejaVuSans-110"/>
      <use x="1528.599609" xlink:href="#DejaVuSans-116"/>
      <use x="1567.808594" xlink:href="#DejaVuSans-32"/>
      <use x="1599.595703" xlink:href="#DejaVuSans-80"/>
      <use x="1659.851562" xlink:href="#DejaVuSans-101"/>
      <use x="1721.375" xlink:href="#DejaVuSans-114"/>
      <use x="1762.457031" xlink:href="#DejaVuSans-99"/>
      <use x="1817.4375" xlink:href="#DejaVuSans-101"/>
      <use x="1878.960938" xlink:href="#DejaVuSans-110"/>
      <use x="1942.339844" xlink:href="#DejaVuSans-116"/>
     </g>
    </g>
   </g>
   <g id="line2d_7">
    <path clip-path="url(#pc55e5ad329)" d="M 86.326761 128.208069 
L 92.122551 165.380543 
L 97.918342 164.745902 
L 103.714132 169.343111 
L 109.509922 159.990335 
L 115.305712 166.996611 
L 121.101502 170.620153 
L 126.897292 163.709183 
L 132.693082 163.250602 
L 138.488872 168.393452 
L 144.284663 156.044986 
L 150.080453 156.125256 
L 155.876243 158.824603 
L 161.672033 159.56328 
L 167.467823 160.532581 
L 173.263613 160.869909 
L 179.059403 160.508088 
L 184.855193 160.90192 
L 196.446774 160.155725 
L 202.242564 160.603636 
L 213.834144 161.167708 
L 219.629934 162.003873 
L 225.425724 161.65636 
L 231.221514 161.449016 
L 237.017304 162.425108 
L 242.813094 161.758455 
L 248.608885 161.329945 
L 254.404675 161.921178 
L 260.200465 162.021091 
L 265.996255 161.433981 
L 271.792045 161.847456 
L 277.587835 161.9156 
L 283.383625 161.325338 
L 289.179415 162.012603 
L 294.975206 161.14758 
L 300.770996 161.706316 
L 306.566786 161.668243 
L 312.362576 161.5094 
L 318.158366 160.912105 
L 323.954156 162.440871 
L 329.749946 161.693463 
L 335.545736 162.064499 
L 341.341526 161.84018 
L 347.137317 161.994415 
L 352.933107 161.608586 
L 358.728897 162.245167 
L 364.524687 161.057125 
L 370.320477 161.737842 
L 376.116267 161.479572 
L 381.912057 161.797257 
L 387.707847 161.300117 
L 393.503638 162.344595 
L 399.299428 161.317335 
L 405.095218 161.919723 
L 410.891008 161.615861 
L 416.686798 162.33732 
L 422.482588 160.953574 
L 428.278378 161.643749 
L 434.074168 161.263741 
L 445.665749 161.798227 
L 451.461539 161.350558 
L 457.257329 161.545049 
L 463.053119 162.212429 
L 468.848909 161.652237 
L 474.644699 161.583123 
L 480.440489 161.353226 
L 486.236279 161.658542 
L 492.032069 161.288961 
L 497.82786 161.554507 
L 503.62365 161.198264 
L 509.41944 161.766216 
L 515.21523 161.889652 
L 526.80681 161.219604 
L 532.6026 161.843333 
L 538.39839 161.65927 
L 544.194181 161.338918 
L 549.989971 161.390572 
L 555.785761 162.024001 
L 561.581551 162.009208 
L 567.377341 161.640112 
L 573.173131 161.42331 
L 584.764711 161.853033 
L 590.560501 161.416763 
L 596.356292 161.223727 
L 602.152082 161.961434 
L 607.947872 161.479572 
L 613.743662 161.392512 
L 619.539452 161.686431 
L 631.131032 161.613679 
L 636.926822 161.968709 
L 648.518403 161.507703 
L 654.314193 161.844545 
L 660.109983 161.797984 
L 665.905773 161.39518 
L 671.701563 162.305309 
L 677.497353 161.932576 
L 683.293143 161.687643 
L 689.088933 161.824417 
L 700.680514 161.65636 
L 706.476304 162.09457 
L 712.272094 161.279019 
L 718.067884 161.460657 
L 723.863674 161.204326 
L 729.659464 161.633564 
L 735.455254 161.108294 
L 741.251044 161.945671 
L 747.046835 162.105968 
L 752.842625 161.157523 
L 758.638415 161.622651 
L 764.434205 162.658642 
L 770.229995 161.709469 
L 776.025785 162.058922 
L 781.821575 161.513523 
L 787.617365 161.662423 
L 793.413156 161.542381 
L 799.208946 161.946398 
L 805.004736 161.269803 
L 810.800526 162.225524 
L 828.187896 161.876556 
L 833.983686 162.389944 
L 839.779476 161.690553 
L 845.575267 162.263113 
L 857.166847 161.704376 
L 862.962637 162.071775 
L 868.758427 161.701709 
L 874.554217 161.846728 
L 886.145797 161.831208 
L 891.941587 161.550627 
L 897.737378 161.935486 
L 903.533168 162.036611 
L 909.328958 161.797257 
L 920.920538 161.837755 
L 926.716328 161.055184 
L 932.512118 162.031033 
L 938.307908 161.41458 
L 944.103699 161.33528 
L 949.899489 163.567317 
L 949.899489 163.567317 
" style="fill:none;stroke:#7cb5ec;stroke-linecap:square;"/>
   </g>
   <g id="line2d_8">
    <path clip-path="url(#pc55e5ad329)" d="M 86.326761 128.169753 
L 92.122551 165.480213 
L 97.918342 164.795616 
L 103.714132 169.32953 
L 109.509922 160.004401 
L 115.305712 166.986668 
L 121.101502 170.67787 
L 126.897292 163.735859 
L 132.693082 163.247935 
L 138.488872 168.368232 
L 144.284663 156.02122 
L 150.080453 156.20019 
L 155.876243 158.884503 
L 161.672033 159.618814 
L 167.467823 160.618429 
L 173.263613 160.903132 
L 179.059403 160.509058 
L 184.855193 160.97734 
L 196.446774 160.168821 
L 202.242564 160.624977 
L 213.834144 161.211359 
L 219.629934 162.070805 
L 231.221514 161.435193 
L 237.017304 162.428988 
L 242.813094 161.804047 
L 248.608885 161.352013 
L 254.404675 161.995627 
L 260.200465 161.986412 
L 265.996255 161.476662 
L 271.792045 161.81981 
L 277.587835 161.975257 
L 283.383625 161.409488 
L 289.179415 162.145739 
L 294.975206 161.177166 
L 300.770996 161.735417 
L 312.362576 161.625076 
L 318.158366 160.961092 
L 323.954156 162.493737 
L 329.749946 161.735175 
L 335.545736 162.070805 
L 341.341526 161.852306 
L 347.137317 161.972347 
L 352.933107 161.65927 
L 358.728897 162.324467 
L 364.524687 161.141517 
L 370.320477 161.805017 
L 376.116267 161.604221 
L 381.912057 161.849153 
L 387.707847 161.320972 
L 393.503638 162.444266 
L 399.299428 161.369959 
L 405.095218 161.884317 
L 410.891008 161.743905 
L 416.686798 162.361813 
L 422.482588 161.094713 
L 428.278378 161.698556 
L 434.074168 161.334553 
L 445.665749 161.811079 
L 451.461539 161.404152 
L 457.257329 161.597673 
L 463.053119 162.249532 
L 468.848909 161.720382 
L 480.440489 161.430343 
L 486.236279 161.700981 
L 492.032069 161.32849 
L 497.82786 161.581183 
L 503.62365 161.249675 
L 509.41944 161.764276 
L 515.21523 161.971862 
L 526.80681 161.204811 
L 532.6026 161.903475 
L 544.194181 161.378689 
L 549.989971 161.408032 
L 555.785761 162.028851 
L 561.581551 162.00654 
L 573.173131 161.466962 
L 578.968921 161.651025 
L 584.764711 161.969194 
L 590.560501 161.426948 
L 596.356292 161.24822 
L 602.152082 162.010905 
L 607.947872 161.504065 
L 613.743662 161.493395 
L 619.539452 161.767186 
L 631.131032 161.670183 
L 636.926822 162.06838 
L 648.518403 161.599128 
L 654.314193 161.861036 
L 660.109983 161.771308 
L 665.905773 161.390814 
L 671.701563 162.368846 
L 677.497353 161.950764 
L 683.293143 161.769611 
L 689.088933 161.910022 
L 700.680514 161.684248 
L 706.476304 162.174113 
L 712.272094 161.328005 
L 718.067884 161.547474 
L 723.863674 161.250403 
L 729.659464 161.660967 
L 735.455254 161.158735 
L 741.251044 161.98326 
L 747.046835 162.144284 
L 752.842625 161.224697 
L 758.638415 161.701224 
L 764.434205 162.734062 
L 770.229995 161.784646 
L 776.025785 162.110576 
L 781.821575 161.579243 
L 787.617365 161.692493 
L 793.413156 161.612951 
L 799.208946 161.964101 
L 805.004736 161.39615 
L 810.800526 162.317434 
L 816.596316 162.134099 
L 822.392106 161.811079 
L 828.187896 161.972832 
L 833.983686 162.355993 
L 839.779476 161.792891 
L 845.575267 162.200061 
L 851.371057 162.049949 
L 857.166847 161.719654 
L 862.962637 162.133371 
L 868.758427 161.736387 
L 874.554217 161.903232 
L 886.145797 161.82563 
L 891.941587 161.606161 
L 897.737378 161.986412 
L 903.533168 162.094328 
L 909.328958 161.843818 
L 920.920538 161.884074 
L 926.716328 161.139577 
L 932.512118 162.109848 
L 938.307908 161.50067 
L 944.103699 161.395907 
L 949.899489 163.52803 
L 949.899489 163.52803 
" style="fill:none;stroke:#434348;stroke-linecap:square;"/>
   </g>
   <g id="line2d_9">
    <path clip-path="url(#pc55e5ad329)" d="M 86.326761 127.674068 
L 92.122551 183.826368 
L 97.918342 175.438772 
L 103.714132 178.786341 
L 109.509922 176.018849 
L 115.305712 179.787168 
L 121.101502 180.754287 
L 126.897292 175.081316 
L 132.693082 174.190829 
L 138.488872 181.118775 
L 144.284663 164.092345 
L 150.080453 165.484578 
L 155.876243 168.952916 
L 161.672033 170.213226 
L 167.467823 170.598328 
L 173.263613 171.201201 
L 179.059403 170.790394 
L 184.855193 171.610553 
L 190.650983 171.085525 
L 196.446774 170.923772 
L 202.242564 171.464321 
L 208.038354 171.683305 
L 213.834144 172.771435 
L 219.629934 173.621423 
L 225.425724 173.036738 
L 231.221514 174.193012 
L 237.017304 173.899336 
L 242.813094 173.000604 
L 248.608885 172.843702 
L 254.404675 173.251357 
L 260.200465 173.11628 
L 265.996255 172.814116 
L 277.587835 173.591352 
L 283.383625 173.242384 
L 289.179415 173.678897 
L 294.975206 173.252812 
L 300.770996 173.290885 
L 306.566786 173.727641 
L 312.362576 173.177149 
L 318.158366 172.750337 
L 323.954156 173.909521 
L 329.749946 172.625203 
L 335.545736 173.872418 
L 341.341526 173.664104 
L 347.137317 173.79433 
L 352.933107 173.608085 
L 358.728897 173.989306 
L 364.524687 172.654546 
L 370.320477 173.61924 
L 387.707847 173.396618 
L 393.503638 174.047508 
L 399.299428 173.128405 
L 405.095218 173.37455 
L 410.891008 173.431782 
L 416.686798 173.70242 
L 422.482588 172.615745 
L 428.278378 173.842104 
L 434.074168 173.258874 
L 439.869958 173.857867 
L 445.665749 173.955112 
L 451.461539 173.826826 
L 457.257329 173.497016 
L 463.053119 174.517972 
L 468.848909 173.385948 
L 474.644699 173.487559 
L 480.440489 173.339144 
L 486.236279 173.307861 
L 492.032069 173.137621 
L 497.82786 173.926254 
L 503.62365 173.637186 
L 509.41944 173.887938 
L 515.21523 173.766684 
L 521.01102 173.368245 
L 526.80681 173.137136 
L 532.6026 173.805728 
L 538.39839 173.324109 
L 544.194181 173.792633 
L 549.989971 173.535333 
L 555.785761 173.781235 
L 561.581551 173.620453 
L 567.377341 174.366162 
L 573.173131 173.616087 
L 578.968921 174.47432 
L 584.764711 174.47238 
L 590.560501 174.110317 
L 596.356292 173.252812 
L 602.152082 174.113227 
L 607.947872 173.216921 
L 619.539452 174.260429 
L 625.335242 174.483293 
L 631.131032 173.768867 
L 636.926822 174.22284 
L 642.722612 173.313196 
L 648.518403 174.03805 
L 654.314193 173.736613 
L 660.109983 173.648826 
L 665.905773 173.311256 
L 671.701563 174.376105 
L 677.497353 173.741464 
L 683.293143 174.160274 
L 689.088933 174.2905 
L 694.884724 173.998764 
L 700.680514 173.950747 
L 706.476304 174.307475 
L 712.272094 173.279487 
L 718.067884 174.20635 
L 723.863674 173.619483 
L 729.659464 174.019377 
L 735.455254 173.540183 
L 741.251044 174.561865 
L 752.842625 173.947837 
L 758.638415 173.927709 
L 764.434205 174.480141 
L 770.229995 173.623848 
L 776.025785 174.539797 
L 781.821575 173.527815 
L 787.617365 174.089704 
L 793.413156 174.188647 
L 799.208946 173.828039 
L 805.004736 173.721821 
L 810.800526 174.502209 
L 816.596316 173.573649 
L 822.392106 174.156636 
L 828.187896 173.95487 
L 833.983686 174.303595 
L 839.779476 173.938137 
L 845.575267 174.405206 
L 851.371057 173.843074 
L 857.166847 174.183554 
L 862.962637 174.27886 
L 868.758427 173.730793 
L 874.554217 173.560311 
L 880.350007 174.20732 
L 886.145797 174.000461 
L 897.737378 173.913401 
L 903.533168 174.486203 
L 909.328958 173.674289 
L 915.124748 174.048963 
L 920.920538 173.182727 
L 926.716328 173.401469 
L 932.512118 174.341184 
L 938.307908 173.645188 
L 944.103699 173.646401 
L 949.899489 175.834543 
L 949.899489 175.834543 
" style="fill:none;stroke:#90ed7d;stroke-linecap:square;"/>
   </g>
   <g id="line2d_10">
    <path clip-path="url(#pc55e5ad329)" d="M 86.326761 127.835336 
L 92.122551 183.754101 
L 97.918342 175.487515 
L 103.714132 178.702191 
L 109.509922 176.160473 
L 115.305712 179.968564 
L 121.101502 180.770535 
L 126.897292 175.327218 
L 132.693082 174.357432 
L 138.488872 181.190557 
L 144.284663 164.228391 
L 150.080453 165.470271 
L 155.876243 168.810807 
L 161.672033 170.047109 
L 167.467823 170.556374 
L 173.263613 171.325607 
L 179.059403 170.853688 
L 184.855193 171.59382 
L 190.650983 171.168705 
L 196.446774 171.203626 
L 202.242564 171.471354 
L 208.038354 171.602793 
L 213.834144 172.696985 
L 219.629934 173.517872 
L 225.425724 173.187577 
L 231.221514 174.090674 
L 237.017304 173.890363 
L 242.813094 172.970048 
L 248.608885 172.892688 
L 254.404675 173.343267 
L 260.200465 173.138106 
L 265.996255 172.796656 
L 271.792045 173.29622 
L 277.587835 173.565646 
L 283.383625 173.077964 
L 289.179415 173.725216 
L 294.975206 173.27197 
L 300.770996 173.321926 
L 306.566786 173.949535 
L 312.362576 173.290158 
L 318.158366 172.832304 
L 323.954156 173.783902 
L 329.749946 172.544206 
L 335.545736 173.749466 
L 352.933107 173.701692 
L 358.728897 173.920676 
L 364.524687 172.674432 
L 370.320477 173.689325 
L 376.116267 173.512779 
L 381.912057 173.683989 
L 387.707847 173.441482 
L 393.503638 174.156878 
L 399.299428 173.337447 
L 405.095218 173.372368 
L 416.686798 173.673562 
L 422.482588 172.714446 
L 428.278378 173.965783 
L 434.074168 173.287733 
L 439.869958 173.935469 
L 445.665749 174.1125 
L 451.461539 174.022772 
L 457.257329 173.46258 
L 463.053119 174.533735 
L 468.848909 173.483678 
L 474.644699 173.52345 
L 480.440489 173.310771 
L 486.236279 173.507444 
L 492.032069 173.017095 
L 497.82786 173.983728 
L 503.62365 173.686172 
L 509.41944 173.982273 
L 515.21523 173.851077 
L 521.01102 173.268575 
L 526.80681 173.100032 
L 532.6026 173.891091 
L 538.39839 173.327019 
L 544.194181 173.841377 
L 549.989971 173.578014 
L 555.785761 173.78657 
L 561.581551 173.725943 
L 567.377341 174.412724 
L 573.173131 173.690295 
L 578.968921 174.452737 
L 584.764711 174.573021 
L 590.560501 173.983243 
L 596.356292 173.216678 
L 602.152082 174.12608 
L 607.947872 173.521025 
L 613.743662 173.761349 
L 619.539452 174.224053 
L 625.335242 174.474563 
L 631.131032 173.828281 
L 636.926822 174.184282 
L 642.722612 173.316349 
L 648.518403 174.210958 
L 654.314193 173.828281 
L 660.109983 173.807668 
L 665.905773 173.395163 
L 671.701563 174.552408 
L 677.497353 173.783175 
L 689.088933 174.460497 
L 694.884724 174.174339 
L 700.680514 174.052358 
L 706.476304 174.365677 
L 712.272094 173.239716 
L 718.067884 174.324936 
L 723.863674 173.707755 
L 729.659464 173.925042 
L 735.455254 173.725458 
L 741.251044 174.687484 
L 747.046835 174.427031 
L 752.842625 173.941775 
L 758.638415 174.036595 
L 764.434205 174.668326 
L 770.229995 173.695872 
L 776.025785 174.5575 
L 781.821575 173.37746 
L 787.617365 174.147663 
L 793.413156 174.201257 
L 799.208946 173.714788 
L 805.004736 173.722306 
L 810.800526 174.380713 
L 816.596316 173.607357 
L 822.392106 174.245636 
L 828.187896 174.022772 
L 833.983686 174.334394 
L 839.779476 173.989549 
L 845.575267 174.543435 
L 851.371057 173.77881 
L 857.166847 174.457587 
L 862.962637 174.370285 
L 868.758427 173.808881 
L 874.554217 173.547458 
L 880.350007 174.316691 
L 886.145797 173.919949 
L 891.941587 174.090189 
L 897.737378 174.015012 
L 903.533168 174.646743 
L 909.328958 173.748496 
L 915.124748 174.282255 
L 920.920538 173.240201 
L 926.716328 173.512052 
L 932.512118 174.339729 
L 938.307908 173.69951 
L 944.103699 173.810336 
L 949.899489 175.932031 
L 949.899489 175.932031 
" style="fill:none;stroke:#f7a35c;stroke-linecap:square;"/>
   </g>
   <g id="line2d_11">
    <path clip-path="url(#pc55e5ad329)" d="M 43.148125 273.99006 
L 993.078125 273.99006 
" style="fill:none;stroke:#dedede;stroke-linecap:square;stroke-width:2;"/>
   </g>
   <g id="text_17">
    <!-- Fastp: Read GC Content -->
    <defs>
     <path d="M 9.8125 72.90625 
L 51.703125 72.90625 
L 51.703125 64.59375 
L 19.671875 64.59375 
L 19.671875 43.109375 
L 48.578125 43.109375 
L 48.578125 34.8125 
L 19.671875 34.8125 
L 19.671875 0 
L 9.8125 0 
z
" id="DejaVuSans-70"/>
     <path d="M 18.109375 8.203125 
L 18.109375 -20.796875 
L 9.078125 -20.796875 
L 9.078125 54.6875 
L 18.109375 54.6875 
L 18.109375 46.390625 
Q 20.953125 51.265625 25.265625 53.625 
Q 29.59375 56 35.59375 56 
Q 45.5625 56 51.78125 48.09375 
Q 58.015625 40.1875 58.015625 27.296875 
Q 58.015625 14.40625 51.78125 6.484375 
Q 45.5625 -1.421875 35.59375 -1.421875 
Q 29.59375 -1.421875 25.265625 0.953125 
Q 20.953125 3.328125 18.109375 8.203125 
z
M 48.6875 27.296875 
Q 48.6875 37.203125 44.609375 42.84375 
Q 40.53125 48.484375 33.40625 48.484375 
Q 26.265625 48.484375 22.1875 42.84375 
Q 18.109375 37.203125 18.109375 27.296875 
Q 18.109375 17.390625 22.1875 11.75 
Q 26.265625 6.109375 33.40625 6.109375 
Q 40.53125 6.109375 44.609375 11.75 
Q 48.6875 17.390625 48.6875 27.296875 
z
" id="DejaVuSans-112"/>
     <path d="M 59.515625 10.40625 
L 59.515625 29.984375 
L 43.40625 29.984375 
L 43.40625 38.09375 
L 69.28125 38.09375 
L 69.28125 6.78125 
Q 63.578125 2.734375 56.6875 0.65625 
Q 49.8125 -1.421875 42 -1.421875 
Q 24.90625 -1.421875 15.25 8.5625 
Q 5.609375 18.5625 5.609375 36.375 
Q 5.609375 54.25 15.25 64.234375 
Q 24.90625 74.21875 42 74.21875 
Q 49.125 74.21875 55.546875 72.453125 
Q 61.96875 70.703125 67.390625 67.28125 
L 67.390625 56.78125 
Q 61.921875 61.421875 55.765625 63.765625 
Q 49.609375 66.109375 42.828125 66.109375 
Q 29.4375 66.109375 22.71875 58.640625 
Q 16.015625 51.171875 16.015625 36.375 
Q 16.015625 21.625 22.71875 14.15625 
Q 29.4375 6.6875 42.828125 6.6875 
Q 48.046875 6.6875 52.140625 7.59375 
Q 56.25 8.5 59.515625 10.40625 
z
" id="DejaVuSans-71"/>
    </defs>
    <g transform="translate(421.856875 19.3575)scale(0.16 -0.16)">
     <use xlink:href="#DejaVuSans-70"/>
     <use x="57.378906" xlink:href="#DejaVuSans-97"/>
     <use x="118.658203" xlink:href="#DejaVuSans-115"/>
     <use x="170.757812" xlink:href="#DejaVuSans-116"/>
     <use x="209.966797" xlink:href="#DejaVuSans-112"/>
     <use x="273.443359" xlink:href="#DejaVuSans-58"/>
     <use x="307.134766" xlink:href="#DejaVuSans-32"/>
     <use x="338.921875" xlink:href="#DejaVuSans-82"/>
     <use x="408.341797" xlink:href="#DejaVuSans-101"/>
     <use x="469.865234" xlink:href="#DejaVuSans-97"/>
     <use x="531.144531" xlink:href="#DejaVuSans-100"/>
     <use x="594.621094" xlink:href="#DejaVuSans-32"/>
     <use x="626.408203" xlink:href="#DejaVuSans-71"/>
     <use x="703.898438" xlink:href="#DejaVuSans-67"/>
     <use x="773.722656" xlink:href="#DejaVuSans-32"/>
     <use x="805.509766" xlink:href="#DejaVuSans-67"/>
     <use x="875.333984" xlink:href="#DejaVuSans-111"/>
     <use x="936.515625" xlink:href="#DejaVuSans-110"/>
     <use x="999.894531" xlink:href="#DejaVuSans-116"/>
     <use x="1039.103516" xlink:href="#DejaVuSans-101"/>
     <use x="1100.626953" xlink:href="#DejaVuSans-110"/>
     <use x="1164.005859" xlink:href="#DejaVuSans-116"/>
    </g>
   </g>
   <g id="legend_1">
    <g id="line2d_12">
     <path d="M 50.348125 315.455394 
L 66.348125 315.455394 
" style="fill:none;stroke:#7cb5ec;stroke-linecap:square;"/>
    </g>
    <g id="line2d_13"/>
    <g id="text_18">
     <!-- Hte-CJol_087-Ex1-2H-SSL-1-1-L4-clmp.r1r2_fastp -->
     <defs>
      <path d="M 9.8125 72.90625 
L 19.671875 72.90625 
L 19.671875 43.015625 
L 55.515625 43.015625 
L 55.515625 72.90625 
L 65.375 72.90625 
L 65.375 0 
L 55.515625 0 
L 55.515625 34.71875 
L 19.671875 34.71875 
L 19.671875 0 
L 9.8125 0 
z
" id="DejaVuSans-72"/>
      <path d="M 4.890625 31.390625 
L 31.203125 31.390625 
L 31.203125 23.390625 
L 4.890625 23.390625 
z
" id="DejaVuSans-45"/>
      <path d="M 9.8125 72.90625 
L 19.671875 72.90625 
L 19.671875 5.078125 
Q 19.671875 -8.109375 14.671875 -14.0625 
Q 9.671875 -20.015625 -1.421875 -20.015625 
L -5.171875 -20.015625 
L -5.171875 -11.71875 
L -2.09375 -11.71875 
Q 4.4375 -11.71875 7.125 -8.046875 
Q 9.8125 -4.390625 9.8125 5.078125 
z
" id="DejaVuSans-74"/>
      <path d="M 50.984375 -16.609375 
L 50.984375 -23.578125 
L -0.984375 -23.578125 
L -0.984375 -16.609375 
z
" id="DejaVuSans-95"/>
      <path d="M 8.203125 72.90625 
L 55.078125 72.90625 
L 55.078125 68.703125 
L 28.609375 0 
L 18.3125 0 
L 43.21875 64.59375 
L 8.203125 64.59375 
z
" id="DejaVuSans-55"/>
      <path d="M 9.8125 72.90625 
L 55.90625 72.90625 
L 55.90625 64.59375 
L 19.671875 64.59375 
L 19.671875 43.015625 
L 54.390625 43.015625 
L 54.390625 34.71875 
L 19.671875 34.71875 
L 19.671875 8.296875 
L 56.78125 8.296875 
L 56.78125 0 
L 9.8125 0 
z
" id="DejaVuSans-69"/>
      <path d="M 54.890625 54.6875 
L 35.109375 28.078125 
L 55.90625 0 
L 45.3125 0 
L 29.390625 21.484375 
L 13.484375 0 
L 2.875 0 
L 24.125 28.609375 
L 4.6875 54.6875 
L 15.28125 54.6875 
L 29.78125 35.203125 
L 44.28125 54.6875 
z
" id="DejaVuSans-120"/>
      <path d="M 53.515625 70.515625 
L 53.515625 60.890625 
Q 47.90625 63.578125 42.921875 64.890625 
Q 37.9375 66.21875 33.296875 66.21875 
Q 25.25 66.21875 20.875 63.09375 
Q 16.5 59.96875 16.5 54.203125 
Q 16.5 49.359375 19.40625 46.890625 
Q 22.3125 44.4375 30.421875 42.921875 
L 36.375 41.703125 
Q 47.40625 39.59375 52.65625 34.296875 
Q 57.90625 29 57.90625 20.125 
Q 57.90625 9.515625 50.796875 4.046875 
Q 43.703125 -1.421875 29.984375 -1.421875 
Q 24.8125 -1.421875 18.96875 -0.25 
Q 13.140625 0.921875 6.890625 3.21875 
L 6.890625 13.375 
Q 12.890625 10.015625 18.65625 8.296875 
Q 24.421875 6.59375 29.984375 6.59375 
Q 38.421875 6.59375 43.015625 9.90625 
Q 47.609375 13.234375 47.609375 19.390625 
Q 47.609375 24.75 44.3125 27.78125 
Q 41.015625 30.8125 33.5 32.328125 
L 27.484375 33.5 
Q 16.453125 35.6875 11.515625 40.375 
Q 6.59375 45.0625 6.59375 53.421875 
Q 6.59375 63.09375 13.40625 68.65625 
Q 20.21875 74.21875 32.171875 74.21875 
Q 37.3125 74.21875 42.625 73.28125 
Q 47.953125 72.359375 53.515625 70.515625 
z
" id="DejaVuSans-83"/>
      <path d="M 9.8125 72.90625 
L 19.671875 72.90625 
L 19.671875 8.296875 
L 55.171875 8.296875 
L 55.171875 0 
L 9.8125 0 
z
" id="DejaVuSans-76"/>
      <path d="M 52 44.1875 
Q 55.375 50.25 60.0625 53.125 
Q 64.75 56 71.09375 56 
Q 79.640625 56 84.28125 50.015625 
Q 88.921875 44.046875 88.921875 33.015625 
L 88.921875 0 
L 79.890625 0 
L 79.890625 32.71875 
Q 79.890625 40.578125 77.09375 44.375 
Q 74.3125 48.1875 68.609375 48.1875 
Q 61.625 48.1875 57.5625 43.546875 
Q 53.515625 38.921875 53.515625 30.90625 
L 53.515625 0 
L 44.484375 0 
L 44.484375 32.71875 
Q 44.484375 40.625 41.703125 44.40625 
Q 38.921875 48.1875 33.109375 48.1875 
Q 26.21875 48.1875 22.15625 43.53125 
Q 18.109375 38.875 18.109375 30.90625 
L 18.109375 0 
L 9.078125 0 
L 9.078125 54.6875 
L 18.109375 54.6875 
L 18.109375 46.1875 
Q 21.1875 51.21875 25.484375 53.609375 
Q 29.78125 56 35.6875 56 
Q 41.65625 56 45.828125 52.96875 
Q 50 49.953125 52 44.1875 
z
" id="DejaVuSans-109"/>
      <path d="M 10.6875 12.40625 
L 21 12.40625 
L 21 0 
L 10.6875 0 
z
" id="DejaVuSans-46"/>
     </defs>
     <g transform="translate(72.748125 318.255394)scale(0.08 -0.08)">
      <use xlink:href="#DejaVuSans-72"/>
      <use x="75.195312" xlink:href="#DejaVuSans-116"/>
      <use x="114.404297" xlink:href="#DejaVuSans-101"/>
      <use x="175.927734" xlink:href="#DejaVuSans-45"/>
      <use x="212.011719" xlink:href="#DejaVuSans-67"/>
      <use x="281.835938" xlink:href="#DejaVuSans-74"/>
      <use x="311.328125" xlink:href="#DejaVuSans-111"/>
      <use x="372.509766" xlink:href="#DejaVuSans-108"/>
      <use x="400.292969" xlink:href="#DejaVuSans-95"/>
      <use x="450.292969" xlink:href="#DejaVuSans-48"/>
      <use x="513.916016" xlink:href="#DejaVuSans-56"/>
      <use x="577.539062" xlink:href="#DejaVuSans-55"/>
      <use x="641.162109" xlink:href="#DejaVuSans-45"/>
      <use x="677.246094" xlink:href="#DejaVuSans-69"/>
      <use x="740.429688" xlink:href="#DejaVuSans-120"/>
      <use x="799.609375" xlink:href="#DejaVuSans-49"/>
      <use x="863.232422" xlink:href="#DejaVuSans-45"/>
      <use x="899.316406" xlink:href="#DejaVuSans-50"/>
      <use x="962.939453" xlink:href="#DejaVuSans-72"/>
      <use x="1038.134766" xlink:href="#DejaVuSans-45"/>
      <use x="1074.21875" xlink:href="#DejaVuSans-83"/>
      <use x="1137.695312" xlink:href="#DejaVuSans-83"/>
      <use x="1201.171875" xlink:href="#DejaVuSans-76"/>
      <use x="1256.869141" xlink:href="#DejaVuSans-45"/>
      <use x="1292.953125" xlink:href="#DejaVuSans-49"/>
      <use x="1356.576172" xlink:href="#DejaVuSans-45"/>
      <use x="1392.660156" xlink:href="#DejaVuSans-49"/>
      <use x="1456.283203" xlink:href="#DejaVuSans-45"/>
      <use x="1492.367188" xlink:href="#DejaVuSans-76"/>
      <use x="1548.080078" xlink:href="#DejaVuSans-52"/>
      <use x="1611.703125" xlink:href="#DejaVuSans-45"/>
      <use x="1647.787109" xlink:href="#DejaVuSans-99"/>
      <use x="1702.767578" xlink:href="#DejaVuSans-108"/>
      <use x="1730.550781" xlink:href="#DejaVuSans-109"/>
      <use x="1827.962891" xlink:href="#DejaVuSans-112"/>
      <use x="1891.439453" xlink:href="#DejaVuSans-46"/>
      <use x="1923.226562" xlink:href="#DejaVuSans-114"/>
      <use x="1964.339844" xlink:href="#DejaVuSans-49"/>
      <use x="2027.962891" xlink:href="#DejaVuSans-114"/>
      <use x="2069.076172" xlink:href="#DejaVuSans-50"/>
      <use x="2132.699219" xlink:href="#DejaVuSans-95"/>
      <use x="2182.699219" xlink:href="#DejaVuSans-102"/>
      <use x="2217.904297" xlink:href="#DejaVuSans-97"/>
      <use x="2279.183594" xlink:href="#DejaVuSans-115"/>
      <use x="2331.283203" xlink:href="#DejaVuSans-116"/>
      <use x="2370.492188" xlink:href="#DejaVuSans-112"/>
     </g>
    </g>
    <g id="line2d_14">
     <path d="M 286.896458 315.455394 
L 302.896458 315.455394 
" style="fill:none;stroke:#434348;stroke-linecap:square;"/>
    </g>
    <g id="line2d_15"/>
    <g id="text_19">
     <!-- Hte-CJol_087-Ex1-2H-SSL-1-1-L5-clmp.r1r2_fastp -->
     <defs>
      <path d="M 10.796875 72.90625 
L 49.515625 72.90625 
L 49.515625 64.59375 
L 19.828125 64.59375 
L 19.828125 46.734375 
Q 21.96875 47.46875 24.109375 47.828125 
Q 26.265625 48.1875 28.421875 48.1875 
Q 40.625 48.1875 47.75 41.5 
Q 54.890625 34.8125 54.890625 23.390625 
Q 54.890625 11.625 47.5625 5.09375 
Q 40.234375 -1.421875 26.90625 -1.421875 
Q 22.3125 -1.421875 17.546875 -0.640625 
Q 12.796875 0.140625 7.71875 1.703125 
L 7.71875 11.625 
Q 12.109375 9.234375 16.796875 8.0625 
Q 21.484375 6.890625 26.703125 6.890625 
Q 35.15625 6.890625 40.078125 11.328125 
Q 45.015625 15.765625 45.015625 23.390625 
Q 45.015625 31 40.078125 35.4375 
Q 35.15625 39.890625 26.703125 39.890625 
Q 22.75 39.890625 18.8125 39.015625 
Q 14.890625 38.140625 10.796875 36.28125 
z
" id="DejaVuSans-53"/>
     </defs>
     <g transform="translate(309.296458 318.255394)scale(0.08 -0.08)">
      <use xlink:href="#DejaVuSans-72"/>
      <use x="75.195312" xlink:href="#DejaVuSans-116"/>
      <use x="114.404297" xlink:href="#DejaVuSans-101"/>
      <use x="175.927734" xlink:href="#DejaVuSans-45"/>
      <use x="212.011719" xlink:href="#DejaVuSans-67"/>
      <use x="281.835938" xlink:href="#DejaVuSans-74"/>
      <use x="311.328125" xlink:href="#DejaVuSans-111"/>
      <use x="372.509766" xlink:href="#DejaVuSans-108"/>
      <use x="400.292969" xlink:href="#DejaVuSans-95"/>
      <use x="450.292969" xlink:href="#DejaVuSans-48"/>
      <use x="513.916016" xlink:href="#DejaVuSans-56"/>
      <use x="577.539062" xlink:href="#DejaVuSans-55"/>
      <use x="641.162109" xlink:href="#DejaVuSans-45"/>
      <use x="677.246094" xlink:href="#DejaVuSans-69"/>
      <use x="740.429688" xlink:href="#DejaVuSans-120"/>
      <use x="799.609375" xlink:href="#DejaVuSans-49"/>
      <use x="863.232422" xlink:href="#DejaVuSans-45"/>
      <use x="899.316406" xlink:href="#DejaVuSans-50"/>
      <use x="962.939453" xlink:href="#DejaVuSans-72"/>
      <use x="1038.134766" xlink:href="#DejaVuSans-45"/>
      <use x="1074.21875" xlink:href="#DejaVuSans-83"/>
      <use x="1137.695312" xlink:href="#DejaVuSans-83"/>
      <use x="1201.171875" xlink:href="#DejaVuSans-76"/>
      <use x="1256.869141" xlink:href="#DejaVuSans-45"/>
      <use x="1292.953125" xlink:href="#DejaVuSans-49"/>
      <use x="1356.576172" xlink:href="#DejaVuSans-45"/>
      <use x="1392.660156" xlink:href="#DejaVuSans-49"/>
      <use x="1456.283203" xlink:href="#DejaVuSans-45"/>
      <use x="1492.367188" xlink:href="#DejaVuSans-76"/>
      <use x="1548.080078" xlink:href="#DejaVuSans-53"/>
      <use x="1611.703125" xlink:href="#DejaVuSans-45"/>
      <use x="1647.787109" xlink:href="#DejaVuSans-99"/>
      <use x="1702.767578" xlink:href="#DejaVuSans-108"/>
      <use x="1730.550781" xlink:href="#DejaVuSans-109"/>
      <use x="1827.962891" xlink:href="#DejaVuSans-112"/>
      <use x="1891.439453" xlink:href="#DejaVuSans-46"/>
      <use x="1923.226562" xlink:href="#DejaVuSans-114"/>
      <use x="1964.339844" xlink:href="#DejaVuSans-49"/>
      <use x="2027.962891" xlink:href="#DejaVuSans-114"/>
      <use x="2069.076172" xlink:href="#DejaVuSans-50"/>
      <use x="2132.699219" xlink:href="#DejaVuSans-95"/>
      <use x="2182.699219" xlink:href="#DejaVuSans-102"/>
      <use x="2217.904297" xlink:href="#DejaVuSans-97"/>
      <use x="2279.183594" xlink:href="#DejaVuSans-115"/>
      <use x="2331.283203" xlink:href="#DejaVuSans-116"/>
      <use x="2370.492188" xlink:href="#DejaVuSans-112"/>
     </g>
    </g>
    <g id="line2d_16">
     <path d="M 523.444792 315.455394 
L 539.444792 315.455394 
" style="fill:none;stroke:#90ed7d;stroke-linecap:square;"/>
    </g>
    <g id="line2d_17"/>
    <g id="text_20">
     <!-- Hte-CMvi_008-Ex1-3H-SSL-1-1-L4-clmp.r1r2_fastp -->
     <defs>
      <path d="M 9.8125 72.90625 
L 24.515625 72.90625 
L 43.109375 23.296875 
L 61.8125 72.90625 
L 76.515625 72.90625 
L 76.515625 0 
L 66.890625 0 
L 66.890625 64.015625 
L 48.09375 14.015625 
L 38.1875 14.015625 
L 19.390625 64.015625 
L 19.390625 0 
L 9.8125 0 
z
" id="DejaVuSans-77"/>
      <path d="M 2.984375 54.6875 
L 12.5 54.6875 
L 29.59375 8.796875 
L 46.6875 54.6875 
L 56.203125 54.6875 
L 35.6875 0 
L 23.484375 0 
z
" id="DejaVuSans-118"/>
      <path d="M 40.578125 39.3125 
Q 47.65625 37.796875 51.625 33 
Q 55.609375 28.21875 55.609375 21.1875 
Q 55.609375 10.40625 48.1875 4.484375 
Q 40.765625 -1.421875 27.09375 -1.421875 
Q 22.515625 -1.421875 17.65625 -0.515625 
Q 12.796875 0.390625 7.625 2.203125 
L 7.625 11.71875 
Q 11.71875 9.328125 16.59375 8.109375 
Q 21.484375 6.890625 26.8125 6.890625 
Q 36.078125 6.890625 40.9375 10.546875 
Q 45.796875 14.203125 45.796875 21.1875 
Q 45.796875 27.640625 41.28125 31.265625 
Q 36.765625 34.90625 28.71875 34.90625 
L 20.21875 34.90625 
L 20.21875 43.015625 
L 29.109375 43.015625 
Q 36.375 43.015625 40.234375 45.921875 
Q 44.09375 48.828125 44.09375 54.296875 
Q 44.09375 59.90625 40.109375 62.90625 
Q 36.140625 65.921875 28.71875 65.921875 
Q 24.65625 65.921875 20.015625 65.03125 
Q 15.375 64.15625 9.8125 62.3125 
L 9.8125 71.09375 
Q 15.4375 72.65625 20.34375 73.4375 
Q 25.25 74.21875 29.59375 74.21875 
Q 40.828125 74.21875 47.359375 69.109375 
Q 53.90625 64.015625 53.90625 55.328125 
Q 53.90625 49.265625 50.4375 45.09375 
Q 46.96875 40.921875 40.578125 39.3125 
z
" id="DejaVuSans-51"/>
     </defs>
     <g transform="translate(545.844792 318.255394)scale(0.08 -0.08)">
      <use xlink:href="#DejaVuSans-72"/>
      <use x="75.195312" xlink:href="#DejaVuSans-116"/>
      <use x="114.404297" xlink:href="#DejaVuSans-101"/>
      <use x="175.927734" xlink:href="#DejaVuSans-45"/>
      <use x="212.011719" xlink:href="#DejaVuSans-67"/>
      <use x="281.835938" xlink:href="#DejaVuSans-77"/>
      <use x="368.115234" xlink:href="#DejaVuSans-118"/>
      <use x="427.294922" xlink:href="#DejaVuSans-105"/>
      <use x="455.078125" xlink:href="#DejaVuSans-95"/>
      <use x="505.078125" xlink:href="#DejaVuSans-48"/>
      <use x="568.701172" xlink:href="#DejaVuSans-48"/>
      <use x="632.324219" xlink:href="#DejaVuSans-56"/>
      <use x="695.947266" xlink:href="#DejaVuSans-45"/>
      <use x="732.03125" xlink:href="#DejaVuSans-69"/>
      <use x="795.214844" xlink:href="#DejaVuSans-120"/>
      <use x="854.394531" xlink:href="#DejaVuSans-49"/>
      <use x="918.017578" xlink:href="#DejaVuSans-45"/>
      <use x="954.101562" xlink:href="#DejaVuSans-51"/>
      <use x="1017.724609" xlink:href="#DejaVuSans-72"/>
      <use x="1092.919922" xlink:href="#DejaVuSans-45"/>
      <use x="1129.003906" xlink:href="#DejaVuSans-83"/>
      <use x="1192.480469" xlink:href="#DejaVuSans-83"/>
      <use x="1255.957031" xlink:href="#DejaVuSans-76"/>
      <use x="1311.654297" xlink:href="#DejaVuSans-45"/>
      <use x="1347.738281" xlink:href="#DejaVuSans-49"/>
      <use x="1411.361328" xlink:href="#DejaVuSans-45"/>
      <use x="1447.445312" xlink:href="#DejaVuSans-49"/>
      <use x="1511.068359" xlink:href="#DejaVuSans-45"/>
      <use x="1547.152344" xlink:href="#DejaVuSans-76"/>
      <use x="1602.865234" xlink:href="#DejaVuSans-52"/>
      <use x="1666.488281" xlink:href="#DejaVuSans-45"/>
      <use x="1702.572266" xlink:href="#DejaVuSans-99"/>
      <use x="1757.552734" xlink:href="#DejaVuSans-108"/>
      <use x="1785.335938" xlink:href="#DejaVuSans-109"/>
      <use x="1882.748047" xlink:href="#DejaVuSans-112"/>
      <use x="1946.224609" xlink:href="#DejaVuSans-46"/>
      <use x="1978.011719" xlink:href="#DejaVuSans-114"/>
      <use x="2019.125" xlink:href="#DejaVuSans-49"/>
      <use x="2082.748047" xlink:href="#DejaVuSans-114"/>
      <use x="2123.861328" xlink:href="#DejaVuSans-50"/>
      <use x="2187.484375" xlink:href="#DejaVuSans-95"/>
      <use x="2237.484375" xlink:href="#DejaVuSans-102"/>
      <use x="2272.689453" xlink:href="#DejaVuSans-97"/>
      <use x="2333.96875" xlink:href="#DejaVuSans-115"/>
      <use x="2386.068359" xlink:href="#DejaVuSans-116"/>
      <use x="2425.277344" xlink:href="#DejaVuSans-112"/>
     </g>
    </g>
    <g id="line2d_18">
     <path d="M 764.375625 315.455394 
L 780.375625 315.455394 
" style="fill:none;stroke:#f7a35c;stroke-linecap:square;"/>
    </g>
    <g id="line2d_19"/>
    <g id="text_21">
     <!-- Hte-CMvi_008-Ex1-3H-SSL-1-1-L5-clmp.r1r2_fastp -->
     <g transform="translate(786.775625 318.255394)scale(0.08 -0.08)">
      <use xlink:href="#DejaVuSans-72"/>
      <use x="75.195312" xlink:href="#DejaVuSans-116"/>
      <use x="114.404297" xlink:href="#DejaVuSans-101"/>
      <use x="175.927734" xlink:href="#DejaVuSans-45"/>
      <use x="212.011719" xlink:href="#DejaVuSans-67"/>
      <use x="281.835938" xlink:href="#DejaVuSans-77"/>
      <use x="368.115234" xlink:href="#DejaVuSans-118"/>
      <use x="427.294922" xlink:href="#DejaVuSans-105"/>
      <use x="455.078125" xlink:href="#DejaVuSans-95"/>
      <use x="505.078125" xlink:href="#DejaVuSans-48"/>
      <use x="568.701172" xlink:href="#DejaVuSans-48"/>
      <use x="632.324219" xlink:href="#DejaVuSans-56"/>
      <use x="695.947266" xlink:href="#DejaVuSans-45"/>
      <use x="732.03125" xlink:href="#DejaVuSans-69"/>
      <use x="795.214844" xlink:href="#DejaVuSans-120"/>
      <use x="854.394531" xlink:href="#DejaVuSans-49"/>
      <use x="918.017578" xlink:href="#DejaVuSans-45"/>
      <use x="954.101562" xlink:href="#DejaVuSans-51"/>
      <use x="1017.724609" xlink:href="#DejaVuSans-72"/>
      <use x="1092.919922" xlink:href="#DejaVuSans-45"/>
      <use x="1129.003906" xlink:href="#DejaVuSans-83"/>
      <use x="1192.480469" xlink:href="#DejaVuSans-83"/>
      <use x="1255.957031" xlink:href="#DejaVuSans-76"/>
      <use x="1311.654297" xlink:href="#DejaVuSans-45"/>
      <use x="1347.738281" xlink:href="#DejaVuSans-49"/>
      <use x="1411.361328" xlink:href="#DejaVuSans-45"/>
      <use x="1447.445312" xlink:href="#DejaVuSans-49"/>
      <use x="1511.068359" xlink:href="#DejaVuSans-45"/>
      <use x="1547.152344" xlink:href="#DejaVuSans-76"/>
      <use x="1602.865234" xlink:href="#DejaVuSans-53"/>
      <use x="1666.488281" xlink:href="#DejaVuSans-45"/>
      <use x="1702.572266" xlink:href="#DejaVuSans-99"/>
      <use x="1757.552734" xlink:href="#DejaVuSans-108"/>
      <use x="1785.335938" xlink:href="#DejaVuSans-109"/>
      <use x="1882.748047" xlink:href="#DejaVuSans-112"/>
      <use x="1946.224609" xlink:href="#DejaVuSans-46"/>
      <use x="1978.011719" xlink:href="#DejaVuSans-114"/>
      <use x="2019.125" xlink:href="#DejaVuSans-49"/>
      <use x="2082.748047" xlink:href="#DejaVuSans-114"/>
      <use x="2123.861328" xlink:href="#DejaVuSans-50"/>
      <use x="2187.484375" xlink:href="#DejaVuSans-95"/>
      <use x="2237.484375" xlink:href="#DejaVuSans-102"/>
      <use x="2272.689453" xlink:href="#DejaVuSans-97"/>
      <use x="2333.96875" xlink:href="#DejaVuSans-115"/>
      <use x="2386.068359" xlink:href="#DejaVuSans-116"/>
      <use x="2425.277344" xlink:href="#DejaVuSans-112"/>
     </g>
    </g>
   </g>
  </g>
 </g>
 <defs>
  <clipPath id="pc55e5ad329">
   <rect height="242.5072" width="949.93" x="43.148125" y="31.48286"/>
  </clipPath>
 </defs>
</svg>
