<?xml version="1.0" encoding="utf-8" standalone="no"?>
<!DOCTYPE svg PUBLIC "-//W3C//DTD SVG 1.1//EN"
  "http://www.w3.org/Graphics/SVG/1.1/DTD/svg11.dtd">
<!-- Created with matplotlib (https://matplotlib.org/) -->
<svg height="330.541644pt" version="1.1" viewBox="0 0 1000.280625 330.541644" width="1000.280625pt" xmlns="http://www.w3.org/2000/svg" xmlns:xlink="http://www.w3.org/1999/xlink">
 <defs>
  <style type="text/css">
*{stroke-linecap:butt;stroke-linejoin:round;}
  </style>
 </defs>
 <g id="figure_1">
  <g id="axes_1">
   <g id="patch_1">
    <path d="M 40.600625 273.99006 
L 985.445625 273.99006 
L 985.445625 31.48286 
L 40.600625 31.48286 
z
" style="fill:#ffffff;"/>
   </g>
   <g id="matplotlib.axis_1">
    <g id="xtick_1">
     <g id="text_1">
      <!-- 0 -->
      <defs>
       <path d="M 31.78125 66.40625 
Q 24.171875 66.40625 20.328125 58.90625 
Q 16.5 51.421875 16.5 36.375 
Q 16.5 21.390625 20.328125 13.890625 
Q 24.171875 6.390625 31.78125 6.390625 
Q 39.453125 6.390625 43.28125 13.890625 
Q 47.125 21.390625 47.125 36.375 
Q 47.125 51.421875 43.28125 58.90625 
Q 39.453125 66.40625 31.78125 66.40625 
z
M 31.78125 74.21875 
Q 44.046875 74.21875 50.515625 64.515625 
Q 56.984375 54.828125 56.984375 36.375 
Q 56.984375 17.96875 50.515625 8.265625 
Q 44.046875 -1.421875 31.78125 -1.421875 
Q 19.53125 -1.421875 13.0625 8.265625 
Q 6.59375 17.96875 6.59375 36.375 
Q 6.59375 54.828125 13.0625 64.515625 
Q 19.53125 74.21875 31.78125 74.21875 
z
" id="DejaVuSans-48"/>
      </defs>
      <g transform="translate(38.055625 287.06881)scale(0.08 -0.08)">
       <use xlink:href="#DejaVuSans-48"/>
      </g>
     </g>
    </g>
    <g id="xtick_2">
     <g id="text_2">
      <!-- 20 -->
      <defs>
       <path d="M 19.1875 8.296875 
L 53.609375 8.296875 
L 53.609375 0 
L 7.328125 0 
L 7.328125 8.296875 
Q 12.9375 14.109375 22.625 23.890625 
Q 32.328125 33.6875 34.8125 36.53125 
Q 39.546875 41.84375 41.421875 45.53125 
Q 43.3125 49.21875 43.3125 52.78125 
Q 43.3125 58.59375 39.234375 62.25 
Q 35.15625 65.921875 28.609375 65.921875 
Q 23.96875 65.921875 18.8125 64.3125 
Q 13.671875 62.703125 7.8125 59.421875 
L 7.8125 69.390625 
Q 13.765625 71.78125 18.9375 73 
Q 24.125 74.21875 28.421875 74.21875 
Q 39.75 74.21875 46.484375 68.546875 
Q 53.21875 62.890625 53.21875 53.421875 
Q 53.21875 48.921875 51.53125 44.890625 
Q 49.859375 40.875 45.40625 35.40625 
Q 44.1875 33.984375 37.640625 27.21875 
Q 31.109375 20.453125 19.1875 8.296875 
z
" id="DejaVuSans-50"/>
      </defs>
      <g transform="translate(224.479625 287.06881)scale(0.08 -0.08)">
       <use xlink:href="#DejaVuSans-50"/>
       <use x="63.623047" xlink:href="#DejaVuSans-48"/>
      </g>
     </g>
    </g>
    <g id="xtick_3">
     <g id="text_3">
      <!-- 40 -->
      <defs>
       <path d="M 37.796875 64.3125 
L 12.890625 25.390625 
L 37.796875 25.390625 
z
M 35.203125 72.90625 
L 47.609375 72.90625 
L 47.609375 25.390625 
L 58.015625 25.390625 
L 58.015625 17.1875 
L 47.609375 17.1875 
L 47.609375 0 
L 37.796875 0 
L 37.796875 17.1875 
L 4.890625 17.1875 
L 4.890625 26.703125 
z
" id="DejaVuSans-52"/>
      </defs>
      <g transform="translate(413.448625 287.06881)scale(0.08 -0.08)">
       <use xlink:href="#DejaVuSans-52"/>
       <use x="63.623047" xlink:href="#DejaVuSans-48"/>
      </g>
     </g>
    </g>
    <g id="xtick_4">
     <g id="text_4">
      <!-- 60 -->
      <defs>
       <path d="M 33.015625 40.375 
Q 26.375 40.375 22.484375 35.828125 
Q 18.609375 31.296875 18.609375 23.390625 
Q 18.609375 15.53125 22.484375 10.953125 
Q 26.375 6.390625 33.015625 6.390625 
Q 39.65625 6.390625 43.53125 10.953125 
Q 47.40625 15.53125 47.40625 23.390625 
Q 47.40625 31.296875 43.53125 35.828125 
Q 39.65625 40.375 33.015625 40.375 
z
M 52.59375 71.296875 
L 52.59375 62.3125 
Q 48.875 64.0625 45.09375 64.984375 
Q 41.3125 65.921875 37.59375 65.921875 
Q 27.828125 65.921875 22.671875 59.328125 
Q 17.53125 52.734375 16.796875 39.40625 
Q 19.671875 43.65625 24.015625 45.921875 
Q 28.375 48.1875 33.59375 48.1875 
Q 44.578125 48.1875 50.953125 41.515625 
Q 57.328125 34.859375 57.328125 23.390625 
Q 57.328125 12.15625 50.6875 5.359375 
Q 44.046875 -1.421875 33.015625 -1.421875 
Q 20.359375 -1.421875 13.671875 8.265625 
Q 6.984375 17.96875 6.984375 36.375 
Q 6.984375 53.65625 15.1875 63.9375 
Q 23.390625 74.21875 37.203125 74.21875 
Q 40.921875 74.21875 44.703125 73.484375 
Q 48.484375 72.75 52.59375 71.296875 
z
" id="DejaVuSans-54"/>
      </defs>
      <g transform="translate(602.417625 287.06881)scale(0.08 -0.08)">
       <use xlink:href="#DejaVuSans-54"/>
       <use x="63.623047" xlink:href="#DejaVuSans-48"/>
      </g>
     </g>
    </g>
    <g id="xtick_5">
     <g id="text_5">
      <!-- 80 -->
      <defs>
       <path d="M 31.78125 34.625 
Q 24.75 34.625 20.71875 30.859375 
Q 16.703125 27.09375 16.703125 20.515625 
Q 16.703125 13.921875 20.71875 10.15625 
Q 24.75 6.390625 31.78125 6.390625 
Q 38.8125 6.390625 42.859375 10.171875 
Q 46.921875 13.96875 46.921875 20.515625 
Q 46.921875 27.09375 42.890625 30.859375 
Q 38.875 34.625 31.78125 34.625 
z
M 21.921875 38.8125 
Q 15.578125 40.375 12.03125 44.71875 
Q 8.5 49.078125 8.5 55.328125 
Q 8.5 64.0625 14.71875 69.140625 
Q 20.953125 74.21875 31.78125 74.21875 
Q 42.671875 74.21875 48.875 69.140625 
Q 55.078125 64.0625 55.078125 55.328125 
Q 55.078125 49.078125 51.53125 44.71875 
Q 48 40.375 41.703125 38.8125 
Q 48.828125 37.15625 52.796875 32.3125 
Q 56.78125 27.484375 56.78125 20.515625 
Q 56.78125 9.90625 50.3125 4.234375 
Q 43.84375 -1.421875 31.78125 -1.421875 
Q 19.734375 -1.421875 13.25 4.234375 
Q 6.78125 9.90625 6.78125 20.515625 
Q 6.78125 27.484375 10.78125 32.3125 
Q 14.796875 37.15625 21.921875 38.8125 
z
M 18.3125 54.390625 
Q 18.3125 48.734375 21.84375 45.5625 
Q 25.390625 42.390625 31.78125 42.390625 
Q 38.140625 42.390625 41.71875 45.5625 
Q 45.3125 48.734375 45.3125 54.390625 
Q 45.3125 60.0625 41.71875 63.234375 
Q 38.140625 66.40625 31.78125 66.40625 
Q 25.390625 66.40625 21.84375 63.234375 
Q 18.3125 60.0625 18.3125 54.390625 
z
" id="DejaVuSans-56"/>
      </defs>
      <g transform="translate(791.386625 287.06881)scale(0.08 -0.08)">
       <use xlink:href="#DejaVuSans-56"/>
       <use x="63.623047" xlink:href="#DejaVuSans-48"/>
      </g>
     </g>
    </g>
    <g id="xtick_6">
     <g id="text_6">
      <!-- 100 -->
      <defs>
       <path d="M 12.40625 8.296875 
L 28.515625 8.296875 
L 28.515625 63.921875 
L 10.984375 60.40625 
L 10.984375 69.390625 
L 28.421875 72.90625 
L 38.28125 72.90625 
L 38.28125 8.296875 
L 54.390625 8.296875 
L 54.390625 0 
L 12.40625 0 
z
" id="DejaVuSans-49"/>
      </defs>
      <g transform="translate(977.810625 287.06881)scale(0.08 -0.08)">
       <use xlink:href="#DejaVuSans-49"/>
       <use x="63.623047" xlink:href="#DejaVuSans-48"/>
       <use x="127.246094" xlink:href="#DejaVuSans-48"/>
      </g>
     </g>
    </g>
    <g id="text_7">
     <!-- % GC -->
     <defs>
      <path d="M 72.703125 32.078125 
Q 68.453125 32.078125 66.03125 28.46875 
Q 63.625 24.859375 63.625 18.40625 
Q 63.625 12.0625 66.03125 8.421875 
Q 68.453125 4.78125 72.703125 4.78125 
Q 76.859375 4.78125 79.265625 8.421875 
Q 81.6875 12.0625 81.6875 18.40625 
Q 81.6875 24.8125 79.265625 28.4375 
Q 76.859375 32.078125 72.703125 32.078125 
z
M 72.703125 38.28125 
Q 80.421875 38.28125 84.953125 32.90625 
Q 89.5 27.546875 89.5 18.40625 
Q 89.5 9.28125 84.9375 3.921875 
Q 80.375 -1.421875 72.703125 -1.421875 
Q 64.890625 -1.421875 60.34375 3.921875 
Q 55.8125 9.28125 55.8125 18.40625 
Q 55.8125 27.59375 60.375 32.9375 
Q 64.9375 38.28125 72.703125 38.28125 
z
M 22.3125 68.015625 
Q 18.109375 68.015625 15.6875 64.375 
Q 13.28125 60.75 13.28125 54.390625 
Q 13.28125 47.953125 15.671875 44.328125 
Q 18.0625 40.71875 22.3125 40.71875 
Q 26.5625 40.71875 28.96875 44.328125 
Q 31.390625 47.953125 31.390625 54.390625 
Q 31.390625 60.6875 28.953125 64.34375 
Q 26.515625 68.015625 22.3125 68.015625 
z
M 66.40625 74.21875 
L 74.21875 74.21875 
L 28.609375 -1.421875 
L 20.796875 -1.421875 
z
M 22.3125 74.21875 
Q 30.03125 74.21875 34.609375 68.875 
Q 39.203125 63.53125 39.203125 54.390625 
Q 39.203125 45.171875 34.640625 39.84375 
Q 30.078125 34.515625 22.3125 34.515625 
Q 14.546875 34.515625 10.03125 39.859375 
Q 5.515625 45.21875 5.515625 54.390625 
Q 5.515625 63.484375 10.046875 68.84375 
Q 14.59375 74.21875 22.3125 74.21875 
z
" id="DejaVuSans-37"/>
      <path id="DejaVuSans-32"/>
      <path d="M 59.515625 10.40625 
L 59.515625 29.984375 
L 43.40625 29.984375 
L 43.40625 38.09375 
L 69.28125 38.09375 
L 69.28125 6.78125 
Q 63.578125 2.734375 56.6875 0.65625 
Q 49.8125 -1.421875 42 -1.421875 
Q 24.90625 -1.421875 15.25 8.5625 
Q 5.609375 18.5625 5.609375 36.375 
Q 5.609375 54.25 15.25 64.234375 
Q 24.90625 74.21875 42 74.21875 
Q 49.125 74.21875 55.546875 72.453125 
Q 61.96875 70.703125 67.390625 67.28125 
L 67.390625 56.78125 
Q 61.921875 61.421875 55.765625 63.765625 
Q 49.609375 66.109375 42.828125 66.109375 
Q 29.4375 66.109375 22.71875 58.640625 
Q 16.015625 51.171875 16.015625 36.375 
Q 16.015625 21.625 22.71875 14.15625 
Q 29.4375 6.6875 42.828125 6.6875 
Q 48.046875 6.6875 52.140625 7.59375 
Q 56.25 8.5 59.515625 10.40625 
z
" id="DejaVuSans-71"/>
      <path d="M 64.40625 67.28125 
L 64.40625 56.890625 
Q 59.421875 61.53125 53.78125 63.8125 
Q 48.140625 66.109375 41.796875 66.109375 
Q 29.296875 66.109375 22.65625 58.46875 
Q 16.015625 50.828125 16.015625 36.375 
Q 16.015625 21.96875 22.65625 14.328125 
Q 29.296875 6.6875 41.796875 6.6875 
Q 48.140625 6.6875 53.78125 8.984375 
Q 59.421875 11.28125 64.40625 15.921875 
L 64.40625 5.609375 
Q 59.234375 2.09375 53.4375 0.328125 
Q 47.65625 -1.421875 41.21875 -1.421875 
Q 24.65625 -1.421875 15.125 8.703125 
Q 5.609375 18.84375 5.609375 36.375 
Q 5.609375 53.953125 15.125 64.078125 
Q 24.65625 74.21875 41.21875 74.21875 
Q 47.75 74.21875 53.53125 72.484375 
Q 59.328125 70.75 64.40625 67.28125 
z
" id="DejaVuSans-67"/>
     </defs>
     <g transform="translate(499.317656 300.330997)scale(0.1 -0.1)">
      <use xlink:href="#DejaVuSans-37"/>
      <use x="95.019531" xlink:href="#DejaVuSans-32"/>
      <use x="126.806641" xlink:href="#DejaVuSans-71"/>
      <use x="204.296875" xlink:href="#DejaVuSans-67"/>
     </g>
    </g>
   </g>
   <g id="matplotlib.axis_2">
    <g id="ytick_1">
     <g id="line2d_1">
      <path clip-path="url(#p3702789a0e)" d="M 40.600625 273.99006 
L 985.445625 273.99006 
" style="fill:none;stroke:#dedede;stroke-linecap:square;"/>
     </g>
     <g id="text_8">
      <!-- 0.0 -->
      <defs>
       <path d="M 10.6875 12.40625 
L 21 12.40625 
L 21 0 
L 10.6875 0 
z
" id="DejaVuSans-46"/>
      </defs>
      <g transform="translate(20.878125 277.029435)scale(0.08 -0.08)">
       <use xlink:href="#DejaVuSans-48"/>
       <use x="63.623047" xlink:href="#DejaVuSans-46"/>
       <use x="95.410156" xlink:href="#DejaVuSans-48"/>
      </g>
     </g>
    </g>
    <g id="ytick_2">
     <g id="line2d_2">
      <path clip-path="url(#p3702789a0e)" d="M 40.600625 243.682275 
L 985.445625 243.682275 
" style="fill:none;stroke:#dedede;stroke-linecap:square;"/>
     </g>
     <g id="text_9">
      <!-- 0.5 -->
      <defs>
       <path d="M 10.796875 72.90625 
L 49.515625 72.90625 
L 49.515625 64.59375 
L 19.828125 64.59375 
L 19.828125 46.734375 
Q 21.96875 47.46875 24.109375 47.828125 
Q 26.265625 48.1875 28.421875 48.1875 
Q 40.625 48.1875 47.75 41.5 
Q 54.890625 34.8125 54.890625 23.390625 
Q 54.890625 11.625 47.5625 5.09375 
Q 40.234375 -1.421875 26.90625 -1.421875 
Q 22.3125 -1.421875 17.546875 -0.640625 
Q 12.796875 0.140625 7.71875 1.703125 
L 7.71875 11.625 
Q 12.109375 9.234375 16.796875 8.0625 
Q 21.484375 6.890625 26.703125 6.890625 
Q 35.15625 6.890625 40.078125 11.328125 
Q 45.015625 15.765625 45.015625 23.390625 
Q 45.015625 31 40.078125 35.4375 
Q 35.15625 39.890625 26.703125 39.890625 
Q 22.75 39.890625 18.8125 39.015625 
Q 14.890625 38.140625 10.796875 36.28125 
z
" id="DejaVuSans-53"/>
      </defs>
      <g transform="translate(20.878125 246.72165)scale(0.08 -0.08)">
       <use xlink:href="#DejaVuSans-48"/>
       <use x="63.623047" xlink:href="#DejaVuSans-46"/>
       <use x="95.410156" xlink:href="#DejaVuSans-53"/>
      </g>
     </g>
    </g>
    <g id="ytick_3">
     <g id="line2d_3">
      <path clip-path="url(#p3702789a0e)" d="M 40.600625 213.37449 
L 985.445625 213.37449 
" style="fill:none;stroke:#dedede;stroke-linecap:square;"/>
     </g>
     <g id="text_10">
      <!-- 1.0 -->
      <g transform="translate(20.878125 216.413865)scale(0.08 -0.08)">
       <use xlink:href="#DejaVuSans-49"/>
       <use x="63.623047" xlink:href="#DejaVuSans-46"/>
       <use x="95.410156" xlink:href="#DejaVuSans-48"/>
      </g>
     </g>
    </g>
    <g id="ytick_4">
     <g id="line2d_4">
      <path clip-path="url(#p3702789a0e)" d="M 40.600625 183.066704 
L 985.445625 183.066704 
" style="fill:none;stroke:#dedede;stroke-linecap:square;"/>
     </g>
     <g id="text_11">
      <!-- 1.5 -->
      <g transform="translate(20.878125 186.106079)scale(0.08 -0.08)">
       <use xlink:href="#DejaVuSans-49"/>
       <use x="63.623047" xlink:href="#DejaVuSans-46"/>
       <use x="95.410156" xlink:href="#DejaVuSans-53"/>
      </g>
     </g>
    </g>
    <g id="ytick_5">
     <g id="line2d_5">
      <path clip-path="url(#p3702789a0e)" d="M 40.600625 152.758919 
L 985.445625 152.758919 
" style="fill:none;stroke:#dedede;stroke-linecap:square;"/>
     </g>
     <g id="text_12">
      <!-- 2.0 -->
      <g transform="translate(20.878125 155.798294)scale(0.08 -0.08)">
       <use xlink:href="#DejaVuSans-50"/>
       <use x="63.623047" xlink:href="#DejaVuSans-46"/>
       <use x="95.410156" xlink:href="#DejaVuSans-48"/>
      </g>
     </g>
    </g>
    <g id="ytick_6">
     <g id="line2d_6">
      <path clip-path="url(#p3702789a0e)" d="M 40.600625 122.451134 
L 985.445625 122.451134 
" style="fill:none;stroke:#dedede;stroke-linecap:square;"/>
     </g>
     <g id="text_13">
      <!-- 2.5 -->
      <g transform="translate(20.878125 125.490509)scale(0.08 -0.08)">
       <use xlink:href="#DejaVuSans-50"/>
       <use x="63.623047" xlink:href="#DejaVuSans-46"/>
       <use x="95.410156" xlink:href="#DejaVuSans-53"/>
      </g>
     </g>
    </g>
    <g id="ytick_7">
     <g id="line2d_7">
      <path clip-path="url(#p3702789a0e)" d="M 40.600625 92.143349 
L 985.445625 92.143349 
" style="fill:none;stroke:#dedede;stroke-linecap:square;"/>
     </g>
     <g id="text_14">
      <!-- 3.0 -->
      <defs>
       <path d="M 40.578125 39.3125 
Q 47.65625 37.796875 51.625 33 
Q 55.609375 28.21875 55.609375 21.1875 
Q 55.609375 10.40625 48.1875 4.484375 
Q 40.765625 -1.421875 27.09375 -1.421875 
Q 22.515625 -1.421875 17.65625 -0.515625 
Q 12.796875 0.390625 7.625 2.203125 
L 7.625 11.71875 
Q 11.71875 9.328125 16.59375 8.109375 
Q 21.484375 6.890625 26.8125 6.890625 
Q 36.078125 6.890625 40.9375 10.546875 
Q 45.796875 14.203125 45.796875 21.1875 
Q 45.796875 27.640625 41.28125 31.265625 
Q 36.765625 34.90625 28.71875 34.90625 
L 20.21875 34.90625 
L 20.21875 43.015625 
L 29.109375 43.015625 
Q 36.375 43.015625 40.234375 45.921875 
Q 44.09375 48.828125 44.09375 54.296875 
Q 44.09375 59.90625 40.109375 62.90625 
Q 36.140625 65.921875 28.71875 65.921875 
Q 24.65625 65.921875 20.015625 65.03125 
Q 15.375 64.15625 9.8125 62.3125 
L 9.8125 71.09375 
Q 15.4375 72.65625 20.34375 73.4375 
Q 25.25 74.21875 29.59375 74.21875 
Q 40.828125 74.21875 47.359375 69.109375 
Q 53.90625 64.015625 53.90625 55.328125 
Q 53.90625 49.265625 50.4375 45.09375 
Q 46.96875 40.921875 40.578125 39.3125 
z
" id="DejaVuSans-51"/>
      </defs>
      <g transform="translate(20.878125 95.182724)scale(0.08 -0.08)">
       <use xlink:href="#DejaVuSans-51"/>
       <use x="63.623047" xlink:href="#DejaVuSans-46"/>
       <use x="95.410156" xlink:href="#DejaVuSans-48"/>
      </g>
     </g>
    </g>
    <g id="ytick_8">
     <g id="line2d_8">
      <path clip-path="url(#p3702789a0e)" d="M 40.600625 61.835563 
L 985.445625 61.835563 
" style="fill:none;stroke:#dedede;stroke-linecap:square;"/>
     </g>
     <g id="text_15">
      <!-- 3.5 -->
      <g transform="translate(20.878125 64.874938)scale(0.08 -0.08)">
       <use xlink:href="#DejaVuSans-51"/>
       <use x="63.623047" xlink:href="#DejaVuSans-46"/>
       <use x="95.410156" xlink:href="#DejaVuSans-53"/>
      </g>
     </g>
    </g>
    <g id="ytick_9">
     <g id="line2d_9">
      <path clip-path="url(#p3702789a0e)" d="M 40.600625 31.527778 
L 985.445625 31.527778 
" style="fill:none;stroke:#dedede;stroke-linecap:square;"/>
     </g>
     <g id="text_16">
      <!-- 4.0 -->
      <g transform="translate(20.878125 34.567153)scale(0.08 -0.08)">
       <use xlink:href="#DejaVuSans-52"/>
       <use x="63.623047" xlink:href="#DejaVuSans-46"/>
       <use x="95.410156" xlink:href="#DejaVuSans-48"/>
      </g>
     </g>
    </g>
    <g id="text_17">
     <!-- Percentage -->
     <defs>
      <path d="M 19.671875 64.796875 
L 19.671875 37.40625 
L 32.078125 37.40625 
Q 38.96875 37.40625 42.71875 40.96875 
Q 46.484375 44.53125 46.484375 51.125 
Q 46.484375 57.671875 42.71875 61.234375 
Q 38.96875 64.796875 32.078125 64.796875 
z
M 9.8125 72.90625 
L 32.078125 72.90625 
Q 44.34375 72.90625 50.609375 67.359375 
Q 56.890625 61.8125 56.890625 51.125 
Q 56.890625 40.328125 50.609375 34.8125 
Q 44.34375 29.296875 32.078125 29.296875 
L 19.671875 29.296875 
L 19.671875 0 
L 9.8125 0 
z
" id="DejaVuSans-80"/>
      <path d="M 56.203125 29.59375 
L 56.203125 25.203125 
L 14.890625 25.203125 
Q 15.484375 15.921875 20.484375 11.0625 
Q 25.484375 6.203125 34.421875 6.203125 
Q 39.59375 6.203125 44.453125 7.46875 
Q 49.3125 8.734375 54.109375 11.28125 
L 54.109375 2.78125 
Q 49.265625 0.734375 44.1875 -0.34375 
Q 39.109375 -1.421875 33.890625 -1.421875 
Q 20.796875 -1.421875 13.15625 6.1875 
Q 5.515625 13.8125 5.515625 26.8125 
Q 5.515625 40.234375 12.765625 48.109375 
Q 20.015625 56 32.328125 56 
Q 43.359375 56 49.78125 48.890625 
Q 56.203125 41.796875 56.203125 29.59375 
z
M 47.21875 32.234375 
Q 47.125 39.59375 43.09375 43.984375 
Q 39.0625 48.390625 32.421875 48.390625 
Q 24.90625 48.390625 20.390625 44.140625 
Q 15.875 39.890625 15.1875 32.171875 
z
" id="DejaVuSans-101"/>
      <path d="M 41.109375 46.296875 
Q 39.59375 47.171875 37.8125 47.578125 
Q 36.03125 48 33.890625 48 
Q 26.265625 48 22.1875 43.046875 
Q 18.109375 38.09375 18.109375 28.8125 
L 18.109375 0 
L 9.078125 0 
L 9.078125 54.6875 
L 18.109375 54.6875 
L 18.109375 46.1875 
Q 20.953125 51.171875 25.484375 53.578125 
Q 30.03125 56 36.53125 56 
Q 37.453125 56 38.578125 55.875 
Q 39.703125 55.765625 41.0625 55.515625 
z
" id="DejaVuSans-114"/>
      <path d="M 48.78125 52.59375 
L 48.78125 44.1875 
Q 44.96875 46.296875 41.140625 47.34375 
Q 37.3125 48.390625 33.40625 48.390625 
Q 24.65625 48.390625 19.8125 42.84375 
Q 14.984375 37.3125 14.984375 27.296875 
Q 14.984375 17.28125 19.8125 11.734375 
Q 24.65625 6.203125 33.40625 6.203125 
Q 37.3125 6.203125 41.140625 7.25 
Q 44.96875 8.296875 48.78125 10.40625 
L 48.78125 2.09375 
Q 45.015625 0.34375 40.984375 -0.53125 
Q 36.96875 -1.421875 32.421875 -1.421875 
Q 20.0625 -1.421875 12.78125 6.34375 
Q 5.515625 14.109375 5.515625 27.296875 
Q 5.515625 40.671875 12.859375 48.328125 
Q 20.21875 56 33.015625 56 
Q 37.15625 56 41.109375 55.140625 
Q 45.0625 54.296875 48.78125 52.59375 
z
" id="DejaVuSans-99"/>
      <path d="M 54.890625 33.015625 
L 54.890625 0 
L 45.90625 0 
L 45.90625 32.71875 
Q 45.90625 40.484375 42.875 44.328125 
Q 39.84375 48.1875 33.796875 48.1875 
Q 26.515625 48.1875 22.3125 43.546875 
Q 18.109375 38.921875 18.109375 30.90625 
L 18.109375 0 
L 9.078125 0 
L 9.078125 54.6875 
L 18.109375 54.6875 
L 18.109375 46.1875 
Q 21.34375 51.125 25.703125 53.5625 
Q 30.078125 56 35.796875 56 
Q 45.21875 56 50.046875 50.171875 
Q 54.890625 44.34375 54.890625 33.015625 
z
" id="DejaVuSans-110"/>
      <path d="M 18.3125 70.21875 
L 18.3125 54.6875 
L 36.8125 54.6875 
L 36.8125 47.703125 
L 18.3125 47.703125 
L 18.3125 18.015625 
Q 18.3125 11.328125 20.140625 9.421875 
Q 21.96875 7.515625 27.59375 7.515625 
L 36.8125 7.515625 
L 36.8125 0 
L 27.59375 0 
Q 17.1875 0 13.234375 3.875 
Q 9.28125 7.765625 9.28125 18.015625 
L 9.28125 47.703125 
L 2.6875 47.703125 
L 2.6875 54.6875 
L 9.28125 54.6875 
L 9.28125 70.21875 
z
" id="DejaVuSans-116"/>
      <path d="M 34.28125 27.484375 
Q 23.390625 27.484375 19.1875 25 
Q 14.984375 22.515625 14.984375 16.5 
Q 14.984375 11.71875 18.140625 8.90625 
Q 21.296875 6.109375 26.703125 6.109375 
Q 34.1875 6.109375 38.703125 11.40625 
Q 43.21875 16.703125 43.21875 25.484375 
L 43.21875 27.484375 
z
M 52.203125 31.203125 
L 52.203125 0 
L 43.21875 0 
L 43.21875 8.296875 
Q 40.140625 3.328125 35.546875 0.953125 
Q 30.953125 -1.421875 24.3125 -1.421875 
Q 15.921875 -1.421875 10.953125 3.296875 
Q 6 8.015625 6 15.921875 
Q 6 25.140625 12.171875 29.828125 
Q 18.359375 34.515625 30.609375 34.515625 
L 43.21875 34.515625 
L 43.21875 35.40625 
Q 43.21875 41.609375 39.140625 45 
Q 35.0625 48.390625 27.6875 48.390625 
Q 23 48.390625 18.546875 47.265625 
Q 14.109375 46.140625 10.015625 43.890625 
L 10.015625 52.203125 
Q 14.9375 54.109375 19.578125 55.046875 
Q 24.21875 56 28.609375 56 
Q 40.484375 56 46.34375 49.84375 
Q 52.203125 43.703125 52.203125 31.203125 
z
" id="DejaVuSans-97"/>
      <path d="M 45.40625 27.984375 
Q 45.40625 37.75 41.375 43.109375 
Q 37.359375 48.484375 30.078125 48.484375 
Q 22.859375 48.484375 18.828125 43.109375 
Q 14.796875 37.75 14.796875 27.984375 
Q 14.796875 18.265625 18.828125 12.890625 
Q 22.859375 7.515625 30.078125 7.515625 
Q 37.359375 7.515625 41.375 12.890625 
Q 45.40625 18.265625 45.40625 27.984375 
z
M 54.390625 6.78125 
Q 54.390625 -7.171875 48.1875 -13.984375 
Q 42 -20.796875 29.203125 -20.796875 
Q 24.46875 -20.796875 20.265625 -20.09375 
Q 16.0625 -19.390625 12.109375 -17.921875 
L 12.109375 -9.1875 
Q 16.0625 -11.328125 19.921875 -12.34375 
Q 23.78125 -13.375 27.78125 -13.375 
Q 36.625 -13.375 41.015625 -8.765625 
Q 45.40625 -4.15625 45.40625 5.171875 
L 45.40625 9.625 
Q 42.625 4.78125 38.28125 2.390625 
Q 33.9375 0 27.875 0 
Q 17.828125 0 11.671875 7.65625 
Q 5.515625 15.328125 5.515625 27.984375 
Q 5.515625 40.671875 11.671875 48.328125 
Q 17.828125 56 27.875 56 
Q 33.9375 56 38.28125 53.609375 
Q 42.625 51.21875 45.40625 46.390625 
L 45.40625 54.6875 
L 54.390625 54.6875 
z
" id="DejaVuSans-103"/>
     </defs>
     <g transform="translate(14.798438 181.14896)rotate(-90)scale(0.1 -0.1)">
      <use xlink:href="#DejaVuSans-80"/>
      <use x="60.255859" xlink:href="#DejaVuSans-101"/>
      <use x="121.779297" xlink:href="#DejaVuSans-114"/>
      <use x="162.861328" xlink:href="#DejaVuSans-99"/>
      <use x="217.841797" xlink:href="#DejaVuSans-101"/>
      <use x="279.365234" xlink:href="#DejaVuSans-110"/>
      <use x="342.744141" xlink:href="#DejaVuSans-116"/>
      <use x="381.953125" xlink:href="#DejaVuSans-97"/>
      <use x="443.232422" xlink:href="#DejaVuSans-103"/>
      <use x="506.708984" xlink:href="#DejaVuSans-101"/>
     </g>
    </g>
   </g>
   <g id="line2d_10">
    <path clip-path="url(#p3702789a0e)" d="M 40.600625 273.988024 
L 50.049075 273.987605 
L 59.497525 273.98509 
L 68.945975 273.980899 
L 78.394425 273.975271 
L 87.842875 273.967009 
L 97.291325 273.953896 
L 106.739775 273.934617 
L 116.188225 273.912763 
L 125.636675 273.873426 
L 135.085125 273.812174 
L 144.533575 273.733261 
L 153.982025 273.615489 
L 163.430475 273.437364 
L 172.878925 273.166973 
L 182.327375 272.787432 
L 191.775825 272.245453 
L 201.224275 271.427455 
L 210.672725 270.205428 
L 220.121175 268.316464 
L 229.569625 265.626867 
L 239.018075 261.884625 
L 248.466525 256.694153 
L 257.914975 249.649384 
L 267.363425 240.337009 
L 276.811875 228.378684 
L 286.260325 213.64149 
L 295.708775 196.17111 
L 305.157225 176.156147 
L 314.605675 154.820425 
L 324.054125 134.401612 
L 333.502575 114.233491 
L 342.951025 93.697326 
L 352.399475 75.813456 
L 361.847925 62.559818 
L 371.296375 54.212073 
L 380.744825 49.616029 
L 390.193275 49.249121 
L 399.641725 51.978176 
L 409.090175 54.297633 
L 418.538625 55.715687 
L 427.987075 56.500515 
L 437.435525 57.335577 
L 446.883975 59.317225 
L 456.332425 63.78466 
L 465.780875 70.035261 
L 475.229325 77.820071 
L 484.677775 87.02605 
L 494.126225 96.938901 
L 503.574675 108.105632 
L 513.023125 119.300085 
L 522.471575 131.462699 
L 531.920025 144.648918 
L 541.368475 157.177003 
L 550.816925 168.810871 
L 560.265375 180.283079 
L 569.713825 191.507528 
L 579.162275 201.410021 
L 588.610725 209.951638 
L 598.059175 217.40846 
L 607.507625 223.717677 
L 616.956075 228.856479 
L 626.404525 233.4633 
L 635.852975 234.592283 
L 645.301425 215.174323 
L 654.749875 188.877146 
L 664.198325 206.035762 
L 673.646775 241.572628 
L 683.095225 254.409363 
L 692.543675 258.279076 
L 701.992125 260.923888 
L 711.440575 263.00798 
L 720.889025 264.888561 
L 730.337475 266.496716 
L 739.785925 267.652043 
L 749.234375 268.743306 
L 758.682825 269.85265 
L 768.131275 270.971874 
L 777.579725 271.815199 
L 787.028175 272.329037 
L 796.476625 272.770607 
L 805.925075 273.119912 
L 815.373525 273.390063 
L 824.821975 273.561782 
L 834.270425 273.67644 
L 843.718875 273.78092 
L 853.167325 273.844387 
L 862.615775 273.877138 
L 872.064225 273.900788 
L 881.512675 273.918271 
L 890.961125 273.93324 
L 900.409575 273.947789 
L 909.858025 273.958387 
L 919.306475 273.965631 
L 928.754925 273.97084 
L 938.203375 273.976708 
L 947.651825 273.979223 
L 957.100275 273.981917 
L 966.548725 273.984911 
L 975.997175 273.987126 
L 985.445625 273.989042 
" style="fill:none;stroke:#f0ad4e;stroke-linecap:square;"/>
   </g>
   <g id="line2d_11">
    <path clip-path="url(#p3702789a0e)" d="M 40.600625 273.9776 
L 50.049075 273.960947 
L 59.497525 273.881633 
L 68.945975 273.728818 
L 78.394425 273.563123 
L 87.842875 273.430854 
L 97.291325 273.318115 
L 106.739775 273.204836 
L 116.188225 273.091617 
L 125.636675 272.965758 
L 135.085125 272.840019 
L 144.533575 272.678398 
L 153.982025 272.479635 
L 163.430475 272.258289 
L 172.878925 271.935586 
L 182.327375 271.475581 
L 191.775825 270.864199 
L 201.224275 269.978875 
L 210.672725 268.609105 
L 220.121175 266.59896 
L 229.569625 263.76621 
L 239.018075 259.81439 
L 248.466525 254.394018 
L 257.914975 247.038561 
L 267.363425 237.553929 
L 276.811875 225.524088 
L 286.260325 210.899495 
L 295.708775 193.763959 
L 305.157225 174.226384 
L 314.605675 153.385293 
L 324.054125 132.97108 
L 333.502575 113.002733 
L 342.951025 92.59469 
L 352.399475 74.560171 
L 361.847925 61.855868 
L 371.296375 54.124932 
L 380.744825 49.517101 
L 390.193275 48.838626 
L 399.641725 51.727985 
L 409.090175 54.220778 
L 418.538625 55.583779 
L 427.987075 56.581184 
L 437.435525 57.94053 
L 446.883975 60.748479 
L 456.332425 65.592333 
L 465.780875 72.270034 
L 475.229325 80.341945 
L 484.677775 89.677835 
L 494.126225 99.568617 
L 503.574675 110.594884 
L 513.023125 122.135907 
L 522.471575 134.286336 
L 531.920025 147.193595 
L 541.368475 159.431664 
L 550.816925 170.812264 
L 560.265375 181.916346 
L 569.713825 192.727736 
L 579.162275 202.512788 
L 588.610725 210.807542 
L 598.059175 217.81849 
L 607.507625 223.812864 
L 616.956075 228.66175 
L 626.404525 233.155403 
L 635.852975 237.61575 
L 645.301425 241.426556 
L 654.749875 244.260324 
L 664.198325 246.469471 
L 673.646775 248.329976 
L 683.095225 250.140221 
L 692.543675 251.882055 
L 701.992125 253.466042 
L 711.440575 254.778004 
L 720.889025 256.045337 
L 730.337475 257.294939 
L 739.785925 258.515307 
L 749.234375 259.880045 
L 758.682825 261.436476 
L 768.131275 263.280028 
L 777.579725 265.044686 
L 787.028175 266.603093 
L 796.476625 268.06811 
L 805.925075 269.368391 
L 815.373525 270.476259 
L 824.821975 271.359667 
L 834.270425 272.033709 
L 843.718875 272.5517 
L 853.167325 272.909628 
L 862.615775 273.148885 
L 872.064225 273.312244 
L 881.512675 273.40851 
L 890.961125 273.474884 
L 900.409575 273.518434 
L 909.858025 273.54587 
L 919.306475 273.567616 
L 928.754925 273.577739 
L 938.203375 273.576002 
L 947.651825 273.553538 
L 957.100275 273.5149 
L 966.548725 273.44631 
L 975.997175 273.268754 
L 985.445625 270.495009 
" style="fill:none;stroke:#f0ad4e;stroke-linecap:square;"/>
   </g>
   <g id="line2d_12">
    <path clip-path="url(#p3702789a0e)" d="M 40.600625 273.988682 
L 50.049075 273.988177 
L 59.497525 273.987855 
L 68.945975 273.986385 
L 78.394425 273.983078 
L 87.842875 273.979357 
L 97.291325 273.971134 
L 106.739775 273.957996 
L 116.188225 273.944582 
L 125.636675 273.9212 
L 135.085125 273.881419 
L 144.533575 273.834058 
L 153.982025 273.765749 
L 163.430475 273.657567 
L 172.878925 273.490678 
L 182.327375 273.245098 
L 191.775825 272.860375 
L 201.224275 272.249688 
L 210.672725 271.314317 
L 220.121175 269.880896 
L 229.569625 267.67803 
L 239.018075 264.42132 
L 248.466525 259.746487 
L 257.914975 253.118823 
L 267.363425 244.112215 
L 276.811875 232.369917 
L 286.260325 217.568989 
L 295.708775 199.574929 
L 305.157225 178.708975 
L 314.605675 156.111882 
L 324.054125 134.183312 
L 333.502575 112.925101 
L 342.951025 91.152808 
L 352.399475 71.80342 
L 361.847925 57.652962 
L 371.296375 48.662984 
L 380.744825 43.347374 
L 390.193275 43.030776 
L 399.641725 46.435908 
L 409.090175 48.962401 
L 418.538625 50.300457 
L 427.987075 51.245337 
L 437.435525 52.220627 
L 446.883975 54.115302 
L 456.332425 58.169846 
L 465.780875 64.37149 
L 475.229325 72.306937 
L 484.677775 81.381348 
L 494.126225 91.231452 
L 503.574675 102.401421 
L 513.023125 113.818669 
L 522.471575 126.159114 
L 531.920025 139.670496 
L 541.368475 152.899778 
L 550.816925 165.145042 
L 560.265375 177.033466 
L 569.713825 188.959008 
L 579.162275 199.81077 
L 588.610725 209.367383 
L 598.059175 217.694719 
L 607.507625 224.744775 
L 616.956075 230.682004 
L 626.404525 236.234787 
L 635.852975 240.508497 
L 645.301425 235.020808 
L 654.749875 211.279514 
L 664.198325 216.999369 
L 673.646775 248.686124 
L 683.095225 259.597284 
L 692.543675 262.258143 
L 701.992125 264.226593 
L 711.440575 265.726439 
L 720.889025 267.035462 
L 730.337475 268.145945 
L 739.785925 268.864538 
L 749.234375 269.556167 
L 758.682825 270.304482 
L 768.131275 271.189138 
L 777.579725 271.857018 
L 787.028175 272.226627 
L 796.476625 272.567435 
L 805.925075 272.881874 
L 815.373525 273.164387 
L 824.821975 273.404546 
L 834.270425 273.608001 
L 843.718875 273.759594 
L 853.167325 273.826019 
L 862.615775 273.86185 
L 872.064225 273.889044 
L 881.512675 273.910451 
L 890.961125 273.929653 
L 900.409575 273.941183 
L 909.858025 273.952438 
L 919.306475 273.963968 
L 928.754925 273.971823 
L 938.203375 273.977335 
L 947.651825 273.980827 
L 957.100275 273.984042 
L 966.548725 273.985328 
L 975.997175 273.986844 
L 985.445625 273.989095 
" style="fill:none;stroke:#f0ad4e;stroke-linecap:square;"/>
   </g>
   <g id="line2d_13">
    <path clip-path="url(#p3702789a0e)" d="M 40.600625 273.975722 
L 50.049075 273.957706 
L 59.497525 273.884911 
L 68.945975 273.745846 
L 78.394425 273.595568 
L 87.842875 273.467257 
L 97.291325 273.356685 
L 106.739775 273.259992 
L 116.188225 273.159347 
L 125.636675 273.052774 
L 135.085125 272.93563 
L 144.533575 272.809433 
L 153.982025 272.681719 
L 163.430475 272.519217 
L 172.878925 272.286354 
L 182.327375 271.945034 
L 191.775825 271.483077 
L 201.224275 270.795428 
L 210.672725 269.725786 
L 220.121175 268.088395 
L 229.569625 265.627645 
L 239.018075 262.106215 
L 248.466525 257.042846 
L 257.914975 250.01368 
L 267.363425 240.615585 
L 276.811875 228.424244 
L 286.260325 213.311712 
L 295.708775 195.45621 
L 305.157225 175.095886 
L 314.605675 153.235443 
L 324.054125 131.956077 
L 333.502575 110.843165 
L 342.951025 89.345229 
L 352.399475 70.599087 
L 361.847925 56.890485 
L 371.296375 48.630324 
L 380.744825 44.333421 
L 390.193275 44.110761 
L 399.641725 47.109112 
L 409.090175 49.738294 
L 418.538625 51.216031 
L 427.987075 52.172527 
L 437.435525 53.704217 
L 446.883975 56.261293 
L 456.332425 60.878928 
L 465.780875 67.263873 
L 475.229325 75.157254 
L 484.677775 84.759764 
L 494.126225 94.668851 
L 503.574675 105.641375 
L 513.023125 117.327423 
L 522.471575 129.702591 
L 531.920025 142.991148 
L 541.368475 155.771241 
L 550.816925 167.52365 
L 560.265375 179.039888 
L 569.713825 190.559342 
L 579.162275 201.120922 
L 588.610725 210.387259 
L 598.059175 218.333077 
L 607.507625 225.069407 
L 616.956075 230.874562 
L 626.404525 236.229067 
L 635.852975 241.478054 
L 645.301425 246.219175 
L 654.749875 249.691064 
L 664.198325 252.28996 
L 673.646775 254.569871 
L 683.095225 256.518802 
L 692.543675 258.196496 
L 701.992125 259.636916 
L 711.440575 260.611198 
L 720.889025 261.421414 
L 730.337475 262.120185 
L 739.785925 262.72401 
L 749.234375 263.487994 
L 758.682825 264.437597 
L 768.131275 265.638307 
L 777.579725 266.804228 
L 787.028175 267.876719 
L 796.476625 268.927702 
L 805.925075 269.875053 
L 815.373525 270.773093 
L 824.821975 271.559641 
L 834.270425 272.187869 
L 843.718875 272.662739 
L 853.167325 272.979335 
L 862.615775 273.189449 
L 872.064225 273.351906 
L 881.512675 273.457928 
L 890.961125 273.518866 
L 900.409575 273.571533 
L 909.858025 273.607425 
L 919.306475 273.624245 
L 928.754925 273.636056 
L 938.203375 273.641157 
L 947.651825 273.628105 
L 957.100275 273.608528 
L 966.548725 273.565604 
L 975.997175 273.424655 
L 985.445625 271.061149 
" style="fill:none;stroke:#f0ad4e;stroke-linecap:square;"/>
   </g>
   <g id="line2d_14">
    <path clip-path="url(#p3702789a0e)" d="M 40.600625 273.99006 
L 985.445625 273.99006 
" style="fill:none;stroke:#dedede;stroke-linecap:square;stroke-width:2;"/>
   </g>
   <g id="text_18">
    <!-- FastQC: Per Sequence GC Content -->
    <defs>
     <path d="M 9.8125 72.90625 
L 51.703125 72.90625 
L 51.703125 64.59375 
L 19.671875 64.59375 
L 19.671875 43.109375 
L 48.578125 43.109375 
L 48.578125 34.8125 
L 19.671875 34.8125 
L 19.671875 0 
L 9.8125 0 
z
" id="DejaVuSans-70"/>
     <path d="M 44.28125 53.078125 
L 44.28125 44.578125 
Q 40.484375 46.53125 36.375 47.5 
Q 32.28125 48.484375 27.875 48.484375 
Q 21.1875 48.484375 17.84375 46.4375 
Q 14.5 44.390625 14.5 40.28125 
Q 14.5 37.15625 16.890625 35.375 
Q 19.28125 33.59375 26.515625 31.984375 
L 29.59375 31.296875 
Q 39.15625 29.25 43.1875 25.515625 
Q 47.21875 21.78125 47.21875 15.09375 
Q 47.21875 7.46875 41.1875 3.015625 
Q 35.15625 -1.421875 24.609375 -1.421875 
Q 20.21875 -1.421875 15.453125 -0.5625 
Q 10.6875 0.296875 5.421875 2 
L 5.421875 11.28125 
Q 10.40625 8.6875 15.234375 7.390625 
Q 20.0625 6.109375 24.8125 6.109375 
Q 31.15625 6.109375 34.5625 8.28125 
Q 37.984375 10.453125 37.984375 14.40625 
Q 37.984375 18.0625 35.515625 20.015625 
Q 33.0625 21.96875 24.703125 23.78125 
L 21.578125 24.515625 
Q 13.234375 26.265625 9.515625 29.90625 
Q 5.8125 33.546875 5.8125 39.890625 
Q 5.8125 47.609375 11.28125 51.796875 
Q 16.75 56 26.8125 56 
Q 31.78125 56 36.171875 55.265625 
Q 40.578125 54.546875 44.28125 53.078125 
z
" id="DejaVuSans-115"/>
     <path d="M 39.40625 66.21875 
Q 28.65625 66.21875 22.328125 58.203125 
Q 16.015625 50.203125 16.015625 36.375 
Q 16.015625 22.609375 22.328125 14.59375 
Q 28.65625 6.59375 39.40625 6.59375 
Q 50.140625 6.59375 56.421875 14.59375 
Q 62.703125 22.609375 62.703125 36.375 
Q 62.703125 50.203125 56.421875 58.203125 
Q 50.140625 66.21875 39.40625 66.21875 
z
M 53.21875 1.3125 
L 66.21875 -12.890625 
L 54.296875 -12.890625 
L 43.5 -1.21875 
Q 41.890625 -1.3125 41.03125 -1.359375 
Q 40.1875 -1.421875 39.40625 -1.421875 
Q 24.03125 -1.421875 14.8125 8.859375 
Q 5.609375 19.140625 5.609375 36.375 
Q 5.609375 53.65625 14.8125 63.9375 
Q 24.03125 74.21875 39.40625 74.21875 
Q 54.734375 74.21875 63.90625 63.9375 
Q 73.09375 53.65625 73.09375 36.375 
Q 73.09375 23.6875 67.984375 14.640625 
Q 62.890625 5.609375 53.21875 1.3125 
z
" id="DejaVuSans-81"/>
     <path d="M 11.71875 12.40625 
L 22.015625 12.40625 
L 22.015625 0 
L 11.71875 0 
z
M 11.71875 51.703125 
L 22.015625 51.703125 
L 22.015625 39.3125 
L 11.71875 39.3125 
z
" id="DejaVuSans-58"/>
     <path d="M 53.515625 70.515625 
L 53.515625 60.890625 
Q 47.90625 63.578125 42.921875 64.890625 
Q 37.9375 66.21875 33.296875 66.21875 
Q 25.25 66.21875 20.875 63.09375 
Q 16.5 59.96875 16.5 54.203125 
Q 16.5 49.359375 19.40625 46.890625 
Q 22.3125 44.4375 30.421875 42.921875 
L 36.375 41.703125 
Q 47.40625 39.59375 52.65625 34.296875 
Q 57.90625 29 57.90625 20.125 
Q 57.90625 9.515625 50.796875 4.046875 
Q 43.703125 -1.421875 29.984375 -1.421875 
Q 24.8125 -1.421875 18.96875 -0.25 
Q 13.140625 0.921875 6.890625 3.21875 
L 6.890625 13.375 
Q 12.890625 10.015625 18.65625 8.296875 
Q 24.421875 6.59375 29.984375 6.59375 
Q 38.421875 6.59375 43.015625 9.90625 
Q 47.609375 13.234375 47.609375 19.390625 
Q 47.609375 24.75 44.3125 27.78125 
Q 41.015625 30.8125 33.5 32.328125 
L 27.484375 33.5 
Q 16.453125 35.6875 11.515625 40.375 
Q 6.59375 45.0625 6.59375 53.421875 
Q 6.59375 63.09375 13.40625 68.65625 
Q 20.21875 74.21875 32.171875 74.21875 
Q 37.3125 74.21875 42.625 73.28125 
Q 47.953125 72.359375 53.515625 70.515625 
z
" id="DejaVuSans-83"/>
     <path d="M 14.796875 27.296875 
Q 14.796875 17.390625 18.875 11.75 
Q 22.953125 6.109375 30.078125 6.109375 
Q 37.203125 6.109375 41.296875 11.75 
Q 45.40625 17.390625 45.40625 27.296875 
Q 45.40625 37.203125 41.296875 42.84375 
Q 37.203125 48.484375 30.078125 48.484375 
Q 22.953125 48.484375 18.875 42.84375 
Q 14.796875 37.203125 14.796875 27.296875 
z
M 45.40625 8.203125 
Q 42.578125 3.328125 38.25 0.953125 
Q 33.9375 -1.421875 27.875 -1.421875 
Q 17.96875 -1.421875 11.734375 6.484375 
Q 5.515625 14.40625 5.515625 27.296875 
Q 5.515625 40.1875 11.734375 48.09375 
Q 17.96875 56 27.875 56 
Q 33.9375 56 38.25 53.625 
Q 42.578125 51.265625 45.40625 46.390625 
L 45.40625 54.6875 
L 54.390625 54.6875 
L 54.390625 -20.796875 
L 45.40625 -20.796875 
z
" id="DejaVuSans-113"/>
     <path d="M 8.5 21.578125 
L 8.5 54.6875 
L 17.484375 54.6875 
L 17.484375 21.921875 
Q 17.484375 14.15625 20.5 10.265625 
Q 23.53125 6.390625 29.59375 6.390625 
Q 36.859375 6.390625 41.078125 11.03125 
Q 45.3125 15.671875 45.3125 23.6875 
L 45.3125 54.6875 
L 54.296875 54.6875 
L 54.296875 0 
L 45.3125 0 
L 45.3125 8.40625 
Q 42.046875 3.421875 37.71875 1 
Q 33.40625 -1.421875 27.6875 -1.421875 
Q 18.265625 -1.421875 13.375 4.4375 
Q 8.5 10.296875 8.5 21.578125 
z
M 31.109375 56 
z
" id="DejaVuSans-117"/>
     <path d="M 30.609375 48.390625 
Q 23.390625 48.390625 19.1875 42.75 
Q 14.984375 37.109375 14.984375 27.296875 
Q 14.984375 17.484375 19.15625 11.84375 
Q 23.34375 6.203125 30.609375 6.203125 
Q 37.796875 6.203125 41.984375 11.859375 
Q 46.1875 17.53125 46.1875 27.296875 
Q 46.1875 37.015625 41.984375 42.703125 
Q 37.796875 48.390625 30.609375 48.390625 
z
M 30.609375 56 
Q 42.328125 56 49.015625 48.375 
Q 55.71875 40.765625 55.71875 27.296875 
Q 55.71875 13.875 49.015625 6.21875 
Q 42.328125 -1.421875 30.609375 -1.421875 
Q 18.84375 -1.421875 12.171875 6.21875 
Q 5.515625 13.875 5.515625 27.296875 
Q 5.515625 40.765625 12.171875 48.375 
Q 18.84375 56 30.609375 56 
z
" id="DejaVuSans-111"/>
    </defs>
    <g transform="translate(375.381875 19.3575)scale(0.16 -0.16)">
     <use xlink:href="#DejaVuSans-70"/>
     <use x="57.378906" xlink:href="#DejaVuSans-97"/>
     <use x="118.658203" xlink:href="#DejaVuSans-115"/>
     <use x="170.757812" xlink:href="#DejaVuSans-116"/>
     <use x="209.966797" xlink:href="#DejaVuSans-81"/>
     <use x="288.677734" xlink:href="#DejaVuSans-67"/>
     <use x="358.501953" xlink:href="#DejaVuSans-58"/>
     <use x="392.193359" xlink:href="#DejaVuSans-32"/>
     <use x="423.980469" xlink:href="#DejaVuSans-80"/>
     <use x="484.236328" xlink:href="#DejaVuSans-101"/>
     <use x="545.759766" xlink:href="#DejaVuSans-114"/>
     <use x="586.873047" xlink:href="#DejaVuSans-32"/>
     <use x="618.660156" xlink:href="#DejaVuSans-83"/>
     <use x="682.136719" xlink:href="#DejaVuSans-101"/>
     <use x="743.660156" xlink:href="#DejaVuSans-113"/>
     <use x="807.136719" xlink:href="#DejaVuSans-117"/>
     <use x="870.515625" xlink:href="#DejaVuSans-101"/>
     <use x="932.039062" xlink:href="#DejaVuSans-110"/>
     <use x="995.417969" xlink:href="#DejaVuSans-99"/>
     <use x="1050.398438" xlink:href="#DejaVuSans-101"/>
     <use x="1111.921875" xlink:href="#DejaVuSans-32"/>
     <use x="1143.708984" xlink:href="#DejaVuSans-71"/>
     <use x="1221.199219" xlink:href="#DejaVuSans-67"/>
     <use x="1291.023438" xlink:href="#DejaVuSans-32"/>
     <use x="1322.810547" xlink:href="#DejaVuSans-67"/>
     <use x="1392.634766" xlink:href="#DejaVuSans-111"/>
     <use x="1453.816406" xlink:href="#DejaVuSans-110"/>
     <use x="1517.195312" xlink:href="#DejaVuSans-116"/>
     <use x="1556.404297" xlink:href="#DejaVuSans-101"/>
     <use x="1617.927734" xlink:href="#DejaVuSans-110"/>
     <use x="1681.306641" xlink:href="#DejaVuSans-116"/>
    </g>
   </g>
   <g id="legend_1">
    <g id="line2d_15">
     <path d="M 47.800625 315.455394 
L 63.800625 315.455394 
" style="fill:none;stroke:#f0ad4e;stroke-linecap:square;"/>
    </g>
    <g id="line2d_16"/>
    <g id="text_19">
     <!-- Psq-CGal_005-Ex1-4A-ssl-1-1.1 -->
     <defs>
      <path d="M 4.890625 31.390625 
L 31.203125 31.390625 
L 31.203125 23.390625 
L 4.890625 23.390625 
z
" id="DejaVuSans-45"/>
      <path d="M 9.421875 75.984375 
L 18.40625 75.984375 
L 18.40625 0 
L 9.421875 0 
z
" id="DejaVuSans-108"/>
      <path d="M 50.984375 -16.609375 
L 50.984375 -23.578125 
L -0.984375 -23.578125 
L -0.984375 -16.609375 
z
" id="DejaVuSans-95"/>
      <path d="M 9.8125 72.90625 
L 55.90625 72.90625 
L 55.90625 64.59375 
L 19.671875 64.59375 
L 19.671875 43.015625 
L 54.390625 43.015625 
L 54.390625 34.71875 
L 19.671875 34.71875 
L 19.671875 8.296875 
L 56.78125 8.296875 
L 56.78125 0 
L 9.8125 0 
z
" id="DejaVuSans-69"/>
      <path d="M 54.890625 54.6875 
L 35.109375 28.078125 
L 55.90625 0 
L 45.3125 0 
L 29.390625 21.484375 
L 13.484375 0 
L 2.875 0 
L 24.125 28.609375 
L 4.6875 54.6875 
L 15.28125 54.6875 
L 29.78125 35.203125 
L 44.28125 54.6875 
z
" id="DejaVuSans-120"/>
      <path d="M 34.1875 63.1875 
L 20.796875 26.90625 
L 47.609375 26.90625 
z
M 28.609375 72.90625 
L 39.796875 72.90625 
L 67.578125 0 
L 57.328125 0 
L 50.6875 18.703125 
L 17.828125 18.703125 
L 11.1875 0 
L 0.78125 0 
z
" id="DejaVuSans-65"/>
     </defs>
     <g transform="translate(70.200625 318.255394)scale(0.08 -0.08)">
      <use xlink:href="#DejaVuSans-80"/>
      <use x="60.287109" xlink:href="#DejaVuSans-115"/>
      <use x="112.386719" xlink:href="#DejaVuSans-113"/>
      <use x="175.863281" xlink:href="#DejaVuSans-45"/>
      <use x="211.947266" xlink:href="#DejaVuSans-67"/>
      <use x="281.771484" xlink:href="#DejaVuSans-71"/>
      <use x="359.261719" xlink:href="#DejaVuSans-97"/>
      <use x="420.541016" xlink:href="#DejaVuSans-108"/>
      <use x="448.324219" xlink:href="#DejaVuSans-95"/>
      <use x="498.324219" xlink:href="#DejaVuSans-48"/>
      <use x="561.947266" xlink:href="#DejaVuSans-48"/>
      <use x="625.570312" xlink:href="#DejaVuSans-53"/>
      <use x="689.193359" xlink:href="#DejaVuSans-45"/>
      <use x="725.277344" xlink:href="#DejaVuSans-69"/>
      <use x="788.460938" xlink:href="#DejaVuSans-120"/>
      <use x="847.640625" xlink:href="#DejaVuSans-49"/>
      <use x="911.263672" xlink:href="#DejaVuSans-45"/>
      <use x="947.347656" xlink:href="#DejaVuSans-52"/>
      <use x="1010.970703" xlink:href="#DejaVuSans-65"/>
      <use x="1079.347656" xlink:href="#DejaVuSans-45"/>
      <use x="1115.431641" xlink:href="#DejaVuSans-115"/>
      <use x="1167.53125" xlink:href="#DejaVuSans-115"/>
      <use x="1219.630859" xlink:href="#DejaVuSans-108"/>
      <use x="1247.414062" xlink:href="#DejaVuSans-45"/>
      <use x="1283.498047" xlink:href="#DejaVuSans-49"/>
      <use x="1347.121094" xlink:href="#DejaVuSans-45"/>
      <use x="1383.205078" xlink:href="#DejaVuSans-49"/>
      <use x="1446.828125" xlink:href="#DejaVuSans-46"/>
      <use x="1478.615234" xlink:href="#DejaVuSans-49"/>
     </g>
    </g>
    <g id="line2d_17">
     <path d="M 309.356875 315.455394 
L 325.356875 315.455394 
" style="fill:none;stroke:#f0ad4e;stroke-linecap:square;"/>
    </g>
    <g id="line2d_18"/>
    <g id="text_20">
     <!-- Psq-CGal_005-Ex1-4A-ssl-1-1.2 -->
     <g transform="translate(331.756875 318.255394)scale(0.08 -0.08)">
      <use xlink:href="#DejaVuSans-80"/>
      <use x="60.287109" xlink:href="#DejaVuSans-115"/>
      <use x="112.386719" xlink:href="#DejaVuSans-113"/>
      <use x="175.863281" xlink:href="#DejaVuSans-45"/>
      <use x="211.947266" xlink:href="#DejaVuSans-67"/>
      <use x="281.771484" xlink:href="#DejaVuSans-71"/>
      <use x="359.261719" xlink:href="#DejaVuSans-97"/>
      <use x="420.541016" xlink:href="#DejaVuSans-108"/>
      <use x="448.324219" xlink:href="#DejaVuSans-95"/>
      <use x="498.324219" xlink:href="#DejaVuSans-48"/>
      <use x="561.947266" xlink:href="#DejaVuSans-48"/>
      <use x="625.570312" xlink:href="#DejaVuSans-53"/>
      <use x="689.193359" xlink:href="#DejaVuSans-45"/>
      <use x="725.277344" xlink:href="#DejaVuSans-69"/>
      <use x="788.460938" xlink:href="#DejaVuSans-120"/>
      <use x="847.640625" xlink:href="#DejaVuSans-49"/>
      <use x="911.263672" xlink:href="#DejaVuSans-45"/>
      <use x="947.347656" xlink:href="#DejaVuSans-52"/>
      <use x="1010.970703" xlink:href="#DejaVuSans-65"/>
      <use x="1079.347656" xlink:href="#DejaVuSans-45"/>
      <use x="1115.431641" xlink:href="#DejaVuSans-115"/>
      <use x="1167.53125" xlink:href="#DejaVuSans-115"/>
      <use x="1219.630859" xlink:href="#DejaVuSans-108"/>
      <use x="1247.414062" xlink:href="#DejaVuSans-45"/>
      <use x="1283.498047" xlink:href="#DejaVuSans-49"/>
      <use x="1347.121094" xlink:href="#DejaVuSans-45"/>
      <use x="1383.205078" xlink:href="#DejaVuSans-49"/>
      <use x="1446.828125" xlink:href="#DejaVuSans-46"/>
      <use x="1478.615234" xlink:href="#DejaVuSans-50"/>
     </g>
    </g>
    <g id="line2d_19">
     <path d="M 570.913125 315.455394 
L 586.913125 315.455394 
" style="fill:none;stroke:#f0ad4e;stroke-linecap:square;"/>
    </g>
    <g id="line2d_20"/>
    <g id="text_21">
     <!-- Psq-CGal_005-Ex1-5A-ssl-1-1.1 -->
     <g transform="translate(593.313125 318.255394)scale(0.08 -0.08)">
      <use xlink:href="#DejaVuSans-80"/>
      <use x="60.287109" xlink:href="#DejaVuSans-115"/>
      <use x="112.386719" xlink:href="#DejaVuSans-113"/>
      <use x="175.863281" xlink:href="#DejaVuSans-45"/>
      <use x="211.947266" xlink:href="#DejaVuSans-67"/>
      <use x="281.771484" xlink:href="#DejaVuSans-71"/>
      <use x="359.261719" xlink:href="#DejaVuSans-97"/>
      <use x="420.541016" xlink:href="#DejaVuSans-108"/>
      <use x="448.324219" xlink:href="#DejaVuSans-95"/>
      <use x="498.324219" xlink:href="#DejaVuSans-48"/>
      <use x="561.947266" xlink:href="#DejaVuSans-48"/>
      <use x="625.570312" xlink:href="#DejaVuSans-53"/>
      <use x="689.193359" xlink:href="#DejaVuSans-45"/>
      <use x="725.277344" xlink:href="#DejaVuSans-69"/>
      <use x="788.460938" xlink:href="#DejaVuSans-120"/>
      <use x="847.640625" xlink:href="#DejaVuSans-49"/>
      <use x="911.263672" xlink:href="#DejaVuSans-45"/>
      <use x="947.347656" xlink:href="#DejaVuSans-53"/>
      <use x="1010.970703" xlink:href="#DejaVuSans-65"/>
      <use x="1079.347656" xlink:href="#DejaVuSans-45"/>
      <use x="1115.431641" xlink:href="#DejaVuSans-115"/>
      <use x="1167.53125" xlink:href="#DejaVuSans-115"/>
      <use x="1219.630859" xlink:href="#DejaVuSans-108"/>
      <use x="1247.414062" xlink:href="#DejaVuSans-45"/>
      <use x="1283.498047" xlink:href="#DejaVuSans-49"/>
      <use x="1347.121094" xlink:href="#DejaVuSans-45"/>
      <use x="1383.205078" xlink:href="#DejaVuSans-49"/>
      <use x="1446.828125" xlink:href="#DejaVuSans-46"/>
      <use x="1478.615234" xlink:href="#DejaVuSans-49"/>
     </g>
    </g>
    <g id="line2d_21">
     <path d="M 832.469375 315.455394 
L 848.469375 315.455394 
" style="fill:none;stroke:#f0ad4e;stroke-linecap:square;"/>
    </g>
    <g id="line2d_22"/>
    <g id="text_22">
     <!-- Psq-CGal_005-Ex1-5A-ssl-1-1.2 -->
     <g transform="translate(854.869375 318.255394)scale(0.08 -0.08)">
      <use xlink:href="#DejaVuSans-80"/>
      <use x="60.287109" xlink:href="#DejaVuSans-115"/>
      <use x="112.386719" xlink:href="#DejaVuSans-113"/>
      <use x="175.863281" xlink:href="#DejaVuSans-45"/>
      <use x="211.947266" xlink:href="#DejaVuSans-67"/>
      <use x="281.771484" xlink:href="#DejaVuSans-71"/>
      <use x="359.261719" xlink:href="#DejaVuSans-97"/>
      <use x="420.541016" xlink:href="#DejaVuSans-108"/>
      <use x="448.324219" xlink:href="#DejaVuSans-95"/>
      <use x="498.324219" xlink:href="#DejaVuSans-48"/>
      <use x="561.947266" xlink:href="#DejaVuSans-48"/>
      <use x="625.570312" xlink:href="#DejaVuSans-53"/>
      <use x="689.193359" xlink:href="#DejaVuSans-45"/>
      <use x="725.277344" xlink:href="#DejaVuSans-69"/>
      <use x="788.460938" xlink:href="#DejaVuSans-120"/>
      <use x="847.640625" xlink:href="#DejaVuSans-49"/>
      <use x="911.263672" xlink:href="#DejaVuSans-45"/>
      <use x="947.347656" xlink:href="#DejaVuSans-53"/>
      <use x="1010.970703" xlink:href="#DejaVuSans-65"/>
      <use x="1079.347656" xlink:href="#DejaVuSans-45"/>
      <use x="1115.431641" xlink:href="#DejaVuSans-115"/>
      <use x="1167.53125" xlink:href="#DejaVuSans-115"/>
      <use x="1219.630859" xlink:href="#DejaVuSans-108"/>
      <use x="1247.414062" xlink:href="#DejaVuSans-45"/>
      <use x="1283.498047" xlink:href="#DejaVuSans-49"/>
      <use x="1347.121094" xlink:href="#DejaVuSans-45"/>
      <use x="1383.205078" xlink:href="#DejaVuSans-49"/>
      <use x="1446.828125" xlink:href="#DejaVuSans-46"/>
      <use x="1478.615234" xlink:href="#DejaVuSans-50"/>
     </g>
    </g>
   </g>
  </g>
 </g>
 <defs>
  <clipPath id="p3702789a0e">
   <rect height="242.5072" width="944.845" x="40.600625" y="31.48286"/>
  </clipPath>
 </defs>
</svg>
