<?xml version="1.0" encoding="utf-8" standalone="no"?>
<!DOCTYPE svg PUBLIC "-//W3C//DTD SVG 1.1//EN"
  "http://www.w3.org/Graphics/SVG/1.1/DTD/svg11.dtd">
<!-- Created with matplotlib (https://matplotlib.org/) -->
<svg height="330.541644pt" version="1.1" viewBox="0 0 1000.058125 330.541644" width="1000.058125pt" xmlns="http://www.w3.org/2000/svg" xmlns:xlink="http://www.w3.org/1999/xlink">
 <defs>
  <style type="text/css">
*{stroke-linecap:butt;stroke-linejoin:round;}
  </style>
 </defs>
 <g id="figure_1">
  <g id="axes_1">
   <g id="patch_1">
    <path d="M 63.508125 273.99006 
L 985.223125 273.99006 
L 985.223125 31.48286 
L 63.508125 31.48286 
z
" style="fill:#ffffff;"/>
   </g>
   <g id="matplotlib.axis_1">
    <g id="xtick_1">
     <g id="text_1">
      <!-- 0 -->
      <defs>
       <path d="M 31.78125 66.40625 
Q 24.171875 66.40625 20.328125 58.90625 
Q 16.5 51.421875 16.5 36.375 
Q 16.5 21.390625 20.328125 13.890625 
Q 24.171875 6.390625 31.78125 6.390625 
Q 39.453125 6.390625 43.28125 13.890625 
Q 47.125 21.390625 47.125 36.375 
Q 47.125 51.421875 43.28125 58.90625 
Q 39.453125 66.40625 31.78125 66.40625 
z
M 31.78125 74.21875 
Q 44.046875 74.21875 50.515625 64.515625 
Q 56.984375 54.828125 56.984375 36.375 
Q 56.984375 17.96875 50.515625 8.265625 
Q 44.046875 -1.421875 31.78125 -1.421875 
Q 19.53125 -1.421875 13.0625 8.265625 
Q 6.59375 17.96875 6.59375 36.375 
Q 6.59375 54.828125 13.0625 64.515625 
Q 19.53125 74.21875 31.78125 74.21875 
z
" id="DejaVuSans-48"/>
      </defs>
      <g transform="translate(60.963125 287.06881)scale(0.08 -0.08)">
       <use xlink:href="#DejaVuSans-48"/>
      </g>
     </g>
    </g>
    <g id="xtick_2">
     <g id="text_2">
      <!-- 20 -->
      <defs>
       <path d="M 19.1875 8.296875 
L 53.609375 8.296875 
L 53.609375 0 
L 7.328125 0 
L 7.328125 8.296875 
Q 12.9375 14.109375 22.625 23.890625 
Q 32.328125 33.6875 34.8125 36.53125 
Q 39.546875 41.84375 41.421875 45.53125 
Q 43.3125 49.21875 43.3125 52.78125 
Q 43.3125 58.59375 39.234375 62.25 
Q 35.15625 65.921875 28.609375 65.921875 
Q 23.96875 65.921875 18.8125 64.3125 
Q 13.671875 62.703125 7.8125 59.421875 
L 7.8125 69.390625 
Q 13.765625 71.78125 18.9375 73 
Q 24.125 74.21875 28.421875 74.21875 
Q 39.75 74.21875 46.484375 68.546875 
Q 53.21875 62.890625 53.21875 53.421875 
Q 53.21875 48.921875 51.53125 44.890625 
Q 49.859375 40.875 45.40625 35.40625 
Q 44.1875 33.984375 37.640625 27.21875 
Q 31.109375 20.453125 19.1875 8.296875 
z
" id="DejaVuSans-50"/>
      </defs>
      <g transform="translate(242.761125 287.06881)scale(0.08 -0.08)">
       <use xlink:href="#DejaVuSans-50"/>
       <use x="63.623047" xlink:href="#DejaVuSans-48"/>
      </g>
     </g>
    </g>
    <g id="xtick_3">
     <g id="text_3">
      <!-- 40 -->
      <defs>
       <path d="M 37.796875 64.3125 
L 12.890625 25.390625 
L 37.796875 25.390625 
z
M 35.203125 72.90625 
L 47.609375 72.90625 
L 47.609375 25.390625 
L 58.015625 25.390625 
L 58.015625 17.1875 
L 47.609375 17.1875 
L 47.609375 0 
L 37.796875 0 
L 37.796875 17.1875 
L 4.890625 17.1875 
L 4.890625 26.703125 
z
" id="DejaVuSans-52"/>
      </defs>
      <g transform="translate(427.104125 287.06881)scale(0.08 -0.08)">
       <use xlink:href="#DejaVuSans-52"/>
       <use x="63.623047" xlink:href="#DejaVuSans-48"/>
      </g>
     </g>
    </g>
    <g id="xtick_4">
     <g id="text_4">
      <!-- 60 -->
      <defs>
       <path d="M 33.015625 40.375 
Q 26.375 40.375 22.484375 35.828125 
Q 18.609375 31.296875 18.609375 23.390625 
Q 18.609375 15.53125 22.484375 10.953125 
Q 26.375 6.390625 33.015625 6.390625 
Q 39.65625 6.390625 43.53125 10.953125 
Q 47.40625 15.53125 47.40625 23.390625 
Q 47.40625 31.296875 43.53125 35.828125 
Q 39.65625 40.375 33.015625 40.375 
z
M 52.59375 71.296875 
L 52.59375 62.3125 
Q 48.875 64.0625 45.09375 64.984375 
Q 41.3125 65.921875 37.59375 65.921875 
Q 27.828125 65.921875 22.671875 59.328125 
Q 17.53125 52.734375 16.796875 39.40625 
Q 19.671875 43.65625 24.015625 45.921875 
Q 28.375 48.1875 33.59375 48.1875 
Q 44.578125 48.1875 50.953125 41.515625 
Q 57.328125 34.859375 57.328125 23.390625 
Q 57.328125 12.15625 50.6875 5.359375 
Q 44.046875 -1.421875 33.015625 -1.421875 
Q 20.359375 -1.421875 13.671875 8.265625 
Q 6.984375 17.96875 6.984375 36.375 
Q 6.984375 53.65625 15.1875 63.9375 
Q 23.390625 74.21875 37.203125 74.21875 
Q 40.921875 74.21875 44.703125 73.484375 
Q 48.484375 72.75 52.59375 71.296875 
z
" id="DejaVuSans-54"/>
      </defs>
      <g transform="translate(611.447125 287.06881)scale(0.08 -0.08)">
       <use xlink:href="#DejaVuSans-54"/>
       <use x="63.623047" xlink:href="#DejaVuSans-48"/>
      </g>
     </g>
    </g>
    <g id="xtick_5">
     <g id="text_5">
      <!-- 80 -->
      <defs>
       <path d="M 31.78125 34.625 
Q 24.75 34.625 20.71875 30.859375 
Q 16.703125 27.09375 16.703125 20.515625 
Q 16.703125 13.921875 20.71875 10.15625 
Q 24.75 6.390625 31.78125 6.390625 
Q 38.8125 6.390625 42.859375 10.171875 
Q 46.921875 13.96875 46.921875 20.515625 
Q 46.921875 27.09375 42.890625 30.859375 
Q 38.875 34.625 31.78125 34.625 
z
M 21.921875 38.8125 
Q 15.578125 40.375 12.03125 44.71875 
Q 8.5 49.078125 8.5 55.328125 
Q 8.5 64.0625 14.71875 69.140625 
Q 20.953125 74.21875 31.78125 74.21875 
Q 42.671875 74.21875 48.875 69.140625 
Q 55.078125 64.0625 55.078125 55.328125 
Q 55.078125 49.078125 51.53125 44.71875 
Q 48 40.375 41.703125 38.8125 
Q 48.828125 37.15625 52.796875 32.3125 
Q 56.78125 27.484375 56.78125 20.515625 
Q 56.78125 9.90625 50.3125 4.234375 
Q 43.84375 -1.421875 31.78125 -1.421875 
Q 19.734375 -1.421875 13.25 4.234375 
Q 6.78125 9.90625 6.78125 20.515625 
Q 6.78125 27.484375 10.78125 32.3125 
Q 14.796875 37.15625 21.921875 38.8125 
z
M 18.3125 54.390625 
Q 18.3125 48.734375 21.84375 45.5625 
Q 25.390625 42.390625 31.78125 42.390625 
Q 38.140625 42.390625 41.71875 45.5625 
Q 45.3125 48.734375 45.3125 54.390625 
Q 45.3125 60.0625 41.71875 63.234375 
Q 38.140625 66.40625 31.78125 66.40625 
Q 25.390625 66.40625 21.84375 63.234375 
Q 18.3125 60.0625 18.3125 54.390625 
z
" id="DejaVuSans-56"/>
      </defs>
      <g transform="translate(795.790125 287.06881)scale(0.08 -0.08)">
       <use xlink:href="#DejaVuSans-56"/>
       <use x="63.623047" xlink:href="#DejaVuSans-48"/>
      </g>
     </g>
    </g>
    <g id="xtick_6">
     <g id="text_6">
      <!-- 100 -->
      <defs>
       <path d="M 12.40625 8.296875 
L 28.515625 8.296875 
L 28.515625 63.921875 
L 10.984375 60.40625 
L 10.984375 69.390625 
L 28.421875 72.90625 
L 38.28125 72.90625 
L 38.28125 8.296875 
L 54.390625 8.296875 
L 54.390625 0 
L 12.40625 0 
z
" id="DejaVuSans-49"/>
      </defs>
      <g transform="translate(977.588125 287.06881)scale(0.08 -0.08)">
       <use xlink:href="#DejaVuSans-49"/>
       <use x="63.623047" xlink:href="#DejaVuSans-48"/>
       <use x="127.246094" xlink:href="#DejaVuSans-48"/>
      </g>
     </g>
    </g>
    <g id="text_7">
     <!-- % GC -->
     <defs>
      <path d="M 72.703125 32.078125 
Q 68.453125 32.078125 66.03125 28.46875 
Q 63.625 24.859375 63.625 18.40625 
Q 63.625 12.0625 66.03125 8.421875 
Q 68.453125 4.78125 72.703125 4.78125 
Q 76.859375 4.78125 79.265625 8.421875 
Q 81.6875 12.0625 81.6875 18.40625 
Q 81.6875 24.8125 79.265625 28.4375 
Q 76.859375 32.078125 72.703125 32.078125 
z
M 72.703125 38.28125 
Q 80.421875 38.28125 84.953125 32.90625 
Q 89.5 27.546875 89.5 18.40625 
Q 89.5 9.28125 84.9375 3.921875 
Q 80.375 -1.421875 72.703125 -1.421875 
Q 64.890625 -1.421875 60.34375 3.921875 
Q 55.8125 9.28125 55.8125 18.40625 
Q 55.8125 27.59375 60.375 32.9375 
Q 64.9375 38.28125 72.703125 38.28125 
z
M 22.3125 68.015625 
Q 18.109375 68.015625 15.6875 64.375 
Q 13.28125 60.75 13.28125 54.390625 
Q 13.28125 47.953125 15.671875 44.328125 
Q 18.0625 40.71875 22.3125 40.71875 
Q 26.5625 40.71875 28.96875 44.328125 
Q 31.390625 47.953125 31.390625 54.390625 
Q 31.390625 60.6875 28.953125 64.34375 
Q 26.515625 68.015625 22.3125 68.015625 
z
M 66.40625 74.21875 
L 74.21875 74.21875 
L 28.609375 -1.421875 
L 20.796875 -1.421875 
z
M 22.3125 74.21875 
Q 30.03125 74.21875 34.609375 68.875 
Q 39.203125 63.53125 39.203125 54.390625 
Q 39.203125 45.171875 34.640625 39.84375 
Q 30.078125 34.515625 22.3125 34.515625 
Q 14.546875 34.515625 10.03125 39.859375 
Q 5.515625 45.21875 5.515625 54.390625 
Q 5.515625 63.484375 10.046875 68.84375 
Q 14.59375 74.21875 22.3125 74.21875 
z
" id="DejaVuSans-37"/>
      <path id="DejaVuSans-32"/>
      <path d="M 59.515625 10.40625 
L 59.515625 29.984375 
L 43.40625 29.984375 
L 43.40625 38.09375 
L 69.28125 38.09375 
L 69.28125 6.78125 
Q 63.578125 2.734375 56.6875 0.65625 
Q 49.8125 -1.421875 42 -1.421875 
Q 24.90625 -1.421875 15.25 8.5625 
Q 5.609375 18.5625 5.609375 36.375 
Q 5.609375 54.25 15.25 64.234375 
Q 24.90625 74.21875 42 74.21875 
Q 49.125 74.21875 55.546875 72.453125 
Q 61.96875 70.703125 67.390625 67.28125 
L 67.390625 56.78125 
Q 61.921875 61.421875 55.765625 63.765625 
Q 49.609375 66.109375 42.828125 66.109375 
Q 29.4375 66.109375 22.71875 58.640625 
Q 16.015625 51.171875 16.015625 36.375 
Q 16.015625 21.625 22.71875 14.15625 
Q 29.4375 6.6875 42.828125 6.6875 
Q 48.046875 6.6875 52.140625 7.59375 
Q 56.25 8.5 59.515625 10.40625 
z
" id="DejaVuSans-71"/>
      <path d="M 64.40625 67.28125 
L 64.40625 56.890625 
Q 59.421875 61.53125 53.78125 63.8125 
Q 48.140625 66.109375 41.796875 66.109375 
Q 29.296875 66.109375 22.65625 58.46875 
Q 16.015625 50.828125 16.015625 36.375 
Q 16.015625 21.96875 22.65625 14.328125 
Q 29.296875 6.6875 41.796875 6.6875 
Q 48.140625 6.6875 53.78125 8.984375 
Q 59.421875 11.28125 64.40625 15.921875 
L 64.40625 5.609375 
Q 59.234375 2.09375 53.4375 0.328125 
Q 47.65625 -1.421875 41.21875 -1.421875 
Q 24.65625 -1.421875 15.125 8.703125 
Q 5.609375 18.84375 5.609375 36.375 
Q 5.609375 53.953125 15.125 64.078125 
Q 24.65625 74.21875 41.21875 74.21875 
Q 47.75 74.21875 53.53125 72.484375 
Q 59.328125 70.75 64.40625 67.28125 
z
" id="DejaVuSans-67"/>
     </defs>
     <g transform="translate(510.660156 300.330997)scale(0.1 -0.1)">
      <use xlink:href="#DejaVuSans-37"/>
      <use x="95.019531" xlink:href="#DejaVuSans-32"/>
      <use x="126.806641" xlink:href="#DejaVuSans-71"/>
      <use x="204.296875" xlink:href="#DejaVuSans-67"/>
     </g>
    </g>
   </g>
   <g id="matplotlib.axis_2">
    <g id="ytick_1">
     <g id="line2d_1">
      <path clip-path="url(#p113412721b)" d="M 63.508125 273.99006 
L 985.223125 273.99006 
" style="fill:none;stroke:#dedede;stroke-linecap:square;"/>
     </g>
     <g id="text_8">
      <!-- 0 -->
      <g transform="translate(51.418125 277.029435)scale(0.08 -0.08)">
       <use xlink:href="#DejaVuSans-48"/>
      </g>
     </g>
    </g>
    <g id="ytick_2">
     <g id="line2d_2">
      <path clip-path="url(#p113412721b)" d="M 63.508125 228.052981 
L 985.223125 228.052981 
" style="fill:none;stroke:#dedede;stroke-linecap:square;"/>
     </g>
     <g id="text_9">
      <!-- 500000 -->
      <defs>
       <path d="M 10.796875 72.90625 
L 49.515625 72.90625 
L 49.515625 64.59375 
L 19.828125 64.59375 
L 19.828125 46.734375 
Q 21.96875 47.46875 24.109375 47.828125 
Q 26.265625 48.1875 28.421875 48.1875 
Q 40.625 48.1875 47.75 41.5 
Q 54.890625 34.8125 54.890625 23.390625 
Q 54.890625 11.625 47.5625 5.09375 
Q 40.234375 -1.421875 26.90625 -1.421875 
Q 22.3125 -1.421875 17.546875 -0.640625 
Q 12.796875 0.140625 7.71875 1.703125 
L 7.71875 11.625 
Q 12.109375 9.234375 16.796875 8.0625 
Q 21.484375 6.890625 26.703125 6.890625 
Q 35.15625 6.890625 40.078125 11.328125 
Q 45.015625 15.765625 45.015625 23.390625 
Q 45.015625 31 40.078125 35.4375 
Q 35.15625 39.890625 26.703125 39.890625 
Q 22.75 39.890625 18.8125 39.015625 
Q 14.890625 38.140625 10.796875 36.28125 
z
" id="DejaVuSans-53"/>
      </defs>
      <g transform="translate(25.968125 231.092356)scale(0.08 -0.08)">
       <use xlink:href="#DejaVuSans-53"/>
       <use x="63.623047" xlink:href="#DejaVuSans-48"/>
       <use x="127.246094" xlink:href="#DejaVuSans-48"/>
       <use x="190.869141" xlink:href="#DejaVuSans-48"/>
       <use x="254.492188" xlink:href="#DejaVuSans-48"/>
       <use x="318.115234" xlink:href="#DejaVuSans-48"/>
      </g>
     </g>
    </g>
    <g id="ytick_3">
     <g id="line2d_3">
      <path clip-path="url(#p113412721b)" d="M 63.508125 182.115902 
L 985.223125 182.115902 
" style="fill:none;stroke:#dedede;stroke-linecap:square;"/>
     </g>
     <g id="text_10">
      <!-- 1000000 -->
      <g transform="translate(20.878125 185.155277)scale(0.08 -0.08)">
       <use xlink:href="#DejaVuSans-49"/>
       <use x="63.623047" xlink:href="#DejaVuSans-48"/>
       <use x="127.246094" xlink:href="#DejaVuSans-48"/>
       <use x="190.869141" xlink:href="#DejaVuSans-48"/>
       <use x="254.492188" xlink:href="#DejaVuSans-48"/>
       <use x="318.115234" xlink:href="#DejaVuSans-48"/>
       <use x="381.738281" xlink:href="#DejaVuSans-48"/>
      </g>
     </g>
    </g>
    <g id="ytick_4">
     <g id="line2d_4">
      <path clip-path="url(#p113412721b)" d="M 63.508125 136.178824 
L 985.223125 136.178824 
" style="fill:none;stroke:#dedede;stroke-linecap:square;"/>
     </g>
     <g id="text_11">
      <!-- 1500000 -->
      <g transform="translate(20.878125 139.218199)scale(0.08 -0.08)">
       <use xlink:href="#DejaVuSans-49"/>
       <use x="63.623047" xlink:href="#DejaVuSans-53"/>
       <use x="127.246094" xlink:href="#DejaVuSans-48"/>
       <use x="190.869141" xlink:href="#DejaVuSans-48"/>
       <use x="254.492188" xlink:href="#DejaVuSans-48"/>
       <use x="318.115234" xlink:href="#DejaVuSans-48"/>
       <use x="381.738281" xlink:href="#DejaVuSans-48"/>
      </g>
     </g>
    </g>
    <g id="ytick_5">
     <g id="line2d_5">
      <path clip-path="url(#p113412721b)" d="M 63.508125 90.241745 
L 985.223125 90.241745 
" style="fill:none;stroke:#dedede;stroke-linecap:square;"/>
     </g>
     <g id="text_12">
      <!-- 2000000 -->
      <g transform="translate(20.878125 93.28112)scale(0.08 -0.08)">
       <use xlink:href="#DejaVuSans-50"/>
       <use x="63.623047" xlink:href="#DejaVuSans-48"/>
       <use x="127.246094" xlink:href="#DejaVuSans-48"/>
       <use x="190.869141" xlink:href="#DejaVuSans-48"/>
       <use x="254.492188" xlink:href="#DejaVuSans-48"/>
       <use x="318.115234" xlink:href="#DejaVuSans-48"/>
       <use x="381.738281" xlink:href="#DejaVuSans-48"/>
      </g>
     </g>
    </g>
    <g id="ytick_6">
     <g id="line2d_6">
      <path clip-path="url(#p113412721b)" d="M 63.508125 44.304666 
L 985.223125 44.304666 
" style="fill:none;stroke:#dedede;stroke-linecap:square;"/>
     </g>
     <g id="text_13">
      <!-- 2500000 -->
      <g transform="translate(20.878125 47.344041)scale(0.08 -0.08)">
       <use xlink:href="#DejaVuSans-50"/>
       <use x="63.623047" xlink:href="#DejaVuSans-53"/>
       <use x="127.246094" xlink:href="#DejaVuSans-48"/>
       <use x="190.869141" xlink:href="#DejaVuSans-48"/>
       <use x="254.492188" xlink:href="#DejaVuSans-48"/>
       <use x="318.115234" xlink:href="#DejaVuSans-48"/>
       <use x="381.738281" xlink:href="#DejaVuSans-48"/>
      </g>
     </g>
    </g>
    <g id="text_14">
     <!-- Count -->
     <defs>
      <path d="M 30.609375 48.390625 
Q 23.390625 48.390625 19.1875 42.75 
Q 14.984375 37.109375 14.984375 27.296875 
Q 14.984375 17.484375 19.15625 11.84375 
Q 23.34375 6.203125 30.609375 6.203125 
Q 37.796875 6.203125 41.984375 11.859375 
Q 46.1875 17.53125 46.1875 27.296875 
Q 46.1875 37.015625 41.984375 42.703125 
Q 37.796875 48.390625 30.609375 48.390625 
z
M 30.609375 56 
Q 42.328125 56 49.015625 48.375 
Q 55.71875 40.765625 55.71875 27.296875 
Q 55.71875 13.875 49.015625 6.21875 
Q 42.328125 -1.421875 30.609375 -1.421875 
Q 18.84375 -1.421875 12.171875 6.21875 
Q 5.515625 13.875 5.515625 27.296875 
Q 5.515625 40.765625 12.171875 48.375 
Q 18.84375 56 30.609375 56 
z
" id="DejaVuSans-111"/>
      <path d="M 8.5 21.578125 
L 8.5 54.6875 
L 17.484375 54.6875 
L 17.484375 21.921875 
Q 17.484375 14.15625 20.5 10.265625 
Q 23.53125 6.390625 29.59375 6.390625 
Q 36.859375 6.390625 41.078125 11.03125 
Q 45.3125 15.671875 45.3125 23.6875 
L 45.3125 54.6875 
L 54.296875 54.6875 
L 54.296875 0 
L 45.3125 0 
L 45.3125 8.40625 
Q 42.046875 3.421875 37.71875 1 
Q 33.40625 -1.421875 27.6875 -1.421875 
Q 18.265625 -1.421875 13.375 4.4375 
Q 8.5 10.296875 8.5 21.578125 
z
M 31.109375 56 
z
" id="DejaVuSans-117"/>
      <path d="M 54.890625 33.015625 
L 54.890625 0 
L 45.90625 0 
L 45.90625 32.71875 
Q 45.90625 40.484375 42.875 44.328125 
Q 39.84375 48.1875 33.796875 48.1875 
Q 26.515625 48.1875 22.3125 43.546875 
Q 18.109375 38.921875 18.109375 30.90625 
L 18.109375 0 
L 9.078125 0 
L 9.078125 54.6875 
L 18.109375 54.6875 
L 18.109375 46.1875 
Q 21.34375 51.125 25.703125 53.5625 
Q 30.078125 56 35.796875 56 
Q 45.21875 56 50.046875 50.171875 
Q 54.890625 44.34375 54.890625 33.015625 
z
" id="DejaVuSans-110"/>
      <path d="M 18.3125 70.21875 
L 18.3125 54.6875 
L 36.8125 54.6875 
L 36.8125 47.703125 
L 18.3125 47.703125 
L 18.3125 18.015625 
Q 18.3125 11.328125 20.140625 9.421875 
Q 21.96875 7.515625 27.59375 7.515625 
L 36.8125 7.515625 
L 36.8125 0 
L 27.59375 0 
Q 17.1875 0 13.234375 3.875 
Q 9.28125 7.765625 9.28125 18.015625 
L 9.28125 47.703125 
L 2.6875 47.703125 
L 2.6875 54.6875 
L 9.28125 54.6875 
L 9.28125 70.21875 
z
" id="DejaVuSans-116"/>
     </defs>
     <g transform="translate(14.798438 167.584897)rotate(-90)scale(0.1 -0.1)">
      <use xlink:href="#DejaVuSans-67"/>
      <use x="69.824219" xlink:href="#DejaVuSans-111"/>
      <use x="131.005859" xlink:href="#DejaVuSans-117"/>
      <use x="194.384766" xlink:href="#DejaVuSans-110"/>
      <use x="257.763672" xlink:href="#DejaVuSans-116"/>
     </g>
    </g>
   </g>
   <g id="line2d_7">
    <path clip-path="url(#p113412721b)" d="M 63.508125 273.988498 
L 72.725275 273.988177 
L 81.942425 273.986247 
L 91.159575 273.983032 
L 100.376725 273.978714 
L 109.593875 273.972374 
L 118.811025 273.962314 
L 128.028175 273.947522 
L 137.245325 273.930755 
L 146.462475 273.900575 
L 155.679625 273.853581 
L 164.896775 273.793036 
L 174.113925 273.702678 
L 183.331075 273.566015 
L 192.548225 273.358563 
L 201.765375 273.067368 
L 210.982525 272.651545 
L 220.199675 272.023953 
L 229.416825 271.086377 
L 238.633975 269.637108 
L 247.851125 267.573569 
L 257.068275 264.70241 
L 266.285425 260.720124 
L 275.502575 255.315167 
L 284.719725 248.170436 
L 293.936875 238.995653 
L 303.154025 227.688838 
L 312.371175 214.285041 
L 321.588325 198.928965 
L 330.805475 182.559563 
L 340.022625 166.893641 
L 349.239775 151.420057 
L 358.456925 135.664099 
L 367.674075 121.943061 
L 376.891225 111.774475 
L 386.108375 105.369835 
L 395.325525 101.843613 
L 404.542675 101.562111 
L 413.759825 103.655923 
L 422.976975 105.435479 
L 432.194125 106.523453 
L 441.411275 107.125596 
L 450.628425 107.766281 
L 459.845575 109.28666 
L 469.062725 112.71421 
L 478.279875 117.509857 
L 487.497025 123.482596 
L 496.714175 130.545697 
L 505.931325 138.151132 
L 515.148475 146.718581 
L 524.365625 155.307299 
L 533.582775 164.638819 
L 542.799925 174.75568 
L 552.017075 184.3676 
L 561.234225 193.29345 
L 570.451375 202.09527 
L 579.668525 210.707002 
L 588.885675 218.30449 
L 598.102825 224.857874 
L 607.319975 230.578969 
L 616.537125 235.419589 
L 625.754275 239.362231 
L 634.971425 242.896721 
L 644.188575 243.762911 
L 653.405725 228.864873 
L 662.622875 208.688895 
L 671.840025 221.853497 
L 681.057175 249.118439 
L 690.274325 258.967165 
L 699.491475 261.936125 
L 708.708625 263.965303 
L 717.925775 265.564281 
L 727.142925 267.007119 
L 736.360075 268.240943 
L 745.577225 269.127345 
L 754.794375 269.964594 
L 764.011525 270.815716 
L 773.228675 271.674418 
L 782.445825 272.321442 
L 791.662975 272.715674 
L 800.880125 273.05446 
L 810.097275 273.322456 
L 819.314425 273.529725 
L 828.531575 273.661472 
L 837.748725 273.749442 
L 846.965875 273.829602 
L 856.183025 273.878295 
L 865.400175 273.903423 
L 874.617325 273.921568 
L 883.834475 273.934981 
L 893.051625 273.946466 
L 902.268775 273.957628 
L 911.485925 273.965759 
L 920.703075 273.971318 
L 929.920225 273.975314 
L 939.137375 273.979816 
L 948.354525 273.981745 
L 957.571675 273.983813 
L 966.788825 273.986109 
L 976.005975 273.987809 
L 985.223125 273.989279 
" style="fill:none;stroke:#f0ad4e;stroke-linecap:square;"/>
   </g>
   <g id="line2d_8">
    <path clip-path="url(#p113412721b)" d="M 63.508125 273.980505 
L 72.725275 273.967735 
L 81.942425 273.906914 
L 91.159575 273.789728 
L 100.376725 273.662666 
L 109.593875 273.561237 
L 118.811025 273.474784 
L 128.028175 273.387917 
L 137.245325 273.301096 
L 146.462475 273.204582 
L 155.679625 273.10816 
L 164.896775 272.984222 
L 174.113925 272.831802 
L 183.331075 272.662065 
L 192.548225 272.414602 
L 201.765375 272.061851 
L 210.982525 271.593017 
L 220.199675 270.914113 
L 229.416825 269.863716 
L 238.633975 268.322251 
L 247.851125 266.149979 
L 257.068275 263.119556 
L 266.285425 258.962985 
L 275.502575 253.322509 
L 284.719725 246.049291 
L 293.936875 236.824299 
L 303.154025 225.609542 
L 312.371175 212.469287 
L 321.588325 197.487046 
L 330.805475 181.505215 
L 340.022625 165.850731 
L 349.239775 150.538157 
L 358.456925 134.888405 
L 367.674075 121.058772 
L 376.891225 111.316574 
L 386.108375 105.388164 
L 395.325525 101.854684 
L 404.542675 101.334401 
L 413.759825 103.550084 
L 422.976975 105.461664 
L 432.194125 106.50687 
L 441.411275 107.271722 
L 450.628425 108.314126 
L 459.845575 110.467381 
L 469.062725 114.181853 
L 478.279875 119.302597 
L 487.497025 125.492481 
L 496.714175 132.651637 
L 505.931325 140.236308 
L 515.148475 148.691716 
L 524.365625 157.541862 
L 533.582775 166.859326 
L 542.799925 176.757158 
L 552.017075 186.141828 
L 561.234225 194.868954 
L 570.451375 203.384035 
L 579.668525 211.674667 
L 588.885675 219.178259 
L 598.102825 225.539029 
L 607.319975 230.915321 
L 616.537125 235.51206 
L 625.754275 239.230391 
L 634.971425 242.676315 
L 644.188575 246.096698 
L 653.405725 249.018986 
L 662.622875 251.192039 
L 671.840025 252.886107 
L 681.057175 254.31282 
L 690.274325 255.700993 
L 699.491475 257.036705 
L 708.708625 258.251374 
L 717.925775 259.257442 
L 727.142925 260.229286 
L 736.360075 261.187534 
L 745.577225 262.123364 
L 754.794375 263.169903 
L 764.011525 264.36344 
L 773.228675 265.777153 
L 782.445825 267.130368 
L 791.662975 268.325421 
L 800.880125 269.448858 
L 810.097275 270.445968 
L 819.314425 271.295529 
L 828.531575 271.972963 
L 837.748725 272.489847 
L 846.965875 272.887065 
L 856.183025 273.161539 
L 865.400175 273.345012 
L 874.617325 273.470282 
L 883.834475 273.544103 
L 893.051625 273.595001 
L 902.268775 273.628397 
L 911.485925 273.649437 
L 920.703075 273.666112 
L 929.920225 273.673875 
L 939.137375 273.672543 
L 948.354525 273.655317 
L 957.571675 273.625687 
L 966.788825 273.573089 
L 976.005975 273.436932 
L 985.223125 271.309907 
" style="fill:none;stroke:#f0ad4e;stroke-linecap:square;"/>
   </g>
   <g id="line2d_9">
    <path clip-path="url(#p113412721b)" d="M 63.508125 273.988682 
L 72.725275 273.988177 
L 81.942425 273.987855 
L 91.159575 273.986385 
L 100.376725 273.983078 
L 109.593875 273.979357 
L 118.811025 273.971134 
L 128.028175 273.957996 
L 137.245325 273.944582 
L 146.462475 273.9212 
L 155.679625 273.881419 
L 164.896775 273.834058 
L 174.113925 273.765749 
L 183.331075 273.657567 
L 192.548225 273.490678 
L 201.765375 273.245098 
L 210.982525 272.860375 
L 220.199675 272.249688 
L 229.416825 271.314317 
L 238.633975 269.880896 
L 247.851125 267.67803 
L 257.068275 264.421321 
L 266.285425 259.746488 
L 275.502575 253.118824 
L 284.719725 244.112216 
L 293.936875 232.369918 
L 303.154025 217.568991 
L 312.371175 199.574932 
L 321.588325 178.708979 
L 330.805475 156.111887 
L 340.022625 134.183317 
L 349.239775 112.925107 
L 358.456925 91.152815 
L 367.674075 71.803428 
L 376.891225 57.65297 
L 386.108375 48.662992 
L 395.325525 43.347383 
L 404.542675 43.030785 
L 413.759825 46.435917 
L 422.976975 48.96241 
L 432.194125 50.300465 
L 441.411275 51.245345 
L 450.628425 52.220635 
L 459.845575 54.11531 
L 469.062725 58.169854 
L 478.279875 64.371498 
L 487.497025 72.306944 
L 496.714175 81.381355 
L 505.931325 91.231459 
L 515.148475 102.401427 
L 524.365625 113.818675 
L 533.582775 126.15912 
L 542.799925 139.670501 
L 552.017075 152.899782 
L 561.234225 165.145046 
L 570.451375 177.03347 
L 579.668525 188.959011 
L 588.885675 199.810773 
L 598.102825 209.367385 
L 607.319975 217.694721 
L 616.537125 224.744777 
L 625.754275 230.682006 
L 634.971425 236.234788 
L 644.188575 240.508499 
L 653.405725 235.020809 
L 662.622875 211.279516 
L 671.840025 216.999372 
L 681.057175 248.686125 
L 690.274325 259.597284 
L 699.491475 262.258144 
L 708.708625 264.226593 
L 717.925775 265.726439 
L 727.142925 267.035462 
L 736.360075 268.145945 
L 745.577225 268.864539 
L 754.794375 269.556167 
L 764.011525 270.304482 
L 773.228675 271.189138 
L 782.445825 271.857018 
L 791.662975 272.226627 
L 800.880125 272.567435 
L 810.097275 272.881874 
L 819.314425 273.164387 
L 828.531575 273.404546 
L 837.748725 273.608001 
L 846.965875 273.759594 
L 856.183025 273.826019 
L 865.400175 273.86185 
L 874.617325 273.889044 
L 883.834475 273.910451 
L 893.051625 273.929653 
L 902.268775 273.941183 
L 911.485925 273.952438 
L 920.703075 273.963968 
L 929.920225 273.971823 
L 939.137375 273.977335 
L 948.354525 273.980827 
L 957.571675 273.984042 
L 966.788825 273.985328 
L 976.005975 273.986844 
L 985.223125 273.989095 
" style="fill:none;stroke:#f0ad4e;stroke-linecap:square;"/>
   </g>
   <g id="line2d_10">
    <path clip-path="url(#p113412721b)" d="M 63.508125 273.975728 
L 72.725275 273.95772 
L 81.942425 273.884956 
L 91.159575 273.74595 
L 100.376725 273.595736 
L 109.593875 273.46748 
L 118.811025 273.356955 
L 128.028175 273.260304 
L 137.245325 273.159701 
L 146.462475 273.053173 
L 155.679625 272.93608 
L 164.896775 272.809936 
L 174.113925 272.682277 
L 183.331075 272.519844 
L 192.548225 272.287081 
L 201.765375 271.945906 
L 210.982525 271.484146 
L 220.199675 270.79679 
L 229.416825 269.727604 
L 238.633975 268.090912 
L 247.851125 265.631211 
L 257.068275 262.111283 
L 266.285425 257.050073 
L 275.502575 250.023905 
L 284.719725 240.629818 
L 293.936875 228.443676 
L 303.154025 213.337589 
L 312.371175 195.489702 
L 321.588325 175.13806 
L 330.805475 153.28694 
L 340.022625 132.016649 
L 349.239775 110.912741 
L 358.456925 89.423973 
L 367.674075 70.685825 
L 376.891225 56.98307 
L 386.108375 48.726431 
L 395.325525 44.43136 
L 404.542675 44.208795 
L 413.759825 47.205868 
L 422.976975 49.833928 
L 432.194125 51.311035 
L 441.411275 52.267123 
L 450.628425 53.79816 
L 459.845575 56.354145 
L 469.062725 60.969811 
L 478.279875 67.352033 
L 487.497025 75.242048 
L 496.714175 84.840463 
L 505.931325 94.745324 
L 515.148475 105.713169 
L 524.365625 117.394233 
L 533.582775 129.764124 
L 542.799925 143.047014 
L 552.017075 155.821656 
L 561.234225 167.569054 
L 570.451375 179.08038 
L 579.668525 190.594922 
L 588.885675 201.151998 
L 598.102825 210.414383 
L 607.319975 218.356812 
L 616.537125 225.090269 
L 625.754275 230.892949 
L 634.971425 236.24517 
L 644.188575 241.49192 
L 653.405725 246.231018 
L 662.622875 249.701427 
L 671.840025 252.299214 
L 681.057175 254.578153 
L 690.274325 256.526253 
L 699.491475 258.203232 
L 708.708625 259.643037 
L 717.925775 260.616904 
L 727.142925 261.426774 
L 736.360075 262.125248 
L 745.577225 262.728815 
L 754.794375 263.492473 
L 764.011525 264.441671 
L 773.228675 265.641869 
L 782.445825 266.807292 
L 791.662975 267.879326 
L 800.880125 268.929861 
L 810.097275 269.876808 
L 819.314425 270.774464 
L 828.531575 271.560678 
L 837.748725 272.188637 
L 846.965875 272.663305 
L 856.183025 272.979766 
L 865.400175 273.18979 
L 874.617325 273.352178 
L 883.834475 273.458155 
L 893.051625 273.519067 
L 902.268775 273.571711 
L 911.485925 273.607588 
L 920.703075 273.624401 
L 929.920225 273.636207 
L 939.137375 273.641306 
L 948.354525 273.62826 
L 957.571675 273.60869 
L 966.788825 273.565785 
L 976.005975 273.424896 
L 985.223125 271.062398 
" style="fill:none;stroke:#f0ad4e;stroke-linecap:square;"/>
   </g>
   <g id="line2d_11">
    <path clip-path="url(#p113412721b)" d="M 63.508125 273.99006 
L 985.223125 273.99006 
" style="fill:none;stroke:#dedede;stroke-linecap:square;stroke-width:2;"/>
   </g>
   <g id="text_15">
    <!-- FastQC: Per Sequence GC Content -->
    <defs>
     <path d="M 9.8125 72.90625 
L 51.703125 72.90625 
L 51.703125 64.59375 
L 19.671875 64.59375 
L 19.671875 43.109375 
L 48.578125 43.109375 
L 48.578125 34.8125 
L 19.671875 34.8125 
L 19.671875 0 
L 9.8125 0 
z
" id="DejaVuSans-70"/>
     <path d="M 34.28125 27.484375 
Q 23.390625 27.484375 19.1875 25 
Q 14.984375 22.515625 14.984375 16.5 
Q 14.984375 11.71875 18.140625 8.90625 
Q 21.296875 6.109375 26.703125 6.109375 
Q 34.1875 6.109375 38.703125 11.40625 
Q 43.21875 16.703125 43.21875 25.484375 
L 43.21875 27.484375 
z
M 52.203125 31.203125 
L 52.203125 0 
L 43.21875 0 
L 43.21875 8.296875 
Q 40.140625 3.328125 35.546875 0.953125 
Q 30.953125 -1.421875 24.3125 -1.421875 
Q 15.921875 -1.421875 10.953125 3.296875 
Q 6 8.015625 6 15.921875 
Q 6 25.140625 12.171875 29.828125 
Q 18.359375 34.515625 30.609375 34.515625 
L 43.21875 34.515625 
L 43.21875 35.40625 
Q 43.21875 41.609375 39.140625 45 
Q 35.0625 48.390625 27.6875 48.390625 
Q 23 48.390625 18.546875 47.265625 
Q 14.109375 46.140625 10.015625 43.890625 
L 10.015625 52.203125 
Q 14.9375 54.109375 19.578125 55.046875 
Q 24.21875 56 28.609375 56 
Q 40.484375 56 46.34375 49.84375 
Q 52.203125 43.703125 52.203125 31.203125 
z
" id="DejaVuSans-97"/>
     <path d="M 44.28125 53.078125 
L 44.28125 44.578125 
Q 40.484375 46.53125 36.375 47.5 
Q 32.28125 48.484375 27.875 48.484375 
Q 21.1875 48.484375 17.84375 46.4375 
Q 14.5 44.390625 14.5 40.28125 
Q 14.5 37.15625 16.890625 35.375 
Q 19.28125 33.59375 26.515625 31.984375 
L 29.59375 31.296875 
Q 39.15625 29.25 43.1875 25.515625 
Q 47.21875 21.78125 47.21875 15.09375 
Q 47.21875 7.46875 41.1875 3.015625 
Q 35.15625 -1.421875 24.609375 -1.421875 
Q 20.21875 -1.421875 15.453125 -0.5625 
Q 10.6875 0.296875 5.421875 2 
L 5.421875 11.28125 
Q 10.40625 8.6875 15.234375 7.390625 
Q 20.0625 6.109375 24.8125 6.109375 
Q 31.15625 6.109375 34.5625 8.28125 
Q 37.984375 10.453125 37.984375 14.40625 
Q 37.984375 18.0625 35.515625 20.015625 
Q 33.0625 21.96875 24.703125 23.78125 
L 21.578125 24.515625 
Q 13.234375 26.265625 9.515625 29.90625 
Q 5.8125 33.546875 5.8125 39.890625 
Q 5.8125 47.609375 11.28125 51.796875 
Q 16.75 56 26.8125 56 
Q 31.78125 56 36.171875 55.265625 
Q 40.578125 54.546875 44.28125 53.078125 
z
" id="DejaVuSans-115"/>
     <path d="M 39.40625 66.21875 
Q 28.65625 66.21875 22.328125 58.203125 
Q 16.015625 50.203125 16.015625 36.375 
Q 16.015625 22.609375 22.328125 14.59375 
Q 28.65625 6.59375 39.40625 6.59375 
Q 50.140625 6.59375 56.421875 14.59375 
Q 62.703125 22.609375 62.703125 36.375 
Q 62.703125 50.203125 56.421875 58.203125 
Q 50.140625 66.21875 39.40625 66.21875 
z
M 53.21875 1.3125 
L 66.21875 -12.890625 
L 54.296875 -12.890625 
L 43.5 -1.21875 
Q 41.890625 -1.3125 41.03125 -1.359375 
Q 40.1875 -1.421875 39.40625 -1.421875 
Q 24.03125 -1.421875 14.8125 8.859375 
Q 5.609375 19.140625 5.609375 36.375 
Q 5.609375 53.65625 14.8125 63.9375 
Q 24.03125 74.21875 39.40625 74.21875 
Q 54.734375 74.21875 63.90625 63.9375 
Q 73.09375 53.65625 73.09375 36.375 
Q 73.09375 23.6875 67.984375 14.640625 
Q 62.890625 5.609375 53.21875 1.3125 
z
" id="DejaVuSans-81"/>
     <path d="M 11.71875 12.40625 
L 22.015625 12.40625 
L 22.015625 0 
L 11.71875 0 
z
M 11.71875 51.703125 
L 22.015625 51.703125 
L 22.015625 39.3125 
L 11.71875 39.3125 
z
" id="DejaVuSans-58"/>
     <path d="M 19.671875 64.796875 
L 19.671875 37.40625 
L 32.078125 37.40625 
Q 38.96875 37.40625 42.71875 40.96875 
Q 46.484375 44.53125 46.484375 51.125 
Q 46.484375 57.671875 42.71875 61.234375 
Q 38.96875 64.796875 32.078125 64.796875 
z
M 9.8125 72.90625 
L 32.078125 72.90625 
Q 44.34375 72.90625 50.609375 67.359375 
Q 56.890625 61.8125 56.890625 51.125 
Q 56.890625 40.328125 50.609375 34.8125 
Q 44.34375 29.296875 32.078125 29.296875 
L 19.671875 29.296875 
L 19.671875 0 
L 9.8125 0 
z
" id="DejaVuSans-80"/>
     <path d="M 56.203125 29.59375 
L 56.203125 25.203125 
L 14.890625 25.203125 
Q 15.484375 15.921875 20.484375 11.0625 
Q 25.484375 6.203125 34.421875 6.203125 
Q 39.59375 6.203125 44.453125 7.46875 
Q 49.3125 8.734375 54.109375 11.28125 
L 54.109375 2.78125 
Q 49.265625 0.734375 44.1875 -0.34375 
Q 39.109375 -1.421875 33.890625 -1.421875 
Q 20.796875 -1.421875 13.15625 6.1875 
Q 5.515625 13.8125 5.515625 26.8125 
Q 5.515625 40.234375 12.765625 48.109375 
Q 20.015625 56 32.328125 56 
Q 43.359375 56 49.78125 48.890625 
Q 56.203125 41.796875 56.203125 29.59375 
z
M 47.21875 32.234375 
Q 47.125 39.59375 43.09375 43.984375 
Q 39.0625 48.390625 32.421875 48.390625 
Q 24.90625 48.390625 20.390625 44.140625 
Q 15.875 39.890625 15.1875 32.171875 
z
" id="DejaVuSans-101"/>
     <path d="M 41.109375 46.296875 
Q 39.59375 47.171875 37.8125 47.578125 
Q 36.03125 48 33.890625 48 
Q 26.265625 48 22.1875 43.046875 
Q 18.109375 38.09375 18.109375 28.8125 
L 18.109375 0 
L 9.078125 0 
L 9.078125 54.6875 
L 18.109375 54.6875 
L 18.109375 46.1875 
Q 20.953125 51.171875 25.484375 53.578125 
Q 30.03125 56 36.53125 56 
Q 37.453125 56 38.578125 55.875 
Q 39.703125 55.765625 41.0625 55.515625 
z
" id="DejaVuSans-114"/>
     <path d="M 53.515625 70.515625 
L 53.515625 60.890625 
Q 47.90625 63.578125 42.921875 64.890625 
Q 37.9375 66.21875 33.296875 66.21875 
Q 25.25 66.21875 20.875 63.09375 
Q 16.5 59.96875 16.5 54.203125 
Q 16.5 49.359375 19.40625 46.890625 
Q 22.3125 44.4375 30.421875 42.921875 
L 36.375 41.703125 
Q 47.40625 39.59375 52.65625 34.296875 
Q 57.90625 29 57.90625 20.125 
Q 57.90625 9.515625 50.796875 4.046875 
Q 43.703125 -1.421875 29.984375 -1.421875 
Q 24.8125 -1.421875 18.96875 -0.25 
Q 13.140625 0.921875 6.890625 3.21875 
L 6.890625 13.375 
Q 12.890625 10.015625 18.65625 8.296875 
Q 24.421875 6.59375 29.984375 6.59375 
Q 38.421875 6.59375 43.015625 9.90625 
Q 47.609375 13.234375 47.609375 19.390625 
Q 47.609375 24.75 44.3125 27.78125 
Q 41.015625 30.8125 33.5 32.328125 
L 27.484375 33.5 
Q 16.453125 35.6875 11.515625 40.375 
Q 6.59375 45.0625 6.59375 53.421875 
Q 6.59375 63.09375 13.40625 68.65625 
Q 20.21875 74.21875 32.171875 74.21875 
Q 37.3125 74.21875 42.625 73.28125 
Q 47.953125 72.359375 53.515625 70.515625 
z
" id="DejaVuSans-83"/>
     <path d="M 14.796875 27.296875 
Q 14.796875 17.390625 18.875 11.75 
Q 22.953125 6.109375 30.078125 6.109375 
Q 37.203125 6.109375 41.296875 11.75 
Q 45.40625 17.390625 45.40625 27.296875 
Q 45.40625 37.203125 41.296875 42.84375 
Q 37.203125 48.484375 30.078125 48.484375 
Q 22.953125 48.484375 18.875 42.84375 
Q 14.796875 37.203125 14.796875 27.296875 
z
M 45.40625 8.203125 
Q 42.578125 3.328125 38.25 0.953125 
Q 33.9375 -1.421875 27.875 -1.421875 
Q 17.96875 -1.421875 11.734375 6.484375 
Q 5.515625 14.40625 5.515625 27.296875 
Q 5.515625 40.1875 11.734375 48.09375 
Q 17.96875 56 27.875 56 
Q 33.9375 56 38.25 53.625 
Q 42.578125 51.265625 45.40625 46.390625 
L 45.40625 54.6875 
L 54.390625 54.6875 
L 54.390625 -20.796875 
L 45.40625 -20.796875 
z
" id="DejaVuSans-113"/>
     <path d="M 48.78125 52.59375 
L 48.78125 44.1875 
Q 44.96875 46.296875 41.140625 47.34375 
Q 37.3125 48.390625 33.40625 48.390625 
Q 24.65625 48.390625 19.8125 42.84375 
Q 14.984375 37.3125 14.984375 27.296875 
Q 14.984375 17.28125 19.8125 11.734375 
Q 24.65625 6.203125 33.40625 6.203125 
Q 37.3125 6.203125 41.140625 7.25 
Q 44.96875 8.296875 48.78125 10.40625 
L 48.78125 2.09375 
Q 45.015625 0.34375 40.984375 -0.53125 
Q 36.96875 -1.421875 32.421875 -1.421875 
Q 20.0625 -1.421875 12.78125 6.34375 
Q 5.515625 14.109375 5.515625 27.296875 
Q 5.515625 40.671875 12.859375 48.328125 
Q 20.21875 56 33.015625 56 
Q 37.15625 56 41.109375 55.140625 
Q 45.0625 54.296875 48.78125 52.59375 
z
" id="DejaVuSans-99"/>
    </defs>
    <g transform="translate(386.724375 19.3575)scale(0.16 -0.16)">
     <use xlink:href="#DejaVuSans-70"/>
     <use x="57.378906" xlink:href="#DejaVuSans-97"/>
     <use x="118.658203" xlink:href="#DejaVuSans-115"/>
     <use x="170.757812" xlink:href="#DejaVuSans-116"/>
     <use x="209.966797" xlink:href="#DejaVuSans-81"/>
     <use x="288.677734" xlink:href="#DejaVuSans-67"/>
     <use x="358.501953" xlink:href="#DejaVuSans-58"/>
     <use x="392.193359" xlink:href="#DejaVuSans-32"/>
     <use x="423.980469" xlink:href="#DejaVuSans-80"/>
     <use x="484.236328" xlink:href="#DejaVuSans-101"/>
     <use x="545.759766" xlink:href="#DejaVuSans-114"/>
     <use x="586.873047" xlink:href="#DejaVuSans-32"/>
     <use x="618.660156" xlink:href="#DejaVuSans-83"/>
     <use x="682.136719" xlink:href="#DejaVuSans-101"/>
     <use x="743.660156" xlink:href="#DejaVuSans-113"/>
     <use x="807.136719" xlink:href="#DejaVuSans-117"/>
     <use x="870.515625" xlink:href="#DejaVuSans-101"/>
     <use x="932.039062" xlink:href="#DejaVuSans-110"/>
     <use x="995.417969" xlink:href="#DejaVuSans-99"/>
     <use x="1050.398438" xlink:href="#DejaVuSans-101"/>
     <use x="1111.921875" xlink:href="#DejaVuSans-32"/>
     <use x="1143.708984" xlink:href="#DejaVuSans-71"/>
     <use x="1221.199219" xlink:href="#DejaVuSans-67"/>
     <use x="1291.023438" xlink:href="#DejaVuSans-32"/>
     <use x="1322.810547" xlink:href="#DejaVuSans-67"/>
     <use x="1392.634766" xlink:href="#DejaVuSans-111"/>
     <use x="1453.816406" xlink:href="#DejaVuSans-110"/>
     <use x="1517.195312" xlink:href="#DejaVuSans-116"/>
     <use x="1556.404297" xlink:href="#DejaVuSans-101"/>
     <use x="1617.927734" xlink:href="#DejaVuSans-110"/>
     <use x="1681.306641" xlink:href="#DejaVuSans-116"/>
    </g>
   </g>
   <g id="legend_1">
    <g id="line2d_12">
     <path d="M 70.708125 315.455394 
L 86.708125 315.455394 
" style="fill:none;stroke:#f0ad4e;stroke-linecap:square;"/>
    </g>
    <g id="line2d_13"/>
    <g id="text_16">
     <!-- Psq-CGal_005-Ex1-4A-ssl-1-1.1 -->
     <defs>
      <path d="M 4.890625 31.390625 
L 31.203125 31.390625 
L 31.203125 23.390625 
L 4.890625 23.390625 
z
" id="DejaVuSans-45"/>
      <path d="M 9.421875 75.984375 
L 18.40625 75.984375 
L 18.40625 0 
L 9.421875 0 
z
" id="DejaVuSans-108"/>
      <path d="M 50.984375 -16.609375 
L 50.984375 -23.578125 
L -0.984375 -23.578125 
L -0.984375 -16.609375 
z
" id="DejaVuSans-95"/>
      <path d="M 9.8125 72.90625 
L 55.90625 72.90625 
L 55.90625 64.59375 
L 19.671875 64.59375 
L 19.671875 43.015625 
L 54.390625 43.015625 
L 54.390625 34.71875 
L 19.671875 34.71875 
L 19.671875 8.296875 
L 56.78125 8.296875 
L 56.78125 0 
L 9.8125 0 
z
" id="DejaVuSans-69"/>
      <path d="M 54.890625 54.6875 
L 35.109375 28.078125 
L 55.90625 0 
L 45.3125 0 
L 29.390625 21.484375 
L 13.484375 0 
L 2.875 0 
L 24.125 28.609375 
L 4.6875 54.6875 
L 15.28125 54.6875 
L 29.78125 35.203125 
L 44.28125 54.6875 
z
" id="DejaVuSans-120"/>
      <path d="M 34.1875 63.1875 
L 20.796875 26.90625 
L 47.609375 26.90625 
z
M 28.609375 72.90625 
L 39.796875 72.90625 
L 67.578125 0 
L 57.328125 0 
L 50.6875 18.703125 
L 17.828125 18.703125 
L 11.1875 0 
L 0.78125 0 
z
" id="DejaVuSans-65"/>
      <path d="M 10.6875 12.40625 
L 21 12.40625 
L 21 0 
L 10.6875 0 
z
" id="DejaVuSans-46"/>
     </defs>
     <g transform="translate(93.108125 318.255394)scale(0.08 -0.08)">
      <use xlink:href="#DejaVuSans-80"/>
      <use x="60.287109" xlink:href="#DejaVuSans-115"/>
      <use x="112.386719" xlink:href="#DejaVuSans-113"/>
      <use x="175.863281" xlink:href="#DejaVuSans-45"/>
      <use x="211.947266" xlink:href="#DejaVuSans-67"/>
      <use x="281.771484" xlink:href="#DejaVuSans-71"/>
      <use x="359.261719" xlink:href="#DejaVuSans-97"/>
      <use x="420.541016" xlink:href="#DejaVuSans-108"/>
      <use x="448.324219" xlink:href="#DejaVuSans-95"/>
      <use x="498.324219" xlink:href="#DejaVuSans-48"/>
      <use x="561.947266" xlink:href="#DejaVuSans-48"/>
      <use x="625.570312" xlink:href="#DejaVuSans-53"/>
      <use x="689.193359" xlink:href="#DejaVuSans-45"/>
      <use x="725.277344" xlink:href="#DejaVuSans-69"/>
      <use x="788.460938" xlink:href="#DejaVuSans-120"/>
      <use x="847.640625" xlink:href="#DejaVuSans-49"/>
      <use x="911.263672" xlink:href="#DejaVuSans-45"/>
      <use x="947.347656" xlink:href="#DejaVuSans-52"/>
      <use x="1010.970703" xlink:href="#DejaVuSans-65"/>
      <use x="1079.347656" xlink:href="#DejaVuSans-45"/>
      <use x="1115.431641" xlink:href="#DejaVuSans-115"/>
      <use x="1167.53125" xlink:href="#DejaVuSans-115"/>
      <use x="1219.630859" xlink:href="#DejaVuSans-108"/>
      <use x="1247.414062" xlink:href="#DejaVuSans-45"/>
      <use x="1283.498047" xlink:href="#DejaVuSans-49"/>
      <use x="1347.121094" xlink:href="#DejaVuSans-45"/>
      <use x="1383.205078" xlink:href="#DejaVuSans-49"/>
      <use x="1446.828125" xlink:href="#DejaVuSans-46"/>
      <use x="1478.615234" xlink:href="#DejaVuSans-49"/>
     </g>
    </g>
    <g id="line2d_14">
     <path d="M 324.554375 315.455394 
L 340.554375 315.455394 
" style="fill:none;stroke:#f0ad4e;stroke-linecap:square;"/>
    </g>
    <g id="line2d_15"/>
    <g id="text_17">
     <!-- Psq-CGal_005-Ex1-4A-ssl-1-1.2 -->
     <g transform="translate(346.954375 318.255394)scale(0.08 -0.08)">
      <use xlink:href="#DejaVuSans-80"/>
      <use x="60.287109" xlink:href="#DejaVuSans-115"/>
      <use x="112.386719" xlink:href="#DejaVuSans-113"/>
      <use x="175.863281" xlink:href="#DejaVuSans-45"/>
      <use x="211.947266" xlink:href="#DejaVuSans-67"/>
      <use x="281.771484" xlink:href="#DejaVuSans-71"/>
      <use x="359.261719" xlink:href="#DejaVuSans-97"/>
      <use x="420.541016" xlink:href="#DejaVuSans-108"/>
      <use x="448.324219" xlink:href="#DejaVuSans-95"/>
      <use x="498.324219" xlink:href="#DejaVuSans-48"/>
      <use x="561.947266" xlink:href="#DejaVuSans-48"/>
      <use x="625.570312" xlink:href="#DejaVuSans-53"/>
      <use x="689.193359" xlink:href="#DejaVuSans-45"/>
      <use x="725.277344" xlink:href="#DejaVuSans-69"/>
      <use x="788.460938" xlink:href="#DejaVuSans-120"/>
      <use x="847.640625" xlink:href="#DejaVuSans-49"/>
      <use x="911.263672" xlink:href="#DejaVuSans-45"/>
      <use x="947.347656" xlink:href="#DejaVuSans-52"/>
      <use x="1010.970703" xlink:href="#DejaVuSans-65"/>
      <use x="1079.347656" xlink:href="#DejaVuSans-45"/>
      <use x="1115.431641" xlink:href="#DejaVuSans-115"/>
      <use x="1167.53125" xlink:href="#DejaVuSans-115"/>
      <use x="1219.630859" xlink:href="#DejaVuSans-108"/>
      <use x="1247.414062" xlink:href="#DejaVuSans-45"/>
      <use x="1283.498047" xlink:href="#DejaVuSans-49"/>
      <use x="1347.121094" xlink:href="#DejaVuSans-45"/>
      <use x="1383.205078" xlink:href="#DejaVuSans-49"/>
      <use x="1446.828125" xlink:href="#DejaVuSans-46"/>
      <use x="1478.615234" xlink:href="#DejaVuSans-50"/>
     </g>
    </g>
    <g id="line2d_16">
     <path d="M 578.400625 315.455394 
L 594.400625 315.455394 
" style="fill:none;stroke:#f0ad4e;stroke-linecap:square;"/>
    </g>
    <g id="line2d_17"/>
    <g id="text_18">
     <!-- Psq-CGal_005-Ex1-5A-ssl-1-1.1 -->
     <g transform="translate(600.800625 318.255394)scale(0.08 -0.08)">
      <use xlink:href="#DejaVuSans-80"/>
      <use x="60.287109" xlink:href="#DejaVuSans-115"/>
      <use x="112.386719" xlink:href="#DejaVuSans-113"/>
      <use x="175.863281" xlink:href="#DejaVuSans-45"/>
      <use x="211.947266" xlink:href="#DejaVuSans-67"/>
      <use x="281.771484" xlink:href="#DejaVuSans-71"/>
      <use x="359.261719" xlink:href="#DejaVuSans-97"/>
      <use x="420.541016" xlink:href="#DejaVuSans-108"/>
      <use x="448.324219" xlink:href="#DejaVuSans-95"/>
      <use x="498.324219" xlink:href="#DejaVuSans-48"/>
      <use x="561.947266" xlink:href="#DejaVuSans-48"/>
      <use x="625.570312" xlink:href="#DejaVuSans-53"/>
      <use x="689.193359" xlink:href="#DejaVuSans-45"/>
      <use x="725.277344" xlink:href="#DejaVuSans-69"/>
      <use x="788.460938" xlink:href="#DejaVuSans-120"/>
      <use x="847.640625" xlink:href="#DejaVuSans-49"/>
      <use x="911.263672" xlink:href="#DejaVuSans-45"/>
      <use x="947.347656" xlink:href="#DejaVuSans-53"/>
      <use x="1010.970703" xlink:href="#DejaVuSans-65"/>
      <use x="1079.347656" xlink:href="#DejaVuSans-45"/>
      <use x="1115.431641" xlink:href="#DejaVuSans-115"/>
      <use x="1167.53125" xlink:href="#DejaVuSans-115"/>
      <use x="1219.630859" xlink:href="#DejaVuSans-108"/>
      <use x="1247.414062" xlink:href="#DejaVuSans-45"/>
      <use x="1283.498047" xlink:href="#DejaVuSans-49"/>
      <use x="1347.121094" xlink:href="#DejaVuSans-45"/>
      <use x="1383.205078" xlink:href="#DejaVuSans-49"/>
      <use x="1446.828125" xlink:href="#DejaVuSans-46"/>
      <use x="1478.615234" xlink:href="#DejaVuSans-49"/>
     </g>
    </g>
    <g id="line2d_18">
     <path d="M 832.246875 315.455394 
L 848.246875 315.455394 
" style="fill:none;stroke:#f0ad4e;stroke-linecap:square;"/>
    </g>
    <g id="line2d_19"/>
    <g id="text_19">
     <!-- Psq-CGal_005-Ex1-5A-ssl-1-1.2 -->
     <g transform="translate(854.646875 318.255394)scale(0.08 -0.08)">
      <use xlink:href="#DejaVuSans-80"/>
      <use x="60.287109" xlink:href="#DejaVuSans-115"/>
      <use x="112.386719" xlink:href="#DejaVuSans-113"/>
      <use x="175.863281" xlink:href="#DejaVuSans-45"/>
      <use x="211.947266" xlink:href="#DejaVuSans-67"/>
      <use x="281.771484" xlink:href="#DejaVuSans-71"/>
      <use x="359.261719" xlink:href="#DejaVuSans-97"/>
      <use x="420.541016" xlink:href="#DejaVuSans-108"/>
      <use x="448.324219" xlink:href="#DejaVuSans-95"/>
      <use x="498.324219" xlink:href="#DejaVuSans-48"/>
      <use x="561.947266" xlink:href="#DejaVuSans-48"/>
      <use x="625.570312" xlink:href="#DejaVuSans-53"/>
      <use x="689.193359" xlink:href="#DejaVuSans-45"/>
      <use x="725.277344" xlink:href="#DejaVuSans-69"/>
      <use x="788.460938" xlink:href="#DejaVuSans-120"/>
      <use x="847.640625" xlink:href="#DejaVuSans-49"/>
      <use x="911.263672" xlink:href="#DejaVuSans-45"/>
      <use x="947.347656" xlink:href="#DejaVuSans-53"/>
      <use x="1010.970703" xlink:href="#DejaVuSans-65"/>
      <use x="1079.347656" xlink:href="#DejaVuSans-45"/>
      <use x="1115.431641" xlink:href="#DejaVuSans-115"/>
      <use x="1167.53125" xlink:href="#DejaVuSans-115"/>
      <use x="1219.630859" xlink:href="#DejaVuSans-108"/>
      <use x="1247.414062" xlink:href="#DejaVuSans-45"/>
      <use x="1283.498047" xlink:href="#DejaVuSans-49"/>
      <use x="1347.121094" xlink:href="#DejaVuSans-45"/>
      <use x="1383.205078" xlink:href="#DejaVuSans-49"/>
      <use x="1446.828125" xlink:href="#DejaVuSans-46"/>
      <use x="1478.615234" xlink:href="#DejaVuSans-50"/>
     </g>
    </g>
   </g>
  </g>
 </g>
 <defs>
  <clipPath id="p113412721b">
   <rect height="242.5072" width="921.715" x="63.508125" y="31.48286"/>
  </clipPath>
 </defs>
</svg>
