<?xml version="1.0" encoding="utf-8" standalone="no"?>
<!DOCTYPE svg PUBLIC "-//W3C//DTD SVG 1.1//EN"
  "http://www.w3.org/Graphics/SVG/1.1/DTD/svg11.dtd">
<!-- Created with matplotlib (https://matplotlib.org/) -->
<svg height="330.541644pt" version="1.1" viewBox="0 0 1000.340625 330.541644" width="1000.340625pt" xmlns="http://www.w3.org/2000/svg" xmlns:xlink="http://www.w3.org/1999/xlink">
 <defs>
  <style type="text/css">
*{stroke-linecap:butt;stroke-linejoin:round;}
  </style>
 </defs>
 <g id="figure_1">
  <g id="axes_1">
   <g id="patch_1">
    <path d="M 40.600625 273.99006 
L 993.140625 273.99006 
L 993.140625 31.48286 
L 40.600625 31.48286 
z
" style="fill:#ffffff;"/>
   </g>
   <g id="matplotlib.axis_1">
    <g id="xtick_1">
     <g id="text_1">
      <!-- 0 -->
      <defs>
       <path d="M 31.78125 66.40625 
Q 24.171875 66.40625 20.328125 58.90625 
Q 16.5 51.421875 16.5 36.375 
Q 16.5 21.390625 20.328125 13.890625 
Q 24.171875 6.390625 31.78125 6.390625 
Q 39.453125 6.390625 43.28125 13.890625 
Q 47.125 21.390625 47.125 36.375 
Q 47.125 51.421875 43.28125 58.90625 
Q 39.453125 66.40625 31.78125 66.40625 
z
M 31.78125 74.21875 
Q 44.046875 74.21875 50.515625 64.515625 
Q 56.984375 54.828125 56.984375 36.375 
Q 56.984375 17.96875 50.515625 8.265625 
Q 44.046875 -1.421875 31.78125 -1.421875 
Q 19.53125 -1.421875 13.0625 8.265625 
Q 6.59375 17.96875 6.59375 36.375 
Q 6.59375 54.828125 13.0625 64.515625 
Q 19.53125 74.21875 31.78125 74.21875 
z
" id="DejaVuSans-48"/>
      </defs>
      <g transform="translate(78.13377 287.06881)scale(0.08 -0.08)">
       <use xlink:href="#DejaVuSans-48"/>
      </g>
     </g>
    </g>
    <g id="xtick_2">
     <g id="text_2">
      <!-- 50 -->
      <defs>
       <path d="M 10.796875 72.90625 
L 49.515625 72.90625 
L 49.515625 64.59375 
L 19.828125 64.59375 
L 19.828125 46.734375 
Q 21.96875 47.46875 24.109375 47.828125 
Q 26.265625 48.1875 28.421875 48.1875 
Q 40.625 48.1875 47.75 41.5 
Q 54.890625 34.8125 54.890625 23.390625 
Q 54.890625 11.625 47.5625 5.09375 
Q 40.234375 -1.421875 26.90625 -1.421875 
Q 22.3125 -1.421875 17.546875 -0.640625 
Q 12.796875 0.140625 7.71875 1.703125 
L 7.71875 11.625 
Q 12.109375 9.234375 16.796875 8.0625 
Q 21.484375 6.890625 26.703125 6.890625 
Q 35.15625 6.890625 40.078125 11.328125 
Q 45.015625 15.765625 45.015625 23.390625 
Q 45.015625 31 40.078125 35.4375 
Q 35.15625 39.890625 26.703125 39.890625 
Q 22.75 39.890625 18.8125 39.015625 
Q 14.890625 38.140625 10.796875 36.28125 
z
" id="DejaVuSans-53"/>
      </defs>
      <g transform="translate(236.545174 287.06881)scale(0.08 -0.08)">
       <use xlink:href="#DejaVuSans-53"/>
       <use x="63.623047" xlink:href="#DejaVuSans-48"/>
      </g>
     </g>
    </g>
    <g id="xtick_3">
     <g id="text_3">
      <!-- 100 -->
      <defs>
       <path d="M 12.40625 8.296875 
L 28.515625 8.296875 
L 28.515625 63.921875 
L 10.984375 60.40625 
L 10.984375 69.390625 
L 28.421875 72.90625 
L 38.28125 72.90625 
L 38.28125 8.296875 
L 54.390625 8.296875 
L 54.390625 0 
L 12.40625 0 
z
" id="DejaVuSans-49"/>
      </defs>
      <g transform="translate(394.956578 287.06881)scale(0.08 -0.08)">
       <use xlink:href="#DejaVuSans-49"/>
       <use x="63.623047" xlink:href="#DejaVuSans-48"/>
       <use x="127.246094" xlink:href="#DejaVuSans-48"/>
      </g>
     </g>
    </g>
    <g id="xtick_4">
     <g id="text_4">
      <!-- 150 -->
      <g transform="translate(555.912982 287.06881)scale(0.08 -0.08)">
       <use xlink:href="#DejaVuSans-49"/>
       <use x="63.623047" xlink:href="#DejaVuSans-53"/>
       <use x="127.246094" xlink:href="#DejaVuSans-48"/>
      </g>
     </g>
    </g>
    <g id="xtick_5">
     <g id="text_5">
      <!-- 200 -->
      <defs>
       <path d="M 19.1875 8.296875 
L 53.609375 8.296875 
L 53.609375 0 
L 7.328125 0 
L 7.328125 8.296875 
Q 12.9375 14.109375 22.625 23.890625 
Q 32.328125 33.6875 34.8125 36.53125 
Q 39.546875 41.84375 41.421875 45.53125 
Q 43.3125 49.21875 43.3125 52.78125 
Q 43.3125 58.59375 39.234375 62.25 
Q 35.15625 65.921875 28.609375 65.921875 
Q 23.96875 65.921875 18.8125 64.3125 
Q 13.671875 62.703125 7.8125 59.421875 
L 7.8125 69.390625 
Q 13.765625 71.78125 18.9375 73 
Q 24.125 74.21875 28.421875 74.21875 
Q 39.75 74.21875 46.484375 68.546875 
Q 53.21875 62.890625 53.21875 53.421875 
Q 53.21875 48.921875 51.53125 44.890625 
Q 49.859375 40.875 45.40625 35.40625 
Q 44.1875 33.984375 37.640625 27.21875 
Q 31.109375 20.453125 19.1875 8.296875 
z
" id="DejaVuSans-50"/>
      </defs>
      <g transform="translate(716.869386 287.06881)scale(0.08 -0.08)">
       <use xlink:href="#DejaVuSans-50"/>
       <use x="63.623047" xlink:href="#DejaVuSans-48"/>
       <use x="127.246094" xlink:href="#DejaVuSans-48"/>
      </g>
     </g>
    </g>
    <g id="xtick_6">
     <g id="text_6">
      <!-- 250 -->
      <g transform="translate(877.825791 287.06881)scale(0.08 -0.08)">
       <use xlink:href="#DejaVuSans-50"/>
       <use x="63.623047" xlink:href="#DejaVuSans-53"/>
       <use x="127.246094" xlink:href="#DejaVuSans-48"/>
      </g>
     </g>
    </g>
    <g id="text_7">
     <!-- Insert size -->
     <defs>
      <path d="M 9.8125 72.90625 
L 19.671875 72.90625 
L 19.671875 0 
L 9.8125 0 
z
" id="DejaVuSans-73"/>
      <path d="M 54.890625 33.015625 
L 54.890625 0 
L 45.90625 0 
L 45.90625 32.71875 
Q 45.90625 40.484375 42.875 44.328125 
Q 39.84375 48.1875 33.796875 48.1875 
Q 26.515625 48.1875 22.3125 43.546875 
Q 18.109375 38.921875 18.109375 30.90625 
L 18.109375 0 
L 9.078125 0 
L 9.078125 54.6875 
L 18.109375 54.6875 
L 18.109375 46.1875 
Q 21.34375 51.125 25.703125 53.5625 
Q 30.078125 56 35.796875 56 
Q 45.21875 56 50.046875 50.171875 
Q 54.890625 44.34375 54.890625 33.015625 
z
" id="DejaVuSans-110"/>
      <path d="M 44.28125 53.078125 
L 44.28125 44.578125 
Q 40.484375 46.53125 36.375 47.5 
Q 32.28125 48.484375 27.875 48.484375 
Q 21.1875 48.484375 17.84375 46.4375 
Q 14.5 44.390625 14.5 40.28125 
Q 14.5 37.15625 16.890625 35.375 
Q 19.28125 33.59375 26.515625 31.984375 
L 29.59375 31.296875 
Q 39.15625 29.25 43.1875 25.515625 
Q 47.21875 21.78125 47.21875 15.09375 
Q 47.21875 7.46875 41.1875 3.015625 
Q 35.15625 -1.421875 24.609375 -1.421875 
Q 20.21875 -1.421875 15.453125 -0.5625 
Q 10.6875 0.296875 5.421875 2 
L 5.421875 11.28125 
Q 10.40625 8.6875 15.234375 7.390625 
Q 20.0625 6.109375 24.8125 6.109375 
Q 31.15625 6.109375 34.5625 8.28125 
Q 37.984375 10.453125 37.984375 14.40625 
Q 37.984375 18.0625 35.515625 20.015625 
Q 33.0625 21.96875 24.703125 23.78125 
L 21.578125 24.515625 
Q 13.234375 26.265625 9.515625 29.90625 
Q 5.8125 33.546875 5.8125 39.890625 
Q 5.8125 47.609375 11.28125 51.796875 
Q 16.75 56 26.8125 56 
Q 31.78125 56 36.171875 55.265625 
Q 40.578125 54.546875 44.28125 53.078125 
z
" id="DejaVuSans-115"/>
      <path d="M 56.203125 29.59375 
L 56.203125 25.203125 
L 14.890625 25.203125 
Q 15.484375 15.921875 20.484375 11.0625 
Q 25.484375 6.203125 34.421875 6.203125 
Q 39.59375 6.203125 44.453125 7.46875 
Q 49.3125 8.734375 54.109375 11.28125 
L 54.109375 2.78125 
Q 49.265625 0.734375 44.1875 -0.34375 
Q 39.109375 -1.421875 33.890625 -1.421875 
Q 20.796875 -1.421875 13.15625 6.1875 
Q 5.515625 13.8125 5.515625 26.8125 
Q 5.515625 40.234375 12.765625 48.109375 
Q 20.015625 56 32.328125 56 
Q 43.359375 56 49.78125 48.890625 
Q 56.203125 41.796875 56.203125 29.59375 
z
M 47.21875 32.234375 
Q 47.125 39.59375 43.09375 43.984375 
Q 39.0625 48.390625 32.421875 48.390625 
Q 24.90625 48.390625 20.390625 44.140625 
Q 15.875 39.890625 15.1875 32.171875 
z
" id="DejaVuSans-101"/>
      <path d="M 41.109375 46.296875 
Q 39.59375 47.171875 37.8125 47.578125 
Q 36.03125 48 33.890625 48 
Q 26.265625 48 22.1875 43.046875 
Q 18.109375 38.09375 18.109375 28.8125 
L 18.109375 0 
L 9.078125 0 
L 9.078125 54.6875 
L 18.109375 54.6875 
L 18.109375 46.1875 
Q 20.953125 51.171875 25.484375 53.578125 
Q 30.03125 56 36.53125 56 
Q 37.453125 56 38.578125 55.875 
Q 39.703125 55.765625 41.0625 55.515625 
z
" id="DejaVuSans-114"/>
      <path d="M 18.3125 70.21875 
L 18.3125 54.6875 
L 36.8125 54.6875 
L 36.8125 47.703125 
L 18.3125 47.703125 
L 18.3125 18.015625 
Q 18.3125 11.328125 20.140625 9.421875 
Q 21.96875 7.515625 27.59375 7.515625 
L 36.8125 7.515625 
L 36.8125 0 
L 27.59375 0 
Q 17.1875 0 13.234375 3.875 
Q 9.28125 7.765625 9.28125 18.015625 
L 9.28125 47.703125 
L 2.6875 47.703125 
L 2.6875 54.6875 
L 9.28125 54.6875 
L 9.28125 70.21875 
z
" id="DejaVuSans-116"/>
      <path id="DejaVuSans-32"/>
      <path d="M 9.421875 54.6875 
L 18.40625 54.6875 
L 18.40625 0 
L 9.421875 0 
z
M 9.421875 75.984375 
L 18.40625 75.984375 
L 18.40625 64.59375 
L 9.421875 64.59375 
z
" id="DejaVuSans-105"/>
      <path d="M 5.515625 54.6875 
L 48.1875 54.6875 
L 48.1875 46.484375 
L 14.40625 7.171875 
L 48.1875 7.171875 
L 48.1875 0 
L 4.296875 0 
L 4.296875 8.203125 
L 38.09375 47.515625 
L 5.515625 47.515625 
z
" id="DejaVuSans-122"/>
     </defs>
     <g transform="translate(491.246406 300.330997)scale(0.1 -0.1)">
      <use xlink:href="#DejaVuSans-73"/>
      <use x="29.492188" xlink:href="#DejaVuSans-110"/>
      <use x="92.871094" xlink:href="#DejaVuSans-115"/>
      <use x="144.970703" xlink:href="#DejaVuSans-101"/>
      <use x="206.494141" xlink:href="#DejaVuSans-114"/>
      <use x="247.607422" xlink:href="#DejaVuSans-116"/>
      <use x="286.816406" xlink:href="#DejaVuSans-32"/>
      <use x="318.603516" xlink:href="#DejaVuSans-115"/>
      <use x="370.703125" xlink:href="#DejaVuSans-105"/>
      <use x="398.486328" xlink:href="#DejaVuSans-122"/>
      <use x="450.976562" xlink:href="#DejaVuSans-101"/>
     </g>
    </g>
   </g>
   <g id="matplotlib.axis_2">
    <g id="ytick_1">
     <g id="line2d_1">
      <path clip-path="url(#pb23874f09e)" d="M 40.600625 273.99006 
L 993.140625 273.99006 
" style="fill:none;stroke:#dedede;stroke-linecap:square;"/>
     </g>
     <g id="text_8">
      <!-- 0.0 -->
      <defs>
       <path d="M 10.6875 12.40625 
L 21 12.40625 
L 21 0 
L 10.6875 0 
z
" id="DejaVuSans-46"/>
      </defs>
      <g transform="translate(20.878125 277.029435)scale(0.08 -0.08)">
       <use xlink:href="#DejaVuSans-48"/>
       <use x="63.623047" xlink:href="#DejaVuSans-46"/>
       <use x="95.410156" xlink:href="#DejaVuSans-48"/>
      </g>
     </g>
    </g>
    <g id="ytick_2">
     <g id="line2d_2">
      <path clip-path="url(#pb23874f09e)" d="M 40.600625 228.914193 
L 993.140625 228.914193 
" style="fill:none;stroke:#dedede;stroke-linecap:square;"/>
     </g>
     <g id="text_9">
      <!-- 0.2 -->
      <g transform="translate(20.878125 231.953568)scale(0.08 -0.08)">
       <use xlink:href="#DejaVuSans-48"/>
       <use x="63.623047" xlink:href="#DejaVuSans-46"/>
       <use x="95.410156" xlink:href="#DejaVuSans-50"/>
      </g>
     </g>
    </g>
    <g id="ytick_3">
     <g id="line2d_3">
      <path clip-path="url(#pb23874f09e)" d="M 40.600625 183.838327 
L 993.140625 183.838327 
" style="fill:none;stroke:#dedede;stroke-linecap:square;"/>
     </g>
     <g id="text_10">
      <!-- 0.4 -->
      <defs>
       <path d="M 37.796875 64.3125 
L 12.890625 25.390625 
L 37.796875 25.390625 
z
M 35.203125 72.90625 
L 47.609375 72.90625 
L 47.609375 25.390625 
L 58.015625 25.390625 
L 58.015625 17.1875 
L 47.609375 17.1875 
L 47.609375 0 
L 37.796875 0 
L 37.796875 17.1875 
L 4.890625 17.1875 
L 4.890625 26.703125 
z
" id="DejaVuSans-52"/>
      </defs>
      <g transform="translate(20.878125 186.877702)scale(0.08 -0.08)">
       <use xlink:href="#DejaVuSans-48"/>
       <use x="63.623047" xlink:href="#DejaVuSans-46"/>
       <use x="95.410156" xlink:href="#DejaVuSans-52"/>
      </g>
     </g>
    </g>
    <g id="ytick_4">
     <g id="line2d_4">
      <path clip-path="url(#pb23874f09e)" d="M 40.600625 138.76246 
L 993.140625 138.76246 
" style="fill:none;stroke:#dedede;stroke-linecap:square;"/>
     </g>
     <g id="text_11">
      <!-- 0.6 -->
      <defs>
       <path d="M 33.015625 40.375 
Q 26.375 40.375 22.484375 35.828125 
Q 18.609375 31.296875 18.609375 23.390625 
Q 18.609375 15.53125 22.484375 10.953125 
Q 26.375 6.390625 33.015625 6.390625 
Q 39.65625 6.390625 43.53125 10.953125 
Q 47.40625 15.53125 47.40625 23.390625 
Q 47.40625 31.296875 43.53125 35.828125 
Q 39.65625 40.375 33.015625 40.375 
z
M 52.59375 71.296875 
L 52.59375 62.3125 
Q 48.875 64.0625 45.09375 64.984375 
Q 41.3125 65.921875 37.59375 65.921875 
Q 27.828125 65.921875 22.671875 59.328125 
Q 17.53125 52.734375 16.796875 39.40625 
Q 19.671875 43.65625 24.015625 45.921875 
Q 28.375 48.1875 33.59375 48.1875 
Q 44.578125 48.1875 50.953125 41.515625 
Q 57.328125 34.859375 57.328125 23.390625 
Q 57.328125 12.15625 50.6875 5.359375 
Q 44.046875 -1.421875 33.015625 -1.421875 
Q 20.359375 -1.421875 13.671875 8.265625 
Q 6.984375 17.96875 6.984375 36.375 
Q 6.984375 53.65625 15.1875 63.9375 
Q 23.390625 74.21875 37.203125 74.21875 
Q 40.921875 74.21875 44.703125 73.484375 
Q 48.484375 72.75 52.59375 71.296875 
z
" id="DejaVuSans-54"/>
      </defs>
      <g transform="translate(20.878125 141.801835)scale(0.08 -0.08)">
       <use xlink:href="#DejaVuSans-48"/>
       <use x="63.623047" xlink:href="#DejaVuSans-46"/>
       <use x="95.410156" xlink:href="#DejaVuSans-54"/>
      </g>
     </g>
    </g>
    <g id="ytick_5">
     <g id="line2d_5">
      <path clip-path="url(#pb23874f09e)" d="M 40.600625 93.686594 
L 993.140625 93.686594 
" style="fill:none;stroke:#dedede;stroke-linecap:square;"/>
     </g>
     <g id="text_12">
      <!-- 0.8 -->
      <defs>
       <path d="M 31.78125 34.625 
Q 24.75 34.625 20.71875 30.859375 
Q 16.703125 27.09375 16.703125 20.515625 
Q 16.703125 13.921875 20.71875 10.15625 
Q 24.75 6.390625 31.78125 6.390625 
Q 38.8125 6.390625 42.859375 10.171875 
Q 46.921875 13.96875 46.921875 20.515625 
Q 46.921875 27.09375 42.890625 30.859375 
Q 38.875 34.625 31.78125 34.625 
z
M 21.921875 38.8125 
Q 15.578125 40.375 12.03125 44.71875 
Q 8.5 49.078125 8.5 55.328125 
Q 8.5 64.0625 14.71875 69.140625 
Q 20.953125 74.21875 31.78125 74.21875 
Q 42.671875 74.21875 48.875 69.140625 
Q 55.078125 64.0625 55.078125 55.328125 
Q 55.078125 49.078125 51.53125 44.71875 
Q 48 40.375 41.703125 38.8125 
Q 48.828125 37.15625 52.796875 32.3125 
Q 56.78125 27.484375 56.78125 20.515625 
Q 56.78125 9.90625 50.3125 4.234375 
Q 43.84375 -1.421875 31.78125 -1.421875 
Q 19.734375 -1.421875 13.25 4.234375 
Q 6.78125 9.90625 6.78125 20.515625 
Q 6.78125 27.484375 10.78125 32.3125 
Q 14.796875 37.15625 21.921875 38.8125 
z
M 18.3125 54.390625 
Q 18.3125 48.734375 21.84375 45.5625 
Q 25.390625 42.390625 31.78125 42.390625 
Q 38.140625 42.390625 41.71875 45.5625 
Q 45.3125 48.734375 45.3125 54.390625 
Q 45.3125 60.0625 41.71875 63.234375 
Q 38.140625 66.40625 31.78125 66.40625 
Q 25.390625 66.40625 21.84375 63.234375 
Q 18.3125 60.0625 18.3125 54.390625 
z
" id="DejaVuSans-56"/>
      </defs>
      <g transform="translate(20.878125 96.725969)scale(0.08 -0.08)">
       <use xlink:href="#DejaVuSans-48"/>
       <use x="63.623047" xlink:href="#DejaVuSans-46"/>
       <use x="95.410156" xlink:href="#DejaVuSans-56"/>
      </g>
     </g>
    </g>
    <g id="ytick_6">
     <g id="line2d_6">
      <path clip-path="url(#pb23874f09e)" d="M 40.600625 48.610727 
L 993.140625 48.610727 
" style="fill:none;stroke:#dedede;stroke-linecap:square;"/>
     </g>
     <g id="text_13">
      <!-- 1.0 -->
      <g transform="translate(20.878125 51.650102)scale(0.08 -0.08)">
       <use xlink:href="#DejaVuSans-49"/>
       <use x="63.623047" xlink:href="#DejaVuSans-46"/>
       <use x="95.410156" xlink:href="#DejaVuSans-48"/>
      </g>
     </g>
    </g>
    <g id="text_14">
     <!-- Read percent -->
     <defs>
      <path d="M 44.390625 34.1875 
Q 47.5625 33.109375 50.5625 29.59375 
Q 53.5625 26.078125 56.59375 19.921875 
L 66.609375 0 
L 56 0 
L 46.6875 18.703125 
Q 43.0625 26.03125 39.671875 28.421875 
Q 36.28125 30.8125 30.421875 30.8125 
L 19.671875 30.8125 
L 19.671875 0 
L 9.8125 0 
L 9.8125 72.90625 
L 32.078125 72.90625 
Q 44.578125 72.90625 50.734375 67.671875 
Q 56.890625 62.453125 56.890625 51.90625 
Q 56.890625 45.015625 53.6875 40.46875 
Q 50.484375 35.9375 44.390625 34.1875 
z
M 19.671875 64.796875 
L 19.671875 38.921875 
L 32.078125 38.921875 
Q 39.203125 38.921875 42.84375 42.21875 
Q 46.484375 45.515625 46.484375 51.90625 
Q 46.484375 58.296875 42.84375 61.546875 
Q 39.203125 64.796875 32.078125 64.796875 
z
" id="DejaVuSans-82"/>
      <path d="M 34.28125 27.484375 
Q 23.390625 27.484375 19.1875 25 
Q 14.984375 22.515625 14.984375 16.5 
Q 14.984375 11.71875 18.140625 8.90625 
Q 21.296875 6.109375 26.703125 6.109375 
Q 34.1875 6.109375 38.703125 11.40625 
Q 43.21875 16.703125 43.21875 25.484375 
L 43.21875 27.484375 
z
M 52.203125 31.203125 
L 52.203125 0 
L 43.21875 0 
L 43.21875 8.296875 
Q 40.140625 3.328125 35.546875 0.953125 
Q 30.953125 -1.421875 24.3125 -1.421875 
Q 15.921875 -1.421875 10.953125 3.296875 
Q 6 8.015625 6 15.921875 
Q 6 25.140625 12.171875 29.828125 
Q 18.359375 34.515625 30.609375 34.515625 
L 43.21875 34.515625 
L 43.21875 35.40625 
Q 43.21875 41.609375 39.140625 45 
Q 35.0625 48.390625 27.6875 48.390625 
Q 23 48.390625 18.546875 47.265625 
Q 14.109375 46.140625 10.015625 43.890625 
L 10.015625 52.203125 
Q 14.9375 54.109375 19.578125 55.046875 
Q 24.21875 56 28.609375 56 
Q 40.484375 56 46.34375 49.84375 
Q 52.203125 43.703125 52.203125 31.203125 
z
" id="DejaVuSans-97"/>
      <path d="M 45.40625 46.390625 
L 45.40625 75.984375 
L 54.390625 75.984375 
L 54.390625 0 
L 45.40625 0 
L 45.40625 8.203125 
Q 42.578125 3.328125 38.25 0.953125 
Q 33.9375 -1.421875 27.875 -1.421875 
Q 17.96875 -1.421875 11.734375 6.484375 
Q 5.515625 14.40625 5.515625 27.296875 
Q 5.515625 40.1875 11.734375 48.09375 
Q 17.96875 56 27.875 56 
Q 33.9375 56 38.25 53.625 
Q 42.578125 51.265625 45.40625 46.390625 
z
M 14.796875 27.296875 
Q 14.796875 17.390625 18.875 11.75 
Q 22.953125 6.109375 30.078125 6.109375 
Q 37.203125 6.109375 41.296875 11.75 
Q 45.40625 17.390625 45.40625 27.296875 
Q 45.40625 37.203125 41.296875 42.84375 
Q 37.203125 48.484375 30.078125 48.484375 
Q 22.953125 48.484375 18.875 42.84375 
Q 14.796875 37.203125 14.796875 27.296875 
z
" id="DejaVuSans-100"/>
      <path d="M 18.109375 8.203125 
L 18.109375 -20.796875 
L 9.078125 -20.796875 
L 9.078125 54.6875 
L 18.109375 54.6875 
L 18.109375 46.390625 
Q 20.953125 51.265625 25.265625 53.625 
Q 29.59375 56 35.59375 56 
Q 45.5625 56 51.78125 48.09375 
Q 58.015625 40.1875 58.015625 27.296875 
Q 58.015625 14.40625 51.78125 6.484375 
Q 45.5625 -1.421875 35.59375 -1.421875 
Q 29.59375 -1.421875 25.265625 0.953125 
Q 20.953125 3.328125 18.109375 8.203125 
z
M 48.6875 27.296875 
Q 48.6875 37.203125 44.609375 42.84375 
Q 40.53125 48.484375 33.40625 48.484375 
Q 26.265625 48.484375 22.1875 42.84375 
Q 18.109375 37.203125 18.109375 27.296875 
Q 18.109375 17.390625 22.1875 11.75 
Q 26.265625 6.109375 33.40625 6.109375 
Q 40.53125 6.109375 44.609375 11.75 
Q 48.6875 17.390625 48.6875 27.296875 
z
" id="DejaVuSans-112"/>
      <path d="M 48.78125 52.59375 
L 48.78125 44.1875 
Q 44.96875 46.296875 41.140625 47.34375 
Q 37.3125 48.390625 33.40625 48.390625 
Q 24.65625 48.390625 19.8125 42.84375 
Q 14.984375 37.3125 14.984375 27.296875 
Q 14.984375 17.28125 19.8125 11.734375 
Q 24.65625 6.203125 33.40625 6.203125 
Q 37.3125 6.203125 41.140625 7.25 
Q 44.96875 8.296875 48.78125 10.40625 
L 48.78125 2.09375 
Q 45.015625 0.34375 40.984375 -0.53125 
Q 36.96875 -1.421875 32.421875 -1.421875 
Q 20.0625 -1.421875 12.78125 6.34375 
Q 5.515625 14.109375 5.515625 27.296875 
Q 5.515625 40.671875 12.859375 48.328125 
Q 20.21875 56 33.015625 56 
Q 37.15625 56 41.109375 55.140625 
Q 45.0625 54.296875 48.78125 52.59375 
z
" id="DejaVuSans-99"/>
     </defs>
     <g transform="translate(14.798438 186.370835)rotate(-90)scale(0.1 -0.1)">
      <use xlink:href="#DejaVuSans-82"/>
      <use x="69.419922" xlink:href="#DejaVuSans-101"/>
      <use x="130.943359" xlink:href="#DejaVuSans-97"/>
      <use x="192.222656" xlink:href="#DejaVuSans-100"/>
      <use x="255.699219" xlink:href="#DejaVuSans-32"/>
      <use x="287.486328" xlink:href="#DejaVuSans-112"/>
      <use x="350.962891" xlink:href="#DejaVuSans-101"/>
      <use x="412.486328" xlink:href="#DejaVuSans-114"/>
      <use x="453.568359" xlink:href="#DejaVuSans-99"/>
      <use x="508.548828" xlink:href="#DejaVuSans-101"/>
      <use x="570.072266" xlink:href="#DejaVuSans-110"/>
      <use x="633.451172" xlink:href="#DejaVuSans-116"/>
     </g>
    </g>
   </g>
   <g id="line2d_7">
    <path clip-path="url(#pb23874f09e)" d="M 83.897898 273.99006 
L 87.117026 262.820578 
L 90.336154 267.67991 
L 93.555282 270.9255 
L 96.77441 272.541829 
L 106.431794 273.573694 
L 112.87005 273.793514 
L 116.089179 273.690069 
L 119.308307 273.777998 
L 141.842203 273.426284 
L 145.061331 273.328012 
L 148.280459 272.813372 
L 151.499587 272.901301 
L 161.156972 271.380658 
L 164.3761 269.966046 
L 167.595228 269.451407 
L 170.814356 270.235004 
L 174.033484 269.854843 
L 177.252612 270.051389 
L 180.47174 269.704848 
L 183.690868 267.017862 
L 186.909996 266.141165 
L 190.129124 227.305297 
L 193.348253 217.744385 
L 196.567381 212.991084 
L 199.786509 202.985359 
L 203.005637 198.961345 
L 206.224765 191.84691 
L 209.443893 188.896139 
L 212.663021 184.049737 
L 215.882149 181.124828 
L 219.101277 175.843957 
L 222.320405 173.402653 
L 225.539533 168.605387 
L 228.758661 167.211465 
L 231.97779 162.737465 
L 235.196918 161.81939 
L 238.416046 158.9281 
L 241.635174 158.816897 
L 244.854302 155.485966 
L 251.292558 151.374024 
L 254.511686 149.113749 
L 257.730814 147.916372 
L 260.949942 148.591351 
L 264.16907 145.925054 
L 267.388199 145.852643 
L 270.607327 143.382891 
L 273.826455 144.903534 
L 277.045583 141.114858 
L 280.264711 143.134623 
L 283.483839 140.509704 
L 286.702967 140.874348 
L 289.922095 140.760559 
L 293.141223 140.421776 
L 296.360351 138.231327 
L 299.579479 138.99682 
L 302.798607 137.610656 
L 306.017736 139.040784 
L 309.236864 138.53649 
L 312.455992 137.636517 
L 315.67512 137.64169 
L 318.894248 139.741625 
L 322.113376 140.6597 
L 325.332504 141.438124 
L 331.77076 140.822626 
L 334.989888 142.296718 
L 338.209016 144.081146 
L 341.428144 143.688054 
L 344.647273 142.788082 
L 347.866401 143.03635 
L 351.085529 143.967356 
L 354.304657 141.789837 
L 357.523785 142.671707 
L 360.742913 141.213131 
L 363.962041 141.84156 
L 367.181169 141.613981 
L 370.400297 142.392405 
L 373.619425 141.463985 
L 376.838553 140.926071 
L 380.057681 140.569185 
L 383.27681 141.805354 
L 386.495938 142.407922 
L 389.715066 143.525128 
L 392.934194 141.391574 
L 396.153322 143.010489 
L 399.37245 142.20879 
L 402.591578 141.846732 
L 405.810706 143.59754 
L 409.029834 140.504532 
L 412.248962 143.269102 
L 415.46809 142.58895 
L 418.687218 145.221628 
L 421.906347 143.786327 
L 425.125475 144.996635 
L 428.344603 143.496681 
L 431.563731 144.25183 
L 434.782859 145.48024 
L 438.001987 145.943157 
L 441.221115 147.47673 
L 444.440243 148.379289 
L 447.659371 147.419836 
L 450.878499 148.40515 
L 454.097627 150.512843 
L 457.316755 149.548218 
L 460.535884 149.82752 
L 463.755012 151.83694 
L 466.97414 151.081791 
L 470.193268 151.040413 
L 473.412396 152.954147 
L 476.631524 152.136931 
L 479.850652 153.779122 
L 483.06978 153.538612 
L 486.288908 154.629957 
L 489.508036 155.959227 
L 492.727164 156.590242 
L 495.946292 157.591073 
L 499.165421 157.896236 
L 502.384549 159.504807 
L 505.603677 160.469432 
L 508.822805 160.172028 
L 515.261061 162.752982 
L 518.480189 165.380487 
L 521.699317 165.310662 
L 528.137573 168.007992 
L 531.356701 169.288125 
L 534.575829 171.152722 
L 537.794958 173.208693 
L 541.014086 174.762956 
L 544.233214 175.285353 
L 547.452342 174.27935 
L 550.67147 174.514687 
L 553.890598 173.234555 
L 557.109726 171.42168 
L 560.328854 164.943432 
L 563.547982 146.116428 
L 566.76711 43.030822 
L 569.986238 115.036354 
L 573.205366 136.824474 
L 576.424495 142.694982 
L 579.643623 146.812096 
L 582.862751 147.779307 
L 589.301007 149.007718 
L 592.520135 150.111994 
L 595.739263 151.979177 
L 598.958391 151.042999 
L 602.177519 151.586086 
L 605.396647 152.9257 
L 608.615775 153.621368 
L 611.834903 154.526512 
L 615.054032 155.607513 
L 618.27316 156.217839 
L 621.492288 156.996264 
L 624.711416 158.123815 
L 627.930544 159.507393 
L 631.149672 160.060824 
L 634.3688 161.201306 
L 637.587928 162.171104 
L 640.807056 162.776257 
L 644.026184 164.133974 
L 647.245312 164.783092 
L 650.46444 166.435627 
L 653.683569 167.216637 
L 656.902697 169.903623 
L 660.121825 169.244161 
L 663.340953 172.081142 
L 666.560081 172.189759 
L 669.779209 173.702644 
L 672.998337 174.113838 
L 676.217465 176.076708 
L 682.655721 178.148196 
L 685.874849 180.42916 
L 689.093977 181.49723 
L 692.313106 182.252379 
L 695.532234 184.127321 
L 698.751362 184.877298 
L 701.97049 186.638451 
L 705.189618 186.853099 
L 708.408746 188.676319 
L 711.627874 189.819387 
L 714.847002 191.627089 
L 718.06613 193.595132 
L 724.504386 195.133878 
L 727.723514 197.052784 
L 730.942643 198.211369 
L 737.380899 200.052691 
L 740.600027 201.899186 
L 743.819155 202.920706 
L 747.038283 205.108569 
L 750.257411 206.608523 
L 753.476539 206.944719 
L 756.695667 208.056754 
L 759.914795 209.939454 
L 763.133923 210.542022 
L 766.353051 212.616096 
L 769.57218 213.252283 
L 772.791308 215.052227 
L 776.010436 216.280637 
L 779.229564 217.051303 
L 782.448692 218.641771 
L 785.66782 219.942593 
L 792.106076 221.66754 
L 795.325204 222.836469 
L 801.76346 225.570005 
L 804.982589 226.39498 
L 811.420845 228.642324 
L 814.639973 229.118172 
L 821.078229 231.64999 
L 824.297357 232.593926 
L 827.516485 234.10681 
L 830.735613 234.652483 
L 837.173869 235.979166 
L 840.392997 236.561045 
L 843.612126 237.81273 
L 846.831254 237.51274 
L 850.050382 238.860112 
L 853.26951 239.946285 
L 856.488638 240.228173 
L 859.707766 241.306588 
L 862.926894 241.523822 
L 869.36515 242.884125 
L 872.584278 243.266872 
L 875.803406 244.355631 
L 882.241663 244.805618 
L 885.460791 245.227156 
L 888.679919 246.034028 
L 891.899047 246.465911 
L 895.118175 246.621079 
L 898.337303 246.460739 
L 901.556431 247.055548 
L 904.775559 247.402089 
L 907.994687 248.027932 
L 911.213815 247.55467 
L 914.432943 248.379645 
L 917.652071 247.971037 
L 920.8712 248.710669 
L 924.090328 248.886526 
L 933.747712 247.844317 
L 943.405096 248.030518 
L 946.624224 248.798598 
L 949.843352 252.31573 
L 949.843352 252.31573 
" style="fill:none;stroke:#7cb5ec;stroke-linecap:square;"/>
   </g>
   <g id="line2d_8">
    <path clip-path="url(#pb23874f09e)" d="M 83.897898 273.99006 
L 87.117026 264.402828 
L 90.336154 268.250905 
L 93.555282 271.257472 
L 96.77441 272.468751 
L 99.993538 273.025981 
L 106.431794 273.5863 
L 112.87005 273.78921 
L 116.089179 273.70372 
L 119.308307 273.76449 
L 122.527435 273.69754 
L 125.746563 273.77685 
L 145.061331 273.337041 
L 148.280459 272.924011 
L 151.499587 272.877661 
L 154.718716 272.412101 
L 157.937844 272.170052 
L 161.156972 271.273952 
L 164.3761 270.225413 
L 167.595228 269.497204 
L 170.814356 270.132713 
L 174.033484 269.927743 
L 180.47174 269.768094 
L 183.690868 267.131296 
L 186.909996 266.792426 
L 190.129124 231.788935 
L 193.348253 224.464612 
L 196.567381 218.919096 
L 199.786509 210.533873 
L 203.005637 206.142987 
L 209.443893 196.636095 
L 212.663021 191.887799 
L 215.882149 189.270571 
L 219.101277 183.888826 
L 222.320405 181.789687 
L 225.539533 176.605702 
L 228.758661 174.633253 
L 231.97779 170.456607 
L 235.196918 169.409098 
L 238.416046 166.8753 
L 241.635174 166.73625 
L 244.854302 163.798692 
L 248.07343 160.594365 
L 251.292558 158.878387 
L 254.511686 157.566168 
L 257.730814 154.40716 
L 260.949942 154.64921 
L 264.16907 153.533721 
L 267.388199 153.103181 
L 270.607327 150.823793 
L 273.826455 151.183263 
L 277.045583 148.339435 
L 280.264711 149.080005 
L 283.483839 147.697746 
L 286.702967 148.467155 
L 289.922095 147.407286 
L 293.141223 148.641225 
L 296.360351 145.150558 
L 299.579479 145.490458 
L 302.798607 143.682809 
L 306.017736 144.511959 
L 309.236864 144.079359 
L 312.455992 143.871299 
L 315.67512 144.879668 
L 318.894248 146.517367 
L 322.113376 145.332868 
L 325.332504 146.301067 
L 328.551632 145.876707 
L 331.77076 147.224976 
L 334.989888 148.045886 
L 338.209016 148.464065 
L 341.428144 148.390935 
L 344.647273 148.673155 
L 347.866401 148.174636 
L 351.085529 147.239396 
L 354.304657 148.088116 
L 357.523785 147.411406 
L 360.742913 147.278536 
L 363.962041 146.479257 
L 367.181169 146.262957 
L 370.400297 148.156096 
L 373.619425 146.841817 
L 376.838553 147.486596 
L 380.057681 146.598737 
L 383.27681 147.325916 
L 386.495938 146.386557 
L 389.715066 148.216866 
L 392.934194 146.105367 
L 396.153322 147.625646 
L 399.37245 147.566936 
L 402.591578 147.097256 
L 405.810706 148.122106 
L 409.029834 146.893317 
L 412.248962 147.898596 
L 415.46809 147.664786 
L 418.687218 149.741264 
L 421.906347 148.458915 
L 425.125475 148.796755 
L 431.563731 148.815295 
L 434.782859 150.558054 
L 438.001987 150.234634 
L 441.221115 151.767273 
L 444.440243 152.346132 
L 447.659371 152.550072 
L 450.878499 153.084641 
L 454.097627 154.28562 
L 460.535884 154.51222 
L 463.755012 156.106659 
L 470.193268 156.971858 
L 476.631524 156.277639 
L 483.06978 157.907097 
L 486.288908 159.891906 
L 489.508036 160.240045 
L 492.727164 161.992074 
L 495.946292 161.993104 
L 499.165421 162.879933 
L 502.384549 164.044862 
L 505.603677 164.181852 
L 508.822805 164.728782 
L 512.041933 167.22447 
L 515.261061 168.074219 
L 518.480189 169.505918 
L 521.699317 170.350517 
L 524.918445 170.919076 
L 528.137573 172.525875 
L 531.356701 174.529223 
L 534.575829 175.854832 
L 537.794958 176.634542 
L 541.014086 178.81505 
L 544.233214 179.762649 
L 547.452342 179.444379 
L 550.67147 178.56785 
L 553.890598 178.67291 
L 557.109726 175.645742 
L 560.328854 169.251508 
L 563.547982 150.127514 
L 566.76711 51.234207 
L 569.986238 117.840131 
L 573.205366 143.891899 
L 576.424495 148.151976 
L 579.643623 151.388233 
L 582.862751 153.207211 
L 586.081879 154.2815 
L 589.301007 155.874909 
L 592.520135 156.300299 
L 595.739263 156.878128 
L 598.958391 158.000827 
L 602.177519 158.073957 
L 605.396647 159.659126 
L 608.615775 159.519046 
L 611.834903 160.643805 
L 615.054032 162.196014 
L 618.27316 162.289744 
L 621.492288 163.310473 
L 624.711416 164.067522 
L 634.3688 167.12147 
L 637.587928 168.344079 
L 640.807056 168.770498 
L 644.026184 169.969417 
L 647.245312 171.837836 
L 650.46444 172.274555 
L 653.683569 172.914185 
L 656.902697 174.493173 
L 663.340953 176.403822 
L 666.560081 177.639821 
L 669.779209 179.666859 
L 672.998337 179.775009 
L 676.217465 180.814278 
L 679.436593 182.902086 
L 685.874849 184.045385 
L 689.093977 185.912774 
L 692.313106 186.558583 
L 695.532234 187.885222 
L 698.751362 189.653731 
L 701.97049 190.18109 
L 708.408746 192.403828 
L 711.627874 194.135257 
L 718.06613 196.668025 
L 721.285258 197.549704 
L 724.504386 198.760983 
L 727.723514 199.343963 
L 730.942643 200.858061 
L 734.161771 201.700601 
L 737.380899 202.94484 
L 740.600027 203.741029 
L 743.819155 205.298388 
L 747.038283 206.021447 
L 750.257411 206.917546 
L 753.476539 208.373965 
L 756.695667 209.462674 
L 759.914795 210.687343 
L 763.133923 211.315643 
L 766.353051 212.403322 
L 769.57218 213.686701 
L 772.791308 213.92566 
L 776.010436 215.849699 
L 779.229564 216.048489 
L 782.448692 217.682067 
L 785.66782 218.795496 
L 792.106076 220.226165 
L 795.325204 221.268524 
L 801.76346 222.666233 
L 811.420845 225.306121 
L 814.639973 225.83348 
L 821.078229 227.893479 
L 824.297357 227.838889 
L 830.735613 229.227328 
L 837.173869 230.136817 
L 840.392997 230.478776 
L 843.612126 230.985536 
L 846.831254 230.977296 
L 850.050382 231.363546 
L 853.26951 231.437706 
L 859.707766 231.283206 
L 862.926894 231.660186 
L 866.146022 231.064846 
L 869.36515 231.092656 
L 872.584278 230.533366 
L 882.241663 229.374617 
L 885.460791 228.099478 
L 888.679919 227.024159 
L 891.899047 226.2084 
L 895.118175 224.390452 
L 904.775559 220.846225 
L 907.994687 218.869656 
L 911.213815 216.707688 
L 917.652071 213.95759 
L 924.090328 209.012565 
L 927.309456 206.928876 
L 930.528584 204.075779 
L 933.747712 200.637642 
L 940.185968 196.210705 
L 943.405096 195.387736 
L 946.624224 195.953205 
L 949.843352 204.980118 
L 949.843352 204.980118 
" style="fill:none;stroke:#434348;stroke-linecap:square;"/>
   </g>
   <g id="line2d_9">
    <path clip-path="url(#pb23874f09e)" d="M 83.897898 273.99006 
L 87.117026 263.976316 
L 90.336154 268.431061 
L 93.555282 271.23823 
L 96.77441 272.58396 
L 103.212666 273.416552 
L 109.650922 273.736006 
L 116.089179 273.771222 
L 132.184819 273.756129 
L 135.403947 273.577537 
L 138.623075 273.554899 
L 145.061331 273.341091 
L 148.280459 272.900899 
L 151.499587 272.87826 
L 154.718716 272.362607 
L 157.937844 271.982784 
L 161.156972 271.331299 
L 164.3761 270.081153 
L 167.595228 269.361754 
L 170.814356 270.211953 
L 174.033484 269.7617 
L 177.252612 270.076123 
L 180.47174 269.708877 
L 183.690868 267.155762 
L 186.909996 266.461516 
L 190.129124 230.038756 
L 193.348253 221.931674 
L 196.567381 215.922421 
L 199.786509 206.291016 
L 203.005637 201.851364 
L 206.224765 195.990519 
L 209.443893 192.828681 
L 212.663021 186.225798 
L 215.882149 183.119299 
L 219.101277 178.56897 
L 222.320405 175.935363 
L 225.539533 170.368818 
L 228.758661 167.596865 
L 231.97779 163.559674 
L 235.196918 162.535912 
L 238.416046 160.231821 
L 244.854302 156.742983 
L 248.07343 153.28433 
L 251.292558 151.033062 
L 254.511686 150.741277 
L 257.730814 147.763062 
L 260.949942 146.40224 
L 264.16907 143.695687 
L 267.388199 145.053994 
L 270.607327 143.313348 
L 273.826455 142.993894 
L 277.045583 140.098687 
L 280.264711 142.100933 
L 283.483839 138.856088 
L 286.702967 140.775326 
L 289.922095 139.137811 
L 293.141223 139.661011 
L 296.360351 137.228634 
L 299.579479 138.566819 
L 302.798607 135.621304 
L 306.017736 137.173296 
L 309.236864 136.129412 
L 312.455992 136.177204 
L 315.67512 136.929304 
L 318.894248 140.38041 
L 322.113376 138.981857 
L 325.332504 139.693711 
L 328.551632 141.097295 
L 331.77076 139.988011 
L 334.989888 141.638102 
L 338.209016 142.953648 
L 341.428144 141.645649 
L 344.647273 143.142302 
L 347.866401 141.929887 
L 351.085529 141.39411 
L 354.304657 141.841849 
L 357.523785 140.984103 
L 360.742913 142.105964 
L 363.962041 141.534972 
L 367.181169 141.152633 
L 370.400297 142.352471 
L 373.619425 142.038049 
L 376.838553 142.513456 
L 380.057681 140.629433 
L 383.27681 141.597856 
L 386.495938 142.007864 
L 389.715066 143.496971 
L 392.934194 141.346318 
L 396.153322 143.371202 
L 399.37245 143.758571 
L 402.591578 143.06181 
L 405.810706 142.707141 
L 409.029834 141.572702 
L 412.248962 144.918163 
L 415.46809 143.58501 
L 418.687218 145.038902 
L 421.906347 144.259133 
L 425.125475 145.652655 
L 428.344603 144.533309 
L 431.563731 145.280378 
L 434.782859 147.144278 
L 438.001987 146.281501 
L 441.221115 147.921532 
L 444.440243 148.080001 
L 447.659371 147.632262 
L 450.878499 149.928808 
L 454.097627 150.135069 
L 457.316755 149.860893 
L 460.535884 151.770069 
L 463.755012 152.522169 
L 466.97414 154.189868 
L 470.193268 152.974938 
L 473.412396 152.922115 
L 476.631524 152.547323 
L 479.850652 154.06913 
L 483.06978 153.810045 
L 486.288908 155.870145 
L 489.508036 156.096529 
L 492.727164 158.302521 
L 495.946292 158.95149 
L 499.165421 158.845844 
L 505.603677 160.85312 
L 508.822805 161.713382 
L 512.041933 163.340835 
L 515.261061 163.836366 
L 518.480189 165.609712 
L 521.699317 166.623411 
L 528.137573 168.052149 
L 534.575829 171.535956 
L 537.794958 172.230202 
L 541.014086 174.217355 
L 544.233214 174.353186 
L 547.452342 174.911601 
L 550.67147 173.714279 
L 553.890598 174.370794 
L 557.109726 171.636571 
L 560.328854 163.972197 
L 563.547982 146.774516 
L 566.76711 53.151926 
L 569.986238 113.589056 
L 573.205366 137.175811 
L 576.424495 142.827879 
L 579.643623 145.476578 
L 582.862751 146.331809 
L 586.081879 146.442486 
L 589.301007 147.234832 
L 592.520135 148.809462 
L 595.739263 148.643447 
L 598.958391 151.126131 
L 602.177519 150.580292 
L 605.396647 151.563808 
L 608.615775 151.749946 
L 611.834903 153.48053 
L 615.054032 153.389976 
L 618.27316 154.074161 
L 621.492288 155.158291 
L 624.711416 156.488929 
L 627.930544 156.732922 
L 631.149672 157.99816 
L 634.3688 158.735167 
L 637.587928 160.123659 
L 640.807056 160.583974 
L 644.026184 160.807844 
L 647.245312 162.938374 
L 650.46444 164.392266 
L 653.683569 164.427481 
L 656.902697 166.67875 
L 660.121825 166.774334 
L 663.340953 168.029511 
L 666.560081 170.139918 
L 669.779209 171.23411 
L 672.998337 171.734671 
L 676.217465 173.191079 
L 679.436593 175.429771 
L 682.655721 176.850962 
L 685.874849 176.908816 
L 689.093977 179.014193 
L 692.313106 180.762384 
L 695.532234 180.782508 
L 698.751362 182.945738 
L 705.189618 186.115122 
L 708.408746 186.532675 
L 711.627874 188.580198 
L 714.847002 189.669359 
L 718.06613 192.056458 
L 721.285258 193.233658 
L 724.504386 193.366973 
L 727.723514 195.837081 
L 730.942643 197.187842 
L 734.161771 197.688403 
L 737.380899 199.104564 
L 740.600027 200.095626 
L 743.819155 201.318102 
L 747.038283 204.225886 
L 750.257411 204.648471 
L 753.476539 206.612985 
L 756.695667 208.386331 
L 759.914795 208.824008 
L 763.133923 210.325692 
L 766.353051 212.725368 
L 769.57218 213.354214 
L 772.791308 214.430799 
L 776.010436 215.721191 
L 779.229564 217.19269 
L 782.448692 217.97749 
L 788.886948 221.159451 
L 792.106076 222.454874 
L 795.325204 223.478635 
L 798.544332 224.104965 
L 801.76346 225.488427 
L 804.982589 227.211465 
L 808.201717 227.948472 
L 811.420845 229.324387 
L 814.639973 229.548256 
L 824.297357 233.07734 
L 827.516485 233.223232 
L 830.735613 234.428101 
L 837.173869 236.299547 
L 840.392997 237.645277 
L 843.612126 238.012523 
L 846.831254 238.626277 
L 850.050382 239.4966 
L 853.26951 240.560607 
L 856.488638 241.219638 
L 859.707766 242.022045 
L 866.146022 242.567884 
L 869.36515 243.838153 
L 872.584278 243.999137 
L 875.803406 244.897129 
L 879.022534 245.591375 
L 882.241663 245.674383 
L 885.460791 246.524583 
L 891.899047 246.816367 
L 895.118175 247.568467 
L 898.337303 248.624928 
L 901.556431 248.599774 
L 907.994687 249.107882 
L 911.213815 249.688936 
L 917.652071 250.287597 
L 920.8712 250.320297 
L 924.090328 250.725274 
L 927.309456 250.269989 
L 930.528584 250.893805 
L 933.747712 250.50392 
L 936.96684 250.76552 
L 940.185968 250.508951 
L 943.405096 250.742881 
L 946.624224 252.377881 
L 949.843352 255.05425 
L 949.843352 255.05425 
" style="fill:none;stroke:#90ed7d;stroke-linecap:square;"/>
   </g>
   <g id="line2d_10">
    <path clip-path="url(#pb23874f09e)" d="M 40.600625 273.99006 
L 993.140625 273.99006 
" style="fill:none;stroke:#dedede;stroke-linecap:square;stroke-width:2;"/>
   </g>
   <g id="text_15">
    <!-- Fastp: Insert Size Distribution -->
    <defs>
     <path d="M 9.8125 72.90625 
L 51.703125 72.90625 
L 51.703125 64.59375 
L 19.671875 64.59375 
L 19.671875 43.109375 
L 48.578125 43.109375 
L 48.578125 34.8125 
L 19.671875 34.8125 
L 19.671875 0 
L 9.8125 0 
z
" id="DejaVuSans-70"/>
     <path d="M 11.71875 12.40625 
L 22.015625 12.40625 
L 22.015625 0 
L 11.71875 0 
z
M 11.71875 51.703125 
L 22.015625 51.703125 
L 22.015625 39.3125 
L 11.71875 39.3125 
z
" id="DejaVuSans-58"/>
     <path d="M 53.515625 70.515625 
L 53.515625 60.890625 
Q 47.90625 63.578125 42.921875 64.890625 
Q 37.9375 66.21875 33.296875 66.21875 
Q 25.25 66.21875 20.875 63.09375 
Q 16.5 59.96875 16.5 54.203125 
Q 16.5 49.359375 19.40625 46.890625 
Q 22.3125 44.4375 30.421875 42.921875 
L 36.375 41.703125 
Q 47.40625 39.59375 52.65625 34.296875 
Q 57.90625 29 57.90625 20.125 
Q 57.90625 9.515625 50.796875 4.046875 
Q 43.703125 -1.421875 29.984375 -1.421875 
Q 24.8125 -1.421875 18.96875 -0.25 
Q 13.140625 0.921875 6.890625 3.21875 
L 6.890625 13.375 
Q 12.890625 10.015625 18.65625 8.296875 
Q 24.421875 6.59375 29.984375 6.59375 
Q 38.421875 6.59375 43.015625 9.90625 
Q 47.609375 13.234375 47.609375 19.390625 
Q 47.609375 24.75 44.3125 27.78125 
Q 41.015625 30.8125 33.5 32.328125 
L 27.484375 33.5 
Q 16.453125 35.6875 11.515625 40.375 
Q 6.59375 45.0625 6.59375 53.421875 
Q 6.59375 63.09375 13.40625 68.65625 
Q 20.21875 74.21875 32.171875 74.21875 
Q 37.3125 74.21875 42.625 73.28125 
Q 47.953125 72.359375 53.515625 70.515625 
z
" id="DejaVuSans-83"/>
     <path d="M 19.671875 64.796875 
L 19.671875 8.109375 
L 31.59375 8.109375 
Q 46.6875 8.109375 53.6875 14.9375 
Q 60.6875 21.78125 60.6875 36.53125 
Q 60.6875 51.171875 53.6875 57.984375 
Q 46.6875 64.796875 31.59375 64.796875 
z
M 9.8125 72.90625 
L 30.078125 72.90625 
Q 51.265625 72.90625 61.171875 64.09375 
Q 71.09375 55.28125 71.09375 36.53125 
Q 71.09375 17.671875 61.125 8.828125 
Q 51.171875 0 30.078125 0 
L 9.8125 0 
z
" id="DejaVuSans-68"/>
     <path d="M 48.6875 27.296875 
Q 48.6875 37.203125 44.609375 42.84375 
Q 40.53125 48.484375 33.40625 48.484375 
Q 26.265625 48.484375 22.1875 42.84375 
Q 18.109375 37.203125 18.109375 27.296875 
Q 18.109375 17.390625 22.1875 11.75 
Q 26.265625 6.109375 33.40625 6.109375 
Q 40.53125 6.109375 44.609375 11.75 
Q 48.6875 17.390625 48.6875 27.296875 
z
M 18.109375 46.390625 
Q 20.953125 51.265625 25.265625 53.625 
Q 29.59375 56 35.59375 56 
Q 45.5625 56 51.78125 48.09375 
Q 58.015625 40.1875 58.015625 27.296875 
Q 58.015625 14.40625 51.78125 6.484375 
Q 45.5625 -1.421875 35.59375 -1.421875 
Q 29.59375 -1.421875 25.265625 0.953125 
Q 20.953125 3.328125 18.109375 8.203125 
L 18.109375 0 
L 9.078125 0 
L 9.078125 75.984375 
L 18.109375 75.984375 
z
" id="DejaVuSans-98"/>
     <path d="M 8.5 21.578125 
L 8.5 54.6875 
L 17.484375 54.6875 
L 17.484375 21.921875 
Q 17.484375 14.15625 20.5 10.265625 
Q 23.53125 6.390625 29.59375 6.390625 
Q 36.859375 6.390625 41.078125 11.03125 
Q 45.3125 15.671875 45.3125 23.6875 
L 45.3125 54.6875 
L 54.296875 54.6875 
L 54.296875 0 
L 45.3125 0 
L 45.3125 8.40625 
Q 42.046875 3.421875 37.71875 1 
Q 33.40625 -1.421875 27.6875 -1.421875 
Q 18.265625 -1.421875 13.375 4.4375 
Q 8.5 10.296875 8.5 21.578125 
z
M 31.109375 56 
z
" id="DejaVuSans-117"/>
     <path d="M 30.609375 48.390625 
Q 23.390625 48.390625 19.1875 42.75 
Q 14.984375 37.109375 14.984375 27.296875 
Q 14.984375 17.484375 19.15625 11.84375 
Q 23.34375 6.203125 30.609375 6.203125 
Q 37.796875 6.203125 41.984375 11.859375 
Q 46.1875 17.53125 46.1875 27.296875 
Q 46.1875 37.015625 41.984375 42.703125 
Q 37.796875 48.390625 30.609375 48.390625 
z
M 30.609375 56 
Q 42.328125 56 49.015625 48.375 
Q 55.71875 40.765625 55.71875 27.296875 
Q 55.71875 13.875 49.015625 6.21875 
Q 42.328125 -1.421875 30.609375 -1.421875 
Q 18.84375 -1.421875 12.171875 6.21875 
Q 5.515625 13.875 5.515625 27.296875 
Q 5.515625 40.765625 12.171875 48.375 
Q 18.84375 56 30.609375 56 
z
" id="DejaVuSans-111"/>
    </defs>
    <g transform="translate(398.635625 19.3575)scale(0.16 -0.16)">
     <use xlink:href="#DejaVuSans-70"/>
     <use x="57.378906" xlink:href="#DejaVuSans-97"/>
     <use x="118.658203" xlink:href="#DejaVuSans-115"/>
     <use x="170.757812" xlink:href="#DejaVuSans-116"/>
     <use x="209.966797" xlink:href="#DejaVuSans-112"/>
     <use x="273.443359" xlink:href="#DejaVuSans-58"/>
     <use x="307.134766" xlink:href="#DejaVuSans-32"/>
     <use x="338.921875" xlink:href="#DejaVuSans-73"/>
     <use x="368.414062" xlink:href="#DejaVuSans-110"/>
     <use x="431.792969" xlink:href="#DejaVuSans-115"/>
     <use x="483.892578" xlink:href="#DejaVuSans-101"/>
     <use x="545.416016" xlink:href="#DejaVuSans-114"/>
     <use x="586.529297" xlink:href="#DejaVuSans-116"/>
     <use x="625.738281" xlink:href="#DejaVuSans-32"/>
     <use x="657.525391" xlink:href="#DejaVuSans-83"/>
     <use x="721.001953" xlink:href="#DejaVuSans-105"/>
     <use x="748.785156" xlink:href="#DejaVuSans-122"/>
     <use x="801.275391" xlink:href="#DejaVuSans-101"/>
     <use x="862.798828" xlink:href="#DejaVuSans-32"/>
     <use x="894.585938" xlink:href="#DejaVuSans-68"/>
     <use x="971.587891" xlink:href="#DejaVuSans-105"/>
     <use x="999.371094" xlink:href="#DejaVuSans-115"/>
     <use x="1051.470703" xlink:href="#DejaVuSans-116"/>
     <use x="1090.679688" xlink:href="#DejaVuSans-114"/>
     <use x="1131.792969" xlink:href="#DejaVuSans-105"/>
     <use x="1159.576172" xlink:href="#DejaVuSans-98"/>
     <use x="1223.052734" xlink:href="#DejaVuSans-117"/>
     <use x="1286.431641" xlink:href="#DejaVuSans-116"/>
     <use x="1325.640625" xlink:href="#DejaVuSans-105"/>
     <use x="1353.423828" xlink:href="#DejaVuSans-111"/>
     <use x="1414.605469" xlink:href="#DejaVuSans-110"/>
    </g>
   </g>
   <g id="legend_1">
    <g id="line2d_11">
     <path d="M 47.800625 315.455394 
L 63.800625 315.455394 
" style="fill:none;stroke:#7cb5ec;stroke-linecap:square;"/>
    </g>
    <g id="line2d_12"/>
    <g id="text_16">
     <!-- Sde-CMat_061-Ex1-7A-ssl.clmp.r1r2_fastp -->
     <defs>
      <path d="M 4.890625 31.390625 
L 31.203125 31.390625 
L 31.203125 23.390625 
L 4.890625 23.390625 
z
" id="DejaVuSans-45"/>
      <path d="M 64.40625 67.28125 
L 64.40625 56.890625 
Q 59.421875 61.53125 53.78125 63.8125 
Q 48.140625 66.109375 41.796875 66.109375 
Q 29.296875 66.109375 22.65625 58.46875 
Q 16.015625 50.828125 16.015625 36.375 
Q 16.015625 21.96875 22.65625 14.328125 
Q 29.296875 6.6875 41.796875 6.6875 
Q 48.140625 6.6875 53.78125 8.984375 
Q 59.421875 11.28125 64.40625 15.921875 
L 64.40625 5.609375 
Q 59.234375 2.09375 53.4375 0.328125 
Q 47.65625 -1.421875 41.21875 -1.421875 
Q 24.65625 -1.421875 15.125 8.703125 
Q 5.609375 18.84375 5.609375 36.375 
Q 5.609375 53.953125 15.125 64.078125 
Q 24.65625 74.21875 41.21875 74.21875 
Q 47.75 74.21875 53.53125 72.484375 
Q 59.328125 70.75 64.40625 67.28125 
z
" id="DejaVuSans-67"/>
      <path d="M 9.8125 72.90625 
L 24.515625 72.90625 
L 43.109375 23.296875 
L 61.8125 72.90625 
L 76.515625 72.90625 
L 76.515625 0 
L 66.890625 0 
L 66.890625 64.015625 
L 48.09375 14.015625 
L 38.1875 14.015625 
L 19.390625 64.015625 
L 19.390625 0 
L 9.8125 0 
z
" id="DejaVuSans-77"/>
      <path d="M 50.984375 -16.609375 
L 50.984375 -23.578125 
L -0.984375 -23.578125 
L -0.984375 -16.609375 
z
" id="DejaVuSans-95"/>
      <path d="M 9.8125 72.90625 
L 55.90625 72.90625 
L 55.90625 64.59375 
L 19.671875 64.59375 
L 19.671875 43.015625 
L 54.390625 43.015625 
L 54.390625 34.71875 
L 19.671875 34.71875 
L 19.671875 8.296875 
L 56.78125 8.296875 
L 56.78125 0 
L 9.8125 0 
z
" id="DejaVuSans-69"/>
      <path d="M 54.890625 54.6875 
L 35.109375 28.078125 
L 55.90625 0 
L 45.3125 0 
L 29.390625 21.484375 
L 13.484375 0 
L 2.875 0 
L 24.125 28.609375 
L 4.6875 54.6875 
L 15.28125 54.6875 
L 29.78125 35.203125 
L 44.28125 54.6875 
z
" id="DejaVuSans-120"/>
      <path d="M 8.203125 72.90625 
L 55.078125 72.90625 
L 55.078125 68.703125 
L 28.609375 0 
L 18.3125 0 
L 43.21875 64.59375 
L 8.203125 64.59375 
z
" id="DejaVuSans-55"/>
      <path d="M 34.1875 63.1875 
L 20.796875 26.90625 
L 47.609375 26.90625 
z
M 28.609375 72.90625 
L 39.796875 72.90625 
L 67.578125 0 
L 57.328125 0 
L 50.6875 18.703125 
L 17.828125 18.703125 
L 11.1875 0 
L 0.78125 0 
z
" id="DejaVuSans-65"/>
      <path d="M 9.421875 75.984375 
L 18.40625 75.984375 
L 18.40625 0 
L 9.421875 0 
z
" id="DejaVuSans-108"/>
      <path d="M 52 44.1875 
Q 55.375 50.25 60.0625 53.125 
Q 64.75 56 71.09375 56 
Q 79.640625 56 84.28125 50.015625 
Q 88.921875 44.046875 88.921875 33.015625 
L 88.921875 0 
L 79.890625 0 
L 79.890625 32.71875 
Q 79.890625 40.578125 77.09375 44.375 
Q 74.3125 48.1875 68.609375 48.1875 
Q 61.625 48.1875 57.5625 43.546875 
Q 53.515625 38.921875 53.515625 30.90625 
L 53.515625 0 
L 44.484375 0 
L 44.484375 32.71875 
Q 44.484375 40.625 41.703125 44.40625 
Q 38.921875 48.1875 33.109375 48.1875 
Q 26.21875 48.1875 22.15625 43.53125 
Q 18.109375 38.875 18.109375 30.90625 
L 18.109375 0 
L 9.078125 0 
L 9.078125 54.6875 
L 18.109375 54.6875 
L 18.109375 46.1875 
Q 21.1875 51.21875 25.484375 53.609375 
Q 29.78125 56 35.6875 56 
Q 41.65625 56 45.828125 52.96875 
Q 50 49.953125 52 44.1875 
z
" id="DejaVuSans-109"/>
      <path d="M 37.109375 75.984375 
L 37.109375 68.5 
L 28.515625 68.5 
Q 23.6875 68.5 21.796875 66.546875 
Q 19.921875 64.59375 19.921875 59.515625 
L 19.921875 54.6875 
L 34.71875 54.6875 
L 34.71875 47.703125 
L 19.921875 47.703125 
L 19.921875 0 
L 10.890625 0 
L 10.890625 47.703125 
L 2.296875 47.703125 
L 2.296875 54.6875 
L 10.890625 54.6875 
L 10.890625 58.5 
Q 10.890625 67.625 15.140625 71.796875 
Q 19.390625 75.984375 28.609375 75.984375 
z
" id="DejaVuSans-102"/>
     </defs>
     <g transform="translate(70.200625 318.255394)scale(0.08 -0.08)">
      <use xlink:href="#DejaVuSans-83"/>
      <use x="63.476562" xlink:href="#DejaVuSans-100"/>
      <use x="126.953125" xlink:href="#DejaVuSans-101"/>
      <use x="188.476562" xlink:href="#DejaVuSans-45"/>
      <use x="224.560547" xlink:href="#DejaVuSans-67"/>
      <use x="294.384766" xlink:href="#DejaVuSans-77"/>
      <use x="380.664062" xlink:href="#DejaVuSans-97"/>
      <use x="441.943359" xlink:href="#DejaVuSans-116"/>
      <use x="481.152344" xlink:href="#DejaVuSans-95"/>
      <use x="531.152344" xlink:href="#DejaVuSans-48"/>
      <use x="594.775391" xlink:href="#DejaVuSans-54"/>
      <use x="658.398438" xlink:href="#DejaVuSans-49"/>
      <use x="722.021484" xlink:href="#DejaVuSans-45"/>
      <use x="758.105469" xlink:href="#DejaVuSans-69"/>
      <use x="821.289062" xlink:href="#DejaVuSans-120"/>
      <use x="880.46875" xlink:href="#DejaVuSans-49"/>
      <use x="944.091797" xlink:href="#DejaVuSans-45"/>
      <use x="980.175781" xlink:href="#DejaVuSans-55"/>
      <use x="1043.798828" xlink:href="#DejaVuSans-65"/>
      <use x="1112.175781" xlink:href="#DejaVuSans-45"/>
      <use x="1148.259766" xlink:href="#DejaVuSans-115"/>
      <use x="1200.359375" xlink:href="#DejaVuSans-115"/>
      <use x="1252.458984" xlink:href="#DejaVuSans-108"/>
      <use x="1280.242188" xlink:href="#DejaVuSans-46"/>
      <use x="1312.029297" xlink:href="#DejaVuSans-99"/>
      <use x="1367.009766" xlink:href="#DejaVuSans-108"/>
      <use x="1394.792969" xlink:href="#DejaVuSans-109"/>
      <use x="1492.205078" xlink:href="#DejaVuSans-112"/>
      <use x="1555.681641" xlink:href="#DejaVuSans-46"/>
      <use x="1587.46875" xlink:href="#DejaVuSans-114"/>
      <use x="1628.582031" xlink:href="#DejaVuSans-49"/>
      <use x="1692.205078" xlink:href="#DejaVuSans-114"/>
      <use x="1733.318359" xlink:href="#DejaVuSans-50"/>
      <use x="1796.941406" xlink:href="#DejaVuSans-95"/>
      <use x="1846.941406" xlink:href="#DejaVuSans-102"/>
      <use x="1882.146484" xlink:href="#DejaVuSans-97"/>
      <use x="1943.425781" xlink:href="#DejaVuSans-115"/>
      <use x="1995.525391" xlink:href="#DejaVuSans-116"/>
      <use x="2034.734375" xlink:href="#DejaVuSans-112"/>
     </g>
    </g>
    <g id="line2d_13">
     <path d="M 421.7425 315.455394 
L 437.7425 315.455394 
" style="fill:none;stroke:#434348;stroke-linecap:square;"/>
    </g>
    <g id="line2d_14"/>
    <g id="text_17">
     <!-- Sde-CMat_061-Ex1-8A-ssl.clmp.r1r2_fastp -->
     <g transform="translate(444.1425 318.255394)scale(0.08 -0.08)">
      <use xlink:href="#DejaVuSans-83"/>
      <use x="63.476562" xlink:href="#DejaVuSans-100"/>
      <use x="126.953125" xlink:href="#DejaVuSans-101"/>
      <use x="188.476562" xlink:href="#DejaVuSans-45"/>
      <use x="224.560547" xlink:href="#DejaVuSans-67"/>
      <use x="294.384766" xlink:href="#DejaVuSans-77"/>
      <use x="380.664062" xlink:href="#DejaVuSans-97"/>
      <use x="441.943359" xlink:href="#DejaVuSans-116"/>
      <use x="481.152344" xlink:href="#DejaVuSans-95"/>
      <use x="531.152344" xlink:href="#DejaVuSans-48"/>
      <use x="594.775391" xlink:href="#DejaVuSans-54"/>
      <use x="658.398438" xlink:href="#DejaVuSans-49"/>
      <use x="722.021484" xlink:href="#DejaVuSans-45"/>
      <use x="758.105469" xlink:href="#DejaVuSans-69"/>
      <use x="821.289062" xlink:href="#DejaVuSans-120"/>
      <use x="880.46875" xlink:href="#DejaVuSans-49"/>
      <use x="944.091797" xlink:href="#DejaVuSans-45"/>
      <use x="980.175781" xlink:href="#DejaVuSans-56"/>
      <use x="1043.798828" xlink:href="#DejaVuSans-65"/>
      <use x="1112.175781" xlink:href="#DejaVuSans-45"/>
      <use x="1148.259766" xlink:href="#DejaVuSans-115"/>
      <use x="1200.359375" xlink:href="#DejaVuSans-115"/>
      <use x="1252.458984" xlink:href="#DejaVuSans-108"/>
      <use x="1280.242188" xlink:href="#DejaVuSans-46"/>
      <use x="1312.029297" xlink:href="#DejaVuSans-99"/>
      <use x="1367.009766" xlink:href="#DejaVuSans-108"/>
      <use x="1394.792969" xlink:href="#DejaVuSans-109"/>
      <use x="1492.205078" xlink:href="#DejaVuSans-112"/>
      <use x="1555.681641" xlink:href="#DejaVuSans-46"/>
      <use x="1587.46875" xlink:href="#DejaVuSans-114"/>
      <use x="1628.582031" xlink:href="#DejaVuSans-49"/>
      <use x="1692.205078" xlink:href="#DejaVuSans-114"/>
      <use x="1733.318359" xlink:href="#DejaVuSans-50"/>
      <use x="1796.941406" xlink:href="#DejaVuSans-95"/>
      <use x="1846.941406" xlink:href="#DejaVuSans-102"/>
      <use x="1882.146484" xlink:href="#DejaVuSans-97"/>
      <use x="1943.425781" xlink:href="#DejaVuSans-115"/>
      <use x="1995.525391" xlink:href="#DejaVuSans-116"/>
      <use x="2034.734375" xlink:href="#DejaVuSans-112"/>
     </g>
    </g>
    <g id="line2d_15">
     <path d="M 795.684375 315.455394 
L 811.684375 315.455394 
" style="fill:none;stroke:#90ed7d;stroke-linecap:square;"/>
    </g>
    <g id="line2d_16"/>
    <g id="text_18">
     <!-- Sde-CMat_061-Ex1-9A-ssl.clmp.r1r2_fastp -->
     <defs>
      <path d="M 10.984375 1.515625 
L 10.984375 10.5 
Q 14.703125 8.734375 18.5 7.8125 
Q 22.3125 6.890625 25.984375 6.890625 
Q 35.75 6.890625 40.890625 13.453125 
Q 46.046875 20.015625 46.78125 33.40625 
Q 43.953125 29.203125 39.59375 26.953125 
Q 35.25 24.703125 29.984375 24.703125 
Q 19.046875 24.703125 12.671875 31.3125 
Q 6.296875 37.9375 6.296875 49.421875 
Q 6.296875 60.640625 12.9375 67.421875 
Q 19.578125 74.21875 30.609375 74.21875 
Q 43.265625 74.21875 49.921875 64.515625 
Q 56.59375 54.828125 56.59375 36.375 
Q 56.59375 19.140625 48.40625 8.859375 
Q 40.234375 -1.421875 26.421875 -1.421875 
Q 22.703125 -1.421875 18.890625 -0.6875 
Q 15.09375 0.046875 10.984375 1.515625 
z
M 30.609375 32.421875 
Q 37.25 32.421875 41.125 36.953125 
Q 45.015625 41.5 45.015625 49.421875 
Q 45.015625 57.28125 41.125 61.84375 
Q 37.25 66.40625 30.609375 66.40625 
Q 23.96875 66.40625 20.09375 61.84375 
Q 16.21875 57.28125 16.21875 49.421875 
Q 16.21875 41.5 20.09375 36.953125 
Q 23.96875 32.421875 30.609375 32.421875 
z
" id="DejaVuSans-57"/>
     </defs>
     <g transform="translate(818.084375 318.255394)scale(0.08 -0.08)">
      <use xlink:href="#DejaVuSans-83"/>
      <use x="63.476562" xlink:href="#DejaVuSans-100"/>
      <use x="126.953125" xlink:href="#DejaVuSans-101"/>
      <use x="188.476562" xlink:href="#DejaVuSans-45"/>
      <use x="224.560547" xlink:href="#DejaVuSans-67"/>
      <use x="294.384766" xlink:href="#DejaVuSans-77"/>
      <use x="380.664062" xlink:href="#DejaVuSans-97"/>
      <use x="441.943359" xlink:href="#DejaVuSans-116"/>
      <use x="481.152344" xlink:href="#DejaVuSans-95"/>
      <use x="531.152344" xlink:href="#DejaVuSans-48"/>
      <use x="594.775391" xlink:href="#DejaVuSans-54"/>
      <use x="658.398438" xlink:href="#DejaVuSans-49"/>
      <use x="722.021484" xlink:href="#DejaVuSans-45"/>
      <use x="758.105469" xlink:href="#DejaVuSans-69"/>
      <use x="821.289062" xlink:href="#DejaVuSans-120"/>
      <use x="880.46875" xlink:href="#DejaVuSans-49"/>
      <use x="944.091797" xlink:href="#DejaVuSans-45"/>
      <use x="980.175781" xlink:href="#DejaVuSans-57"/>
      <use x="1043.798828" xlink:href="#DejaVuSans-65"/>
      <use x="1112.175781" xlink:href="#DejaVuSans-45"/>
      <use x="1148.259766" xlink:href="#DejaVuSans-115"/>
      <use x="1200.359375" xlink:href="#DejaVuSans-115"/>
      <use x="1252.458984" xlink:href="#DejaVuSans-108"/>
      <use x="1280.242188" xlink:href="#DejaVuSans-46"/>
      <use x="1312.029297" xlink:href="#DejaVuSans-99"/>
      <use x="1367.009766" xlink:href="#DejaVuSans-108"/>
      <use x="1394.792969" xlink:href="#DejaVuSans-109"/>
      <use x="1492.205078" xlink:href="#DejaVuSans-112"/>
      <use x="1555.681641" xlink:href="#DejaVuSans-46"/>
      <use x="1587.46875" xlink:href="#DejaVuSans-114"/>
      <use x="1628.582031" xlink:href="#DejaVuSans-49"/>
      <use x="1692.205078" xlink:href="#DejaVuSans-114"/>
      <use x="1733.318359" xlink:href="#DejaVuSans-50"/>
      <use x="1796.941406" xlink:href="#DejaVuSans-95"/>
      <use x="1846.941406" xlink:href="#DejaVuSans-102"/>
      <use x="1882.146484" xlink:href="#DejaVuSans-97"/>
      <use x="1943.425781" xlink:href="#DejaVuSans-115"/>
      <use x="1995.525391" xlink:href="#DejaVuSans-116"/>
      <use x="2034.734375" xlink:href="#DejaVuSans-112"/>
     </g>
    </g>
   </g>
  </g>
 </g>
 <defs>
  <clipPath id="pb23874f09e">
   <rect height="242.5072" width="952.54" x="40.600625" y="31.48286"/>
  </clipPath>
 </defs>
</svg>
