<?xml version="1.0" encoding="utf-8" standalone="no"?>
<!DOCTYPE svg PUBLIC "-//W3C//DTD SVG 1.1//EN"
  "http://www.w3.org/Graphics/SVG/1.1/DTD/svg11.dtd">
<!-- Created with matplotlib (https://matplotlib.org/) -->
<svg height="330.541644pt" version="1.1" viewBox="0 0 1000.280625 330.541644" width="1000.280625pt" xmlns="http://www.w3.org/2000/svg" xmlns:xlink="http://www.w3.org/1999/xlink">
 <defs>
  <style type="text/css">
*{stroke-linecap:butt;stroke-linejoin:round;}
  </style>
 </defs>
 <g id="figure_1">
  <g id="axes_1">
   <g id="patch_1">
    <path d="M 40.600625 273.99006 
L 985.445625 273.99006 
L 985.445625 31.48286 
L 40.600625 31.48286 
z
" style="fill:#ffffff;"/>
   </g>
   <g id="matplotlib.axis_1">
    <g id="xtick_1">
     <g id="text_1">
      <!-- 0 -->
      <defs>
       <path d="M 31.78125 66.40625 
Q 24.171875 66.40625 20.328125 58.90625 
Q 16.5 51.421875 16.5 36.375 
Q 16.5 21.390625 20.328125 13.890625 
Q 24.171875 6.390625 31.78125 6.390625 
Q 39.453125 6.390625 43.28125 13.890625 
Q 47.125 21.390625 47.125 36.375 
Q 47.125 51.421875 43.28125 58.90625 
Q 39.453125 66.40625 31.78125 66.40625 
z
M 31.78125 74.21875 
Q 44.046875 74.21875 50.515625 64.515625 
Q 56.984375 54.828125 56.984375 36.375 
Q 56.984375 17.96875 50.515625 8.265625 
Q 44.046875 -1.421875 31.78125 -1.421875 
Q 19.53125 -1.421875 13.0625 8.265625 
Q 6.59375 17.96875 6.59375 36.375 
Q 6.59375 54.828125 13.0625 64.515625 
Q 19.53125 74.21875 31.78125 74.21875 
z
" id="DejaVuSans-48"/>
      </defs>
      <g transform="translate(38.055625 287.06881)scale(0.08 -0.08)">
       <use xlink:href="#DejaVuSans-48"/>
      </g>
     </g>
    </g>
    <g id="xtick_2">
     <g id="text_2">
      <!-- 20 -->
      <defs>
       <path d="M 19.1875 8.296875 
L 53.609375 8.296875 
L 53.609375 0 
L 7.328125 0 
L 7.328125 8.296875 
Q 12.9375 14.109375 22.625 23.890625 
Q 32.328125 33.6875 34.8125 36.53125 
Q 39.546875 41.84375 41.421875 45.53125 
Q 43.3125 49.21875 43.3125 52.78125 
Q 43.3125 58.59375 39.234375 62.25 
Q 35.15625 65.921875 28.609375 65.921875 
Q 23.96875 65.921875 18.8125 64.3125 
Q 13.671875 62.703125 7.8125 59.421875 
L 7.8125 69.390625 
Q 13.765625 71.78125 18.9375 73 
Q 24.125 74.21875 28.421875 74.21875 
Q 39.75 74.21875 46.484375 68.546875 
Q 53.21875 62.890625 53.21875 53.421875 
Q 53.21875 48.921875 51.53125 44.890625 
Q 49.859375 40.875 45.40625 35.40625 
Q 44.1875 33.984375 37.640625 27.21875 
Q 31.109375 20.453125 19.1875 8.296875 
z
" id="DejaVuSans-50"/>
      </defs>
      <g transform="translate(224.479625 287.06881)scale(0.08 -0.08)">
       <use xlink:href="#DejaVuSans-50"/>
       <use x="63.623047" xlink:href="#DejaVuSans-48"/>
      </g>
     </g>
    </g>
    <g id="xtick_3">
     <g id="text_3">
      <!-- 40 -->
      <defs>
       <path d="M 37.796875 64.3125 
L 12.890625 25.390625 
L 37.796875 25.390625 
z
M 35.203125 72.90625 
L 47.609375 72.90625 
L 47.609375 25.390625 
L 58.015625 25.390625 
L 58.015625 17.1875 
L 47.609375 17.1875 
L 47.609375 0 
L 37.796875 0 
L 37.796875 17.1875 
L 4.890625 17.1875 
L 4.890625 26.703125 
z
" id="DejaVuSans-52"/>
      </defs>
      <g transform="translate(413.448625 287.06881)scale(0.08 -0.08)">
       <use xlink:href="#DejaVuSans-52"/>
       <use x="63.623047" xlink:href="#DejaVuSans-48"/>
      </g>
     </g>
    </g>
    <g id="xtick_4">
     <g id="text_4">
      <!-- 60 -->
      <defs>
       <path d="M 33.015625 40.375 
Q 26.375 40.375 22.484375 35.828125 
Q 18.609375 31.296875 18.609375 23.390625 
Q 18.609375 15.53125 22.484375 10.953125 
Q 26.375 6.390625 33.015625 6.390625 
Q 39.65625 6.390625 43.53125 10.953125 
Q 47.40625 15.53125 47.40625 23.390625 
Q 47.40625 31.296875 43.53125 35.828125 
Q 39.65625 40.375 33.015625 40.375 
z
M 52.59375 71.296875 
L 52.59375 62.3125 
Q 48.875 64.0625 45.09375 64.984375 
Q 41.3125 65.921875 37.59375 65.921875 
Q 27.828125 65.921875 22.671875 59.328125 
Q 17.53125 52.734375 16.796875 39.40625 
Q 19.671875 43.65625 24.015625 45.921875 
Q 28.375 48.1875 33.59375 48.1875 
Q 44.578125 48.1875 50.953125 41.515625 
Q 57.328125 34.859375 57.328125 23.390625 
Q 57.328125 12.15625 50.6875 5.359375 
Q 44.046875 -1.421875 33.015625 -1.421875 
Q 20.359375 -1.421875 13.671875 8.265625 
Q 6.984375 17.96875 6.984375 36.375 
Q 6.984375 53.65625 15.1875 63.9375 
Q 23.390625 74.21875 37.203125 74.21875 
Q 40.921875 74.21875 44.703125 73.484375 
Q 48.484375 72.75 52.59375 71.296875 
z
" id="DejaVuSans-54"/>
      </defs>
      <g transform="translate(602.417625 287.06881)scale(0.08 -0.08)">
       <use xlink:href="#DejaVuSans-54"/>
       <use x="63.623047" xlink:href="#DejaVuSans-48"/>
      </g>
     </g>
    </g>
    <g id="xtick_5">
     <g id="text_5">
      <!-- 80 -->
      <defs>
       <path d="M 31.78125 34.625 
Q 24.75 34.625 20.71875 30.859375 
Q 16.703125 27.09375 16.703125 20.515625 
Q 16.703125 13.921875 20.71875 10.15625 
Q 24.75 6.390625 31.78125 6.390625 
Q 38.8125 6.390625 42.859375 10.171875 
Q 46.921875 13.96875 46.921875 20.515625 
Q 46.921875 27.09375 42.890625 30.859375 
Q 38.875 34.625 31.78125 34.625 
z
M 21.921875 38.8125 
Q 15.578125 40.375 12.03125 44.71875 
Q 8.5 49.078125 8.5 55.328125 
Q 8.5 64.0625 14.71875 69.140625 
Q 20.953125 74.21875 31.78125 74.21875 
Q 42.671875 74.21875 48.875 69.140625 
Q 55.078125 64.0625 55.078125 55.328125 
Q 55.078125 49.078125 51.53125 44.71875 
Q 48 40.375 41.703125 38.8125 
Q 48.828125 37.15625 52.796875 32.3125 
Q 56.78125 27.484375 56.78125 20.515625 
Q 56.78125 9.90625 50.3125 4.234375 
Q 43.84375 -1.421875 31.78125 -1.421875 
Q 19.734375 -1.421875 13.25 4.234375 
Q 6.78125 9.90625 6.78125 20.515625 
Q 6.78125 27.484375 10.78125 32.3125 
Q 14.796875 37.15625 21.921875 38.8125 
z
M 18.3125 54.390625 
Q 18.3125 48.734375 21.84375 45.5625 
Q 25.390625 42.390625 31.78125 42.390625 
Q 38.140625 42.390625 41.71875 45.5625 
Q 45.3125 48.734375 45.3125 54.390625 
Q 45.3125 60.0625 41.71875 63.234375 
Q 38.140625 66.40625 31.78125 66.40625 
Q 25.390625 66.40625 21.84375 63.234375 
Q 18.3125 60.0625 18.3125 54.390625 
z
" id="DejaVuSans-56"/>
      </defs>
      <g transform="translate(791.386625 287.06881)scale(0.08 -0.08)">
       <use xlink:href="#DejaVuSans-56"/>
       <use x="63.623047" xlink:href="#DejaVuSans-48"/>
      </g>
     </g>
    </g>
    <g id="xtick_6">
     <g id="text_6">
      <!-- 100 -->
      <defs>
       <path d="M 12.40625 8.296875 
L 28.515625 8.296875 
L 28.515625 63.921875 
L 10.984375 60.40625 
L 10.984375 69.390625 
L 28.421875 72.90625 
L 38.28125 72.90625 
L 38.28125 8.296875 
L 54.390625 8.296875 
L 54.390625 0 
L 12.40625 0 
z
" id="DejaVuSans-49"/>
      </defs>
      <g transform="translate(977.810625 287.06881)scale(0.08 -0.08)">
       <use xlink:href="#DejaVuSans-49"/>
       <use x="63.623047" xlink:href="#DejaVuSans-48"/>
       <use x="127.246094" xlink:href="#DejaVuSans-48"/>
      </g>
     </g>
    </g>
    <g id="text_7">
     <!-- % GC -->
     <defs>
      <path d="M 72.703125 32.078125 
Q 68.453125 32.078125 66.03125 28.46875 
Q 63.625 24.859375 63.625 18.40625 
Q 63.625 12.0625 66.03125 8.421875 
Q 68.453125 4.78125 72.703125 4.78125 
Q 76.859375 4.78125 79.265625 8.421875 
Q 81.6875 12.0625 81.6875 18.40625 
Q 81.6875 24.8125 79.265625 28.4375 
Q 76.859375 32.078125 72.703125 32.078125 
z
M 72.703125 38.28125 
Q 80.421875 38.28125 84.953125 32.90625 
Q 89.5 27.546875 89.5 18.40625 
Q 89.5 9.28125 84.9375 3.921875 
Q 80.375 -1.421875 72.703125 -1.421875 
Q 64.890625 -1.421875 60.34375 3.921875 
Q 55.8125 9.28125 55.8125 18.40625 
Q 55.8125 27.59375 60.375 32.9375 
Q 64.9375 38.28125 72.703125 38.28125 
z
M 22.3125 68.015625 
Q 18.109375 68.015625 15.6875 64.375 
Q 13.28125 60.75 13.28125 54.390625 
Q 13.28125 47.953125 15.671875 44.328125 
Q 18.0625 40.71875 22.3125 40.71875 
Q 26.5625 40.71875 28.96875 44.328125 
Q 31.390625 47.953125 31.390625 54.390625 
Q 31.390625 60.6875 28.953125 64.34375 
Q 26.515625 68.015625 22.3125 68.015625 
z
M 66.40625 74.21875 
L 74.21875 74.21875 
L 28.609375 -1.421875 
L 20.796875 -1.421875 
z
M 22.3125 74.21875 
Q 30.03125 74.21875 34.609375 68.875 
Q 39.203125 63.53125 39.203125 54.390625 
Q 39.203125 45.171875 34.640625 39.84375 
Q 30.078125 34.515625 22.3125 34.515625 
Q 14.546875 34.515625 10.03125 39.859375 
Q 5.515625 45.21875 5.515625 54.390625 
Q 5.515625 63.484375 10.046875 68.84375 
Q 14.59375 74.21875 22.3125 74.21875 
z
" id="DejaVuSans-37"/>
      <path id="DejaVuSans-32"/>
      <path d="M 59.515625 10.40625 
L 59.515625 29.984375 
L 43.40625 29.984375 
L 43.40625 38.09375 
L 69.28125 38.09375 
L 69.28125 6.78125 
Q 63.578125 2.734375 56.6875 0.65625 
Q 49.8125 -1.421875 42 -1.421875 
Q 24.90625 -1.421875 15.25 8.5625 
Q 5.609375 18.5625 5.609375 36.375 
Q 5.609375 54.25 15.25 64.234375 
Q 24.90625 74.21875 42 74.21875 
Q 49.125 74.21875 55.546875 72.453125 
Q 61.96875 70.703125 67.390625 67.28125 
L 67.390625 56.78125 
Q 61.921875 61.421875 55.765625 63.765625 
Q 49.609375 66.109375 42.828125 66.109375 
Q 29.4375 66.109375 22.71875 58.640625 
Q 16.015625 51.171875 16.015625 36.375 
Q 16.015625 21.625 22.71875 14.15625 
Q 29.4375 6.6875 42.828125 6.6875 
Q 48.046875 6.6875 52.140625 7.59375 
Q 56.25 8.5 59.515625 10.40625 
z
" id="DejaVuSans-71"/>
      <path d="M 64.40625 67.28125 
L 64.40625 56.890625 
Q 59.421875 61.53125 53.78125 63.8125 
Q 48.140625 66.109375 41.796875 66.109375 
Q 29.296875 66.109375 22.65625 58.46875 
Q 16.015625 50.828125 16.015625 36.375 
Q 16.015625 21.96875 22.65625 14.328125 
Q 29.296875 6.6875 41.796875 6.6875 
Q 48.140625 6.6875 53.78125 8.984375 
Q 59.421875 11.28125 64.40625 15.921875 
L 64.40625 5.609375 
Q 59.234375 2.09375 53.4375 0.328125 
Q 47.65625 -1.421875 41.21875 -1.421875 
Q 24.65625 -1.421875 15.125 8.703125 
Q 5.609375 18.84375 5.609375 36.375 
Q 5.609375 53.953125 15.125 64.078125 
Q 24.65625 74.21875 41.21875 74.21875 
Q 47.75 74.21875 53.53125 72.484375 
Q 59.328125 70.75 64.40625 67.28125 
z
" id="DejaVuSans-67"/>
     </defs>
     <g transform="translate(499.317656 300.330997)scale(0.1 -0.1)">
      <use xlink:href="#DejaVuSans-37"/>
      <use x="95.019531" xlink:href="#DejaVuSans-32"/>
      <use x="126.806641" xlink:href="#DejaVuSans-71"/>
      <use x="204.296875" xlink:href="#DejaVuSans-67"/>
     </g>
    </g>
   </g>
   <g id="matplotlib.axis_2">
    <g id="ytick_1">
     <g id="line2d_1">
      <path clip-path="url(#pfe8ff677c3)" d="M 40.600625 273.99006 
L 985.445625 273.99006 
" style="fill:none;stroke:#dedede;stroke-linecap:square;"/>
     </g>
     <g id="text_8">
      <!-- 0.0 -->
      <defs>
       <path d="M 10.6875 12.40625 
L 21 12.40625 
L 21 0 
L 10.6875 0 
z
" id="DejaVuSans-46"/>
      </defs>
      <g transform="translate(20.878125 277.029435)scale(0.08 -0.08)">
       <use xlink:href="#DejaVuSans-48"/>
       <use x="63.623047" xlink:href="#DejaVuSans-46"/>
       <use x="95.410156" xlink:href="#DejaVuSans-48"/>
      </g>
     </g>
    </g>
    <g id="ytick_2">
     <g id="line2d_2">
      <path clip-path="url(#pfe8ff677c3)" d="M 40.600625 246.242697 
L 985.445625 246.242697 
" style="fill:none;stroke:#dedede;stroke-linecap:square;"/>
     </g>
     <g id="text_9">
      <!-- 0.5 -->
      <defs>
       <path d="M 10.796875 72.90625 
L 49.515625 72.90625 
L 49.515625 64.59375 
L 19.828125 64.59375 
L 19.828125 46.734375 
Q 21.96875 47.46875 24.109375 47.828125 
Q 26.265625 48.1875 28.421875 48.1875 
Q 40.625 48.1875 47.75 41.5 
Q 54.890625 34.8125 54.890625 23.390625 
Q 54.890625 11.625 47.5625 5.09375 
Q 40.234375 -1.421875 26.90625 -1.421875 
Q 22.3125 -1.421875 17.546875 -0.640625 
Q 12.796875 0.140625 7.71875 1.703125 
L 7.71875 11.625 
Q 12.109375 9.234375 16.796875 8.0625 
Q 21.484375 6.890625 26.703125 6.890625 
Q 35.15625 6.890625 40.078125 11.328125 
Q 45.015625 15.765625 45.015625 23.390625 
Q 45.015625 31 40.078125 35.4375 
Q 35.15625 39.890625 26.703125 39.890625 
Q 22.75 39.890625 18.8125 39.015625 
Q 14.890625 38.140625 10.796875 36.28125 
z
" id="DejaVuSans-53"/>
      </defs>
      <g transform="translate(20.878125 249.282072)scale(0.08 -0.08)">
       <use xlink:href="#DejaVuSans-48"/>
       <use x="63.623047" xlink:href="#DejaVuSans-46"/>
       <use x="95.410156" xlink:href="#DejaVuSans-53"/>
      </g>
     </g>
    </g>
    <g id="ytick_3">
     <g id="line2d_3">
      <path clip-path="url(#pfe8ff677c3)" d="M 40.600625 218.495334 
L 985.445625 218.495334 
" style="fill:none;stroke:#dedede;stroke-linecap:square;"/>
     </g>
     <g id="text_10">
      <!-- 1.0 -->
      <g transform="translate(20.878125 221.534709)scale(0.08 -0.08)">
       <use xlink:href="#DejaVuSans-49"/>
       <use x="63.623047" xlink:href="#DejaVuSans-46"/>
       <use x="95.410156" xlink:href="#DejaVuSans-48"/>
      </g>
     </g>
    </g>
    <g id="ytick_4">
     <g id="line2d_4">
      <path clip-path="url(#pfe8ff677c3)" d="M 40.600625 190.747971 
L 985.445625 190.747971 
" style="fill:none;stroke:#dedede;stroke-linecap:square;"/>
     </g>
     <g id="text_11">
      <!-- 1.5 -->
      <g transform="translate(20.878125 193.787346)scale(0.08 -0.08)">
       <use xlink:href="#DejaVuSans-49"/>
       <use x="63.623047" xlink:href="#DejaVuSans-46"/>
       <use x="95.410156" xlink:href="#DejaVuSans-53"/>
      </g>
     </g>
    </g>
    <g id="ytick_5">
     <g id="line2d_5">
      <path clip-path="url(#pfe8ff677c3)" d="M 40.600625 163.000609 
L 985.445625 163.000609 
" style="fill:none;stroke:#dedede;stroke-linecap:square;"/>
     </g>
     <g id="text_12">
      <!-- 2.0 -->
      <g transform="translate(20.878125 166.039984)scale(0.08 -0.08)">
       <use xlink:href="#DejaVuSans-50"/>
       <use x="63.623047" xlink:href="#DejaVuSans-46"/>
       <use x="95.410156" xlink:href="#DejaVuSans-48"/>
      </g>
     </g>
    </g>
    <g id="ytick_6">
     <g id="line2d_6">
      <path clip-path="url(#pfe8ff677c3)" d="M 40.600625 135.253246 
L 985.445625 135.253246 
" style="fill:none;stroke:#dedede;stroke-linecap:square;"/>
     </g>
     <g id="text_13">
      <!-- 2.5 -->
      <g transform="translate(20.878125 138.292621)scale(0.08 -0.08)">
       <use xlink:href="#DejaVuSans-50"/>
       <use x="63.623047" xlink:href="#DejaVuSans-46"/>
       <use x="95.410156" xlink:href="#DejaVuSans-53"/>
      </g>
     </g>
    </g>
    <g id="ytick_7">
     <g id="line2d_7">
      <path clip-path="url(#pfe8ff677c3)" d="M 40.600625 107.505883 
L 985.445625 107.505883 
" style="fill:none;stroke:#dedede;stroke-linecap:square;"/>
     </g>
     <g id="text_14">
      <!-- 3.0 -->
      <defs>
       <path d="M 40.578125 39.3125 
Q 47.65625 37.796875 51.625 33 
Q 55.609375 28.21875 55.609375 21.1875 
Q 55.609375 10.40625 48.1875 4.484375 
Q 40.765625 -1.421875 27.09375 -1.421875 
Q 22.515625 -1.421875 17.65625 -0.515625 
Q 12.796875 0.390625 7.625 2.203125 
L 7.625 11.71875 
Q 11.71875 9.328125 16.59375 8.109375 
Q 21.484375 6.890625 26.8125 6.890625 
Q 36.078125 6.890625 40.9375 10.546875 
Q 45.796875 14.203125 45.796875 21.1875 
Q 45.796875 27.640625 41.28125 31.265625 
Q 36.765625 34.90625 28.71875 34.90625 
L 20.21875 34.90625 
L 20.21875 43.015625 
L 29.109375 43.015625 
Q 36.375 43.015625 40.234375 45.921875 
Q 44.09375 48.828125 44.09375 54.296875 
Q 44.09375 59.90625 40.109375 62.90625 
Q 36.140625 65.921875 28.71875 65.921875 
Q 24.65625 65.921875 20.015625 65.03125 
Q 15.375 64.15625 9.8125 62.3125 
L 9.8125 71.09375 
Q 15.4375 72.65625 20.34375 73.4375 
Q 25.25 74.21875 29.59375 74.21875 
Q 40.828125 74.21875 47.359375 69.109375 
Q 53.90625 64.015625 53.90625 55.328125 
Q 53.90625 49.265625 50.4375 45.09375 
Q 46.96875 40.921875 40.578125 39.3125 
z
" id="DejaVuSans-51"/>
      </defs>
      <g transform="translate(20.878125 110.545258)scale(0.08 -0.08)">
       <use xlink:href="#DejaVuSans-51"/>
       <use x="63.623047" xlink:href="#DejaVuSans-46"/>
       <use x="95.410156" xlink:href="#DejaVuSans-48"/>
      </g>
     </g>
    </g>
    <g id="ytick_8">
     <g id="line2d_8">
      <path clip-path="url(#pfe8ff677c3)" d="M 40.600625 79.75852 
L 985.445625 79.75852 
" style="fill:none;stroke:#dedede;stroke-linecap:square;"/>
     </g>
     <g id="text_15">
      <!-- 3.5 -->
      <g transform="translate(20.878125 82.797895)scale(0.08 -0.08)">
       <use xlink:href="#DejaVuSans-51"/>
       <use x="63.623047" xlink:href="#DejaVuSans-46"/>
       <use x="95.410156" xlink:href="#DejaVuSans-53"/>
      </g>
     </g>
    </g>
    <g id="ytick_9">
     <g id="line2d_9">
      <path clip-path="url(#pfe8ff677c3)" d="M 40.600625 52.011157 
L 985.445625 52.011157 
" style="fill:none;stroke:#dedede;stroke-linecap:square;"/>
     </g>
     <g id="text_16">
      <!-- 4.0 -->
      <g transform="translate(20.878125 55.050532)scale(0.08 -0.08)">
       <use xlink:href="#DejaVuSans-52"/>
       <use x="63.623047" xlink:href="#DejaVuSans-46"/>
       <use x="95.410156" xlink:href="#DejaVuSans-48"/>
      </g>
     </g>
    </g>
    <g id="text_17">
     <!-- Percentage -->
     <defs>
      <path d="M 19.671875 64.796875 
L 19.671875 37.40625 
L 32.078125 37.40625 
Q 38.96875 37.40625 42.71875 40.96875 
Q 46.484375 44.53125 46.484375 51.125 
Q 46.484375 57.671875 42.71875 61.234375 
Q 38.96875 64.796875 32.078125 64.796875 
z
M 9.8125 72.90625 
L 32.078125 72.90625 
Q 44.34375 72.90625 50.609375 67.359375 
Q 56.890625 61.8125 56.890625 51.125 
Q 56.890625 40.328125 50.609375 34.8125 
Q 44.34375 29.296875 32.078125 29.296875 
L 19.671875 29.296875 
L 19.671875 0 
L 9.8125 0 
z
" id="DejaVuSans-80"/>
      <path d="M 56.203125 29.59375 
L 56.203125 25.203125 
L 14.890625 25.203125 
Q 15.484375 15.921875 20.484375 11.0625 
Q 25.484375 6.203125 34.421875 6.203125 
Q 39.59375 6.203125 44.453125 7.46875 
Q 49.3125 8.734375 54.109375 11.28125 
L 54.109375 2.78125 
Q 49.265625 0.734375 44.1875 -0.34375 
Q 39.109375 -1.421875 33.890625 -1.421875 
Q 20.796875 -1.421875 13.15625 6.1875 
Q 5.515625 13.8125 5.515625 26.8125 
Q 5.515625 40.234375 12.765625 48.109375 
Q 20.015625 56 32.328125 56 
Q 43.359375 56 49.78125 48.890625 
Q 56.203125 41.796875 56.203125 29.59375 
z
M 47.21875 32.234375 
Q 47.125 39.59375 43.09375 43.984375 
Q 39.0625 48.390625 32.421875 48.390625 
Q 24.90625 48.390625 20.390625 44.140625 
Q 15.875 39.890625 15.1875 32.171875 
z
" id="DejaVuSans-101"/>
      <path d="M 41.109375 46.296875 
Q 39.59375 47.171875 37.8125 47.578125 
Q 36.03125 48 33.890625 48 
Q 26.265625 48 22.1875 43.046875 
Q 18.109375 38.09375 18.109375 28.8125 
L 18.109375 0 
L 9.078125 0 
L 9.078125 54.6875 
L 18.109375 54.6875 
L 18.109375 46.1875 
Q 20.953125 51.171875 25.484375 53.578125 
Q 30.03125 56 36.53125 56 
Q 37.453125 56 38.578125 55.875 
Q 39.703125 55.765625 41.0625 55.515625 
z
" id="DejaVuSans-114"/>
      <path d="M 48.78125 52.59375 
L 48.78125 44.1875 
Q 44.96875 46.296875 41.140625 47.34375 
Q 37.3125 48.390625 33.40625 48.390625 
Q 24.65625 48.390625 19.8125 42.84375 
Q 14.984375 37.3125 14.984375 27.296875 
Q 14.984375 17.28125 19.8125 11.734375 
Q 24.65625 6.203125 33.40625 6.203125 
Q 37.3125 6.203125 41.140625 7.25 
Q 44.96875 8.296875 48.78125 10.40625 
L 48.78125 2.09375 
Q 45.015625 0.34375 40.984375 -0.53125 
Q 36.96875 -1.421875 32.421875 -1.421875 
Q 20.0625 -1.421875 12.78125 6.34375 
Q 5.515625 14.109375 5.515625 27.296875 
Q 5.515625 40.671875 12.859375 48.328125 
Q 20.21875 56 33.015625 56 
Q 37.15625 56 41.109375 55.140625 
Q 45.0625 54.296875 48.78125 52.59375 
z
" id="DejaVuSans-99"/>
      <path d="M 54.890625 33.015625 
L 54.890625 0 
L 45.90625 0 
L 45.90625 32.71875 
Q 45.90625 40.484375 42.875 44.328125 
Q 39.84375 48.1875 33.796875 48.1875 
Q 26.515625 48.1875 22.3125 43.546875 
Q 18.109375 38.921875 18.109375 30.90625 
L 18.109375 0 
L 9.078125 0 
L 9.078125 54.6875 
L 18.109375 54.6875 
L 18.109375 46.1875 
Q 21.34375 51.125 25.703125 53.5625 
Q 30.078125 56 35.796875 56 
Q 45.21875 56 50.046875 50.171875 
Q 54.890625 44.34375 54.890625 33.015625 
z
" id="DejaVuSans-110"/>
      <path d="M 18.3125 70.21875 
L 18.3125 54.6875 
L 36.8125 54.6875 
L 36.8125 47.703125 
L 18.3125 47.703125 
L 18.3125 18.015625 
Q 18.3125 11.328125 20.140625 9.421875 
Q 21.96875 7.515625 27.59375 7.515625 
L 36.8125 7.515625 
L 36.8125 0 
L 27.59375 0 
Q 17.1875 0 13.234375 3.875 
Q 9.28125 7.765625 9.28125 18.015625 
L 9.28125 47.703125 
L 2.6875 47.703125 
L 2.6875 54.6875 
L 9.28125 54.6875 
L 9.28125 70.21875 
z
" id="DejaVuSans-116"/>
      <path d="M 34.28125 27.484375 
Q 23.390625 27.484375 19.1875 25 
Q 14.984375 22.515625 14.984375 16.5 
Q 14.984375 11.71875 18.140625 8.90625 
Q 21.296875 6.109375 26.703125 6.109375 
Q 34.1875 6.109375 38.703125 11.40625 
Q 43.21875 16.703125 43.21875 25.484375 
L 43.21875 27.484375 
z
M 52.203125 31.203125 
L 52.203125 0 
L 43.21875 0 
L 43.21875 8.296875 
Q 40.140625 3.328125 35.546875 0.953125 
Q 30.953125 -1.421875 24.3125 -1.421875 
Q 15.921875 -1.421875 10.953125 3.296875 
Q 6 8.015625 6 15.921875 
Q 6 25.140625 12.171875 29.828125 
Q 18.359375 34.515625 30.609375 34.515625 
L 43.21875 34.515625 
L 43.21875 35.40625 
Q 43.21875 41.609375 39.140625 45 
Q 35.0625 48.390625 27.6875 48.390625 
Q 23 48.390625 18.546875 47.265625 
Q 14.109375 46.140625 10.015625 43.890625 
L 10.015625 52.203125 
Q 14.9375 54.109375 19.578125 55.046875 
Q 24.21875 56 28.609375 56 
Q 40.484375 56 46.34375 49.84375 
Q 52.203125 43.703125 52.203125 31.203125 
z
" id="DejaVuSans-97"/>
      <path d="M 45.40625 27.984375 
Q 45.40625 37.75 41.375 43.109375 
Q 37.359375 48.484375 30.078125 48.484375 
Q 22.859375 48.484375 18.828125 43.109375 
Q 14.796875 37.75 14.796875 27.984375 
Q 14.796875 18.265625 18.828125 12.890625 
Q 22.859375 7.515625 30.078125 7.515625 
Q 37.359375 7.515625 41.375 12.890625 
Q 45.40625 18.265625 45.40625 27.984375 
z
M 54.390625 6.78125 
Q 54.390625 -7.171875 48.1875 -13.984375 
Q 42 -20.796875 29.203125 -20.796875 
Q 24.46875 -20.796875 20.265625 -20.09375 
Q 16.0625 -19.390625 12.109375 -17.921875 
L 12.109375 -9.1875 
Q 16.0625 -11.328125 19.921875 -12.34375 
Q 23.78125 -13.375 27.78125 -13.375 
Q 36.625 -13.375 41.015625 -8.765625 
Q 45.40625 -4.15625 45.40625 5.171875 
L 45.40625 9.625 
Q 42.625 4.78125 38.28125 2.390625 
Q 33.9375 0 27.875 0 
Q 17.828125 0 11.671875 7.65625 
Q 5.515625 15.328125 5.515625 27.984375 
Q 5.515625 40.671875 11.671875 48.328125 
Q 17.828125 56 27.875 56 
Q 33.9375 56 38.28125 53.609375 
Q 42.625 51.21875 45.40625 46.390625 
L 45.40625 54.6875 
L 54.390625 54.6875 
z
" id="DejaVuSans-103"/>
     </defs>
     <g transform="translate(14.798438 181.14896)rotate(-90)scale(0.1 -0.1)">
      <use xlink:href="#DejaVuSans-80"/>
      <use x="60.255859" xlink:href="#DejaVuSans-101"/>
      <use x="121.779297" xlink:href="#DejaVuSans-114"/>
      <use x="162.861328" xlink:href="#DejaVuSans-99"/>
      <use x="217.841797" xlink:href="#DejaVuSans-101"/>
      <use x="279.365234" xlink:href="#DejaVuSans-110"/>
      <use x="342.744141" xlink:href="#DejaVuSans-116"/>
      <use x="381.953125" xlink:href="#DejaVuSans-97"/>
      <use x="443.232422" xlink:href="#DejaVuSans-103"/>
      <use x="506.708984" xlink:href="#DejaVuSans-101"/>
     </g>
    </g>
   </g>
   <g id="line2d_10">
    <path clip-path="url(#pfe8ff677c3)" d="M 40.600625 273.99006 
L 50.049075 273.99006 
L 59.497525 273.98996 
L 68.945975 273.98946 
L 78.394425 273.989059 
L 87.842875 273.987758 
L 97.291325 273.983355 
L 106.739775 273.977752 
L 116.188225 273.967244 
L 125.636675 273.949332 
L 135.085125 273.915709 
L 144.533575 273.862673 
L 153.982025 273.783019 
L 163.430475 273.65293 
L 172.878925 273.428777 
L 182.327375 273.103255 
L 191.775825 272.617924 
L 201.224275 271.840994 
L 210.672725 270.675598 
L 220.121175 268.865563 
L 229.569625 266.212853 
L 239.018075 262.424168 
L 248.466525 257.219517 
L 257.914975 250.164603 
L 267.363425 240.771394 
L 276.811875 228.671838 
L 286.260325 213.580541 
L 295.708775 195.661914 
L 305.157225 175.246684 
L 314.605675 153.550681 
L 324.054125 132.463993 
L 333.502575 111.569135 
L 342.951025 91.08666 
L 352.399475 73.591322 
L 361.847925 60.625675 
L 371.296375 52.51384 
L 380.744825 48.328985 
L 390.193275 48.711546 
L 399.641725 52.36694 
L 409.090175 55.84101 
L 418.538625 58.455294 
L 427.987075 60.387713 
L 437.435525 62.903229 
L 446.883975 67.062567 
L 456.332425 73.460633 
L 465.780875 81.611394 
L 475.229325 91.178822 
L 484.677775 101.828189 
L 494.126225 113.069259 
L 503.574675 125.10317 
L 513.023125 137.06263 
L 522.471575 148.940335 
L 531.920025 160.872777 
L 541.368475 172.225723 
L 550.816925 182.78783 
L 560.265375 193.276387 
L 569.713825 203.492658 
L 579.162275 212.638698 
L 588.610725 220.621745 
L 598.059175 227.861385 
L 607.507625 234.333601 
L 616.956075 239.803133 
L 626.404525 244.690168 
L 635.852975 249.356252 
L 645.301425 253.569526 
L 654.749875 256.998466 
L 664.198325 259.762252 
L 673.646775 262.110854 
L 683.095225 264.14134 
L 692.543675 265.877024 
L 701.992125 267.370743 
L 711.440575 268.560155 
L 720.889025 269.56434 
L 730.337475 270.387502 
L 739.785925 270.991714 
L 749.234375 271.54309 
L 758.682825 272.080657 
L 768.131275 272.626129 
L 777.579725 273.024501 
L 787.028175 273.224037 
L 796.476625 273.44709 
L 805.925075 273.680749 
L 815.373525 273.817642 
L 824.821975 273.869878 
L 834.270425 273.911606 
L 843.718875 273.952034 
L 853.167325 273.97605 
L 862.615775 273.982655 
L 872.064225 273.986458 
L 881.512675 273.989059 
L 890.961125 273.98996 
L 900.409575 273.99006 
L 909.858025 273.99006 
L 919.306475 273.99006 
L 928.754925 273.99006 
L 938.203375 273.99006 
L 947.651825 273.99006 
L 957.100275 273.99006 
L 966.548725 273.99006 
L 975.997175 273.99006 
L 985.445625 273.99006 
" style="fill:none;stroke:#f0ad4e;stroke-linecap:square;"/>
   </g>
   <g id="line2d_11">
    <path clip-path="url(#pfe8ff677c3)" d="M 40.600625 273.99006 
L 50.049075 273.99006 
L 59.497525 273.98986 
L 68.945975 273.98946 
L 78.394425 273.988559 
L 87.842875 273.987558 
L 97.291325 273.984856 
L 106.739775 273.977652 
L 116.188225 273.964342 
L 125.636675 273.941227 
L 135.085125 273.911406 
L 144.533575 273.847563 
L 153.982025 273.745793 
L 163.430475 273.607899 
L 172.878925 273.365534 
L 182.327375 272.99408 
L 191.775825 272.46622 
L 201.224275 271.639256 
L 210.672725 270.327561 
L 220.121175 268.356316 
L 229.569625 265.486358 
L 239.018075 261.454807 
L 248.466525 255.907322 
L 257.914975 248.290424 
L 267.363425 238.452312 
L 276.811875 226.072564 
L 286.260325 210.879398 
L 295.708775 192.934553 
L 305.157225 172.482799 
L 314.605675 150.817616 
L 324.054125 129.482058 
L 333.502575 108.375456 
L 342.951025 87.439771 
L 352.399475 69.383951 
L 361.847925 56.714706 
L 371.296375 49.547616 
L 380.744825 45.935251 
L 390.193275 46.305704 
L 399.641725 50.322145 
L 409.090175 54.076807 
L 418.538625 56.820879 
L 427.987075 59.237028 
L 437.435525 62.536079 
L 446.883975 67.5498 
L 456.332425 74.27729 
L 465.780875 83.117522 
L 475.229325 93.304973 
L 484.677775 104.29247 
L 494.126225 115.688146 
L 503.574675 127.557745 
L 513.023125 139.72965 
L 522.471575 151.913463 
L 531.920025 163.886033 
L 541.368475 175.249686 
L 550.816925 185.946885 
L 560.265375 196.199281 
L 569.713825 206.096634 
L 579.162275 215.207451 
L 588.610725 223.147068 
L 598.059175 230.207386 
L 607.507625 236.433734 
L 616.956075 241.684817 
L 626.404525 246.386625 
L 635.852975 250.891699 
L 645.301425 254.90784 
L 654.749875 258.085208 
L 664.198325 260.743221 
L 673.646775 262.945424 
L 683.095225 264.850324 
L 692.543675 266.474232 
L 701.992125 267.819049 
L 711.440575 268.876371 
L 720.889025 269.84253 
L 730.337475 270.630268 
L 739.785925 271.187448 
L 749.234375 271.695995 
L 758.682825 272.162113 
L 768.131275 272.660153 
L 777.579725 273.041613 
L 787.028175 273.266766 
L 796.476625 273.475709 
L 805.925075 273.68265 
L 815.373525 273.816642 
L 824.821975 273.876783 
L 834.270425 273.921613 
L 843.718875 273.951834 
L 853.167325 273.970947 
L 862.615775 273.983055 
L 872.064225 273.987658 
L 881.512675 273.988959 
L 890.961125 273.98956 
L 900.409575 273.98986 
L 909.858025 273.98996 
L 919.306475 273.99006 
L 928.754925 273.99006 
L 938.203375 273.99006 
L 947.651825 273.99006 
L 957.100275 273.99006 
L 966.548725 273.99006 
L 975.997175 273.99006 
L 985.445625 273.99006 
" style="fill:none;stroke:#f0ad4e;stroke-linecap:square;"/>
   </g>
   <g id="line2d_12">
    <path clip-path="url(#pfe8ff677c3)" d="M 40.600625 273.99006 
L 50.049075 273.99006 
L 59.497525 273.989902 
L 68.945975 273.989902 
L 78.394425 273.989823 
L 87.842875 273.989349 
L 97.291325 273.987533 
L 106.739775 273.983348 
L 116.188225 273.977899 
L 125.636675 273.966606 
L 135.085125 273.945837 
L 144.533575 273.912907 
L 153.982025 273.865367 
L 163.430475 273.786082 
L 172.878925 273.655308 
L 182.327375 273.444223 
L 191.775825 273.083569 
L 201.224275 272.504802 
L 210.672725 271.606682 
L 220.121175 270.194866 
L 229.569625 267.974877 
L 239.018075 264.694406 
L 248.466525 259.977323 
L 257.914975 253.287345 
L 267.363425 244.211148 
L 276.811875 232.405133 
L 286.260325 217.473665 
L 295.708775 199.20779 
L 305.157225 177.955132 
L 314.605675 155.095683 
L 324.054125 132.872727 
L 333.502575 111.400297 
L 342.951025 89.953532 
L 352.399475 71.220869 
L 361.847925 57.76613 
L 371.296375 49.39813 
L 380.744825 44.948359 
L 390.193275 45.572138 
L 399.641725 50.106328 
L 409.090175 54.198921 
L 418.538625 57.085097 
L 427.987075 59.640549 
L 437.435525 62.520329 
L 446.883975 66.576911 
L 456.332425 72.813288 
L 465.780875 81.172996 
L 475.229325 90.800558 
L 484.677775 101.178568 
L 494.126225 112.2752 
L 503.574675 124.135308 
L 513.023125 136.135193 
L 522.471575 148.048763 
L 531.920025 159.828244 
L 541.368475 171.370184 
L 550.816925 182.030352 
L 560.265375 192.277351 
L 569.713825 202.533195 
L 579.162275 211.849697 
L 588.610725 220.143386 
L 598.059175 227.493074 
L 607.507625 233.97015 
L 616.956075 239.547369 
L 626.404525 244.535949 
L 635.852975 249.3812 
L 645.301425 253.729969 
L 654.749875 257.244821 
L 664.198325 260.133919 
L 673.646775 262.450094 
L 683.095225 264.44739 
L 692.543675 266.206434 
L 701.992125 267.631991 
L 711.440575 268.765361 
L 720.889025 269.764167 
L 730.337475 270.547623 
L 739.785925 271.095355 
L 749.234375 271.601234 
L 758.682825 272.079315 
L 768.131275 272.600197 
L 777.579725 272.99307 
L 787.028175 273.174463 
L 796.476625 273.350328 
L 805.925075 273.568837 
L 815.373525 273.742491 
L 824.821975 273.832674 
L 834.270425 273.890795 
L 843.718875 273.942441 
L 853.167325 273.970318 
L 862.615775 273.979873 
L 872.064225 273.986112 
L 881.512675 273.987849 
L 890.961125 273.989112 
L 900.409575 273.989744 
L 909.858025 273.99006 
L 919.306475 273.99006 
L 928.754925 273.99006 
L 938.203375 273.99006 
L 947.651825 273.99006 
L 957.100275 273.99006 
L 966.548725 273.99006 
L 975.997175 273.99006 
L 985.445625 273.99006 
" style="fill:none;stroke:#f0ad4e;stroke-linecap:square;"/>
   </g>
   <g id="line2d_13">
    <path clip-path="url(#pfe8ff677c3)" d="M 40.600625 273.99006 
L 50.049075 273.99006 
L 59.497525 273.99006 
L 68.945975 273.99006 
L 78.394425 273.989744 
L 87.842875 273.988875 
L 97.291325 273.987217 
L 106.739775 273.983506 
L 116.188225 273.974345 
L 125.636675 273.959025 
L 135.085125 273.938098 
L 144.533575 273.899877 
L 153.982025 273.840176 
L 163.430475 273.749519 
L 172.878925 273.594818 
L 182.327375 273.344485 
L 191.775825 272.948295 
L 201.224275 272.302877 
L 210.672725 271.296017 
L 220.121175 269.669009 
L 229.569625 267.168046 
L 239.018075 263.57912 
L 248.466525 258.361529 
L 257.914975 251.091757 
L 267.363425 241.396439 
L 276.811875 228.786752 
L 286.260325 213.089122 
L 295.708775 194.652042 
L 305.157225 173.46635 
L 314.605675 150.757337 
L 324.054125 128.628197 
L 333.502575 106.758866 
L 342.951025 85.357193 
L 352.399475 66.898554 
L 361.847925 53.609493 
L 371.296375 46.205631 
L 380.744825 43.030822 
L 390.193275 44.338793 
L 399.641725 48.940028 
L 409.090175 53.150206 
L 418.538625 56.444971 
L 427.987075 59.408774 
L 437.435525 63.043185 
L 446.883975 67.737683 
L 456.332425 74.67831 
L 465.780875 83.488854 
L 475.229325 93.276567 
L 484.677775 104.354799 
L 494.126225 115.713846 
L 503.574675 127.455027 
L 513.023125 139.586158 
L 522.471575 151.541188 
L 531.920025 163.355968 
L 541.368475 174.793432 
L 550.816925 185.268021 
L 560.265375 195.296433 
L 569.713825 205.286307 
L 579.162275 214.507493 
L 588.610725 222.534424 
L 598.059175 229.652337 
L 607.507625 235.983556 
L 616.956075 241.452112 
L 626.404525 246.278963 
L 635.852975 250.829816 
L 645.301425 255.032965 
L 654.749875 258.289429 
L 664.198325 260.905451 
L 673.646775 263.20212 
L 683.095225 265.105758 
L 692.543675 266.759537 
L 701.992125 268.144819 
L 711.440575 269.200641 
L 720.889025 270.081466 
L 730.337475 270.772449 
L 739.785925 271.273984 
L 749.234375 271.750486 
L 758.682825 272.198085 
L 768.131275 272.655318 
L 777.579725 273.007127 
L 787.028175 273.212132 
L 796.476625 273.408766 
L 805.925075 273.602478 
L 815.373525 273.758995 
L 824.821975 273.848547 
L 834.270425 273.901693 
L 843.718875 273.945047 
L 853.167325 273.968738 
L 862.615775 273.977583 
L 872.064225 273.983979 
L 881.512675 273.987217 
L 890.961125 273.988718 
L 900.409575 273.989349 
L 909.858025 273.989823 
L 919.306475 273.989902 
L 928.754925 273.989902 
L 938.203375 273.99006 
L 947.651825 273.99006 
L 957.100275 273.99006 
L 966.548725 273.99006 
L 975.997175 273.99006 
L 985.445625 273.99006 
" style="fill:none;stroke:#f0ad4e;stroke-linecap:square;"/>
   </g>
   <g id="line2d_14">
    <path clip-path="url(#pfe8ff677c3)" d="M 40.600625 273.99006 
L 985.445625 273.99006 
" style="fill:none;stroke:#dedede;stroke-linecap:square;stroke-width:2;"/>
   </g>
   <g id="text_18">
    <!-- FastQC: Per Sequence GC Content -->
    <defs>
     <path d="M 9.8125 72.90625 
L 51.703125 72.90625 
L 51.703125 64.59375 
L 19.671875 64.59375 
L 19.671875 43.109375 
L 48.578125 43.109375 
L 48.578125 34.8125 
L 19.671875 34.8125 
L 19.671875 0 
L 9.8125 0 
z
" id="DejaVuSans-70"/>
     <path d="M 44.28125 53.078125 
L 44.28125 44.578125 
Q 40.484375 46.53125 36.375 47.5 
Q 32.28125 48.484375 27.875 48.484375 
Q 21.1875 48.484375 17.84375 46.4375 
Q 14.5 44.390625 14.5 40.28125 
Q 14.5 37.15625 16.890625 35.375 
Q 19.28125 33.59375 26.515625 31.984375 
L 29.59375 31.296875 
Q 39.15625 29.25 43.1875 25.515625 
Q 47.21875 21.78125 47.21875 15.09375 
Q 47.21875 7.46875 41.1875 3.015625 
Q 35.15625 -1.421875 24.609375 -1.421875 
Q 20.21875 -1.421875 15.453125 -0.5625 
Q 10.6875 0.296875 5.421875 2 
L 5.421875 11.28125 
Q 10.40625 8.6875 15.234375 7.390625 
Q 20.0625 6.109375 24.8125 6.109375 
Q 31.15625 6.109375 34.5625 8.28125 
Q 37.984375 10.453125 37.984375 14.40625 
Q 37.984375 18.0625 35.515625 20.015625 
Q 33.0625 21.96875 24.703125 23.78125 
L 21.578125 24.515625 
Q 13.234375 26.265625 9.515625 29.90625 
Q 5.8125 33.546875 5.8125 39.890625 
Q 5.8125 47.609375 11.28125 51.796875 
Q 16.75 56 26.8125 56 
Q 31.78125 56 36.171875 55.265625 
Q 40.578125 54.546875 44.28125 53.078125 
z
" id="DejaVuSans-115"/>
     <path d="M 39.40625 66.21875 
Q 28.65625 66.21875 22.328125 58.203125 
Q 16.015625 50.203125 16.015625 36.375 
Q 16.015625 22.609375 22.328125 14.59375 
Q 28.65625 6.59375 39.40625 6.59375 
Q 50.140625 6.59375 56.421875 14.59375 
Q 62.703125 22.609375 62.703125 36.375 
Q 62.703125 50.203125 56.421875 58.203125 
Q 50.140625 66.21875 39.40625 66.21875 
z
M 53.21875 1.3125 
L 66.21875 -12.890625 
L 54.296875 -12.890625 
L 43.5 -1.21875 
Q 41.890625 -1.3125 41.03125 -1.359375 
Q 40.1875 -1.421875 39.40625 -1.421875 
Q 24.03125 -1.421875 14.8125 8.859375 
Q 5.609375 19.140625 5.609375 36.375 
Q 5.609375 53.65625 14.8125 63.9375 
Q 24.03125 74.21875 39.40625 74.21875 
Q 54.734375 74.21875 63.90625 63.9375 
Q 73.09375 53.65625 73.09375 36.375 
Q 73.09375 23.6875 67.984375 14.640625 
Q 62.890625 5.609375 53.21875 1.3125 
z
" id="DejaVuSans-81"/>
     <path d="M 11.71875 12.40625 
L 22.015625 12.40625 
L 22.015625 0 
L 11.71875 0 
z
M 11.71875 51.703125 
L 22.015625 51.703125 
L 22.015625 39.3125 
L 11.71875 39.3125 
z
" id="DejaVuSans-58"/>
     <path d="M 53.515625 70.515625 
L 53.515625 60.890625 
Q 47.90625 63.578125 42.921875 64.890625 
Q 37.9375 66.21875 33.296875 66.21875 
Q 25.25 66.21875 20.875 63.09375 
Q 16.5 59.96875 16.5 54.203125 
Q 16.5 49.359375 19.40625 46.890625 
Q 22.3125 44.4375 30.421875 42.921875 
L 36.375 41.703125 
Q 47.40625 39.59375 52.65625 34.296875 
Q 57.90625 29 57.90625 20.125 
Q 57.90625 9.515625 50.796875 4.046875 
Q 43.703125 -1.421875 29.984375 -1.421875 
Q 24.8125 -1.421875 18.96875 -0.25 
Q 13.140625 0.921875 6.890625 3.21875 
L 6.890625 13.375 
Q 12.890625 10.015625 18.65625 8.296875 
Q 24.421875 6.59375 29.984375 6.59375 
Q 38.421875 6.59375 43.015625 9.90625 
Q 47.609375 13.234375 47.609375 19.390625 
Q 47.609375 24.75 44.3125 27.78125 
Q 41.015625 30.8125 33.5 32.328125 
L 27.484375 33.5 
Q 16.453125 35.6875 11.515625 40.375 
Q 6.59375 45.0625 6.59375 53.421875 
Q 6.59375 63.09375 13.40625 68.65625 
Q 20.21875 74.21875 32.171875 74.21875 
Q 37.3125 74.21875 42.625 73.28125 
Q 47.953125 72.359375 53.515625 70.515625 
z
" id="DejaVuSans-83"/>
     <path d="M 14.796875 27.296875 
Q 14.796875 17.390625 18.875 11.75 
Q 22.953125 6.109375 30.078125 6.109375 
Q 37.203125 6.109375 41.296875 11.75 
Q 45.40625 17.390625 45.40625 27.296875 
Q 45.40625 37.203125 41.296875 42.84375 
Q 37.203125 48.484375 30.078125 48.484375 
Q 22.953125 48.484375 18.875 42.84375 
Q 14.796875 37.203125 14.796875 27.296875 
z
M 45.40625 8.203125 
Q 42.578125 3.328125 38.25 0.953125 
Q 33.9375 -1.421875 27.875 -1.421875 
Q 17.96875 -1.421875 11.734375 6.484375 
Q 5.515625 14.40625 5.515625 27.296875 
Q 5.515625 40.1875 11.734375 48.09375 
Q 17.96875 56 27.875 56 
Q 33.9375 56 38.25 53.625 
Q 42.578125 51.265625 45.40625 46.390625 
L 45.40625 54.6875 
L 54.390625 54.6875 
L 54.390625 -20.796875 
L 45.40625 -20.796875 
z
" id="DejaVuSans-113"/>
     <path d="M 8.5 21.578125 
L 8.5 54.6875 
L 17.484375 54.6875 
L 17.484375 21.921875 
Q 17.484375 14.15625 20.5 10.265625 
Q 23.53125 6.390625 29.59375 6.390625 
Q 36.859375 6.390625 41.078125 11.03125 
Q 45.3125 15.671875 45.3125 23.6875 
L 45.3125 54.6875 
L 54.296875 54.6875 
L 54.296875 0 
L 45.3125 0 
L 45.3125 8.40625 
Q 42.046875 3.421875 37.71875 1 
Q 33.40625 -1.421875 27.6875 -1.421875 
Q 18.265625 -1.421875 13.375 4.4375 
Q 8.5 10.296875 8.5 21.578125 
z
M 31.109375 56 
z
" id="DejaVuSans-117"/>
     <path d="M 30.609375 48.390625 
Q 23.390625 48.390625 19.1875 42.75 
Q 14.984375 37.109375 14.984375 27.296875 
Q 14.984375 17.484375 19.15625 11.84375 
Q 23.34375 6.203125 30.609375 6.203125 
Q 37.796875 6.203125 41.984375 11.859375 
Q 46.1875 17.53125 46.1875 27.296875 
Q 46.1875 37.015625 41.984375 42.703125 
Q 37.796875 48.390625 30.609375 48.390625 
z
M 30.609375 56 
Q 42.328125 56 49.015625 48.375 
Q 55.71875 40.765625 55.71875 27.296875 
Q 55.71875 13.875 49.015625 6.21875 
Q 42.328125 -1.421875 30.609375 -1.421875 
Q 18.84375 -1.421875 12.171875 6.21875 
Q 5.515625 13.875 5.515625 27.296875 
Q 5.515625 40.765625 12.171875 48.375 
Q 18.84375 56 30.609375 56 
z
" id="DejaVuSans-111"/>
    </defs>
    <g transform="translate(375.381875 19.3575)scale(0.16 -0.16)">
     <use xlink:href="#DejaVuSans-70"/>
     <use x="57.378906" xlink:href="#DejaVuSans-97"/>
     <use x="118.658203" xlink:href="#DejaVuSans-115"/>
     <use x="170.757812" xlink:href="#DejaVuSans-116"/>
     <use x="209.966797" xlink:href="#DejaVuSans-81"/>
     <use x="288.677734" xlink:href="#DejaVuSans-67"/>
     <use x="358.501953" xlink:href="#DejaVuSans-58"/>
     <use x="392.193359" xlink:href="#DejaVuSans-32"/>
     <use x="423.980469" xlink:href="#DejaVuSans-80"/>
     <use x="484.236328" xlink:href="#DejaVuSans-101"/>
     <use x="545.759766" xlink:href="#DejaVuSans-114"/>
     <use x="586.873047" xlink:href="#DejaVuSans-32"/>
     <use x="618.660156" xlink:href="#DejaVuSans-83"/>
     <use x="682.136719" xlink:href="#DejaVuSans-101"/>
     <use x="743.660156" xlink:href="#DejaVuSans-113"/>
     <use x="807.136719" xlink:href="#DejaVuSans-117"/>
     <use x="870.515625" xlink:href="#DejaVuSans-101"/>
     <use x="932.039062" xlink:href="#DejaVuSans-110"/>
     <use x="995.417969" xlink:href="#DejaVuSans-99"/>
     <use x="1050.398438" xlink:href="#DejaVuSans-101"/>
     <use x="1111.921875" xlink:href="#DejaVuSans-32"/>
     <use x="1143.708984" xlink:href="#DejaVuSans-71"/>
     <use x="1221.199219" xlink:href="#DejaVuSans-67"/>
     <use x="1291.023438" xlink:href="#DejaVuSans-32"/>
     <use x="1322.810547" xlink:href="#DejaVuSans-67"/>
     <use x="1392.634766" xlink:href="#DejaVuSans-111"/>
     <use x="1453.816406" xlink:href="#DejaVuSans-110"/>
     <use x="1517.195312" xlink:href="#DejaVuSans-116"/>
     <use x="1556.404297" xlink:href="#DejaVuSans-101"/>
     <use x="1617.927734" xlink:href="#DejaVuSans-110"/>
     <use x="1681.306641" xlink:href="#DejaVuSans-116"/>
    </g>
   </g>
   <g id="legend_1">
    <g id="line2d_15">
     <path d="M 47.800625 315.455394 
L 63.800625 315.455394 
" style="fill:none;stroke:#f0ad4e;stroke-linecap:square;"/>
    </g>
    <g id="line2d_16"/>
    <g id="text_19">
     <!-- Psq-CGal_005-Ex1-4A-ssl-1-1.clmp.fp2_repr.R1 -->
     <defs>
      <path d="M 4.890625 31.390625 
L 31.203125 31.390625 
L 31.203125 23.390625 
L 4.890625 23.390625 
z
" id="DejaVuSans-45"/>
      <path d="M 9.421875 75.984375 
L 18.40625 75.984375 
L 18.40625 0 
L 9.421875 0 
z
" id="DejaVuSans-108"/>
      <path d="M 50.984375 -16.609375 
L 50.984375 -23.578125 
L -0.984375 -23.578125 
L -0.984375 -16.609375 
z
" id="DejaVuSans-95"/>
      <path d="M 9.8125 72.90625 
L 55.90625 72.90625 
L 55.90625 64.59375 
L 19.671875 64.59375 
L 19.671875 43.015625 
L 54.390625 43.015625 
L 54.390625 34.71875 
L 19.671875 34.71875 
L 19.671875 8.296875 
L 56.78125 8.296875 
L 56.78125 0 
L 9.8125 0 
z
" id="DejaVuSans-69"/>
      <path d="M 54.890625 54.6875 
L 35.109375 28.078125 
L 55.90625 0 
L 45.3125 0 
L 29.390625 21.484375 
L 13.484375 0 
L 2.875 0 
L 24.125 28.609375 
L 4.6875 54.6875 
L 15.28125 54.6875 
L 29.78125 35.203125 
L 44.28125 54.6875 
z
" id="DejaVuSans-120"/>
      <path d="M 34.1875 63.1875 
L 20.796875 26.90625 
L 47.609375 26.90625 
z
M 28.609375 72.90625 
L 39.796875 72.90625 
L 67.578125 0 
L 57.328125 0 
L 50.6875 18.703125 
L 17.828125 18.703125 
L 11.1875 0 
L 0.78125 0 
z
" id="DejaVuSans-65"/>
      <path d="M 52 44.1875 
Q 55.375 50.25 60.0625 53.125 
Q 64.75 56 71.09375 56 
Q 79.640625 56 84.28125 50.015625 
Q 88.921875 44.046875 88.921875 33.015625 
L 88.921875 0 
L 79.890625 0 
L 79.890625 32.71875 
Q 79.890625 40.578125 77.09375 44.375 
Q 74.3125 48.1875 68.609375 48.1875 
Q 61.625 48.1875 57.5625 43.546875 
Q 53.515625 38.921875 53.515625 30.90625 
L 53.515625 0 
L 44.484375 0 
L 44.484375 32.71875 
Q 44.484375 40.625 41.703125 44.40625 
Q 38.921875 48.1875 33.109375 48.1875 
Q 26.21875 48.1875 22.15625 43.53125 
Q 18.109375 38.875 18.109375 30.90625 
L 18.109375 0 
L 9.078125 0 
L 9.078125 54.6875 
L 18.109375 54.6875 
L 18.109375 46.1875 
Q 21.1875 51.21875 25.484375 53.609375 
Q 29.78125 56 35.6875 56 
Q 41.65625 56 45.828125 52.96875 
Q 50 49.953125 52 44.1875 
z
" id="DejaVuSans-109"/>
      <path d="M 18.109375 8.203125 
L 18.109375 -20.796875 
L 9.078125 -20.796875 
L 9.078125 54.6875 
L 18.109375 54.6875 
L 18.109375 46.390625 
Q 20.953125 51.265625 25.265625 53.625 
Q 29.59375 56 35.59375 56 
Q 45.5625 56 51.78125 48.09375 
Q 58.015625 40.1875 58.015625 27.296875 
Q 58.015625 14.40625 51.78125 6.484375 
Q 45.5625 -1.421875 35.59375 -1.421875 
Q 29.59375 -1.421875 25.265625 0.953125 
Q 20.953125 3.328125 18.109375 8.203125 
z
M 48.6875 27.296875 
Q 48.6875 37.203125 44.609375 42.84375 
Q 40.53125 48.484375 33.40625 48.484375 
Q 26.265625 48.484375 22.1875 42.84375 
Q 18.109375 37.203125 18.109375 27.296875 
Q 18.109375 17.390625 22.1875 11.75 
Q 26.265625 6.109375 33.40625 6.109375 
Q 40.53125 6.109375 44.609375 11.75 
Q 48.6875 17.390625 48.6875 27.296875 
z
" id="DejaVuSans-112"/>
      <path d="M 37.109375 75.984375 
L 37.109375 68.5 
L 28.515625 68.5 
Q 23.6875 68.5 21.796875 66.546875 
Q 19.921875 64.59375 19.921875 59.515625 
L 19.921875 54.6875 
L 34.71875 54.6875 
L 34.71875 47.703125 
L 19.921875 47.703125 
L 19.921875 0 
L 10.890625 0 
L 10.890625 47.703125 
L 2.296875 47.703125 
L 2.296875 54.6875 
L 10.890625 54.6875 
L 10.890625 58.5 
Q 10.890625 67.625 15.140625 71.796875 
Q 19.390625 75.984375 28.609375 75.984375 
z
" id="DejaVuSans-102"/>
      <path d="M 44.390625 34.1875 
Q 47.5625 33.109375 50.5625 29.59375 
Q 53.5625 26.078125 56.59375 19.921875 
L 66.609375 0 
L 56 0 
L 46.6875 18.703125 
Q 43.0625 26.03125 39.671875 28.421875 
Q 36.28125 30.8125 30.421875 30.8125 
L 19.671875 30.8125 
L 19.671875 0 
L 9.8125 0 
L 9.8125 72.90625 
L 32.078125 72.90625 
Q 44.578125 72.90625 50.734375 67.671875 
Q 56.890625 62.453125 56.890625 51.90625 
Q 56.890625 45.015625 53.6875 40.46875 
Q 50.484375 35.9375 44.390625 34.1875 
z
M 19.671875 64.796875 
L 19.671875 38.921875 
L 32.078125 38.921875 
Q 39.203125 38.921875 42.84375 42.21875 
Q 46.484375 45.515625 46.484375 51.90625 
Q 46.484375 58.296875 42.84375 61.546875 
Q 39.203125 64.796875 32.078125 64.796875 
z
" id="DejaVuSans-82"/>
     </defs>
     <g transform="translate(70.200625 318.255394)scale(0.08 -0.08)">
      <use xlink:href="#DejaVuSans-80"/>
      <use x="60.287109" xlink:href="#DejaVuSans-115"/>
      <use x="112.386719" xlink:href="#DejaVuSans-113"/>
      <use x="175.863281" xlink:href="#DejaVuSans-45"/>
      <use x="211.947266" xlink:href="#DejaVuSans-67"/>
      <use x="281.771484" xlink:href="#DejaVuSans-71"/>
      <use x="359.261719" xlink:href="#DejaVuSans-97"/>
      <use x="420.541016" xlink:href="#DejaVuSans-108"/>
      <use x="448.324219" xlink:href="#DejaVuSans-95"/>
      <use x="498.324219" xlink:href="#DejaVuSans-48"/>
      <use x="561.947266" xlink:href="#DejaVuSans-48"/>
      <use x="625.570312" xlink:href="#DejaVuSans-53"/>
      <use x="689.193359" xlink:href="#DejaVuSans-45"/>
      <use x="725.277344" xlink:href="#DejaVuSans-69"/>
      <use x="788.460938" xlink:href="#DejaVuSans-120"/>
      <use x="847.640625" xlink:href="#DejaVuSans-49"/>
      <use x="911.263672" xlink:href="#DejaVuSans-45"/>
      <use x="947.347656" xlink:href="#DejaVuSans-52"/>
      <use x="1010.970703" xlink:href="#DejaVuSans-65"/>
      <use x="1079.347656" xlink:href="#DejaVuSans-45"/>
      <use x="1115.431641" xlink:href="#DejaVuSans-115"/>
      <use x="1167.53125" xlink:href="#DejaVuSans-115"/>
      <use x="1219.630859" xlink:href="#DejaVuSans-108"/>
      <use x="1247.414062" xlink:href="#DejaVuSans-45"/>
      <use x="1283.498047" xlink:href="#DejaVuSans-49"/>
      <use x="1347.121094" xlink:href="#DejaVuSans-45"/>
      <use x="1383.205078" xlink:href="#DejaVuSans-49"/>
      <use x="1446.828125" xlink:href="#DejaVuSans-46"/>
      <use x="1478.615234" xlink:href="#DejaVuSans-99"/>
      <use x="1533.595703" xlink:href="#DejaVuSans-108"/>
      <use x="1561.378906" xlink:href="#DejaVuSans-109"/>
      <use x="1658.791016" xlink:href="#DejaVuSans-112"/>
      <use x="1722.267578" xlink:href="#DejaVuSans-46"/>
      <use x="1754.054688" xlink:href="#DejaVuSans-102"/>
      <use x="1789.259766" xlink:href="#DejaVuSans-112"/>
      <use x="1852.736328" xlink:href="#DejaVuSans-50"/>
      <use x="1916.359375" xlink:href="#DejaVuSans-95"/>
      <use x="1966.359375" xlink:href="#DejaVuSans-114"/>
      <use x="2007.441406" xlink:href="#DejaVuSans-101"/>
      <use x="2068.964844" xlink:href="#DejaVuSans-112"/>
      <use x="2132.441406" xlink:href="#DejaVuSans-114"/>
      <use x="2173.414062" xlink:href="#DejaVuSans-46"/>
      <use x="2205.201172" xlink:href="#DejaVuSans-82"/>
      <use x="2274.683594" xlink:href="#DejaVuSans-49"/>
     </g>
    </g>
    <g id="line2d_17">
     <path d="M 288.128125 315.455394 
L 304.128125 315.455394 
" style="fill:none;stroke:#f0ad4e;stroke-linecap:square;"/>
    </g>
    <g id="line2d_18"/>
    <g id="text_20">
     <!-- Psq-CGal_005-Ex1-4A-ssl-1-1.clmp.fp2_repr.R2 -->
     <g transform="translate(310.528125 318.255394)scale(0.08 -0.08)">
      <use xlink:href="#DejaVuSans-80"/>
      <use x="60.287109" xlink:href="#DejaVuSans-115"/>
      <use x="112.386719" xlink:href="#DejaVuSans-113"/>
      <use x="175.863281" xlink:href="#DejaVuSans-45"/>
      <use x="211.947266" xlink:href="#DejaVuSans-67"/>
      <use x="281.771484" xlink:href="#DejaVuSans-71"/>
      <use x="359.261719" xlink:href="#DejaVuSans-97"/>
      <use x="420.541016" xlink:href="#DejaVuSans-108"/>
      <use x="448.324219" xlink:href="#DejaVuSans-95"/>
      <use x="498.324219" xlink:href="#DejaVuSans-48"/>
      <use x="561.947266" xlink:href="#DejaVuSans-48"/>
      <use x="625.570312" xlink:href="#DejaVuSans-53"/>
      <use x="689.193359" xlink:href="#DejaVuSans-45"/>
      <use x="725.277344" xlink:href="#DejaVuSans-69"/>
      <use x="788.460938" xlink:href="#DejaVuSans-120"/>
      <use x="847.640625" xlink:href="#DejaVuSans-49"/>
      <use x="911.263672" xlink:href="#DejaVuSans-45"/>
      <use x="947.347656" xlink:href="#DejaVuSans-52"/>
      <use x="1010.970703" xlink:href="#DejaVuSans-65"/>
      <use x="1079.347656" xlink:href="#DejaVuSans-45"/>
      <use x="1115.431641" xlink:href="#DejaVuSans-115"/>
      <use x="1167.53125" xlink:href="#DejaVuSans-115"/>
      <use x="1219.630859" xlink:href="#DejaVuSans-108"/>
      <use x="1247.414062" xlink:href="#DejaVuSans-45"/>
      <use x="1283.498047" xlink:href="#DejaVuSans-49"/>
      <use x="1347.121094" xlink:href="#DejaVuSans-45"/>
      <use x="1383.205078" xlink:href="#DejaVuSans-49"/>
      <use x="1446.828125" xlink:href="#DejaVuSans-46"/>
      <use x="1478.615234" xlink:href="#DejaVuSans-99"/>
      <use x="1533.595703" xlink:href="#DejaVuSans-108"/>
      <use x="1561.378906" xlink:href="#DejaVuSans-109"/>
      <use x="1658.791016" xlink:href="#DejaVuSans-112"/>
      <use x="1722.267578" xlink:href="#DejaVuSans-46"/>
      <use x="1754.054688" xlink:href="#DejaVuSans-102"/>
      <use x="1789.259766" xlink:href="#DejaVuSans-112"/>
      <use x="1852.736328" xlink:href="#DejaVuSans-50"/>
      <use x="1916.359375" xlink:href="#DejaVuSans-95"/>
      <use x="1966.359375" xlink:href="#DejaVuSans-114"/>
      <use x="2007.441406" xlink:href="#DejaVuSans-101"/>
      <use x="2068.964844" xlink:href="#DejaVuSans-112"/>
      <use x="2132.441406" xlink:href="#DejaVuSans-114"/>
      <use x="2173.414062" xlink:href="#DejaVuSans-46"/>
      <use x="2205.201172" xlink:href="#DejaVuSans-82"/>
      <use x="2274.683594" xlink:href="#DejaVuSans-50"/>
     </g>
    </g>
    <g id="line2d_19">
     <path d="M 528.455625 315.455394 
L 544.455625 315.455394 
" style="fill:none;stroke:#f0ad4e;stroke-linecap:square;"/>
    </g>
    <g id="line2d_20"/>
    <g id="text_21">
     <!-- Psq-CGal_005-Ex1-5A-ssl-1-1.clmp.fp2_repr.R1 -->
     <g transform="translate(550.855625 318.255394)scale(0.08 -0.08)">
      <use xlink:href="#DejaVuSans-80"/>
      <use x="60.287109" xlink:href="#DejaVuSans-115"/>
      <use x="112.386719" xlink:href="#DejaVuSans-113"/>
      <use x="175.863281" xlink:href="#DejaVuSans-45"/>
      <use x="211.947266" xlink:href="#DejaVuSans-67"/>
      <use x="281.771484" xlink:href="#DejaVuSans-71"/>
      <use x="359.261719" xlink:href="#DejaVuSans-97"/>
      <use x="420.541016" xlink:href="#DejaVuSans-108"/>
      <use x="448.324219" xlink:href="#DejaVuSans-95"/>
      <use x="498.324219" xlink:href="#DejaVuSans-48"/>
      <use x="561.947266" xlink:href="#DejaVuSans-48"/>
      <use x="625.570312" xlink:href="#DejaVuSans-53"/>
      <use x="689.193359" xlink:href="#DejaVuSans-45"/>
      <use x="725.277344" xlink:href="#DejaVuSans-69"/>
      <use x="788.460938" xlink:href="#DejaVuSans-120"/>
      <use x="847.640625" xlink:href="#DejaVuSans-49"/>
      <use x="911.263672" xlink:href="#DejaVuSans-45"/>
      <use x="947.347656" xlink:href="#DejaVuSans-53"/>
      <use x="1010.970703" xlink:href="#DejaVuSans-65"/>
      <use x="1079.347656" xlink:href="#DejaVuSans-45"/>
      <use x="1115.431641" xlink:href="#DejaVuSans-115"/>
      <use x="1167.53125" xlink:href="#DejaVuSans-115"/>
      <use x="1219.630859" xlink:href="#DejaVuSans-108"/>
      <use x="1247.414062" xlink:href="#DejaVuSans-45"/>
      <use x="1283.498047" xlink:href="#DejaVuSans-49"/>
      <use x="1347.121094" xlink:href="#DejaVuSans-45"/>
      <use x="1383.205078" xlink:href="#DejaVuSans-49"/>
      <use x="1446.828125" xlink:href="#DejaVuSans-46"/>
      <use x="1478.615234" xlink:href="#DejaVuSans-99"/>
      <use x="1533.595703" xlink:href="#DejaVuSans-108"/>
      <use x="1561.378906" xlink:href="#DejaVuSans-109"/>
      <use x="1658.791016" xlink:href="#DejaVuSans-112"/>
      <use x="1722.267578" xlink:href="#DejaVuSans-46"/>
      <use x="1754.054688" xlink:href="#DejaVuSans-102"/>
      <use x="1789.259766" xlink:href="#DejaVuSans-112"/>
      <use x="1852.736328" xlink:href="#DejaVuSans-50"/>
      <use x="1916.359375" xlink:href="#DejaVuSans-95"/>
      <use x="1966.359375" xlink:href="#DejaVuSans-114"/>
      <use x="2007.441406" xlink:href="#DejaVuSans-101"/>
      <use x="2068.964844" xlink:href="#DejaVuSans-112"/>
      <use x="2132.441406" xlink:href="#DejaVuSans-114"/>
      <use x="2173.414062" xlink:href="#DejaVuSans-46"/>
      <use x="2205.201172" xlink:href="#DejaVuSans-82"/>
      <use x="2274.683594" xlink:href="#DejaVuSans-49"/>
     </g>
    </g>
    <g id="line2d_21">
     <path d="M 768.783125 315.455394 
L 784.783125 315.455394 
" style="fill:none;stroke:#f0ad4e;stroke-linecap:square;"/>
    </g>
    <g id="line2d_22"/>
    <g id="text_22">
     <!-- Psq-CGal_005-Ex1-5A-ssl-1-1.clmp.fp2_repr.R2 -->
     <g transform="translate(791.183125 318.255394)scale(0.08 -0.08)">
      <use xlink:href="#DejaVuSans-80"/>
      <use x="60.287109" xlink:href="#DejaVuSans-115"/>
      <use x="112.386719" xlink:href="#DejaVuSans-113"/>
      <use x="175.863281" xlink:href="#DejaVuSans-45"/>
      <use x="211.947266" xlink:href="#DejaVuSans-67"/>
      <use x="281.771484" xlink:href="#DejaVuSans-71"/>
      <use x="359.261719" xlink:href="#DejaVuSans-97"/>
      <use x="420.541016" xlink:href="#DejaVuSans-108"/>
      <use x="448.324219" xlink:href="#DejaVuSans-95"/>
      <use x="498.324219" xlink:href="#DejaVuSans-48"/>
      <use x="561.947266" xlink:href="#DejaVuSans-48"/>
      <use x="625.570312" xlink:href="#DejaVuSans-53"/>
      <use x="689.193359" xlink:href="#DejaVuSans-45"/>
      <use x="725.277344" xlink:href="#DejaVuSans-69"/>
      <use x="788.460938" xlink:href="#DejaVuSans-120"/>
      <use x="847.640625" xlink:href="#DejaVuSans-49"/>
      <use x="911.263672" xlink:href="#DejaVuSans-45"/>
      <use x="947.347656" xlink:href="#DejaVuSans-53"/>
      <use x="1010.970703" xlink:href="#DejaVuSans-65"/>
      <use x="1079.347656" xlink:href="#DejaVuSans-45"/>
      <use x="1115.431641" xlink:href="#DejaVuSans-115"/>
      <use x="1167.53125" xlink:href="#DejaVuSans-115"/>
      <use x="1219.630859" xlink:href="#DejaVuSans-108"/>
      <use x="1247.414062" xlink:href="#DejaVuSans-45"/>
      <use x="1283.498047" xlink:href="#DejaVuSans-49"/>
      <use x="1347.121094" xlink:href="#DejaVuSans-45"/>
      <use x="1383.205078" xlink:href="#DejaVuSans-49"/>
      <use x="1446.828125" xlink:href="#DejaVuSans-46"/>
      <use x="1478.615234" xlink:href="#DejaVuSans-99"/>
      <use x="1533.595703" xlink:href="#DejaVuSans-108"/>
      <use x="1561.378906" xlink:href="#DejaVuSans-109"/>
      <use x="1658.791016" xlink:href="#DejaVuSans-112"/>
      <use x="1722.267578" xlink:href="#DejaVuSans-46"/>
      <use x="1754.054688" xlink:href="#DejaVuSans-102"/>
      <use x="1789.259766" xlink:href="#DejaVuSans-112"/>
      <use x="1852.736328" xlink:href="#DejaVuSans-50"/>
      <use x="1916.359375" xlink:href="#DejaVuSans-95"/>
      <use x="1966.359375" xlink:href="#DejaVuSans-114"/>
      <use x="2007.441406" xlink:href="#DejaVuSans-101"/>
      <use x="2068.964844" xlink:href="#DejaVuSans-112"/>
      <use x="2132.441406" xlink:href="#DejaVuSans-114"/>
      <use x="2173.414062" xlink:href="#DejaVuSans-46"/>
      <use x="2205.201172" xlink:href="#DejaVuSans-82"/>
      <use x="2274.683594" xlink:href="#DejaVuSans-50"/>
     </g>
    </g>
   </g>
  </g>
 </g>
 <defs>
  <clipPath id="pfe8ff677c3">
   <rect height="242.5072" width="944.845" x="40.600625" y="31.48286"/>
  </clipPath>
 </defs>
</svg>
