<?xml version="1.0" encoding="utf-8" standalone="no"?>
<!DOCTYPE svg PUBLIC "-//W3C//DTD SVG 1.1//EN"
  "http://www.w3.org/Graphics/SVG/1.1/DTD/svg11.dtd">
<!-- Created with matplotlib (https://matplotlib.org/) -->
<svg height="330.541644pt" version="1.1" viewBox="0 0 1000.340625 330.541644" width="1000.340625pt" xmlns="http://www.w3.org/2000/svg" xmlns:xlink="http://www.w3.org/1999/xlink">
 <defs>
  <style type="text/css">
*{stroke-linecap:butt;stroke-linejoin:round;}
  </style>
 </defs>
 <g id="figure_1">
  <g id="axes_1">
   <g id="patch_1">
    <path d="M 40.600625 273.99006 
L 993.140625 273.99006 
L 993.140625 31.48286 
L 40.600625 31.48286 
z
" style="fill:#ffffff;"/>
   </g>
   <g id="matplotlib.axis_1">
    <g id="xtick_1">
     <g id="text_1">
      <!-- 0 -->
      <defs>
       <path d="M 31.78125 66.40625 
Q 24.171875 66.40625 20.328125 58.90625 
Q 16.5 51.421875 16.5 36.375 
Q 16.5 21.390625 20.328125 13.890625 
Q 24.171875 6.390625 31.78125 6.390625 
Q 39.453125 6.390625 43.28125 13.890625 
Q 47.125 21.390625 47.125 36.375 
Q 47.125 51.421875 43.28125 58.90625 
Q 39.453125 66.40625 31.78125 66.40625 
z
M 31.78125 74.21875 
Q 44.046875 74.21875 50.515625 64.515625 
Q 56.984375 54.828125 56.984375 36.375 
Q 56.984375 17.96875 50.515625 8.265625 
Q 44.046875 -1.421875 31.78125 -1.421875 
Q 19.53125 -1.421875 13.0625 8.265625 
Q 6.59375 17.96875 6.59375 36.375 
Q 6.59375 54.828125 13.0625 64.515625 
Q 19.53125 74.21875 31.78125 74.21875 
z
" id="DejaVuSans-48"/>
      </defs>
      <g transform="translate(78.13377 287.06881)scale(0.08 -0.08)">
       <use xlink:href="#DejaVuSans-48"/>
      </g>
     </g>
    </g>
    <g id="xtick_2">
     <g id="text_2">
      <!-- 50 -->
      <defs>
       <path d="M 10.796875 72.90625 
L 49.515625 72.90625 
L 49.515625 64.59375 
L 19.828125 64.59375 
L 19.828125 46.734375 
Q 21.96875 47.46875 24.109375 47.828125 
Q 26.265625 48.1875 28.421875 48.1875 
Q 40.625 48.1875 47.75 41.5 
Q 54.890625 34.8125 54.890625 23.390625 
Q 54.890625 11.625 47.5625 5.09375 
Q 40.234375 -1.421875 26.90625 -1.421875 
Q 22.3125 -1.421875 17.546875 -0.640625 
Q 12.796875 0.140625 7.71875 1.703125 
L 7.71875 11.625 
Q 12.109375 9.234375 16.796875 8.0625 
Q 21.484375 6.890625 26.703125 6.890625 
Q 35.15625 6.890625 40.078125 11.328125 
Q 45.015625 15.765625 45.015625 23.390625 
Q 45.015625 31 40.078125 35.4375 
Q 35.15625 39.890625 26.703125 39.890625 
Q 22.75 39.890625 18.8125 39.015625 
Q 14.890625 38.140625 10.796875 36.28125 
z
" id="DejaVuSans-53"/>
      </defs>
      <g transform="translate(236.545174 287.06881)scale(0.08 -0.08)">
       <use xlink:href="#DejaVuSans-53"/>
       <use x="63.623047" xlink:href="#DejaVuSans-48"/>
      </g>
     </g>
    </g>
    <g id="xtick_3">
     <g id="text_3">
      <!-- 100 -->
      <defs>
       <path d="M 12.40625 8.296875 
L 28.515625 8.296875 
L 28.515625 63.921875 
L 10.984375 60.40625 
L 10.984375 69.390625 
L 28.421875 72.90625 
L 38.28125 72.90625 
L 38.28125 8.296875 
L 54.390625 8.296875 
L 54.390625 0 
L 12.40625 0 
z
" id="DejaVuSans-49"/>
      </defs>
      <g transform="translate(394.956578 287.06881)scale(0.08 -0.08)">
       <use xlink:href="#DejaVuSans-49"/>
       <use x="63.623047" xlink:href="#DejaVuSans-48"/>
       <use x="127.246094" xlink:href="#DejaVuSans-48"/>
      </g>
     </g>
    </g>
    <g id="xtick_4">
     <g id="text_4">
      <!-- 150 -->
      <g transform="translate(555.912982 287.06881)scale(0.08 -0.08)">
       <use xlink:href="#DejaVuSans-49"/>
       <use x="63.623047" xlink:href="#DejaVuSans-53"/>
       <use x="127.246094" xlink:href="#DejaVuSans-48"/>
      </g>
     </g>
    </g>
    <g id="xtick_5">
     <g id="text_5">
      <!-- 200 -->
      <defs>
       <path d="M 19.1875 8.296875 
L 53.609375 8.296875 
L 53.609375 0 
L 7.328125 0 
L 7.328125 8.296875 
Q 12.9375 14.109375 22.625 23.890625 
Q 32.328125 33.6875 34.8125 36.53125 
Q 39.546875 41.84375 41.421875 45.53125 
Q 43.3125 49.21875 43.3125 52.78125 
Q 43.3125 58.59375 39.234375 62.25 
Q 35.15625 65.921875 28.609375 65.921875 
Q 23.96875 65.921875 18.8125 64.3125 
Q 13.671875 62.703125 7.8125 59.421875 
L 7.8125 69.390625 
Q 13.765625 71.78125 18.9375 73 
Q 24.125 74.21875 28.421875 74.21875 
Q 39.75 74.21875 46.484375 68.546875 
Q 53.21875 62.890625 53.21875 53.421875 
Q 53.21875 48.921875 51.53125 44.890625 
Q 49.859375 40.875 45.40625 35.40625 
Q 44.1875 33.984375 37.640625 27.21875 
Q 31.109375 20.453125 19.1875 8.296875 
z
" id="DejaVuSans-50"/>
      </defs>
      <g transform="translate(716.869386 287.06881)scale(0.08 -0.08)">
       <use xlink:href="#DejaVuSans-50"/>
       <use x="63.623047" xlink:href="#DejaVuSans-48"/>
       <use x="127.246094" xlink:href="#DejaVuSans-48"/>
      </g>
     </g>
    </g>
    <g id="xtick_6">
     <g id="text_6">
      <!-- 250 -->
      <g transform="translate(877.825791 287.06881)scale(0.08 -0.08)">
       <use xlink:href="#DejaVuSans-50"/>
       <use x="63.623047" xlink:href="#DejaVuSans-53"/>
       <use x="127.246094" xlink:href="#DejaVuSans-48"/>
      </g>
     </g>
    </g>
    <g id="text_7">
     <!-- Insert size -->
     <defs>
      <path d="M 9.8125 72.90625 
L 19.671875 72.90625 
L 19.671875 0 
L 9.8125 0 
z
" id="DejaVuSans-73"/>
      <path d="M 54.890625 33.015625 
L 54.890625 0 
L 45.90625 0 
L 45.90625 32.71875 
Q 45.90625 40.484375 42.875 44.328125 
Q 39.84375 48.1875 33.796875 48.1875 
Q 26.515625 48.1875 22.3125 43.546875 
Q 18.109375 38.921875 18.109375 30.90625 
L 18.109375 0 
L 9.078125 0 
L 9.078125 54.6875 
L 18.109375 54.6875 
L 18.109375 46.1875 
Q 21.34375 51.125 25.703125 53.5625 
Q 30.078125 56 35.796875 56 
Q 45.21875 56 50.046875 50.171875 
Q 54.890625 44.34375 54.890625 33.015625 
z
" id="DejaVuSans-110"/>
      <path d="M 44.28125 53.078125 
L 44.28125 44.578125 
Q 40.484375 46.53125 36.375 47.5 
Q 32.28125 48.484375 27.875 48.484375 
Q 21.1875 48.484375 17.84375 46.4375 
Q 14.5 44.390625 14.5 40.28125 
Q 14.5 37.15625 16.890625 35.375 
Q 19.28125 33.59375 26.515625 31.984375 
L 29.59375 31.296875 
Q 39.15625 29.25 43.1875 25.515625 
Q 47.21875 21.78125 47.21875 15.09375 
Q 47.21875 7.46875 41.1875 3.015625 
Q 35.15625 -1.421875 24.609375 -1.421875 
Q 20.21875 -1.421875 15.453125 -0.5625 
Q 10.6875 0.296875 5.421875 2 
L 5.421875 11.28125 
Q 10.40625 8.6875 15.234375 7.390625 
Q 20.0625 6.109375 24.8125 6.109375 
Q 31.15625 6.109375 34.5625 8.28125 
Q 37.984375 10.453125 37.984375 14.40625 
Q 37.984375 18.0625 35.515625 20.015625 
Q 33.0625 21.96875 24.703125 23.78125 
L 21.578125 24.515625 
Q 13.234375 26.265625 9.515625 29.90625 
Q 5.8125 33.546875 5.8125 39.890625 
Q 5.8125 47.609375 11.28125 51.796875 
Q 16.75 56 26.8125 56 
Q 31.78125 56 36.171875 55.265625 
Q 40.578125 54.546875 44.28125 53.078125 
z
" id="DejaVuSans-115"/>
      <path d="M 56.203125 29.59375 
L 56.203125 25.203125 
L 14.890625 25.203125 
Q 15.484375 15.921875 20.484375 11.0625 
Q 25.484375 6.203125 34.421875 6.203125 
Q 39.59375 6.203125 44.453125 7.46875 
Q 49.3125 8.734375 54.109375 11.28125 
L 54.109375 2.78125 
Q 49.265625 0.734375 44.1875 -0.34375 
Q 39.109375 -1.421875 33.890625 -1.421875 
Q 20.796875 -1.421875 13.15625 6.1875 
Q 5.515625 13.8125 5.515625 26.8125 
Q 5.515625 40.234375 12.765625 48.109375 
Q 20.015625 56 32.328125 56 
Q 43.359375 56 49.78125 48.890625 
Q 56.203125 41.796875 56.203125 29.59375 
z
M 47.21875 32.234375 
Q 47.125 39.59375 43.09375 43.984375 
Q 39.0625 48.390625 32.421875 48.390625 
Q 24.90625 48.390625 20.390625 44.140625 
Q 15.875 39.890625 15.1875 32.171875 
z
" id="DejaVuSans-101"/>
      <path d="M 41.109375 46.296875 
Q 39.59375 47.171875 37.8125 47.578125 
Q 36.03125 48 33.890625 48 
Q 26.265625 48 22.1875 43.046875 
Q 18.109375 38.09375 18.109375 28.8125 
L 18.109375 0 
L 9.078125 0 
L 9.078125 54.6875 
L 18.109375 54.6875 
L 18.109375 46.1875 
Q 20.953125 51.171875 25.484375 53.578125 
Q 30.03125 56 36.53125 56 
Q 37.453125 56 38.578125 55.875 
Q 39.703125 55.765625 41.0625 55.515625 
z
" id="DejaVuSans-114"/>
      <path d="M 18.3125 70.21875 
L 18.3125 54.6875 
L 36.8125 54.6875 
L 36.8125 47.703125 
L 18.3125 47.703125 
L 18.3125 18.015625 
Q 18.3125 11.328125 20.140625 9.421875 
Q 21.96875 7.515625 27.59375 7.515625 
L 36.8125 7.515625 
L 36.8125 0 
L 27.59375 0 
Q 17.1875 0 13.234375 3.875 
Q 9.28125 7.765625 9.28125 18.015625 
L 9.28125 47.703125 
L 2.6875 47.703125 
L 2.6875 54.6875 
L 9.28125 54.6875 
L 9.28125 70.21875 
z
" id="DejaVuSans-116"/>
      <path id="DejaVuSans-32"/>
      <path d="M 9.421875 54.6875 
L 18.40625 54.6875 
L 18.40625 0 
L 9.421875 0 
z
M 9.421875 75.984375 
L 18.40625 75.984375 
L 18.40625 64.59375 
L 9.421875 64.59375 
z
" id="DejaVuSans-105"/>
      <path d="M 5.515625 54.6875 
L 48.1875 54.6875 
L 48.1875 46.484375 
L 14.40625 7.171875 
L 48.1875 7.171875 
L 48.1875 0 
L 4.296875 0 
L 4.296875 8.203125 
L 38.09375 47.515625 
L 5.515625 47.515625 
z
" id="DejaVuSans-122"/>
     </defs>
     <g transform="translate(491.246406 300.330997)scale(0.1 -0.1)">
      <use xlink:href="#DejaVuSans-73"/>
      <use x="29.492188" xlink:href="#DejaVuSans-110"/>
      <use x="92.871094" xlink:href="#DejaVuSans-115"/>
      <use x="144.970703" xlink:href="#DejaVuSans-101"/>
      <use x="206.494141" xlink:href="#DejaVuSans-114"/>
      <use x="247.607422" xlink:href="#DejaVuSans-116"/>
      <use x="286.816406" xlink:href="#DejaVuSans-32"/>
      <use x="318.603516" xlink:href="#DejaVuSans-115"/>
      <use x="370.703125" xlink:href="#DejaVuSans-105"/>
      <use x="398.486328" xlink:href="#DejaVuSans-122"/>
      <use x="450.976562" xlink:href="#DejaVuSans-101"/>
     </g>
    </g>
   </g>
   <g id="matplotlib.axis_2">
    <g id="ytick_1">
     <g id="line2d_1">
      <path clip-path="url(#p50eb2cc4ab)" d="M 40.600625 273.99006 
L 993.140625 273.99006 
" style="fill:none;stroke:#dedede;stroke-linecap:square;"/>
     </g>
     <g id="text_8">
      <!-- 0.0 -->
      <defs>
       <path d="M 10.6875 12.40625 
L 21 12.40625 
L 21 0 
L 10.6875 0 
z
" id="DejaVuSans-46"/>
      </defs>
      <g transform="translate(20.878125 277.029435)scale(0.08 -0.08)">
       <use xlink:href="#DejaVuSans-48"/>
       <use x="63.623047" xlink:href="#DejaVuSans-46"/>
       <use x="95.410156" xlink:href="#DejaVuSans-48"/>
      </g>
     </g>
    </g>
    <g id="ytick_2">
     <g id="line2d_2">
      <path clip-path="url(#p50eb2cc4ab)" d="M 40.600625 222.527773 
L 993.140625 222.527773 
" style="fill:none;stroke:#dedede;stroke-linecap:square;"/>
     </g>
     <g id="text_9">
      <!-- 0.2 -->
      <g transform="translate(20.878125 225.567148)scale(0.08 -0.08)">
       <use xlink:href="#DejaVuSans-48"/>
       <use x="63.623047" xlink:href="#DejaVuSans-46"/>
       <use x="95.410156" xlink:href="#DejaVuSans-50"/>
      </g>
     </g>
    </g>
    <g id="ytick_3">
     <g id="line2d_3">
      <path clip-path="url(#p50eb2cc4ab)" d="M 40.600625 171.065486 
L 993.140625 171.065486 
" style="fill:none;stroke:#dedede;stroke-linecap:square;"/>
     </g>
     <g id="text_10">
      <!-- 0.4 -->
      <defs>
       <path d="M 37.796875 64.3125 
L 12.890625 25.390625 
L 37.796875 25.390625 
z
M 35.203125 72.90625 
L 47.609375 72.90625 
L 47.609375 25.390625 
L 58.015625 25.390625 
L 58.015625 17.1875 
L 47.609375 17.1875 
L 47.609375 0 
L 37.796875 0 
L 37.796875 17.1875 
L 4.890625 17.1875 
L 4.890625 26.703125 
z
" id="DejaVuSans-52"/>
      </defs>
      <g transform="translate(20.878125 174.104861)scale(0.08 -0.08)">
       <use xlink:href="#DejaVuSans-48"/>
       <use x="63.623047" xlink:href="#DejaVuSans-46"/>
       <use x="95.410156" xlink:href="#DejaVuSans-52"/>
      </g>
     </g>
    </g>
    <g id="ytick_4">
     <g id="line2d_4">
      <path clip-path="url(#p50eb2cc4ab)" d="M 40.600625 119.6032 
L 993.140625 119.6032 
" style="fill:none;stroke:#dedede;stroke-linecap:square;"/>
     </g>
     <g id="text_11">
      <!-- 0.6 -->
      <defs>
       <path d="M 33.015625 40.375 
Q 26.375 40.375 22.484375 35.828125 
Q 18.609375 31.296875 18.609375 23.390625 
Q 18.609375 15.53125 22.484375 10.953125 
Q 26.375 6.390625 33.015625 6.390625 
Q 39.65625 6.390625 43.53125 10.953125 
Q 47.40625 15.53125 47.40625 23.390625 
Q 47.40625 31.296875 43.53125 35.828125 
Q 39.65625 40.375 33.015625 40.375 
z
M 52.59375 71.296875 
L 52.59375 62.3125 
Q 48.875 64.0625 45.09375 64.984375 
Q 41.3125 65.921875 37.59375 65.921875 
Q 27.828125 65.921875 22.671875 59.328125 
Q 17.53125 52.734375 16.796875 39.40625 
Q 19.671875 43.65625 24.015625 45.921875 
Q 28.375 48.1875 33.59375 48.1875 
Q 44.578125 48.1875 50.953125 41.515625 
Q 57.328125 34.859375 57.328125 23.390625 
Q 57.328125 12.15625 50.6875 5.359375 
Q 44.046875 -1.421875 33.015625 -1.421875 
Q 20.359375 -1.421875 13.671875 8.265625 
Q 6.984375 17.96875 6.984375 36.375 
Q 6.984375 53.65625 15.1875 63.9375 
Q 23.390625 74.21875 37.203125 74.21875 
Q 40.921875 74.21875 44.703125 73.484375 
Q 48.484375 72.75 52.59375 71.296875 
z
" id="DejaVuSans-54"/>
      </defs>
      <g transform="translate(20.878125 122.642575)scale(0.08 -0.08)">
       <use xlink:href="#DejaVuSans-48"/>
       <use x="63.623047" xlink:href="#DejaVuSans-46"/>
       <use x="95.410156" xlink:href="#DejaVuSans-54"/>
      </g>
     </g>
    </g>
    <g id="ytick_5">
     <g id="line2d_5">
      <path clip-path="url(#p50eb2cc4ab)" d="M 40.600625 68.140913 
L 993.140625 68.140913 
" style="fill:none;stroke:#dedede;stroke-linecap:square;"/>
     </g>
     <g id="text_12">
      <!-- 0.8 -->
      <defs>
       <path d="M 31.78125 34.625 
Q 24.75 34.625 20.71875 30.859375 
Q 16.703125 27.09375 16.703125 20.515625 
Q 16.703125 13.921875 20.71875 10.15625 
Q 24.75 6.390625 31.78125 6.390625 
Q 38.8125 6.390625 42.859375 10.171875 
Q 46.921875 13.96875 46.921875 20.515625 
Q 46.921875 27.09375 42.890625 30.859375 
Q 38.875 34.625 31.78125 34.625 
z
M 21.921875 38.8125 
Q 15.578125 40.375 12.03125 44.71875 
Q 8.5 49.078125 8.5 55.328125 
Q 8.5 64.0625 14.71875 69.140625 
Q 20.953125 74.21875 31.78125 74.21875 
Q 42.671875 74.21875 48.875 69.140625 
Q 55.078125 64.0625 55.078125 55.328125 
Q 55.078125 49.078125 51.53125 44.71875 
Q 48 40.375 41.703125 38.8125 
Q 48.828125 37.15625 52.796875 32.3125 
Q 56.78125 27.484375 56.78125 20.515625 
Q 56.78125 9.90625 50.3125 4.234375 
Q 43.84375 -1.421875 31.78125 -1.421875 
Q 19.734375 -1.421875 13.25 4.234375 
Q 6.78125 9.90625 6.78125 20.515625 
Q 6.78125 27.484375 10.78125 32.3125 
Q 14.796875 37.15625 21.921875 38.8125 
z
M 18.3125 54.390625 
Q 18.3125 48.734375 21.84375 45.5625 
Q 25.390625 42.390625 31.78125 42.390625 
Q 38.140625 42.390625 41.71875 45.5625 
Q 45.3125 48.734375 45.3125 54.390625 
Q 45.3125 60.0625 41.71875 63.234375 
Q 38.140625 66.40625 31.78125 66.40625 
Q 25.390625 66.40625 21.84375 63.234375 
Q 18.3125 60.0625 18.3125 54.390625 
z
" id="DejaVuSans-56"/>
      </defs>
      <g transform="translate(20.878125 71.180288)scale(0.08 -0.08)">
       <use xlink:href="#DejaVuSans-48"/>
       <use x="63.623047" xlink:href="#DejaVuSans-46"/>
       <use x="95.410156" xlink:href="#DejaVuSans-56"/>
      </g>
     </g>
    </g>
    <g id="text_13">
     <!-- Read percent -->
     <defs>
      <path d="M 44.390625 34.1875 
Q 47.5625 33.109375 50.5625 29.59375 
Q 53.5625 26.078125 56.59375 19.921875 
L 66.609375 0 
L 56 0 
L 46.6875 18.703125 
Q 43.0625 26.03125 39.671875 28.421875 
Q 36.28125 30.8125 30.421875 30.8125 
L 19.671875 30.8125 
L 19.671875 0 
L 9.8125 0 
L 9.8125 72.90625 
L 32.078125 72.90625 
Q 44.578125 72.90625 50.734375 67.671875 
Q 56.890625 62.453125 56.890625 51.90625 
Q 56.890625 45.015625 53.6875 40.46875 
Q 50.484375 35.9375 44.390625 34.1875 
z
M 19.671875 64.796875 
L 19.671875 38.921875 
L 32.078125 38.921875 
Q 39.203125 38.921875 42.84375 42.21875 
Q 46.484375 45.515625 46.484375 51.90625 
Q 46.484375 58.296875 42.84375 61.546875 
Q 39.203125 64.796875 32.078125 64.796875 
z
" id="DejaVuSans-82"/>
      <path d="M 34.28125 27.484375 
Q 23.390625 27.484375 19.1875 25 
Q 14.984375 22.515625 14.984375 16.5 
Q 14.984375 11.71875 18.140625 8.90625 
Q 21.296875 6.109375 26.703125 6.109375 
Q 34.1875 6.109375 38.703125 11.40625 
Q 43.21875 16.703125 43.21875 25.484375 
L 43.21875 27.484375 
z
M 52.203125 31.203125 
L 52.203125 0 
L 43.21875 0 
L 43.21875 8.296875 
Q 40.140625 3.328125 35.546875 0.953125 
Q 30.953125 -1.421875 24.3125 -1.421875 
Q 15.921875 -1.421875 10.953125 3.296875 
Q 6 8.015625 6 15.921875 
Q 6 25.140625 12.171875 29.828125 
Q 18.359375 34.515625 30.609375 34.515625 
L 43.21875 34.515625 
L 43.21875 35.40625 
Q 43.21875 41.609375 39.140625 45 
Q 35.0625 48.390625 27.6875 48.390625 
Q 23 48.390625 18.546875 47.265625 
Q 14.109375 46.140625 10.015625 43.890625 
L 10.015625 52.203125 
Q 14.9375 54.109375 19.578125 55.046875 
Q 24.21875 56 28.609375 56 
Q 40.484375 56 46.34375 49.84375 
Q 52.203125 43.703125 52.203125 31.203125 
z
" id="DejaVuSans-97"/>
      <path d="M 45.40625 46.390625 
L 45.40625 75.984375 
L 54.390625 75.984375 
L 54.390625 0 
L 45.40625 0 
L 45.40625 8.203125 
Q 42.578125 3.328125 38.25 0.953125 
Q 33.9375 -1.421875 27.875 -1.421875 
Q 17.96875 -1.421875 11.734375 6.484375 
Q 5.515625 14.40625 5.515625 27.296875 
Q 5.515625 40.1875 11.734375 48.09375 
Q 17.96875 56 27.875 56 
Q 33.9375 56 38.25 53.625 
Q 42.578125 51.265625 45.40625 46.390625 
z
M 14.796875 27.296875 
Q 14.796875 17.390625 18.875 11.75 
Q 22.953125 6.109375 30.078125 6.109375 
Q 37.203125 6.109375 41.296875 11.75 
Q 45.40625 17.390625 45.40625 27.296875 
Q 45.40625 37.203125 41.296875 42.84375 
Q 37.203125 48.484375 30.078125 48.484375 
Q 22.953125 48.484375 18.875 42.84375 
Q 14.796875 37.203125 14.796875 27.296875 
z
" id="DejaVuSans-100"/>
      <path d="M 18.109375 8.203125 
L 18.109375 -20.796875 
L 9.078125 -20.796875 
L 9.078125 54.6875 
L 18.109375 54.6875 
L 18.109375 46.390625 
Q 20.953125 51.265625 25.265625 53.625 
Q 29.59375 56 35.59375 56 
Q 45.5625 56 51.78125 48.09375 
Q 58.015625 40.1875 58.015625 27.296875 
Q 58.015625 14.40625 51.78125 6.484375 
Q 45.5625 -1.421875 35.59375 -1.421875 
Q 29.59375 -1.421875 25.265625 0.953125 
Q 20.953125 3.328125 18.109375 8.203125 
z
M 48.6875 27.296875 
Q 48.6875 37.203125 44.609375 42.84375 
Q 40.53125 48.484375 33.40625 48.484375 
Q 26.265625 48.484375 22.1875 42.84375 
Q 18.109375 37.203125 18.109375 27.296875 
Q 18.109375 17.390625 22.1875 11.75 
Q 26.265625 6.109375 33.40625 6.109375 
Q 40.53125 6.109375 44.609375 11.75 
Q 48.6875 17.390625 48.6875 27.296875 
z
" id="DejaVuSans-112"/>
      <path d="M 48.78125 52.59375 
L 48.78125 44.1875 
Q 44.96875 46.296875 41.140625 47.34375 
Q 37.3125 48.390625 33.40625 48.390625 
Q 24.65625 48.390625 19.8125 42.84375 
Q 14.984375 37.3125 14.984375 27.296875 
Q 14.984375 17.28125 19.8125 11.734375 
Q 24.65625 6.203125 33.40625 6.203125 
Q 37.3125 6.203125 41.140625 7.25 
Q 44.96875 8.296875 48.78125 10.40625 
L 48.78125 2.09375 
Q 45.015625 0.34375 40.984375 -0.53125 
Q 36.96875 -1.421875 32.421875 -1.421875 
Q 20.0625 -1.421875 12.78125 6.34375 
Q 5.515625 14.109375 5.515625 27.296875 
Q 5.515625 40.671875 12.859375 48.328125 
Q 20.21875 56 33.015625 56 
Q 37.15625 56 41.109375 55.140625 
Q 45.0625 54.296875 48.78125 52.59375 
z
" id="DejaVuSans-99"/>
     </defs>
     <g transform="translate(14.798438 186.370835)rotate(-90)scale(0.1 -0.1)">
      <use xlink:href="#DejaVuSans-82"/>
      <use x="69.419922" xlink:href="#DejaVuSans-101"/>
      <use x="130.943359" xlink:href="#DejaVuSans-97"/>
      <use x="192.222656" xlink:href="#DejaVuSans-100"/>
      <use x="255.699219" xlink:href="#DejaVuSans-32"/>
      <use x="287.486328" xlink:href="#DejaVuSans-112"/>
      <use x="350.962891" xlink:href="#DejaVuSans-101"/>
      <use x="412.486328" xlink:href="#DejaVuSans-114"/>
      <use x="453.568359" xlink:href="#DejaVuSans-99"/>
      <use x="508.548828" xlink:href="#DejaVuSans-101"/>
      <use x="570.072266" xlink:href="#DejaVuSans-110"/>
      <use x="633.451172" xlink:href="#DejaVuSans-116"/>
     </g>
    </g>
   </g>
   <g id="line2d_6">
    <path clip-path="url(#p50eb2cc4ab)" d="M 83.897898 240.620302 
L 87.117026 273.849987 
L 93.555282 273.99006 
L 132.184819 273.96851 
L 148.280459 273.979285 
L 170.814356 273.936186 
L 180.47174 273.936186 
L 183.690868 269.62624 
L 190.129124 269.766313 
L 196.567381 268.473329 
L 203.005637 267.244994 
L 206.224765 266.803225 
L 212.663021 265.434817 
L 215.882149 264.885299 
L 219.101277 264.217257 
L 222.320405 263.150545 
L 225.539533 263.376818 
L 228.758661 260.898599 
L 231.97779 261.534316 
L 235.196918 259.842662 
L 238.416046 259.206945 
L 241.635174 258.183333 
L 244.854302 258.743626 
L 248.07343 257.806212 
L 251.292558 256.38393 
L 254.511686 256.588653 
L 257.730814 255.98526 
L 260.949942 254.746151 
L 264.16907 254.853899 
L 267.388199 252.957523 
L 270.607327 251.567565 
L 273.826455 251.287419 
L 277.045583 250.845649 
L 283.483839 249.20787 
L 286.702967 249.509566 
L 289.922095 248.776875 
L 293.141223 246.977473 
L 296.360351 247.042122 
L 299.579479 245.59829 
L 302.798607 245.835337 
L 306.017736 243.745013 
L 309.236864 243.410992 
L 312.455992 242.161108 
L 315.67512 241.622365 
L 318.894248 240.027685 
L 322.113376 239.585915 
L 325.332504 237.732638 
L 328.551632 236.159508 
L 331.77076 233.681289 
L 334.989888 232.496054 
L 338.209016 230.696651 
L 341.428144 229.866987 
L 344.647273 227.916736 
L 347.866401 228.153783 
L 351.085529 226.408255 
L 354.304657 223.445167 
L 357.523785 220.783775 
L 360.742913 218.952048 
L 363.962041 216.516928 
L 367.181169 213.252144 
L 370.400297 211.635914 
L 373.619425 206.108408 
L 376.838553 204.556828 
L 380.057681 199.934411 
L 386.495938 190.258582 
L 389.715066 189.051797 
L 396.153322 176.725351 
L 399.37245 173.22352 
L 402.591578 169.17217 
L 405.810706 163.536916 
L 409.029834 159.20542 
L 412.248962 156.737976 
L 415.46809 153.117621 
L 418.687218 147.57934 
L 421.906347 144.045184 
L 425.125475 142.493604 
L 428.344603 139.659814 
L 431.563731 137.601815 
L 434.782859 132.160508 
L 438.001987 132.817775 
L 441.221115 128.712551 
L 444.440243 127.527316 
L 447.659371 123.853087 
L 450.878499 122.269181 
L 454.097627 119.359968 
L 457.316755 120.221957 
L 460.535884 114.554378 
L 463.755012 114.457404 
L 466.97414 115.297844 
L 470.193268 112.194682 
L 473.412396 114.371205 
L 476.631524 107.626139 
L 479.850652 106.947323 
L 483.06978 104.005785 
L 486.288908 108.154108 
L 489.508036 105.115596 
L 492.727164 98.715326 
L 495.946292 102.809775 
L 499.165421 100.094509 
L 502.384549 99.340268 
L 505.603677 99.275619 
L 508.822805 96.969798 
L 512.041933 96.560353 
L 515.261061 94.728626 
L 518.480189 93.080071 
L 521.699317 93.532616 
L 524.918445 96.280206 
L 528.137573 90.343256 
L 531.356701 88.813225 
L 534.575829 92.099559 
L 537.794958 92.487454 
L 541.014086 89.804512 
L 544.233214 91.830187 
L 547.452342 89.513591 
L 550.67147 90.149308 
L 553.890598 93.812762 
L 557.109726 90.989747 
L 560.328854 90.181633 
L 563.547982 78.630977 
L 566.76711 49.215595 
L 569.986238 43.030822 
L 573.205366 75.797187 
L 576.424495 76.271281 
L 579.643623 81.831112 
L 582.862751 84.945048 
L 586.081879 82.908598 
L 589.301007 86.378105 
L 592.520135 88.813225 
L 595.739263 87.315518 
L 598.958391 88.694701 
L 602.177519 87.293969 
L 605.396647 89.729088 
L 608.615775 91.19447 
L 611.834903 94.577778 
L 615.054032 91.183695 
L 618.27316 92.724501 
L 621.492288 93.360218 
L 624.711416 94.308406 
L 627.930544 94.825599 
L 631.149672 96.204782 
L 634.3688 93.349443 
L 637.587928 97.443892 
L 640.807056 100.730226 
L 644.026184 97.476216 
L 647.245312 101.301294 
L 650.46444 103.380843 
L 653.683569 102.314131 
L 656.902697 105.783638 
L 660.121825 105.902161 
L 663.340953 107.927836 
L 666.560081 108.164883 
L 669.779209 108.832924 
L 672.998337 112.119258 
L 676.217465 112.130033 
L 679.436593 115.028472 
L 682.655721 117.463592 
L 685.874849 117.732963 
L 689.093977 115.750388 
L 692.313106 118.81045 
L 695.532234 122.193757 
L 701.97049 123.669914 
L 705.189618 123.292794 
L 708.408746 126.320531 
L 711.627874 124.844374 
L 714.847002 128.723326 
L 718.06613 130.77055 
L 721.285258 134.067659 
L 724.504386 132.860874 
L 727.723514 135.834737 
L 730.942643 136.664402 
L 734.161771 139.993835 
L 737.380899 141.416117 
L 740.600027 140.845049 
L 743.819155 142.127258 
L 747.038283 142.493604 
L 750.257411 147.191445 
L 753.476539 146.566503 
L 756.695667 147.234544 
L 759.914795 149.982135 
L 763.133923 151.145821 
L 766.353051 152.794375 
L 769.57218 154.216657 
L 772.791308 155.261819 
L 776.010436 158.494279 
L 779.229564 161.241869 
L 782.448692 164.204957 
L 785.66782 165.368643 
L 788.886948 167.006422 
L 792.106076 169.409217 
L 795.325204 169.818662 
L 798.544332 170.497479 
L 801.76346 170.745301 
L 804.982589 173.072671 
L 808.201717 173.665289 
L 811.420845 176.919298 
L 814.639973 177.048597 
L 817.859101 179.613015 
L 821.078229 179.947036 
L 824.297357 182.856249 
L 827.516485 182.058909 
L 830.735613 184.192332 
L 833.954741 182.522228 
L 837.173869 182.339056 
L 840.392997 186.282656 
L 843.612126 186.605902 
L 846.831254 187.586415 
L 850.050382 190.204707 
L 853.26951 190.38788 
L 856.488638 189.19187 
L 859.707766 189.622865 
L 862.926894 189.730613 
L 866.146022 193.566465 
L 869.36515 192.855324 
L 872.584278 193.846612 
L 875.803406 194.611627 
L 879.022534 194.320706 
L 882.241663 196.152433 
L 885.460791 195.947711 
L 891.899047 195.915386 
L 895.118175 198.048809 
L 898.337303 199.277144 
L 901.556431 199.15862 
L 904.775559 197.887186 
L 907.994687 198.630652 
L 911.213815 199.169395 
L 914.432943 200.914923 
L 917.652071 201.529091 
L 920.8712 201.442892 
L 924.090328 201.57219 
L 927.309456 203.533216 
L 930.528584 201.011897 
L 933.747712 200.624002 
L 936.96684 203.403917 
L 940.185968 204.599927 
L 943.405096 204.740001 
L 946.624224 208.554303 
L 949.843352 213.887861 
L 949.843352 213.887861 
" style="fill:none;stroke:#7cb5ec;stroke-linecap:square;"/>
   </g>
   <g id="line2d_7">
    <path clip-path="url(#p50eb2cc4ab)" d="M 83.897898 253.045007 
L 87.117026 273.86885 
L 93.555282 273.99006 
L 180.47174 273.929455 
L 183.690868 270.52346 
L 186.909996 270.426492 
L 190.129124 269.917411 
L 193.348253 269.856806 
L 196.567381 269.262878 
L 199.786509 269.238636 
L 206.224765 268.54774 
L 209.443893 268.317441 
L 212.663021 267.359884 
L 219.101277 267.093222 
L 222.320405 267.056859 
L 225.539533 266.147786 
L 228.758661 265.553858 
L 231.97779 265.45689 
L 235.196918 266.07506 
L 238.416046 265.881124 
L 241.635174 264.887204 
L 244.854302 264.123582 
L 248.07343 263.832679 
L 251.292558 262.826638 
L 254.511686 263.699348 
L 257.730814 263.699348 
L 260.949942 262.681186 
L 264.16907 262.511492 
L 267.388199 261.566056 
L 270.607327 261.905443 
L 273.826455 261.529693 
L 277.045583 260.220627 
L 280.264711 260.366079 
L 283.483839 259.372158 
L 289.922095 258.172181 
L 293.141223 256.657059 
L 296.360351 257.602495 
L 299.579479 256.111615 
L 302.798607 255.711622 
L 306.017736 254.390435 
L 309.236864 254.329831 
L 312.455992 253.69954 
L 315.67512 252.075328 
L 318.894248 251.093529 
L 322.113376 251.360191 
L 325.332504 249.49356 
L 328.551632 249.214777 
L 331.77076 246.293621 
L 334.989888 246.184532 
L 338.209016 244.233054 
L 341.428144 243.699731 
L 344.647273 241.736132 
L 347.866401 238.924065 
L 351.085529 238.524073 
L 354.304657 235.736247 
L 357.523785 233.215084 
L 360.742913 230.851493 
L 363.962041 226.997021 
L 367.181169 224.51222 
L 370.400297 222.742557 
L 373.619425 218.924448 
L 376.838553 214.657863 
L 380.057681 209.215543 
L 383.27681 206.973162 
L 386.495938 201.833867 
L 389.715066 197.676371 
L 392.934194 192.331018 
L 396.153322 187.943224 
L 399.37245 180.634273 
L 402.591578 180.10095 
L 405.810706 171.337481 
L 409.029834 168.961769 
L 412.248962 163.495207 
L 415.46809 160.998285 
L 418.687218 159.895276 
L 421.906347 155.774143 
L 425.125475 149.18033 
L 431.563731 143.24105 
L 434.782859 140.925943 
L 438.001987 140.986548 
L 441.221115 138.138117 
L 444.440243 130.841287 
L 447.659371 133.09579 
L 450.878499 126.441372 
L 454.097627 125.447451 
L 457.316755 125.132306 
L 460.535884 121.22935 
L 463.755012 121.326318 
L 466.97414 117.859718 
L 470.193268 117.02337 
L 473.412396 114.720384 
L 476.631524 112.053769 
L 479.850652 114.490085 
L 483.06978 110.114412 
L 486.288908 108.041724 
L 489.508036 109.253822 
L 492.727164 107.059925 
L 495.946292 104.259978 
L 499.165421 100.538838 
L 502.384549 101.084282 
L 505.603677 97.775254 
L 508.822805 97.787375 
L 512.041933 99.072199 
L 515.261061 99.714611 
L 518.480189 95.860139 
L 521.699317 94.963187 
L 524.918445 93.738968 
L 528.137573 96.11468 
L 531.356701 96.866181 
L 534.575829 93.435943 
L 537.794958 91.835974 
L 541.014086 91.435982 
L 544.233214 92.551112 
L 547.452342 91.569312 
L 550.67147 89.545109 
L 553.890598 94.648041 
L 557.109726 89.520867 
L 560.328854 87.969381 
L 563.547982 82.563424 
L 566.76711 60.478999 
L 569.986238 60.903233 
L 573.205366 80.114986 
L 576.424495 79.933172 
L 579.643623 81.011939 
L 582.862751 80.708914 
L 586.081879 81.727077 
L 589.301007 84.272483 
L 592.520135 83.775522 
L 595.739263 82.684634 
L 598.958391 85.363371 
L 602.177519 83.339167 
L 605.396647 81.957375 
L 608.615775 84.320966 
L 611.834903 85.508823 
L 615.054032 88.526947 
L 618.27316 84.696717 
L 621.492288 87.896656 
L 624.711416 84.163394 
L 627.930544 90.260247 
L 631.149672 88.005744 
L 634.3688 86.696679 
L 637.587928 89.496625 
L 640.807056 93.254129 
L 644.026184 94.405622 
L 647.245312 91.04811 
L 650.46444 93.072314 
L 653.683569 93.411701 
L 656.902697 95.448026 
L 660.121825 97.944948 
L 663.340953 100.950951 
L 666.560081 98.999473 
L 669.779209 104.76906 
L 672.998337 103.2903 
L 676.217465 100.429749 
L 679.436593 104.017559 
L 682.655721 104.502398 
L 685.874849 107.302344 
L 689.093977 107.775063 
L 692.313106 112.732543 
L 695.532234 113.629496 
L 698.751362 109.981081 
L 701.97049 113.120415 
L 705.189618 115.217344 
L 708.408746 116.853677 
L 711.627874 120.23543 
L 714.847002 118.065775 
L 718.06613 121.217229 
L 721.285258 122.877804 
L 724.504386 123.932329 
L 727.723514 125.459572 
L 730.942643 126.598944 
L 734.161771 130.75644 
L 737.380899 130.307964 
L 740.600027 134.659396 
L 743.819155 136.041188 
L 747.038283 132.926096 
L 750.257411 137.774488 
L 753.476539 139.713845 
L 756.695667 141.192604 
L 759.914795 142.210767 
L 763.133923 144.489511 
L 766.353051 146.610682 
L 769.57218 149.91971 
L 772.791308 150.089403 
L 776.010436 151.131808 
L 779.229564 152.331785 
L 782.448692 154.525682 
L 785.66782 155.131731 
L 788.886948 157.192298 
L 792.106076 156.610491 
L 795.325204 164.246708 
L 798.544332 160.222543 
L 801.76346 163.27703 
L 804.982589 166.852719 
L 808.201717 164.901241 
L 811.420845 165.858798 
L 814.639973 169.058737 
L 817.859101 170.816279 
L 821.078229 170.755674 
L 824.297357 171.107183 
L 827.516485 174.088944 
L 830.735613 177.50706 
L 833.954741 174.052581 
L 837.173869 176.537382 
L 840.392997 177.13131 
L 843.612126 178.00402 
L 846.831254 179.652473 
L 850.050382 180.500942 
L 853.26951 181.785766 
L 856.488638 185.203882 
L 859.707766 186.04023 
L 862.926894 184.137236 
L 866.146022 185.349334 
L 869.36515 187.27657 
L 872.584278 186.755368 
L 875.803406 187.858377 
L 879.022534 188.222006 
L 882.241663 190.949227 
L 885.460791 189.118959 
L 888.679919 190.755291 
L 891.899047 190.428025 
L 895.118175 189.373499 
L 898.337303 190.803775 
L 901.556431 194.246133 
L 904.775559 193.858262 
L 907.994687 194.94915 
L 911.213815 192.670406 
L 914.432943 195.700651 
L 917.652071 195.470352 
L 920.8712 196.464273 
L 924.090328 197.773338 
L 927.309456 198.561202 
L 930.528584 198.91271 
L 933.747712 197.494556 
L 936.96684 201.809625 
L 943.405096 200.646011 
L 946.624224 202.549004 
L 949.843352 208.403438 
L 949.843352 208.403438 
" style="fill:none;stroke:#434348;stroke-linecap:square;"/>
   </g>
   <g id="line2d_8">
    <path clip-path="url(#p50eb2cc4ab)" d="M 40.600625 273.99006 
L 993.140625 273.99006 
" style="fill:none;stroke:#dedede;stroke-linecap:square;stroke-width:2;"/>
   </g>
   <g id="text_14">
    <!-- Fastp: Insert Size Distribution -->
    <defs>
     <path d="M 9.8125 72.90625 
L 51.703125 72.90625 
L 51.703125 64.59375 
L 19.671875 64.59375 
L 19.671875 43.109375 
L 48.578125 43.109375 
L 48.578125 34.8125 
L 19.671875 34.8125 
L 19.671875 0 
L 9.8125 0 
z
" id="DejaVuSans-70"/>
     <path d="M 11.71875 12.40625 
L 22.015625 12.40625 
L 22.015625 0 
L 11.71875 0 
z
M 11.71875 51.703125 
L 22.015625 51.703125 
L 22.015625 39.3125 
L 11.71875 39.3125 
z
" id="DejaVuSans-58"/>
     <path d="M 53.515625 70.515625 
L 53.515625 60.890625 
Q 47.90625 63.578125 42.921875 64.890625 
Q 37.9375 66.21875 33.296875 66.21875 
Q 25.25 66.21875 20.875 63.09375 
Q 16.5 59.96875 16.5 54.203125 
Q 16.5 49.359375 19.40625 46.890625 
Q 22.3125 44.4375 30.421875 42.921875 
L 36.375 41.703125 
Q 47.40625 39.59375 52.65625 34.296875 
Q 57.90625 29 57.90625 20.125 
Q 57.90625 9.515625 50.796875 4.046875 
Q 43.703125 -1.421875 29.984375 -1.421875 
Q 24.8125 -1.421875 18.96875 -0.25 
Q 13.140625 0.921875 6.890625 3.21875 
L 6.890625 13.375 
Q 12.890625 10.015625 18.65625 8.296875 
Q 24.421875 6.59375 29.984375 6.59375 
Q 38.421875 6.59375 43.015625 9.90625 
Q 47.609375 13.234375 47.609375 19.390625 
Q 47.609375 24.75 44.3125 27.78125 
Q 41.015625 30.8125 33.5 32.328125 
L 27.484375 33.5 
Q 16.453125 35.6875 11.515625 40.375 
Q 6.59375 45.0625 6.59375 53.421875 
Q 6.59375 63.09375 13.40625 68.65625 
Q 20.21875 74.21875 32.171875 74.21875 
Q 37.3125 74.21875 42.625 73.28125 
Q 47.953125 72.359375 53.515625 70.515625 
z
" id="DejaVuSans-83"/>
     <path d="M 19.671875 64.796875 
L 19.671875 8.109375 
L 31.59375 8.109375 
Q 46.6875 8.109375 53.6875 14.9375 
Q 60.6875 21.78125 60.6875 36.53125 
Q 60.6875 51.171875 53.6875 57.984375 
Q 46.6875 64.796875 31.59375 64.796875 
z
M 9.8125 72.90625 
L 30.078125 72.90625 
Q 51.265625 72.90625 61.171875 64.09375 
Q 71.09375 55.28125 71.09375 36.53125 
Q 71.09375 17.671875 61.125 8.828125 
Q 51.171875 0 30.078125 0 
L 9.8125 0 
z
" id="DejaVuSans-68"/>
     <path d="M 48.6875 27.296875 
Q 48.6875 37.203125 44.609375 42.84375 
Q 40.53125 48.484375 33.40625 48.484375 
Q 26.265625 48.484375 22.1875 42.84375 
Q 18.109375 37.203125 18.109375 27.296875 
Q 18.109375 17.390625 22.1875 11.75 
Q 26.265625 6.109375 33.40625 6.109375 
Q 40.53125 6.109375 44.609375 11.75 
Q 48.6875 17.390625 48.6875 27.296875 
z
M 18.109375 46.390625 
Q 20.953125 51.265625 25.265625 53.625 
Q 29.59375 56 35.59375 56 
Q 45.5625 56 51.78125 48.09375 
Q 58.015625 40.1875 58.015625 27.296875 
Q 58.015625 14.40625 51.78125 6.484375 
Q 45.5625 -1.421875 35.59375 -1.421875 
Q 29.59375 -1.421875 25.265625 0.953125 
Q 20.953125 3.328125 18.109375 8.203125 
L 18.109375 0 
L 9.078125 0 
L 9.078125 75.984375 
L 18.109375 75.984375 
z
" id="DejaVuSans-98"/>
     <path d="M 8.5 21.578125 
L 8.5 54.6875 
L 17.484375 54.6875 
L 17.484375 21.921875 
Q 17.484375 14.15625 20.5 10.265625 
Q 23.53125 6.390625 29.59375 6.390625 
Q 36.859375 6.390625 41.078125 11.03125 
Q 45.3125 15.671875 45.3125 23.6875 
L 45.3125 54.6875 
L 54.296875 54.6875 
L 54.296875 0 
L 45.3125 0 
L 45.3125 8.40625 
Q 42.046875 3.421875 37.71875 1 
Q 33.40625 -1.421875 27.6875 -1.421875 
Q 18.265625 -1.421875 13.375 4.4375 
Q 8.5 10.296875 8.5 21.578125 
z
M 31.109375 56 
z
" id="DejaVuSans-117"/>
     <path d="M 30.609375 48.390625 
Q 23.390625 48.390625 19.1875 42.75 
Q 14.984375 37.109375 14.984375 27.296875 
Q 14.984375 17.484375 19.15625 11.84375 
Q 23.34375 6.203125 30.609375 6.203125 
Q 37.796875 6.203125 41.984375 11.859375 
Q 46.1875 17.53125 46.1875 27.296875 
Q 46.1875 37.015625 41.984375 42.703125 
Q 37.796875 48.390625 30.609375 48.390625 
z
M 30.609375 56 
Q 42.328125 56 49.015625 48.375 
Q 55.71875 40.765625 55.71875 27.296875 
Q 55.71875 13.875 49.015625 6.21875 
Q 42.328125 -1.421875 30.609375 -1.421875 
Q 18.84375 -1.421875 12.171875 6.21875 
Q 5.515625 13.875 5.515625 27.296875 
Q 5.515625 40.765625 12.171875 48.375 
Q 18.84375 56 30.609375 56 
z
" id="DejaVuSans-111"/>
    </defs>
    <g transform="translate(398.635625 19.3575)scale(0.16 -0.16)">
     <use xlink:href="#DejaVuSans-70"/>
     <use x="57.378906" xlink:href="#DejaVuSans-97"/>
     <use x="118.658203" xlink:href="#DejaVuSans-115"/>
     <use x="170.757812" xlink:href="#DejaVuSans-116"/>
     <use x="209.966797" xlink:href="#DejaVuSans-112"/>
     <use x="273.443359" xlink:href="#DejaVuSans-58"/>
     <use x="307.134766" xlink:href="#DejaVuSans-32"/>
     <use x="338.921875" xlink:href="#DejaVuSans-73"/>
     <use x="368.414062" xlink:href="#DejaVuSans-110"/>
     <use x="431.792969" xlink:href="#DejaVuSans-115"/>
     <use x="483.892578" xlink:href="#DejaVuSans-101"/>
     <use x="545.416016" xlink:href="#DejaVuSans-114"/>
     <use x="586.529297" xlink:href="#DejaVuSans-116"/>
     <use x="625.738281" xlink:href="#DejaVuSans-32"/>
     <use x="657.525391" xlink:href="#DejaVuSans-83"/>
     <use x="721.001953" xlink:href="#DejaVuSans-105"/>
     <use x="748.785156" xlink:href="#DejaVuSans-122"/>
     <use x="801.275391" xlink:href="#DejaVuSans-101"/>
     <use x="862.798828" xlink:href="#DejaVuSans-32"/>
     <use x="894.585938" xlink:href="#DejaVuSans-68"/>
     <use x="971.587891" xlink:href="#DejaVuSans-105"/>
     <use x="999.371094" xlink:href="#DejaVuSans-115"/>
     <use x="1051.470703" xlink:href="#DejaVuSans-116"/>
     <use x="1090.679688" xlink:href="#DejaVuSans-114"/>
     <use x="1131.792969" xlink:href="#DejaVuSans-105"/>
     <use x="1159.576172" xlink:href="#DejaVuSans-98"/>
     <use x="1223.052734" xlink:href="#DejaVuSans-117"/>
     <use x="1286.431641" xlink:href="#DejaVuSans-116"/>
     <use x="1325.640625" xlink:href="#DejaVuSans-105"/>
     <use x="1353.423828" xlink:href="#DejaVuSans-111"/>
     <use x="1414.605469" xlink:href="#DejaVuSans-110"/>
    </g>
   </g>
   <g id="legend_1">
    <g id="line2d_9">
     <path d="M 47.800625 315.455394 
L 63.800625 315.455394 
" style="fill:none;stroke:#7cb5ec;stroke-linecap:square;"/>
    </g>
    <g id="line2d_10"/>
    <g id="text_15">
     <!-- Tcr-CJol_006-Ex1-2B-ssl-1-1 -->
     <defs>
      <path d="M -0.296875 72.90625 
L 61.375 72.90625 
L 61.375 64.59375 
L 35.5 64.59375 
L 35.5 0 
L 25.59375 0 
L 25.59375 64.59375 
L -0.296875 64.59375 
z
" id="DejaVuSans-84"/>
      <path d="M 4.890625 31.390625 
L 31.203125 31.390625 
L 31.203125 23.390625 
L 4.890625 23.390625 
z
" id="DejaVuSans-45"/>
      <path d="M 64.40625 67.28125 
L 64.40625 56.890625 
Q 59.421875 61.53125 53.78125 63.8125 
Q 48.140625 66.109375 41.796875 66.109375 
Q 29.296875 66.109375 22.65625 58.46875 
Q 16.015625 50.828125 16.015625 36.375 
Q 16.015625 21.96875 22.65625 14.328125 
Q 29.296875 6.6875 41.796875 6.6875 
Q 48.140625 6.6875 53.78125 8.984375 
Q 59.421875 11.28125 64.40625 15.921875 
L 64.40625 5.609375 
Q 59.234375 2.09375 53.4375 0.328125 
Q 47.65625 -1.421875 41.21875 -1.421875 
Q 24.65625 -1.421875 15.125 8.703125 
Q 5.609375 18.84375 5.609375 36.375 
Q 5.609375 53.953125 15.125 64.078125 
Q 24.65625 74.21875 41.21875 74.21875 
Q 47.75 74.21875 53.53125 72.484375 
Q 59.328125 70.75 64.40625 67.28125 
z
" id="DejaVuSans-67"/>
      <path d="M 9.8125 72.90625 
L 19.671875 72.90625 
L 19.671875 5.078125 
Q 19.671875 -8.109375 14.671875 -14.0625 
Q 9.671875 -20.015625 -1.421875 -20.015625 
L -5.171875 -20.015625 
L -5.171875 -11.71875 
L -2.09375 -11.71875 
Q 4.4375 -11.71875 7.125 -8.046875 
Q 9.8125 -4.390625 9.8125 5.078125 
z
" id="DejaVuSans-74"/>
      <path d="M 9.421875 75.984375 
L 18.40625 75.984375 
L 18.40625 0 
L 9.421875 0 
z
" id="DejaVuSans-108"/>
      <path d="M 50.984375 -16.609375 
L 50.984375 -23.578125 
L -0.984375 -23.578125 
L -0.984375 -16.609375 
z
" id="DejaVuSans-95"/>
      <path d="M 9.8125 72.90625 
L 55.90625 72.90625 
L 55.90625 64.59375 
L 19.671875 64.59375 
L 19.671875 43.015625 
L 54.390625 43.015625 
L 54.390625 34.71875 
L 19.671875 34.71875 
L 19.671875 8.296875 
L 56.78125 8.296875 
L 56.78125 0 
L 9.8125 0 
z
" id="DejaVuSans-69"/>
      <path d="M 54.890625 54.6875 
L 35.109375 28.078125 
L 55.90625 0 
L 45.3125 0 
L 29.390625 21.484375 
L 13.484375 0 
L 2.875 0 
L 24.125 28.609375 
L 4.6875 54.6875 
L 15.28125 54.6875 
L 29.78125 35.203125 
L 44.28125 54.6875 
z
" id="DejaVuSans-120"/>
      <path d="M 19.671875 34.8125 
L 19.671875 8.109375 
L 35.5 8.109375 
Q 43.453125 8.109375 47.28125 11.40625 
Q 51.125 14.703125 51.125 21.484375 
Q 51.125 28.328125 47.28125 31.5625 
Q 43.453125 34.8125 35.5 34.8125 
z
M 19.671875 64.796875 
L 19.671875 42.828125 
L 34.28125 42.828125 
Q 41.5 42.828125 45.03125 45.53125 
Q 48.578125 48.25 48.578125 53.8125 
Q 48.578125 59.328125 45.03125 62.0625 
Q 41.5 64.796875 34.28125 64.796875 
z
M 9.8125 72.90625 
L 35.015625 72.90625 
Q 46.296875 72.90625 52.390625 68.21875 
Q 58.5 63.53125 58.5 54.890625 
Q 58.5 48.1875 55.375 44.234375 
Q 52.25 40.28125 46.1875 39.3125 
Q 53.46875 37.75 57.5 32.78125 
Q 61.53125 27.828125 61.53125 20.40625 
Q 61.53125 10.640625 54.890625 5.3125 
Q 48.25 0 35.984375 0 
L 9.8125 0 
z
" id="DejaVuSans-66"/>
     </defs>
     <g transform="translate(70.200625 318.255394)scale(0.08 -0.08)">
      <use xlink:href="#DejaVuSans-84"/>
      <use x="60.818359" xlink:href="#DejaVuSans-99"/>
      <use x="115.798828" xlink:href="#DejaVuSans-114"/>
      <use x="156.818359" xlink:href="#DejaVuSans-45"/>
      <use x="192.902344" xlink:href="#DejaVuSans-67"/>
      <use x="262.726562" xlink:href="#DejaVuSans-74"/>
      <use x="292.21875" xlink:href="#DejaVuSans-111"/>
      <use x="353.400391" xlink:href="#DejaVuSans-108"/>
      <use x="381.183594" xlink:href="#DejaVuSans-95"/>
      <use x="431.183594" xlink:href="#DejaVuSans-48"/>
      <use x="494.806641" xlink:href="#DejaVuSans-48"/>
      <use x="558.429688" xlink:href="#DejaVuSans-54"/>
      <use x="622.052734" xlink:href="#DejaVuSans-45"/>
      <use x="658.136719" xlink:href="#DejaVuSans-69"/>
      <use x="721.320312" xlink:href="#DejaVuSans-120"/>
      <use x="780.5" xlink:href="#DejaVuSans-49"/>
      <use x="844.123047" xlink:href="#DejaVuSans-45"/>
      <use x="880.207031" xlink:href="#DejaVuSans-50"/>
      <use x="943.830078" xlink:href="#DejaVuSans-66"/>
      <use x="1012.433594" xlink:href="#DejaVuSans-45"/>
      <use x="1048.517578" xlink:href="#DejaVuSans-115"/>
      <use x="1100.617188" xlink:href="#DejaVuSans-115"/>
      <use x="1152.716797" xlink:href="#DejaVuSans-108"/>
      <use x="1180.5" xlink:href="#DejaVuSans-45"/>
      <use x="1216.583984" xlink:href="#DejaVuSans-49"/>
      <use x="1280.207031" xlink:href="#DejaVuSans-45"/>
      <use x="1316.291016" xlink:href="#DejaVuSans-49"/>
     </g>
    </g>
    <g id="line2d_11">
     <path d="M 853.050625 315.455394 
L 869.050625 315.455394 
" style="fill:none;stroke:#434348;stroke-linecap:square;"/>
    </g>
    <g id="line2d_12"/>
    <g id="text_16">
     <!-- Tcr-CJol_006-Ex1-2C-ssl-1-1 -->
     <g transform="translate(875.450625 318.255394)scale(0.08 -0.08)">
      <use xlink:href="#DejaVuSans-84"/>
      <use x="60.818359" xlink:href="#DejaVuSans-99"/>
      <use x="115.798828" xlink:href="#DejaVuSans-114"/>
      <use x="156.818359" xlink:href="#DejaVuSans-45"/>
      <use x="192.902344" xlink:href="#DejaVuSans-67"/>
      <use x="262.726562" xlink:href="#DejaVuSans-74"/>
      <use x="292.21875" xlink:href="#DejaVuSans-111"/>
      <use x="353.400391" xlink:href="#DejaVuSans-108"/>
      <use x="381.183594" xlink:href="#DejaVuSans-95"/>
      <use x="431.183594" xlink:href="#DejaVuSans-48"/>
      <use x="494.806641" xlink:href="#DejaVuSans-48"/>
      <use x="558.429688" xlink:href="#DejaVuSans-54"/>
      <use x="622.052734" xlink:href="#DejaVuSans-45"/>
      <use x="658.136719" xlink:href="#DejaVuSans-69"/>
      <use x="721.320312" xlink:href="#DejaVuSans-120"/>
      <use x="780.5" xlink:href="#DejaVuSans-49"/>
      <use x="844.123047" xlink:href="#DejaVuSans-45"/>
      <use x="880.207031" xlink:href="#DejaVuSans-50"/>
      <use x="943.830078" xlink:href="#DejaVuSans-67"/>
      <use x="1013.654297" xlink:href="#DejaVuSans-45"/>
      <use x="1049.738281" xlink:href="#DejaVuSans-115"/>
      <use x="1101.837891" xlink:href="#DejaVuSans-115"/>
      <use x="1153.9375" xlink:href="#DejaVuSans-108"/>
      <use x="1181.720703" xlink:href="#DejaVuSans-45"/>
      <use x="1217.804688" xlink:href="#DejaVuSans-49"/>
      <use x="1281.427734" xlink:href="#DejaVuSans-45"/>
      <use x="1317.511719" xlink:href="#DejaVuSans-49"/>
     </g>
    </g>
   </g>
  </g>
 </g>
 <defs>
  <clipPath id="p50eb2cc4ab">
   <rect height="242.5072" width="952.54" x="40.600625" y="31.48286"/>
  </clipPath>
 </defs>
</svg>
