<?xml version="1.0" encoding="utf-8" standalone="no"?>
<!DOCTYPE svg PUBLIC "-//W3C//DTD SVG 1.1//EN"
  "http://www.w3.org/Graphics/SVG/1.1/DTD/svg11.dtd">
<!-- Created with matplotlib (https://matplotlib.org/) -->
<svg height="330.541644pt" version="1.1" viewBox="0 0 1000.058125 330.541644" width="1000.058125pt" xmlns="http://www.w3.org/2000/svg" xmlns:xlink="http://www.w3.org/1999/xlink">
 <defs>
  <style type="text/css">
*{stroke-linecap:butt;stroke-linejoin:round;}
  </style>
 </defs>
 <g id="figure_1">
  <g id="axes_1">
   <g id="patch_1">
    <path d="M 63.508125 273.99006 
L 985.223125 273.99006 
L 985.223125 31.48286 
L 63.508125 31.48286 
z
" style="fill:#ffffff;"/>
   </g>
   <g id="matplotlib.axis_1">
    <g id="xtick_1">
     <g id="text_1">
      <!-- 0 -->
      <defs>
       <path d="M 31.78125 66.40625 
Q 24.171875 66.40625 20.328125 58.90625 
Q 16.5 51.421875 16.5 36.375 
Q 16.5 21.390625 20.328125 13.890625 
Q 24.171875 6.390625 31.78125 6.390625 
Q 39.453125 6.390625 43.28125 13.890625 
Q 47.125 21.390625 47.125 36.375 
Q 47.125 51.421875 43.28125 58.90625 
Q 39.453125 66.40625 31.78125 66.40625 
z
M 31.78125 74.21875 
Q 44.046875 74.21875 50.515625 64.515625 
Q 56.984375 54.828125 56.984375 36.375 
Q 56.984375 17.96875 50.515625 8.265625 
Q 44.046875 -1.421875 31.78125 -1.421875 
Q 19.53125 -1.421875 13.0625 8.265625 
Q 6.59375 17.96875 6.59375 36.375 
Q 6.59375 54.828125 13.0625 64.515625 
Q 19.53125 74.21875 31.78125 74.21875 
z
" id="DejaVuSans-48"/>
      </defs>
      <g transform="translate(60.963125 287.06881)scale(0.08 -0.08)">
       <use xlink:href="#DejaVuSans-48"/>
      </g>
     </g>
    </g>
    <g id="xtick_2">
     <g id="text_2">
      <!-- 20 -->
      <defs>
       <path d="M 19.1875 8.296875 
L 53.609375 8.296875 
L 53.609375 0 
L 7.328125 0 
L 7.328125 8.296875 
Q 12.9375 14.109375 22.625 23.890625 
Q 32.328125 33.6875 34.8125 36.53125 
Q 39.546875 41.84375 41.421875 45.53125 
Q 43.3125 49.21875 43.3125 52.78125 
Q 43.3125 58.59375 39.234375 62.25 
Q 35.15625 65.921875 28.609375 65.921875 
Q 23.96875 65.921875 18.8125 64.3125 
Q 13.671875 62.703125 7.8125 59.421875 
L 7.8125 69.390625 
Q 13.765625 71.78125 18.9375 73 
Q 24.125 74.21875 28.421875 74.21875 
Q 39.75 74.21875 46.484375 68.546875 
Q 53.21875 62.890625 53.21875 53.421875 
Q 53.21875 48.921875 51.53125 44.890625 
Q 49.859375 40.875 45.40625 35.40625 
Q 44.1875 33.984375 37.640625 27.21875 
Q 31.109375 20.453125 19.1875 8.296875 
z
" id="DejaVuSans-50"/>
      </defs>
      <g transform="translate(242.761125 287.06881)scale(0.08 -0.08)">
       <use xlink:href="#DejaVuSans-50"/>
       <use x="63.623047" xlink:href="#DejaVuSans-48"/>
      </g>
     </g>
    </g>
    <g id="xtick_3">
     <g id="text_3">
      <!-- 40 -->
      <defs>
       <path d="M 37.796875 64.3125 
L 12.890625 25.390625 
L 37.796875 25.390625 
z
M 35.203125 72.90625 
L 47.609375 72.90625 
L 47.609375 25.390625 
L 58.015625 25.390625 
L 58.015625 17.1875 
L 47.609375 17.1875 
L 47.609375 0 
L 37.796875 0 
L 37.796875 17.1875 
L 4.890625 17.1875 
L 4.890625 26.703125 
z
" id="DejaVuSans-52"/>
      </defs>
      <g transform="translate(427.104125 287.06881)scale(0.08 -0.08)">
       <use xlink:href="#DejaVuSans-52"/>
       <use x="63.623047" xlink:href="#DejaVuSans-48"/>
      </g>
     </g>
    </g>
    <g id="xtick_4">
     <g id="text_4">
      <!-- 60 -->
      <defs>
       <path d="M 33.015625 40.375 
Q 26.375 40.375 22.484375 35.828125 
Q 18.609375 31.296875 18.609375 23.390625 
Q 18.609375 15.53125 22.484375 10.953125 
Q 26.375 6.390625 33.015625 6.390625 
Q 39.65625 6.390625 43.53125 10.953125 
Q 47.40625 15.53125 47.40625 23.390625 
Q 47.40625 31.296875 43.53125 35.828125 
Q 39.65625 40.375 33.015625 40.375 
z
M 52.59375 71.296875 
L 52.59375 62.3125 
Q 48.875 64.0625 45.09375 64.984375 
Q 41.3125 65.921875 37.59375 65.921875 
Q 27.828125 65.921875 22.671875 59.328125 
Q 17.53125 52.734375 16.796875 39.40625 
Q 19.671875 43.65625 24.015625 45.921875 
Q 28.375 48.1875 33.59375 48.1875 
Q 44.578125 48.1875 50.953125 41.515625 
Q 57.328125 34.859375 57.328125 23.390625 
Q 57.328125 12.15625 50.6875 5.359375 
Q 44.046875 -1.421875 33.015625 -1.421875 
Q 20.359375 -1.421875 13.671875 8.265625 
Q 6.984375 17.96875 6.984375 36.375 
Q 6.984375 53.65625 15.1875 63.9375 
Q 23.390625 74.21875 37.203125 74.21875 
Q 40.921875 74.21875 44.703125 73.484375 
Q 48.484375 72.75 52.59375 71.296875 
z
" id="DejaVuSans-54"/>
      </defs>
      <g transform="translate(611.447125 287.06881)scale(0.08 -0.08)">
       <use xlink:href="#DejaVuSans-54"/>
       <use x="63.623047" xlink:href="#DejaVuSans-48"/>
      </g>
     </g>
    </g>
    <g id="xtick_5">
     <g id="text_5">
      <!-- 80 -->
      <defs>
       <path d="M 31.78125 34.625 
Q 24.75 34.625 20.71875 30.859375 
Q 16.703125 27.09375 16.703125 20.515625 
Q 16.703125 13.921875 20.71875 10.15625 
Q 24.75 6.390625 31.78125 6.390625 
Q 38.8125 6.390625 42.859375 10.171875 
Q 46.921875 13.96875 46.921875 20.515625 
Q 46.921875 27.09375 42.890625 30.859375 
Q 38.875 34.625 31.78125 34.625 
z
M 21.921875 38.8125 
Q 15.578125 40.375 12.03125 44.71875 
Q 8.5 49.078125 8.5 55.328125 
Q 8.5 64.0625 14.71875 69.140625 
Q 20.953125 74.21875 31.78125 74.21875 
Q 42.671875 74.21875 48.875 69.140625 
Q 55.078125 64.0625 55.078125 55.328125 
Q 55.078125 49.078125 51.53125 44.71875 
Q 48 40.375 41.703125 38.8125 
Q 48.828125 37.15625 52.796875 32.3125 
Q 56.78125 27.484375 56.78125 20.515625 
Q 56.78125 9.90625 50.3125 4.234375 
Q 43.84375 -1.421875 31.78125 -1.421875 
Q 19.734375 -1.421875 13.25 4.234375 
Q 6.78125 9.90625 6.78125 20.515625 
Q 6.78125 27.484375 10.78125 32.3125 
Q 14.796875 37.15625 21.921875 38.8125 
z
M 18.3125 54.390625 
Q 18.3125 48.734375 21.84375 45.5625 
Q 25.390625 42.390625 31.78125 42.390625 
Q 38.140625 42.390625 41.71875 45.5625 
Q 45.3125 48.734375 45.3125 54.390625 
Q 45.3125 60.0625 41.71875 63.234375 
Q 38.140625 66.40625 31.78125 66.40625 
Q 25.390625 66.40625 21.84375 63.234375 
Q 18.3125 60.0625 18.3125 54.390625 
z
" id="DejaVuSans-56"/>
      </defs>
      <g transform="translate(795.790125 287.06881)scale(0.08 -0.08)">
       <use xlink:href="#DejaVuSans-56"/>
       <use x="63.623047" xlink:href="#DejaVuSans-48"/>
      </g>
     </g>
    </g>
    <g id="xtick_6">
     <g id="text_6">
      <!-- 100 -->
      <defs>
       <path d="M 12.40625 8.296875 
L 28.515625 8.296875 
L 28.515625 63.921875 
L 10.984375 60.40625 
L 10.984375 69.390625 
L 28.421875 72.90625 
L 38.28125 72.90625 
L 38.28125 8.296875 
L 54.390625 8.296875 
L 54.390625 0 
L 12.40625 0 
z
" id="DejaVuSans-49"/>
      </defs>
      <g transform="translate(977.588125 287.06881)scale(0.08 -0.08)">
       <use xlink:href="#DejaVuSans-49"/>
       <use x="63.623047" xlink:href="#DejaVuSans-48"/>
       <use x="127.246094" xlink:href="#DejaVuSans-48"/>
      </g>
     </g>
    </g>
    <g id="text_7">
     <!-- % GC -->
     <defs>
      <path d="M 72.703125 32.078125 
Q 68.453125 32.078125 66.03125 28.46875 
Q 63.625 24.859375 63.625 18.40625 
Q 63.625 12.0625 66.03125 8.421875 
Q 68.453125 4.78125 72.703125 4.78125 
Q 76.859375 4.78125 79.265625 8.421875 
Q 81.6875 12.0625 81.6875 18.40625 
Q 81.6875 24.8125 79.265625 28.4375 
Q 76.859375 32.078125 72.703125 32.078125 
z
M 72.703125 38.28125 
Q 80.421875 38.28125 84.953125 32.90625 
Q 89.5 27.546875 89.5 18.40625 
Q 89.5 9.28125 84.9375 3.921875 
Q 80.375 -1.421875 72.703125 -1.421875 
Q 64.890625 -1.421875 60.34375 3.921875 
Q 55.8125 9.28125 55.8125 18.40625 
Q 55.8125 27.59375 60.375 32.9375 
Q 64.9375 38.28125 72.703125 38.28125 
z
M 22.3125 68.015625 
Q 18.109375 68.015625 15.6875 64.375 
Q 13.28125 60.75 13.28125 54.390625 
Q 13.28125 47.953125 15.671875 44.328125 
Q 18.0625 40.71875 22.3125 40.71875 
Q 26.5625 40.71875 28.96875 44.328125 
Q 31.390625 47.953125 31.390625 54.390625 
Q 31.390625 60.6875 28.953125 64.34375 
Q 26.515625 68.015625 22.3125 68.015625 
z
M 66.40625 74.21875 
L 74.21875 74.21875 
L 28.609375 -1.421875 
L 20.796875 -1.421875 
z
M 22.3125 74.21875 
Q 30.03125 74.21875 34.609375 68.875 
Q 39.203125 63.53125 39.203125 54.390625 
Q 39.203125 45.171875 34.640625 39.84375 
Q 30.078125 34.515625 22.3125 34.515625 
Q 14.546875 34.515625 10.03125 39.859375 
Q 5.515625 45.21875 5.515625 54.390625 
Q 5.515625 63.484375 10.046875 68.84375 
Q 14.59375 74.21875 22.3125 74.21875 
z
" id="DejaVuSans-37"/>
      <path id="DejaVuSans-32"/>
      <path d="M 59.515625 10.40625 
L 59.515625 29.984375 
L 43.40625 29.984375 
L 43.40625 38.09375 
L 69.28125 38.09375 
L 69.28125 6.78125 
Q 63.578125 2.734375 56.6875 0.65625 
Q 49.8125 -1.421875 42 -1.421875 
Q 24.90625 -1.421875 15.25 8.5625 
Q 5.609375 18.5625 5.609375 36.375 
Q 5.609375 54.25 15.25 64.234375 
Q 24.90625 74.21875 42 74.21875 
Q 49.125 74.21875 55.546875 72.453125 
Q 61.96875 70.703125 67.390625 67.28125 
L 67.390625 56.78125 
Q 61.921875 61.421875 55.765625 63.765625 
Q 49.609375 66.109375 42.828125 66.109375 
Q 29.4375 66.109375 22.71875 58.640625 
Q 16.015625 51.171875 16.015625 36.375 
Q 16.015625 21.625 22.71875 14.15625 
Q 29.4375 6.6875 42.828125 6.6875 
Q 48.046875 6.6875 52.140625 7.59375 
Q 56.25 8.5 59.515625 10.40625 
z
" id="DejaVuSans-71"/>
      <path d="M 64.40625 67.28125 
L 64.40625 56.890625 
Q 59.421875 61.53125 53.78125 63.8125 
Q 48.140625 66.109375 41.796875 66.109375 
Q 29.296875 66.109375 22.65625 58.46875 
Q 16.015625 50.828125 16.015625 36.375 
Q 16.015625 21.96875 22.65625 14.328125 
Q 29.296875 6.6875 41.796875 6.6875 
Q 48.140625 6.6875 53.78125 8.984375 
Q 59.421875 11.28125 64.40625 15.921875 
L 64.40625 5.609375 
Q 59.234375 2.09375 53.4375 0.328125 
Q 47.65625 -1.421875 41.21875 -1.421875 
Q 24.65625 -1.421875 15.125 8.703125 
Q 5.609375 18.84375 5.609375 36.375 
Q 5.609375 53.953125 15.125 64.078125 
Q 24.65625 74.21875 41.21875 74.21875 
Q 47.75 74.21875 53.53125 72.484375 
Q 59.328125 70.75 64.40625 67.28125 
z
" id="DejaVuSans-67"/>
     </defs>
     <g transform="translate(510.660156 300.330997)scale(0.1 -0.1)">
      <use xlink:href="#DejaVuSans-37"/>
      <use x="95.019531" xlink:href="#DejaVuSans-32"/>
      <use x="126.806641" xlink:href="#DejaVuSans-71"/>
      <use x="204.296875" xlink:href="#DejaVuSans-67"/>
     </g>
    </g>
   </g>
   <g id="matplotlib.axis_2">
    <g id="ytick_1">
     <g id="line2d_1">
      <path clip-path="url(#p29d519d889)" d="M 63.508125 273.99006 
L 985.223125 273.99006 
" style="fill:none;stroke:#dedede;stroke-linecap:square;"/>
     </g>
     <g id="text_8">
      <!-- 0 -->
      <g transform="translate(51.418125 277.029435)scale(0.08 -0.08)">
       <use xlink:href="#DejaVuSans-48"/>
      </g>
     </g>
    </g>
    <g id="ytick_2">
     <g id="line2d_2">
      <path clip-path="url(#p29d519d889)" d="M 63.508125 241.113412 
L 985.223125 241.113412 
" style="fill:none;stroke:#dedede;stroke-linecap:square;"/>
     </g>
     <g id="text_9">
      <!-- 250000 -->
      <defs>
       <path d="M 10.796875 72.90625 
L 49.515625 72.90625 
L 49.515625 64.59375 
L 19.828125 64.59375 
L 19.828125 46.734375 
Q 21.96875 47.46875 24.109375 47.828125 
Q 26.265625 48.1875 28.421875 48.1875 
Q 40.625 48.1875 47.75 41.5 
Q 54.890625 34.8125 54.890625 23.390625 
Q 54.890625 11.625 47.5625 5.09375 
Q 40.234375 -1.421875 26.90625 -1.421875 
Q 22.3125 -1.421875 17.546875 -0.640625 
Q 12.796875 0.140625 7.71875 1.703125 
L 7.71875 11.625 
Q 12.109375 9.234375 16.796875 8.0625 
Q 21.484375 6.890625 26.703125 6.890625 
Q 35.15625 6.890625 40.078125 11.328125 
Q 45.015625 15.765625 45.015625 23.390625 
Q 45.015625 31 40.078125 35.4375 
Q 35.15625 39.890625 26.703125 39.890625 
Q 22.75 39.890625 18.8125 39.015625 
Q 14.890625 38.140625 10.796875 36.28125 
z
" id="DejaVuSans-53"/>
      </defs>
      <g transform="translate(25.968125 244.152787)scale(0.08 -0.08)">
       <use xlink:href="#DejaVuSans-50"/>
       <use x="63.623047" xlink:href="#DejaVuSans-53"/>
       <use x="127.246094" xlink:href="#DejaVuSans-48"/>
       <use x="190.869141" xlink:href="#DejaVuSans-48"/>
       <use x="254.492188" xlink:href="#DejaVuSans-48"/>
       <use x="318.115234" xlink:href="#DejaVuSans-48"/>
      </g>
     </g>
    </g>
    <g id="ytick_3">
     <g id="line2d_3">
      <path clip-path="url(#p29d519d889)" d="M 63.508125 208.236765 
L 985.223125 208.236765 
" style="fill:none;stroke:#dedede;stroke-linecap:square;"/>
     </g>
     <g id="text_10">
      <!-- 500000 -->
      <g transform="translate(25.968125 211.27614)scale(0.08 -0.08)">
       <use xlink:href="#DejaVuSans-53"/>
       <use x="63.623047" xlink:href="#DejaVuSans-48"/>
       <use x="127.246094" xlink:href="#DejaVuSans-48"/>
       <use x="190.869141" xlink:href="#DejaVuSans-48"/>
       <use x="254.492188" xlink:href="#DejaVuSans-48"/>
       <use x="318.115234" xlink:href="#DejaVuSans-48"/>
      </g>
     </g>
    </g>
    <g id="ytick_4">
     <g id="line2d_4">
      <path clip-path="url(#p29d519d889)" d="M 63.508125 175.360117 
L 985.223125 175.360117 
" style="fill:none;stroke:#dedede;stroke-linecap:square;"/>
     </g>
     <g id="text_11">
      <!-- 750000 -->
      <defs>
       <path d="M 8.203125 72.90625 
L 55.078125 72.90625 
L 55.078125 68.703125 
L 28.609375 0 
L 18.3125 0 
L 43.21875 64.59375 
L 8.203125 64.59375 
z
" id="DejaVuSans-55"/>
      </defs>
      <g transform="translate(25.968125 178.399492)scale(0.08 -0.08)">
       <use xlink:href="#DejaVuSans-55"/>
       <use x="63.623047" xlink:href="#DejaVuSans-53"/>
       <use x="127.246094" xlink:href="#DejaVuSans-48"/>
       <use x="190.869141" xlink:href="#DejaVuSans-48"/>
       <use x="254.492188" xlink:href="#DejaVuSans-48"/>
       <use x="318.115234" xlink:href="#DejaVuSans-48"/>
      </g>
     </g>
    </g>
    <g id="ytick_5">
     <g id="line2d_5">
      <path clip-path="url(#p29d519d889)" d="M 63.508125 142.48347 
L 985.223125 142.48347 
" style="fill:none;stroke:#dedede;stroke-linecap:square;"/>
     </g>
     <g id="text_12">
      <!-- 1000000 -->
      <g transform="translate(20.878125 145.522845)scale(0.08 -0.08)">
       <use xlink:href="#DejaVuSans-49"/>
       <use x="63.623047" xlink:href="#DejaVuSans-48"/>
       <use x="127.246094" xlink:href="#DejaVuSans-48"/>
       <use x="190.869141" xlink:href="#DejaVuSans-48"/>
       <use x="254.492188" xlink:href="#DejaVuSans-48"/>
       <use x="318.115234" xlink:href="#DejaVuSans-48"/>
       <use x="381.738281" xlink:href="#DejaVuSans-48"/>
      </g>
     </g>
    </g>
    <g id="ytick_6">
     <g id="line2d_6">
      <path clip-path="url(#p29d519d889)" d="M 63.508125 109.606822 
L 985.223125 109.606822 
" style="fill:none;stroke:#dedede;stroke-linecap:square;"/>
     </g>
     <g id="text_13">
      <!-- 1250000 -->
      <g transform="translate(20.878125 112.646197)scale(0.08 -0.08)">
       <use xlink:href="#DejaVuSans-49"/>
       <use x="63.623047" xlink:href="#DejaVuSans-50"/>
       <use x="127.246094" xlink:href="#DejaVuSans-53"/>
       <use x="190.869141" xlink:href="#DejaVuSans-48"/>
       <use x="254.492188" xlink:href="#DejaVuSans-48"/>
       <use x="318.115234" xlink:href="#DejaVuSans-48"/>
       <use x="381.738281" xlink:href="#DejaVuSans-48"/>
      </g>
     </g>
    </g>
    <g id="ytick_7">
     <g id="line2d_7">
      <path clip-path="url(#p29d519d889)" d="M 63.508125 76.730175 
L 985.223125 76.730175 
" style="fill:none;stroke:#dedede;stroke-linecap:square;"/>
     </g>
     <g id="text_14">
      <!-- 1500000 -->
      <g transform="translate(20.878125 79.76955)scale(0.08 -0.08)">
       <use xlink:href="#DejaVuSans-49"/>
       <use x="63.623047" xlink:href="#DejaVuSans-53"/>
       <use x="127.246094" xlink:href="#DejaVuSans-48"/>
       <use x="190.869141" xlink:href="#DejaVuSans-48"/>
       <use x="254.492188" xlink:href="#DejaVuSans-48"/>
       <use x="318.115234" xlink:href="#DejaVuSans-48"/>
       <use x="381.738281" xlink:href="#DejaVuSans-48"/>
      </g>
     </g>
    </g>
    <g id="ytick_8">
     <g id="line2d_8">
      <path clip-path="url(#p29d519d889)" d="M 63.508125 43.853527 
L 985.223125 43.853527 
" style="fill:none;stroke:#dedede;stroke-linecap:square;"/>
     </g>
     <g id="text_15">
      <!-- 1750000 -->
      <g transform="translate(20.878125 46.892902)scale(0.08 -0.08)">
       <use xlink:href="#DejaVuSans-49"/>
       <use x="63.623047" xlink:href="#DejaVuSans-55"/>
       <use x="127.246094" xlink:href="#DejaVuSans-53"/>
       <use x="190.869141" xlink:href="#DejaVuSans-48"/>
       <use x="254.492188" xlink:href="#DejaVuSans-48"/>
       <use x="318.115234" xlink:href="#DejaVuSans-48"/>
       <use x="381.738281" xlink:href="#DejaVuSans-48"/>
      </g>
     </g>
    </g>
    <g id="text_16">
     <!-- Count -->
     <defs>
      <path d="M 30.609375 48.390625 
Q 23.390625 48.390625 19.1875 42.75 
Q 14.984375 37.109375 14.984375 27.296875 
Q 14.984375 17.484375 19.15625 11.84375 
Q 23.34375 6.203125 30.609375 6.203125 
Q 37.796875 6.203125 41.984375 11.859375 
Q 46.1875 17.53125 46.1875 27.296875 
Q 46.1875 37.015625 41.984375 42.703125 
Q 37.796875 48.390625 30.609375 48.390625 
z
M 30.609375 56 
Q 42.328125 56 49.015625 48.375 
Q 55.71875 40.765625 55.71875 27.296875 
Q 55.71875 13.875 49.015625 6.21875 
Q 42.328125 -1.421875 30.609375 -1.421875 
Q 18.84375 -1.421875 12.171875 6.21875 
Q 5.515625 13.875 5.515625 27.296875 
Q 5.515625 40.765625 12.171875 48.375 
Q 18.84375 56 30.609375 56 
z
" id="DejaVuSans-111"/>
      <path d="M 8.5 21.578125 
L 8.5 54.6875 
L 17.484375 54.6875 
L 17.484375 21.921875 
Q 17.484375 14.15625 20.5 10.265625 
Q 23.53125 6.390625 29.59375 6.390625 
Q 36.859375 6.390625 41.078125 11.03125 
Q 45.3125 15.671875 45.3125 23.6875 
L 45.3125 54.6875 
L 54.296875 54.6875 
L 54.296875 0 
L 45.3125 0 
L 45.3125 8.40625 
Q 42.046875 3.421875 37.71875 1 
Q 33.40625 -1.421875 27.6875 -1.421875 
Q 18.265625 -1.421875 13.375 4.4375 
Q 8.5 10.296875 8.5 21.578125 
z
M 31.109375 56 
z
" id="DejaVuSans-117"/>
      <path d="M 54.890625 33.015625 
L 54.890625 0 
L 45.90625 0 
L 45.90625 32.71875 
Q 45.90625 40.484375 42.875 44.328125 
Q 39.84375 48.1875 33.796875 48.1875 
Q 26.515625 48.1875 22.3125 43.546875 
Q 18.109375 38.921875 18.109375 30.90625 
L 18.109375 0 
L 9.078125 0 
L 9.078125 54.6875 
L 18.109375 54.6875 
L 18.109375 46.1875 
Q 21.34375 51.125 25.703125 53.5625 
Q 30.078125 56 35.796875 56 
Q 45.21875 56 50.046875 50.171875 
Q 54.890625 44.34375 54.890625 33.015625 
z
" id="DejaVuSans-110"/>
      <path d="M 18.3125 70.21875 
L 18.3125 54.6875 
L 36.8125 54.6875 
L 36.8125 47.703125 
L 18.3125 47.703125 
L 18.3125 18.015625 
Q 18.3125 11.328125 20.140625 9.421875 
Q 21.96875 7.515625 27.59375 7.515625 
L 36.8125 7.515625 
L 36.8125 0 
L 27.59375 0 
Q 17.1875 0 13.234375 3.875 
Q 9.28125 7.765625 9.28125 18.015625 
L 9.28125 47.703125 
L 2.6875 47.703125 
L 2.6875 54.6875 
L 9.28125 54.6875 
L 9.28125 70.21875 
z
" id="DejaVuSans-116"/>
     </defs>
     <g transform="translate(14.798438 167.584897)rotate(-90)scale(0.1 -0.1)">
      <use xlink:href="#DejaVuSans-67"/>
      <use x="69.824219" xlink:href="#DejaVuSans-111"/>
      <use x="131.005859" xlink:href="#DejaVuSans-117"/>
      <use x="194.384766" xlink:href="#DejaVuSans-110"/>
      <use x="257.763672" xlink:href="#DejaVuSans-116"/>
     </g>
    </g>
   </g>
   <g id="line2d_9">
    <path clip-path="url(#p29d519d889)" d="M 63.508125 273.989271 
L 72.725275 273.988811 
L 81.942425 273.986838 
L 91.159575 273.983813 
L 100.376725 273.978224 
L 109.593875 273.971452 
L 118.811025 273.960274 
L 128.028175 273.939167 
L 137.245325 273.913326 
L 146.462475 273.874531 
L 155.679625 273.814236 
L 164.896775 273.736515 
L 174.113925 273.627825 
L 183.331075 273.466072 
L 192.548225 273.219168 
L 201.765375 272.887969 
L 210.982525 272.417833 
L 220.199675 271.709078 
L 229.416825 270.679842 
L 238.633975 269.121555 
L 247.851125 266.914874 
L 257.068275 263.850244 
L 266.285425 259.689573 
L 275.502575 254.044324 
L 284.719725 246.533785 
L 293.936875 236.952347 
L 303.154025 225.101104 
L 312.371175 211.167389 
L 321.588325 195.366544 
L 330.805475 178.663431 
L 340.022625 162.68834 
L 349.239775 146.982968 
L 358.456925 131.415415 
L 367.674075 118.098466 
L 376.891225 108.124874 
L 386.108375 101.710246 
L 395.325525 98.314614 
L 404.542675 98.271809 
L 413.759825 100.497426 
L 422.976975 102.426036 
L 432.194125 103.523459 
L 441.411275 103.915677 
L 450.628425 104.520936 
L 459.845575 106.088758 
L 469.062725 109.451776 
L 478.279875 114.247295 
L 487.497025 120.184423 
L 496.714175 127.185177 
L 505.931325 134.958268 
L 515.148475 143.718843 
L 524.365625 152.375396 
L 533.582775 162.165404 
L 542.799925 173.061316 
L 552.017075 183.242688 
L 561.234225 192.648105 
L 570.451375 201.724098 
L 579.668525 210.464487 
L 588.885675 218.332131 
L 598.102825 225.137269 
L 607.319975 231.049213 
L 616.537125 236.159625 
L 625.754275 240.506575 
L 634.971425 244.616419 
L 644.188575 248.543535 
L 653.405725 252.096974 
L 662.622875 255.005703 
L 671.840025 257.376569 
L 681.057175 259.533015 
L 690.274325 261.59655 
L 699.491475 263.555144 
L 708.708625 265.311348 
L 717.925775 266.748847 
L 727.142925 268.030181 
L 736.360075 269.118398 
L 745.577225 269.902967 
L 754.794375 270.629935 
L 764.011525 271.344608 
L 773.228675 272.057373 
L 782.445825 272.613054 
L 791.662975 272.949448 
L 800.880125 273.242379 
L 810.097275 273.485929 
L 819.314425 273.665567 
L 828.531575 273.775967 
L 837.748725 273.852175 
L 846.965875 273.922794 
L 856.183025 273.958959 
L 865.400175 273.97086 
L 874.617325 273.978487 
L 883.834475 273.983945 
L 893.051625 273.986707 
L 902.268775 273.988153 
L 911.485925 273.988942 
L 920.703075 273.989534 
L 929.920225 273.989928 
L 939.137375 273.989863 
L 948.354525 273.989928 
L 957.571675 273.989994 
L 966.788825 273.989994 
L 976.005975 273.99006 
L 985.223125 273.99006 
" style="fill:none;stroke:#f0ad4e;stroke-linecap:square;"/>
   </g>
   <g id="line2d_10">
    <path clip-path="url(#p29d519d889)" d="M 63.508125 273.989271 
L 72.725275 273.988087 
L 81.942425 273.982761 
L 91.159575 273.972964 
L 100.376725 273.956329 
L 109.593875 273.931737 
L 118.811025 273.90149 
L 128.028175 273.861184 
L 137.245325 273.80628 
L 146.462475 273.730861 
L 155.679625 273.652022 
L 164.896775 273.542872 
L 174.113925 273.377502 
L 183.331075 273.186423 
L 192.548225 272.903947 
L 201.765375 272.49917 
L 210.982525 271.963215 
L 220.199675 271.169244 
L 229.416825 269.975427 
L 238.633975 268.219682 
L 247.851125 265.771161 
L 257.068275 262.407025 
L 266.285425 257.858147 
L 275.502575 251.739671 
L 284.719725 243.836782 
L 293.936875 233.937361 
L 303.154025 221.943631 
L 312.371175 208.005576 
L 321.588325 192.291328 
L 330.805475 175.793892 
L 340.022625 159.769091 
L 349.239775 144.15413 
L 358.456925 128.711442 
L 367.674075 115.37457 
L 376.891225 105.971783 
L 386.108375 100.432659 
L 395.325525 97.415833 
L 404.542675 97.244085 
L 413.759825 99.59608 
L 422.976975 101.643046 
L 432.194125 102.70871 
L 441.411275 103.427591 
L 450.628425 104.723983 
L 459.845575 107.059277 
L 469.062725 110.812606 
L 478.279875 116.056826 
L 487.497025 122.255784 
L 496.714175 129.533358 
L 505.931325 137.433288 
L 515.148475 146.104898 
L 524.365625 155.143083 
L 533.582775 165.036982 
L 542.799925 175.712029 
L 552.017075 185.760645 
L 561.234225 195.147519 
L 570.451375 204.076948 
L 579.668525 212.628888 
L 588.885675 220.45925 
L 598.102825 227.168059 
L 607.319975 232.904245 
L 616.537125 237.843633 
L 625.754275 242.049739 
L 634.971425 245.979288 
L 644.188575 249.781801 
L 653.405725 253.165005 
L 662.622875 255.868846 
L 671.840025 258.17968 
L 681.057175 260.241638 
L 690.274325 262.157623 
L 699.491475 263.994967 
L 708.708625 265.674504 
L 717.925775 267.010019 
L 727.142925 268.228165 
L 736.360075 269.280612 
L 745.577225 270.078923 
L 754.794375 270.772423 
L 764.011525 271.407271 
L 773.228675 272.088212 
L 782.445825 272.607728 
L 791.662975 272.939191 
L 800.880125 273.215486 
L 810.097275 273.44102 
L 819.314425 273.613688 
L 828.531575 273.726981 
L 837.748725 273.809107 
L 846.965875 273.877425 
L 856.183025 273.922794 
L 865.400175 273.946005 
L 874.617325 273.959287 
L 883.834475 273.967309 
L 893.051625 273.974476 
L 902.268775 273.97875 
L 911.485925 273.981972 
L 920.703075 273.984997 
L 929.920225 273.986312 
L 939.137375 273.987364 
L 948.354525 273.988285 
L 957.571675 273.989074 
L 966.788825 273.989402 
L 976.005975 273.989665 
L 985.223125 273.989665 
" style="fill:none;stroke:#f0ad4e;stroke-linecap:square;"/>
   </g>
   <g id="line2d_11">
    <path clip-path="url(#p29d519d889)" d="M 63.508125 273.989928 
L 72.725275 273.989205 
L 81.942425 273.988811 
L 91.159575 273.987561 
L 100.376725 273.983813 
L 109.593875 273.979474 
L 118.811025 273.969939 
L 128.028175 273.952975 
L 137.245325 273.93154 
L 146.462475 273.897874 
L 155.679625 273.846521 
L 164.896775 273.786028 
L 174.113925 273.701666 
L 183.331075 273.568384 
L 192.548225 273.367902 
L 201.765375 273.072276 
L 210.982525 272.614896 
L 220.199675 271.930141 
L 229.416825 270.888148 
L 238.633975 269.302771 
L 247.851125 266.90146 
L 257.068275 263.428831 
L 266.285425 258.526923 
L 275.502575 251.591923 
L 284.719725 242.265147 
L 293.936875 230.192382 
L 303.154025 214.957541 
L 312.371175 196.557993 
L 321.588325 175.303241 
L 330.805475 152.593565 
L 340.022625 130.713367 
L 349.239775 109.635425 
L 358.456925 88.572343 
L 367.674075 70.151755 
L 376.891225 56.638729 
L 386.108375 48.076796 
L 395.325525 43.53035 
L 404.542675 43.735829 
L 413.759825 47.482978 
L 422.976975 50.595804 
L 432.194125 52.251472 
L 441.411275 53.326933 
L 450.628425 54.416399 
L 459.845575 56.356911 
L 469.062725 60.416519 
L 478.279875 66.459444 
L 487.497025 74.004701 
L 496.714175 82.758568 
L 505.931325 92.528653 
L 515.148475 103.53924 
L 524.365625 114.591054 
L 533.582775 127.121396 
L 542.799925 141.246848 
L 552.017075 154.760925 
L 561.234225 167.026019 
L 570.451375 178.762719 
L 579.668525 190.426893 
L 588.885675 201.065579 
L 598.102825 210.487895 
L 607.319975 218.697851 
L 616.537125 225.793486 
L 625.754275 231.922351 
L 634.971425 237.710153 
L 644.188575 243.421287 
L 653.405725 248.502636 
L 662.622875 252.597686 
L 671.840025 255.949394 
L 681.057175 258.665794 
L 690.274325 261.154951 
L 699.491475 263.383922 
L 708.708625 265.250724 
L 717.925775 266.698414 
L 727.142925 267.943716 
L 736.360075 268.977489 
L 745.577225 269.666058 
L 754.794375 270.295843 
L 764.011525 270.924576 
L 773.228675 271.662788 
L 782.445825 272.241877 
L 791.662975 272.571498 
L 800.880125 272.858314 
L 810.097275 273.124155 
L 819.314425 273.377042 
L 828.531575 273.589359 
L 837.748725 273.75703 
L 846.965875 273.88354 
L 856.183025 273.938115 
L 865.400175 273.958564 
L 874.617325 273.972175 
L 883.834475 273.97875 
L 893.051625 273.983748 
L 902.268775 273.986246 
L 911.485925 273.98743 
L 920.703075 273.988482 
L 929.920225 273.989402 
L 939.137375 273.989797 
L 948.354525 273.989994 
L 957.571675 273.99006 
L 966.788825 273.99006 
L 976.005975 273.99006 
L 985.223125 273.99006 
" style="fill:none;stroke:#f0ad4e;stroke-linecap:square;"/>
   </g>
   <g id="line2d_12">
    <path clip-path="url(#p29d519d889)" d="M 63.508125 273.989402 
L 72.725275 273.98789 
L 81.942425 273.983156 
L 91.159575 273.973819 
L 100.376725 273.952909 
L 109.593875 273.927726 
L 118.811025 273.896559 
L 128.028175 273.846915 
L 137.245325 273.787277 
L 146.462475 273.72034 
L 155.679625 273.640844 
L 164.896775 273.530905 
L 174.113925 273.387891 
L 183.331075 273.212856 
L 192.548225 272.945437 
L 201.765375 272.548945 
L 210.982525 272.003916 
L 220.199675 271.18246 
L 229.416825 269.954583 
L 238.633975 268.069305 
L 247.851125 265.256642 
L 257.068275 261.335444 
L 266.285425 255.789285 
L 275.502575 248.146845 
L 284.719725 238.02669 
L 293.936875 225.035417 
L 303.154025 209.06815 
L 312.371175 190.405852 
L 321.588325 169.371241 
L 330.805475 147.150967 
L 340.022625 125.588818 
L 349.239775 104.536323 
L 358.456925 84.056604 
L 367.674075 66.516584 
L 376.891225 53.845069 
L 386.108375 46.481949 
L 395.325525 43.030822 
L 404.542675 43.662054 
L 413.759825 47.22049 
L 422.976975 50.335947 
L 432.194125 52.336491 
L 441.411275 53.772477 
L 450.628425 55.628298 
L 459.845575 58.321882 
L 469.062725 63.066574 
L 478.279875 69.608567 
L 487.497025 77.354897 
L 496.714175 86.62381 
L 505.931325 96.520864 
L 515.148475 107.452613 
L 524.365625 118.862914 
L 533.582775 131.438297 
L 542.799925 145.309349 
L 552.017075 158.519975 
L 561.234225 170.576236 
L 570.451375 182.081419 
L 579.668525 193.398876 
L 588.885675 203.871732 
L 598.102825 213.007035 
L 607.319975 220.931096 
L 616.537125 227.877143 
L 625.754275 233.929931 
L 634.971425 239.51015 
L 644.188575 244.898435 
L 653.405725 249.798502 
L 662.622875 253.638758 
L 671.840025 256.737316 
L 681.057175 259.431294 
L 690.274325 261.792232 
L 699.491475 263.913828 
L 708.708625 265.758273 
L 717.925775 267.139158 
L 727.142925 268.260055 
L 736.360075 269.184086 
L 745.577225 269.874759 
L 754.794375 270.490933 
L 764.011525 271.076795 
L 773.228675 271.721243 
L 782.445825 272.251214 
L 791.662975 272.608057 
L 800.880125 272.896254 
L 810.097275 273.12284 
L 819.314425 273.350346 
L 828.531575 273.562795 
L 837.748725 273.718302 
L 846.965875 273.825808 
L 856.183025 273.886762 
L 865.400175 273.921216 
L 874.617325 273.946531 
L 883.834475 273.960405 
L 893.051625 273.968427 
L 902.268775 273.974937 
L 911.485925 273.979211 
L 920.703075 273.98263 
L 929.920225 273.985326 
L 939.137375 273.986904 
L 948.354525 273.987956 
L 957.571675 273.989271 
L 966.788825 273.989665 
L 976.005975 273.989928 
L 985.223125 273.989928 
" style="fill:none;stroke:#f0ad4e;stroke-linecap:square;"/>
   </g>
   <g id="line2d_13">
    <path clip-path="url(#p29d519d889)" d="M 63.508125 273.99006 
L 985.223125 273.99006 
" style="fill:none;stroke:#dedede;stroke-linecap:square;stroke-width:2;"/>
   </g>
   <g id="text_17">
    <!-- FastQC: Per Sequence GC Content -->
    <defs>
     <path d="M 9.8125 72.90625 
L 51.703125 72.90625 
L 51.703125 64.59375 
L 19.671875 64.59375 
L 19.671875 43.109375 
L 48.578125 43.109375 
L 48.578125 34.8125 
L 19.671875 34.8125 
L 19.671875 0 
L 9.8125 0 
z
" id="DejaVuSans-70"/>
     <path d="M 34.28125 27.484375 
Q 23.390625 27.484375 19.1875 25 
Q 14.984375 22.515625 14.984375 16.5 
Q 14.984375 11.71875 18.140625 8.90625 
Q 21.296875 6.109375 26.703125 6.109375 
Q 34.1875 6.109375 38.703125 11.40625 
Q 43.21875 16.703125 43.21875 25.484375 
L 43.21875 27.484375 
z
M 52.203125 31.203125 
L 52.203125 0 
L 43.21875 0 
L 43.21875 8.296875 
Q 40.140625 3.328125 35.546875 0.953125 
Q 30.953125 -1.421875 24.3125 -1.421875 
Q 15.921875 -1.421875 10.953125 3.296875 
Q 6 8.015625 6 15.921875 
Q 6 25.140625 12.171875 29.828125 
Q 18.359375 34.515625 30.609375 34.515625 
L 43.21875 34.515625 
L 43.21875 35.40625 
Q 43.21875 41.609375 39.140625 45 
Q 35.0625 48.390625 27.6875 48.390625 
Q 23 48.390625 18.546875 47.265625 
Q 14.109375 46.140625 10.015625 43.890625 
L 10.015625 52.203125 
Q 14.9375 54.109375 19.578125 55.046875 
Q 24.21875 56 28.609375 56 
Q 40.484375 56 46.34375 49.84375 
Q 52.203125 43.703125 52.203125 31.203125 
z
" id="DejaVuSans-97"/>
     <path d="M 44.28125 53.078125 
L 44.28125 44.578125 
Q 40.484375 46.53125 36.375 47.5 
Q 32.28125 48.484375 27.875 48.484375 
Q 21.1875 48.484375 17.84375 46.4375 
Q 14.5 44.390625 14.5 40.28125 
Q 14.5 37.15625 16.890625 35.375 
Q 19.28125 33.59375 26.515625 31.984375 
L 29.59375 31.296875 
Q 39.15625 29.25 43.1875 25.515625 
Q 47.21875 21.78125 47.21875 15.09375 
Q 47.21875 7.46875 41.1875 3.015625 
Q 35.15625 -1.421875 24.609375 -1.421875 
Q 20.21875 -1.421875 15.453125 -0.5625 
Q 10.6875 0.296875 5.421875 2 
L 5.421875 11.28125 
Q 10.40625 8.6875 15.234375 7.390625 
Q 20.0625 6.109375 24.8125 6.109375 
Q 31.15625 6.109375 34.5625 8.28125 
Q 37.984375 10.453125 37.984375 14.40625 
Q 37.984375 18.0625 35.515625 20.015625 
Q 33.0625 21.96875 24.703125 23.78125 
L 21.578125 24.515625 
Q 13.234375 26.265625 9.515625 29.90625 
Q 5.8125 33.546875 5.8125 39.890625 
Q 5.8125 47.609375 11.28125 51.796875 
Q 16.75 56 26.8125 56 
Q 31.78125 56 36.171875 55.265625 
Q 40.578125 54.546875 44.28125 53.078125 
z
" id="DejaVuSans-115"/>
     <path d="M 39.40625 66.21875 
Q 28.65625 66.21875 22.328125 58.203125 
Q 16.015625 50.203125 16.015625 36.375 
Q 16.015625 22.609375 22.328125 14.59375 
Q 28.65625 6.59375 39.40625 6.59375 
Q 50.140625 6.59375 56.421875 14.59375 
Q 62.703125 22.609375 62.703125 36.375 
Q 62.703125 50.203125 56.421875 58.203125 
Q 50.140625 66.21875 39.40625 66.21875 
z
M 53.21875 1.3125 
L 66.21875 -12.890625 
L 54.296875 -12.890625 
L 43.5 -1.21875 
Q 41.890625 -1.3125 41.03125 -1.359375 
Q 40.1875 -1.421875 39.40625 -1.421875 
Q 24.03125 -1.421875 14.8125 8.859375 
Q 5.609375 19.140625 5.609375 36.375 
Q 5.609375 53.65625 14.8125 63.9375 
Q 24.03125 74.21875 39.40625 74.21875 
Q 54.734375 74.21875 63.90625 63.9375 
Q 73.09375 53.65625 73.09375 36.375 
Q 73.09375 23.6875 67.984375 14.640625 
Q 62.890625 5.609375 53.21875 1.3125 
z
" id="DejaVuSans-81"/>
     <path d="M 11.71875 12.40625 
L 22.015625 12.40625 
L 22.015625 0 
L 11.71875 0 
z
M 11.71875 51.703125 
L 22.015625 51.703125 
L 22.015625 39.3125 
L 11.71875 39.3125 
z
" id="DejaVuSans-58"/>
     <path d="M 19.671875 64.796875 
L 19.671875 37.40625 
L 32.078125 37.40625 
Q 38.96875 37.40625 42.71875 40.96875 
Q 46.484375 44.53125 46.484375 51.125 
Q 46.484375 57.671875 42.71875 61.234375 
Q 38.96875 64.796875 32.078125 64.796875 
z
M 9.8125 72.90625 
L 32.078125 72.90625 
Q 44.34375 72.90625 50.609375 67.359375 
Q 56.890625 61.8125 56.890625 51.125 
Q 56.890625 40.328125 50.609375 34.8125 
Q 44.34375 29.296875 32.078125 29.296875 
L 19.671875 29.296875 
L 19.671875 0 
L 9.8125 0 
z
" id="DejaVuSans-80"/>
     <path d="M 56.203125 29.59375 
L 56.203125 25.203125 
L 14.890625 25.203125 
Q 15.484375 15.921875 20.484375 11.0625 
Q 25.484375 6.203125 34.421875 6.203125 
Q 39.59375 6.203125 44.453125 7.46875 
Q 49.3125 8.734375 54.109375 11.28125 
L 54.109375 2.78125 
Q 49.265625 0.734375 44.1875 -0.34375 
Q 39.109375 -1.421875 33.890625 -1.421875 
Q 20.796875 -1.421875 13.15625 6.1875 
Q 5.515625 13.8125 5.515625 26.8125 
Q 5.515625 40.234375 12.765625 48.109375 
Q 20.015625 56 32.328125 56 
Q 43.359375 56 49.78125 48.890625 
Q 56.203125 41.796875 56.203125 29.59375 
z
M 47.21875 32.234375 
Q 47.125 39.59375 43.09375 43.984375 
Q 39.0625 48.390625 32.421875 48.390625 
Q 24.90625 48.390625 20.390625 44.140625 
Q 15.875 39.890625 15.1875 32.171875 
z
" id="DejaVuSans-101"/>
     <path d="M 41.109375 46.296875 
Q 39.59375 47.171875 37.8125 47.578125 
Q 36.03125 48 33.890625 48 
Q 26.265625 48 22.1875 43.046875 
Q 18.109375 38.09375 18.109375 28.8125 
L 18.109375 0 
L 9.078125 0 
L 9.078125 54.6875 
L 18.109375 54.6875 
L 18.109375 46.1875 
Q 20.953125 51.171875 25.484375 53.578125 
Q 30.03125 56 36.53125 56 
Q 37.453125 56 38.578125 55.875 
Q 39.703125 55.765625 41.0625 55.515625 
z
" id="DejaVuSans-114"/>
     <path d="M 53.515625 70.515625 
L 53.515625 60.890625 
Q 47.90625 63.578125 42.921875 64.890625 
Q 37.9375 66.21875 33.296875 66.21875 
Q 25.25 66.21875 20.875 63.09375 
Q 16.5 59.96875 16.5 54.203125 
Q 16.5 49.359375 19.40625 46.890625 
Q 22.3125 44.4375 30.421875 42.921875 
L 36.375 41.703125 
Q 47.40625 39.59375 52.65625 34.296875 
Q 57.90625 29 57.90625 20.125 
Q 57.90625 9.515625 50.796875 4.046875 
Q 43.703125 -1.421875 29.984375 -1.421875 
Q 24.8125 -1.421875 18.96875 -0.25 
Q 13.140625 0.921875 6.890625 3.21875 
L 6.890625 13.375 
Q 12.890625 10.015625 18.65625 8.296875 
Q 24.421875 6.59375 29.984375 6.59375 
Q 38.421875 6.59375 43.015625 9.90625 
Q 47.609375 13.234375 47.609375 19.390625 
Q 47.609375 24.75 44.3125 27.78125 
Q 41.015625 30.8125 33.5 32.328125 
L 27.484375 33.5 
Q 16.453125 35.6875 11.515625 40.375 
Q 6.59375 45.0625 6.59375 53.421875 
Q 6.59375 63.09375 13.40625 68.65625 
Q 20.21875 74.21875 32.171875 74.21875 
Q 37.3125 74.21875 42.625 73.28125 
Q 47.953125 72.359375 53.515625 70.515625 
z
" id="DejaVuSans-83"/>
     <path d="M 14.796875 27.296875 
Q 14.796875 17.390625 18.875 11.75 
Q 22.953125 6.109375 30.078125 6.109375 
Q 37.203125 6.109375 41.296875 11.75 
Q 45.40625 17.390625 45.40625 27.296875 
Q 45.40625 37.203125 41.296875 42.84375 
Q 37.203125 48.484375 30.078125 48.484375 
Q 22.953125 48.484375 18.875 42.84375 
Q 14.796875 37.203125 14.796875 27.296875 
z
M 45.40625 8.203125 
Q 42.578125 3.328125 38.25 0.953125 
Q 33.9375 -1.421875 27.875 -1.421875 
Q 17.96875 -1.421875 11.734375 6.484375 
Q 5.515625 14.40625 5.515625 27.296875 
Q 5.515625 40.1875 11.734375 48.09375 
Q 17.96875 56 27.875 56 
Q 33.9375 56 38.25 53.625 
Q 42.578125 51.265625 45.40625 46.390625 
L 45.40625 54.6875 
L 54.390625 54.6875 
L 54.390625 -20.796875 
L 45.40625 -20.796875 
z
" id="DejaVuSans-113"/>
     <path d="M 48.78125 52.59375 
L 48.78125 44.1875 
Q 44.96875 46.296875 41.140625 47.34375 
Q 37.3125 48.390625 33.40625 48.390625 
Q 24.65625 48.390625 19.8125 42.84375 
Q 14.984375 37.3125 14.984375 27.296875 
Q 14.984375 17.28125 19.8125 11.734375 
Q 24.65625 6.203125 33.40625 6.203125 
Q 37.3125 6.203125 41.140625 7.25 
Q 44.96875 8.296875 48.78125 10.40625 
L 48.78125 2.09375 
Q 45.015625 0.34375 40.984375 -0.53125 
Q 36.96875 -1.421875 32.421875 -1.421875 
Q 20.0625 -1.421875 12.78125 6.34375 
Q 5.515625 14.109375 5.515625 27.296875 
Q 5.515625 40.671875 12.859375 48.328125 
Q 20.21875 56 33.015625 56 
Q 37.15625 56 41.109375 55.140625 
Q 45.0625 54.296875 48.78125 52.59375 
z
" id="DejaVuSans-99"/>
    </defs>
    <g transform="translate(386.724375 19.3575)scale(0.16 -0.16)">
     <use xlink:href="#DejaVuSans-70"/>
     <use x="57.378906" xlink:href="#DejaVuSans-97"/>
     <use x="118.658203" xlink:href="#DejaVuSans-115"/>
     <use x="170.757812" xlink:href="#DejaVuSans-116"/>
     <use x="209.966797" xlink:href="#DejaVuSans-81"/>
     <use x="288.677734" xlink:href="#DejaVuSans-67"/>
     <use x="358.501953" xlink:href="#DejaVuSans-58"/>
     <use x="392.193359" xlink:href="#DejaVuSans-32"/>
     <use x="423.980469" xlink:href="#DejaVuSans-80"/>
     <use x="484.236328" xlink:href="#DejaVuSans-101"/>
     <use x="545.759766" xlink:href="#DejaVuSans-114"/>
     <use x="586.873047" xlink:href="#DejaVuSans-32"/>
     <use x="618.660156" xlink:href="#DejaVuSans-83"/>
     <use x="682.136719" xlink:href="#DejaVuSans-101"/>
     <use x="743.660156" xlink:href="#DejaVuSans-113"/>
     <use x="807.136719" xlink:href="#DejaVuSans-117"/>
     <use x="870.515625" xlink:href="#DejaVuSans-101"/>
     <use x="932.039062" xlink:href="#DejaVuSans-110"/>
     <use x="995.417969" xlink:href="#DejaVuSans-99"/>
     <use x="1050.398438" xlink:href="#DejaVuSans-101"/>
     <use x="1111.921875" xlink:href="#DejaVuSans-32"/>
     <use x="1143.708984" xlink:href="#DejaVuSans-71"/>
     <use x="1221.199219" xlink:href="#DejaVuSans-67"/>
     <use x="1291.023438" xlink:href="#DejaVuSans-32"/>
     <use x="1322.810547" xlink:href="#DejaVuSans-67"/>
     <use x="1392.634766" xlink:href="#DejaVuSans-111"/>
     <use x="1453.816406" xlink:href="#DejaVuSans-110"/>
     <use x="1517.195312" xlink:href="#DejaVuSans-116"/>
     <use x="1556.404297" xlink:href="#DejaVuSans-101"/>
     <use x="1617.927734" xlink:href="#DejaVuSans-110"/>
     <use x="1681.306641" xlink:href="#DejaVuSans-116"/>
    </g>
   </g>
   <g id="legend_1">
    <g id="line2d_14">
     <path d="M 70.708125 315.455394 
L 86.708125 315.455394 
" style="fill:none;stroke:#f0ad4e;stroke-linecap:square;"/>
    </g>
    <g id="line2d_15"/>
    <g id="text_18">
     <!-- Psq-CGal_005-Ex1-4A-ssl-1-1.clmp.r1 -->
     <defs>
      <path d="M 4.890625 31.390625 
L 31.203125 31.390625 
L 31.203125 23.390625 
L 4.890625 23.390625 
z
" id="DejaVuSans-45"/>
      <path d="M 9.421875 75.984375 
L 18.40625 75.984375 
L 18.40625 0 
L 9.421875 0 
z
" id="DejaVuSans-108"/>
      <path d="M 50.984375 -16.609375 
L 50.984375 -23.578125 
L -0.984375 -23.578125 
L -0.984375 -16.609375 
z
" id="DejaVuSans-95"/>
      <path d="M 9.8125 72.90625 
L 55.90625 72.90625 
L 55.90625 64.59375 
L 19.671875 64.59375 
L 19.671875 43.015625 
L 54.390625 43.015625 
L 54.390625 34.71875 
L 19.671875 34.71875 
L 19.671875 8.296875 
L 56.78125 8.296875 
L 56.78125 0 
L 9.8125 0 
z
" id="DejaVuSans-69"/>
      <path d="M 54.890625 54.6875 
L 35.109375 28.078125 
L 55.90625 0 
L 45.3125 0 
L 29.390625 21.484375 
L 13.484375 0 
L 2.875 0 
L 24.125 28.609375 
L 4.6875 54.6875 
L 15.28125 54.6875 
L 29.78125 35.203125 
L 44.28125 54.6875 
z
" id="DejaVuSans-120"/>
      <path d="M 34.1875 63.1875 
L 20.796875 26.90625 
L 47.609375 26.90625 
z
M 28.609375 72.90625 
L 39.796875 72.90625 
L 67.578125 0 
L 57.328125 0 
L 50.6875 18.703125 
L 17.828125 18.703125 
L 11.1875 0 
L 0.78125 0 
z
" id="DejaVuSans-65"/>
      <path d="M 10.6875 12.40625 
L 21 12.40625 
L 21 0 
L 10.6875 0 
z
" id="DejaVuSans-46"/>
      <path d="M 52 44.1875 
Q 55.375 50.25 60.0625 53.125 
Q 64.75 56 71.09375 56 
Q 79.640625 56 84.28125 50.015625 
Q 88.921875 44.046875 88.921875 33.015625 
L 88.921875 0 
L 79.890625 0 
L 79.890625 32.71875 
Q 79.890625 40.578125 77.09375 44.375 
Q 74.3125 48.1875 68.609375 48.1875 
Q 61.625 48.1875 57.5625 43.546875 
Q 53.515625 38.921875 53.515625 30.90625 
L 53.515625 0 
L 44.484375 0 
L 44.484375 32.71875 
Q 44.484375 40.625 41.703125 44.40625 
Q 38.921875 48.1875 33.109375 48.1875 
Q 26.21875 48.1875 22.15625 43.53125 
Q 18.109375 38.875 18.109375 30.90625 
L 18.109375 0 
L 9.078125 0 
L 9.078125 54.6875 
L 18.109375 54.6875 
L 18.109375 46.1875 
Q 21.1875 51.21875 25.484375 53.609375 
Q 29.78125 56 35.6875 56 
Q 41.65625 56 45.828125 52.96875 
Q 50 49.953125 52 44.1875 
z
" id="DejaVuSans-109"/>
      <path d="M 18.109375 8.203125 
L 18.109375 -20.796875 
L 9.078125 -20.796875 
L 9.078125 54.6875 
L 18.109375 54.6875 
L 18.109375 46.390625 
Q 20.953125 51.265625 25.265625 53.625 
Q 29.59375 56 35.59375 56 
Q 45.5625 56 51.78125 48.09375 
Q 58.015625 40.1875 58.015625 27.296875 
Q 58.015625 14.40625 51.78125 6.484375 
Q 45.5625 -1.421875 35.59375 -1.421875 
Q 29.59375 -1.421875 25.265625 0.953125 
Q 20.953125 3.328125 18.109375 8.203125 
z
M 48.6875 27.296875 
Q 48.6875 37.203125 44.609375 42.84375 
Q 40.53125 48.484375 33.40625 48.484375 
Q 26.265625 48.484375 22.1875 42.84375 
Q 18.109375 37.203125 18.109375 27.296875 
Q 18.109375 17.390625 22.1875 11.75 
Q 26.265625 6.109375 33.40625 6.109375 
Q 40.53125 6.109375 44.609375 11.75 
Q 48.6875 17.390625 48.6875 27.296875 
z
" id="DejaVuSans-112"/>
     </defs>
     <g transform="translate(93.108125 318.255394)scale(0.08 -0.08)">
      <use xlink:href="#DejaVuSans-80"/>
      <use x="60.287109" xlink:href="#DejaVuSans-115"/>
      <use x="112.386719" xlink:href="#DejaVuSans-113"/>
      <use x="175.863281" xlink:href="#DejaVuSans-45"/>
      <use x="211.947266" xlink:href="#DejaVuSans-67"/>
      <use x="281.771484" xlink:href="#DejaVuSans-71"/>
      <use x="359.261719" xlink:href="#DejaVuSans-97"/>
      <use x="420.541016" xlink:href="#DejaVuSans-108"/>
      <use x="448.324219" xlink:href="#DejaVuSans-95"/>
      <use x="498.324219" xlink:href="#DejaVuSans-48"/>
      <use x="561.947266" xlink:href="#DejaVuSans-48"/>
      <use x="625.570312" xlink:href="#DejaVuSans-53"/>
      <use x="689.193359" xlink:href="#DejaVuSans-45"/>
      <use x="725.277344" xlink:href="#DejaVuSans-69"/>
      <use x="788.460938" xlink:href="#DejaVuSans-120"/>
      <use x="847.640625" xlink:href="#DejaVuSans-49"/>
      <use x="911.263672" xlink:href="#DejaVuSans-45"/>
      <use x="947.347656" xlink:href="#DejaVuSans-52"/>
      <use x="1010.970703" xlink:href="#DejaVuSans-65"/>
      <use x="1079.347656" xlink:href="#DejaVuSans-45"/>
      <use x="1115.431641" xlink:href="#DejaVuSans-115"/>
      <use x="1167.53125" xlink:href="#DejaVuSans-115"/>
      <use x="1219.630859" xlink:href="#DejaVuSans-108"/>
      <use x="1247.414062" xlink:href="#DejaVuSans-45"/>
      <use x="1283.498047" xlink:href="#DejaVuSans-49"/>
      <use x="1347.121094" xlink:href="#DejaVuSans-45"/>
      <use x="1383.205078" xlink:href="#DejaVuSans-49"/>
      <use x="1446.828125" xlink:href="#DejaVuSans-46"/>
      <use x="1478.615234" xlink:href="#DejaVuSans-99"/>
      <use x="1533.595703" xlink:href="#DejaVuSans-108"/>
      <use x="1561.378906" xlink:href="#DejaVuSans-109"/>
      <use x="1658.791016" xlink:href="#DejaVuSans-112"/>
      <use x="1722.267578" xlink:href="#DejaVuSans-46"/>
      <use x="1754.054688" xlink:href="#DejaVuSans-114"/>
      <use x="1795.167969" xlink:href="#DejaVuSans-49"/>
     </g>
    </g>
    <g id="line2d_16">
     <path d="M 316.113125 315.455394 
L 332.113125 315.455394 
" style="fill:none;stroke:#f0ad4e;stroke-linecap:square;"/>
    </g>
    <g id="line2d_17"/>
    <g id="text_19">
     <!-- Psq-CGal_005-Ex1-4A-ssl-1-1.clmp.r2 -->
     <g transform="translate(338.513125 318.255394)scale(0.08 -0.08)">
      <use xlink:href="#DejaVuSans-80"/>
      <use x="60.287109" xlink:href="#DejaVuSans-115"/>
      <use x="112.386719" xlink:href="#DejaVuSans-113"/>
      <use x="175.863281" xlink:href="#DejaVuSans-45"/>
      <use x="211.947266" xlink:href="#DejaVuSans-67"/>
      <use x="281.771484" xlink:href="#DejaVuSans-71"/>
      <use x="359.261719" xlink:href="#DejaVuSans-97"/>
      <use x="420.541016" xlink:href="#DejaVuSans-108"/>
      <use x="448.324219" xlink:href="#DejaVuSans-95"/>
      <use x="498.324219" xlink:href="#DejaVuSans-48"/>
      <use x="561.947266" xlink:href="#DejaVuSans-48"/>
      <use x="625.570312" xlink:href="#DejaVuSans-53"/>
      <use x="689.193359" xlink:href="#DejaVuSans-45"/>
      <use x="725.277344" xlink:href="#DejaVuSans-69"/>
      <use x="788.460938" xlink:href="#DejaVuSans-120"/>
      <use x="847.640625" xlink:href="#DejaVuSans-49"/>
      <use x="911.263672" xlink:href="#DejaVuSans-45"/>
      <use x="947.347656" xlink:href="#DejaVuSans-52"/>
      <use x="1010.970703" xlink:href="#DejaVuSans-65"/>
      <use x="1079.347656" xlink:href="#DejaVuSans-45"/>
      <use x="1115.431641" xlink:href="#DejaVuSans-115"/>
      <use x="1167.53125" xlink:href="#DejaVuSans-115"/>
      <use x="1219.630859" xlink:href="#DejaVuSans-108"/>
      <use x="1247.414062" xlink:href="#DejaVuSans-45"/>
      <use x="1283.498047" xlink:href="#DejaVuSans-49"/>
      <use x="1347.121094" xlink:href="#DejaVuSans-45"/>
      <use x="1383.205078" xlink:href="#DejaVuSans-49"/>
      <use x="1446.828125" xlink:href="#DejaVuSans-46"/>
      <use x="1478.615234" xlink:href="#DejaVuSans-99"/>
      <use x="1533.595703" xlink:href="#DejaVuSans-108"/>
      <use x="1561.378906" xlink:href="#DejaVuSans-109"/>
      <use x="1658.791016" xlink:href="#DejaVuSans-112"/>
      <use x="1722.267578" xlink:href="#DejaVuSans-46"/>
      <use x="1754.054688" xlink:href="#DejaVuSans-114"/>
      <use x="1795.167969" xlink:href="#DejaVuSans-50"/>
     </g>
    </g>
    <g id="line2d_18">
     <path d="M 561.518125 315.455394 
L 577.518125 315.455394 
" style="fill:none;stroke:#f0ad4e;stroke-linecap:square;"/>
    </g>
    <g id="line2d_19"/>
    <g id="text_20">
     <!-- Psq-CGal_005-Ex1-5A-ssl-1-1.clmp.r1 -->
     <g transform="translate(583.918125 318.255394)scale(0.08 -0.08)">
      <use xlink:href="#DejaVuSans-80"/>
      <use x="60.287109" xlink:href="#DejaVuSans-115"/>
      <use x="112.386719" xlink:href="#DejaVuSans-113"/>
      <use x="175.863281" xlink:href="#DejaVuSans-45"/>
      <use x="211.947266" xlink:href="#DejaVuSans-67"/>
      <use x="281.771484" xlink:href="#DejaVuSans-71"/>
      <use x="359.261719" xlink:href="#DejaVuSans-97"/>
      <use x="420.541016" xlink:href="#DejaVuSans-108"/>
      <use x="448.324219" xlink:href="#DejaVuSans-95"/>
      <use x="498.324219" xlink:href="#DejaVuSans-48"/>
      <use x="561.947266" xlink:href="#DejaVuSans-48"/>
      <use x="625.570312" xlink:href="#DejaVuSans-53"/>
      <use x="689.193359" xlink:href="#DejaVuSans-45"/>
      <use x="725.277344" xlink:href="#DejaVuSans-69"/>
      <use x="788.460938" xlink:href="#DejaVuSans-120"/>
      <use x="847.640625" xlink:href="#DejaVuSans-49"/>
      <use x="911.263672" xlink:href="#DejaVuSans-45"/>
      <use x="947.347656" xlink:href="#DejaVuSans-53"/>
      <use x="1010.970703" xlink:href="#DejaVuSans-65"/>
      <use x="1079.347656" xlink:href="#DejaVuSans-45"/>
      <use x="1115.431641" xlink:href="#DejaVuSans-115"/>
      <use x="1167.53125" xlink:href="#DejaVuSans-115"/>
      <use x="1219.630859" xlink:href="#DejaVuSans-108"/>
      <use x="1247.414062" xlink:href="#DejaVuSans-45"/>
      <use x="1283.498047" xlink:href="#DejaVuSans-49"/>
      <use x="1347.121094" xlink:href="#DejaVuSans-45"/>
      <use x="1383.205078" xlink:href="#DejaVuSans-49"/>
      <use x="1446.828125" xlink:href="#DejaVuSans-46"/>
      <use x="1478.615234" xlink:href="#DejaVuSans-99"/>
      <use x="1533.595703" xlink:href="#DejaVuSans-108"/>
      <use x="1561.378906" xlink:href="#DejaVuSans-109"/>
      <use x="1658.791016" xlink:href="#DejaVuSans-112"/>
      <use x="1722.267578" xlink:href="#DejaVuSans-46"/>
      <use x="1754.054688" xlink:href="#DejaVuSans-114"/>
      <use x="1795.167969" xlink:href="#DejaVuSans-49"/>
     </g>
    </g>
    <g id="line2d_20">
     <path d="M 806.923125 315.455394 
L 822.923125 315.455394 
" style="fill:none;stroke:#f0ad4e;stroke-linecap:square;"/>
    </g>
    <g id="line2d_21"/>
    <g id="text_21">
     <!-- Psq-CGal_005-Ex1-5A-ssl-1-1.clmp.r2 -->
     <g transform="translate(829.323125 318.255394)scale(0.08 -0.08)">
      <use xlink:href="#DejaVuSans-80"/>
      <use x="60.287109" xlink:href="#DejaVuSans-115"/>
      <use x="112.386719" xlink:href="#DejaVuSans-113"/>
      <use x="175.863281" xlink:href="#DejaVuSans-45"/>
      <use x="211.947266" xlink:href="#DejaVuSans-67"/>
      <use x="281.771484" xlink:href="#DejaVuSans-71"/>
      <use x="359.261719" xlink:href="#DejaVuSans-97"/>
      <use x="420.541016" xlink:href="#DejaVuSans-108"/>
      <use x="448.324219" xlink:href="#DejaVuSans-95"/>
      <use x="498.324219" xlink:href="#DejaVuSans-48"/>
      <use x="561.947266" xlink:href="#DejaVuSans-48"/>
      <use x="625.570312" xlink:href="#DejaVuSans-53"/>
      <use x="689.193359" xlink:href="#DejaVuSans-45"/>
      <use x="725.277344" xlink:href="#DejaVuSans-69"/>
      <use x="788.460938" xlink:href="#DejaVuSans-120"/>
      <use x="847.640625" xlink:href="#DejaVuSans-49"/>
      <use x="911.263672" xlink:href="#DejaVuSans-45"/>
      <use x="947.347656" xlink:href="#DejaVuSans-53"/>
      <use x="1010.970703" xlink:href="#DejaVuSans-65"/>
      <use x="1079.347656" xlink:href="#DejaVuSans-45"/>
      <use x="1115.431641" xlink:href="#DejaVuSans-115"/>
      <use x="1167.53125" xlink:href="#DejaVuSans-115"/>
      <use x="1219.630859" xlink:href="#DejaVuSans-108"/>
      <use x="1247.414062" xlink:href="#DejaVuSans-45"/>
      <use x="1283.498047" xlink:href="#DejaVuSans-49"/>
      <use x="1347.121094" xlink:href="#DejaVuSans-45"/>
      <use x="1383.205078" xlink:href="#DejaVuSans-49"/>
      <use x="1446.828125" xlink:href="#DejaVuSans-46"/>
      <use x="1478.615234" xlink:href="#DejaVuSans-99"/>
      <use x="1533.595703" xlink:href="#DejaVuSans-108"/>
      <use x="1561.378906" xlink:href="#DejaVuSans-109"/>
      <use x="1658.791016" xlink:href="#DejaVuSans-112"/>
      <use x="1722.267578" xlink:href="#DejaVuSans-46"/>
      <use x="1754.054688" xlink:href="#DejaVuSans-114"/>
      <use x="1795.167969" xlink:href="#DejaVuSans-50"/>
     </g>
    </g>
   </g>
  </g>
 </g>
 <defs>
  <clipPath id="p29d519d889">
   <rect height="242.5072" width="921.715" x="63.508125" y="31.48286"/>
  </clipPath>
 </defs>
</svg>
