<?xml version="1.0" encoding="utf-8" standalone="no"?>
<!DOCTYPE svg PUBLIC "-//W3C//DTD SVG 1.1//EN"
  "http://www.w3.org/Graphics/SVG/1.1/DTD/svg11.dtd">
<!-- Created with matplotlib (https://matplotlib.org/) -->
<svg height="330.541644pt" version="1.1" viewBox="0 0 1000.058125 330.541644" width="1000.058125pt" xmlns="http://www.w3.org/2000/svg" xmlns:xlink="http://www.w3.org/1999/xlink">
 <defs>
  <style type="text/css">
*{stroke-linecap:butt;stroke-linejoin:round;}
  </style>
 </defs>
 <g id="figure_1">
  <g id="axes_1">
   <g id="patch_1">
    <path d="M 63.508125 273.99006 
L 985.223125 273.99006 
L 985.223125 31.48286 
L 63.508125 31.48286 
z
" style="fill:#ffffff;"/>
   </g>
   <g id="matplotlib.axis_1">
    <g id="xtick_1">
     <g id="text_1">
      <!-- 0 -->
      <defs>
       <path d="M 31.78125 66.40625 
Q 24.171875 66.40625 20.328125 58.90625 
Q 16.5 51.421875 16.5 36.375 
Q 16.5 21.390625 20.328125 13.890625 
Q 24.171875 6.390625 31.78125 6.390625 
Q 39.453125 6.390625 43.28125 13.890625 
Q 47.125 21.390625 47.125 36.375 
Q 47.125 51.421875 43.28125 58.90625 
Q 39.453125 66.40625 31.78125 66.40625 
z
M 31.78125 74.21875 
Q 44.046875 74.21875 50.515625 64.515625 
Q 56.984375 54.828125 56.984375 36.375 
Q 56.984375 17.96875 50.515625 8.265625 
Q 44.046875 -1.421875 31.78125 -1.421875 
Q 19.53125 -1.421875 13.0625 8.265625 
Q 6.59375 17.96875 6.59375 36.375 
Q 6.59375 54.828125 13.0625 64.515625 
Q 19.53125 74.21875 31.78125 74.21875 
z
" id="DejaVuSans-48"/>
      </defs>
      <g transform="translate(60.963125 287.06881)scale(0.08 -0.08)">
       <use xlink:href="#DejaVuSans-48"/>
      </g>
     </g>
    </g>
    <g id="xtick_2">
     <g id="text_2">
      <!-- 20 -->
      <defs>
       <path d="M 19.1875 8.296875 
L 53.609375 8.296875 
L 53.609375 0 
L 7.328125 0 
L 7.328125 8.296875 
Q 12.9375 14.109375 22.625 23.890625 
Q 32.328125 33.6875 34.8125 36.53125 
Q 39.546875 41.84375 41.421875 45.53125 
Q 43.3125 49.21875 43.3125 52.78125 
Q 43.3125 58.59375 39.234375 62.25 
Q 35.15625 65.921875 28.609375 65.921875 
Q 23.96875 65.921875 18.8125 64.3125 
Q 13.671875 62.703125 7.8125 59.421875 
L 7.8125 69.390625 
Q 13.765625 71.78125 18.9375 73 
Q 24.125 74.21875 28.421875 74.21875 
Q 39.75 74.21875 46.484375 68.546875 
Q 53.21875 62.890625 53.21875 53.421875 
Q 53.21875 48.921875 51.53125 44.890625 
Q 49.859375 40.875 45.40625 35.40625 
Q 44.1875 33.984375 37.640625 27.21875 
Q 31.109375 20.453125 19.1875 8.296875 
z
" id="DejaVuSans-50"/>
      </defs>
      <g transform="translate(242.761125 287.06881)scale(0.08 -0.08)">
       <use xlink:href="#DejaVuSans-50"/>
       <use x="63.623047" xlink:href="#DejaVuSans-48"/>
      </g>
     </g>
    </g>
    <g id="xtick_3">
     <g id="text_3">
      <!-- 40 -->
      <defs>
       <path d="M 37.796875 64.3125 
L 12.890625 25.390625 
L 37.796875 25.390625 
z
M 35.203125 72.90625 
L 47.609375 72.90625 
L 47.609375 25.390625 
L 58.015625 25.390625 
L 58.015625 17.1875 
L 47.609375 17.1875 
L 47.609375 0 
L 37.796875 0 
L 37.796875 17.1875 
L 4.890625 17.1875 
L 4.890625 26.703125 
z
" id="DejaVuSans-52"/>
      </defs>
      <g transform="translate(427.104125 287.06881)scale(0.08 -0.08)">
       <use xlink:href="#DejaVuSans-52"/>
       <use x="63.623047" xlink:href="#DejaVuSans-48"/>
      </g>
     </g>
    </g>
    <g id="xtick_4">
     <g id="text_4">
      <!-- 60 -->
      <defs>
       <path d="M 33.015625 40.375 
Q 26.375 40.375 22.484375 35.828125 
Q 18.609375 31.296875 18.609375 23.390625 
Q 18.609375 15.53125 22.484375 10.953125 
Q 26.375 6.390625 33.015625 6.390625 
Q 39.65625 6.390625 43.53125 10.953125 
Q 47.40625 15.53125 47.40625 23.390625 
Q 47.40625 31.296875 43.53125 35.828125 
Q 39.65625 40.375 33.015625 40.375 
z
M 52.59375 71.296875 
L 52.59375 62.3125 
Q 48.875 64.0625 45.09375 64.984375 
Q 41.3125 65.921875 37.59375 65.921875 
Q 27.828125 65.921875 22.671875 59.328125 
Q 17.53125 52.734375 16.796875 39.40625 
Q 19.671875 43.65625 24.015625 45.921875 
Q 28.375 48.1875 33.59375 48.1875 
Q 44.578125 48.1875 50.953125 41.515625 
Q 57.328125 34.859375 57.328125 23.390625 
Q 57.328125 12.15625 50.6875 5.359375 
Q 44.046875 -1.421875 33.015625 -1.421875 
Q 20.359375 -1.421875 13.671875 8.265625 
Q 6.984375 17.96875 6.984375 36.375 
Q 6.984375 53.65625 15.1875 63.9375 
Q 23.390625 74.21875 37.203125 74.21875 
Q 40.921875 74.21875 44.703125 73.484375 
Q 48.484375 72.75 52.59375 71.296875 
z
" id="DejaVuSans-54"/>
      </defs>
      <g transform="translate(611.447125 287.06881)scale(0.08 -0.08)">
       <use xlink:href="#DejaVuSans-54"/>
       <use x="63.623047" xlink:href="#DejaVuSans-48"/>
      </g>
     </g>
    </g>
    <g id="xtick_5">
     <g id="text_5">
      <!-- 80 -->
      <defs>
       <path d="M 31.78125 34.625 
Q 24.75 34.625 20.71875 30.859375 
Q 16.703125 27.09375 16.703125 20.515625 
Q 16.703125 13.921875 20.71875 10.15625 
Q 24.75 6.390625 31.78125 6.390625 
Q 38.8125 6.390625 42.859375 10.171875 
Q 46.921875 13.96875 46.921875 20.515625 
Q 46.921875 27.09375 42.890625 30.859375 
Q 38.875 34.625 31.78125 34.625 
z
M 21.921875 38.8125 
Q 15.578125 40.375 12.03125 44.71875 
Q 8.5 49.078125 8.5 55.328125 
Q 8.5 64.0625 14.71875 69.140625 
Q 20.953125 74.21875 31.78125 74.21875 
Q 42.671875 74.21875 48.875 69.140625 
Q 55.078125 64.0625 55.078125 55.328125 
Q 55.078125 49.078125 51.53125 44.71875 
Q 48 40.375 41.703125 38.8125 
Q 48.828125 37.15625 52.796875 32.3125 
Q 56.78125 27.484375 56.78125 20.515625 
Q 56.78125 9.90625 50.3125 4.234375 
Q 43.84375 -1.421875 31.78125 -1.421875 
Q 19.734375 -1.421875 13.25 4.234375 
Q 6.78125 9.90625 6.78125 20.515625 
Q 6.78125 27.484375 10.78125 32.3125 
Q 14.796875 37.15625 21.921875 38.8125 
z
M 18.3125 54.390625 
Q 18.3125 48.734375 21.84375 45.5625 
Q 25.390625 42.390625 31.78125 42.390625 
Q 38.140625 42.390625 41.71875 45.5625 
Q 45.3125 48.734375 45.3125 54.390625 
Q 45.3125 60.0625 41.71875 63.234375 
Q 38.140625 66.40625 31.78125 66.40625 
Q 25.390625 66.40625 21.84375 63.234375 
Q 18.3125 60.0625 18.3125 54.390625 
z
" id="DejaVuSans-56"/>
      </defs>
      <g transform="translate(795.790125 287.06881)scale(0.08 -0.08)">
       <use xlink:href="#DejaVuSans-56"/>
       <use x="63.623047" xlink:href="#DejaVuSans-48"/>
      </g>
     </g>
    </g>
    <g id="xtick_6">
     <g id="text_6">
      <!-- 100 -->
      <defs>
       <path d="M 12.40625 8.296875 
L 28.515625 8.296875 
L 28.515625 63.921875 
L 10.984375 60.40625 
L 10.984375 69.390625 
L 28.421875 72.90625 
L 38.28125 72.90625 
L 38.28125 8.296875 
L 54.390625 8.296875 
L 54.390625 0 
L 12.40625 0 
z
" id="DejaVuSans-49"/>
      </defs>
      <g transform="translate(977.588125 287.06881)scale(0.08 -0.08)">
       <use xlink:href="#DejaVuSans-49"/>
       <use x="63.623047" xlink:href="#DejaVuSans-48"/>
       <use x="127.246094" xlink:href="#DejaVuSans-48"/>
      </g>
     </g>
    </g>
    <g id="text_7">
     <!-- % GC -->
     <defs>
      <path d="M 72.703125 32.078125 
Q 68.453125 32.078125 66.03125 28.46875 
Q 63.625 24.859375 63.625 18.40625 
Q 63.625 12.0625 66.03125 8.421875 
Q 68.453125 4.78125 72.703125 4.78125 
Q 76.859375 4.78125 79.265625 8.421875 
Q 81.6875 12.0625 81.6875 18.40625 
Q 81.6875 24.8125 79.265625 28.4375 
Q 76.859375 32.078125 72.703125 32.078125 
z
M 72.703125 38.28125 
Q 80.421875 38.28125 84.953125 32.90625 
Q 89.5 27.546875 89.5 18.40625 
Q 89.5 9.28125 84.9375 3.921875 
Q 80.375 -1.421875 72.703125 -1.421875 
Q 64.890625 -1.421875 60.34375 3.921875 
Q 55.8125 9.28125 55.8125 18.40625 
Q 55.8125 27.59375 60.375 32.9375 
Q 64.9375 38.28125 72.703125 38.28125 
z
M 22.3125 68.015625 
Q 18.109375 68.015625 15.6875 64.375 
Q 13.28125 60.75 13.28125 54.390625 
Q 13.28125 47.953125 15.671875 44.328125 
Q 18.0625 40.71875 22.3125 40.71875 
Q 26.5625 40.71875 28.96875 44.328125 
Q 31.390625 47.953125 31.390625 54.390625 
Q 31.390625 60.6875 28.953125 64.34375 
Q 26.515625 68.015625 22.3125 68.015625 
z
M 66.40625 74.21875 
L 74.21875 74.21875 
L 28.609375 -1.421875 
L 20.796875 -1.421875 
z
M 22.3125 74.21875 
Q 30.03125 74.21875 34.609375 68.875 
Q 39.203125 63.53125 39.203125 54.390625 
Q 39.203125 45.171875 34.640625 39.84375 
Q 30.078125 34.515625 22.3125 34.515625 
Q 14.546875 34.515625 10.03125 39.859375 
Q 5.515625 45.21875 5.515625 54.390625 
Q 5.515625 63.484375 10.046875 68.84375 
Q 14.59375 74.21875 22.3125 74.21875 
z
" id="DejaVuSans-37"/>
      <path id="DejaVuSans-32"/>
      <path d="M 59.515625 10.40625 
L 59.515625 29.984375 
L 43.40625 29.984375 
L 43.40625 38.09375 
L 69.28125 38.09375 
L 69.28125 6.78125 
Q 63.578125 2.734375 56.6875 0.65625 
Q 49.8125 -1.421875 42 -1.421875 
Q 24.90625 -1.421875 15.25 8.5625 
Q 5.609375 18.5625 5.609375 36.375 
Q 5.609375 54.25 15.25 64.234375 
Q 24.90625 74.21875 42 74.21875 
Q 49.125 74.21875 55.546875 72.453125 
Q 61.96875 70.703125 67.390625 67.28125 
L 67.390625 56.78125 
Q 61.921875 61.421875 55.765625 63.765625 
Q 49.609375 66.109375 42.828125 66.109375 
Q 29.4375 66.109375 22.71875 58.640625 
Q 16.015625 51.171875 16.015625 36.375 
Q 16.015625 21.625 22.71875 14.15625 
Q 29.4375 6.6875 42.828125 6.6875 
Q 48.046875 6.6875 52.140625 7.59375 
Q 56.25 8.5 59.515625 10.40625 
z
" id="DejaVuSans-71"/>
      <path d="M 64.40625 67.28125 
L 64.40625 56.890625 
Q 59.421875 61.53125 53.78125 63.8125 
Q 48.140625 66.109375 41.796875 66.109375 
Q 29.296875 66.109375 22.65625 58.46875 
Q 16.015625 50.828125 16.015625 36.375 
Q 16.015625 21.96875 22.65625 14.328125 
Q 29.296875 6.6875 41.796875 6.6875 
Q 48.140625 6.6875 53.78125 8.984375 
Q 59.421875 11.28125 64.40625 15.921875 
L 64.40625 5.609375 
Q 59.234375 2.09375 53.4375 0.328125 
Q 47.65625 -1.421875 41.21875 -1.421875 
Q 24.65625 -1.421875 15.125 8.703125 
Q 5.609375 18.84375 5.609375 36.375 
Q 5.609375 53.953125 15.125 64.078125 
Q 24.65625 74.21875 41.21875 74.21875 
Q 47.75 74.21875 53.53125 72.484375 
Q 59.328125 70.75 64.40625 67.28125 
z
" id="DejaVuSans-67"/>
     </defs>
     <g transform="translate(510.660156 300.330997)scale(0.1 -0.1)">
      <use xlink:href="#DejaVuSans-37"/>
      <use x="95.019531" xlink:href="#DejaVuSans-32"/>
      <use x="126.806641" xlink:href="#DejaVuSans-71"/>
      <use x="204.296875" xlink:href="#DejaVuSans-67"/>
     </g>
    </g>
   </g>
   <g id="matplotlib.axis_2">
    <g id="ytick_1">
     <g id="line2d_1">
      <path clip-path="url(#pde12136b9f)" d="M 63.508125 273.99006 
L 985.223125 273.99006 
" style="fill:none;stroke:#dedede;stroke-linecap:square;"/>
     </g>
     <g id="text_8">
      <!-- 0 -->
      <g transform="translate(51.418125 277.029435)scale(0.08 -0.08)">
       <use xlink:href="#DejaVuSans-48"/>
      </g>
     </g>
    </g>
    <g id="ytick_2">
     <g id="line2d_2">
      <path clip-path="url(#pde12136b9f)" d="M 63.508125 246.001947 
L 985.223125 246.001947 
" style="fill:none;stroke:#dedede;stroke-linecap:square;"/>
     </g>
     <g id="text_9">
      <!-- 200000 -->
      <g transform="translate(25.968125 249.041322)scale(0.08 -0.08)">
       <use xlink:href="#DejaVuSans-50"/>
       <use x="63.623047" xlink:href="#DejaVuSans-48"/>
       <use x="127.246094" xlink:href="#DejaVuSans-48"/>
       <use x="190.869141" xlink:href="#DejaVuSans-48"/>
       <use x="254.492188" xlink:href="#DejaVuSans-48"/>
       <use x="318.115234" xlink:href="#DejaVuSans-48"/>
      </g>
     </g>
    </g>
    <g id="ytick_3">
     <g id="line2d_3">
      <path clip-path="url(#pde12136b9f)" d="M 63.508125 218.013834 
L 985.223125 218.013834 
" style="fill:none;stroke:#dedede;stroke-linecap:square;"/>
     </g>
     <g id="text_10">
      <!-- 400000 -->
      <g transform="translate(25.968125 221.053209)scale(0.08 -0.08)">
       <use xlink:href="#DejaVuSans-52"/>
       <use x="63.623047" xlink:href="#DejaVuSans-48"/>
       <use x="127.246094" xlink:href="#DejaVuSans-48"/>
       <use x="190.869141" xlink:href="#DejaVuSans-48"/>
       <use x="254.492188" xlink:href="#DejaVuSans-48"/>
       <use x="318.115234" xlink:href="#DejaVuSans-48"/>
      </g>
     </g>
    </g>
    <g id="ytick_4">
     <g id="line2d_4">
      <path clip-path="url(#pde12136b9f)" d="M 63.508125 190.025721 
L 985.223125 190.025721 
" style="fill:none;stroke:#dedede;stroke-linecap:square;"/>
     </g>
     <g id="text_11">
      <!-- 600000 -->
      <g transform="translate(25.968125 193.065096)scale(0.08 -0.08)">
       <use xlink:href="#DejaVuSans-54"/>
       <use x="63.623047" xlink:href="#DejaVuSans-48"/>
       <use x="127.246094" xlink:href="#DejaVuSans-48"/>
       <use x="190.869141" xlink:href="#DejaVuSans-48"/>
       <use x="254.492188" xlink:href="#DejaVuSans-48"/>
       <use x="318.115234" xlink:href="#DejaVuSans-48"/>
      </g>
     </g>
    </g>
    <g id="ytick_5">
     <g id="line2d_5">
      <path clip-path="url(#pde12136b9f)" d="M 63.508125 162.037608 
L 985.223125 162.037608 
" style="fill:none;stroke:#dedede;stroke-linecap:square;"/>
     </g>
     <g id="text_12">
      <!-- 800000 -->
      <g transform="translate(25.968125 165.076983)scale(0.08 -0.08)">
       <use xlink:href="#DejaVuSans-56"/>
       <use x="63.623047" xlink:href="#DejaVuSans-48"/>
       <use x="127.246094" xlink:href="#DejaVuSans-48"/>
       <use x="190.869141" xlink:href="#DejaVuSans-48"/>
       <use x="254.492188" xlink:href="#DejaVuSans-48"/>
       <use x="318.115234" xlink:href="#DejaVuSans-48"/>
      </g>
     </g>
    </g>
    <g id="ytick_6">
     <g id="line2d_6">
      <path clip-path="url(#pde12136b9f)" d="M 63.508125 134.049495 
L 985.223125 134.049495 
" style="fill:none;stroke:#dedede;stroke-linecap:square;"/>
     </g>
     <g id="text_13">
      <!-- 1000000 -->
      <g transform="translate(20.878125 137.08887)scale(0.08 -0.08)">
       <use xlink:href="#DejaVuSans-49"/>
       <use x="63.623047" xlink:href="#DejaVuSans-48"/>
       <use x="127.246094" xlink:href="#DejaVuSans-48"/>
       <use x="190.869141" xlink:href="#DejaVuSans-48"/>
       <use x="254.492188" xlink:href="#DejaVuSans-48"/>
       <use x="318.115234" xlink:href="#DejaVuSans-48"/>
       <use x="381.738281" xlink:href="#DejaVuSans-48"/>
      </g>
     </g>
    </g>
    <g id="ytick_7">
     <g id="line2d_7">
      <path clip-path="url(#pde12136b9f)" d="M 63.508125 106.061382 
L 985.223125 106.061382 
" style="fill:none;stroke:#dedede;stroke-linecap:square;"/>
     </g>
     <g id="text_14">
      <!-- 1200000 -->
      <g transform="translate(20.878125 109.100757)scale(0.08 -0.08)">
       <use xlink:href="#DejaVuSans-49"/>
       <use x="63.623047" xlink:href="#DejaVuSans-50"/>
       <use x="127.246094" xlink:href="#DejaVuSans-48"/>
       <use x="190.869141" xlink:href="#DejaVuSans-48"/>
       <use x="254.492188" xlink:href="#DejaVuSans-48"/>
       <use x="318.115234" xlink:href="#DejaVuSans-48"/>
       <use x="381.738281" xlink:href="#DejaVuSans-48"/>
      </g>
     </g>
    </g>
    <g id="ytick_8">
     <g id="line2d_8">
      <path clip-path="url(#pde12136b9f)" d="M 63.508125 78.073269 
L 985.223125 78.073269 
" style="fill:none;stroke:#dedede;stroke-linecap:square;"/>
     </g>
     <g id="text_15">
      <!-- 1400000 -->
      <g transform="translate(20.878125 81.112644)scale(0.08 -0.08)">
       <use xlink:href="#DejaVuSans-49"/>
       <use x="63.623047" xlink:href="#DejaVuSans-52"/>
       <use x="127.246094" xlink:href="#DejaVuSans-48"/>
       <use x="190.869141" xlink:href="#DejaVuSans-48"/>
       <use x="254.492188" xlink:href="#DejaVuSans-48"/>
       <use x="318.115234" xlink:href="#DejaVuSans-48"/>
       <use x="381.738281" xlink:href="#DejaVuSans-48"/>
      </g>
     </g>
    </g>
    <g id="ytick_9">
     <g id="line2d_9">
      <path clip-path="url(#pde12136b9f)" d="M 63.508125 50.085156 
L 985.223125 50.085156 
" style="fill:none;stroke:#dedede;stroke-linecap:square;"/>
     </g>
     <g id="text_16">
      <!-- 1600000 -->
      <g transform="translate(20.878125 53.124531)scale(0.08 -0.08)">
       <use xlink:href="#DejaVuSans-49"/>
       <use x="63.623047" xlink:href="#DejaVuSans-54"/>
       <use x="127.246094" xlink:href="#DejaVuSans-48"/>
       <use x="190.869141" xlink:href="#DejaVuSans-48"/>
       <use x="254.492188" xlink:href="#DejaVuSans-48"/>
       <use x="318.115234" xlink:href="#DejaVuSans-48"/>
       <use x="381.738281" xlink:href="#DejaVuSans-48"/>
      </g>
     </g>
    </g>
    <g id="text_17">
     <!-- Count -->
     <defs>
      <path d="M 30.609375 48.390625 
Q 23.390625 48.390625 19.1875 42.75 
Q 14.984375 37.109375 14.984375 27.296875 
Q 14.984375 17.484375 19.15625 11.84375 
Q 23.34375 6.203125 30.609375 6.203125 
Q 37.796875 6.203125 41.984375 11.859375 
Q 46.1875 17.53125 46.1875 27.296875 
Q 46.1875 37.015625 41.984375 42.703125 
Q 37.796875 48.390625 30.609375 48.390625 
z
M 30.609375 56 
Q 42.328125 56 49.015625 48.375 
Q 55.71875 40.765625 55.71875 27.296875 
Q 55.71875 13.875 49.015625 6.21875 
Q 42.328125 -1.421875 30.609375 -1.421875 
Q 18.84375 -1.421875 12.171875 6.21875 
Q 5.515625 13.875 5.515625 27.296875 
Q 5.515625 40.765625 12.171875 48.375 
Q 18.84375 56 30.609375 56 
z
" id="DejaVuSans-111"/>
      <path d="M 8.5 21.578125 
L 8.5 54.6875 
L 17.484375 54.6875 
L 17.484375 21.921875 
Q 17.484375 14.15625 20.5 10.265625 
Q 23.53125 6.390625 29.59375 6.390625 
Q 36.859375 6.390625 41.078125 11.03125 
Q 45.3125 15.671875 45.3125 23.6875 
L 45.3125 54.6875 
L 54.296875 54.6875 
L 54.296875 0 
L 45.3125 0 
L 45.3125 8.40625 
Q 42.046875 3.421875 37.71875 1 
Q 33.40625 -1.421875 27.6875 -1.421875 
Q 18.265625 -1.421875 13.375 4.4375 
Q 8.5 10.296875 8.5 21.578125 
z
M 31.109375 56 
z
" id="DejaVuSans-117"/>
      <path d="M 54.890625 33.015625 
L 54.890625 0 
L 45.90625 0 
L 45.90625 32.71875 
Q 45.90625 40.484375 42.875 44.328125 
Q 39.84375 48.1875 33.796875 48.1875 
Q 26.515625 48.1875 22.3125 43.546875 
Q 18.109375 38.921875 18.109375 30.90625 
L 18.109375 0 
L 9.078125 0 
L 9.078125 54.6875 
L 18.109375 54.6875 
L 18.109375 46.1875 
Q 21.34375 51.125 25.703125 53.5625 
Q 30.078125 56 35.796875 56 
Q 45.21875 56 50.046875 50.171875 
Q 54.890625 44.34375 54.890625 33.015625 
z
" id="DejaVuSans-110"/>
      <path d="M 18.3125 70.21875 
L 18.3125 54.6875 
L 36.8125 54.6875 
L 36.8125 47.703125 
L 18.3125 47.703125 
L 18.3125 18.015625 
Q 18.3125 11.328125 20.140625 9.421875 
Q 21.96875 7.515625 27.59375 7.515625 
L 36.8125 7.515625 
L 36.8125 0 
L 27.59375 0 
Q 17.1875 0 13.234375 3.875 
Q 9.28125 7.765625 9.28125 18.015625 
L 9.28125 47.703125 
L 2.6875 47.703125 
L 2.6875 54.6875 
L 9.28125 54.6875 
L 9.28125 70.21875 
z
" id="DejaVuSans-116"/>
     </defs>
     <g transform="translate(14.798438 167.584897)rotate(-90)scale(0.1 -0.1)">
      <use xlink:href="#DejaVuSans-67"/>
      <use x="69.824219" xlink:href="#DejaVuSans-111"/>
      <use x="131.005859" xlink:href="#DejaVuSans-117"/>
      <use x="194.384766" xlink:href="#DejaVuSans-110"/>
      <use x="257.763672" xlink:href="#DejaVuSans-116"/>
     </g>
    </g>
   </g>
   <g id="line2d_10">
    <path clip-path="url(#pde12136b9f)" d="M 63.508125 273.986002 
L 72.725275 273.985442 
L 81.942425 273.984113 
L 91.159575 273.982783 
L 100.376725 273.979774 
L 109.593875 273.978445 
L 118.811025 273.974876 
L 128.028175 273.970538 
L 137.245325 273.968999 
L 146.462475 273.957874 
L 155.679625 273.934294 
L 164.896775 273.89574 
L 174.113925 273.84907 
L 183.331075 273.762447 
L 192.548225 273.649235 
L 201.765375 273.484105 
L 210.982525 273.201215 
L 220.199675 272.795038 
L 229.416825 272.17657 
L 238.633975 271.288507 
L 247.851125 270.091666 
L 257.068275 268.462478 
L 266.285425 266.357142 
L 275.502575 263.651951 
L 284.719725 259.847666 
L 293.936875 254.61123 
L 303.154025 249.747876 
L 312.371175 245.162793 
L 321.588325 239.389685 
L 330.805475 233.183251 
L 340.022625 226.784539 
L 349.239775 219.914647 
L 358.456925 212.446998 
L 367.674075 204.473605 
L 376.891225 196.161065 
L 386.108375 188.042833 
L 395.325525 180.475127 
L 404.542675 172.851865 
L 413.759825 165.629392 
L 422.976975 159.32479 
L 432.194125 152.963232 
L 441.411275 145.988104 
L 450.628425 139.111005 
L 459.845575 132.999031 
L 469.062725 127.450248 
L 478.279875 122.340038 
L 487.497025 118.673245 
L 496.714175 117.388731 
L 505.931325 118.330111 
L 515.148475 121.993405 
L 524.365625 126.569882 
L 533.582775 130.805952 
L 542.799925 136.808213 
L 552.017075 144.89293 
L 561.234225 153.826665 
L 570.451375 163.0442 
L 579.668525 171.300064 
L 588.885675 177.602777 
L 598.102825 182.794152 
L 607.319975 187.645052 
L 616.537125 191.182959 
L 625.754275 194.909577 
L 634.971425 199.276912 
L 644.188575 201.690397 
L 653.405725 202.998351 
L 662.622875 203.738567 
L 671.840025 201.348872 
L 681.057175 196.80976 
L 690.274325 192.795215 
L 699.491475 191.649731 
L 708.708625 197.984701 
L 717.925775 210.524075 
L 727.142925 220.798091 
L 736.360075 223.752727 
L 745.577225 222.814985 
L 754.794375 223.823327 
L 764.011525 230.210774 
L 773.228675 241.118931 
L 782.445825 252.188439 
L 791.662975 261.072076 
L 800.880125 265.223273 
L 810.097275 265.876306 
L 819.314425 266.971551 
L 828.531575 268.770417 
L 837.748725 271.058165 
L 846.965875 272.688123 
L 856.183025 273.383837 
L 865.400175 273.687648 
L 874.617325 273.808837 
L 883.834475 273.87251 
L 893.051625 273.914982 
L 902.268775 273.939611 
L 911.485925 273.955005 
L 920.703075 273.962142 
L 929.920225 273.96711 
L 939.137375 273.970048 
L 948.354525 273.96676 
L 957.571675 273.962072 
L 966.788825 273.957594 
L 976.005975 273.961862 
L 985.223125 273.977605 
" style="fill:none;stroke:#f0ad4e;stroke-linecap:square;"/>
   </g>
   <g id="line2d_11">
    <path clip-path="url(#pde12136b9f)" d="M 63.508125 273.986422 
L 72.725275 273.985862 
L 81.942425 273.983833 
L 91.159575 273.980964 
L 100.376725 273.978025 
L 109.593875 273.976906 
L 118.811025 273.974037 
L 128.028175 273.96648 
L 137.245325 273.959833 
L 146.462475 273.950037 
L 155.679625 273.927716 
L 164.896775 273.890842 
L 174.113925 273.843822 
L 183.331075 273.761467 
L 192.548225 273.631392 
L 201.765375 273.439814 
L 210.982525 273.163501 
L 220.199675 272.7653 
L 229.416825 272.168314 
L 238.633975 271.317335 
L 247.851125 270.085578 
L 257.068275 268.429102 
L 266.285425 266.320198 
L 275.502575 263.461702 
L 284.719725 259.690163 
L 293.936875 254.767334 
L 303.154025 249.866266 
L 312.371175 245.072322 
L 321.588325 239.447341 
L 330.805475 233.342224 
L 340.022625 226.863046 
L 349.239775 219.912548 
L 358.456925 212.403337 
L 367.674075 204.476334 
L 376.891225 196.31409 
L 386.108375 188.184243 
L 395.325525 180.203503 
L 404.542675 172.449116 
L 413.759825 165.629183 
L 422.976975 159.308907 
L 432.194125 152.930766 
L 441.411275 146.120418 
L 450.628425 139.206864 
L 459.845575 132.989165 
L 469.062725 127.68031 
L 478.279875 122.949759 
L 487.497025 119.076904 
L 496.714175 117.919316 
L 505.931325 119.601961 
L 515.148475 123.56011 
L 524.365625 127.865521 
L 533.582775 131.922328 
L 542.799925 137.777372 
L 552.017075 145.724596 
L 561.234225 155.171424 
L 570.451375 164.685563 
L 579.668525 172.83941 
L 588.885675 179.435229 
L 598.102825 184.686009 
L 607.319975 189.364012 
L 616.537125 192.857978 
L 625.754275 196.778343 
L 634.971425 201.740565 
L 644.188575 205.938223 
L 653.405725 210.517918 
L 662.622875 217.142914 
L 671.840025 223.960398 
L 681.057175 230.272697 
L 690.274325 236.025304 
L 699.491475 239.603934 
L 708.708625 242.997423 
L 717.925775 247.130358 
L 727.142925 250.838643 
L 736.360075 253.704346 
L 745.577225 256.078577 
L 754.794375 258.318816 
L 764.011525 260.488454 
L 773.228675 262.612962 
L 782.445825 264.197159 
L 791.662975 265.30157 
L 800.880125 266.153878 
L 810.097275 266.87891 
L 819.314425 267.889071 
L 828.531575 269.386715 
L 837.748725 271.09392 
L 846.965875 272.203719 
L 856.183025 272.640753 
L 865.400175 272.817638 
L 874.617325 272.891107 
L 883.834475 272.933929 
L 893.051625 272.957579 
L 902.268775 272.952331 
L 911.485925 272.950861 
L 920.703075 272.948692 
L 929.920225 272.93162 
L 939.137375 272.887468 
L 948.354525 272.78993 
L 957.571675 272.547273 
L 966.788825 271.938251 
L 976.005975 269.307789 
L 985.223125 43.030822 
" style="fill:none;stroke:#d9534f;stroke-linecap:square;"/>
   </g>
   <g id="line2d_12">
    <path clip-path="url(#pde12136b9f)" d="M 63.508125 273.984882 
L 72.725275 273.986002 
L 81.942425 273.986422 
L 91.159575 273.983063 
L 100.376725 273.979634 
L 109.593875 273.979494 
L 118.811025 273.976346 
L 128.028175 273.971238 
L 137.245325 273.96578 
L 146.462475 273.955145 
L 155.679625 273.934084 
L 164.896775 273.899309 
L 174.113925 273.854108 
L 183.331075 273.772452 
L 192.548225 273.662949 
L 201.765375 273.489772 
L 210.982525 273.194218 
L 220.199675 272.784472 
L 229.416825 272.183287 
L 238.633975 271.303761 
L 247.851125 270.086068 
L 257.068275 268.451842 
L 266.285425 266.31327 
L 275.502575 263.528733 
L 284.719725 259.800227 
L 293.936875 254.68302 
L 303.154025 249.838488 
L 312.371175 245.268029 
L 321.588325 239.470221 
L 330.805475 233.309828 
L 340.022625 226.868993 
L 349.239775 219.839639 
L 358.456925 212.332317 
L 367.674075 204.482981 
L 376.891225 196.286102 
L 386.108375 188.089153 
L 395.325525 180.28019 
L 404.542675 172.619214 
L 413.759825 165.63457 
L 422.976975 159.426317 
L 432.194125 152.960013 
L 441.411275 145.906939 
L 450.628425 139.090434 
L 459.845575 132.890227 
L 469.062725 127.242926 
L 478.279875 122.26426 
L 487.497025 118.619508 
L 496.714175 117.400556 
L 505.931325 118.500699 
L 515.148475 122.111445 
L 524.365625 126.697717 
L 533.582775 130.938196 
L 542.799925 136.906661 
L 552.017075 145.131808 
L 561.234225 154.243198 
L 570.451375 163.427288 
L 579.668525 171.66153 
L 588.885675 178.101525 
L 598.102825 183.238813 
L 607.319975 188.035906 
L 616.537125 191.590256 
L 625.754275 195.221294 
L 634.971425 199.566239 
L 644.188575 201.939351 
L 653.405725 202.937477 
L 662.622875 203.702742 
L 671.840025 201.32886 
L 681.057175 196.601458 
L 690.274325 192.857978 
L 699.491475 192.258962 
L 708.708625 199.061123 
L 717.925775 211.851481 
L 727.142925 222.311479 
L 736.360075 225.309705 
L 745.577225 224.16849 
L 754.794375 224.815365 
L 764.011525 230.484777 
L 773.228675 240.428394 
L 782.445825 251.169462 
L 791.662975 260.618249 
L 800.880125 265.241186 
L 810.097275 265.954463 
L 819.314425 267.028507 
L 828.531575 268.798195 
L 837.748725 271.102316 
L 846.965875 272.700718 
L 856.183025 273.383698 
L 865.400175 273.691287 
L 874.617325 273.818423 
L 883.834475 273.878737 
L 893.051625 273.916311 
L 902.268775 273.939122 
L 911.485925 273.953466 
L 920.703075 273.963611 
L 929.920225 273.967809 
L 939.137375 273.969979 
L 948.354525 273.969979 
L 957.571675 273.96662 
L 966.788825 273.961442 
L 976.005975 273.963401 
L 985.223125 273.976906 
" style="fill:none;stroke:#f0ad4e;stroke-linecap:square;"/>
   </g>
   <g id="line2d_13">
    <path clip-path="url(#pde12136b9f)" d="M 63.508125 273.986841 
L 72.725275 273.985862 
L 81.942425 273.983063 
L 91.159575 273.979844 
L 100.376725 273.978935 
L 109.593875 273.978305 
L 118.811025 273.974597 
L 128.028175 273.969279 
L 137.245325 273.961722 
L 146.462475 273.950597 
L 155.679625 273.927577 
L 164.896775 273.887833 
L 174.113925 273.845641 
L 183.331075 273.759858 
L 192.548225 273.628943 
L 201.765375 273.444432 
L 210.982525 273.16518 
L 220.199675 272.761102 
L 229.416825 272.147323 
L 238.633975 271.262618 
L 247.851125 270.035759 
L 257.068275 268.403143 
L 266.285425 266.323206 
L 275.502575 263.528103 
L 284.719725 259.69828 
L 293.936875 254.768594 
L 303.154025 249.890615 
L 312.371175 245.02894 
L 321.588325 239.431528 
L 330.805475 233.364544 
L 340.022625 226.836597 
L 349.239775 219.915066 
L 358.456925 212.364014 
L 367.674075 204.349337 
L 376.891225 196.128109 
L 386.108375 188.010017 
L 395.325525 180.106664 
L 404.542675 172.635447 
L 413.759825 165.900527 
L 422.976975 159.377548 
L 432.194125 152.880597 
L 441.411275 145.855581 
L 450.628425 139.086096 
L 459.845575 133.085234 
L 469.062725 127.616847 
L 478.279875 122.87615 
L 487.497025 119.213136 
L 496.714175 118.180305 
L 505.931325 119.767791 
L 515.148475 123.91297 
L 524.365625 128.376374 
L 533.582775 132.140566 
L 542.799925 137.811517 
L 552.017075 145.930939 
L 561.234225 155.474885 
L 570.451375 164.845935 
L 579.668525 173.002371 
L 588.885675 179.630236 
L 598.102825 185.079242 
L 607.319975 189.807274 
L 616.537125 193.267164 
L 625.754275 197.158212 
L 634.971425 202.17802 
L 644.188575 206.378336 
L 653.405725 210.921436 
L 662.622875 217.610735 
L 671.840025 224.302693 
L 681.057175 230.651027 
L 690.274325 236.41091 
L 699.491475 239.92111 
L 708.708625 243.214681 
L 717.925775 247.270998 
L 727.142925 251.029522 
L 736.360075 253.872834 
L 745.577225 256.208862 
L 754.794375 258.369124 
L 764.011525 260.531136 
L 773.228675 262.723725 
L 782.445825 264.282243 
L 791.662975 265.322001 
L 800.880125 266.141283 
L 810.097275 266.901021 
L 819.314425 267.926995 
L 828.531575 269.416173 
L 837.748725 271.133523 
L 846.965875 272.240033 
L 856.183025 272.688893 
L 865.400175 272.867737 
L 874.617325 272.946593 
L 883.834475 272.975211 
L 893.051625 272.97857 
L 902.268775 272.985147 
L 911.485925 272.986896 
L 920.703075 272.97822 
L 929.920225 272.963736 
L 939.137375 272.92945 
L 948.354525 272.851014 
L 957.571675 272.616473 
L 966.788825 271.994787 
L 976.005975 269.436814 
L 985.223125 44.007887 
" style="fill:none;stroke:#d9534f;stroke-linecap:square;"/>
   </g>
   <g id="line2d_14">
    <path clip-path="url(#pde12136b9f)" d="M 63.508125 273.99006 
L 72.725275 273.99006 
L 81.942425 273.98999 
L 91.159575 273.98992 
L 100.376725 273.98992 
L 109.593875 273.98999 
L 118.811025 273.98999 
L 128.028175 273.98978 
L 137.245325 273.98908 
L 146.462475 273.988451 
L 155.679625 273.988101 
L 164.896775 273.985162 
L 174.113925 273.979704 
L 183.331075 273.969909 
L 192.548225 273.953955 
L 201.765375 273.928906 
L 210.982525 273.889443 
L 220.199675 273.829548 
L 229.416825 273.73026 
L 238.633975 273.572407 
L 247.851125 273.347873 
L 257.068275 273.050639 
L 266.285425 272.64831 
L 275.502575 272.118215 
L 284.719725 271.441882 
L 293.936875 270.610076 
L 303.154025 269.650503 
L 312.371175 268.590173 
L 321.588325 267.454626 
L 330.805475 266.182496 
L 340.022625 264.853131 
L 349.239775 263.487031 
L 358.456925 261.891289 
L 367.674075 259.938698 
L 376.891225 258.444902 
L 386.108375 257.905781 
L 395.325525 257.684675 
L 404.542675 257.298019 
L 413.759825 256.623156 
L 422.976975 255.992584 
L 432.194125 255.448985 
L 441.411275 255.01307 
L 450.628425 254.94212 
L 459.845575 255.01279 
L 469.062725 255.251878 
L 478.279875 255.768189 
L 487.497025 256.373292 
L 496.714175 257.094826 
L 505.931325 257.904522 
L 515.148475 258.730731 
L 524.365625 259.65007 
L 533.582775 260.808428 
L 542.799925 262.188872 
L 552.017075 263.533281 
L 561.234225 264.723126 
L 570.451375 265.798639 
L 579.668525 266.743938 
L 588.885675 267.666916 
L 598.102825 268.539725 
L 607.319975 269.262378 
L 616.537125 269.87014 
L 625.754275 270.484479 
L 634.971425 271.067401 
L 644.188575 271.51724 
L 653.405725 271.851068 
L 662.622875 272.043347 
L 671.840025 272.040408 
L 681.057175 271.789984 
L 690.274325 271.382338 
L 699.491475 271.010655 
L 708.708625 270.969093 
L 717.925775 271.409906 
L 727.142925 272.032082 
L 736.360075 272.38998 
L 745.577225 272.353945 
L 754.794375 272.095964 
L 764.011525 271.920409 
L 773.228675 272.045726 
L 782.445825 272.531809 
L 791.662975 273.408117 
L 800.880125 273.954585 
L 810.097275 273.970608 
L 819.314425 273.978935 
L 828.531575 273.983833 
L 837.748725 273.985512 
L 846.965875 273.987121 
L 856.183025 273.988731 
L 865.400175 273.98957 
L 874.617325 273.98978 
L 883.834475 273.98971 
L 893.051625 273.98957 
L 902.268775 273.98985 
L 911.485925 273.98985 
L 920.703075 273.98978 
L 929.920225 273.98992 
L 939.137375 273.98992 
L 948.354525 273.98978 
L 957.571675 273.98964 
L 966.788825 273.98936 
L 976.005975 273.98936 
L 985.223125 273.98985 
" style="fill:none;stroke:#f0ad4e;stroke-linecap:square;"/>
   </g>
   <g id="line2d_15">
    <path clip-path="url(#pde12136b9f)" d="M 63.508125 273.98992 
L 72.725275 273.98999 
L 81.942425 273.99006 
L 91.159575 273.99006 
L 100.376725 273.99006 
L 109.593875 273.98999 
L 118.811025 273.9895 
L 128.028175 273.98943 
L 137.245325 273.98985 
L 146.462475 273.98943 
L 155.679625 273.988381 
L 164.896775 273.985722 
L 174.113925 273.979704 
L 183.331075 273.971448 
L 192.548225 273.955145 
L 201.765375 273.928416 
L 210.982525 273.888323 
L 220.199675 273.832697 
L 229.416825 273.745164 
L 238.633975 273.591299 
L 247.851125 273.373902 
L 257.068275 273.089053 
L 266.285425 272.706105 
L 275.502575 272.19973 
L 284.719725 271.519129 
L 293.936875 270.69306 
L 303.154025 269.784986 
L 312.371175 268.791548 
L 321.588325 267.635009 
L 330.805475 266.416826 
L 340.022625 265.156732 
L 349.239775 263.769081 
L 358.456925 262.1937 
L 367.674075 260.338018 
L 376.891225 258.843663 
L 386.108375 258.172018 
L 395.325525 257.905082 
L 404.542675 257.486869 
L 413.759825 256.787726 
L 422.976975 256.156244 
L 432.194125 255.610126 
L 441.411275 255.180789 
L 450.628425 255.017478 
L 459.845575 255.014679 
L 469.062725 255.292111 
L 478.279875 255.767559 
L 487.497025 256.294156 
L 496.714175 256.932005 
L 505.931325 257.671171 
L 515.148475 258.507526 
L 524.365625 259.493617 
L 533.582775 260.702144 
L 542.799925 262.0299 
L 552.017075 263.365772 
L 561.234225 264.62006 
L 570.451375 265.718803 
L 579.668525 266.721967 
L 588.885675 267.668525 
L 598.102825 268.529299 
L 607.319975 269.269445 
L 616.537125 269.89393 
L 625.754275 270.511068 
L 634.971425 271.116311 
L 644.188575 271.629263 
L 653.405725 272.037679 
L 662.622875 272.381723 
L 671.840025 272.679307 
L 681.057175 272.919235 
L 690.274325 273.122289 
L 699.491475 273.289797 
L 708.708625 273.428269 
L 717.925775 273.540571 
L 727.142925 273.630273 
L 736.360075 273.692336 
L 745.577225 273.749152 
L 754.794375 273.80107 
L 764.011525 273.834586 
L 773.228675 273.867262 
L 782.445825 273.892032 
L 791.662975 273.909594 
L 800.880125 273.924568 
L 810.097275 273.934783 
L 819.314425 273.941571 
L 828.531575 273.945699 
L 837.748725 273.947238 
L 846.965875 273.947308 
L 856.183025 273.948917 
L 865.400175 273.951017 
L 874.617325 273.949827 
L 883.834475 273.949547 
L 893.051625 273.948848 
L 902.268775 273.944649 
L 911.485925 273.945349 
L 920.703075 273.948358 
L 929.920225 273.944719 
L 939.137375 273.940871 
L 948.354525 273.939332 
L 957.571675 273.92051 
L 966.788825 273.876428 
L 976.005975 273.725432 
L 985.223125 261.709226 
" style="fill:none;stroke:#d9534f;stroke-linecap:square;"/>
   </g>
   <g id="line2d_16">
    <path clip-path="url(#pde12136b9f)" d="M 63.508125 273.99006 
L 72.725275 273.99006 
L 81.942425 273.99006 
L 91.159575 273.98999 
L 100.376725 273.98978 
L 109.593875 273.98985 
L 118.811025 273.98992 
L 128.028175 273.98971 
L 137.245325 273.9895 
L 146.462475 273.98908 
L 155.679625 273.987051 
L 164.896775 273.984113 
L 174.113925 273.978655 
L 183.331075 273.967879 
L 192.548225 273.951786 
L 201.765375 273.927297 
L 210.982525 273.893011 
L 220.199675 273.832347 
L 229.416825 273.73103 
L 238.633975 273.579055 
L 247.851125 273.357249 
L 257.068275 273.051898 
L 266.285425 272.641523 
L 275.502575 272.121434 
L 284.719725 271.455806 
L 293.936875 270.597831 
L 303.154025 269.652392 
L 312.371175 268.640202 
L 321.588325 267.478346 
L 330.805475 266.230915 
L 340.022625 264.939894 
L 349.239775 263.532791 
L 358.456925 261.861761 
L 367.674075 259.9578 
L 376.891225 258.526977 
L 386.108375 257.909909 
L 395.325525 257.647591 
L 404.542675 257.218603 
L 413.759825 256.544719 
L 422.976975 255.917436 
L 432.194125 255.394128 
L 441.411275 255.074994 
L 450.628425 255.014399 
L 459.845575 255.040778 
L 469.062725 255.299388 
L 478.279875 255.857611 
L 487.497025 256.462714 
L 496.714175 257.137018 
L 505.931325 257.881292 
L 515.148475 258.750952 
L 524.365625 259.72053 
L 533.582775 260.810877 
L 542.799925 262.189992 
L 552.017075 263.550424 
L 561.234225 264.756851 
L 570.451375 265.86749 
L 579.668525 266.820135 
L 588.885675 267.708408 
L 598.102825 268.569952 
L 607.319975 269.279451 
L 616.537125 269.875597 
L 625.754275 270.514356 
L 634.971425 271.101057 
L 644.188575 271.531934 
L 653.405725 271.848899 
L 662.622875 272.021306 
L 671.840025 272.008851 
L 681.057175 271.788515 
L 690.274325 271.370233 
L 699.491475 270.97574 
L 708.708625 270.964755 
L 717.925775 271.448669 
L 727.142925 272.095055 
L 736.360075 272.464498 
L 745.577225 272.438189 
L 754.794375 272.196442 
L 764.011525 271.995137 
L 773.228675 272.021726 
L 782.445825 272.41335 
L 791.662975 273.33185 
L 800.880125 273.949757 
L 810.097275 273.969279 
L 819.314425 273.978445 
L 828.531575 273.981873 
L 837.748725 273.985022 
L 846.965875 273.987751 
L 856.183025 273.98929 
L 865.400175 273.98971 
L 874.617325 273.98964 
L 883.834475 273.98971 
L 893.051625 273.98971 
L 902.268775 273.98985 
L 911.485925 273.98985 
L 920.703075 273.98985 
L 929.920225 273.98992 
L 939.137375 273.98999 
L 948.354525 273.98978 
L 957.571675 273.98964 
L 966.788825 273.98943 
L 976.005975 273.98943 
L 985.223125 273.98985 
" style="fill:none;stroke:#f0ad4e;stroke-linecap:square;"/>
   </g>
   <g id="line2d_17">
    <path clip-path="url(#pde12136b9f)" d="M 63.508125 273.99006 
L 72.725275 273.99006 
L 81.942425 273.98999 
L 91.159575 273.98992 
L 100.376725 273.98999 
L 109.593875 273.98999 
L 118.811025 273.98992 
L 128.028175 273.98985 
L 137.245325 273.98929 
L 146.462475 273.988661 
L 155.679625 273.987331 
L 164.896775 273.984672 
L 174.113925 273.978515 
L 183.331075 273.969279 
L 192.548225 273.954235 
L 201.765375 273.931775 
L 210.982525 273.89581 
L 220.199675 273.832207 
L 229.416825 273.734179 
L 238.633975 273.587311 
L 247.851125 273.380199 
L 257.068275 273.086184 
L 266.285425 272.685184 
L 275.502575 272.179789 
L 284.719725 271.506325 
L 293.936875 270.706704 
L 303.154025 269.766164 
L 312.371175 268.74005 
L 321.588325 267.671813 
L 330.805475 266.435369 
L 340.022625 265.106843 
L 349.239775 263.808684 
L 358.456925 262.252545 
L 367.674075 260.361948 
L 376.891225 258.840374 
L 386.108375 258.198117 
L 395.325525 258.037185 
L 404.542675 257.592104 
L 413.759825 256.80256 
L 422.976975 256.101807 
L 432.194125 255.645741 
L 441.411275 255.254887 
L 450.628425 255.052743 
L 459.845575 255.03616 
L 469.062725 255.236485 
L 478.279875 255.775466 
L 487.497025 256.339077 
L 496.714175 256.998617 
L 505.931325 257.762132 
L 515.148475 258.510534 
L 524.365625 259.455133 
L 533.582775 260.668208 
L 542.799925 262.057118 
L 552.017075 263.452885 
L 561.234225 264.656444 
L 570.451375 265.746021 
L 579.668525 266.756462 
L 588.885675 267.68084 
L 598.102825 268.530839 
L 607.319975 269.261958 
L 616.537125 269.913801 
L 625.754275 270.555219 
L 634.971425 271.162141 
L 644.188575 271.651233 
L 653.405725 272.042157 
L 662.622875 272.393618 
L 671.840025 272.691901 
L 681.057175 272.916086 
L 690.274325 273.11844 
L 699.491475 273.296724 
L 708.708625 273.429108 
L 717.925775 273.536443 
L 727.142925 273.63797 
L 736.360075 273.709969 
L 745.577225 273.761747 
L 754.794375 273.805548 
L 764.011525 273.842703 
L 773.228675 273.87314 
L 782.445825 273.89672 
L 791.662975 273.913233 
L 800.880125 273.924848 
L 810.097275 273.933664 
L 819.314425 273.939541 
L 828.531575 273.948008 
L 837.748725 273.948288 
L 846.965875 273.949127 
L 856.183025 273.953605 
L 865.400175 273.951856 
L 874.617325 273.950107 
L 883.834475 273.952766 
L 893.051625 273.955425 
L 902.268775 273.952556 
L 911.485925 273.951646 
L 920.703075 273.951366 
L 929.920225 273.948008 
L 939.137375 273.946119 
L 948.354525 273.94388 
L 957.571675 273.926457 
L 966.788825 273.883635 
L 976.005975 273.735788 
L 985.223125 261.711955 
" style="fill:none;stroke:#d9534f;stroke-linecap:square;"/>
   </g>
   <g id="line2d_18">
    <path clip-path="url(#pde12136b9f)" d="M 63.508125 273.99006 
L 985.223125 273.99006 
" style="fill:none;stroke:#dedede;stroke-linecap:square;stroke-width:2;"/>
   </g>
   <g id="text_18">
    <!-- FastQC: Per Sequence GC Content -->
    <defs>
     <path d="M 9.8125 72.90625 
L 51.703125 72.90625 
L 51.703125 64.59375 
L 19.671875 64.59375 
L 19.671875 43.109375 
L 48.578125 43.109375 
L 48.578125 34.8125 
L 19.671875 34.8125 
L 19.671875 0 
L 9.8125 0 
z
" id="DejaVuSans-70"/>
     <path d="M 34.28125 27.484375 
Q 23.390625 27.484375 19.1875 25 
Q 14.984375 22.515625 14.984375 16.5 
Q 14.984375 11.71875 18.140625 8.90625 
Q 21.296875 6.109375 26.703125 6.109375 
Q 34.1875 6.109375 38.703125 11.40625 
Q 43.21875 16.703125 43.21875 25.484375 
L 43.21875 27.484375 
z
M 52.203125 31.203125 
L 52.203125 0 
L 43.21875 0 
L 43.21875 8.296875 
Q 40.140625 3.328125 35.546875 0.953125 
Q 30.953125 -1.421875 24.3125 -1.421875 
Q 15.921875 -1.421875 10.953125 3.296875 
Q 6 8.015625 6 15.921875 
Q 6 25.140625 12.171875 29.828125 
Q 18.359375 34.515625 30.609375 34.515625 
L 43.21875 34.515625 
L 43.21875 35.40625 
Q 43.21875 41.609375 39.140625 45 
Q 35.0625 48.390625 27.6875 48.390625 
Q 23 48.390625 18.546875 47.265625 
Q 14.109375 46.140625 10.015625 43.890625 
L 10.015625 52.203125 
Q 14.9375 54.109375 19.578125 55.046875 
Q 24.21875 56 28.609375 56 
Q 40.484375 56 46.34375 49.84375 
Q 52.203125 43.703125 52.203125 31.203125 
z
" id="DejaVuSans-97"/>
     <path d="M 44.28125 53.078125 
L 44.28125 44.578125 
Q 40.484375 46.53125 36.375 47.5 
Q 32.28125 48.484375 27.875 48.484375 
Q 21.1875 48.484375 17.84375 46.4375 
Q 14.5 44.390625 14.5 40.28125 
Q 14.5 37.15625 16.890625 35.375 
Q 19.28125 33.59375 26.515625 31.984375 
L 29.59375 31.296875 
Q 39.15625 29.25 43.1875 25.515625 
Q 47.21875 21.78125 47.21875 15.09375 
Q 47.21875 7.46875 41.1875 3.015625 
Q 35.15625 -1.421875 24.609375 -1.421875 
Q 20.21875 -1.421875 15.453125 -0.5625 
Q 10.6875 0.296875 5.421875 2 
L 5.421875 11.28125 
Q 10.40625 8.6875 15.234375 7.390625 
Q 20.0625 6.109375 24.8125 6.109375 
Q 31.15625 6.109375 34.5625 8.28125 
Q 37.984375 10.453125 37.984375 14.40625 
Q 37.984375 18.0625 35.515625 20.015625 
Q 33.0625 21.96875 24.703125 23.78125 
L 21.578125 24.515625 
Q 13.234375 26.265625 9.515625 29.90625 
Q 5.8125 33.546875 5.8125 39.890625 
Q 5.8125 47.609375 11.28125 51.796875 
Q 16.75 56 26.8125 56 
Q 31.78125 56 36.171875 55.265625 
Q 40.578125 54.546875 44.28125 53.078125 
z
" id="DejaVuSans-115"/>
     <path d="M 39.40625 66.21875 
Q 28.65625 66.21875 22.328125 58.203125 
Q 16.015625 50.203125 16.015625 36.375 
Q 16.015625 22.609375 22.328125 14.59375 
Q 28.65625 6.59375 39.40625 6.59375 
Q 50.140625 6.59375 56.421875 14.59375 
Q 62.703125 22.609375 62.703125 36.375 
Q 62.703125 50.203125 56.421875 58.203125 
Q 50.140625 66.21875 39.40625 66.21875 
z
M 53.21875 1.3125 
L 66.21875 -12.890625 
L 54.296875 -12.890625 
L 43.5 -1.21875 
Q 41.890625 -1.3125 41.03125 -1.359375 
Q 40.1875 -1.421875 39.40625 -1.421875 
Q 24.03125 -1.421875 14.8125 8.859375 
Q 5.609375 19.140625 5.609375 36.375 
Q 5.609375 53.65625 14.8125 63.9375 
Q 24.03125 74.21875 39.40625 74.21875 
Q 54.734375 74.21875 63.90625 63.9375 
Q 73.09375 53.65625 73.09375 36.375 
Q 73.09375 23.6875 67.984375 14.640625 
Q 62.890625 5.609375 53.21875 1.3125 
z
" id="DejaVuSans-81"/>
     <path d="M 11.71875 12.40625 
L 22.015625 12.40625 
L 22.015625 0 
L 11.71875 0 
z
M 11.71875 51.703125 
L 22.015625 51.703125 
L 22.015625 39.3125 
L 11.71875 39.3125 
z
" id="DejaVuSans-58"/>
     <path d="M 19.671875 64.796875 
L 19.671875 37.40625 
L 32.078125 37.40625 
Q 38.96875 37.40625 42.71875 40.96875 
Q 46.484375 44.53125 46.484375 51.125 
Q 46.484375 57.671875 42.71875 61.234375 
Q 38.96875 64.796875 32.078125 64.796875 
z
M 9.8125 72.90625 
L 32.078125 72.90625 
Q 44.34375 72.90625 50.609375 67.359375 
Q 56.890625 61.8125 56.890625 51.125 
Q 56.890625 40.328125 50.609375 34.8125 
Q 44.34375 29.296875 32.078125 29.296875 
L 19.671875 29.296875 
L 19.671875 0 
L 9.8125 0 
z
" id="DejaVuSans-80"/>
     <path d="M 56.203125 29.59375 
L 56.203125 25.203125 
L 14.890625 25.203125 
Q 15.484375 15.921875 20.484375 11.0625 
Q 25.484375 6.203125 34.421875 6.203125 
Q 39.59375 6.203125 44.453125 7.46875 
Q 49.3125 8.734375 54.109375 11.28125 
L 54.109375 2.78125 
Q 49.265625 0.734375 44.1875 -0.34375 
Q 39.109375 -1.421875 33.890625 -1.421875 
Q 20.796875 -1.421875 13.15625 6.1875 
Q 5.515625 13.8125 5.515625 26.8125 
Q 5.515625 40.234375 12.765625 48.109375 
Q 20.015625 56 32.328125 56 
Q 43.359375 56 49.78125 48.890625 
Q 56.203125 41.796875 56.203125 29.59375 
z
M 47.21875 32.234375 
Q 47.125 39.59375 43.09375 43.984375 
Q 39.0625 48.390625 32.421875 48.390625 
Q 24.90625 48.390625 20.390625 44.140625 
Q 15.875 39.890625 15.1875 32.171875 
z
" id="DejaVuSans-101"/>
     <path d="M 41.109375 46.296875 
Q 39.59375 47.171875 37.8125 47.578125 
Q 36.03125 48 33.890625 48 
Q 26.265625 48 22.1875 43.046875 
Q 18.109375 38.09375 18.109375 28.8125 
L 18.109375 0 
L 9.078125 0 
L 9.078125 54.6875 
L 18.109375 54.6875 
L 18.109375 46.1875 
Q 20.953125 51.171875 25.484375 53.578125 
Q 30.03125 56 36.53125 56 
Q 37.453125 56 38.578125 55.875 
Q 39.703125 55.765625 41.0625 55.515625 
z
" id="DejaVuSans-114"/>
     <path d="M 53.515625 70.515625 
L 53.515625 60.890625 
Q 47.90625 63.578125 42.921875 64.890625 
Q 37.9375 66.21875 33.296875 66.21875 
Q 25.25 66.21875 20.875 63.09375 
Q 16.5 59.96875 16.5 54.203125 
Q 16.5 49.359375 19.40625 46.890625 
Q 22.3125 44.4375 30.421875 42.921875 
L 36.375 41.703125 
Q 47.40625 39.59375 52.65625 34.296875 
Q 57.90625 29 57.90625 20.125 
Q 57.90625 9.515625 50.796875 4.046875 
Q 43.703125 -1.421875 29.984375 -1.421875 
Q 24.8125 -1.421875 18.96875 -0.25 
Q 13.140625 0.921875 6.890625 3.21875 
L 6.890625 13.375 
Q 12.890625 10.015625 18.65625 8.296875 
Q 24.421875 6.59375 29.984375 6.59375 
Q 38.421875 6.59375 43.015625 9.90625 
Q 47.609375 13.234375 47.609375 19.390625 
Q 47.609375 24.75 44.3125 27.78125 
Q 41.015625 30.8125 33.5 32.328125 
L 27.484375 33.5 
Q 16.453125 35.6875 11.515625 40.375 
Q 6.59375 45.0625 6.59375 53.421875 
Q 6.59375 63.09375 13.40625 68.65625 
Q 20.21875 74.21875 32.171875 74.21875 
Q 37.3125 74.21875 42.625 73.28125 
Q 47.953125 72.359375 53.515625 70.515625 
z
" id="DejaVuSans-83"/>
     <path d="M 14.796875 27.296875 
Q 14.796875 17.390625 18.875 11.75 
Q 22.953125 6.109375 30.078125 6.109375 
Q 37.203125 6.109375 41.296875 11.75 
Q 45.40625 17.390625 45.40625 27.296875 
Q 45.40625 37.203125 41.296875 42.84375 
Q 37.203125 48.484375 30.078125 48.484375 
Q 22.953125 48.484375 18.875 42.84375 
Q 14.796875 37.203125 14.796875 27.296875 
z
M 45.40625 8.203125 
Q 42.578125 3.328125 38.25 0.953125 
Q 33.9375 -1.421875 27.875 -1.421875 
Q 17.96875 -1.421875 11.734375 6.484375 
Q 5.515625 14.40625 5.515625 27.296875 
Q 5.515625 40.1875 11.734375 48.09375 
Q 17.96875 56 27.875 56 
Q 33.9375 56 38.25 53.625 
Q 42.578125 51.265625 45.40625 46.390625 
L 45.40625 54.6875 
L 54.390625 54.6875 
L 54.390625 -20.796875 
L 45.40625 -20.796875 
z
" id="DejaVuSans-113"/>
     <path d="M 48.78125 52.59375 
L 48.78125 44.1875 
Q 44.96875 46.296875 41.140625 47.34375 
Q 37.3125 48.390625 33.40625 48.390625 
Q 24.65625 48.390625 19.8125 42.84375 
Q 14.984375 37.3125 14.984375 27.296875 
Q 14.984375 17.28125 19.8125 11.734375 
Q 24.65625 6.203125 33.40625 6.203125 
Q 37.3125 6.203125 41.140625 7.25 
Q 44.96875 8.296875 48.78125 10.40625 
L 48.78125 2.09375 
Q 45.015625 0.34375 40.984375 -0.53125 
Q 36.96875 -1.421875 32.421875 -1.421875 
Q 20.0625 -1.421875 12.78125 6.34375 
Q 5.515625 14.109375 5.515625 27.296875 
Q 5.515625 40.671875 12.859375 48.328125 
Q 20.21875 56 33.015625 56 
Q 37.15625 56 41.109375 55.140625 
Q 45.0625 54.296875 48.78125 52.59375 
z
" id="DejaVuSans-99"/>
    </defs>
    <g transform="translate(386.724375 19.3575)scale(0.16 -0.16)">
     <use xlink:href="#DejaVuSans-70"/>
     <use x="57.378906" xlink:href="#DejaVuSans-97"/>
     <use x="118.658203" xlink:href="#DejaVuSans-115"/>
     <use x="170.757812" xlink:href="#DejaVuSans-116"/>
     <use x="209.966797" xlink:href="#DejaVuSans-81"/>
     <use x="288.677734" xlink:href="#DejaVuSans-67"/>
     <use x="358.501953" xlink:href="#DejaVuSans-58"/>
     <use x="392.193359" xlink:href="#DejaVuSans-32"/>
     <use x="423.980469" xlink:href="#DejaVuSans-80"/>
     <use x="484.236328" xlink:href="#DejaVuSans-101"/>
     <use x="545.759766" xlink:href="#DejaVuSans-114"/>
     <use x="586.873047" xlink:href="#DejaVuSans-32"/>
     <use x="618.660156" xlink:href="#DejaVuSans-83"/>
     <use x="682.136719" xlink:href="#DejaVuSans-101"/>
     <use x="743.660156" xlink:href="#DejaVuSans-113"/>
     <use x="807.136719" xlink:href="#DejaVuSans-117"/>
     <use x="870.515625" xlink:href="#DejaVuSans-101"/>
     <use x="932.039062" xlink:href="#DejaVuSans-110"/>
     <use x="995.417969" xlink:href="#DejaVuSans-99"/>
     <use x="1050.398438" xlink:href="#DejaVuSans-101"/>
     <use x="1111.921875" xlink:href="#DejaVuSans-32"/>
     <use x="1143.708984" xlink:href="#DejaVuSans-71"/>
     <use x="1221.199219" xlink:href="#DejaVuSans-67"/>
     <use x="1291.023438" xlink:href="#DejaVuSans-32"/>
     <use x="1322.810547" xlink:href="#DejaVuSans-67"/>
     <use x="1392.634766" xlink:href="#DejaVuSans-111"/>
     <use x="1453.816406" xlink:href="#DejaVuSans-110"/>
     <use x="1517.195312" xlink:href="#DejaVuSans-116"/>
     <use x="1556.404297" xlink:href="#DejaVuSans-101"/>
     <use x="1617.927734" xlink:href="#DejaVuSans-110"/>
     <use x="1681.306641" xlink:href="#DejaVuSans-116"/>
    </g>
   </g>
   <g id="legend_1">
    <g id="line2d_19">
     <path d="M 70.708125 303.490394 
L 86.708125 303.490394 
" style="fill:none;stroke:#f0ad4e;stroke-linecap:square;"/>
    </g>
    <g id="line2d_20"/>
    <g id="text_19">
     <!-- Hte-CJol_087-Ex1-2H-SSL-1-1-L4-1 -->
     <defs>
      <path d="M 9.8125 72.90625 
L 19.671875 72.90625 
L 19.671875 43.015625 
L 55.515625 43.015625 
L 55.515625 72.90625 
L 65.375 72.90625 
L 65.375 0 
L 55.515625 0 
L 55.515625 34.71875 
L 19.671875 34.71875 
L 19.671875 0 
L 9.8125 0 
z
" id="DejaVuSans-72"/>
      <path d="M 4.890625 31.390625 
L 31.203125 31.390625 
L 31.203125 23.390625 
L 4.890625 23.390625 
z
" id="DejaVuSans-45"/>
      <path d="M 9.8125 72.90625 
L 19.671875 72.90625 
L 19.671875 5.078125 
Q 19.671875 -8.109375 14.671875 -14.0625 
Q 9.671875 -20.015625 -1.421875 -20.015625 
L -5.171875 -20.015625 
L -5.171875 -11.71875 
L -2.09375 -11.71875 
Q 4.4375 -11.71875 7.125 -8.046875 
Q 9.8125 -4.390625 9.8125 5.078125 
z
" id="DejaVuSans-74"/>
      <path d="M 9.421875 75.984375 
L 18.40625 75.984375 
L 18.40625 0 
L 9.421875 0 
z
" id="DejaVuSans-108"/>
      <path d="M 50.984375 -16.609375 
L 50.984375 -23.578125 
L -0.984375 -23.578125 
L -0.984375 -16.609375 
z
" id="DejaVuSans-95"/>
      <path d="M 8.203125 72.90625 
L 55.078125 72.90625 
L 55.078125 68.703125 
L 28.609375 0 
L 18.3125 0 
L 43.21875 64.59375 
L 8.203125 64.59375 
z
" id="DejaVuSans-55"/>
      <path d="M 9.8125 72.90625 
L 55.90625 72.90625 
L 55.90625 64.59375 
L 19.671875 64.59375 
L 19.671875 43.015625 
L 54.390625 43.015625 
L 54.390625 34.71875 
L 19.671875 34.71875 
L 19.671875 8.296875 
L 56.78125 8.296875 
L 56.78125 0 
L 9.8125 0 
z
" id="DejaVuSans-69"/>
      <path d="M 54.890625 54.6875 
L 35.109375 28.078125 
L 55.90625 0 
L 45.3125 0 
L 29.390625 21.484375 
L 13.484375 0 
L 2.875 0 
L 24.125 28.609375 
L 4.6875 54.6875 
L 15.28125 54.6875 
L 29.78125 35.203125 
L 44.28125 54.6875 
z
" id="DejaVuSans-120"/>
      <path d="M 9.8125 72.90625 
L 19.671875 72.90625 
L 19.671875 8.296875 
L 55.171875 8.296875 
L 55.171875 0 
L 9.8125 0 
z
" id="DejaVuSans-76"/>
     </defs>
     <g transform="translate(93.108125 306.290394)scale(0.08 -0.08)">
      <use xlink:href="#DejaVuSans-72"/>
      <use x="75.195312" xlink:href="#DejaVuSans-116"/>
      <use x="114.404297" xlink:href="#DejaVuSans-101"/>
      <use x="175.927734" xlink:href="#DejaVuSans-45"/>
      <use x="212.011719" xlink:href="#DejaVuSans-67"/>
      <use x="281.835938" xlink:href="#DejaVuSans-74"/>
      <use x="311.328125" xlink:href="#DejaVuSans-111"/>
      <use x="372.509766" xlink:href="#DejaVuSans-108"/>
      <use x="400.292969" xlink:href="#DejaVuSans-95"/>
      <use x="450.292969" xlink:href="#DejaVuSans-48"/>
      <use x="513.916016" xlink:href="#DejaVuSans-56"/>
      <use x="577.539062" xlink:href="#DejaVuSans-55"/>
      <use x="641.162109" xlink:href="#DejaVuSans-45"/>
      <use x="677.246094" xlink:href="#DejaVuSans-69"/>
      <use x="740.429688" xlink:href="#DejaVuSans-120"/>
      <use x="799.609375" xlink:href="#DejaVuSans-49"/>
      <use x="863.232422" xlink:href="#DejaVuSans-45"/>
      <use x="899.316406" xlink:href="#DejaVuSans-50"/>
      <use x="962.939453" xlink:href="#DejaVuSans-72"/>
      <use x="1038.134766" xlink:href="#DejaVuSans-45"/>
      <use x="1074.21875" xlink:href="#DejaVuSans-83"/>
      <use x="1137.695312" xlink:href="#DejaVuSans-83"/>
      <use x="1201.171875" xlink:href="#DejaVuSans-76"/>
      <use x="1256.869141" xlink:href="#DejaVuSans-45"/>
      <use x="1292.953125" xlink:href="#DejaVuSans-49"/>
      <use x="1356.576172" xlink:href="#DejaVuSans-45"/>
      <use x="1392.660156" xlink:href="#DejaVuSans-49"/>
      <use x="1456.283203" xlink:href="#DejaVuSans-45"/>
      <use x="1492.367188" xlink:href="#DejaVuSans-76"/>
      <use x="1548.080078" xlink:href="#DejaVuSans-52"/>
      <use x="1611.703125" xlink:href="#DejaVuSans-45"/>
      <use x="1647.787109" xlink:href="#DejaVuSans-49"/>
     </g>
    </g>
    <g id="line2d_21">
     <path d="M 70.708125 315.455394 
L 86.708125 315.455394 
" style="fill:none;stroke:#d9534f;stroke-linecap:square;"/>
    </g>
    <g id="line2d_22"/>
    <g id="text_20">
     <!-- Hte-CJol_087-Ex1-2H-SSL-1-1-L4-2 -->
     <g transform="translate(93.108125 318.255394)scale(0.08 -0.08)">
      <use xlink:href="#DejaVuSans-72"/>
      <use x="75.195312" xlink:href="#DejaVuSans-116"/>
      <use x="114.404297" xlink:href="#DejaVuSans-101"/>
      <use x="175.927734" xlink:href="#DejaVuSans-45"/>
      <use x="212.011719" xlink:href="#DejaVuSans-67"/>
      <use x="281.835938" xlink:href="#DejaVuSans-74"/>
      <use x="311.328125" xlink:href="#DejaVuSans-111"/>
      <use x="372.509766" xlink:href="#DejaVuSans-108"/>
      <use x="400.292969" xlink:href="#DejaVuSans-95"/>
      <use x="450.292969" xlink:href="#DejaVuSans-48"/>
      <use x="513.916016" xlink:href="#DejaVuSans-56"/>
      <use x="577.539062" xlink:href="#DejaVuSans-55"/>
      <use x="641.162109" xlink:href="#DejaVuSans-45"/>
      <use x="677.246094" xlink:href="#DejaVuSans-69"/>
      <use x="740.429688" xlink:href="#DejaVuSans-120"/>
      <use x="799.609375" xlink:href="#DejaVuSans-49"/>
      <use x="863.232422" xlink:href="#DejaVuSans-45"/>
      <use x="899.316406" xlink:href="#DejaVuSans-50"/>
      <use x="962.939453" xlink:href="#DejaVuSans-72"/>
      <use x="1038.134766" xlink:href="#DejaVuSans-45"/>
      <use x="1074.21875" xlink:href="#DejaVuSans-83"/>
      <use x="1137.695312" xlink:href="#DejaVuSans-83"/>
      <use x="1201.171875" xlink:href="#DejaVuSans-76"/>
      <use x="1256.869141" xlink:href="#DejaVuSans-45"/>
      <use x="1292.953125" xlink:href="#DejaVuSans-49"/>
      <use x="1356.576172" xlink:href="#DejaVuSans-45"/>
      <use x="1392.660156" xlink:href="#DejaVuSans-49"/>
      <use x="1456.283203" xlink:href="#DejaVuSans-45"/>
      <use x="1492.367188" xlink:href="#DejaVuSans-76"/>
      <use x="1548.080078" xlink:href="#DejaVuSans-52"/>
      <use x="1611.703125" xlink:href="#DejaVuSans-45"/>
      <use x="1647.787109" xlink:href="#DejaVuSans-50"/>
     </g>
    </g>
    <g id="line2d_23">
     <path d="M 254.420937 303.490394 
L 270.420937 303.490394 
" style="fill:none;stroke:#f0ad4e;stroke-linecap:square;"/>
    </g>
    <g id="line2d_24"/>
    <g id="text_21">
     <!-- Hte-CJol_087-Ex1-2H-SSL-1-1-L5-1 -->
     <defs>
      <path d="M 10.796875 72.90625 
L 49.515625 72.90625 
L 49.515625 64.59375 
L 19.828125 64.59375 
L 19.828125 46.734375 
Q 21.96875 47.46875 24.109375 47.828125 
Q 26.265625 48.1875 28.421875 48.1875 
Q 40.625 48.1875 47.75 41.5 
Q 54.890625 34.8125 54.890625 23.390625 
Q 54.890625 11.625 47.5625 5.09375 
Q 40.234375 -1.421875 26.90625 -1.421875 
Q 22.3125 -1.421875 17.546875 -0.640625 
Q 12.796875 0.140625 7.71875 1.703125 
L 7.71875 11.625 
Q 12.109375 9.234375 16.796875 8.0625 
Q 21.484375 6.890625 26.703125 6.890625 
Q 35.15625 6.890625 40.078125 11.328125 
Q 45.015625 15.765625 45.015625 23.390625 
Q 45.015625 31 40.078125 35.4375 
Q 35.15625 39.890625 26.703125 39.890625 
Q 22.75 39.890625 18.8125 39.015625 
Q 14.890625 38.140625 10.796875 36.28125 
z
" id="DejaVuSans-53"/>
     </defs>
     <g transform="translate(276.820937 306.290394)scale(0.08 -0.08)">
      <use xlink:href="#DejaVuSans-72"/>
      <use x="75.195312" xlink:href="#DejaVuSans-116"/>
      <use x="114.404297" xlink:href="#DejaVuSans-101"/>
      <use x="175.927734" xlink:href="#DejaVuSans-45"/>
      <use x="212.011719" xlink:href="#DejaVuSans-67"/>
      <use x="281.835938" xlink:href="#DejaVuSans-74"/>
      <use x="311.328125" xlink:href="#DejaVuSans-111"/>
      <use x="372.509766" xlink:href="#DejaVuSans-108"/>
      <use x="400.292969" xlink:href="#DejaVuSans-95"/>
      <use x="450.292969" xlink:href="#DejaVuSans-48"/>
      <use x="513.916016" xlink:href="#DejaVuSans-56"/>
      <use x="577.539062" xlink:href="#DejaVuSans-55"/>
      <use x="641.162109" xlink:href="#DejaVuSans-45"/>
      <use x="677.246094" xlink:href="#DejaVuSans-69"/>
      <use x="740.429688" xlink:href="#DejaVuSans-120"/>
      <use x="799.609375" xlink:href="#DejaVuSans-49"/>
      <use x="863.232422" xlink:href="#DejaVuSans-45"/>
      <use x="899.316406" xlink:href="#DejaVuSans-50"/>
      <use x="962.939453" xlink:href="#DejaVuSans-72"/>
      <use x="1038.134766" xlink:href="#DejaVuSans-45"/>
      <use x="1074.21875" xlink:href="#DejaVuSans-83"/>
      <use x="1137.695312" xlink:href="#DejaVuSans-83"/>
      <use x="1201.171875" xlink:href="#DejaVuSans-76"/>
      <use x="1256.869141" xlink:href="#DejaVuSans-45"/>
      <use x="1292.953125" xlink:href="#DejaVuSans-49"/>
      <use x="1356.576172" xlink:href="#DejaVuSans-45"/>
      <use x="1392.660156" xlink:href="#DejaVuSans-49"/>
      <use x="1456.283203" xlink:href="#DejaVuSans-45"/>
      <use x="1492.367188" xlink:href="#DejaVuSans-76"/>
      <use x="1548.080078" xlink:href="#DejaVuSans-53"/>
      <use x="1611.703125" xlink:href="#DejaVuSans-45"/>
      <use x="1647.787109" xlink:href="#DejaVuSans-49"/>
     </g>
    </g>
    <g id="line2d_25">
     <path d="M 254.420937 315.455394 
L 270.420937 315.455394 
" style="fill:none;stroke:#d9534f;stroke-linecap:square;"/>
    </g>
    <g id="line2d_26"/>
    <g id="text_22">
     <!-- Hte-CJol_087-Ex1-2H-SSL-1-1-L5-2 -->
     <g transform="translate(276.820937 318.255394)scale(0.08 -0.08)">
      <use xlink:href="#DejaVuSans-72"/>
      <use x="75.195312" xlink:href="#DejaVuSans-116"/>
      <use x="114.404297" xlink:href="#DejaVuSans-101"/>
      <use x="175.927734" xlink:href="#DejaVuSans-45"/>
      <use x="212.011719" xlink:href="#DejaVuSans-67"/>
      <use x="281.835938" xlink:href="#DejaVuSans-74"/>
      <use x="311.328125" xlink:href="#DejaVuSans-111"/>
      <use x="372.509766" xlink:href="#DejaVuSans-108"/>
      <use x="400.292969" xlink:href="#DejaVuSans-95"/>
      <use x="450.292969" xlink:href="#DejaVuSans-48"/>
      <use x="513.916016" xlink:href="#DejaVuSans-56"/>
      <use x="577.539062" xlink:href="#DejaVuSans-55"/>
      <use x="641.162109" xlink:href="#DejaVuSans-45"/>
      <use x="677.246094" xlink:href="#DejaVuSans-69"/>
      <use x="740.429688" xlink:href="#DejaVuSans-120"/>
      <use x="799.609375" xlink:href="#DejaVuSans-49"/>
      <use x="863.232422" xlink:href="#DejaVuSans-45"/>
      <use x="899.316406" xlink:href="#DejaVuSans-50"/>
      <use x="962.939453" xlink:href="#DejaVuSans-72"/>
      <use x="1038.134766" xlink:href="#DejaVuSans-45"/>
      <use x="1074.21875" xlink:href="#DejaVuSans-83"/>
      <use x="1137.695312" xlink:href="#DejaVuSans-83"/>
      <use x="1201.171875" xlink:href="#DejaVuSans-76"/>
      <use x="1256.869141" xlink:href="#DejaVuSans-45"/>
      <use x="1292.953125" xlink:href="#DejaVuSans-49"/>
      <use x="1356.576172" xlink:href="#DejaVuSans-45"/>
      <use x="1392.660156" xlink:href="#DejaVuSans-49"/>
      <use x="1456.283203" xlink:href="#DejaVuSans-45"/>
      <use x="1492.367188" xlink:href="#DejaVuSans-76"/>
      <use x="1548.080078" xlink:href="#DejaVuSans-53"/>
      <use x="1611.703125" xlink:href="#DejaVuSans-45"/>
      <use x="1647.787109" xlink:href="#DejaVuSans-50"/>
     </g>
    </g>
    <g id="line2d_27">
     <path d="M 438.13375 303.490394 
L 454.13375 303.490394 
" style="fill:none;stroke:#f0ad4e;stroke-linecap:square;"/>
    </g>
    <g id="line2d_28"/>
    <g id="text_23">
     <!-- Hte-CMvi_008-Ex1-3H-SSL-1-1-L4-1 -->
     <defs>
      <path d="M 9.8125 72.90625 
L 24.515625 72.90625 
L 43.109375 23.296875 
L 61.8125 72.90625 
L 76.515625 72.90625 
L 76.515625 0 
L 66.890625 0 
L 66.890625 64.015625 
L 48.09375 14.015625 
L 38.1875 14.015625 
L 19.390625 64.015625 
L 19.390625 0 
L 9.8125 0 
z
" id="DejaVuSans-77"/>
      <path d="M 2.984375 54.6875 
L 12.5 54.6875 
L 29.59375 8.796875 
L 46.6875 54.6875 
L 56.203125 54.6875 
L 35.6875 0 
L 23.484375 0 
z
" id="DejaVuSans-118"/>
      <path d="M 9.421875 54.6875 
L 18.40625 54.6875 
L 18.40625 0 
L 9.421875 0 
z
M 9.421875 75.984375 
L 18.40625 75.984375 
L 18.40625 64.59375 
L 9.421875 64.59375 
z
" id="DejaVuSans-105"/>
      <path d="M 40.578125 39.3125 
Q 47.65625 37.796875 51.625 33 
Q 55.609375 28.21875 55.609375 21.1875 
Q 55.609375 10.40625 48.1875 4.484375 
Q 40.765625 -1.421875 27.09375 -1.421875 
Q 22.515625 -1.421875 17.65625 -0.515625 
Q 12.796875 0.390625 7.625 2.203125 
L 7.625 11.71875 
Q 11.71875 9.328125 16.59375 8.109375 
Q 21.484375 6.890625 26.8125 6.890625 
Q 36.078125 6.890625 40.9375 10.546875 
Q 45.796875 14.203125 45.796875 21.1875 
Q 45.796875 27.640625 41.28125 31.265625 
Q 36.765625 34.90625 28.71875 34.90625 
L 20.21875 34.90625 
L 20.21875 43.015625 
L 29.109375 43.015625 
Q 36.375 43.015625 40.234375 45.921875 
Q 44.09375 48.828125 44.09375 54.296875 
Q 44.09375 59.90625 40.109375 62.90625 
Q 36.140625 65.921875 28.71875 65.921875 
Q 24.65625 65.921875 20.015625 65.03125 
Q 15.375 64.15625 9.8125 62.3125 
L 9.8125 71.09375 
Q 15.4375 72.65625 20.34375 73.4375 
Q 25.25 74.21875 29.59375 74.21875 
Q 40.828125 74.21875 47.359375 69.109375 
Q 53.90625 64.015625 53.90625 55.328125 
Q 53.90625 49.265625 50.4375 45.09375 
Q 46.96875 40.921875 40.578125 39.3125 
z
" id="DejaVuSans-51"/>
     </defs>
     <g transform="translate(460.53375 306.290394)scale(0.08 -0.08)">
      <use xlink:href="#DejaVuSans-72"/>
      <use x="75.195312" xlink:href="#DejaVuSans-116"/>
      <use x="114.404297" xlink:href="#DejaVuSans-101"/>
      <use x="175.927734" xlink:href="#DejaVuSans-45"/>
      <use x="212.011719" xlink:href="#DejaVuSans-67"/>
      <use x="281.835938" xlink:href="#DejaVuSans-77"/>
      <use x="368.115234" xlink:href="#DejaVuSans-118"/>
      <use x="427.294922" xlink:href="#DejaVuSans-105"/>
      <use x="455.078125" xlink:href="#DejaVuSans-95"/>
      <use x="505.078125" xlink:href="#DejaVuSans-48"/>
      <use x="568.701172" xlink:href="#DejaVuSans-48"/>
      <use x="632.324219" xlink:href="#DejaVuSans-56"/>
      <use x="695.947266" xlink:href="#DejaVuSans-45"/>
      <use x="732.03125" xlink:href="#DejaVuSans-69"/>
      <use x="795.214844" xlink:href="#DejaVuSans-120"/>
      <use x="854.394531" xlink:href="#DejaVuSans-49"/>
      <use x="918.017578" xlink:href="#DejaVuSans-45"/>
      <use x="954.101562" xlink:href="#DejaVuSans-51"/>
      <use x="1017.724609" xlink:href="#DejaVuSans-72"/>
      <use x="1092.919922" xlink:href="#DejaVuSans-45"/>
      <use x="1129.003906" xlink:href="#DejaVuSans-83"/>
      <use x="1192.480469" xlink:href="#DejaVuSans-83"/>
      <use x="1255.957031" xlink:href="#DejaVuSans-76"/>
      <use x="1311.654297" xlink:href="#DejaVuSans-45"/>
      <use x="1347.738281" xlink:href="#DejaVuSans-49"/>
      <use x="1411.361328" xlink:href="#DejaVuSans-45"/>
      <use x="1447.445312" xlink:href="#DejaVuSans-49"/>
      <use x="1511.068359" xlink:href="#DejaVuSans-45"/>
      <use x="1547.152344" xlink:href="#DejaVuSans-76"/>
      <use x="1602.865234" xlink:href="#DejaVuSans-52"/>
      <use x="1666.488281" xlink:href="#DejaVuSans-45"/>
      <use x="1702.572266" xlink:href="#DejaVuSans-49"/>
     </g>
    </g>
    <g id="line2d_29">
     <path d="M 438.13375 315.455394 
L 454.13375 315.455394 
" style="fill:none;stroke:#d9534f;stroke-linecap:square;"/>
    </g>
    <g id="line2d_30"/>
    <g id="text_24">
     <!-- Hte-CMvi_008-Ex1-3H-SSL-1-1-L4-2 -->
     <g transform="translate(460.53375 318.255394)scale(0.08 -0.08)">
      <use xlink:href="#DejaVuSans-72"/>
      <use x="75.195312" xlink:href="#DejaVuSans-116"/>
      <use x="114.404297" xlink:href="#DejaVuSans-101"/>
      <use x="175.927734" xlink:href="#DejaVuSans-45"/>
      <use x="212.011719" xlink:href="#DejaVuSans-67"/>
      <use x="281.835938" xlink:href="#DejaVuSans-77"/>
      <use x="368.115234" xlink:href="#DejaVuSans-118"/>
      <use x="427.294922" xlink:href="#DejaVuSans-105"/>
      <use x="455.078125" xlink:href="#DejaVuSans-95"/>
      <use x="505.078125" xlink:href="#DejaVuSans-48"/>
      <use x="568.701172" xlink:href="#DejaVuSans-48"/>
      <use x="632.324219" xlink:href="#DejaVuSans-56"/>
      <use x="695.947266" xlink:href="#DejaVuSans-45"/>
      <use x="732.03125" xlink:href="#DejaVuSans-69"/>
      <use x="795.214844" xlink:href="#DejaVuSans-120"/>
      <use x="854.394531" xlink:href="#DejaVuSans-49"/>
      <use x="918.017578" xlink:href="#DejaVuSans-45"/>
      <use x="954.101562" xlink:href="#DejaVuSans-51"/>
      <use x="1017.724609" xlink:href="#DejaVuSans-72"/>
      <use x="1092.919922" xlink:href="#DejaVuSans-45"/>
      <use x="1129.003906" xlink:href="#DejaVuSans-83"/>
      <use x="1192.480469" xlink:href="#DejaVuSans-83"/>
      <use x="1255.957031" xlink:href="#DejaVuSans-76"/>
      <use x="1311.654297" xlink:href="#DejaVuSans-45"/>
      <use x="1347.738281" xlink:href="#DejaVuSans-49"/>
      <use x="1411.361328" xlink:href="#DejaVuSans-45"/>
      <use x="1447.445312" xlink:href="#DejaVuSans-49"/>
      <use x="1511.068359" xlink:href="#DejaVuSans-45"/>
      <use x="1547.152344" xlink:href="#DejaVuSans-76"/>
      <use x="1602.865234" xlink:href="#DejaVuSans-52"/>
      <use x="1666.488281" xlink:href="#DejaVuSans-45"/>
      <use x="1702.572266" xlink:href="#DejaVuSans-50"/>
     </g>
    </g>
    <g id="line2d_31">
     <path d="M 626.229062 303.490394 
L 642.229062 303.490394 
" style="fill:none;stroke:#f0ad4e;stroke-linecap:square;"/>
    </g>
    <g id="line2d_32"/>
    <g id="text_25">
     <!-- Hte-CMvi_008-Ex1-3H-SSL-1-1-L5-1 -->
     <g transform="translate(648.629062 306.290394)scale(0.08 -0.08)">
      <use xlink:href="#DejaVuSans-72"/>
      <use x="75.195312" xlink:href="#DejaVuSans-116"/>
      <use x="114.404297" xlink:href="#DejaVuSans-101"/>
      <use x="175.927734" xlink:href="#DejaVuSans-45"/>
      <use x="212.011719" xlink:href="#DejaVuSans-67"/>
      <use x="281.835938" xlink:href="#DejaVuSans-77"/>
      <use x="368.115234" xlink:href="#DejaVuSans-118"/>
      <use x="427.294922" xlink:href="#DejaVuSans-105"/>
      <use x="455.078125" xlink:href="#DejaVuSans-95"/>
      <use x="505.078125" xlink:href="#DejaVuSans-48"/>
      <use x="568.701172" xlink:href="#DejaVuSans-48"/>
      <use x="632.324219" xlink:href="#DejaVuSans-56"/>
      <use x="695.947266" xlink:href="#DejaVuSans-45"/>
      <use x="732.03125" xlink:href="#DejaVuSans-69"/>
      <use x="795.214844" xlink:href="#DejaVuSans-120"/>
      <use x="854.394531" xlink:href="#DejaVuSans-49"/>
      <use x="918.017578" xlink:href="#DejaVuSans-45"/>
      <use x="954.101562" xlink:href="#DejaVuSans-51"/>
      <use x="1017.724609" xlink:href="#DejaVuSans-72"/>
      <use x="1092.919922" xlink:href="#DejaVuSans-45"/>
      <use x="1129.003906" xlink:href="#DejaVuSans-83"/>
      <use x="1192.480469" xlink:href="#DejaVuSans-83"/>
      <use x="1255.957031" xlink:href="#DejaVuSans-76"/>
      <use x="1311.654297" xlink:href="#DejaVuSans-45"/>
      <use x="1347.738281" xlink:href="#DejaVuSans-49"/>
      <use x="1411.361328" xlink:href="#DejaVuSans-45"/>
      <use x="1447.445312" xlink:href="#DejaVuSans-49"/>
      <use x="1511.068359" xlink:href="#DejaVuSans-45"/>
      <use x="1547.152344" xlink:href="#DejaVuSans-76"/>
      <use x="1602.865234" xlink:href="#DejaVuSans-53"/>
      <use x="1666.488281" xlink:href="#DejaVuSans-45"/>
      <use x="1702.572266" xlink:href="#DejaVuSans-49"/>
     </g>
    </g>
    <g id="line2d_33">
     <path d="M 814.324375 303.490394 
L 830.324375 303.490394 
" style="fill:none;stroke:#d9534f;stroke-linecap:square;"/>
    </g>
    <g id="line2d_34"/>
    <g id="text_26">
     <!-- Hte-CMvi_008-Ex1-3H-SSL-1-1-L5-2 -->
     <g transform="translate(836.724375 306.290394)scale(0.08 -0.08)">
      <use xlink:href="#DejaVuSans-72"/>
      <use x="75.195312" xlink:href="#DejaVuSans-116"/>
      <use x="114.404297" xlink:href="#DejaVuSans-101"/>
      <use x="175.927734" xlink:href="#DejaVuSans-45"/>
      <use x="212.011719" xlink:href="#DejaVuSans-67"/>
      <use x="281.835938" xlink:href="#DejaVuSans-77"/>
      <use x="368.115234" xlink:href="#DejaVuSans-118"/>
      <use x="427.294922" xlink:href="#DejaVuSans-105"/>
      <use x="455.078125" xlink:href="#DejaVuSans-95"/>
      <use x="505.078125" xlink:href="#DejaVuSans-48"/>
      <use x="568.701172" xlink:href="#DejaVuSans-48"/>
      <use x="632.324219" xlink:href="#DejaVuSans-56"/>
      <use x="695.947266" xlink:href="#DejaVuSans-45"/>
      <use x="732.03125" xlink:href="#DejaVuSans-69"/>
      <use x="795.214844" xlink:href="#DejaVuSans-120"/>
      <use x="854.394531" xlink:href="#DejaVuSans-49"/>
      <use x="918.017578" xlink:href="#DejaVuSans-45"/>
      <use x="954.101562" xlink:href="#DejaVuSans-51"/>
      <use x="1017.724609" xlink:href="#DejaVuSans-72"/>
      <use x="1092.919922" xlink:href="#DejaVuSans-45"/>
      <use x="1129.003906" xlink:href="#DejaVuSans-83"/>
      <use x="1192.480469" xlink:href="#DejaVuSans-83"/>
      <use x="1255.957031" xlink:href="#DejaVuSans-76"/>
      <use x="1311.654297" xlink:href="#DejaVuSans-45"/>
      <use x="1347.738281" xlink:href="#DejaVuSans-49"/>
      <use x="1411.361328" xlink:href="#DejaVuSans-45"/>
      <use x="1447.445312" xlink:href="#DejaVuSans-49"/>
      <use x="1511.068359" xlink:href="#DejaVuSans-45"/>
      <use x="1547.152344" xlink:href="#DejaVuSans-76"/>
      <use x="1602.865234" xlink:href="#DejaVuSans-53"/>
      <use x="1666.488281" xlink:href="#DejaVuSans-45"/>
      <use x="1702.572266" xlink:href="#DejaVuSans-50"/>
     </g>
    </g>
   </g>
  </g>
 </g>
 <defs>
  <clipPath id="pde12136b9f">
   <rect height="242.5072" width="921.715" x="63.508125" y="31.48286"/>
  </clipPath>
 </defs>
</svg>
