<?xml version="1.0" encoding="utf-8" standalone="no"?>
<!DOCTYPE svg PUBLIC "-//W3C//DTD SVG 1.1//EN"
  "http://www.w3.org/Graphics/SVG/1.1/DTD/svg11.dtd">
<!-- Created with matplotlib (https://matplotlib.org/) -->
<svg height="330.541644pt" version="1.1" viewBox="0 0 1000.298125 330.541644" width="1000.298125pt" xmlns="http://www.w3.org/2000/svg" xmlns:xlink="http://www.w3.org/1999/xlink">
 <defs>
  <style type="text/css">
*{stroke-linecap:butt;stroke-linejoin:round;}
  </style>
 </defs>
 <g id="figure_1">
  <g id="axes_1">
   <g id="patch_1">
    <path d="M 32.968125 273.99006 
L 985.463125 273.99006 
L 985.463125 31.48286 
L 32.968125 31.48286 
z
" style="fill:#ffffff;"/>
   </g>
   <g id="matplotlib.axis_1">
    <g id="xtick_1">
     <g id="text_1">
      <!-- 0 -->
      <defs>
       <path d="M 31.78125 66.40625 
Q 24.171875 66.40625 20.328125 58.90625 
Q 16.5 51.421875 16.5 36.375 
Q 16.5 21.390625 20.328125 13.890625 
Q 24.171875 6.390625 31.78125 6.390625 
Q 39.453125 6.390625 43.28125 13.890625 
Q 47.125 21.390625 47.125 36.375 
Q 47.125 51.421875 43.28125 58.90625 
Q 39.453125 66.40625 31.78125 66.40625 
z
M 31.78125 74.21875 
Q 44.046875 74.21875 50.515625 64.515625 
Q 56.984375 54.828125 56.984375 36.375 
Q 56.984375 17.96875 50.515625 8.265625 
Q 44.046875 -1.421875 31.78125 -1.421875 
Q 19.53125 -1.421875 13.0625 8.265625 
Q 6.59375 17.96875 6.59375 36.375 
Q 6.59375 54.828125 13.0625 64.515625 
Q 19.53125 74.21875 31.78125 74.21875 
z
" id="DejaVuSans-48"/>
      </defs>
      <g transform="translate(30.423125 287.06881)scale(0.08 -0.08)">
       <use xlink:href="#DejaVuSans-48"/>
      </g>
     </g>
    </g>
    <g id="xtick_2">
     <g id="text_2">
      <!-- 20 -->
      <defs>
       <path d="M 19.1875 8.296875 
L 53.609375 8.296875 
L 53.609375 0 
L 7.328125 0 
L 7.328125 8.296875 
Q 12.9375 14.109375 22.625 23.890625 
Q 32.328125 33.6875 34.8125 36.53125 
Q 39.546875 41.84375 41.421875 45.53125 
Q 43.3125 49.21875 43.3125 52.78125 
Q 43.3125 58.59375 39.234375 62.25 
Q 35.15625 65.921875 28.609375 65.921875 
Q 23.96875 65.921875 18.8125 64.3125 
Q 13.671875 62.703125 7.8125 59.421875 
L 7.8125 69.390625 
Q 13.765625 71.78125 18.9375 73 
Q 24.125 74.21875 28.421875 74.21875 
Q 39.75 74.21875 46.484375 68.546875 
Q 53.21875 62.890625 53.21875 53.421875 
Q 53.21875 48.921875 51.53125 44.890625 
Q 49.859375 40.875 45.40625 35.40625 
Q 44.1875 33.984375 37.640625 27.21875 
Q 31.109375 20.453125 19.1875 8.296875 
z
" id="DejaVuSans-50"/>
      </defs>
      <g transform="translate(218.377125 287.06881)scale(0.08 -0.08)">
       <use xlink:href="#DejaVuSans-50"/>
       <use x="63.623047" xlink:href="#DejaVuSans-48"/>
      </g>
     </g>
    </g>
    <g id="xtick_3">
     <g id="text_3">
      <!-- 40 -->
      <defs>
       <path d="M 37.796875 64.3125 
L 12.890625 25.390625 
L 37.796875 25.390625 
z
M 35.203125 72.90625 
L 47.609375 72.90625 
L 47.609375 25.390625 
L 58.015625 25.390625 
L 58.015625 17.1875 
L 47.609375 17.1875 
L 47.609375 0 
L 37.796875 0 
L 37.796875 17.1875 
L 4.890625 17.1875 
L 4.890625 26.703125 
z
" id="DejaVuSans-52"/>
      </defs>
      <g transform="translate(408.876125 287.06881)scale(0.08 -0.08)">
       <use xlink:href="#DejaVuSans-52"/>
       <use x="63.623047" xlink:href="#DejaVuSans-48"/>
      </g>
     </g>
    </g>
    <g id="xtick_4">
     <g id="text_4">
      <!-- 60 -->
      <defs>
       <path d="M 33.015625 40.375 
Q 26.375 40.375 22.484375 35.828125 
Q 18.609375 31.296875 18.609375 23.390625 
Q 18.609375 15.53125 22.484375 10.953125 
Q 26.375 6.390625 33.015625 6.390625 
Q 39.65625 6.390625 43.53125 10.953125 
Q 47.40625 15.53125 47.40625 23.390625 
Q 47.40625 31.296875 43.53125 35.828125 
Q 39.65625 40.375 33.015625 40.375 
z
M 52.59375 71.296875 
L 52.59375 62.3125 
Q 48.875 64.0625 45.09375 64.984375 
Q 41.3125 65.921875 37.59375 65.921875 
Q 27.828125 65.921875 22.671875 59.328125 
Q 17.53125 52.734375 16.796875 39.40625 
Q 19.671875 43.65625 24.015625 45.921875 
Q 28.375 48.1875 33.59375 48.1875 
Q 44.578125 48.1875 50.953125 41.515625 
Q 57.328125 34.859375 57.328125 23.390625 
Q 57.328125 12.15625 50.6875 5.359375 
Q 44.046875 -1.421875 33.015625 -1.421875 
Q 20.359375 -1.421875 13.671875 8.265625 
Q 6.984375 17.96875 6.984375 36.375 
Q 6.984375 53.65625 15.1875 63.9375 
Q 23.390625 74.21875 37.203125 74.21875 
Q 40.921875 74.21875 44.703125 73.484375 
Q 48.484375 72.75 52.59375 71.296875 
z
" id="DejaVuSans-54"/>
      </defs>
      <g transform="translate(599.375125 287.06881)scale(0.08 -0.08)">
       <use xlink:href="#DejaVuSans-54"/>
       <use x="63.623047" xlink:href="#DejaVuSans-48"/>
      </g>
     </g>
    </g>
    <g id="xtick_5">
     <g id="text_5">
      <!-- 80 -->
      <defs>
       <path d="M 31.78125 34.625 
Q 24.75 34.625 20.71875 30.859375 
Q 16.703125 27.09375 16.703125 20.515625 
Q 16.703125 13.921875 20.71875 10.15625 
Q 24.75 6.390625 31.78125 6.390625 
Q 38.8125 6.390625 42.859375 10.171875 
Q 46.921875 13.96875 46.921875 20.515625 
Q 46.921875 27.09375 42.890625 30.859375 
Q 38.875 34.625 31.78125 34.625 
z
M 21.921875 38.8125 
Q 15.578125 40.375 12.03125 44.71875 
Q 8.5 49.078125 8.5 55.328125 
Q 8.5 64.0625 14.71875 69.140625 
Q 20.953125 74.21875 31.78125 74.21875 
Q 42.671875 74.21875 48.875 69.140625 
Q 55.078125 64.0625 55.078125 55.328125 
Q 55.078125 49.078125 51.53125 44.71875 
Q 48 40.375 41.703125 38.8125 
Q 48.828125 37.15625 52.796875 32.3125 
Q 56.78125 27.484375 56.78125 20.515625 
Q 56.78125 9.90625 50.3125 4.234375 
Q 43.84375 -1.421875 31.78125 -1.421875 
Q 19.734375 -1.421875 13.25 4.234375 
Q 6.78125 9.90625 6.78125 20.515625 
Q 6.78125 27.484375 10.78125 32.3125 
Q 14.796875 37.15625 21.921875 38.8125 
z
M 18.3125 54.390625 
Q 18.3125 48.734375 21.84375 45.5625 
Q 25.390625 42.390625 31.78125 42.390625 
Q 38.140625 42.390625 41.71875 45.5625 
Q 45.3125 48.734375 45.3125 54.390625 
Q 45.3125 60.0625 41.71875 63.234375 
Q 38.140625 66.40625 31.78125 66.40625 
Q 25.390625 66.40625 21.84375 63.234375 
Q 18.3125 60.0625 18.3125 54.390625 
z
" id="DejaVuSans-56"/>
      </defs>
      <g transform="translate(789.874125 287.06881)scale(0.08 -0.08)">
       <use xlink:href="#DejaVuSans-56"/>
       <use x="63.623047" xlink:href="#DejaVuSans-48"/>
      </g>
     </g>
    </g>
    <g id="xtick_6">
     <g id="text_6">
      <!-- 100 -->
      <defs>
       <path d="M 12.40625 8.296875 
L 28.515625 8.296875 
L 28.515625 63.921875 
L 10.984375 60.40625 
L 10.984375 69.390625 
L 28.421875 72.90625 
L 38.28125 72.90625 
L 38.28125 8.296875 
L 54.390625 8.296875 
L 54.390625 0 
L 12.40625 0 
z
" id="DejaVuSans-49"/>
      </defs>
      <g transform="translate(977.828125 287.06881)scale(0.08 -0.08)">
       <use xlink:href="#DejaVuSans-49"/>
       <use x="63.623047" xlink:href="#DejaVuSans-48"/>
       <use x="127.246094" xlink:href="#DejaVuSans-48"/>
      </g>
     </g>
    </g>
    <g id="text_7">
     <!-- % GC -->
     <defs>
      <path d="M 72.703125 32.078125 
Q 68.453125 32.078125 66.03125 28.46875 
Q 63.625 24.859375 63.625 18.40625 
Q 63.625 12.0625 66.03125 8.421875 
Q 68.453125 4.78125 72.703125 4.78125 
Q 76.859375 4.78125 79.265625 8.421875 
Q 81.6875 12.0625 81.6875 18.40625 
Q 81.6875 24.8125 79.265625 28.4375 
Q 76.859375 32.078125 72.703125 32.078125 
z
M 72.703125 38.28125 
Q 80.421875 38.28125 84.953125 32.90625 
Q 89.5 27.546875 89.5 18.40625 
Q 89.5 9.28125 84.9375 3.921875 
Q 80.375 -1.421875 72.703125 -1.421875 
Q 64.890625 -1.421875 60.34375 3.921875 
Q 55.8125 9.28125 55.8125 18.40625 
Q 55.8125 27.59375 60.375 32.9375 
Q 64.9375 38.28125 72.703125 38.28125 
z
M 22.3125 68.015625 
Q 18.109375 68.015625 15.6875 64.375 
Q 13.28125 60.75 13.28125 54.390625 
Q 13.28125 47.953125 15.671875 44.328125 
Q 18.0625 40.71875 22.3125 40.71875 
Q 26.5625 40.71875 28.96875 44.328125 
Q 31.390625 47.953125 31.390625 54.390625 
Q 31.390625 60.6875 28.953125 64.34375 
Q 26.515625 68.015625 22.3125 68.015625 
z
M 66.40625 74.21875 
L 74.21875 74.21875 
L 28.609375 -1.421875 
L 20.796875 -1.421875 
z
M 22.3125 74.21875 
Q 30.03125 74.21875 34.609375 68.875 
Q 39.203125 63.53125 39.203125 54.390625 
Q 39.203125 45.171875 34.640625 39.84375 
Q 30.078125 34.515625 22.3125 34.515625 
Q 14.546875 34.515625 10.03125 39.859375 
Q 5.515625 45.21875 5.515625 54.390625 
Q 5.515625 63.484375 10.046875 68.84375 
Q 14.59375 74.21875 22.3125 74.21875 
z
" id="DejaVuSans-37"/>
      <path id="DejaVuSans-32"/>
      <path d="M 59.515625 10.40625 
L 59.515625 29.984375 
L 43.40625 29.984375 
L 43.40625 38.09375 
L 69.28125 38.09375 
L 69.28125 6.78125 
Q 63.578125 2.734375 56.6875 0.65625 
Q 49.8125 -1.421875 42 -1.421875 
Q 24.90625 -1.421875 15.25 8.5625 
Q 5.609375 18.5625 5.609375 36.375 
Q 5.609375 54.25 15.25 64.234375 
Q 24.90625 74.21875 42 74.21875 
Q 49.125 74.21875 55.546875 72.453125 
Q 61.96875 70.703125 67.390625 67.28125 
L 67.390625 56.78125 
Q 61.921875 61.421875 55.765625 63.765625 
Q 49.609375 66.109375 42.828125 66.109375 
Q 29.4375 66.109375 22.71875 58.640625 
Q 16.015625 51.171875 16.015625 36.375 
Q 16.015625 21.625 22.71875 14.15625 
Q 29.4375 6.6875 42.828125 6.6875 
Q 48.046875 6.6875 52.140625 7.59375 
Q 56.25 8.5 59.515625 10.40625 
z
" id="DejaVuSans-71"/>
      <path d="M 64.40625 67.28125 
L 64.40625 56.890625 
Q 59.421875 61.53125 53.78125 63.8125 
Q 48.140625 66.109375 41.796875 66.109375 
Q 29.296875 66.109375 22.65625 58.46875 
Q 16.015625 50.828125 16.015625 36.375 
Q 16.015625 21.96875 22.65625 14.328125 
Q 29.296875 6.6875 41.796875 6.6875 
Q 48.140625 6.6875 53.78125 8.984375 
Q 59.421875 11.28125 64.40625 15.921875 
L 64.40625 5.609375 
Q 59.234375 2.09375 53.4375 0.328125 
Q 47.65625 -1.421875 41.21875 -1.421875 
Q 24.65625 -1.421875 15.125 8.703125 
Q 5.609375 18.84375 5.609375 36.375 
Q 5.609375 53.953125 15.125 64.078125 
Q 24.65625 74.21875 41.21875 74.21875 
Q 47.75 74.21875 53.53125 72.484375 
Q 59.328125 70.75 64.40625 67.28125 
z
" id="DejaVuSans-67"/>
     </defs>
     <g transform="translate(495.510156 300.330997)scale(0.1 -0.1)">
      <use xlink:href="#DejaVuSans-37"/>
      <use x="95.019531" xlink:href="#DejaVuSans-32"/>
      <use x="126.806641" xlink:href="#DejaVuSans-71"/>
      <use x="204.296875" xlink:href="#DejaVuSans-67"/>
     </g>
    </g>
   </g>
   <g id="matplotlib.axis_2">
    <g id="ytick_1">
     <g id="line2d_1">
      <path clip-path="url(#pf6045c1d95)" d="M 32.968125 273.99006 
L 985.463125 273.99006 
" style="fill:none;stroke:#dedede;stroke-linecap:square;"/>
     </g>
     <g id="text_8">
      <!-- 0 -->
      <g transform="translate(20.878125 277.029435)scale(0.08 -0.08)">
       <use xlink:href="#DejaVuSans-48"/>
      </g>
     </g>
    </g>
    <g id="ytick_2">
     <g id="line2d_2">
      <path clip-path="url(#pf6045c1d95)" d="M 32.968125 227.540343 
L 985.463125 227.540343 
" style="fill:none;stroke:#dedede;stroke-linecap:square;"/>
     </g>
     <g id="text_9">
      <!-- 1 -->
      <g transform="translate(20.878125 230.579718)scale(0.08 -0.08)">
       <use xlink:href="#DejaVuSans-49"/>
      </g>
     </g>
    </g>
    <g id="ytick_3">
     <g id="line2d_3">
      <path clip-path="url(#pf6045c1d95)" d="M 32.968125 181.090625 
L 985.463125 181.090625 
" style="fill:none;stroke:#dedede;stroke-linecap:square;"/>
     </g>
     <g id="text_10">
      <!-- 2 -->
      <g transform="translate(20.878125 184.13)scale(0.08 -0.08)">
       <use xlink:href="#DejaVuSans-50"/>
      </g>
     </g>
    </g>
    <g id="ytick_4">
     <g id="line2d_4">
      <path clip-path="url(#pf6045c1d95)" d="M 32.968125 134.640908 
L 985.463125 134.640908 
" style="fill:none;stroke:#dedede;stroke-linecap:square;"/>
     </g>
     <g id="text_11">
      <!-- 3 -->
      <defs>
       <path d="M 40.578125 39.3125 
Q 47.65625 37.796875 51.625 33 
Q 55.609375 28.21875 55.609375 21.1875 
Q 55.609375 10.40625 48.1875 4.484375 
Q 40.765625 -1.421875 27.09375 -1.421875 
Q 22.515625 -1.421875 17.65625 -0.515625 
Q 12.796875 0.390625 7.625 2.203125 
L 7.625 11.71875 
Q 11.71875 9.328125 16.59375 8.109375 
Q 21.484375 6.890625 26.8125 6.890625 
Q 36.078125 6.890625 40.9375 10.546875 
Q 45.796875 14.203125 45.796875 21.1875 
Q 45.796875 27.640625 41.28125 31.265625 
Q 36.765625 34.90625 28.71875 34.90625 
L 20.21875 34.90625 
L 20.21875 43.015625 
L 29.109375 43.015625 
Q 36.375 43.015625 40.234375 45.921875 
Q 44.09375 48.828125 44.09375 54.296875 
Q 44.09375 59.90625 40.109375 62.90625 
Q 36.140625 65.921875 28.71875 65.921875 
Q 24.65625 65.921875 20.015625 65.03125 
Q 15.375 64.15625 9.8125 62.3125 
L 9.8125 71.09375 
Q 15.4375 72.65625 20.34375 73.4375 
Q 25.25 74.21875 29.59375 74.21875 
Q 40.828125 74.21875 47.359375 69.109375 
Q 53.90625 64.015625 53.90625 55.328125 
Q 53.90625 49.265625 50.4375 45.09375 
Q 46.96875 40.921875 40.578125 39.3125 
z
" id="DejaVuSans-51"/>
      </defs>
      <g transform="translate(20.878125 137.680283)scale(0.08 -0.08)">
       <use xlink:href="#DejaVuSans-51"/>
      </g>
     </g>
    </g>
    <g id="ytick_5">
     <g id="line2d_5">
      <path clip-path="url(#pf6045c1d95)" d="M 32.968125 88.19119 
L 985.463125 88.19119 
" style="fill:none;stroke:#dedede;stroke-linecap:square;"/>
     </g>
     <g id="text_12">
      <!-- 4 -->
      <g transform="translate(20.878125 91.230565)scale(0.08 -0.08)">
       <use xlink:href="#DejaVuSans-52"/>
      </g>
     </g>
    </g>
    <g id="ytick_6">
     <g id="line2d_6">
      <path clip-path="url(#pf6045c1d95)" d="M 32.968125 41.741473 
L 985.463125 41.741473 
" style="fill:none;stroke:#dedede;stroke-linecap:square;"/>
     </g>
     <g id="text_13">
      <!-- 5 -->
      <defs>
       <path d="M 10.796875 72.90625 
L 49.515625 72.90625 
L 49.515625 64.59375 
L 19.828125 64.59375 
L 19.828125 46.734375 
Q 21.96875 47.46875 24.109375 47.828125 
Q 26.265625 48.1875 28.421875 48.1875 
Q 40.625 48.1875 47.75 41.5 
Q 54.890625 34.8125 54.890625 23.390625 
Q 54.890625 11.625 47.5625 5.09375 
Q 40.234375 -1.421875 26.90625 -1.421875 
Q 22.3125 -1.421875 17.546875 -0.640625 
Q 12.796875 0.140625 7.71875 1.703125 
L 7.71875 11.625 
Q 12.109375 9.234375 16.796875 8.0625 
Q 21.484375 6.890625 26.703125 6.890625 
Q 35.15625 6.890625 40.078125 11.328125 
Q 45.015625 15.765625 45.015625 23.390625 
Q 45.015625 31 40.078125 35.4375 
Q 35.15625 39.890625 26.703125 39.890625 
Q 22.75 39.890625 18.8125 39.015625 
Q 14.890625 38.140625 10.796875 36.28125 
z
" id="DejaVuSans-53"/>
      </defs>
      <g transform="translate(20.878125 44.780848)scale(0.08 -0.08)">
       <use xlink:href="#DejaVuSans-53"/>
      </g>
     </g>
    </g>
    <g id="text_14">
     <!-- Percentage -->
     <defs>
      <path d="M 19.671875 64.796875 
L 19.671875 37.40625 
L 32.078125 37.40625 
Q 38.96875 37.40625 42.71875 40.96875 
Q 46.484375 44.53125 46.484375 51.125 
Q 46.484375 57.671875 42.71875 61.234375 
Q 38.96875 64.796875 32.078125 64.796875 
z
M 9.8125 72.90625 
L 32.078125 72.90625 
Q 44.34375 72.90625 50.609375 67.359375 
Q 56.890625 61.8125 56.890625 51.125 
Q 56.890625 40.328125 50.609375 34.8125 
Q 44.34375 29.296875 32.078125 29.296875 
L 19.671875 29.296875 
L 19.671875 0 
L 9.8125 0 
z
" id="DejaVuSans-80"/>
      <path d="M 56.203125 29.59375 
L 56.203125 25.203125 
L 14.890625 25.203125 
Q 15.484375 15.921875 20.484375 11.0625 
Q 25.484375 6.203125 34.421875 6.203125 
Q 39.59375 6.203125 44.453125 7.46875 
Q 49.3125 8.734375 54.109375 11.28125 
L 54.109375 2.78125 
Q 49.265625 0.734375 44.1875 -0.34375 
Q 39.109375 -1.421875 33.890625 -1.421875 
Q 20.796875 -1.421875 13.15625 6.1875 
Q 5.515625 13.8125 5.515625 26.8125 
Q 5.515625 40.234375 12.765625 48.109375 
Q 20.015625 56 32.328125 56 
Q 43.359375 56 49.78125 48.890625 
Q 56.203125 41.796875 56.203125 29.59375 
z
M 47.21875 32.234375 
Q 47.125 39.59375 43.09375 43.984375 
Q 39.0625 48.390625 32.421875 48.390625 
Q 24.90625 48.390625 20.390625 44.140625 
Q 15.875 39.890625 15.1875 32.171875 
z
" id="DejaVuSans-101"/>
      <path d="M 41.109375 46.296875 
Q 39.59375 47.171875 37.8125 47.578125 
Q 36.03125 48 33.890625 48 
Q 26.265625 48 22.1875 43.046875 
Q 18.109375 38.09375 18.109375 28.8125 
L 18.109375 0 
L 9.078125 0 
L 9.078125 54.6875 
L 18.109375 54.6875 
L 18.109375 46.1875 
Q 20.953125 51.171875 25.484375 53.578125 
Q 30.03125 56 36.53125 56 
Q 37.453125 56 38.578125 55.875 
Q 39.703125 55.765625 41.0625 55.515625 
z
" id="DejaVuSans-114"/>
      <path d="M 48.78125 52.59375 
L 48.78125 44.1875 
Q 44.96875 46.296875 41.140625 47.34375 
Q 37.3125 48.390625 33.40625 48.390625 
Q 24.65625 48.390625 19.8125 42.84375 
Q 14.984375 37.3125 14.984375 27.296875 
Q 14.984375 17.28125 19.8125 11.734375 
Q 24.65625 6.203125 33.40625 6.203125 
Q 37.3125 6.203125 41.140625 7.25 
Q 44.96875 8.296875 48.78125 10.40625 
L 48.78125 2.09375 
Q 45.015625 0.34375 40.984375 -0.53125 
Q 36.96875 -1.421875 32.421875 -1.421875 
Q 20.0625 -1.421875 12.78125 6.34375 
Q 5.515625 14.109375 5.515625 27.296875 
Q 5.515625 40.671875 12.859375 48.328125 
Q 20.21875 56 33.015625 56 
Q 37.15625 56 41.109375 55.140625 
Q 45.0625 54.296875 48.78125 52.59375 
z
" id="DejaVuSans-99"/>
      <path d="M 54.890625 33.015625 
L 54.890625 0 
L 45.90625 0 
L 45.90625 32.71875 
Q 45.90625 40.484375 42.875 44.328125 
Q 39.84375 48.1875 33.796875 48.1875 
Q 26.515625 48.1875 22.3125 43.546875 
Q 18.109375 38.921875 18.109375 30.90625 
L 18.109375 0 
L 9.078125 0 
L 9.078125 54.6875 
L 18.109375 54.6875 
L 18.109375 46.1875 
Q 21.34375 51.125 25.703125 53.5625 
Q 30.078125 56 35.796875 56 
Q 45.21875 56 50.046875 50.171875 
Q 54.890625 44.34375 54.890625 33.015625 
z
" id="DejaVuSans-110"/>
      <path d="M 18.3125 70.21875 
L 18.3125 54.6875 
L 36.8125 54.6875 
L 36.8125 47.703125 
L 18.3125 47.703125 
L 18.3125 18.015625 
Q 18.3125 11.328125 20.140625 9.421875 
Q 21.96875 7.515625 27.59375 7.515625 
L 36.8125 7.515625 
L 36.8125 0 
L 27.59375 0 
Q 17.1875 0 13.234375 3.875 
Q 9.28125 7.765625 9.28125 18.015625 
L 9.28125 47.703125 
L 2.6875 47.703125 
L 2.6875 54.6875 
L 9.28125 54.6875 
L 9.28125 70.21875 
z
" id="DejaVuSans-116"/>
      <path d="M 34.28125 27.484375 
Q 23.390625 27.484375 19.1875 25 
Q 14.984375 22.515625 14.984375 16.5 
Q 14.984375 11.71875 18.140625 8.90625 
Q 21.296875 6.109375 26.703125 6.109375 
Q 34.1875 6.109375 38.703125 11.40625 
Q 43.21875 16.703125 43.21875 25.484375 
L 43.21875 27.484375 
z
M 52.203125 31.203125 
L 52.203125 0 
L 43.21875 0 
L 43.21875 8.296875 
Q 40.140625 3.328125 35.546875 0.953125 
Q 30.953125 -1.421875 24.3125 -1.421875 
Q 15.921875 -1.421875 10.953125 3.296875 
Q 6 8.015625 6 15.921875 
Q 6 25.140625 12.171875 29.828125 
Q 18.359375 34.515625 30.609375 34.515625 
L 43.21875 34.515625 
L 43.21875 35.40625 
Q 43.21875 41.609375 39.140625 45 
Q 35.0625 48.390625 27.6875 48.390625 
Q 23 48.390625 18.546875 47.265625 
Q 14.109375 46.140625 10.015625 43.890625 
L 10.015625 52.203125 
Q 14.9375 54.109375 19.578125 55.046875 
Q 24.21875 56 28.609375 56 
Q 40.484375 56 46.34375 49.84375 
Q 52.203125 43.703125 52.203125 31.203125 
z
" id="DejaVuSans-97"/>
      <path d="M 45.40625 27.984375 
Q 45.40625 37.75 41.375 43.109375 
Q 37.359375 48.484375 30.078125 48.484375 
Q 22.859375 48.484375 18.828125 43.109375 
Q 14.796875 37.75 14.796875 27.984375 
Q 14.796875 18.265625 18.828125 12.890625 
Q 22.859375 7.515625 30.078125 7.515625 
Q 37.359375 7.515625 41.375 12.890625 
Q 45.40625 18.265625 45.40625 27.984375 
z
M 54.390625 6.78125 
Q 54.390625 -7.171875 48.1875 -13.984375 
Q 42 -20.796875 29.203125 -20.796875 
Q 24.46875 -20.796875 20.265625 -20.09375 
Q 16.0625 -19.390625 12.109375 -17.921875 
L 12.109375 -9.1875 
Q 16.0625 -11.328125 19.921875 -12.34375 
Q 23.78125 -13.375 27.78125 -13.375 
Q 36.625 -13.375 41.015625 -8.765625 
Q 45.40625 -4.15625 45.40625 5.171875 
L 45.40625 9.625 
Q 42.625 4.78125 38.28125 2.390625 
Q 33.9375 0 27.875 0 
Q 17.828125 0 11.671875 7.65625 
Q 5.515625 15.328125 5.515625 27.984375 
Q 5.515625 40.671875 11.671875 48.328125 
Q 17.828125 56 27.875 56 
Q 33.9375 56 38.28125 53.609375 
Q 42.625 51.21875 45.40625 46.390625 
L 45.40625 54.6875 
L 54.390625 54.6875 
z
" id="DejaVuSans-103"/>
     </defs>
     <g transform="translate(14.798437 181.14896)rotate(-90)scale(0.1 -0.1)">
      <use xlink:href="#DejaVuSans-80"/>
      <use x="60.255859" xlink:href="#DejaVuSans-101"/>
      <use x="121.779297" xlink:href="#DejaVuSans-114"/>
      <use x="162.861328" xlink:href="#DejaVuSans-99"/>
      <use x="217.841797" xlink:href="#DejaVuSans-101"/>
      <use x="279.365234" xlink:href="#DejaVuSans-110"/>
      <use x="342.744141" xlink:href="#DejaVuSans-116"/>
      <use x="381.953125" xlink:href="#DejaVuSans-97"/>
      <use x="443.232422" xlink:href="#DejaVuSans-103"/>
      <use x="506.708984" xlink:href="#DejaVuSans-101"/>
     </g>
    </g>
   </g>
   <g id="line2d_7">
    <path clip-path="url(#pf6045c1d95)" d="M 32.968125 273.986191 
L 42.493075 273.985658 
L 52.018025 273.98439 
L 61.542975 273.983123 
L 71.067925 273.980255 
L 80.592875 273.978987 
L 90.117825 273.975585 
L 99.642775 273.97145 
L 109.167725 273.969982 
L 118.692675 273.959377 
L 128.217625 273.936898 
L 137.742575 273.900144 
L 147.267525 273.855653 
L 156.792475 273.773075 
L 166.317425 273.665149 
L 175.842375 273.50773 
L 185.367325 273.23805 
L 194.892275 272.850838 
L 204.417225 272.26125 
L 213.942175 271.414655 
L 223.467125 270.273699 
L 232.992075 268.720584 
L 242.517025 266.713556 
L 252.041975 264.134682 
L 261.566925 260.508036 
L 271.091875 255.516112 
L 280.616825 250.879849 
L 290.141775 246.508864 
L 299.666725 241.005327 
L 309.191675 235.088698 
L 318.716625 228.98877 
L 328.241575 222.439662 
L 337.766525 215.320711 
L 347.291475 207.71963 
L 356.816425 199.795239 
L 366.341375 192.056082 
L 375.866325 184.841745 
L 385.391275 177.574446 
L 394.916225 170.689222 
L 404.441175 164.679009 
L 413.966125 158.6145 
L 423.491075 151.965071 
L 433.016025 145.409094 
L 442.540975 139.582514 
L 452.065925 134.292828 
L 461.590875 129.421236 
L 471.115825 125.925662 
L 480.640775 124.701127 
L 490.165725 125.59855 
L 499.690675 129.090789 
L 509.215625 133.45357 
L 518.740575 137.49184 
L 528.265525 143.213829 
L 537.790475 150.921035 
L 547.315425 159.437616 
L 556.840375 168.224744 
L 566.365325 176.095106 
L 575.890275 182.103518 
L 585.415225 187.052485 
L 594.940175 191.676875 
L 604.465125 195.049582 
L 613.990075 198.602188 
L 623.515025 202.765593 
L 633.039975 205.066382 
L 642.564925 206.313262 
L 652.089875 207.018914 
L 661.614825 204.740804 
L 671.139775 200.413643 
L 680.664725 196.586554 
L 690.189675 195.494559 
L 699.714625 201.533721 
L 709.239575 213.487577 
L 718.764525 223.281855 
L 728.289475 226.098526 
L 737.814425 225.204571 
L 747.339375 226.165829 
L 756.864325 232.255019 
L 766.389275 242.653827 
L 775.914225 253.206452 
L 785.439175 261.675273 
L 794.964125 265.632633 
L 804.489075 266.255172 
L 814.014025 267.299276 
L 823.538975 269.014145 
L 833.063925 271.195068 
L 842.588875 272.748916 
L 852.113825 273.412145 
L 861.638775 273.701769 
L 871.163725 273.817299 
L 880.688675 273.877999 
L 890.213625 273.918488 
L 899.738575 273.941967 
L 909.263525 273.956642 
L 918.788475 273.963445 
L 928.313425 273.968181 
L 937.838375 273.970983 
L 947.363325 273.967848 
L 956.888275 273.963379 
L 966.413225 273.95911 
L 975.938175 273.963179 
L 985.463125 273.978187 
" style="fill:none;stroke:#f0ad4e;stroke-linecap:square;"/>
   </g>
   <g id="line2d_8">
    <path clip-path="url(#pf6045c1d95)" d="M 32.968125 273.986422 
L 42.493075 273.985862 
L 52.018025 273.983833 
L 61.542975 273.980964 
L 71.067925 273.978025 
L 80.592875 273.976906 
L 90.117825 273.974037 
L 99.642775 273.96648 
L 109.167725 273.959833 
L 118.692675 273.950037 
L 128.217625 273.927716 
L 137.742575 273.890842 
L 147.267525 273.843822 
L 156.792475 273.761467 
L 166.317425 273.631392 
L 175.842375 273.439814 
L 185.367325 273.163501 
L 194.892275 272.7653 
L 204.417225 272.168314 
L 213.942175 271.317335 
L 223.467125 270.085578 
L 232.992075 268.429102 
L 242.517025 266.320198 
L 252.041975 263.461702 
L 261.566925 259.690163 
L 271.091875 254.767334 
L 280.616825 249.866266 
L 290.141775 245.072322 
L 299.666725 239.447341 
L 309.191675 233.342224 
L 318.716625 226.863046 
L 328.241575 219.912548 
L 337.766525 212.403337 
L 347.291475 204.476334 
L 356.816425 196.31409 
L 366.341375 188.184243 
L 375.866325 180.203503 
L 385.391275 172.449116 
L 394.916225 165.629183 
L 404.441175 159.308907 
L 413.966125 152.930766 
L 423.491075 146.120418 
L 433.016025 139.206864 
L 442.540975 132.989165 
L 452.065925 127.68031 
L 461.590875 122.949759 
L 471.115825 119.076904 
L 480.640775 117.919316 
L 490.165725 119.601961 
L 499.690675 123.56011 
L 509.215625 127.865521 
L 518.740575 131.922328 
L 528.265525 137.777372 
L 537.790475 145.724596 
L 547.315425 155.171424 
L 556.840375 164.685563 
L 566.365325 172.83941 
L 575.890275 179.435229 
L 585.415225 184.686009 
L 594.940175 189.364012 
L 604.465125 192.857978 
L 613.990075 196.778343 
L 623.515025 201.740565 
L 633.039975 205.938223 
L 642.564925 210.517918 
L 652.089875 217.142914 
L 661.614825 223.960398 
L 671.139775 230.272697 
L 680.664725 236.025304 
L 690.189675 239.603934 
L 699.714625 242.997423 
L 709.239575 247.130358 
L 718.764525 250.838643 
L 728.289475 253.704346 
L 737.814425 256.078577 
L 747.339375 258.318816 
L 756.864325 260.488454 
L 766.389275 262.612962 
L 775.914225 264.197159 
L 785.439175 265.30157 
L 794.964125 266.153878 
L 804.489075 266.87891 
L 814.014025 267.889071 
L 823.538975 269.386715 
L 833.063925 271.09392 
L 842.588875 272.203719 
L 852.113825 272.640753 
L 861.638775 272.817638 
L 871.163725 272.891107 
L 880.688675 272.933929 
L 890.213625 272.957579 
L 899.738575 272.952331 
L 909.263525 272.950861 
L 918.788475 272.948692 
L 928.313425 272.93162 
L 937.838375 272.887468 
L 947.363325 272.78993 
L 956.888275 272.547273 
L 966.413225 271.938251 
L 975.938175 269.307789 
L 985.463125 43.030822 
" style="fill:none;stroke:#d9534f;stroke-linecap:square;"/>
   </g>
   <g id="line2d_9">
    <path clip-path="url(#pf6045c1d95)" d="M 32.968125 273.985113 
L 42.493075 273.986183 
L 52.018025 273.986584 
L 61.542975 273.983375 
L 71.067925 273.980099 
L 80.592875 273.979966 
L 90.117825 273.976957 
L 99.642775 273.972077 
L 109.167725 273.966863 
L 118.692675 273.956702 
L 128.217625 273.93658 
L 137.742575 273.903356 
L 147.267525 273.860171 
L 156.792475 273.782157 
L 166.317425 273.677538 
L 175.842375 273.512085 
L 185.367325 273.229711 
L 194.892275 272.83824 
L 204.417225 272.263867 
L 213.942175 271.423566 
L 223.467125 270.260181 
L 232.992075 268.698839 
L 242.517025 266.655645 
L 252.041975 263.995294 
L 261.566925 260.433074 
L 271.091875 255.544088 
L 280.616825 250.915615 
L 290.141775 246.548992 
L 299.666725 241.009759 
L 309.191675 235.12411 
L 318.716625 228.970528 
L 328.241575 222.254674 
L 337.766525 215.082168 
L 347.291475 207.582902 
L 356.816425 199.751593 
L 366.341375 191.920217 
L 375.866325 184.459522 
L 385.391275 177.140215 
L 394.916225 170.467077 
L 404.441175 164.535704 
L 413.966125 158.357788 
L 423.491075 151.619271 
L 433.016025 145.106773 
L 442.540975 139.183087 
L 452.065925 133.787648 
L 461.590875 129.031024 
L 471.115825 125.548823 
L 480.640775 124.384234 
L 490.165725 125.435312 
L 499.690675 128.885024 
L 509.215625 133.266755 
L 518.740575 137.318114 
L 528.265525 143.020394 
L 537.790475 150.87871 
L 547.315425 159.583745 
L 556.840375 168.358237 
L 566.365325 176.225243 
L 575.890275 182.378023 
L 585.415225 187.286195 
L 594.940175 191.869344 
L 604.465125 195.265175 
L 613.990075 198.734274 
L 623.515025 202.88544 
L 633.039975 205.152714 
L 642.564925 206.106325 
L 652.089875 206.837461 
L 661.614825 204.569451 
L 671.139775 200.052884 
L 680.664725 196.476358 
L 690.189675 195.904058 
L 699.714625 202.402852 
L 709.239575 214.622777 
L 718.764525 224.616273 
L 728.289475 227.480783 
L 737.814425 226.390464 
L 747.339375 227.00849 
L 756.864325 232.425054 
L 766.389275 241.925199 
L 775.914225 252.18723 
L 785.439175 261.214614 
L 794.964125 265.631374 
L 804.489075 266.31284 
L 814.014025 267.338982 
L 823.538975 269.029745 
L 833.063925 271.231106 
L 842.588875 272.758221 
L 852.113825 273.41074 
L 861.638775 273.704612 
L 871.163725 273.826078 
L 880.688675 273.883702 
L 890.213625 273.9196 
L 899.738575 273.941393 
L 909.263525 273.955098 
L 918.788475 273.964791 
L 928.313425 273.968802 
L 937.838375 273.970874 
L 947.363325 273.970874 
L 956.888275 273.967665 
L 966.413225 273.962718 
L 975.938175 273.96459 
L 985.463125 273.977492 
" style="fill:none;stroke:#f0ad4e;stroke-linecap:square;"/>
   </g>
   <g id="line2d_10">
    <path clip-path="url(#pf6045c1d95)" d="M 32.968125 273.986835 
L 42.493075 273.985853 
L 52.018025 273.983048 
L 61.542975 273.979823 
L 71.067925 273.978911 
L 80.592875 273.97828 
L 90.117825 273.974564 
L 99.642775 273.969235 
L 109.167725 273.961662 
L 118.692675 273.950513 
L 128.217625 273.927444 
L 137.742575 273.887617 
L 147.267525 273.845335 
L 156.792475 273.75937 
L 166.317425 273.628179 
L 175.842375 273.443276 
L 185.367325 273.163433 
L 194.892275 272.758499 
L 204.417225 272.14342 
L 213.942175 271.256842 
L 223.467125 270.027385 
L 232.992075 268.391311 
L 242.517025 266.306969 
L 252.041975 263.505947 
L 261.566925 259.668012 
L 271.091875 254.727886 
L 280.616825 249.839576 
L 290.141775 244.967605 
L 299.666725 239.358338 
L 309.191675 233.278506 
L 318.716625 226.736733 
L 328.241575 219.800544 
L 337.766525 212.233499 
L 347.291475 204.201849 
L 356.816425 195.963209 
L 366.341375 187.827924 
L 375.866325 179.907833 
L 385.391275 172.420793 
L 394.916225 165.67161 
L 404.441175 159.134816 
L 413.966125 152.624106 
L 423.491075 145.584211 
L 433.016025 138.80039 
L 442.540975 132.78682 
L 452.065925 127.306851 
L 461.590875 122.556114 
L 471.115825 118.885342 
L 480.640775 117.850324 
L 490.165725 119.441171 
L 499.690675 123.59513 
L 509.215625 128.067987 
L 518.740575 131.84015 
L 528.265525 137.523112 
L 537.790475 145.659729 
L 547.315425 155.223888 
L 556.840375 164.614785 
L 566.365325 172.788495 
L 575.890275 179.430396 
L 585.415225 184.890942 
L 594.940175 189.628987 
L 604.465125 193.096205 
L 613.990075 196.995494 
L 623.515025 202.025933 
L 633.039975 206.235144 
L 642.564925 210.787866 
L 652.089875 217.491332 
L 661.614825 224.197463 
L 671.139775 230.559241 
L 680.664725 236.331324 
L 690.189675 239.848957 
L 699.714625 243.149503 
L 709.239575 247.214411 
L 718.764525 250.980895 
L 728.289475 253.830229 
L 737.814425 256.171204 
L 747.339375 258.336042 
L 756.864325 260.502632 
L 766.389275 262.699865 
L 775.914225 264.261683 
L 785.439175 265.303644 
L 794.964125 266.124661 
L 804.489075 266.886007 
L 814.014025 267.914154 
L 823.538975 269.406486 
L 833.063925 271.127474 
L 842.588875 272.236327 
L 852.113825 272.686137 
L 861.638775 272.86536 
L 871.163725 272.944383 
L 880.688675 272.973062 
L 890.213625 272.976427 
L 899.738575 272.983019 
L 909.263525 272.984772 
L 918.788475 272.976077 
L 928.313425 272.961562 
L 937.838375 272.927204 
L 947.363325 272.848601 
L 956.888275 272.613564 
L 966.413225 271.990562 
L 975.938175 269.427171 
L 985.463125 43.52082 
" style="fill:none;stroke:#d9534f;stroke-linecap:square;"/>
   </g>
   <g id="line2d_11">
    <path clip-path="url(#pf6045c1d95)" d="M 32.968125 273.99006 
L 42.493075 273.99006 
L 52.018025 273.989406 
L 61.542975 273.988751 
L 71.067925 273.988751 
L 80.592875 273.989406 
L 90.117825 273.989406 
L 99.642775 273.987443 
L 109.167725 273.980899 
L 118.692675 273.97501 
L 128.217625 273.971738 
L 137.742575 273.944255 
L 147.267525 273.893214 
L 156.792475 273.801604 
L 166.317425 273.652409 
L 175.842375 273.418148 
L 185.367325 273.049087 
L 194.892275 272.488954 
L 204.417225 271.560414 
L 213.942175 270.084173 
L 223.467125 267.984325 
L 232.992075 265.204596 
L 242.517025 261.442014 
L 252.041975 256.484567 
L 261.566925 250.159504 
L 271.091875 242.380449 
L 280.616825 233.406528 
L 290.141775 223.490326 
L 299.666725 212.870685 
L 309.191675 200.973729 
L 318.716625 188.541505 
L 328.241575 175.765741 
L 337.766525 160.842361 
L 347.291475 142.581735 
L 356.816425 128.61176 
L 366.341375 123.569901 
L 375.866325 121.502117 
L 385.391275 117.886112 
L 394.916225 111.57479 
L 404.441175 105.67768 
L 413.966125 100.593941 
L 423.491075 96.517266 
L 433.016025 95.853743 
L 442.540975 96.514649 
L 452.065925 98.750604 
L 461.590875 103.579141 
L 471.115825 109.238064 
L 480.640775 115.985845 
L 490.165725 123.558122 
L 499.690675 131.284829 
L 509.215625 139.882491 
L 518.740575 150.715454 
L 528.265525 163.625363 
L 537.790475 176.198274 
L 547.315425 187.3257 
L 556.840375 197.383899 
L 566.365325 206.22433 
L 575.890275 214.856019 
L 585.415225 223.018531 
L 594.940175 229.776782 
L 604.465125 235.46057 
L 613.990075 241.205869 
L 623.515025 246.657359 
L 633.039975 250.864252 
L 642.564925 253.986213 
L 652.089875 255.7844 
L 661.614825 255.756917 
L 671.139775 253.414955 
L 680.664725 249.602642 
L 690.189675 246.126671 
L 699.714625 245.73798 
L 709.239575 249.860461 
L 718.764525 255.679048 
L 728.289475 259.026109 
L 737.814425 258.689113 
L 747.339375 256.27648 
L 756.864325 254.634686 
L 766.389275 255.806648 
L 775.914225 260.352501 
L 785.439175 268.547731 
L 794.964125 273.658298 
L 804.489075 273.808147 
L 814.014025 273.886016 
L 823.538975 273.931822 
L 833.063925 273.947526 
L 842.588875 273.962577 
L 852.113825 273.977627 
L 861.638775 273.985479 
L 871.163725 273.987443 
L 880.688675 273.986788 
L 890.213625 273.985479 
L 899.738575 273.988097 
L 909.263525 273.988097 
L 918.788475 273.987443 
L 928.313425 273.988751 
L 937.838375 273.988751 
L 947.363325 273.987443 
L 956.888275 273.986134 
L 966.413225 273.983516 
L 975.938175 273.983516 
L 985.463125 273.988097 
" style="fill:none;stroke:#f0ad4e;stroke-linecap:square;"/>
   </g>
   <g id="line2d_12">
    <path clip-path="url(#pf6045c1d95)" d="M 32.968125 273.988719 
L 42.493075 273.989389 
L 52.018025 273.99006 
L 61.542975 273.99006 
L 71.067925 273.99006 
L 80.592875 273.989389 
L 90.117825 273.984695 
L 99.642775 273.984024 
L 109.167725 273.988048 
L 118.692675 273.984024 
L 128.217625 273.973964 
L 137.742575 273.948478 
L 147.267525 273.890799 
L 156.792475 273.811658 
L 166.317425 273.655389 
L 175.842375 273.399189 
L 185.367325 273.014888 
L 194.892275 272.481695 
L 204.417225 271.642671 
L 213.942175 270.167841 
L 223.467125 268.08403 
L 232.992075 265.353682 
L 242.517025 261.683037 
L 252.041975 256.829308 
L 261.566925 250.305579 
L 271.091875 242.387502 
L 280.616825 233.683385 
L 290.141775 224.161035 
L 299.666725 213.075325 
L 309.191675 201.398743 
L 318.716625 189.320422 
L 328.241575 176.019447 
L 337.766525 160.919031 
L 347.291475 143.131862 
L 356.816425 128.808096 
L 366.341375 122.370215 
L 375.866325 119.811561 
L 385.391275 115.802892 
L 394.916225 109.101433 
L 404.441175 103.048524 
L 413.966125 97.813847 
L 423.491075 93.698539 
L 433.016025 92.133166 
L 442.540975 92.106339 
L 452.065925 94.765595 
L 461.590875 99.322883 
L 471.115825 104.370439 
L 480.640775 110.48438 
L 490.165725 117.56947 
L 499.690675 125.586137 
L 509.215625 135.038066 
L 518.740575 146.622093 
L 528.265525 159.348964 
L 537.790475 172.153634 
L 547.315425 184.176288 
L 556.840375 194.708014 
L 566.365325 204.323589 
L 575.890275 213.396581 
L 585.415225 221.647317 
L 594.940175 228.741796 
L 604.465125 234.727637 
L 613.990075 240.643057 
L 623.515025 246.44446 
L 633.039975 251.361233 
L 642.564925 255.276007 
L 652.089875 258.573753 
L 661.614825 261.426165 
L 671.139775 263.725935 
L 680.664725 265.672256 
L 690.189675 267.27787 
L 699.714625 268.60515 
L 709.239575 269.681596 
L 718.764525 270.541411 
L 728.289475 271.136306 
L 737.814425 271.6809 
L 747.339375 272.178547 
L 756.864325 272.499804 
L 766.389275 272.813012 
L 775.914225 273.050434 
L 785.439175 273.218775 
L 794.964125 273.362301 
L 804.489075 273.460221 
L 814.014025 273.525277 
L 823.538975 273.564847 
L 833.063925 273.579602 
L 842.588875 273.580273 
L 852.113825 273.595699 
L 861.638775 273.615819 
L 871.163725 273.604418 
L 880.688675 273.601735 
L 890.213625 273.595028 
L 899.738575 273.554787 
L 909.263525 273.561494 
L 918.788475 273.590333 
L 928.313425 273.555458 
L 937.838375 273.51857 
L 947.363325 273.503815 
L 956.888275 273.323402 
L 966.413225 272.900872 
L 975.938175 271.453539 
L 985.463125 156.275226 
" style="fill:none;stroke:#d9534f;stroke-linecap:square;"/>
   </g>
   <g id="line2d_13">
    <path clip-path="url(#pf6045c1d95)" d="M 32.968125 273.99006 
L 42.493075 273.99006 
L 52.018025 273.99006 
L 61.542975 273.989404 
L 71.067925 273.987437 
L 80.592875 273.988093 
L 90.117825 273.988749 
L 99.642775 273.986782 
L 109.167725 273.984815 
L 118.692675 273.980881 
L 128.217625 273.961866 
L 137.742575 273.934328 
L 147.267525 273.883185 
L 156.792475 273.782212 
L 166.317425 273.631407 
L 175.842375 273.401922 
L 185.367325 273.080642 
L 194.892275 272.512174 
L 204.417225 271.56276 
L 213.942175 270.138639 
L 223.467125 268.060157 
L 232.992075 265.198801 
L 242.517025 261.353281 
L 252.041975 256.479667 
L 261.566925 250.242253 
L 271.091875 242.202395 
L 280.616825 233.342947 
L 290.141775 223.857987 
L 299.666725 212.970543 
L 309.191675 201.281211 
L 318.716625 189.183396 
L 328.241575 175.997819 
L 337.766525 160.339045 
L 347.291475 142.497538 
L 356.816425 129.089688 
L 366.341375 123.307311 
L 375.866325 120.849194 
L 385.391275 116.829266 
L 394.916225 110.514483 
L 404.441175 104.636377 
L 413.966125 99.732602 
L 423.491075 96.742079 
L 433.016025 96.174267 
L 442.540975 96.421455 
L 452.065925 98.844821 
L 461.590875 104.075777 
L 471.115825 109.746034 
L 480.640775 116.064751 
L 490.165725 123.039141 
L 499.690675 131.188496 
L 509.215625 140.274152 
L 518.740575 150.491498 
L 528.265525 163.414806 
L 537.790475 176.163049 
L 547.315425 187.468156 
L 556.840375 197.875648 
L 566.365325 206.80263 
L 575.890275 215.126394 
L 585.415225 223.199691 
L 594.940175 229.848212 
L 604.465125 235.434543 
L 613.990075 241.420178 
L 623.515025 246.917993 
L 633.039975 250.955625 
L 642.564925 253.925822 
L 652.089875 255.541399 
L 661.614825 255.42469 
L 671.139775 253.359976 
L 680.664725 249.440366 
L 690.189675 245.743683 
L 699.714625 245.640743 
L 709.239575 250.175375 
L 718.764525 256.232478 
L 728.289475 259.69443 
L 737.814425 259.447897 
L 747.339375 257.182548 
L 756.864325 255.296178 
L 766.389275 255.545333 
L 775.914225 259.215133 
L 785.439175 267.822148 
L 794.964125 273.612393 
L 804.489075 273.795325 
L 814.014025 273.881218 
L 823.538975 273.913346 
L 833.063925 273.942852 
L 842.588875 273.968423 
L 852.113825 273.982848 
L 861.638775 273.986782 
L 871.163725 273.986126 
L 880.688675 273.986782 
L 890.213625 273.986782 
L 899.738575 273.988093 
L 909.263525 273.988093 
L 918.788475 273.988093 
L 928.313425 273.988749 
L 937.838375 273.989404 
L 947.363325 273.987437 
L 956.888275 273.986126 
L 966.413225 273.984159 
L 975.938175 273.984159 
L 985.463125 273.988093 
" style="fill:none;stroke:#f0ad4e;stroke-linecap:square;"/>
   </g>
   <g id="line2d_14">
    <path clip-path="url(#pf6045c1d95)" d="M 32.968125 273.99006 
L 42.493075 273.99006 
L 52.018025 273.989388 
L 61.542975 273.988716 
L 71.067925 273.989388 
L 80.592875 273.989388 
L 90.117825 273.988716 
L 99.642775 273.988044 
L 109.167725 273.982667 
L 118.692675 273.976619 
L 128.217625 273.963849 
L 137.742575 273.938311 
L 147.267525 273.879169 
L 156.792475 273.790457 
L 166.317425 273.645963 
L 175.842375 273.43023 
L 185.367325 273.084788 
L 194.892275 272.473881 
L 204.417225 271.532317 
L 213.942175 270.121652 
L 223.467125 268.132338 
L 232.992075 265.30832 
L 242.517025 261.456713 
L 252.041975 256.602385 
L 261.566925 250.133756 
L 271.091875 242.453392 
L 280.616825 233.41949 
L 290.141775 223.563651 
L 299.666725 213.303229 
L 309.191675 201.427162 
L 318.716625 188.666657 
L 328.241575 176.197828 
L 337.766525 161.251094 
L 347.291475 143.091888 
L 356.816425 128.477154 
L 366.341375 122.308266 
L 375.866325 120.762516 
L 385.391275 116.487508 
L 394.916225 108.903922 
L 404.441175 102.173187 
L 413.966125 97.792665 
L 423.491075 94.038508 
L 433.016025 92.096911 
L 442.540975 91.937632 
L 452.065925 93.861755 
L 461.590875 99.038675 
L 471.115825 104.452161 
L 480.640775 110.787049 
L 490.165725 118.120627 
L 499.690675 125.309038 
L 509.215625 134.38192 
L 518.740575 146.033518 
L 528.265525 159.374015 
L 537.790475 172.780375 
L 547.315425 184.340572 
L 556.840375 194.805974 
L 566.365325 204.51127 
L 575.890275 213.389925 
L 585.415225 221.554176 
L 594.940175 228.576587 
L 604.465125 234.837548 
L 613.990075 240.998371 
L 623.515025 246.827866 
L 633.039975 251.525603 
L 642.564925 255.280432 
L 652.089875 258.656216 
L 661.614825 261.521231 
L 671.139775 263.674529 
L 680.664725 265.618142 
L 690.189675 267.330564 
L 699.714625 268.602112 
L 709.239575 269.63306 
L 718.764525 270.608227 
L 728.289475 271.299782 
L 737.814425 271.797111 
L 747.339375 272.217824 
L 756.864325 272.57469 
L 766.389275 272.867039 
L 775.914225 273.093525 
L 785.439175 273.252132 
L 794.964125 273.363695 
L 804.489075 273.448375 
L 814.014025 273.504829 
L 823.538975 273.586149 
L 833.063925 273.588837 
L 842.588875 273.596902 
L 852.113825 273.639914 
L 861.638775 273.623112 
L 871.163725 273.606311 
L 880.688675 273.631849 
L 890.213625 273.657388 
L 899.738575 273.629833 
L 909.263525 273.621096 
L 918.788475 273.618408 
L 928.313425 273.586149 
L 937.838375 273.568003 
L 947.363325 273.546497 
L 956.888275 273.379153 
L 966.413225 272.967849 
L 975.938175 271.547774 
L 985.463125 156.058717 
" style="fill:none;stroke:#d9534f;stroke-linecap:square;"/>
   </g>
   <g id="line2d_15">
    <path clip-path="url(#pf6045c1d95)" d="M 32.968125 273.99006 
L 985.463125 273.99006 
" style="fill:none;stroke:#dedede;stroke-linecap:square;stroke-width:2;"/>
   </g>
   <g id="text_15">
    <!-- FastQC: Per Sequence GC Content -->
    <defs>
     <path d="M 9.8125 72.90625 
L 51.703125 72.90625 
L 51.703125 64.59375 
L 19.671875 64.59375 
L 19.671875 43.109375 
L 48.578125 43.109375 
L 48.578125 34.8125 
L 19.671875 34.8125 
L 19.671875 0 
L 9.8125 0 
z
" id="DejaVuSans-70"/>
     <path d="M 44.28125 53.078125 
L 44.28125 44.578125 
Q 40.484375 46.53125 36.375 47.5 
Q 32.28125 48.484375 27.875 48.484375 
Q 21.1875 48.484375 17.84375 46.4375 
Q 14.5 44.390625 14.5 40.28125 
Q 14.5 37.15625 16.890625 35.375 
Q 19.28125 33.59375 26.515625 31.984375 
L 29.59375 31.296875 
Q 39.15625 29.25 43.1875 25.515625 
Q 47.21875 21.78125 47.21875 15.09375 
Q 47.21875 7.46875 41.1875 3.015625 
Q 35.15625 -1.421875 24.609375 -1.421875 
Q 20.21875 -1.421875 15.453125 -0.5625 
Q 10.6875 0.296875 5.421875 2 
L 5.421875 11.28125 
Q 10.40625 8.6875 15.234375 7.390625 
Q 20.0625 6.109375 24.8125 6.109375 
Q 31.15625 6.109375 34.5625 8.28125 
Q 37.984375 10.453125 37.984375 14.40625 
Q 37.984375 18.0625 35.515625 20.015625 
Q 33.0625 21.96875 24.703125 23.78125 
L 21.578125 24.515625 
Q 13.234375 26.265625 9.515625 29.90625 
Q 5.8125 33.546875 5.8125 39.890625 
Q 5.8125 47.609375 11.28125 51.796875 
Q 16.75 56 26.8125 56 
Q 31.78125 56 36.171875 55.265625 
Q 40.578125 54.546875 44.28125 53.078125 
z
" id="DejaVuSans-115"/>
     <path d="M 39.40625 66.21875 
Q 28.65625 66.21875 22.328125 58.203125 
Q 16.015625 50.203125 16.015625 36.375 
Q 16.015625 22.609375 22.328125 14.59375 
Q 28.65625 6.59375 39.40625 6.59375 
Q 50.140625 6.59375 56.421875 14.59375 
Q 62.703125 22.609375 62.703125 36.375 
Q 62.703125 50.203125 56.421875 58.203125 
Q 50.140625 66.21875 39.40625 66.21875 
z
M 53.21875 1.3125 
L 66.21875 -12.890625 
L 54.296875 -12.890625 
L 43.5 -1.21875 
Q 41.890625 -1.3125 41.03125 -1.359375 
Q 40.1875 -1.421875 39.40625 -1.421875 
Q 24.03125 -1.421875 14.8125 8.859375 
Q 5.609375 19.140625 5.609375 36.375 
Q 5.609375 53.65625 14.8125 63.9375 
Q 24.03125 74.21875 39.40625 74.21875 
Q 54.734375 74.21875 63.90625 63.9375 
Q 73.09375 53.65625 73.09375 36.375 
Q 73.09375 23.6875 67.984375 14.640625 
Q 62.890625 5.609375 53.21875 1.3125 
z
" id="DejaVuSans-81"/>
     <path d="M 11.71875 12.40625 
L 22.015625 12.40625 
L 22.015625 0 
L 11.71875 0 
z
M 11.71875 51.703125 
L 22.015625 51.703125 
L 22.015625 39.3125 
L 11.71875 39.3125 
z
" id="DejaVuSans-58"/>
     <path d="M 53.515625 70.515625 
L 53.515625 60.890625 
Q 47.90625 63.578125 42.921875 64.890625 
Q 37.9375 66.21875 33.296875 66.21875 
Q 25.25 66.21875 20.875 63.09375 
Q 16.5 59.96875 16.5 54.203125 
Q 16.5 49.359375 19.40625 46.890625 
Q 22.3125 44.4375 30.421875 42.921875 
L 36.375 41.703125 
Q 47.40625 39.59375 52.65625 34.296875 
Q 57.90625 29 57.90625 20.125 
Q 57.90625 9.515625 50.796875 4.046875 
Q 43.703125 -1.421875 29.984375 -1.421875 
Q 24.8125 -1.421875 18.96875 -0.25 
Q 13.140625 0.921875 6.890625 3.21875 
L 6.890625 13.375 
Q 12.890625 10.015625 18.65625 8.296875 
Q 24.421875 6.59375 29.984375 6.59375 
Q 38.421875 6.59375 43.015625 9.90625 
Q 47.609375 13.234375 47.609375 19.390625 
Q 47.609375 24.75 44.3125 27.78125 
Q 41.015625 30.8125 33.5 32.328125 
L 27.484375 33.5 
Q 16.453125 35.6875 11.515625 40.375 
Q 6.59375 45.0625 6.59375 53.421875 
Q 6.59375 63.09375 13.40625 68.65625 
Q 20.21875 74.21875 32.171875 74.21875 
Q 37.3125 74.21875 42.625 73.28125 
Q 47.953125 72.359375 53.515625 70.515625 
z
" id="DejaVuSans-83"/>
     <path d="M 14.796875 27.296875 
Q 14.796875 17.390625 18.875 11.75 
Q 22.953125 6.109375 30.078125 6.109375 
Q 37.203125 6.109375 41.296875 11.75 
Q 45.40625 17.390625 45.40625 27.296875 
Q 45.40625 37.203125 41.296875 42.84375 
Q 37.203125 48.484375 30.078125 48.484375 
Q 22.953125 48.484375 18.875 42.84375 
Q 14.796875 37.203125 14.796875 27.296875 
z
M 45.40625 8.203125 
Q 42.578125 3.328125 38.25 0.953125 
Q 33.9375 -1.421875 27.875 -1.421875 
Q 17.96875 -1.421875 11.734375 6.484375 
Q 5.515625 14.40625 5.515625 27.296875 
Q 5.515625 40.1875 11.734375 48.09375 
Q 17.96875 56 27.875 56 
Q 33.9375 56 38.25 53.625 
Q 42.578125 51.265625 45.40625 46.390625 
L 45.40625 54.6875 
L 54.390625 54.6875 
L 54.390625 -20.796875 
L 45.40625 -20.796875 
z
" id="DejaVuSans-113"/>
     <path d="M 8.5 21.578125 
L 8.5 54.6875 
L 17.484375 54.6875 
L 17.484375 21.921875 
Q 17.484375 14.15625 20.5 10.265625 
Q 23.53125 6.390625 29.59375 6.390625 
Q 36.859375 6.390625 41.078125 11.03125 
Q 45.3125 15.671875 45.3125 23.6875 
L 45.3125 54.6875 
L 54.296875 54.6875 
L 54.296875 0 
L 45.3125 0 
L 45.3125 8.40625 
Q 42.046875 3.421875 37.71875 1 
Q 33.40625 -1.421875 27.6875 -1.421875 
Q 18.265625 -1.421875 13.375 4.4375 
Q 8.5 10.296875 8.5 21.578125 
z
M 31.109375 56 
z
" id="DejaVuSans-117"/>
     <path d="M 30.609375 48.390625 
Q 23.390625 48.390625 19.1875 42.75 
Q 14.984375 37.109375 14.984375 27.296875 
Q 14.984375 17.484375 19.15625 11.84375 
Q 23.34375 6.203125 30.609375 6.203125 
Q 37.796875 6.203125 41.984375 11.859375 
Q 46.1875 17.53125 46.1875 27.296875 
Q 46.1875 37.015625 41.984375 42.703125 
Q 37.796875 48.390625 30.609375 48.390625 
z
M 30.609375 56 
Q 42.328125 56 49.015625 48.375 
Q 55.71875 40.765625 55.71875 27.296875 
Q 55.71875 13.875 49.015625 6.21875 
Q 42.328125 -1.421875 30.609375 -1.421875 
Q 18.84375 -1.421875 12.171875 6.21875 
Q 5.515625 13.875 5.515625 27.296875 
Q 5.515625 40.765625 12.171875 48.375 
Q 18.84375 56 30.609375 56 
z
" id="DejaVuSans-111"/>
    </defs>
    <g transform="translate(371.574375 19.3575)scale(0.16 -0.16)">
     <use xlink:href="#DejaVuSans-70"/>
     <use x="57.378906" xlink:href="#DejaVuSans-97"/>
     <use x="118.658203" xlink:href="#DejaVuSans-115"/>
     <use x="170.757812" xlink:href="#DejaVuSans-116"/>
     <use x="209.966797" xlink:href="#DejaVuSans-81"/>
     <use x="288.677734" xlink:href="#DejaVuSans-67"/>
     <use x="358.501953" xlink:href="#DejaVuSans-58"/>
     <use x="392.193359" xlink:href="#DejaVuSans-32"/>
     <use x="423.980469" xlink:href="#DejaVuSans-80"/>
     <use x="484.236328" xlink:href="#DejaVuSans-101"/>
     <use x="545.759766" xlink:href="#DejaVuSans-114"/>
     <use x="586.873047" xlink:href="#DejaVuSans-32"/>
     <use x="618.660156" xlink:href="#DejaVuSans-83"/>
     <use x="682.136719" xlink:href="#DejaVuSans-101"/>
     <use x="743.660156" xlink:href="#DejaVuSans-113"/>
     <use x="807.136719" xlink:href="#DejaVuSans-117"/>
     <use x="870.515625" xlink:href="#DejaVuSans-101"/>
     <use x="932.039062" xlink:href="#DejaVuSans-110"/>
     <use x="995.417969" xlink:href="#DejaVuSans-99"/>
     <use x="1050.398438" xlink:href="#DejaVuSans-101"/>
     <use x="1111.921875" xlink:href="#DejaVuSans-32"/>
     <use x="1143.708984" xlink:href="#DejaVuSans-71"/>
     <use x="1221.199219" xlink:href="#DejaVuSans-67"/>
     <use x="1291.023438" xlink:href="#DejaVuSans-32"/>
     <use x="1322.810547" xlink:href="#DejaVuSans-67"/>
     <use x="1392.634766" xlink:href="#DejaVuSans-111"/>
     <use x="1453.816406" xlink:href="#DejaVuSans-110"/>
     <use x="1517.195312" xlink:href="#DejaVuSans-116"/>
     <use x="1556.404297" xlink:href="#DejaVuSans-101"/>
     <use x="1617.927734" xlink:href="#DejaVuSans-110"/>
     <use x="1681.306641" xlink:href="#DejaVuSans-116"/>
    </g>
   </g>
   <g id="legend_1">
    <g id="line2d_16">
     <path d="M 40.168125 303.490394 
L 56.168125 303.490394 
" style="fill:none;stroke:#f0ad4e;stroke-linecap:square;"/>
    </g>
    <g id="line2d_17"/>
    <g id="text_16">
     <!-- Hte-CJol_087-Ex1-2H-SSL-1-1-L4-1 -->
     <defs>
      <path d="M 9.8125 72.90625 
L 19.671875 72.90625 
L 19.671875 43.015625 
L 55.515625 43.015625 
L 55.515625 72.90625 
L 65.375 72.90625 
L 65.375 0 
L 55.515625 0 
L 55.515625 34.71875 
L 19.671875 34.71875 
L 19.671875 0 
L 9.8125 0 
z
" id="DejaVuSans-72"/>
      <path d="M 4.890625 31.390625 
L 31.203125 31.390625 
L 31.203125 23.390625 
L 4.890625 23.390625 
z
" id="DejaVuSans-45"/>
      <path d="M 9.8125 72.90625 
L 19.671875 72.90625 
L 19.671875 5.078125 
Q 19.671875 -8.109375 14.671875 -14.0625 
Q 9.671875 -20.015625 -1.421875 -20.015625 
L -5.171875 -20.015625 
L -5.171875 -11.71875 
L -2.09375 -11.71875 
Q 4.4375 -11.71875 7.125 -8.046875 
Q 9.8125 -4.390625 9.8125 5.078125 
z
" id="DejaVuSans-74"/>
      <path d="M 9.421875 75.984375 
L 18.40625 75.984375 
L 18.40625 0 
L 9.421875 0 
z
" id="DejaVuSans-108"/>
      <path d="M 50.984375 -16.609375 
L 50.984375 -23.578125 
L -0.984375 -23.578125 
L -0.984375 -16.609375 
z
" id="DejaVuSans-95"/>
      <path d="M 8.203125 72.90625 
L 55.078125 72.90625 
L 55.078125 68.703125 
L 28.609375 0 
L 18.3125 0 
L 43.21875 64.59375 
L 8.203125 64.59375 
z
" id="DejaVuSans-55"/>
      <path d="M 9.8125 72.90625 
L 55.90625 72.90625 
L 55.90625 64.59375 
L 19.671875 64.59375 
L 19.671875 43.015625 
L 54.390625 43.015625 
L 54.390625 34.71875 
L 19.671875 34.71875 
L 19.671875 8.296875 
L 56.78125 8.296875 
L 56.78125 0 
L 9.8125 0 
z
" id="DejaVuSans-69"/>
      <path d="M 54.890625 54.6875 
L 35.109375 28.078125 
L 55.90625 0 
L 45.3125 0 
L 29.390625 21.484375 
L 13.484375 0 
L 2.875 0 
L 24.125 28.609375 
L 4.6875 54.6875 
L 15.28125 54.6875 
L 29.78125 35.203125 
L 44.28125 54.6875 
z
" id="DejaVuSans-120"/>
      <path d="M 9.8125 72.90625 
L 19.671875 72.90625 
L 19.671875 8.296875 
L 55.171875 8.296875 
L 55.171875 0 
L 9.8125 0 
z
" id="DejaVuSans-76"/>
     </defs>
     <g transform="translate(62.568125 306.290394)scale(0.08 -0.08)">
      <use xlink:href="#DejaVuSans-72"/>
      <use x="75.195312" xlink:href="#DejaVuSans-116"/>
      <use x="114.404297" xlink:href="#DejaVuSans-101"/>
      <use x="175.927734" xlink:href="#DejaVuSans-45"/>
      <use x="212.011719" xlink:href="#DejaVuSans-67"/>
      <use x="281.835938" xlink:href="#DejaVuSans-74"/>
      <use x="311.328125" xlink:href="#DejaVuSans-111"/>
      <use x="372.509766" xlink:href="#DejaVuSans-108"/>
      <use x="400.292969" xlink:href="#DejaVuSans-95"/>
      <use x="450.292969" xlink:href="#DejaVuSans-48"/>
      <use x="513.916016" xlink:href="#DejaVuSans-56"/>
      <use x="577.539062" xlink:href="#DejaVuSans-55"/>
      <use x="641.162109" xlink:href="#DejaVuSans-45"/>
      <use x="677.246094" xlink:href="#DejaVuSans-69"/>
      <use x="740.429688" xlink:href="#DejaVuSans-120"/>
      <use x="799.609375" xlink:href="#DejaVuSans-49"/>
      <use x="863.232422" xlink:href="#DejaVuSans-45"/>
      <use x="899.316406" xlink:href="#DejaVuSans-50"/>
      <use x="962.939453" xlink:href="#DejaVuSans-72"/>
      <use x="1038.134766" xlink:href="#DejaVuSans-45"/>
      <use x="1074.21875" xlink:href="#DejaVuSans-83"/>
      <use x="1137.695312" xlink:href="#DejaVuSans-83"/>
      <use x="1201.171875" xlink:href="#DejaVuSans-76"/>
      <use x="1256.869141" xlink:href="#DejaVuSans-45"/>
      <use x="1292.953125" xlink:href="#DejaVuSans-49"/>
      <use x="1356.576172" xlink:href="#DejaVuSans-45"/>
      <use x="1392.660156" xlink:href="#DejaVuSans-49"/>
      <use x="1456.283203" xlink:href="#DejaVuSans-45"/>
      <use x="1492.367188" xlink:href="#DejaVuSans-76"/>
      <use x="1548.080078" xlink:href="#DejaVuSans-52"/>
      <use x="1611.703125" xlink:href="#DejaVuSans-45"/>
      <use x="1647.787109" xlink:href="#DejaVuSans-49"/>
     </g>
    </g>
    <g id="line2d_18">
     <path d="M 40.168125 315.455394 
L 56.168125 315.455394 
" style="fill:none;stroke:#d9534f;stroke-linecap:square;"/>
    </g>
    <g id="line2d_19"/>
    <g id="text_17">
     <!-- Hte-CJol_087-Ex1-2H-SSL-1-1-L4-2 -->
     <g transform="translate(62.568125 318.255394)scale(0.08 -0.08)">
      <use xlink:href="#DejaVuSans-72"/>
      <use x="75.195312" xlink:href="#DejaVuSans-116"/>
      <use x="114.404297" xlink:href="#DejaVuSans-101"/>
      <use x="175.927734" xlink:href="#DejaVuSans-45"/>
      <use x="212.011719" xlink:href="#DejaVuSans-67"/>
      <use x="281.835938" xlink:href="#DejaVuSans-74"/>
      <use x="311.328125" xlink:href="#DejaVuSans-111"/>
      <use x="372.509766" xlink:href="#DejaVuSans-108"/>
      <use x="400.292969" xlink:href="#DejaVuSans-95"/>
      <use x="450.292969" xlink:href="#DejaVuSans-48"/>
      <use x="513.916016" xlink:href="#DejaVuSans-56"/>
      <use x="577.539062" xlink:href="#DejaVuSans-55"/>
      <use x="641.162109" xlink:href="#DejaVuSans-45"/>
      <use x="677.246094" xlink:href="#DejaVuSans-69"/>
      <use x="740.429688" xlink:href="#DejaVuSans-120"/>
      <use x="799.609375" xlink:href="#DejaVuSans-49"/>
      <use x="863.232422" xlink:href="#DejaVuSans-45"/>
      <use x="899.316406" xlink:href="#DejaVuSans-50"/>
      <use x="962.939453" xlink:href="#DejaVuSans-72"/>
      <use x="1038.134766" xlink:href="#DejaVuSans-45"/>
      <use x="1074.21875" xlink:href="#DejaVuSans-83"/>
      <use x="1137.695312" xlink:href="#DejaVuSans-83"/>
      <use x="1201.171875" xlink:href="#DejaVuSans-76"/>
      <use x="1256.869141" xlink:href="#DejaVuSans-45"/>
      <use x="1292.953125" xlink:href="#DejaVuSans-49"/>
      <use x="1356.576172" xlink:href="#DejaVuSans-45"/>
      <use x="1392.660156" xlink:href="#DejaVuSans-49"/>
      <use x="1456.283203" xlink:href="#DejaVuSans-45"/>
      <use x="1492.367188" xlink:href="#DejaVuSans-76"/>
      <use x="1548.080078" xlink:href="#DejaVuSans-52"/>
      <use x="1611.703125" xlink:href="#DejaVuSans-45"/>
      <use x="1647.787109" xlink:href="#DejaVuSans-50"/>
     </g>
    </g>
    <g id="line2d_20">
     <path d="M 231.575938 303.490394 
L 247.575938 303.490394 
" style="fill:none;stroke:#f0ad4e;stroke-linecap:square;"/>
    </g>
    <g id="line2d_21"/>
    <g id="text_18">
     <!-- Hte-CJol_087-Ex1-2H-SSL-1-1-L5-1 -->
     <g transform="translate(253.975938 306.290394)scale(0.08 -0.08)">
      <use xlink:href="#DejaVuSans-72"/>
      <use x="75.195312" xlink:href="#DejaVuSans-116"/>
      <use x="114.404297" xlink:href="#DejaVuSans-101"/>
      <use x="175.927734" xlink:href="#DejaVuSans-45"/>
      <use x="212.011719" xlink:href="#DejaVuSans-67"/>
      <use x="281.835938" xlink:href="#DejaVuSans-74"/>
      <use x="311.328125" xlink:href="#DejaVuSans-111"/>
      <use x="372.509766" xlink:href="#DejaVuSans-108"/>
      <use x="400.292969" xlink:href="#DejaVuSans-95"/>
      <use x="450.292969" xlink:href="#DejaVuSans-48"/>
      <use x="513.916016" xlink:href="#DejaVuSans-56"/>
      <use x="577.539062" xlink:href="#DejaVuSans-55"/>
      <use x="641.162109" xlink:href="#DejaVuSans-45"/>
      <use x="677.246094" xlink:href="#DejaVuSans-69"/>
      <use x="740.429688" xlink:href="#DejaVuSans-120"/>
      <use x="799.609375" xlink:href="#DejaVuSans-49"/>
      <use x="863.232422" xlink:href="#DejaVuSans-45"/>
      <use x="899.316406" xlink:href="#DejaVuSans-50"/>
      <use x="962.939453" xlink:href="#DejaVuSans-72"/>
      <use x="1038.134766" xlink:href="#DejaVuSans-45"/>
      <use x="1074.21875" xlink:href="#DejaVuSans-83"/>
      <use x="1137.695312" xlink:href="#DejaVuSans-83"/>
      <use x="1201.171875" xlink:href="#DejaVuSans-76"/>
      <use x="1256.869141" xlink:href="#DejaVuSans-45"/>
      <use x="1292.953125" xlink:href="#DejaVuSans-49"/>
      <use x="1356.576172" xlink:href="#DejaVuSans-45"/>
      <use x="1392.660156" xlink:href="#DejaVuSans-49"/>
      <use x="1456.283203" xlink:href="#DejaVuSans-45"/>
      <use x="1492.367188" xlink:href="#DejaVuSans-76"/>
      <use x="1548.080078" xlink:href="#DejaVuSans-53"/>
      <use x="1611.703125" xlink:href="#DejaVuSans-45"/>
      <use x="1647.787109" xlink:href="#DejaVuSans-49"/>
     </g>
    </g>
    <g id="line2d_22">
     <path d="M 231.575938 315.455394 
L 247.575938 315.455394 
" style="fill:none;stroke:#d9534f;stroke-linecap:square;"/>
    </g>
    <g id="line2d_23"/>
    <g id="text_19">
     <!-- Hte-CJol_087-Ex1-2H-SSL-1-1-L5-2 -->
     <g transform="translate(253.975938 318.255394)scale(0.08 -0.08)">
      <use xlink:href="#DejaVuSans-72"/>
      <use x="75.195312" xlink:href="#DejaVuSans-116"/>
      <use x="114.404297" xlink:href="#DejaVuSans-101"/>
      <use x="175.927734" xlink:href="#DejaVuSans-45"/>
      <use x="212.011719" xlink:href="#DejaVuSans-67"/>
      <use x="281.835938" xlink:href="#DejaVuSans-74"/>
      <use x="311.328125" xlink:href="#DejaVuSans-111"/>
      <use x="372.509766" xlink:href="#DejaVuSans-108"/>
      <use x="400.292969" xlink:href="#DejaVuSans-95"/>
      <use x="450.292969" xlink:href="#DejaVuSans-48"/>
      <use x="513.916016" xlink:href="#DejaVuSans-56"/>
      <use x="577.539062" xlink:href="#DejaVuSans-55"/>
      <use x="641.162109" xlink:href="#DejaVuSans-45"/>
      <use x="677.246094" xlink:href="#DejaVuSans-69"/>
      <use x="740.429688" xlink:href="#DejaVuSans-120"/>
      <use x="799.609375" xlink:href="#DejaVuSans-49"/>
      <use x="863.232422" xlink:href="#DejaVuSans-45"/>
      <use x="899.316406" xlink:href="#DejaVuSans-50"/>
      <use x="962.939453" xlink:href="#DejaVuSans-72"/>
      <use x="1038.134766" xlink:href="#DejaVuSans-45"/>
      <use x="1074.21875" xlink:href="#DejaVuSans-83"/>
      <use x="1137.695312" xlink:href="#DejaVuSans-83"/>
      <use x="1201.171875" xlink:href="#DejaVuSans-76"/>
      <use x="1256.869141" xlink:href="#DejaVuSans-45"/>
      <use x="1292.953125" xlink:href="#DejaVuSans-49"/>
      <use x="1356.576172" xlink:href="#DejaVuSans-45"/>
      <use x="1392.660156" xlink:href="#DejaVuSans-49"/>
      <use x="1456.283203" xlink:href="#DejaVuSans-45"/>
      <use x="1492.367188" xlink:href="#DejaVuSans-76"/>
      <use x="1548.080078" xlink:href="#DejaVuSans-53"/>
      <use x="1611.703125" xlink:href="#DejaVuSans-45"/>
      <use x="1647.787109" xlink:href="#DejaVuSans-50"/>
     </g>
    </g>
    <g id="line2d_24">
     <path d="M 422.98375 303.490394 
L 438.98375 303.490394 
" style="fill:none;stroke:#f0ad4e;stroke-linecap:square;"/>
    </g>
    <g id="line2d_25"/>
    <g id="text_20">
     <!-- Hte-CMvi_008-Ex1-3H-SSL-1-1-L4-1 -->
     <defs>
      <path d="M 9.8125 72.90625 
L 24.515625 72.90625 
L 43.109375 23.296875 
L 61.8125 72.90625 
L 76.515625 72.90625 
L 76.515625 0 
L 66.890625 0 
L 66.890625 64.015625 
L 48.09375 14.015625 
L 38.1875 14.015625 
L 19.390625 64.015625 
L 19.390625 0 
L 9.8125 0 
z
" id="DejaVuSans-77"/>
      <path d="M 2.984375 54.6875 
L 12.5 54.6875 
L 29.59375 8.796875 
L 46.6875 54.6875 
L 56.203125 54.6875 
L 35.6875 0 
L 23.484375 0 
z
" id="DejaVuSans-118"/>
      <path d="M 9.421875 54.6875 
L 18.40625 54.6875 
L 18.40625 0 
L 9.421875 0 
z
M 9.421875 75.984375 
L 18.40625 75.984375 
L 18.40625 64.59375 
L 9.421875 64.59375 
z
" id="DejaVuSans-105"/>
     </defs>
     <g transform="translate(445.38375 306.290394)scale(0.08 -0.08)">
      <use xlink:href="#DejaVuSans-72"/>
      <use x="75.195312" xlink:href="#DejaVuSans-116"/>
      <use x="114.404297" xlink:href="#DejaVuSans-101"/>
      <use x="175.927734" xlink:href="#DejaVuSans-45"/>
      <use x="212.011719" xlink:href="#DejaVuSans-67"/>
      <use x="281.835938" xlink:href="#DejaVuSans-77"/>
      <use x="368.115234" xlink:href="#DejaVuSans-118"/>
      <use x="427.294922" xlink:href="#DejaVuSans-105"/>
      <use x="455.078125" xlink:href="#DejaVuSans-95"/>
      <use x="505.078125" xlink:href="#DejaVuSans-48"/>
      <use x="568.701172" xlink:href="#DejaVuSans-48"/>
      <use x="632.324219" xlink:href="#DejaVuSans-56"/>
      <use x="695.947266" xlink:href="#DejaVuSans-45"/>
      <use x="732.03125" xlink:href="#DejaVuSans-69"/>
      <use x="795.214844" xlink:href="#DejaVuSans-120"/>
      <use x="854.394531" xlink:href="#DejaVuSans-49"/>
      <use x="918.017578" xlink:href="#DejaVuSans-45"/>
      <use x="954.101562" xlink:href="#DejaVuSans-51"/>
      <use x="1017.724609" xlink:href="#DejaVuSans-72"/>
      <use x="1092.919922" xlink:href="#DejaVuSans-45"/>
      <use x="1129.003906" xlink:href="#DejaVuSans-83"/>
      <use x="1192.480469" xlink:href="#DejaVuSans-83"/>
      <use x="1255.957031" xlink:href="#DejaVuSans-76"/>
      <use x="1311.654297" xlink:href="#DejaVuSans-45"/>
      <use x="1347.738281" xlink:href="#DejaVuSans-49"/>
      <use x="1411.361328" xlink:href="#DejaVuSans-45"/>
      <use x="1447.445312" xlink:href="#DejaVuSans-49"/>
      <use x="1511.068359" xlink:href="#DejaVuSans-45"/>
      <use x="1547.152344" xlink:href="#DejaVuSans-76"/>
      <use x="1602.865234" xlink:href="#DejaVuSans-52"/>
      <use x="1666.488281" xlink:href="#DejaVuSans-45"/>
      <use x="1702.572266" xlink:href="#DejaVuSans-49"/>
     </g>
    </g>
    <g id="line2d_26">
     <path d="M 422.98375 315.455394 
L 438.98375 315.455394 
" style="fill:none;stroke:#d9534f;stroke-linecap:square;"/>
    </g>
    <g id="line2d_27"/>
    <g id="text_21">
     <!-- Hte-CMvi_008-Ex1-3H-SSL-1-1-L4-2 -->
     <g transform="translate(445.38375 318.255394)scale(0.08 -0.08)">
      <use xlink:href="#DejaVuSans-72"/>
      <use x="75.195312" xlink:href="#DejaVuSans-116"/>
      <use x="114.404297" xlink:href="#DejaVuSans-101"/>
      <use x="175.927734" xlink:href="#DejaVuSans-45"/>
      <use x="212.011719" xlink:href="#DejaVuSans-67"/>
      <use x="281.835938" xlink:href="#DejaVuSans-77"/>
      <use x="368.115234" xlink:href="#DejaVuSans-118"/>
      <use x="427.294922" xlink:href="#DejaVuSans-105"/>
      <use x="455.078125" xlink:href="#DejaVuSans-95"/>
      <use x="505.078125" xlink:href="#DejaVuSans-48"/>
      <use x="568.701172" xlink:href="#DejaVuSans-48"/>
      <use x="632.324219" xlink:href="#DejaVuSans-56"/>
      <use x="695.947266" xlink:href="#DejaVuSans-45"/>
      <use x="732.03125" xlink:href="#DejaVuSans-69"/>
      <use x="795.214844" xlink:href="#DejaVuSans-120"/>
      <use x="854.394531" xlink:href="#DejaVuSans-49"/>
      <use x="918.017578" xlink:href="#DejaVuSans-45"/>
      <use x="954.101562" xlink:href="#DejaVuSans-51"/>
      <use x="1017.724609" xlink:href="#DejaVuSans-72"/>
      <use x="1092.919922" xlink:href="#DejaVuSans-45"/>
      <use x="1129.003906" xlink:href="#DejaVuSans-83"/>
      <use x="1192.480469" xlink:href="#DejaVuSans-83"/>
      <use x="1255.957031" xlink:href="#DejaVuSans-76"/>
      <use x="1311.654297" xlink:href="#DejaVuSans-45"/>
      <use x="1347.738281" xlink:href="#DejaVuSans-49"/>
      <use x="1411.361328" xlink:href="#DejaVuSans-45"/>
      <use x="1447.445312" xlink:href="#DejaVuSans-49"/>
      <use x="1511.068359" xlink:href="#DejaVuSans-45"/>
      <use x="1547.152344" xlink:href="#DejaVuSans-76"/>
      <use x="1602.865234" xlink:href="#DejaVuSans-52"/>
      <use x="1666.488281" xlink:href="#DejaVuSans-45"/>
      <use x="1702.572266" xlink:href="#DejaVuSans-50"/>
     </g>
    </g>
    <g id="line2d_28">
     <path d="M 618.774063 303.490394 
L 634.774063 303.490394 
" style="fill:none;stroke:#f0ad4e;stroke-linecap:square;"/>
    </g>
    <g id="line2d_29"/>
    <g id="text_22">
     <!-- Hte-CMvi_008-Ex1-3H-SSL-1-1-L5-1 -->
     <g transform="translate(641.174063 306.290394)scale(0.08 -0.08)">
      <use xlink:href="#DejaVuSans-72"/>
      <use x="75.195312" xlink:href="#DejaVuSans-116"/>
      <use x="114.404297" xlink:href="#DejaVuSans-101"/>
      <use x="175.927734" xlink:href="#DejaVuSans-45"/>
      <use x="212.011719" xlink:href="#DejaVuSans-67"/>
      <use x="281.835938" xlink:href="#DejaVuSans-77"/>
      <use x="368.115234" xlink:href="#DejaVuSans-118"/>
      <use x="427.294922" xlink:href="#DejaVuSans-105"/>
      <use x="455.078125" xlink:href="#DejaVuSans-95"/>
      <use x="505.078125" xlink:href="#DejaVuSans-48"/>
      <use x="568.701172" xlink:href="#DejaVuSans-48"/>
      <use x="632.324219" xlink:href="#DejaVuSans-56"/>
      <use x="695.947266" xlink:href="#DejaVuSans-45"/>
      <use x="732.03125" xlink:href="#DejaVuSans-69"/>
      <use x="795.214844" xlink:href="#DejaVuSans-120"/>
      <use x="854.394531" xlink:href="#DejaVuSans-49"/>
      <use x="918.017578" xlink:href="#DejaVuSans-45"/>
      <use x="954.101562" xlink:href="#DejaVuSans-51"/>
      <use x="1017.724609" xlink:href="#DejaVuSans-72"/>
      <use x="1092.919922" xlink:href="#DejaVuSans-45"/>
      <use x="1129.003906" xlink:href="#DejaVuSans-83"/>
      <use x="1192.480469" xlink:href="#DejaVuSans-83"/>
      <use x="1255.957031" xlink:href="#DejaVuSans-76"/>
      <use x="1311.654297" xlink:href="#DejaVuSans-45"/>
      <use x="1347.738281" xlink:href="#DejaVuSans-49"/>
      <use x="1411.361328" xlink:href="#DejaVuSans-45"/>
      <use x="1447.445312" xlink:href="#DejaVuSans-49"/>
      <use x="1511.068359" xlink:href="#DejaVuSans-45"/>
      <use x="1547.152344" xlink:href="#DejaVuSans-76"/>
      <use x="1602.865234" xlink:href="#DejaVuSans-53"/>
      <use x="1666.488281" xlink:href="#DejaVuSans-45"/>
      <use x="1702.572266" xlink:href="#DejaVuSans-49"/>
     </g>
    </g>
    <g id="line2d_30">
     <path d="M 814.564375 303.490394 
L 830.564375 303.490394 
" style="fill:none;stroke:#d9534f;stroke-linecap:square;"/>
    </g>
    <g id="line2d_31"/>
    <g id="text_23">
     <!-- Hte-CMvi_008-Ex1-3H-SSL-1-1-L5-2 -->
     <g transform="translate(836.964375 306.290394)scale(0.08 -0.08)">
      <use xlink:href="#DejaVuSans-72"/>
      <use x="75.195312" xlink:href="#DejaVuSans-116"/>
      <use x="114.404297" xlink:href="#DejaVuSans-101"/>
      <use x="175.927734" xlink:href="#DejaVuSans-45"/>
      <use x="212.011719" xlink:href="#DejaVuSans-67"/>
      <use x="281.835938" xlink:href="#DejaVuSans-77"/>
      <use x="368.115234" xlink:href="#DejaVuSans-118"/>
      <use x="427.294922" xlink:href="#DejaVuSans-105"/>
      <use x="455.078125" xlink:href="#DejaVuSans-95"/>
      <use x="505.078125" xlink:href="#DejaVuSans-48"/>
      <use x="568.701172" xlink:href="#DejaVuSans-48"/>
      <use x="632.324219" xlink:href="#DejaVuSans-56"/>
      <use x="695.947266" xlink:href="#DejaVuSans-45"/>
      <use x="732.03125" xlink:href="#DejaVuSans-69"/>
      <use x="795.214844" xlink:href="#DejaVuSans-120"/>
      <use x="854.394531" xlink:href="#DejaVuSans-49"/>
      <use x="918.017578" xlink:href="#DejaVuSans-45"/>
      <use x="954.101562" xlink:href="#DejaVuSans-51"/>
      <use x="1017.724609" xlink:href="#DejaVuSans-72"/>
      <use x="1092.919922" xlink:href="#DejaVuSans-45"/>
      <use x="1129.003906" xlink:href="#DejaVuSans-83"/>
      <use x="1192.480469" xlink:href="#DejaVuSans-83"/>
      <use x="1255.957031" xlink:href="#DejaVuSans-76"/>
      <use x="1311.654297" xlink:href="#DejaVuSans-45"/>
      <use x="1347.738281" xlink:href="#DejaVuSans-49"/>
      <use x="1411.361328" xlink:href="#DejaVuSans-45"/>
      <use x="1447.445312" xlink:href="#DejaVuSans-49"/>
      <use x="1511.068359" xlink:href="#DejaVuSans-45"/>
      <use x="1547.152344" xlink:href="#DejaVuSans-76"/>
      <use x="1602.865234" xlink:href="#DejaVuSans-53"/>
      <use x="1666.488281" xlink:href="#DejaVuSans-45"/>
      <use x="1702.572266" xlink:href="#DejaVuSans-50"/>
     </g>
    </g>
   </g>
  </g>
 </g>
 <defs>
  <clipPath id="pf6045c1d95">
   <rect height="242.5072" width="952.495" x="32.968125" y="31.48286"/>
  </clipPath>
 </defs>
</svg>
