<?xml version="1.0" encoding="utf-8" standalone="no"?>
<!DOCTYPE svg PUBLIC "-//W3C//DTD SVG 1.1//EN"
  "http://www.w3.org/Graphics/SVG/1.1/DTD/svg11.dtd">
<!-- Created with matplotlib (https://matplotlib.org/) -->
<svg height="330.541644pt" version="1.1" viewBox="0 0 1000.300625 330.541644" width="1000.300625pt" xmlns="http://www.w3.org/2000/svg" xmlns:xlink="http://www.w3.org/1999/xlink">
 <defs>
  <style type="text/css">
*{stroke-linecap:butt;stroke-linejoin:round;}
  </style>
 </defs>
 <g id="figure_1">
  <g id="axes_1">
   <g id="patch_1">
    <path d="M 45.690625 273.99006 
L 993.100625 273.99006 
L 993.100625 31.48286 
L 45.690625 31.48286 
z
" style="fill:#ffffff;"/>
   </g>
   <g id="patch_2">
    <path clip-path="url(#p348c1816b2)" d="M 45.690625 30.010931 
L 956.323263 30.010931 
L 956.323263 -945.905585 
L 45.690625 -945.905585 
z
" style="fill:#e6c3c3;"/>
   </g>
   <g id="patch_3">
    <path clip-path="url(#p348c1816b2)" d="M 45.690625 212.995278 
L 956.323263 212.995278 
L 956.323263 30.010931 
L 45.690625 30.010931 
z
" style="fill:#e6dcc3;"/>
   </g>
   <g id="patch_4">
    <path clip-path="url(#p348c1816b2)" d="M 45.690625 273.99006 
L 956.323263 273.99006 
L 956.323263 212.995278 
L 45.690625 212.995278 
z
" style="fill:#c3e6c3;"/>
   </g>
   <g id="matplotlib.axis_1">
    <g id="xtick_1">
     <g id="text_1">
      <!-- 0 -->
      <defs>
       <path d="M 31.78125 66.40625 
Q 24.171875 66.40625 20.328125 58.90625 
Q 16.5 51.421875 16.5 36.375 
Q 16.5 21.390625 20.328125 13.890625 
Q 24.171875 6.390625 31.78125 6.390625 
Q 39.453125 6.390625 43.28125 13.890625 
Q 47.125 21.390625 47.125 36.375 
Q 47.125 51.421875 43.28125 58.90625 
Q 39.453125 66.40625 31.78125 66.40625 
z
M 31.78125 74.21875 
Q 44.046875 74.21875 50.515625 64.515625 
Q 56.984375 54.828125 56.984375 36.375 
Q 56.984375 17.96875 50.515625 8.265625 
Q 44.046875 -1.421875 31.78125 -1.421875 
Q 19.53125 -1.421875 13.0625 8.265625 
Q 6.59375 17.96875 6.59375 36.375 
Q 6.59375 54.828125 13.0625 64.515625 
Q 19.53125 74.21875 31.78125 74.21875 
z
" id="DejaVuSans-48"/>
      </defs>
      <g transform="translate(79.922987 287.06881)scale(0.08 -0.08)">
       <use xlink:href="#DejaVuSans-48"/>
      </g>
     </g>
    </g>
    <g id="xtick_2">
     <g id="text_2">
      <!-- 20 -->
      <defs>
       <path d="M 19.1875 8.296875 
L 53.609375 8.296875 
L 53.609375 0 
L 7.328125 0 
L 7.328125 8.296875 
Q 12.9375 14.109375 22.625 23.890625 
Q 32.328125 33.6875 34.8125 36.53125 
Q 39.546875 41.84375 41.421875 45.53125 
Q 43.3125 49.21875 43.3125 52.78125 
Q 43.3125 58.59375 39.234375 62.25 
Q 35.15625 65.921875 28.609375 65.921875 
Q 23.96875 65.921875 18.8125 64.3125 
Q 13.671875 62.703125 7.8125 59.421875 
L 7.8125 69.390625 
Q 13.765625 71.78125 18.9375 73 
Q 24.125 74.21875 28.421875 74.21875 
Q 39.75 74.21875 46.484375 68.546875 
Q 53.21875 62.890625 53.21875 53.421875 
Q 53.21875 48.921875 51.53125 44.890625 
Q 49.859375 40.875 45.40625 35.40625 
Q 44.1875 33.984375 37.640625 27.21875 
Q 31.109375 20.453125 19.1875 8.296875 
z
" id="DejaVuSans-50"/>
      </defs>
      <g transform="translate(203.112559 287.06881)scale(0.08 -0.08)">
       <use xlink:href="#DejaVuSans-50"/>
       <use x="63.623047" xlink:href="#DejaVuSans-48"/>
      </g>
     </g>
    </g>
    <g id="xtick_3">
     <g id="text_3">
      <!-- 40 -->
      <defs>
       <path d="M 37.796875 64.3125 
L 12.890625 25.390625 
L 37.796875 25.390625 
z
M 35.203125 72.90625 
L 47.609375 72.90625 
L 47.609375 25.390625 
L 58.015625 25.390625 
L 58.015625 17.1875 
L 47.609375 17.1875 
L 47.609375 0 
L 37.796875 0 
L 37.796875 17.1875 
L 4.890625 17.1875 
L 4.890625 26.703125 
z
" id="DejaVuSans-52"/>
      </defs>
      <g transform="translate(328.847131 287.06881)scale(0.08 -0.08)">
       <use xlink:href="#DejaVuSans-52"/>
       <use x="63.623047" xlink:href="#DejaVuSans-48"/>
      </g>
     </g>
    </g>
    <g id="xtick_4">
     <g id="text_4">
      <!-- 60 -->
      <defs>
       <path d="M 33.015625 40.375 
Q 26.375 40.375 22.484375 35.828125 
Q 18.609375 31.296875 18.609375 23.390625 
Q 18.609375 15.53125 22.484375 10.953125 
Q 26.375 6.390625 33.015625 6.390625 
Q 39.65625 6.390625 43.53125 10.953125 
Q 47.40625 15.53125 47.40625 23.390625 
Q 47.40625 31.296875 43.53125 35.828125 
Q 39.65625 40.375 33.015625 40.375 
z
M 52.59375 71.296875 
L 52.59375 62.3125 
Q 48.875 64.0625 45.09375 64.984375 
Q 41.3125 65.921875 37.59375 65.921875 
Q 27.828125 65.921875 22.671875 59.328125 
Q 17.53125 52.734375 16.796875 39.40625 
Q 19.671875 43.65625 24.015625 45.921875 
Q 28.375 48.1875 33.59375 48.1875 
Q 44.578125 48.1875 50.953125 41.515625 
Q 57.328125 34.859375 57.328125 23.390625 
Q 57.328125 12.15625 50.6875 5.359375 
Q 44.046875 -1.421875 33.015625 -1.421875 
Q 20.359375 -1.421875 13.671875 8.265625 
Q 6.984375 17.96875 6.984375 36.375 
Q 6.984375 53.65625 15.1875 63.9375 
Q 23.390625 74.21875 37.203125 74.21875 
Q 40.921875 74.21875 44.703125 73.484375 
Q 48.484375 72.75 52.59375 71.296875 
z
" id="DejaVuSans-54"/>
      </defs>
      <g transform="translate(454.581703 287.06881)scale(0.08 -0.08)">
       <use xlink:href="#DejaVuSans-54"/>
       <use x="63.623047" xlink:href="#DejaVuSans-48"/>
      </g>
     </g>
    </g>
    <g id="xtick_5">
     <g id="text_5">
      <!-- 80 -->
      <defs>
       <path d="M 31.78125 34.625 
Q 24.75 34.625 20.71875 30.859375 
Q 16.703125 27.09375 16.703125 20.515625 
Q 16.703125 13.921875 20.71875 10.15625 
Q 24.75 6.390625 31.78125 6.390625 
Q 38.8125 6.390625 42.859375 10.171875 
Q 46.921875 13.96875 46.921875 20.515625 
Q 46.921875 27.09375 42.890625 30.859375 
Q 38.875 34.625 31.78125 34.625 
z
M 21.921875 38.8125 
Q 15.578125 40.375 12.03125 44.71875 
Q 8.5 49.078125 8.5 55.328125 
Q 8.5 64.0625 14.71875 69.140625 
Q 20.953125 74.21875 31.78125 74.21875 
Q 42.671875 74.21875 48.875 69.140625 
Q 55.078125 64.0625 55.078125 55.328125 
Q 55.078125 49.078125 51.53125 44.71875 
Q 48 40.375 41.703125 38.8125 
Q 48.828125 37.15625 52.796875 32.3125 
Q 56.78125 27.484375 56.78125 20.515625 
Q 56.78125 9.90625 50.3125 4.234375 
Q 43.84375 -1.421875 31.78125 -1.421875 
Q 19.734375 -1.421875 13.25 4.234375 
Q 6.78125 9.90625 6.78125 20.515625 
Q 6.78125 27.484375 10.78125 32.3125 
Q 14.796875 37.15625 21.921875 38.8125 
z
M 18.3125 54.390625 
Q 18.3125 48.734375 21.84375 45.5625 
Q 25.390625 42.390625 31.78125 42.390625 
Q 38.140625 42.390625 41.71875 45.5625 
Q 45.3125 48.734375 45.3125 54.390625 
Q 45.3125 60.0625 41.71875 63.234375 
Q 38.140625 66.40625 31.78125 66.40625 
Q 25.390625 66.40625 21.84375 63.234375 
Q 18.3125 60.0625 18.3125 54.390625 
z
" id="DejaVuSans-56"/>
      </defs>
      <g transform="translate(580.316275 287.06881)scale(0.08 -0.08)">
       <use xlink:href="#DejaVuSans-56"/>
       <use x="63.623047" xlink:href="#DejaVuSans-48"/>
      </g>
     </g>
    </g>
    <g id="xtick_6">
     <g id="text_6">
      <!-- 100 -->
      <defs>
       <path d="M 12.40625 8.296875 
L 28.515625 8.296875 
L 28.515625 63.921875 
L 10.984375 60.40625 
L 10.984375 69.390625 
L 28.421875 72.90625 
L 38.28125 72.90625 
L 38.28125 8.296875 
L 54.390625 8.296875 
L 54.390625 0 
L 12.40625 0 
z
" id="DejaVuSans-49"/>
      </defs>
      <g transform="translate(703.505847 287.06881)scale(0.08 -0.08)">
       <use xlink:href="#DejaVuSans-49"/>
       <use x="63.623047" xlink:href="#DejaVuSans-48"/>
       <use x="127.246094" xlink:href="#DejaVuSans-48"/>
      </g>
     </g>
    </g>
    <g id="xtick_7">
     <g id="text_7">
      <!-- 120 -->
      <g transform="translate(829.240419 287.06881)scale(0.08 -0.08)">
       <use xlink:href="#DejaVuSans-49"/>
       <use x="63.623047" xlink:href="#DejaVuSans-50"/>
       <use x="127.246094" xlink:href="#DejaVuSans-48"/>
      </g>
     </g>
    </g>
    <g id="xtick_8">
     <g id="text_8">
      <!-- 140 -->
      <g transform="translate(954.974991 287.06881)scale(0.08 -0.08)">
       <use xlink:href="#DejaVuSans-49"/>
       <use x="63.623047" xlink:href="#DejaVuSans-52"/>
       <use x="127.246094" xlink:href="#DejaVuSans-48"/>
      </g>
     </g>
    </g>
    <g id="text_9">
     <!-- Position (bp) -->
     <defs>
      <path d="M 19.671875 64.796875 
L 19.671875 37.40625 
L 32.078125 37.40625 
Q 38.96875 37.40625 42.71875 40.96875 
Q 46.484375 44.53125 46.484375 51.125 
Q 46.484375 57.671875 42.71875 61.234375 
Q 38.96875 64.796875 32.078125 64.796875 
z
M 9.8125 72.90625 
L 32.078125 72.90625 
Q 44.34375 72.90625 50.609375 67.359375 
Q 56.890625 61.8125 56.890625 51.125 
Q 56.890625 40.328125 50.609375 34.8125 
Q 44.34375 29.296875 32.078125 29.296875 
L 19.671875 29.296875 
L 19.671875 0 
L 9.8125 0 
z
" id="DejaVuSans-80"/>
      <path d="M 30.609375 48.390625 
Q 23.390625 48.390625 19.1875 42.75 
Q 14.984375 37.109375 14.984375 27.296875 
Q 14.984375 17.484375 19.15625 11.84375 
Q 23.34375 6.203125 30.609375 6.203125 
Q 37.796875 6.203125 41.984375 11.859375 
Q 46.1875 17.53125 46.1875 27.296875 
Q 46.1875 37.015625 41.984375 42.703125 
Q 37.796875 48.390625 30.609375 48.390625 
z
M 30.609375 56 
Q 42.328125 56 49.015625 48.375 
Q 55.71875 40.765625 55.71875 27.296875 
Q 55.71875 13.875 49.015625 6.21875 
Q 42.328125 -1.421875 30.609375 -1.421875 
Q 18.84375 -1.421875 12.171875 6.21875 
Q 5.515625 13.875 5.515625 27.296875 
Q 5.515625 40.765625 12.171875 48.375 
Q 18.84375 56 30.609375 56 
z
" id="DejaVuSans-111"/>
      <path d="M 44.28125 53.078125 
L 44.28125 44.578125 
Q 40.484375 46.53125 36.375 47.5 
Q 32.28125 48.484375 27.875 48.484375 
Q 21.1875 48.484375 17.84375 46.4375 
Q 14.5 44.390625 14.5 40.28125 
Q 14.5 37.15625 16.890625 35.375 
Q 19.28125 33.59375 26.515625 31.984375 
L 29.59375 31.296875 
Q 39.15625 29.25 43.1875 25.515625 
Q 47.21875 21.78125 47.21875 15.09375 
Q 47.21875 7.46875 41.1875 3.015625 
Q 35.15625 -1.421875 24.609375 -1.421875 
Q 20.21875 -1.421875 15.453125 -0.5625 
Q 10.6875 0.296875 5.421875 2 
L 5.421875 11.28125 
Q 10.40625 8.6875 15.234375 7.390625 
Q 20.0625 6.109375 24.8125 6.109375 
Q 31.15625 6.109375 34.5625 8.28125 
Q 37.984375 10.453125 37.984375 14.40625 
Q 37.984375 18.0625 35.515625 20.015625 
Q 33.0625 21.96875 24.703125 23.78125 
L 21.578125 24.515625 
Q 13.234375 26.265625 9.515625 29.90625 
Q 5.8125 33.546875 5.8125 39.890625 
Q 5.8125 47.609375 11.28125 51.796875 
Q 16.75 56 26.8125 56 
Q 31.78125 56 36.171875 55.265625 
Q 40.578125 54.546875 44.28125 53.078125 
z
" id="DejaVuSans-115"/>
      <path d="M 9.421875 54.6875 
L 18.40625 54.6875 
L 18.40625 0 
L 9.421875 0 
z
M 9.421875 75.984375 
L 18.40625 75.984375 
L 18.40625 64.59375 
L 9.421875 64.59375 
z
" id="DejaVuSans-105"/>
      <path d="M 18.3125 70.21875 
L 18.3125 54.6875 
L 36.8125 54.6875 
L 36.8125 47.703125 
L 18.3125 47.703125 
L 18.3125 18.015625 
Q 18.3125 11.328125 20.140625 9.421875 
Q 21.96875 7.515625 27.59375 7.515625 
L 36.8125 7.515625 
L 36.8125 0 
L 27.59375 0 
Q 17.1875 0 13.234375 3.875 
Q 9.28125 7.765625 9.28125 18.015625 
L 9.28125 47.703125 
L 2.6875 47.703125 
L 2.6875 54.6875 
L 9.28125 54.6875 
L 9.28125 70.21875 
z
" id="DejaVuSans-116"/>
      <path d="M 54.890625 33.015625 
L 54.890625 0 
L 45.90625 0 
L 45.90625 32.71875 
Q 45.90625 40.484375 42.875 44.328125 
Q 39.84375 48.1875 33.796875 48.1875 
Q 26.515625 48.1875 22.3125 43.546875 
Q 18.109375 38.921875 18.109375 30.90625 
L 18.109375 0 
L 9.078125 0 
L 9.078125 54.6875 
L 18.109375 54.6875 
L 18.109375 46.1875 
Q 21.34375 51.125 25.703125 53.5625 
Q 30.078125 56 35.796875 56 
Q 45.21875 56 50.046875 50.171875 
Q 54.890625 44.34375 54.890625 33.015625 
z
" id="DejaVuSans-110"/>
      <path id="DejaVuSans-32"/>
      <path d="M 31 75.875 
Q 24.46875 64.65625 21.28125 53.65625 
Q 18.109375 42.671875 18.109375 31.390625 
Q 18.109375 20.125 21.3125 9.0625 
Q 24.515625 -2 31 -13.1875 
L 23.1875 -13.1875 
Q 15.875 -1.703125 12.234375 9.375 
Q 8.59375 20.453125 8.59375 31.390625 
Q 8.59375 42.28125 12.203125 53.3125 
Q 15.828125 64.359375 23.1875 75.875 
z
" id="DejaVuSans-40"/>
      <path d="M 48.6875 27.296875 
Q 48.6875 37.203125 44.609375 42.84375 
Q 40.53125 48.484375 33.40625 48.484375 
Q 26.265625 48.484375 22.1875 42.84375 
Q 18.109375 37.203125 18.109375 27.296875 
Q 18.109375 17.390625 22.1875 11.75 
Q 26.265625 6.109375 33.40625 6.109375 
Q 40.53125 6.109375 44.609375 11.75 
Q 48.6875 17.390625 48.6875 27.296875 
z
M 18.109375 46.390625 
Q 20.953125 51.265625 25.265625 53.625 
Q 29.59375 56 35.59375 56 
Q 45.5625 56 51.78125 48.09375 
Q 58.015625 40.1875 58.015625 27.296875 
Q 58.015625 14.40625 51.78125 6.484375 
Q 45.5625 -1.421875 35.59375 -1.421875 
Q 29.59375 -1.421875 25.265625 0.953125 
Q 20.953125 3.328125 18.109375 8.203125 
L 18.109375 0 
L 9.078125 0 
L 9.078125 75.984375 
L 18.109375 75.984375 
z
" id="DejaVuSans-98"/>
      <path d="M 18.109375 8.203125 
L 18.109375 -20.796875 
L 9.078125 -20.796875 
L 9.078125 54.6875 
L 18.109375 54.6875 
L 18.109375 46.390625 
Q 20.953125 51.265625 25.265625 53.625 
Q 29.59375 56 35.59375 56 
Q 45.5625 56 51.78125 48.09375 
Q 58.015625 40.1875 58.015625 27.296875 
Q 58.015625 14.40625 51.78125 6.484375 
Q 45.5625 -1.421875 35.59375 -1.421875 
Q 29.59375 -1.421875 25.265625 0.953125 
Q 20.953125 3.328125 18.109375 8.203125 
z
M 48.6875 27.296875 
Q 48.6875 37.203125 44.609375 42.84375 
Q 40.53125 48.484375 33.40625 48.484375 
Q 26.265625 48.484375 22.1875 42.84375 
Q 18.109375 37.203125 18.109375 27.296875 
Q 18.109375 17.390625 22.1875 11.75 
Q 26.265625 6.109375 33.40625 6.109375 
Q 40.53125 6.109375 44.609375 11.75 
Q 48.6875 17.390625 48.6875 27.296875 
z
" id="DejaVuSans-112"/>
      <path d="M 8.015625 75.875 
L 15.828125 75.875 
Q 23.140625 64.359375 26.78125 53.3125 
Q 30.421875 42.28125 30.421875 31.390625 
Q 30.421875 20.453125 26.78125 9.375 
Q 23.140625 -1.703125 15.828125 -13.1875 
L 8.015625 -13.1875 
Q 14.5 -2 17.703125 9.0625 
Q 20.90625 20.125 20.90625 31.390625 
Q 20.90625 42.671875 17.703125 53.65625 
Q 14.5 64.65625 8.015625 75.875 
z
" id="DejaVuSans-41"/>
     </defs>
     <g transform="translate(487.913594 300.330997)scale(0.1 -0.1)">
      <use xlink:href="#DejaVuSans-80"/>
      <use x="60.255859" xlink:href="#DejaVuSans-111"/>
      <use x="121.4375" xlink:href="#DejaVuSans-115"/>
      <use x="173.537109" xlink:href="#DejaVuSans-105"/>
      <use x="201.320312" xlink:href="#DejaVuSans-116"/>
      <use x="240.529297" xlink:href="#DejaVuSans-105"/>
      <use x="268.3125" xlink:href="#DejaVuSans-111"/>
      <use x="329.494141" xlink:href="#DejaVuSans-110"/>
      <use x="392.873047" xlink:href="#DejaVuSans-32"/>
      <use x="424.660156" xlink:href="#DejaVuSans-40"/>
      <use x="463.673828" xlink:href="#DejaVuSans-98"/>
      <use x="527.150391" xlink:href="#DejaVuSans-112"/>
      <use x="590.626953" xlink:href="#DejaVuSans-41"/>
     </g>
    </g>
   </g>
   <g id="matplotlib.axis_2">
    <g id="ytick_1">
     <g id="line2d_1">
      <path clip-path="url(#p348c1816b2)" d="M 45.690625 273.99006 
L 993.100625 273.99006 
" style="fill:none;stroke:#dedede;stroke-linecap:square;"/>
     </g>
     <g id="text_10">
      <!-- 0.0 -->
      <defs>
       <path d="M 10.6875 12.40625 
L 21 12.40625 
L 21 0 
L 10.6875 0 
z
" id="DejaVuSans-46"/>
      </defs>
      <g transform="translate(25.968125 277.029435)scale(0.08 -0.08)">
       <use xlink:href="#DejaVuSans-48"/>
       <use x="63.623047" xlink:href="#DejaVuSans-46"/>
       <use x="95.410156" xlink:href="#DejaVuSans-48"/>
      </g>
     </g>
    </g>
    <g id="ytick_2">
     <g id="line2d_2">
      <path clip-path="url(#p348c1816b2)" d="M 45.690625 243.492669 
L 993.100625 243.492669 
" style="fill:none;stroke:#dedede;stroke-linecap:square;"/>
     </g>
     <g id="text_11">
      <!-- 2.5 -->
      <defs>
       <path d="M 10.796875 72.90625 
L 49.515625 72.90625 
L 49.515625 64.59375 
L 19.828125 64.59375 
L 19.828125 46.734375 
Q 21.96875 47.46875 24.109375 47.828125 
Q 26.265625 48.1875 28.421875 48.1875 
Q 40.625 48.1875 47.75 41.5 
Q 54.890625 34.8125 54.890625 23.390625 
Q 54.890625 11.625 47.5625 5.09375 
Q 40.234375 -1.421875 26.90625 -1.421875 
Q 22.3125 -1.421875 17.546875 -0.640625 
Q 12.796875 0.140625 7.71875 1.703125 
L 7.71875 11.625 
Q 12.109375 9.234375 16.796875 8.0625 
Q 21.484375 6.890625 26.703125 6.890625 
Q 35.15625 6.890625 40.078125 11.328125 
Q 45.015625 15.765625 45.015625 23.390625 
Q 45.015625 31 40.078125 35.4375 
Q 35.15625 39.890625 26.703125 39.890625 
Q 22.75 39.890625 18.8125 39.015625 
Q 14.890625 38.140625 10.796875 36.28125 
z
" id="DejaVuSans-53"/>
      </defs>
      <g transform="translate(25.968125 246.532044)scale(0.08 -0.08)">
       <use xlink:href="#DejaVuSans-50"/>
       <use x="63.623047" xlink:href="#DejaVuSans-46"/>
       <use x="95.410156" xlink:href="#DejaVuSans-53"/>
      </g>
     </g>
    </g>
    <g id="ytick_3">
     <g id="line2d_3">
      <path clip-path="url(#p348c1816b2)" d="M 45.690625 212.995278 
L 993.100625 212.995278 
" style="fill:none;stroke:#dedede;stroke-linecap:square;"/>
     </g>
     <g id="text_12">
      <!-- 5.0 -->
      <g transform="translate(25.968125 216.034653)scale(0.08 -0.08)">
       <use xlink:href="#DejaVuSans-53"/>
       <use x="63.623047" xlink:href="#DejaVuSans-46"/>
       <use x="95.410156" xlink:href="#DejaVuSans-48"/>
      </g>
     </g>
    </g>
    <g id="ytick_4">
     <g id="line2d_4">
      <path clip-path="url(#p348c1816b2)" d="M 45.690625 182.497887 
L 993.100625 182.497887 
" style="fill:none;stroke:#dedede;stroke-linecap:square;"/>
     </g>
     <g id="text_13">
      <!-- 7.5 -->
      <defs>
       <path d="M 8.203125 72.90625 
L 55.078125 72.90625 
L 55.078125 68.703125 
L 28.609375 0 
L 18.3125 0 
L 43.21875 64.59375 
L 8.203125 64.59375 
z
" id="DejaVuSans-55"/>
      </defs>
      <g transform="translate(25.968125 185.537262)scale(0.08 -0.08)">
       <use xlink:href="#DejaVuSans-55"/>
       <use x="63.623047" xlink:href="#DejaVuSans-46"/>
       <use x="95.410156" xlink:href="#DejaVuSans-53"/>
      </g>
     </g>
    </g>
    <g id="ytick_5">
     <g id="line2d_5">
      <path clip-path="url(#p348c1816b2)" d="M 45.690625 152.000495 
L 993.100625 152.000495 
" style="fill:none;stroke:#dedede;stroke-linecap:square;"/>
     </g>
     <g id="text_14">
      <!-- 10.0 -->
      <g transform="translate(20.878125 155.03987)scale(0.08 -0.08)">
       <use xlink:href="#DejaVuSans-49"/>
       <use x="63.623047" xlink:href="#DejaVuSans-48"/>
       <use x="127.246094" xlink:href="#DejaVuSans-46"/>
       <use x="159.033203" xlink:href="#DejaVuSans-48"/>
      </g>
     </g>
    </g>
    <g id="ytick_6">
     <g id="line2d_6">
      <path clip-path="url(#p348c1816b2)" d="M 45.690625 121.503104 
L 993.100625 121.503104 
" style="fill:none;stroke:#dedede;stroke-linecap:square;"/>
     </g>
     <g id="text_15">
      <!-- 12.5 -->
      <g transform="translate(20.878125 124.542479)scale(0.08 -0.08)">
       <use xlink:href="#DejaVuSans-49"/>
       <use x="63.623047" xlink:href="#DejaVuSans-50"/>
       <use x="127.246094" xlink:href="#DejaVuSans-46"/>
       <use x="159.033203" xlink:href="#DejaVuSans-53"/>
      </g>
     </g>
    </g>
    <g id="ytick_7">
     <g id="line2d_7">
      <path clip-path="url(#p348c1816b2)" d="M 45.690625 91.005713 
L 993.100625 91.005713 
" style="fill:none;stroke:#dedede;stroke-linecap:square;"/>
     </g>
     <g id="text_16">
      <!-- 15.0 -->
      <g transform="translate(20.878125 94.045088)scale(0.08 -0.08)">
       <use xlink:href="#DejaVuSans-49"/>
       <use x="63.623047" xlink:href="#DejaVuSans-53"/>
       <use x="127.246094" xlink:href="#DejaVuSans-46"/>
       <use x="159.033203" xlink:href="#DejaVuSans-48"/>
      </g>
     </g>
    </g>
    <g id="ytick_8">
     <g id="line2d_8">
      <path clip-path="url(#p348c1816b2)" d="M 45.690625 60.508322 
L 993.100625 60.508322 
" style="fill:none;stroke:#dedede;stroke-linecap:square;"/>
     </g>
     <g id="text_17">
      <!-- 17.5 -->
      <g transform="translate(20.878125 63.547697)scale(0.08 -0.08)">
       <use xlink:href="#DejaVuSans-49"/>
       <use x="63.623047" xlink:href="#DejaVuSans-55"/>
       <use x="127.246094" xlink:href="#DejaVuSans-46"/>
       <use x="159.033203" xlink:href="#DejaVuSans-53"/>
      </g>
     </g>
    </g>
    <g id="text_18">
     <!-- % of Sequences -->
     <defs>
      <path d="M 72.703125 32.078125 
Q 68.453125 32.078125 66.03125 28.46875 
Q 63.625 24.859375 63.625 18.40625 
Q 63.625 12.0625 66.03125 8.421875 
Q 68.453125 4.78125 72.703125 4.78125 
Q 76.859375 4.78125 79.265625 8.421875 
Q 81.6875 12.0625 81.6875 18.40625 
Q 81.6875 24.8125 79.265625 28.4375 
Q 76.859375 32.078125 72.703125 32.078125 
z
M 72.703125 38.28125 
Q 80.421875 38.28125 84.953125 32.90625 
Q 89.5 27.546875 89.5 18.40625 
Q 89.5 9.28125 84.9375 3.921875 
Q 80.375 -1.421875 72.703125 -1.421875 
Q 64.890625 -1.421875 60.34375 3.921875 
Q 55.8125 9.28125 55.8125 18.40625 
Q 55.8125 27.59375 60.375 32.9375 
Q 64.9375 38.28125 72.703125 38.28125 
z
M 22.3125 68.015625 
Q 18.109375 68.015625 15.6875 64.375 
Q 13.28125 60.75 13.28125 54.390625 
Q 13.28125 47.953125 15.671875 44.328125 
Q 18.0625 40.71875 22.3125 40.71875 
Q 26.5625 40.71875 28.96875 44.328125 
Q 31.390625 47.953125 31.390625 54.390625 
Q 31.390625 60.6875 28.953125 64.34375 
Q 26.515625 68.015625 22.3125 68.015625 
z
M 66.40625 74.21875 
L 74.21875 74.21875 
L 28.609375 -1.421875 
L 20.796875 -1.421875 
z
M 22.3125 74.21875 
Q 30.03125 74.21875 34.609375 68.875 
Q 39.203125 63.53125 39.203125 54.390625 
Q 39.203125 45.171875 34.640625 39.84375 
Q 30.078125 34.515625 22.3125 34.515625 
Q 14.546875 34.515625 10.03125 39.859375 
Q 5.515625 45.21875 5.515625 54.390625 
Q 5.515625 63.484375 10.046875 68.84375 
Q 14.59375 74.21875 22.3125 74.21875 
z
" id="DejaVuSans-37"/>
      <path d="M 37.109375 75.984375 
L 37.109375 68.5 
L 28.515625 68.5 
Q 23.6875 68.5 21.796875 66.546875 
Q 19.921875 64.59375 19.921875 59.515625 
L 19.921875 54.6875 
L 34.71875 54.6875 
L 34.71875 47.703125 
L 19.921875 47.703125 
L 19.921875 0 
L 10.890625 0 
L 10.890625 47.703125 
L 2.296875 47.703125 
L 2.296875 54.6875 
L 10.890625 54.6875 
L 10.890625 58.5 
Q 10.890625 67.625 15.140625 71.796875 
Q 19.390625 75.984375 28.609375 75.984375 
z
" id="DejaVuSans-102"/>
      <path d="M 53.515625 70.515625 
L 53.515625 60.890625 
Q 47.90625 63.578125 42.921875 64.890625 
Q 37.9375 66.21875 33.296875 66.21875 
Q 25.25 66.21875 20.875 63.09375 
Q 16.5 59.96875 16.5 54.203125 
Q 16.5 49.359375 19.40625 46.890625 
Q 22.3125 44.4375 30.421875 42.921875 
L 36.375 41.703125 
Q 47.40625 39.59375 52.65625 34.296875 
Q 57.90625 29 57.90625 20.125 
Q 57.90625 9.515625 50.796875 4.046875 
Q 43.703125 -1.421875 29.984375 -1.421875 
Q 24.8125 -1.421875 18.96875 -0.25 
Q 13.140625 0.921875 6.890625 3.21875 
L 6.890625 13.375 
Q 12.890625 10.015625 18.65625 8.296875 
Q 24.421875 6.59375 29.984375 6.59375 
Q 38.421875 6.59375 43.015625 9.90625 
Q 47.609375 13.234375 47.609375 19.390625 
Q 47.609375 24.75 44.3125 27.78125 
Q 41.015625 30.8125 33.5 32.328125 
L 27.484375 33.5 
Q 16.453125 35.6875 11.515625 40.375 
Q 6.59375 45.0625 6.59375 53.421875 
Q 6.59375 63.09375 13.40625 68.65625 
Q 20.21875 74.21875 32.171875 74.21875 
Q 37.3125 74.21875 42.625 73.28125 
Q 47.953125 72.359375 53.515625 70.515625 
z
" id="DejaVuSans-83"/>
      <path d="M 56.203125 29.59375 
L 56.203125 25.203125 
L 14.890625 25.203125 
Q 15.484375 15.921875 20.484375 11.0625 
Q 25.484375 6.203125 34.421875 6.203125 
Q 39.59375 6.203125 44.453125 7.46875 
Q 49.3125 8.734375 54.109375 11.28125 
L 54.109375 2.78125 
Q 49.265625 0.734375 44.1875 -0.34375 
Q 39.109375 -1.421875 33.890625 -1.421875 
Q 20.796875 -1.421875 13.15625 6.1875 
Q 5.515625 13.8125 5.515625 26.8125 
Q 5.515625 40.234375 12.765625 48.109375 
Q 20.015625 56 32.328125 56 
Q 43.359375 56 49.78125 48.890625 
Q 56.203125 41.796875 56.203125 29.59375 
z
M 47.21875 32.234375 
Q 47.125 39.59375 43.09375 43.984375 
Q 39.0625 48.390625 32.421875 48.390625 
Q 24.90625 48.390625 20.390625 44.140625 
Q 15.875 39.890625 15.1875 32.171875 
z
" id="DejaVuSans-101"/>
      <path d="M 14.796875 27.296875 
Q 14.796875 17.390625 18.875 11.75 
Q 22.953125 6.109375 30.078125 6.109375 
Q 37.203125 6.109375 41.296875 11.75 
Q 45.40625 17.390625 45.40625 27.296875 
Q 45.40625 37.203125 41.296875 42.84375 
Q 37.203125 48.484375 30.078125 48.484375 
Q 22.953125 48.484375 18.875 42.84375 
Q 14.796875 37.203125 14.796875 27.296875 
z
M 45.40625 8.203125 
Q 42.578125 3.328125 38.25 0.953125 
Q 33.9375 -1.421875 27.875 -1.421875 
Q 17.96875 -1.421875 11.734375 6.484375 
Q 5.515625 14.40625 5.515625 27.296875 
Q 5.515625 40.1875 11.734375 48.09375 
Q 17.96875 56 27.875 56 
Q 33.9375 56 38.25 53.625 
Q 42.578125 51.265625 45.40625 46.390625 
L 45.40625 54.6875 
L 54.390625 54.6875 
L 54.390625 -20.796875 
L 45.40625 -20.796875 
z
" id="DejaVuSans-113"/>
      <path d="M 8.5 21.578125 
L 8.5 54.6875 
L 17.484375 54.6875 
L 17.484375 21.921875 
Q 17.484375 14.15625 20.5 10.265625 
Q 23.53125 6.390625 29.59375 6.390625 
Q 36.859375 6.390625 41.078125 11.03125 
Q 45.3125 15.671875 45.3125 23.6875 
L 45.3125 54.6875 
L 54.296875 54.6875 
L 54.296875 0 
L 45.3125 0 
L 45.3125 8.40625 
Q 42.046875 3.421875 37.71875 1 
Q 33.40625 -1.421875 27.6875 -1.421875 
Q 18.265625 -1.421875 13.375 4.4375 
Q 8.5 10.296875 8.5 21.578125 
z
M 31.109375 56 
z
" id="DejaVuSans-117"/>
      <path d="M 48.78125 52.59375 
L 48.78125 44.1875 
Q 44.96875 46.296875 41.140625 47.34375 
Q 37.3125 48.390625 33.40625 48.390625 
Q 24.65625 48.390625 19.8125 42.84375 
Q 14.984375 37.3125 14.984375 27.296875 
Q 14.984375 17.28125 19.8125 11.734375 
Q 24.65625 6.203125 33.40625 6.203125 
Q 37.3125 6.203125 41.140625 7.25 
Q 44.96875 8.296875 48.78125 10.40625 
L 48.78125 2.09375 
Q 45.015625 0.34375 40.984375 -0.53125 
Q 36.96875 -1.421875 32.421875 -1.421875 
Q 20.0625 -1.421875 12.78125 6.34375 
Q 5.515625 14.109375 5.515625 27.296875 
Q 5.515625 40.671875 12.859375 48.328125 
Q 20.21875 56 33.015625 56 
Q 37.15625 56 41.109375 55.140625 
Q 45.0625 54.296875 48.78125 52.59375 
z
" id="DejaVuSans-99"/>
     </defs>
     <g transform="translate(14.798438 192.754429)rotate(-90)scale(0.1 -0.1)">
      <use xlink:href="#DejaVuSans-37"/>
      <use x="95.019531" xlink:href="#DejaVuSans-32"/>
      <use x="126.806641" xlink:href="#DejaVuSans-111"/>
      <use x="187.988281" xlink:href="#DejaVuSans-102"/>
      <use x="223.193359" xlink:href="#DejaVuSans-32"/>
      <use x="254.980469" xlink:href="#DejaVuSans-83"/>
      <use x="318.457031" xlink:href="#DejaVuSans-101"/>
      <use x="379.980469" xlink:href="#DejaVuSans-113"/>
      <use x="443.457031" xlink:href="#DejaVuSans-117"/>
      <use x="506.835938" xlink:href="#DejaVuSans-101"/>
      <use x="568.359375" xlink:href="#DejaVuSans-110"/>
      <use x="631.738281" xlink:href="#DejaVuSans-99"/>
      <use x="686.71875" xlink:href="#DejaVuSans-101"/>
      <use x="748.242188" xlink:href="#DejaVuSans-115"/>
     </g>
    </g>
   </g>
   <g id="line2d_9">
    <path clip-path="url(#p348c1816b2)" d="M 88.754716 273.950714 
L 95.041445 273.944023 
L 101.328173 273.938732 
L 107.614902 273.933792 
L 113.90163 273.927976 
L 120.188359 273.921564 
L 126.475088 273.914452 
L 132.761816 273.870727 
L 139.048545 273.867013 
L 145.335273 273.85864 
L 157.908731 273.845203 
L 170.482188 273.828211 
L 183.055645 273.813794 
L 195.629102 273.795505 
L 208.202559 273.769753 
L 220.776017 273.727202 
L 233.349474 273.651612 
L 245.922931 273.519613 
L 258.496388 273.286063 
L 271.069845 272.922126 
L 283.643303 272.331943 
L 296.21676 271.525483 
L 308.790217 270.394501 
L 321.363674 268.98507 
L 333.937131 267.282422 
L 346.510589 265.233425 
L 359.084046 262.818144 
L 371.657503 260.033477 
L 384.23096 256.930385 
L 396.804417 253.484693 
L 409.377875 249.725778 
L 421.951332 245.649997 
L 434.524789 241.271084 
L 447.098246 236.64084 
L 459.671703 231.766342 
L 472.245161 226.65987 
L 484.818618 221.32964 
L 497.392075 215.860668 
L 509.965532 210.239884 
L 522.538989 204.57781 
L 535.112446 198.80066 
L 547.685904 192.937899 
L 560.259361 187.035933 
L 572.832818 181.113296 
L 585.406275 175.191763 
L 597.979732 169.304529 
L 610.55319 163.454067 
L 623.126647 157.654003 
L 635.700104 151.887749 
L 648.273561 146.194318 
L 660.847018 140.597814 
L 673.420476 135.111709 
L 685.993933 129.724318 
L 698.56739 124.481223 
L 711.140847 119.309041 
L 723.714304 114.242019 
L 736.287762 109.332397 
L 748.861219 104.601337 
L 761.434676 99.97563 
L 774.008133 95.481764 
L 786.58159 91.109192 
L 799.155048 86.842325 
L 811.728505 82.738165 
L 824.301962 78.726272 
L 836.875419 74.841543 
L 849.448876 71.050745 
L 862.022334 67.306213 
L 874.595791 63.650847 
L 887.169248 60.039154 
L 899.742705 56.497165 
L 912.316162 53.03194 
L 924.88962 49.639083 
L 937.463077 46.300268 
L 950.036534 43.030527 
" style="fill:none;stroke:#7cb5ec;stroke-linecap:square;"/>
   </g>
   <g id="line2d_10">
    <path clip-path="url(#p348c1816b2)" d="M 88.754716 273.950574 
L 95.041445 273.943882 
L 101.328173 273.940028 
L 107.614902 273.934983 
L 113.90163 273.929202 
L 120.188359 273.922686 
L 126.475088 273.915713 
L 132.761816 273.872059 
L 139.048545 273.868415 
L 145.335273 273.860111 
L 157.908731 273.846885 
L 170.482188 273.830225 
L 183.055645 273.815773 
L 195.629102 273.797011 
L 208.202559 273.76942 
L 220.776017 273.722332 
L 233.349474 273.638368 
L 245.922931 273.494107 
L 258.496388 273.248346 
L 271.069845 272.872322 
L 283.643303 272.27571 
L 296.21676 271.457758 
L 308.790217 270.315968 
L 321.363674 268.901789 
L 333.937131 267.195498 
L 346.510589 265.141228 
L 359.084046 262.722478 
L 371.657503 259.936883 
L 384.23096 256.831566 
L 396.804417 253.39239 
L 409.377875 249.636629 
L 421.951332 245.570886 
L 434.524789 241.211488 
L 447.098246 236.615159 
L 459.671703 231.788888 
L 472.245161 226.747162 
L 484.818618 221.494362 
L 497.392075 216.101786 
L 509.965532 210.562251 
L 522.538989 204.992251 
L 535.112446 199.326411 
L 547.685904 193.581249 
L 560.259361 187.800666 
L 572.832818 182.00323 
L 585.406275 176.208632 
L 597.979732 170.452679 
L 610.55319 164.735038 
L 623.126647 159.073419 
L 635.700104 153.448186 
L 648.273561 147.889538 
L 660.847018 142.43479 
L 673.420476 137.090301 
L 685.993933 131.849851 
L 698.56739 126.748775 
L 711.140847 121.720556 
L 723.714304 116.796201 
L 736.287762 112.027197 
L 748.861219 107.42824 
L 761.434676 102.943903 
L 774.008133 98.58193 
L 786.58159 94.339833 
L 799.155048 90.199113 
L 811.728505 86.206035 
L 824.301962 82.300161 
L 836.875419 78.51849 
L 849.448876 74.832906 
L 862.022334 71.194586 
L 874.595791 67.646203 
L 887.169248 64.139285 
L 899.742705 60.697832 
L 912.316162 57.329902 
L 924.88962 54.026334 
L 937.463077 50.775004 
L 950.036534 47.585005 
" style="fill:none;stroke:#434348;stroke-linecap:square;"/>
   </g>
   <g id="line2d_11">
    <path clip-path="url(#p348c1816b2)" d="M 88.754716 273.951962 
L 95.041445 273.94494 
L 101.328173 273.939076 
L 107.614902 273.933528 
L 113.90163 273.927067 
L 120.188359 273.920501 
L 126.475088 273.913233 
L 132.761816 273.867902 
L 139.048545 273.864917 
L 145.335273 273.857754 
L 157.908731 273.844551 
L 170.482188 273.829137 
L 183.055645 273.815425 
L 195.629102 273.797026 
L 208.202559 273.771411 
L 220.776017 273.72996 
L 233.349474 273.653325 
L 245.922931 273.522582 
L 258.496388 273.288799 
L 271.069845 272.925045 
L 283.643303 272.338077 
L 296.21676 271.541203 
L 308.790217 270.405101 
L 321.363674 268.980914 
L 333.937131 267.279439 
L 346.510589 265.238736 
L 359.084046 262.825185 
L 371.657503 260.058009 
L 384.23096 256.957681 
L 396.804417 253.517757 
L 409.377875 249.754651 
L 421.951332 245.671367 
L 434.524789 241.316904 
L 447.098246 236.700726 
L 459.671703 231.853013 
L 472.245161 226.75805 
L 484.818618 221.461538 
L 497.392075 215.979945 
L 509.965532 210.369259 
L 522.538989 204.699407 
L 535.112446 198.937682 
L 547.685904 193.098164 
L 560.259361 187.221461 
L 572.832818 181.299374 
L 585.406275 175.387698 
L 597.979732 169.498372 
L 610.55319 163.686242 
L 623.126647 157.902606 
L 635.700104 152.185247 
L 648.273561 146.5132 
L 660.847018 140.922002 
L 673.420476 135.458984 
L 685.993933 130.087295 
L 698.56739 124.848842 
L 711.140847 119.701754 
L 723.714304 114.682566 
L 736.287762 109.791171 
L 748.861219 105.040563 
L 761.434676 100.433883 
L 774.008133 95.932753 
L 786.58159 91.549673 
L 799.155048 87.296354 
L 811.728505 83.17843 
L 824.301962 79.168813 
L 836.875419 75.296296 
L 849.448876 71.504064 
L 862.022334 67.775966 
L 874.595791 64.134299 
L 887.169248 60.536436 
L 899.742705 57.011169 
L 912.316162 53.538993 
L 924.88962 50.132128 
L 937.463077 46.793031 
L 950.036534 43.532464 
" style="fill:none;stroke:#90ed7d;stroke-linecap:square;"/>
   </g>
   <g id="line2d_12">
    <path clip-path="url(#p348c1816b2)" d="M 88.754716 273.951681 
L 95.041445 273.944659 
L 101.328173 273.939919 
L 107.614902 273.934687 
L 113.90163 273.928437 
L 120.188359 273.92187 
L 126.475088 273.914462 
L 132.761816 273.86906 
L 139.048545 273.866005 
L 145.335273 273.858983 
L 157.908731 273.845956 
L 170.482188 273.830348 
L 183.055645 273.816303 
L 195.629102 273.796938 
L 208.202559 273.769304 
L 220.776017 273.723534 
L 233.349474 273.638701 
L 245.922931 273.493491 
L 258.496388 273.246575 
L 271.069845 272.870093 
L 283.643303 272.273363 
L 296.21676 271.461233 
L 308.790217 270.313859 
L 321.363674 268.875522 
L 333.937131 267.166848 
L 346.510589 265.119404 
L 359.084046 262.695284 
L 371.657503 259.918593 
L 384.23096 256.812067 
L 396.804417 253.366314 
L 409.377875 249.59745 
L 421.951332 245.513832 
L 434.524789 241.172256 
L 447.098246 236.578129 
L 459.671703 231.766968 
L 472.245161 226.7163 
L 484.818618 221.480517 
L 497.392075 216.064146 
L 509.965532 210.529269 
L 522.538989 204.945269 
L 535.112446 199.274399 
L 547.685904 193.53232 
L 560.259361 187.761289 
L 572.832818 181.95167 
L 585.406275 176.149407 
L 597.979732 170.377885 
L 610.55319 164.685438 
L 623.126647 159.015446 
L 635.700104 153.414029 
L 648.273561 147.864668 
L 660.847018 142.401387 
L 673.420476 137.063775 
L 685.993933 131.81377 
L 698.56739 126.699478 
L 711.140847 121.676796 
L 723.714304 116.778396 
L 736.287762 112.0139 
L 748.861219 107.391525 
L 761.434676 102.911445 
L 774.008133 98.531719 
L 786.58159 94.265548 
L 799.155048 90.119903 
L 811.728505 86.100577 
L 824.301962 82.181008 
L 836.875419 78.394166 
L 849.448876 74.695704 
L 862.022334 71.05732 
L 874.595791 67.508773 
L 887.169248 64.007611 
L 899.742705 60.57183 
L 912.316162 57.189755 
L 924.88962 53.867038 
L 937.463077 50.607331 
L 950.036534 47.417675 
" style="fill:none;stroke:#f7a35c;stroke-linecap:square;"/>
   </g>
   <g id="line2d_13">
    <path clip-path="url(#p348c1816b2)" d="M 88.754716 273.980436 
L 95.041445 273.97803 
L 101.328173 273.976312 
L 107.614902 273.970125 
L 113.90163 273.967375 
L 120.188359 273.963595 
L 126.475088 273.960158 
L 132.761816 273.948815 
L 139.048545 273.946409 
L 145.335273 273.935411 
L 157.908731 273.87509 
L 170.482188 273.812707 
L 183.055645 273.80463 
L 195.629102 273.793116 
L 208.202559 273.772666 
L 220.776017 273.74706 
L 233.349474 273.711486 
L 245.922931 273.668007 
L 258.496388 273.589126 
L 271.069845 273.478969 
L 283.643303 273.292336 
L 296.21676 273.072707 
L 308.790217 272.74464 
L 321.363674 272.328239 
L 333.937131 271.816804 
L 346.510589 271.237659 
L 359.084046 270.530311 
L 371.657503 269.745457 
L 384.23096 268.870037 
L 396.804417 267.928625 
L 409.377875 266.919675 
L 421.951332 265.809503 
L 434.524789 264.610998 
L 447.098246 263.314538 
L 459.671703 261.954319 
L 472.245161 260.53653 
L 484.818618 259.028175 
L 497.392075 257.443344 
L 509.965532 255.831361 
L 522.538989 254.136544 
L 535.112446 252.398421 
L 547.685904 250.57248 
L 560.259361 248.797752 
L 572.832818 246.968718 
L 585.406275 245.144668 
L 597.979732 243.271296 
L 610.55319 241.406689 
L 623.126647 239.55961 
L 635.700104 237.698955 
L 648.273561 235.800665 
L 660.847018 233.930214 
L 673.420476 232.07987 
L 685.993933 230.211482 
L 698.56739 228.362342 
L 711.140847 226.497734 
L 723.714304 224.670591 
L 736.287762 222.78811 
L 748.861219 220.934158 
L 761.434676 219.098078 
L 774.008133 217.277293 
L 786.58159 215.452555 
L 799.155048 213.659095 
L 811.728505 211.888491 
L 824.301962 210.100015 
L 836.875419 208.267372 
L 849.448876 206.484223 
L 862.022334 204.697293 
L 874.595791 202.939235 
L 887.169248 201.18341 
L 899.742705 199.442193 
L 912.316162 197.6929 
L 924.88962 195.971274 
L 937.463077 194.207029 
L 950.036534 192.468733 
" style="fill:none;stroke:#8085e9;stroke-linecap:square;"/>
   </g>
   <g id="line2d_14">
    <path clip-path="url(#p348c1816b2)" d="M 88.754716 273.981124 
L 95.041445 273.978374 
L 101.328173 273.976655 
L 107.614902 273.9715 
L 113.90163 273.968406 
L 120.188359 273.964969 
L 126.475088 273.961876 
L 132.761816 273.950534 
L 139.048545 273.948128 
L 145.335273 273.937129 
L 157.908731 273.876981 
L 170.482188 273.814426 
L 183.055645 273.806005 
L 195.629102 273.794147 
L 208.202559 273.773009 
L 220.776017 273.745685 
L 233.349474 273.709424 
L 245.922931 273.659758 
L 258.496388 273.577956 
L 271.069845 273.462127 
L 283.643303 273.273776 
L 296.21676 273.046758 
L 308.790217 272.713534 
L 321.363674 272.293697 
L 333.937131 271.778137 
L 346.510589 271.193836 
L 359.084046 270.469475 
L 371.657503 269.678606 
L 384.23096 268.791156 
L 396.804417 267.844589 
L 409.377875 266.817938 
L 421.951332 265.697798 
L 434.524789 264.488123 
L 447.098246 263.179633 
L 459.671703 261.813056 
L 472.245161 260.390799 
L 484.818618 258.88313 
L 497.392075 257.307236 
L 509.965532 255.698862 
L 522.538989 254.011435 
L 535.112446 252.286716 
L 547.685904 250.483117 
L 560.259361 248.719903 
L 572.832818 246.909944 
L 585.406275 245.097065 
L 597.979732 243.223521 
L 610.55319 241.379364 
L 623.126647 239.541394 
L 635.700104 237.693972 
L 648.273561 235.808054 
L 660.847018 233.943619 
L 673.420476 232.116819 
L 685.993933 230.271803 
L 698.56739 228.443113 
L 711.140847 226.602908 
L 723.714304 224.792778 
L 736.287762 222.937279 
L 748.861219 221.117353 
L 761.434676 219.3208 
L 774.008133 217.5404 
L 786.58159 215.744534 
L 799.155048 213.97479 
L 811.728505 212.222059 
L 824.301962 210.454892 
L 836.875419 208.64923 
L 849.448876 206.886188 
L 862.022334 205.126411 
L 874.595791 203.397911 
L 887.169248 201.662193 
L 899.742705 199.951395 
L 912.316162 198.229597 
L 924.88962 196.535984 
L 937.463077 194.806796 
L 950.036534 193.083796 
" style="fill:none;stroke:#f15c80;stroke-linecap:square;"/>
   </g>
   <g id="line2d_15">
    <path clip-path="url(#p348c1816b2)" d="M 88.754716 273.983861 
L 95.041445 273.981106 
L 101.328173 273.976973 
L 107.614902 273.973529 
L 113.90163 273.968708 
L 120.188359 273.964575 
L 126.475088 273.961475 
L 132.761816 273.95321 
L 139.048545 273.951143 
L 145.335273 273.938229 
L 157.908731 273.880026 
L 170.482188 273.818724 
L 183.055645 273.809253 
L 195.629102 273.796855 
L 208.202559 273.781357 
L 220.776017 273.760521 
L 233.349474 273.727976 
L 245.922931 273.682171 
L 258.496388 273.604682 
L 271.069845 273.494992 
L 283.643303 273.299893 
L 296.21676 273.058989 
L 308.790217 272.722343 
L 321.363674 272.295638 
L 333.937131 271.788 
L 346.510589 271.204078 
L 359.084046 270.539741 
L 371.657503 269.792921 
L 384.23096 268.934 
L 396.804417 268.039434 
L 409.377875 267.004356 
L 421.951332 265.874569 
L 434.524789 264.66712 
L 447.098246 263.379945 
L 459.671703 262.0356 
L 472.245161 260.588108 
L 484.818618 259.096362 
L 497.392075 257.534876 
L 509.965532 255.888669 
L 522.538989 254.209917 
L 535.112446 252.532025 
L 547.685904 250.768896 
L 560.259361 248.955141 
L 572.832818 247.132603 
L 585.406275 245.293019 
L 597.979732 243.412967 
L 610.55319 241.549447 
L 623.126647 239.671118 
L 635.700104 237.803637 
L 648.273561 235.938911 
L 660.847018 234.041985 
L 673.420476 232.151774 
L 685.993933 230.253814 
L 698.56739 228.413196 
L 711.140847 226.540894 
L 723.714304 224.665492 
L 736.287762 222.846054 
L 748.861219 221.03471 
L 761.434676 219.166368 
L 774.008133 217.366388 
L 786.58159 215.539029 
L 799.155048 213.720797 
L 811.728505 211.929427 
L 824.301962 210.139952 
L 836.875419 208.346688 
L 849.448876 206.540854 
L 862.022334 204.745696 
L 874.595791 202.945889 
L 887.169248 201.205145 
L 899.742705 199.443566 
L 912.316162 197.671999 
L 924.88962 195.875464 
L 937.463077 194.105619 
L 950.036534 192.333019 
" style="fill:none;stroke:#e4d354;stroke-linecap:square;"/>
   </g>
   <g id="line2d_16">
    <path clip-path="url(#p348c1816b2)" d="M 88.754716 273.983516 
L 95.041445 273.980417 
L 101.328173 273.976629 
L 107.614902 273.973185 
L 113.90163 273.967674 
L 120.188359 273.963542 
L 126.475088 273.961475 
L 132.761816 273.953554 
L 139.048545 273.951488 
L 145.335273 273.938745 
L 157.908731 273.880198 
L 170.482188 273.818207 
L 183.055645 273.808047 
L 195.629102 273.795477 
L 208.202559 273.77929 
L 220.776017 273.757077 
L 233.349474 273.71971 
L 245.922931 273.666673 
L 258.496388 273.57868 
L 271.069845 273.459003 
L 283.643303 273.25736 
L 296.21676 273.00974 
L 308.790217 272.661901 
L 321.363674 272.226586 
L 333.937131 271.709822 
L 346.510589 271.113675 
L 359.084046 270.438489 
L 371.657503 269.684436 
L 384.23096 268.817078 
L 396.804417 267.904432 
L 409.377875 266.848517 
L 421.951332 265.700994 
L 434.524789 264.47116 
L 447.098246 263.171414 
L 459.671703 261.812088 
L 472.245161 260.352715 
L 484.818618 258.855114 
L 497.392075 257.289151 
L 509.965532 255.638122 
L 522.538989 253.953687 
L 535.112446 252.280617 
L 547.685904 250.522481 
L 560.259361 248.714409 
L 572.832818 246.90117 
L 585.406275 245.063652 
L 597.979732 243.194965 
L 610.55319 241.329723 
L 623.126647 239.463448 
L 635.700104 237.610776 
L 648.273561 235.761031 
L 660.847018 233.878742 
L 673.420476 232.008161 
L 685.993933 230.127766 
L 698.56739 228.294035 
L 711.140847 226.431548 
L 723.714304 224.574572 
L 736.287762 222.761677 
L 748.861219 220.968586 
L 761.434676 219.106443 
L 774.008133 217.321273 
L 786.58159 215.505968 
L 799.155048 213.700994 
L 811.728505 211.91634 
L 824.301962 210.148734 
L 836.875419 208.372346 
L 849.448876 206.587347 
L 862.022334 204.818708 
L 874.595791 203.038531 
L 887.169248 201.32069 
L 899.742705 199.572714 
L 912.316162 197.825944 
L 924.88962 196.051622 
L 937.463077 194.30244 
L 950.036534 192.55567 
" style="fill:none;stroke:#2b908f;stroke-linecap:square;"/>
   </g>
   <g id="line2d_17">
    <path clip-path="url(#p348c1816b2)" d="M 45.690625 273.99006 
L 993.100625 273.99006 
" style="fill:none;stroke:#dedede;stroke-linecap:square;stroke-width:2;"/>
   </g>
   <g id="text_19">
    <!-- FastQC: Adapter Content -->
    <defs>
     <path d="M 9.8125 72.90625 
L 51.703125 72.90625 
L 51.703125 64.59375 
L 19.671875 64.59375 
L 19.671875 43.109375 
L 48.578125 43.109375 
L 48.578125 34.8125 
L 19.671875 34.8125 
L 19.671875 0 
L 9.8125 0 
z
" id="DejaVuSans-70"/>
     <path d="M 34.28125 27.484375 
Q 23.390625 27.484375 19.1875 25 
Q 14.984375 22.515625 14.984375 16.5 
Q 14.984375 11.71875 18.140625 8.90625 
Q 21.296875 6.109375 26.703125 6.109375 
Q 34.1875 6.109375 38.703125 11.40625 
Q 43.21875 16.703125 43.21875 25.484375 
L 43.21875 27.484375 
z
M 52.203125 31.203125 
L 52.203125 0 
L 43.21875 0 
L 43.21875 8.296875 
Q 40.140625 3.328125 35.546875 0.953125 
Q 30.953125 -1.421875 24.3125 -1.421875 
Q 15.921875 -1.421875 10.953125 3.296875 
Q 6 8.015625 6 15.921875 
Q 6 25.140625 12.171875 29.828125 
Q 18.359375 34.515625 30.609375 34.515625 
L 43.21875 34.515625 
L 43.21875 35.40625 
Q 43.21875 41.609375 39.140625 45 
Q 35.0625 48.390625 27.6875 48.390625 
Q 23 48.390625 18.546875 47.265625 
Q 14.109375 46.140625 10.015625 43.890625 
L 10.015625 52.203125 
Q 14.9375 54.109375 19.578125 55.046875 
Q 24.21875 56 28.609375 56 
Q 40.484375 56 46.34375 49.84375 
Q 52.203125 43.703125 52.203125 31.203125 
z
" id="DejaVuSans-97"/>
     <path d="M 39.40625 66.21875 
Q 28.65625 66.21875 22.328125 58.203125 
Q 16.015625 50.203125 16.015625 36.375 
Q 16.015625 22.609375 22.328125 14.59375 
Q 28.65625 6.59375 39.40625 6.59375 
Q 50.140625 6.59375 56.421875 14.59375 
Q 62.703125 22.609375 62.703125 36.375 
Q 62.703125 50.203125 56.421875 58.203125 
Q 50.140625 66.21875 39.40625 66.21875 
z
M 53.21875 1.3125 
L 66.21875 -12.890625 
L 54.296875 -12.890625 
L 43.5 -1.21875 
Q 41.890625 -1.3125 41.03125 -1.359375 
Q 40.1875 -1.421875 39.40625 -1.421875 
Q 24.03125 -1.421875 14.8125 8.859375 
Q 5.609375 19.140625 5.609375 36.375 
Q 5.609375 53.65625 14.8125 63.9375 
Q 24.03125 74.21875 39.40625 74.21875 
Q 54.734375 74.21875 63.90625 63.9375 
Q 73.09375 53.65625 73.09375 36.375 
Q 73.09375 23.6875 67.984375 14.640625 
Q 62.890625 5.609375 53.21875 1.3125 
z
" id="DejaVuSans-81"/>
     <path d="M 64.40625 67.28125 
L 64.40625 56.890625 
Q 59.421875 61.53125 53.78125 63.8125 
Q 48.140625 66.109375 41.796875 66.109375 
Q 29.296875 66.109375 22.65625 58.46875 
Q 16.015625 50.828125 16.015625 36.375 
Q 16.015625 21.96875 22.65625 14.328125 
Q 29.296875 6.6875 41.796875 6.6875 
Q 48.140625 6.6875 53.78125 8.984375 
Q 59.421875 11.28125 64.40625 15.921875 
L 64.40625 5.609375 
Q 59.234375 2.09375 53.4375 0.328125 
Q 47.65625 -1.421875 41.21875 -1.421875 
Q 24.65625 -1.421875 15.125 8.703125 
Q 5.609375 18.84375 5.609375 36.375 
Q 5.609375 53.953125 15.125 64.078125 
Q 24.65625 74.21875 41.21875 74.21875 
Q 47.75 74.21875 53.53125 72.484375 
Q 59.328125 70.75 64.40625 67.28125 
z
" id="DejaVuSans-67"/>
     <path d="M 11.71875 12.40625 
L 22.015625 12.40625 
L 22.015625 0 
L 11.71875 0 
z
M 11.71875 51.703125 
L 22.015625 51.703125 
L 22.015625 39.3125 
L 11.71875 39.3125 
z
" id="DejaVuSans-58"/>
     <path d="M 34.1875 63.1875 
L 20.796875 26.90625 
L 47.609375 26.90625 
z
M 28.609375 72.90625 
L 39.796875 72.90625 
L 67.578125 0 
L 57.328125 0 
L 50.6875 18.703125 
L 17.828125 18.703125 
L 11.1875 0 
L 0.78125 0 
z
" id="DejaVuSans-65"/>
     <path d="M 45.40625 46.390625 
L 45.40625 75.984375 
L 54.390625 75.984375 
L 54.390625 0 
L 45.40625 0 
L 45.40625 8.203125 
Q 42.578125 3.328125 38.25 0.953125 
Q 33.9375 -1.421875 27.875 -1.421875 
Q 17.96875 -1.421875 11.734375 6.484375 
Q 5.515625 14.40625 5.515625 27.296875 
Q 5.515625 40.1875 11.734375 48.09375 
Q 17.96875 56 27.875 56 
Q 33.9375 56 38.25 53.625 
Q 42.578125 51.265625 45.40625 46.390625 
z
M 14.796875 27.296875 
Q 14.796875 17.390625 18.875 11.75 
Q 22.953125 6.109375 30.078125 6.109375 
Q 37.203125 6.109375 41.296875 11.75 
Q 45.40625 17.390625 45.40625 27.296875 
Q 45.40625 37.203125 41.296875 42.84375 
Q 37.203125 48.484375 30.078125 48.484375 
Q 22.953125 48.484375 18.875 42.84375 
Q 14.796875 37.203125 14.796875 27.296875 
z
" id="DejaVuSans-100"/>
     <path d="M 41.109375 46.296875 
Q 39.59375 47.171875 37.8125 47.578125 
Q 36.03125 48 33.890625 48 
Q 26.265625 48 22.1875 43.046875 
Q 18.109375 38.09375 18.109375 28.8125 
L 18.109375 0 
L 9.078125 0 
L 9.078125 54.6875 
L 18.109375 54.6875 
L 18.109375 46.1875 
Q 20.953125 51.171875 25.484375 53.578125 
Q 30.03125 56 36.53125 56 
Q 37.453125 56 38.578125 55.875 
Q 39.703125 55.765625 41.0625 55.515625 
z
" id="DejaVuSans-114"/>
    </defs>
    <g transform="translate(419.240625 19.3575)scale(0.16 -0.16)">
     <use xlink:href="#DejaVuSans-70"/>
     <use x="57.378906" xlink:href="#DejaVuSans-97"/>
     <use x="118.658203" xlink:href="#DejaVuSans-115"/>
     <use x="170.757812" xlink:href="#DejaVuSans-116"/>
     <use x="209.966797" xlink:href="#DejaVuSans-81"/>
     <use x="288.677734" xlink:href="#DejaVuSans-67"/>
     <use x="358.501953" xlink:href="#DejaVuSans-58"/>
     <use x="392.193359" xlink:href="#DejaVuSans-32"/>
     <use x="423.980469" xlink:href="#DejaVuSans-65"/>
     <use x="492.373047" xlink:href="#DejaVuSans-100"/>
     <use x="555.849609" xlink:href="#DejaVuSans-97"/>
     <use x="617.128906" xlink:href="#DejaVuSans-112"/>
     <use x="680.605469" xlink:href="#DejaVuSans-116"/>
     <use x="719.814453" xlink:href="#DejaVuSans-101"/>
     <use x="781.337891" xlink:href="#DejaVuSans-114"/>
     <use x="822.451172" xlink:href="#DejaVuSans-32"/>
     <use x="854.238281" xlink:href="#DejaVuSans-67"/>
     <use x="924.0625" xlink:href="#DejaVuSans-111"/>
     <use x="985.244141" xlink:href="#DejaVuSans-110"/>
     <use x="1048.623047" xlink:href="#DejaVuSans-116"/>
     <use x="1087.832031" xlink:href="#DejaVuSans-101"/>
     <use x="1149.355469" xlink:href="#DejaVuSans-110"/>
     <use x="1212.734375" xlink:href="#DejaVuSans-116"/>
    </g>
   </g>
   <g id="legend_1">
    <g id="line2d_18">
     <path d="M 52.890625 303.490394 
L 68.890625 303.490394 
" style="fill:none;stroke:#7cb5ec;stroke-linecap:square;"/>
    </g>
    <g id="line2d_19"/>
    <g id="text_20">
     <!-- Hte-CJol_087-Ex1-2H-SSL-1-1-L4-1 - illumina_universal_adapter -->
     <defs>
      <path d="M 9.8125 72.90625 
L 19.671875 72.90625 
L 19.671875 43.015625 
L 55.515625 43.015625 
L 55.515625 72.90625 
L 65.375 72.90625 
L 65.375 0 
L 55.515625 0 
L 55.515625 34.71875 
L 19.671875 34.71875 
L 19.671875 0 
L 9.8125 0 
z
" id="DejaVuSans-72"/>
      <path d="M 4.890625 31.390625 
L 31.203125 31.390625 
L 31.203125 23.390625 
L 4.890625 23.390625 
z
" id="DejaVuSans-45"/>
      <path d="M 9.8125 72.90625 
L 19.671875 72.90625 
L 19.671875 5.078125 
Q 19.671875 -8.109375 14.671875 -14.0625 
Q 9.671875 -20.015625 -1.421875 -20.015625 
L -5.171875 -20.015625 
L -5.171875 -11.71875 
L -2.09375 -11.71875 
Q 4.4375 -11.71875 7.125 -8.046875 
Q 9.8125 -4.390625 9.8125 5.078125 
z
" id="DejaVuSans-74"/>
      <path d="M 9.421875 75.984375 
L 18.40625 75.984375 
L 18.40625 0 
L 9.421875 0 
z
" id="DejaVuSans-108"/>
      <path d="M 50.984375 -16.609375 
L 50.984375 -23.578125 
L -0.984375 -23.578125 
L -0.984375 -16.609375 
z
" id="DejaVuSans-95"/>
      <path d="M 9.8125 72.90625 
L 55.90625 72.90625 
L 55.90625 64.59375 
L 19.671875 64.59375 
L 19.671875 43.015625 
L 54.390625 43.015625 
L 54.390625 34.71875 
L 19.671875 34.71875 
L 19.671875 8.296875 
L 56.78125 8.296875 
L 56.78125 0 
L 9.8125 0 
z
" id="DejaVuSans-69"/>
      <path d="M 54.890625 54.6875 
L 35.109375 28.078125 
L 55.90625 0 
L 45.3125 0 
L 29.390625 21.484375 
L 13.484375 0 
L 2.875 0 
L 24.125 28.609375 
L 4.6875 54.6875 
L 15.28125 54.6875 
L 29.78125 35.203125 
L 44.28125 54.6875 
z
" id="DejaVuSans-120"/>
      <path d="M 9.8125 72.90625 
L 19.671875 72.90625 
L 19.671875 8.296875 
L 55.171875 8.296875 
L 55.171875 0 
L 9.8125 0 
z
" id="DejaVuSans-76"/>
      <path d="M 52 44.1875 
Q 55.375 50.25 60.0625 53.125 
Q 64.75 56 71.09375 56 
Q 79.640625 56 84.28125 50.015625 
Q 88.921875 44.046875 88.921875 33.015625 
L 88.921875 0 
L 79.890625 0 
L 79.890625 32.71875 
Q 79.890625 40.578125 77.09375 44.375 
Q 74.3125 48.1875 68.609375 48.1875 
Q 61.625 48.1875 57.5625 43.546875 
Q 53.515625 38.921875 53.515625 30.90625 
L 53.515625 0 
L 44.484375 0 
L 44.484375 32.71875 
Q 44.484375 40.625 41.703125 44.40625 
Q 38.921875 48.1875 33.109375 48.1875 
Q 26.21875 48.1875 22.15625 43.53125 
Q 18.109375 38.875 18.109375 30.90625 
L 18.109375 0 
L 9.078125 0 
L 9.078125 54.6875 
L 18.109375 54.6875 
L 18.109375 46.1875 
Q 21.1875 51.21875 25.484375 53.609375 
Q 29.78125 56 35.6875 56 
Q 41.65625 56 45.828125 52.96875 
Q 50 49.953125 52 44.1875 
z
" id="DejaVuSans-109"/>
      <path d="M 2.984375 54.6875 
L 12.5 54.6875 
L 29.59375 8.796875 
L 46.6875 54.6875 
L 56.203125 54.6875 
L 35.6875 0 
L 23.484375 0 
z
" id="DejaVuSans-118"/>
     </defs>
     <g transform="translate(75.290625 306.290394)scale(0.08 -0.08)">
      <use xlink:href="#DejaVuSans-72"/>
      <use x="75.195312" xlink:href="#DejaVuSans-116"/>
      <use x="114.404297" xlink:href="#DejaVuSans-101"/>
      <use x="175.927734" xlink:href="#DejaVuSans-45"/>
      <use x="212.011719" xlink:href="#DejaVuSans-67"/>
      <use x="281.835938" xlink:href="#DejaVuSans-74"/>
      <use x="311.328125" xlink:href="#DejaVuSans-111"/>
      <use x="372.509766" xlink:href="#DejaVuSans-108"/>
      <use x="400.292969" xlink:href="#DejaVuSans-95"/>
      <use x="450.292969" xlink:href="#DejaVuSans-48"/>
      <use x="513.916016" xlink:href="#DejaVuSans-56"/>
      <use x="577.539062" xlink:href="#DejaVuSans-55"/>
      <use x="641.162109" xlink:href="#DejaVuSans-45"/>
      <use x="677.246094" xlink:href="#DejaVuSans-69"/>
      <use x="740.429688" xlink:href="#DejaVuSans-120"/>
      <use x="799.609375" xlink:href="#DejaVuSans-49"/>
      <use x="863.232422" xlink:href="#DejaVuSans-45"/>
      <use x="899.316406" xlink:href="#DejaVuSans-50"/>
      <use x="962.939453" xlink:href="#DejaVuSans-72"/>
      <use x="1038.134766" xlink:href="#DejaVuSans-45"/>
      <use x="1074.21875" xlink:href="#DejaVuSans-83"/>
      <use x="1137.695312" xlink:href="#DejaVuSans-83"/>
      <use x="1201.171875" xlink:href="#DejaVuSans-76"/>
      <use x="1256.869141" xlink:href="#DejaVuSans-45"/>
      <use x="1292.953125" xlink:href="#DejaVuSans-49"/>
      <use x="1356.576172" xlink:href="#DejaVuSans-45"/>
      <use x="1392.660156" xlink:href="#DejaVuSans-49"/>
      <use x="1456.283203" xlink:href="#DejaVuSans-45"/>
      <use x="1492.367188" xlink:href="#DejaVuSans-76"/>
      <use x="1548.080078" xlink:href="#DejaVuSans-52"/>
      <use x="1611.703125" xlink:href="#DejaVuSans-45"/>
      <use x="1647.787109" xlink:href="#DejaVuSans-49"/>
      <use x="1711.410156" xlink:href="#DejaVuSans-32"/>
      <use x="1743.197266" xlink:href="#DejaVuSans-45"/>
      <use x="1779.28125" xlink:href="#DejaVuSans-32"/>
      <use x="1811.068359" xlink:href="#DejaVuSans-105"/>
      <use x="1838.851562" xlink:href="#DejaVuSans-108"/>
      <use x="1866.634766" xlink:href="#DejaVuSans-108"/>
      <use x="1894.417969" xlink:href="#DejaVuSans-117"/>
      <use x="1957.796875" xlink:href="#DejaVuSans-109"/>
      <use x="2055.208984" xlink:href="#DejaVuSans-105"/>
      <use x="2082.992188" xlink:href="#DejaVuSans-110"/>
      <use x="2146.371094" xlink:href="#DejaVuSans-97"/>
      <use x="2207.650391" xlink:href="#DejaVuSans-95"/>
      <use x="2257.650391" xlink:href="#DejaVuSans-117"/>
      <use x="2321.029297" xlink:href="#DejaVuSans-110"/>
      <use x="2384.408203" xlink:href="#DejaVuSans-105"/>
      <use x="2412.191406" xlink:href="#DejaVuSans-118"/>
      <use x="2471.371094" xlink:href="#DejaVuSans-101"/>
      <use x="2532.894531" xlink:href="#DejaVuSans-114"/>
      <use x="2574.007812" xlink:href="#DejaVuSans-115"/>
      <use x="2626.107422" xlink:href="#DejaVuSans-97"/>
      <use x="2687.386719" xlink:href="#DejaVuSans-108"/>
      <use x="2715.169922" xlink:href="#DejaVuSans-95"/>
      <use x="2765.169922" xlink:href="#DejaVuSans-97"/>
      <use x="2826.449219" xlink:href="#DejaVuSans-100"/>
      <use x="2889.925781" xlink:href="#DejaVuSans-97"/>
      <use x="2951.205078" xlink:href="#DejaVuSans-112"/>
      <use x="3014.681641" xlink:href="#DejaVuSans-116"/>
      <use x="3053.890625" xlink:href="#DejaVuSans-101"/>
      <use x="3115.414062" xlink:href="#DejaVuSans-114"/>
     </g>
    </g>
    <g id="line2d_20">
     <path d="M 52.890625 315.455394 
L 68.890625 315.455394 
" style="fill:none;stroke:#434348;stroke-linecap:square;"/>
    </g>
    <g id="line2d_21"/>
    <g id="text_21">
     <!-- Hte-CJol_087-Ex1-2H-SSL-1-1-L4-2 - illumina_universal_adapter -->
     <g transform="translate(75.290625 318.255394)scale(0.08 -0.08)">
      <use xlink:href="#DejaVuSans-72"/>
      <use x="75.195312" xlink:href="#DejaVuSans-116"/>
      <use x="114.404297" xlink:href="#DejaVuSans-101"/>
      <use x="175.927734" xlink:href="#DejaVuSans-45"/>
      <use x="212.011719" xlink:href="#DejaVuSans-67"/>
      <use x="281.835938" xlink:href="#DejaVuSans-74"/>
      <use x="311.328125" xlink:href="#DejaVuSans-111"/>
      <use x="372.509766" xlink:href="#DejaVuSans-108"/>
      <use x="400.292969" xlink:href="#DejaVuSans-95"/>
      <use x="450.292969" xlink:href="#DejaVuSans-48"/>
      <use x="513.916016" xlink:href="#DejaVuSans-56"/>
      <use x="577.539062" xlink:href="#DejaVuSans-55"/>
      <use x="641.162109" xlink:href="#DejaVuSans-45"/>
      <use x="677.246094" xlink:href="#DejaVuSans-69"/>
      <use x="740.429688" xlink:href="#DejaVuSans-120"/>
      <use x="799.609375" xlink:href="#DejaVuSans-49"/>
      <use x="863.232422" xlink:href="#DejaVuSans-45"/>
      <use x="899.316406" xlink:href="#DejaVuSans-50"/>
      <use x="962.939453" xlink:href="#DejaVuSans-72"/>
      <use x="1038.134766" xlink:href="#DejaVuSans-45"/>
      <use x="1074.21875" xlink:href="#DejaVuSans-83"/>
      <use x="1137.695312" xlink:href="#DejaVuSans-83"/>
      <use x="1201.171875" xlink:href="#DejaVuSans-76"/>
      <use x="1256.869141" xlink:href="#DejaVuSans-45"/>
      <use x="1292.953125" xlink:href="#DejaVuSans-49"/>
      <use x="1356.576172" xlink:href="#DejaVuSans-45"/>
      <use x="1392.660156" xlink:href="#DejaVuSans-49"/>
      <use x="1456.283203" xlink:href="#DejaVuSans-45"/>
      <use x="1492.367188" xlink:href="#DejaVuSans-76"/>
      <use x="1548.080078" xlink:href="#DejaVuSans-52"/>
      <use x="1611.703125" xlink:href="#DejaVuSans-45"/>
      <use x="1647.787109" xlink:href="#DejaVuSans-50"/>
      <use x="1711.410156" xlink:href="#DejaVuSans-32"/>
      <use x="1743.197266" xlink:href="#DejaVuSans-45"/>
      <use x="1779.28125" xlink:href="#DejaVuSans-32"/>
      <use x="1811.068359" xlink:href="#DejaVuSans-105"/>
      <use x="1838.851562" xlink:href="#DejaVuSans-108"/>
      <use x="1866.634766" xlink:href="#DejaVuSans-108"/>
      <use x="1894.417969" xlink:href="#DejaVuSans-117"/>
      <use x="1957.796875" xlink:href="#DejaVuSans-109"/>
      <use x="2055.208984" xlink:href="#DejaVuSans-105"/>
      <use x="2082.992188" xlink:href="#DejaVuSans-110"/>
      <use x="2146.371094" xlink:href="#DejaVuSans-97"/>
      <use x="2207.650391" xlink:href="#DejaVuSans-95"/>
      <use x="2257.650391" xlink:href="#DejaVuSans-117"/>
      <use x="2321.029297" xlink:href="#DejaVuSans-110"/>
      <use x="2384.408203" xlink:href="#DejaVuSans-105"/>
      <use x="2412.191406" xlink:href="#DejaVuSans-118"/>
      <use x="2471.371094" xlink:href="#DejaVuSans-101"/>
      <use x="2532.894531" xlink:href="#DejaVuSans-114"/>
      <use x="2574.007812" xlink:href="#DejaVuSans-115"/>
      <use x="2626.107422" xlink:href="#DejaVuSans-97"/>
      <use x="2687.386719" xlink:href="#DejaVuSans-108"/>
      <use x="2715.169922" xlink:href="#DejaVuSans-95"/>
      <use x="2765.169922" xlink:href="#DejaVuSans-97"/>
      <use x="2826.449219" xlink:href="#DejaVuSans-100"/>
      <use x="2889.925781" xlink:href="#DejaVuSans-97"/>
      <use x="2951.205078" xlink:href="#DejaVuSans-112"/>
      <use x="3014.681641" xlink:href="#DejaVuSans-116"/>
      <use x="3053.890625" xlink:href="#DejaVuSans-101"/>
      <use x="3115.414062" xlink:href="#DejaVuSans-114"/>
     </g>
    </g>
    <g id="line2d_22">
     <path d="M 214.125312 303.490394 
L 230.125312 303.490394 
" style="fill:none;stroke:#90ed7d;stroke-linecap:square;"/>
    </g>
    <g id="line2d_23"/>
    <g id="text_22">
     <!-- Hte-CJol_087-Ex1-2H-SSL-1-1-L5-1 - illumina_universal_adapter -->
     <g transform="translate(236.525312 306.290394)scale(0.08 -0.08)">
      <use xlink:href="#DejaVuSans-72"/>
      <use x="75.195312" xlink:href="#DejaVuSans-116"/>
      <use x="114.404297" xlink:href="#DejaVuSans-101"/>
      <use x="175.927734" xlink:href="#DejaVuSans-45"/>
      <use x="212.011719" xlink:href="#DejaVuSans-67"/>
      <use x="281.835938" xlink:href="#DejaVuSans-74"/>
      <use x="311.328125" xlink:href="#DejaVuSans-111"/>
      <use x="372.509766" xlink:href="#DejaVuSans-108"/>
      <use x="400.292969" xlink:href="#DejaVuSans-95"/>
      <use x="450.292969" xlink:href="#DejaVuSans-48"/>
      <use x="513.916016" xlink:href="#DejaVuSans-56"/>
      <use x="577.539062" xlink:href="#DejaVuSans-55"/>
      <use x="641.162109" xlink:href="#DejaVuSans-45"/>
      <use x="677.246094" xlink:href="#DejaVuSans-69"/>
      <use x="740.429688" xlink:href="#DejaVuSans-120"/>
      <use x="799.609375" xlink:href="#DejaVuSans-49"/>
      <use x="863.232422" xlink:href="#DejaVuSans-45"/>
      <use x="899.316406" xlink:href="#DejaVuSans-50"/>
      <use x="962.939453" xlink:href="#DejaVuSans-72"/>
      <use x="1038.134766" xlink:href="#DejaVuSans-45"/>
      <use x="1074.21875" xlink:href="#DejaVuSans-83"/>
      <use x="1137.695312" xlink:href="#DejaVuSans-83"/>
      <use x="1201.171875" xlink:href="#DejaVuSans-76"/>
      <use x="1256.869141" xlink:href="#DejaVuSans-45"/>
      <use x="1292.953125" xlink:href="#DejaVuSans-49"/>
      <use x="1356.576172" xlink:href="#DejaVuSans-45"/>
      <use x="1392.660156" xlink:href="#DejaVuSans-49"/>
      <use x="1456.283203" xlink:href="#DejaVuSans-45"/>
      <use x="1492.367188" xlink:href="#DejaVuSans-76"/>
      <use x="1548.080078" xlink:href="#DejaVuSans-53"/>
      <use x="1611.703125" xlink:href="#DejaVuSans-45"/>
      <use x="1647.787109" xlink:href="#DejaVuSans-49"/>
      <use x="1711.410156" xlink:href="#DejaVuSans-32"/>
      <use x="1743.197266" xlink:href="#DejaVuSans-45"/>
      <use x="1779.28125" xlink:href="#DejaVuSans-32"/>
      <use x="1811.068359" xlink:href="#DejaVuSans-105"/>
      <use x="1838.851562" xlink:href="#DejaVuSans-108"/>
      <use x="1866.634766" xlink:href="#DejaVuSans-108"/>
      <use x="1894.417969" xlink:href="#DejaVuSans-117"/>
      <use x="1957.796875" xlink:href="#DejaVuSans-109"/>
      <use x="2055.208984" xlink:href="#DejaVuSans-105"/>
      <use x="2082.992188" xlink:href="#DejaVuSans-110"/>
      <use x="2146.371094" xlink:href="#DejaVuSans-97"/>
      <use x="2207.650391" xlink:href="#DejaVuSans-95"/>
      <use x="2257.650391" xlink:href="#DejaVuSans-117"/>
      <use x="2321.029297" xlink:href="#DejaVuSans-110"/>
      <use x="2384.408203" xlink:href="#DejaVuSans-105"/>
      <use x="2412.191406" xlink:href="#DejaVuSans-118"/>
      <use x="2471.371094" xlink:href="#DejaVuSans-101"/>
      <use x="2532.894531" xlink:href="#DejaVuSans-114"/>
      <use x="2574.007812" xlink:href="#DejaVuSans-115"/>
      <use x="2626.107422" xlink:href="#DejaVuSans-97"/>
      <use x="2687.386719" xlink:href="#DejaVuSans-108"/>
      <use x="2715.169922" xlink:href="#DejaVuSans-95"/>
      <use x="2765.169922" xlink:href="#DejaVuSans-97"/>
      <use x="2826.449219" xlink:href="#DejaVuSans-100"/>
      <use x="2889.925781" xlink:href="#DejaVuSans-97"/>
      <use x="2951.205078" xlink:href="#DejaVuSans-112"/>
      <use x="3014.681641" xlink:href="#DejaVuSans-116"/>
      <use x="3053.890625" xlink:href="#DejaVuSans-101"/>
      <use x="3115.414062" xlink:href="#DejaVuSans-114"/>
     </g>
    </g>
    <g id="line2d_24">
     <path d="M 214.125312 315.455394 
L 230.125312 315.455394 
" style="fill:none;stroke:#f7a35c;stroke-linecap:square;"/>
    </g>
    <g id="line2d_25"/>
    <g id="text_23">
     <!-- Hte-CJol_087-Ex1-2H-SSL-1-1-L5-2 - illumina_universal_adapter -->
     <g transform="translate(236.525312 318.255394)scale(0.08 -0.08)">
      <use xlink:href="#DejaVuSans-72"/>
      <use x="75.195312" xlink:href="#DejaVuSans-116"/>
      <use x="114.404297" xlink:href="#DejaVuSans-101"/>
      <use x="175.927734" xlink:href="#DejaVuSans-45"/>
      <use x="212.011719" xlink:href="#DejaVuSans-67"/>
      <use x="281.835938" xlink:href="#DejaVuSans-74"/>
      <use x="311.328125" xlink:href="#DejaVuSans-111"/>
      <use x="372.509766" xlink:href="#DejaVuSans-108"/>
      <use x="400.292969" xlink:href="#DejaVuSans-95"/>
      <use x="450.292969" xlink:href="#DejaVuSans-48"/>
      <use x="513.916016" xlink:href="#DejaVuSans-56"/>
      <use x="577.539062" xlink:href="#DejaVuSans-55"/>
      <use x="641.162109" xlink:href="#DejaVuSans-45"/>
      <use x="677.246094" xlink:href="#DejaVuSans-69"/>
      <use x="740.429688" xlink:href="#DejaVuSans-120"/>
      <use x="799.609375" xlink:href="#DejaVuSans-49"/>
      <use x="863.232422" xlink:href="#DejaVuSans-45"/>
      <use x="899.316406" xlink:href="#DejaVuSans-50"/>
      <use x="962.939453" xlink:href="#DejaVuSans-72"/>
      <use x="1038.134766" xlink:href="#DejaVuSans-45"/>
      <use x="1074.21875" xlink:href="#DejaVuSans-83"/>
      <use x="1137.695312" xlink:href="#DejaVuSans-83"/>
      <use x="1201.171875" xlink:href="#DejaVuSans-76"/>
      <use x="1256.869141" xlink:href="#DejaVuSans-45"/>
      <use x="1292.953125" xlink:href="#DejaVuSans-49"/>
      <use x="1356.576172" xlink:href="#DejaVuSans-45"/>
      <use x="1392.660156" xlink:href="#DejaVuSans-49"/>
      <use x="1456.283203" xlink:href="#DejaVuSans-45"/>
      <use x="1492.367188" xlink:href="#DejaVuSans-76"/>
      <use x="1548.080078" xlink:href="#DejaVuSans-53"/>
      <use x="1611.703125" xlink:href="#DejaVuSans-45"/>
      <use x="1647.787109" xlink:href="#DejaVuSans-50"/>
      <use x="1711.410156" xlink:href="#DejaVuSans-32"/>
      <use x="1743.197266" xlink:href="#DejaVuSans-45"/>
      <use x="1779.28125" xlink:href="#DejaVuSans-32"/>
      <use x="1811.068359" xlink:href="#DejaVuSans-105"/>
      <use x="1838.851562" xlink:href="#DejaVuSans-108"/>
      <use x="1866.634766" xlink:href="#DejaVuSans-108"/>
      <use x="1894.417969" xlink:href="#DejaVuSans-117"/>
      <use x="1957.796875" xlink:href="#DejaVuSans-109"/>
      <use x="2055.208984" xlink:href="#DejaVuSans-105"/>
      <use x="2082.992188" xlink:href="#DejaVuSans-110"/>
      <use x="2146.371094" xlink:href="#DejaVuSans-97"/>
      <use x="2207.650391" xlink:href="#DejaVuSans-95"/>
      <use x="2257.650391" xlink:href="#DejaVuSans-117"/>
      <use x="2321.029297" xlink:href="#DejaVuSans-110"/>
      <use x="2384.408203" xlink:href="#DejaVuSans-105"/>
      <use x="2412.191406" xlink:href="#DejaVuSans-118"/>
      <use x="2471.371094" xlink:href="#DejaVuSans-101"/>
      <use x="2532.894531" xlink:href="#DejaVuSans-114"/>
      <use x="2574.007812" xlink:href="#DejaVuSans-115"/>
      <use x="2626.107422" xlink:href="#DejaVuSans-97"/>
      <use x="2687.386719" xlink:href="#DejaVuSans-108"/>
      <use x="2715.169922" xlink:href="#DejaVuSans-95"/>
      <use x="2765.169922" xlink:href="#DejaVuSans-97"/>
      <use x="2826.449219" xlink:href="#DejaVuSans-100"/>
      <use x="2889.925781" xlink:href="#DejaVuSans-97"/>
      <use x="2951.205078" xlink:href="#DejaVuSans-112"/>
      <use x="3014.681641" xlink:href="#DejaVuSans-116"/>
      <use x="3053.890625" xlink:href="#DejaVuSans-101"/>
      <use x="3115.414062" xlink:href="#DejaVuSans-114"/>
     </g>
    </g>
    <g id="line2d_26">
     <path d="M 375.36 303.490394 
L 391.36 303.490394 
" style="fill:none;stroke:#8085e9;stroke-linecap:square;"/>
    </g>
    <g id="line2d_27"/>
    <g id="text_24">
     <!-- Hte-CMvi_008-Ex1-3H-SSL-1-1-L4-1 - illumina_universal_adapter -->
     <defs>
      <path d="M 9.8125 72.90625 
L 24.515625 72.90625 
L 43.109375 23.296875 
L 61.8125 72.90625 
L 76.515625 72.90625 
L 76.515625 0 
L 66.890625 0 
L 66.890625 64.015625 
L 48.09375 14.015625 
L 38.1875 14.015625 
L 19.390625 64.015625 
L 19.390625 0 
L 9.8125 0 
z
" id="DejaVuSans-77"/>
      <path d="M 40.578125 39.3125 
Q 47.65625 37.796875 51.625 33 
Q 55.609375 28.21875 55.609375 21.1875 
Q 55.609375 10.40625 48.1875 4.484375 
Q 40.765625 -1.421875 27.09375 -1.421875 
Q 22.515625 -1.421875 17.65625 -0.515625 
Q 12.796875 0.390625 7.625 2.203125 
L 7.625 11.71875 
Q 11.71875 9.328125 16.59375 8.109375 
Q 21.484375 6.890625 26.8125 6.890625 
Q 36.078125 6.890625 40.9375 10.546875 
Q 45.796875 14.203125 45.796875 21.1875 
Q 45.796875 27.640625 41.28125 31.265625 
Q 36.765625 34.90625 28.71875 34.90625 
L 20.21875 34.90625 
L 20.21875 43.015625 
L 29.109375 43.015625 
Q 36.375 43.015625 40.234375 45.921875 
Q 44.09375 48.828125 44.09375 54.296875 
Q 44.09375 59.90625 40.109375 62.90625 
Q 36.140625 65.921875 28.71875 65.921875 
Q 24.65625 65.921875 20.015625 65.03125 
Q 15.375 64.15625 9.8125 62.3125 
L 9.8125 71.09375 
Q 15.4375 72.65625 20.34375 73.4375 
Q 25.25 74.21875 29.59375 74.21875 
Q 40.828125 74.21875 47.359375 69.109375 
Q 53.90625 64.015625 53.90625 55.328125 
Q 53.90625 49.265625 50.4375 45.09375 
Q 46.96875 40.921875 40.578125 39.3125 
z
" id="DejaVuSans-51"/>
     </defs>
     <g transform="translate(397.76 306.290394)scale(0.08 -0.08)">
      <use xlink:href="#DejaVuSans-72"/>
      <use x="75.195312" xlink:href="#DejaVuSans-116"/>
      <use x="114.404297" xlink:href="#DejaVuSans-101"/>
      <use x="175.927734" xlink:href="#DejaVuSans-45"/>
      <use x="212.011719" xlink:href="#DejaVuSans-67"/>
      <use x="281.835938" xlink:href="#DejaVuSans-77"/>
      <use x="368.115234" xlink:href="#DejaVuSans-118"/>
      <use x="427.294922" xlink:href="#DejaVuSans-105"/>
      <use x="455.078125" xlink:href="#DejaVuSans-95"/>
      <use x="505.078125" xlink:href="#DejaVuSans-48"/>
      <use x="568.701172" xlink:href="#DejaVuSans-48"/>
      <use x="632.324219" xlink:href="#DejaVuSans-56"/>
      <use x="695.947266" xlink:href="#DejaVuSans-45"/>
      <use x="732.03125" xlink:href="#DejaVuSans-69"/>
      <use x="795.214844" xlink:href="#DejaVuSans-120"/>
      <use x="854.394531" xlink:href="#DejaVuSans-49"/>
      <use x="918.017578" xlink:href="#DejaVuSans-45"/>
      <use x="954.101562" xlink:href="#DejaVuSans-51"/>
      <use x="1017.724609" xlink:href="#DejaVuSans-72"/>
      <use x="1092.919922" xlink:href="#DejaVuSans-45"/>
      <use x="1129.003906" xlink:href="#DejaVuSans-83"/>
      <use x="1192.480469" xlink:href="#DejaVuSans-83"/>
      <use x="1255.957031" xlink:href="#DejaVuSans-76"/>
      <use x="1311.654297" xlink:href="#DejaVuSans-45"/>
      <use x="1347.738281" xlink:href="#DejaVuSans-49"/>
      <use x="1411.361328" xlink:href="#DejaVuSans-45"/>
      <use x="1447.445312" xlink:href="#DejaVuSans-49"/>
      <use x="1511.068359" xlink:href="#DejaVuSans-45"/>
      <use x="1547.152344" xlink:href="#DejaVuSans-76"/>
      <use x="1602.865234" xlink:href="#DejaVuSans-52"/>
      <use x="1666.488281" xlink:href="#DejaVuSans-45"/>
      <use x="1702.572266" xlink:href="#DejaVuSans-49"/>
      <use x="1766.195312" xlink:href="#DejaVuSans-32"/>
      <use x="1797.982422" xlink:href="#DejaVuSans-45"/>
      <use x="1834.066406" xlink:href="#DejaVuSans-32"/>
      <use x="1865.853516" xlink:href="#DejaVuSans-105"/>
      <use x="1893.636719" xlink:href="#DejaVuSans-108"/>
      <use x="1921.419922" xlink:href="#DejaVuSans-108"/>
      <use x="1949.203125" xlink:href="#DejaVuSans-117"/>
      <use x="2012.582031" xlink:href="#DejaVuSans-109"/>
      <use x="2109.994141" xlink:href="#DejaVuSans-105"/>
      <use x="2137.777344" xlink:href="#DejaVuSans-110"/>
      <use x="2201.15625" xlink:href="#DejaVuSans-97"/>
      <use x="2262.435547" xlink:href="#DejaVuSans-95"/>
      <use x="2312.435547" xlink:href="#DejaVuSans-117"/>
      <use x="2375.814453" xlink:href="#DejaVuSans-110"/>
      <use x="2439.193359" xlink:href="#DejaVuSans-105"/>
      <use x="2466.976562" xlink:href="#DejaVuSans-118"/>
      <use x="2526.15625" xlink:href="#DejaVuSans-101"/>
      <use x="2587.679688" xlink:href="#DejaVuSans-114"/>
      <use x="2628.792969" xlink:href="#DejaVuSans-115"/>
      <use x="2680.892578" xlink:href="#DejaVuSans-97"/>
      <use x="2742.171875" xlink:href="#DejaVuSans-108"/>
      <use x="2769.955078" xlink:href="#DejaVuSans-95"/>
      <use x="2819.955078" xlink:href="#DejaVuSans-97"/>
      <use x="2881.234375" xlink:href="#DejaVuSans-100"/>
      <use x="2944.710938" xlink:href="#DejaVuSans-97"/>
      <use x="3005.990234" xlink:href="#DejaVuSans-112"/>
      <use x="3069.466797" xlink:href="#DejaVuSans-116"/>
      <use x="3108.675781" xlink:href="#DejaVuSans-101"/>
      <use x="3170.199219" xlink:href="#DejaVuSans-114"/>
     </g>
    </g>
    <g id="line2d_28">
     <path d="M 375.36 315.455394 
L 391.36 315.455394 
" style="fill:none;stroke:#f15c80;stroke-linecap:square;"/>
    </g>
    <g id="line2d_29"/>
    <g id="text_25">
     <!-- Hte-CMvi_008-Ex1-3H-SSL-1-1-L4-2 - illumina_universal_adapter -->
     <g transform="translate(397.76 318.255394)scale(0.08 -0.08)">
      <use xlink:href="#DejaVuSans-72"/>
      <use x="75.195312" xlink:href="#DejaVuSans-116"/>
      <use x="114.404297" xlink:href="#DejaVuSans-101"/>
      <use x="175.927734" xlink:href="#DejaVuSans-45"/>
      <use x="212.011719" xlink:href="#DejaVuSans-67"/>
      <use x="281.835938" xlink:href="#DejaVuSans-77"/>
      <use x="368.115234" xlink:href="#DejaVuSans-118"/>
      <use x="427.294922" xlink:href="#DejaVuSans-105"/>
      <use x="455.078125" xlink:href="#DejaVuSans-95"/>
      <use x="505.078125" xlink:href="#DejaVuSans-48"/>
      <use x="568.701172" xlink:href="#DejaVuSans-48"/>
      <use x="632.324219" xlink:href="#DejaVuSans-56"/>
      <use x="695.947266" xlink:href="#DejaVuSans-45"/>
      <use x="732.03125" xlink:href="#DejaVuSans-69"/>
      <use x="795.214844" xlink:href="#DejaVuSans-120"/>
      <use x="854.394531" xlink:href="#DejaVuSans-49"/>
      <use x="918.017578" xlink:href="#DejaVuSans-45"/>
      <use x="954.101562" xlink:href="#DejaVuSans-51"/>
      <use x="1017.724609" xlink:href="#DejaVuSans-72"/>
      <use x="1092.919922" xlink:href="#DejaVuSans-45"/>
      <use x="1129.003906" xlink:href="#DejaVuSans-83"/>
      <use x="1192.480469" xlink:href="#DejaVuSans-83"/>
      <use x="1255.957031" xlink:href="#DejaVuSans-76"/>
      <use x="1311.654297" xlink:href="#DejaVuSans-45"/>
      <use x="1347.738281" xlink:href="#DejaVuSans-49"/>
      <use x="1411.361328" xlink:href="#DejaVuSans-45"/>
      <use x="1447.445312" xlink:href="#DejaVuSans-49"/>
      <use x="1511.068359" xlink:href="#DejaVuSans-45"/>
      <use x="1547.152344" xlink:href="#DejaVuSans-76"/>
      <use x="1602.865234" xlink:href="#DejaVuSans-52"/>
      <use x="1666.488281" xlink:href="#DejaVuSans-45"/>
      <use x="1702.572266" xlink:href="#DejaVuSans-50"/>
      <use x="1766.195312" xlink:href="#DejaVuSans-32"/>
      <use x="1797.982422" xlink:href="#DejaVuSans-45"/>
      <use x="1834.066406" xlink:href="#DejaVuSans-32"/>
      <use x="1865.853516" xlink:href="#DejaVuSans-105"/>
      <use x="1893.636719" xlink:href="#DejaVuSans-108"/>
      <use x="1921.419922" xlink:href="#DejaVuSans-108"/>
      <use x="1949.203125" xlink:href="#DejaVuSans-117"/>
      <use x="2012.582031" xlink:href="#DejaVuSans-109"/>
      <use x="2109.994141" xlink:href="#DejaVuSans-105"/>
      <use x="2137.777344" xlink:href="#DejaVuSans-110"/>
      <use x="2201.15625" xlink:href="#DejaVuSans-97"/>
      <use x="2262.435547" xlink:href="#DejaVuSans-95"/>
      <use x="2312.435547" xlink:href="#DejaVuSans-117"/>
      <use x="2375.814453" xlink:href="#DejaVuSans-110"/>
      <use x="2439.193359" xlink:href="#DejaVuSans-105"/>
      <use x="2466.976562" xlink:href="#DejaVuSans-118"/>
      <use x="2526.15625" xlink:href="#DejaVuSans-101"/>
      <use x="2587.679688" xlink:href="#DejaVuSans-114"/>
      <use x="2628.792969" xlink:href="#DejaVuSans-115"/>
      <use x="2680.892578" xlink:href="#DejaVuSans-97"/>
      <use x="2742.171875" xlink:href="#DejaVuSans-108"/>
      <use x="2769.955078" xlink:href="#DejaVuSans-95"/>
      <use x="2819.955078" xlink:href="#DejaVuSans-97"/>
      <use x="2881.234375" xlink:href="#DejaVuSans-100"/>
      <use x="2944.710938" xlink:href="#DejaVuSans-97"/>
      <use x="3005.990234" xlink:href="#DejaVuSans-112"/>
      <use x="3069.466797" xlink:href="#DejaVuSans-116"/>
      <use x="3108.675781" xlink:href="#DejaVuSans-101"/>
      <use x="3170.199219" xlink:href="#DejaVuSans-114"/>
     </g>
    </g>
    <g id="line2d_30">
     <path d="M 540.977187 303.490394 
L 556.977187 303.490394 
" style="fill:none;stroke:#e4d354;stroke-linecap:square;"/>
    </g>
    <g id="line2d_31"/>
    <g id="text_26">
     <!-- Hte-CMvi_008-Ex1-3H-SSL-1-1-L5-1 - illumina_universal_adapter -->
     <g transform="translate(563.377187 306.290394)scale(0.08 -0.08)">
      <use xlink:href="#DejaVuSans-72"/>
      <use x="75.195312" xlink:href="#DejaVuSans-116"/>
      <use x="114.404297" xlink:href="#DejaVuSans-101"/>
      <use x="175.927734" xlink:href="#DejaVuSans-45"/>
      <use x="212.011719" xlink:href="#DejaVuSans-67"/>
      <use x="281.835938" xlink:href="#DejaVuSans-77"/>
      <use x="368.115234" xlink:href="#DejaVuSans-118"/>
      <use x="427.294922" xlink:href="#DejaVuSans-105"/>
      <use x="455.078125" xlink:href="#DejaVuSans-95"/>
      <use x="505.078125" xlink:href="#DejaVuSans-48"/>
      <use x="568.701172" xlink:href="#DejaVuSans-48"/>
      <use x="632.324219" xlink:href="#DejaVuSans-56"/>
      <use x="695.947266" xlink:href="#DejaVuSans-45"/>
      <use x="732.03125" xlink:href="#DejaVuSans-69"/>
      <use x="795.214844" xlink:href="#DejaVuSans-120"/>
      <use x="854.394531" xlink:href="#DejaVuSans-49"/>
      <use x="918.017578" xlink:href="#DejaVuSans-45"/>
      <use x="954.101562" xlink:href="#DejaVuSans-51"/>
      <use x="1017.724609" xlink:href="#DejaVuSans-72"/>
      <use x="1092.919922" xlink:href="#DejaVuSans-45"/>
      <use x="1129.003906" xlink:href="#DejaVuSans-83"/>
      <use x="1192.480469" xlink:href="#DejaVuSans-83"/>
      <use x="1255.957031" xlink:href="#DejaVuSans-76"/>
      <use x="1311.654297" xlink:href="#DejaVuSans-45"/>
      <use x="1347.738281" xlink:href="#DejaVuSans-49"/>
      <use x="1411.361328" xlink:href="#DejaVuSans-45"/>
      <use x="1447.445312" xlink:href="#DejaVuSans-49"/>
      <use x="1511.068359" xlink:href="#DejaVuSans-45"/>
      <use x="1547.152344" xlink:href="#DejaVuSans-76"/>
      <use x="1602.865234" xlink:href="#DejaVuSans-53"/>
      <use x="1666.488281" xlink:href="#DejaVuSans-45"/>
      <use x="1702.572266" xlink:href="#DejaVuSans-49"/>
      <use x="1766.195312" xlink:href="#DejaVuSans-32"/>
      <use x="1797.982422" xlink:href="#DejaVuSans-45"/>
      <use x="1834.066406" xlink:href="#DejaVuSans-32"/>
      <use x="1865.853516" xlink:href="#DejaVuSans-105"/>
      <use x="1893.636719" xlink:href="#DejaVuSans-108"/>
      <use x="1921.419922" xlink:href="#DejaVuSans-108"/>
      <use x="1949.203125" xlink:href="#DejaVuSans-117"/>
      <use x="2012.582031" xlink:href="#DejaVuSans-109"/>
      <use x="2109.994141" xlink:href="#DejaVuSans-105"/>
      <use x="2137.777344" xlink:href="#DejaVuSans-110"/>
      <use x="2201.15625" xlink:href="#DejaVuSans-97"/>
      <use x="2262.435547" xlink:href="#DejaVuSans-95"/>
      <use x="2312.435547" xlink:href="#DejaVuSans-117"/>
      <use x="2375.814453" xlink:href="#DejaVuSans-110"/>
      <use x="2439.193359" xlink:href="#DejaVuSans-105"/>
      <use x="2466.976562" xlink:href="#DejaVuSans-118"/>
      <use x="2526.15625" xlink:href="#DejaVuSans-101"/>
      <use x="2587.679688" xlink:href="#DejaVuSans-114"/>
      <use x="2628.792969" xlink:href="#DejaVuSans-115"/>
      <use x="2680.892578" xlink:href="#DejaVuSans-97"/>
      <use x="2742.171875" xlink:href="#DejaVuSans-108"/>
      <use x="2769.955078" xlink:href="#DejaVuSans-95"/>
      <use x="2819.955078" xlink:href="#DejaVuSans-97"/>
      <use x="2881.234375" xlink:href="#DejaVuSans-100"/>
      <use x="2944.710938" xlink:href="#DejaVuSans-97"/>
      <use x="3005.990234" xlink:href="#DejaVuSans-112"/>
      <use x="3069.466797" xlink:href="#DejaVuSans-116"/>
      <use x="3108.675781" xlink:href="#DejaVuSans-101"/>
      <use x="3170.199219" xlink:href="#DejaVuSans-114"/>
     </g>
    </g>
    <g id="line2d_32">
     <path d="M 706.594375 303.490394 
L 722.594375 303.490394 
" style="fill:none;stroke:#2b908f;stroke-linecap:square;"/>
    </g>
    <g id="line2d_33"/>
    <g id="text_27">
     <!-- Hte-CMvi_008-Ex1-3H-SSL-1-1-L5-2 - illumina_universal_adapter -->
     <g transform="translate(728.994375 306.290394)scale(0.08 -0.08)">
      <use xlink:href="#DejaVuSans-72"/>
      <use x="75.195312" xlink:href="#DejaVuSans-116"/>
      <use x="114.404297" xlink:href="#DejaVuSans-101"/>
      <use x="175.927734" xlink:href="#DejaVuSans-45"/>
      <use x="212.011719" xlink:href="#DejaVuSans-67"/>
      <use x="281.835938" xlink:href="#DejaVuSans-77"/>
      <use x="368.115234" xlink:href="#DejaVuSans-118"/>
      <use x="427.294922" xlink:href="#DejaVuSans-105"/>
      <use x="455.078125" xlink:href="#DejaVuSans-95"/>
      <use x="505.078125" xlink:href="#DejaVuSans-48"/>
      <use x="568.701172" xlink:href="#DejaVuSans-48"/>
      <use x="632.324219" xlink:href="#DejaVuSans-56"/>
      <use x="695.947266" xlink:href="#DejaVuSans-45"/>
      <use x="732.03125" xlink:href="#DejaVuSans-69"/>
      <use x="795.214844" xlink:href="#DejaVuSans-120"/>
      <use x="854.394531" xlink:href="#DejaVuSans-49"/>
      <use x="918.017578" xlink:href="#DejaVuSans-45"/>
      <use x="954.101562" xlink:href="#DejaVuSans-51"/>
      <use x="1017.724609" xlink:href="#DejaVuSans-72"/>
      <use x="1092.919922" xlink:href="#DejaVuSans-45"/>
      <use x="1129.003906" xlink:href="#DejaVuSans-83"/>
      <use x="1192.480469" xlink:href="#DejaVuSans-83"/>
      <use x="1255.957031" xlink:href="#DejaVuSans-76"/>
      <use x="1311.654297" xlink:href="#DejaVuSans-45"/>
      <use x="1347.738281" xlink:href="#DejaVuSans-49"/>
      <use x="1411.361328" xlink:href="#DejaVuSans-45"/>
      <use x="1447.445312" xlink:href="#DejaVuSans-49"/>
      <use x="1511.068359" xlink:href="#DejaVuSans-45"/>
      <use x="1547.152344" xlink:href="#DejaVuSans-76"/>
      <use x="1602.865234" xlink:href="#DejaVuSans-53"/>
      <use x="1666.488281" xlink:href="#DejaVuSans-45"/>
      <use x="1702.572266" xlink:href="#DejaVuSans-50"/>
      <use x="1766.195312" xlink:href="#DejaVuSans-32"/>
      <use x="1797.982422" xlink:href="#DejaVuSans-45"/>
      <use x="1834.066406" xlink:href="#DejaVuSans-32"/>
      <use x="1865.853516" xlink:href="#DejaVuSans-105"/>
      <use x="1893.636719" xlink:href="#DejaVuSans-108"/>
      <use x="1921.419922" xlink:href="#DejaVuSans-108"/>
      <use x="1949.203125" xlink:href="#DejaVuSans-117"/>
      <use x="2012.582031" xlink:href="#DejaVuSans-109"/>
      <use x="2109.994141" xlink:href="#DejaVuSans-105"/>
      <use x="2137.777344" xlink:href="#DejaVuSans-110"/>
      <use x="2201.15625" xlink:href="#DejaVuSans-97"/>
      <use x="2262.435547" xlink:href="#DejaVuSans-95"/>
      <use x="2312.435547" xlink:href="#DejaVuSans-117"/>
      <use x="2375.814453" xlink:href="#DejaVuSans-110"/>
      <use x="2439.193359" xlink:href="#DejaVuSans-105"/>
      <use x="2466.976562" xlink:href="#DejaVuSans-118"/>
      <use x="2526.15625" xlink:href="#DejaVuSans-101"/>
      <use x="2587.679688" xlink:href="#DejaVuSans-114"/>
      <use x="2628.792969" xlink:href="#DejaVuSans-115"/>
      <use x="2680.892578" xlink:href="#DejaVuSans-97"/>
      <use x="2742.171875" xlink:href="#DejaVuSans-108"/>
      <use x="2769.955078" xlink:href="#DejaVuSans-95"/>
      <use x="2819.955078" xlink:href="#DejaVuSans-97"/>
      <use x="2881.234375" xlink:href="#DejaVuSans-100"/>
      <use x="2944.710938" xlink:href="#DejaVuSans-97"/>
      <use x="3005.990234" xlink:href="#DejaVuSans-112"/>
      <use x="3069.466797" xlink:href="#DejaVuSans-116"/>
      <use x="3108.675781" xlink:href="#DejaVuSans-101"/>
      <use x="3170.199219" xlink:href="#DejaVuSans-114"/>
     </g>
    </g>
   </g>
  </g>
 </g>
 <defs>
  <clipPath id="p348c1816b2">
   <rect height="242.5072" width="947.41" x="45.690625" y="31.48286"/>
  </clipPath>
 </defs>
</svg>
