<?xml version="1.0" encoding="utf-8" standalone="no"?>
<!DOCTYPE svg PUBLIC "-//W3C//DTD SVG 1.1//EN"
  "http://www.w3.org/Graphics/SVG/1.1/DTD/svg11.dtd">
<!-- Created with matplotlib (https://matplotlib.org/) -->
<svg height="330.541644pt" version="1.1" viewBox="0 0 1000.358125 330.541644" width="1000.358125pt" xmlns="http://www.w3.org/2000/svg" xmlns:xlink="http://www.w3.org/1999/xlink">
 <defs>
  <style type="text/css">
*{stroke-linecap:butt;stroke-linejoin:round;}
  </style>
 </defs>
 <g id="figure_1">
  <g id="axes_1">
   <g id="patch_1">
    <path d="M 32.968125 273.99006 
L 993.158125 273.99006 
L 993.158125 31.48286 
L 32.968125 31.48286 
z
" style="fill:#ffffff;"/>
   </g>
   <g id="patch_2">
    <path clip-path="url(#pbc0fdd38e3)" d="M 32.968125 -696.03874 
L 993.158125 -696.03874 
L 993.158125 -4576.15394 
L 32.968125 -4576.15394 
z
" style="fill:#e6c3c3;"/>
   </g>
   <g id="patch_3">
    <path clip-path="url(#pbc0fdd38e3)" d="M 32.968125 31.48286 
L 993.158125 31.48286 
L 993.158125 -696.03874 
L 32.968125 -696.03874 
z
" style="fill:#e6dcc3;"/>
   </g>
   <g id="patch_4">
    <path clip-path="url(#pbc0fdd38e3)" d="M 32.968125 273.99006 
L 993.158125 273.99006 
L 993.158125 31.48286 
L 32.968125 31.48286 
z
" style="fill:#c3e6c3;"/>
   </g>
   <g id="matplotlib.axis_1">
    <g id="xtick_1">
     <g id="text_1">
      <!-- 0 -->
      <defs>
       <path d="M 31.78125 66.40625 
Q 24.171875 66.40625 20.328125 58.90625 
Q 16.5 51.421875 16.5 36.375 
Q 16.5 21.390625 20.328125 13.890625 
Q 24.171875 6.390625 31.78125 6.390625 
Q 39.453125 6.390625 43.28125 13.890625 
Q 47.125 21.390625 47.125 36.375 
Q 47.125 51.421875 43.28125 58.90625 
Q 39.453125 66.40625 31.78125 66.40625 
z
M 31.78125 74.21875 
Q 44.046875 74.21875 50.515625 64.515625 
Q 56.984375 54.828125 56.984375 36.375 
Q 56.984375 17.96875 50.515625 8.265625 
Q 44.046875 -1.421875 31.78125 -1.421875 
Q 19.53125 -1.421875 13.0625 8.265625 
Q 6.59375 17.96875 6.59375 36.375 
Q 6.59375 54.828125 13.0625 64.515625 
Q 19.53125 74.21875 31.78125 74.21875 
z
" id="DejaVuSans-48"/>
      </defs>
      <g transform="translate(30.423125 287.06881)scale(0.08 -0.08)">
       <use xlink:href="#DejaVuSans-48"/>
      </g>
     </g>
    </g>
    <g id="xtick_2">
     <g id="text_2">
      <!-- 20 -->
      <defs>
       <path d="M 19.1875 8.296875 
L 53.609375 8.296875 
L 53.609375 0 
L 7.328125 0 
L 7.328125 8.296875 
Q 12.9375 14.109375 22.625 23.890625 
Q 32.328125 33.6875 34.8125 36.53125 
Q 39.546875 41.84375 41.421875 45.53125 
Q 43.3125 49.21875 43.3125 52.78125 
Q 43.3125 58.59375 39.234375 62.25 
Q 35.15625 65.921875 28.609375 65.921875 
Q 23.96875 65.921875 18.8125 64.3125 
Q 13.671875 62.703125 7.8125 59.421875 
L 7.8125 69.390625 
Q 13.765625 71.78125 18.9375 73 
Q 24.125 74.21875 28.421875 74.21875 
Q 39.75 74.21875 46.484375 68.546875 
Q 53.21875 62.890625 53.21875 53.421875 
Q 53.21875 48.921875 51.53125 44.890625 
Q 49.859375 40.875 45.40625 35.40625 
Q 44.1875 33.984375 37.640625 27.21875 
Q 31.109375 20.453125 19.1875 8.296875 
z
" id="DejaVuSans-50"/>
      </defs>
      <g transform="translate(149.845734 287.06881)scale(0.08 -0.08)">
       <use xlink:href="#DejaVuSans-50"/>
       <use x="63.623047" xlink:href="#DejaVuSans-48"/>
      </g>
     </g>
    </g>
    <g id="xtick_3">
     <g id="text_3">
      <!-- 40 -->
      <defs>
       <path d="M 37.796875 64.3125 
L 12.890625 25.390625 
L 37.796875 25.390625 
z
M 35.203125 72.90625 
L 47.609375 72.90625 
L 47.609375 25.390625 
L 58.015625 25.390625 
L 58.015625 17.1875 
L 47.609375 17.1875 
L 47.609375 0 
L 37.796875 0 
L 37.796875 17.1875 
L 4.890625 17.1875 
L 4.890625 26.703125 
z
" id="DejaVuSans-52"/>
      </defs>
      <g transform="translate(271.813343 287.06881)scale(0.08 -0.08)">
       <use xlink:href="#DejaVuSans-52"/>
       <use x="63.623047" xlink:href="#DejaVuSans-48"/>
      </g>
     </g>
    </g>
    <g id="xtick_4">
     <g id="text_4">
      <!-- 60 -->
      <defs>
       <path d="M 33.015625 40.375 
Q 26.375 40.375 22.484375 35.828125 
Q 18.609375 31.296875 18.609375 23.390625 
Q 18.609375 15.53125 22.484375 10.953125 
Q 26.375 6.390625 33.015625 6.390625 
Q 39.65625 6.390625 43.53125 10.953125 
Q 47.40625 15.53125 47.40625 23.390625 
Q 47.40625 31.296875 43.53125 35.828125 
Q 39.65625 40.375 33.015625 40.375 
z
M 52.59375 71.296875 
L 52.59375 62.3125 
Q 48.875 64.0625 45.09375 64.984375 
Q 41.3125 65.921875 37.59375 65.921875 
Q 27.828125 65.921875 22.671875 59.328125 
Q 17.53125 52.734375 16.796875 39.40625 
Q 19.671875 43.65625 24.015625 45.921875 
Q 28.375 48.1875 33.59375 48.1875 
Q 44.578125 48.1875 50.953125 41.515625 
Q 57.328125 34.859375 57.328125 23.390625 
Q 57.328125 12.15625 50.6875 5.359375 
Q 44.046875 -1.421875 33.015625 -1.421875 
Q 20.359375 -1.421875 13.671875 8.265625 
Q 6.984375 17.96875 6.984375 36.375 
Q 6.984375 53.65625 15.1875 63.9375 
Q 23.390625 74.21875 37.203125 74.21875 
Q 40.921875 74.21875 44.703125 73.484375 
Q 48.484375 72.75 52.59375 71.296875 
z
" id="DejaVuSans-54"/>
      </defs>
      <g transform="translate(393.780951 287.06881)scale(0.08 -0.08)">
       <use xlink:href="#DejaVuSans-54"/>
       <use x="63.623047" xlink:href="#DejaVuSans-48"/>
      </g>
     </g>
    </g>
    <g id="xtick_5">
     <g id="text_5">
      <!-- 80 -->
      <defs>
       <path d="M 31.78125 34.625 
Q 24.75 34.625 20.71875 30.859375 
Q 16.703125 27.09375 16.703125 20.515625 
Q 16.703125 13.921875 20.71875 10.15625 
Q 24.75 6.390625 31.78125 6.390625 
Q 38.8125 6.390625 42.859375 10.171875 
Q 46.921875 13.96875 46.921875 20.515625 
Q 46.921875 27.09375 42.890625 30.859375 
Q 38.875 34.625 31.78125 34.625 
z
M 21.921875 38.8125 
Q 15.578125 40.375 12.03125 44.71875 
Q 8.5 49.078125 8.5 55.328125 
Q 8.5 64.0625 14.71875 69.140625 
Q 20.953125 74.21875 31.78125 74.21875 
Q 42.671875 74.21875 48.875 69.140625 
Q 55.078125 64.0625 55.078125 55.328125 
Q 55.078125 49.078125 51.53125 44.71875 
Q 48 40.375 41.703125 38.8125 
Q 48.828125 37.15625 52.796875 32.3125 
Q 56.78125 27.484375 56.78125 20.515625 
Q 56.78125 9.90625 50.3125 4.234375 
Q 43.84375 -1.421875 31.78125 -1.421875 
Q 19.734375 -1.421875 13.25 4.234375 
Q 6.78125 9.90625 6.78125 20.515625 
Q 6.78125 27.484375 10.78125 32.3125 
Q 14.796875 37.15625 21.921875 38.8125 
z
M 18.3125 54.390625 
Q 18.3125 48.734375 21.84375 45.5625 
Q 25.390625 42.390625 31.78125 42.390625 
Q 38.140625 42.390625 41.71875 45.5625 
Q 45.3125 48.734375 45.3125 54.390625 
Q 45.3125 60.0625 41.71875 63.234375 
Q 38.140625 66.40625 31.78125 66.40625 
Q 25.390625 66.40625 21.84375 63.234375 
Q 18.3125 60.0625 18.3125 54.390625 
z
" id="DejaVuSans-56"/>
      </defs>
      <g transform="translate(515.74856 287.06881)scale(0.08 -0.08)">
       <use xlink:href="#DejaVuSans-56"/>
       <use x="63.623047" xlink:href="#DejaVuSans-48"/>
      </g>
     </g>
    </g>
    <g id="xtick_6">
     <g id="text_6">
      <!-- 100 -->
      <defs>
       <path d="M 12.40625 8.296875 
L 28.515625 8.296875 
L 28.515625 63.921875 
L 10.984375 60.40625 
L 10.984375 69.390625 
L 28.421875 72.90625 
L 38.28125 72.90625 
L 38.28125 8.296875 
L 54.390625 8.296875 
L 54.390625 0 
L 12.40625 0 
z
" id="DejaVuSans-49"/>
      </defs>
      <g transform="translate(635.171169 287.06881)scale(0.08 -0.08)">
       <use xlink:href="#DejaVuSans-49"/>
       <use x="63.623047" xlink:href="#DejaVuSans-48"/>
       <use x="127.246094" xlink:href="#DejaVuSans-48"/>
      </g>
     </g>
    </g>
    <g id="xtick_7">
     <g id="text_7">
      <!-- 120 -->
      <g transform="translate(757.138778 287.06881)scale(0.08 -0.08)">
       <use xlink:href="#DejaVuSans-49"/>
       <use x="63.623047" xlink:href="#DejaVuSans-50"/>
       <use x="127.246094" xlink:href="#DejaVuSans-48"/>
      </g>
     </g>
    </g>
    <g id="xtick_8">
     <g id="text_8">
      <!-- 140 -->
      <g transform="translate(879.106386 287.06881)scale(0.08 -0.08)">
       <use xlink:href="#DejaVuSans-49"/>
       <use x="63.623047" xlink:href="#DejaVuSans-52"/>
       <use x="127.246094" xlink:href="#DejaVuSans-48"/>
      </g>
     </g>
    </g>
    <g id="text_9">
     <!-- Position in Read (bp) -->
     <defs>
      <path d="M 19.671875 64.796875 
L 19.671875 37.40625 
L 32.078125 37.40625 
Q 38.96875 37.40625 42.71875 40.96875 
Q 46.484375 44.53125 46.484375 51.125 
Q 46.484375 57.671875 42.71875 61.234375 
Q 38.96875 64.796875 32.078125 64.796875 
z
M 9.8125 72.90625 
L 32.078125 72.90625 
Q 44.34375 72.90625 50.609375 67.359375 
Q 56.890625 61.8125 56.890625 51.125 
Q 56.890625 40.328125 50.609375 34.8125 
Q 44.34375 29.296875 32.078125 29.296875 
L 19.671875 29.296875 
L 19.671875 0 
L 9.8125 0 
z
" id="DejaVuSans-80"/>
      <path d="M 30.609375 48.390625 
Q 23.390625 48.390625 19.1875 42.75 
Q 14.984375 37.109375 14.984375 27.296875 
Q 14.984375 17.484375 19.15625 11.84375 
Q 23.34375 6.203125 30.609375 6.203125 
Q 37.796875 6.203125 41.984375 11.859375 
Q 46.1875 17.53125 46.1875 27.296875 
Q 46.1875 37.015625 41.984375 42.703125 
Q 37.796875 48.390625 30.609375 48.390625 
z
M 30.609375 56 
Q 42.328125 56 49.015625 48.375 
Q 55.71875 40.765625 55.71875 27.296875 
Q 55.71875 13.875 49.015625 6.21875 
Q 42.328125 -1.421875 30.609375 -1.421875 
Q 18.84375 -1.421875 12.171875 6.21875 
Q 5.515625 13.875 5.515625 27.296875 
Q 5.515625 40.765625 12.171875 48.375 
Q 18.84375 56 30.609375 56 
z
" id="DejaVuSans-111"/>
      <path d="M 44.28125 53.078125 
L 44.28125 44.578125 
Q 40.484375 46.53125 36.375 47.5 
Q 32.28125 48.484375 27.875 48.484375 
Q 21.1875 48.484375 17.84375 46.4375 
Q 14.5 44.390625 14.5 40.28125 
Q 14.5 37.15625 16.890625 35.375 
Q 19.28125 33.59375 26.515625 31.984375 
L 29.59375 31.296875 
Q 39.15625 29.25 43.1875 25.515625 
Q 47.21875 21.78125 47.21875 15.09375 
Q 47.21875 7.46875 41.1875 3.015625 
Q 35.15625 -1.421875 24.609375 -1.421875 
Q 20.21875 -1.421875 15.453125 -0.5625 
Q 10.6875 0.296875 5.421875 2 
L 5.421875 11.28125 
Q 10.40625 8.6875 15.234375 7.390625 
Q 20.0625 6.109375 24.8125 6.109375 
Q 31.15625 6.109375 34.5625 8.28125 
Q 37.984375 10.453125 37.984375 14.40625 
Q 37.984375 18.0625 35.515625 20.015625 
Q 33.0625 21.96875 24.703125 23.78125 
L 21.578125 24.515625 
Q 13.234375 26.265625 9.515625 29.90625 
Q 5.8125 33.546875 5.8125 39.890625 
Q 5.8125 47.609375 11.28125 51.796875 
Q 16.75 56 26.8125 56 
Q 31.78125 56 36.171875 55.265625 
Q 40.578125 54.546875 44.28125 53.078125 
z
" id="DejaVuSans-115"/>
      <path d="M 9.421875 54.6875 
L 18.40625 54.6875 
L 18.40625 0 
L 9.421875 0 
z
M 9.421875 75.984375 
L 18.40625 75.984375 
L 18.40625 64.59375 
L 9.421875 64.59375 
z
" id="DejaVuSans-105"/>
      <path d="M 18.3125 70.21875 
L 18.3125 54.6875 
L 36.8125 54.6875 
L 36.8125 47.703125 
L 18.3125 47.703125 
L 18.3125 18.015625 
Q 18.3125 11.328125 20.140625 9.421875 
Q 21.96875 7.515625 27.59375 7.515625 
L 36.8125 7.515625 
L 36.8125 0 
L 27.59375 0 
Q 17.1875 0 13.234375 3.875 
Q 9.28125 7.765625 9.28125 18.015625 
L 9.28125 47.703125 
L 2.6875 47.703125 
L 2.6875 54.6875 
L 9.28125 54.6875 
L 9.28125 70.21875 
z
" id="DejaVuSans-116"/>
      <path d="M 54.890625 33.015625 
L 54.890625 0 
L 45.90625 0 
L 45.90625 32.71875 
Q 45.90625 40.484375 42.875 44.328125 
Q 39.84375 48.1875 33.796875 48.1875 
Q 26.515625 48.1875 22.3125 43.546875 
Q 18.109375 38.921875 18.109375 30.90625 
L 18.109375 0 
L 9.078125 0 
L 9.078125 54.6875 
L 18.109375 54.6875 
L 18.109375 46.1875 
Q 21.34375 51.125 25.703125 53.5625 
Q 30.078125 56 35.796875 56 
Q 45.21875 56 50.046875 50.171875 
Q 54.890625 44.34375 54.890625 33.015625 
z
" id="DejaVuSans-110"/>
      <path id="DejaVuSans-32"/>
      <path d="M 44.390625 34.1875 
Q 47.5625 33.109375 50.5625 29.59375 
Q 53.5625 26.078125 56.59375 19.921875 
L 66.609375 0 
L 56 0 
L 46.6875 18.703125 
Q 43.0625 26.03125 39.671875 28.421875 
Q 36.28125 30.8125 30.421875 30.8125 
L 19.671875 30.8125 
L 19.671875 0 
L 9.8125 0 
L 9.8125 72.90625 
L 32.078125 72.90625 
Q 44.578125 72.90625 50.734375 67.671875 
Q 56.890625 62.453125 56.890625 51.90625 
Q 56.890625 45.015625 53.6875 40.46875 
Q 50.484375 35.9375 44.390625 34.1875 
z
M 19.671875 64.796875 
L 19.671875 38.921875 
L 32.078125 38.921875 
Q 39.203125 38.921875 42.84375 42.21875 
Q 46.484375 45.515625 46.484375 51.90625 
Q 46.484375 58.296875 42.84375 61.546875 
Q 39.203125 64.796875 32.078125 64.796875 
z
" id="DejaVuSans-82"/>
      <path d="M 56.203125 29.59375 
L 56.203125 25.203125 
L 14.890625 25.203125 
Q 15.484375 15.921875 20.484375 11.0625 
Q 25.484375 6.203125 34.421875 6.203125 
Q 39.59375 6.203125 44.453125 7.46875 
Q 49.3125 8.734375 54.109375 11.28125 
L 54.109375 2.78125 
Q 49.265625 0.734375 44.1875 -0.34375 
Q 39.109375 -1.421875 33.890625 -1.421875 
Q 20.796875 -1.421875 13.15625 6.1875 
Q 5.515625 13.8125 5.515625 26.8125 
Q 5.515625 40.234375 12.765625 48.109375 
Q 20.015625 56 32.328125 56 
Q 43.359375 56 49.78125 48.890625 
Q 56.203125 41.796875 56.203125 29.59375 
z
M 47.21875 32.234375 
Q 47.125 39.59375 43.09375 43.984375 
Q 39.0625 48.390625 32.421875 48.390625 
Q 24.90625 48.390625 20.390625 44.140625 
Q 15.875 39.890625 15.1875 32.171875 
z
" id="DejaVuSans-101"/>
      <path d="M 34.28125 27.484375 
Q 23.390625 27.484375 19.1875 25 
Q 14.984375 22.515625 14.984375 16.5 
Q 14.984375 11.71875 18.140625 8.90625 
Q 21.296875 6.109375 26.703125 6.109375 
Q 34.1875 6.109375 38.703125 11.40625 
Q 43.21875 16.703125 43.21875 25.484375 
L 43.21875 27.484375 
z
M 52.203125 31.203125 
L 52.203125 0 
L 43.21875 0 
L 43.21875 8.296875 
Q 40.140625 3.328125 35.546875 0.953125 
Q 30.953125 -1.421875 24.3125 -1.421875 
Q 15.921875 -1.421875 10.953125 3.296875 
Q 6 8.015625 6 15.921875 
Q 6 25.140625 12.171875 29.828125 
Q 18.359375 34.515625 30.609375 34.515625 
L 43.21875 34.515625 
L 43.21875 35.40625 
Q 43.21875 41.609375 39.140625 45 
Q 35.0625 48.390625 27.6875 48.390625 
Q 23 48.390625 18.546875 47.265625 
Q 14.109375 46.140625 10.015625 43.890625 
L 10.015625 52.203125 
Q 14.9375 54.109375 19.578125 55.046875 
Q 24.21875 56 28.609375 56 
Q 40.484375 56 46.34375 49.84375 
Q 52.203125 43.703125 52.203125 31.203125 
z
" id="DejaVuSans-97"/>
      <path d="M 45.40625 46.390625 
L 45.40625 75.984375 
L 54.390625 75.984375 
L 54.390625 0 
L 45.40625 0 
L 45.40625 8.203125 
Q 42.578125 3.328125 38.25 0.953125 
Q 33.9375 -1.421875 27.875 -1.421875 
Q 17.96875 -1.421875 11.734375 6.484375 
Q 5.515625 14.40625 5.515625 27.296875 
Q 5.515625 40.1875 11.734375 48.09375 
Q 17.96875 56 27.875 56 
Q 33.9375 56 38.25 53.625 
Q 42.578125 51.265625 45.40625 46.390625 
z
M 14.796875 27.296875 
Q 14.796875 17.390625 18.875 11.75 
Q 22.953125 6.109375 30.078125 6.109375 
Q 37.203125 6.109375 41.296875 11.75 
Q 45.40625 17.390625 45.40625 27.296875 
Q 45.40625 37.203125 41.296875 42.84375 
Q 37.203125 48.484375 30.078125 48.484375 
Q 22.953125 48.484375 18.875 42.84375 
Q 14.796875 37.203125 14.796875 27.296875 
z
" id="DejaVuSans-100"/>
      <path d="M 31 75.875 
Q 24.46875 64.65625 21.28125 53.65625 
Q 18.109375 42.671875 18.109375 31.390625 
Q 18.109375 20.125 21.3125 9.0625 
Q 24.515625 -2 31 -13.1875 
L 23.1875 -13.1875 
Q 15.875 -1.703125 12.234375 9.375 
Q 8.59375 20.453125 8.59375 31.390625 
Q 8.59375 42.28125 12.203125 53.3125 
Q 15.828125 64.359375 23.1875 75.875 
z
" id="DejaVuSans-40"/>
      <path d="M 48.6875 27.296875 
Q 48.6875 37.203125 44.609375 42.84375 
Q 40.53125 48.484375 33.40625 48.484375 
Q 26.265625 48.484375 22.1875 42.84375 
Q 18.109375 37.203125 18.109375 27.296875 
Q 18.109375 17.390625 22.1875 11.75 
Q 26.265625 6.109375 33.40625 6.109375 
Q 40.53125 6.109375 44.609375 11.75 
Q 48.6875 17.390625 48.6875 27.296875 
z
M 18.109375 46.390625 
Q 20.953125 51.265625 25.265625 53.625 
Q 29.59375 56 35.59375 56 
Q 45.5625 56 51.78125 48.09375 
Q 58.015625 40.1875 58.015625 27.296875 
Q 58.015625 14.40625 51.78125 6.484375 
Q 45.5625 -1.421875 35.59375 -1.421875 
Q 29.59375 -1.421875 25.265625 0.953125 
Q 20.953125 3.328125 18.109375 8.203125 
L 18.109375 0 
L 9.078125 0 
L 9.078125 75.984375 
L 18.109375 75.984375 
z
" id="DejaVuSans-98"/>
      <path d="M 18.109375 8.203125 
L 18.109375 -20.796875 
L 9.078125 -20.796875 
L 9.078125 54.6875 
L 18.109375 54.6875 
L 18.109375 46.390625 
Q 20.953125 51.265625 25.265625 53.625 
Q 29.59375 56 35.59375 56 
Q 45.5625 56 51.78125 48.09375 
Q 58.015625 40.1875 58.015625 27.296875 
Q 58.015625 14.40625 51.78125 6.484375 
Q 45.5625 -1.421875 35.59375 -1.421875 
Q 29.59375 -1.421875 25.265625 0.953125 
Q 20.953125 3.328125 18.109375 8.203125 
z
M 48.6875 27.296875 
Q 48.6875 37.203125 44.609375 42.84375 
Q 40.53125 48.484375 33.40625 48.484375 
Q 26.265625 48.484375 22.1875 42.84375 
Q 18.109375 37.203125 18.109375 27.296875 
Q 18.109375 17.390625 22.1875 11.75 
Q 26.265625 6.109375 33.40625 6.109375 
Q 40.53125 6.109375 44.609375 11.75 
Q 48.6875 17.390625 48.6875 27.296875 
z
" id="DejaVuSans-112"/>
      <path d="M 8.015625 75.875 
L 15.828125 75.875 
Q 23.140625 64.359375 26.78125 53.3125 
Q 30.421875 42.28125 30.421875 31.390625 
Q 30.421875 20.453125 26.78125 9.375 
Q 23.140625 -1.703125 15.828125 -13.1875 
L 8.015625 -13.1875 
Q 14.5 -2 17.703125 9.0625 
Q 20.90625 20.125 20.90625 31.390625 
Q 20.90625 42.671875 17.703125 53.65625 
Q 14.5 64.65625 8.015625 75.875 
z
" id="DejaVuSans-41"/>
     </defs>
     <g transform="translate(461.059219 300.330997)scale(0.1 -0.1)">
      <use xlink:href="#DejaVuSans-80"/>
      <use x="60.255859" xlink:href="#DejaVuSans-111"/>
      <use x="121.4375" xlink:href="#DejaVuSans-115"/>
      <use x="173.537109" xlink:href="#DejaVuSans-105"/>
      <use x="201.320312" xlink:href="#DejaVuSans-116"/>
      <use x="240.529297" xlink:href="#DejaVuSans-105"/>
      <use x="268.3125" xlink:href="#DejaVuSans-111"/>
      <use x="329.494141" xlink:href="#DejaVuSans-110"/>
      <use x="392.873047" xlink:href="#DejaVuSans-32"/>
      <use x="424.660156" xlink:href="#DejaVuSans-105"/>
      <use x="452.443359" xlink:href="#DejaVuSans-110"/>
      <use x="515.822266" xlink:href="#DejaVuSans-32"/>
      <use x="547.609375" xlink:href="#DejaVuSans-82"/>
      <use x="617.029297" xlink:href="#DejaVuSans-101"/>
      <use x="678.552734" xlink:href="#DejaVuSans-97"/>
      <use x="739.832031" xlink:href="#DejaVuSans-100"/>
      <use x="803.308594" xlink:href="#DejaVuSans-32"/>
      <use x="835.095703" xlink:href="#DejaVuSans-40"/>
      <use x="874.109375" xlink:href="#DejaVuSans-98"/>
      <use x="937.585938" xlink:href="#DejaVuSans-112"/>
      <use x="1001.0625" xlink:href="#DejaVuSans-41"/>
     </g>
    </g>
   </g>
   <g id="matplotlib.axis_2">
    <g id="ytick_1">
     <g id="line2d_1">
      <path clip-path="url(#pbc0fdd38e3)" d="M 32.968125 273.99006 
L 993.158125 273.99006 
" style="fill:none;stroke:#dedede;stroke-linecap:square;"/>
     </g>
     <g id="text_10">
      <!-- 0 -->
      <g transform="translate(20.878125 277.029435)scale(0.08 -0.08)">
       <use xlink:href="#DejaVuSans-48"/>
      </g>
     </g>
    </g>
    <g id="ytick_2">
     <g id="line2d_2">
      <path clip-path="url(#pbc0fdd38e3)" d="M 32.968125 225.48862 
L 993.158125 225.48862 
" style="fill:none;stroke:#dedede;stroke-linecap:square;"/>
     </g>
     <g id="text_11">
      <!-- 1 -->
      <g transform="translate(20.878125 228.527995)scale(0.08 -0.08)">
       <use xlink:href="#DejaVuSans-49"/>
      </g>
     </g>
    </g>
    <g id="ytick_3">
     <g id="line2d_3">
      <path clip-path="url(#pbc0fdd38e3)" d="M 32.968125 176.98718 
L 993.158125 176.98718 
" style="fill:none;stroke:#dedede;stroke-linecap:square;"/>
     </g>
     <g id="text_12">
      <!-- 2 -->
      <g transform="translate(20.878125 180.026555)scale(0.08 -0.08)">
       <use xlink:href="#DejaVuSans-50"/>
      </g>
     </g>
    </g>
    <g id="ytick_4">
     <g id="line2d_4">
      <path clip-path="url(#pbc0fdd38e3)" d="M 32.968125 128.48574 
L 993.158125 128.48574 
" style="fill:none;stroke:#dedede;stroke-linecap:square;"/>
     </g>
     <g id="text_13">
      <!-- 3 -->
      <defs>
       <path d="M 40.578125 39.3125 
Q 47.65625 37.796875 51.625 33 
Q 55.609375 28.21875 55.609375 21.1875 
Q 55.609375 10.40625 48.1875 4.484375 
Q 40.765625 -1.421875 27.09375 -1.421875 
Q 22.515625 -1.421875 17.65625 -0.515625 
Q 12.796875 0.390625 7.625 2.203125 
L 7.625 11.71875 
Q 11.71875 9.328125 16.59375 8.109375 
Q 21.484375 6.890625 26.8125 6.890625 
Q 36.078125 6.890625 40.9375 10.546875 
Q 45.796875 14.203125 45.796875 21.1875 
Q 45.796875 27.640625 41.28125 31.265625 
Q 36.765625 34.90625 28.71875 34.90625 
L 20.21875 34.90625 
L 20.21875 43.015625 
L 29.109375 43.015625 
Q 36.375 43.015625 40.234375 45.921875 
Q 44.09375 48.828125 44.09375 54.296875 
Q 44.09375 59.90625 40.109375 62.90625 
Q 36.140625 65.921875 28.71875 65.921875 
Q 24.65625 65.921875 20.015625 65.03125 
Q 15.375 64.15625 9.8125 62.3125 
L 9.8125 71.09375 
Q 15.4375 72.65625 20.34375 73.4375 
Q 25.25 74.21875 29.59375 74.21875 
Q 40.828125 74.21875 47.359375 69.109375 
Q 53.90625 64.015625 53.90625 55.328125 
Q 53.90625 49.265625 50.4375 45.09375 
Q 46.96875 40.921875 40.578125 39.3125 
z
" id="DejaVuSans-51"/>
      </defs>
      <g transform="translate(20.878125 131.525115)scale(0.08 -0.08)">
       <use xlink:href="#DejaVuSans-51"/>
      </g>
     </g>
    </g>
    <g id="ytick_5">
     <g id="line2d_5">
      <path clip-path="url(#pbc0fdd38e3)" d="M 32.968125 79.9843 
L 993.158125 79.9843 
" style="fill:none;stroke:#dedede;stroke-linecap:square;"/>
     </g>
     <g id="text_14">
      <!-- 4 -->
      <g transform="translate(20.878125 83.023675)scale(0.08 -0.08)">
       <use xlink:href="#DejaVuSans-52"/>
      </g>
     </g>
    </g>
    <g id="ytick_6">
     <g id="line2d_6">
      <path clip-path="url(#pbc0fdd38e3)" d="M 32.968125 31.48286 
L 993.158125 31.48286 
" style="fill:none;stroke:#dedede;stroke-linecap:square;"/>
     </g>
     <g id="text_15">
      <!-- 5 -->
      <defs>
       <path d="M 10.796875 72.90625 
L 49.515625 72.90625 
L 49.515625 64.59375 
L 19.828125 64.59375 
L 19.828125 46.734375 
Q 21.96875 47.46875 24.109375 47.828125 
Q 26.265625 48.1875 28.421875 48.1875 
Q 40.625 48.1875 47.75 41.5 
Q 54.890625 34.8125 54.890625 23.390625 
Q 54.890625 11.625 47.5625 5.09375 
Q 40.234375 -1.421875 26.90625 -1.421875 
Q 22.3125 -1.421875 17.546875 -0.640625 
Q 12.796875 0.140625 7.71875 1.703125 
L 7.71875 11.625 
Q 12.109375 9.234375 16.796875 8.0625 
Q 21.484375 6.890625 26.703125 6.890625 
Q 35.15625 6.890625 40.078125 11.328125 
Q 45.015625 15.765625 45.015625 23.390625 
Q 45.015625 31 40.078125 35.4375 
Q 35.15625 39.890625 26.703125 39.890625 
Q 22.75 39.890625 18.8125 39.015625 
Q 14.890625 38.140625 10.796875 36.28125 
z
" id="DejaVuSans-53"/>
      </defs>
      <g transform="translate(20.878125 34.522235)scale(0.08 -0.08)">
       <use xlink:href="#DejaVuSans-53"/>
      </g>
     </g>
    </g>
    <g id="text_16">
     <!-- Percentage N-Count -->
     <defs>
      <path d="M 41.109375 46.296875 
Q 39.59375 47.171875 37.8125 47.578125 
Q 36.03125 48 33.890625 48 
Q 26.265625 48 22.1875 43.046875 
Q 18.109375 38.09375 18.109375 28.8125 
L 18.109375 0 
L 9.078125 0 
L 9.078125 54.6875 
L 18.109375 54.6875 
L 18.109375 46.1875 
Q 20.953125 51.171875 25.484375 53.578125 
Q 30.03125 56 36.53125 56 
Q 37.453125 56 38.578125 55.875 
Q 39.703125 55.765625 41.0625 55.515625 
z
" id="DejaVuSans-114"/>
      <path d="M 48.78125 52.59375 
L 48.78125 44.1875 
Q 44.96875 46.296875 41.140625 47.34375 
Q 37.3125 48.390625 33.40625 48.390625 
Q 24.65625 48.390625 19.8125 42.84375 
Q 14.984375 37.3125 14.984375 27.296875 
Q 14.984375 17.28125 19.8125 11.734375 
Q 24.65625 6.203125 33.40625 6.203125 
Q 37.3125 6.203125 41.140625 7.25 
Q 44.96875 8.296875 48.78125 10.40625 
L 48.78125 2.09375 
Q 45.015625 0.34375 40.984375 -0.53125 
Q 36.96875 -1.421875 32.421875 -1.421875 
Q 20.0625 -1.421875 12.78125 6.34375 
Q 5.515625 14.109375 5.515625 27.296875 
Q 5.515625 40.671875 12.859375 48.328125 
Q 20.21875 56 33.015625 56 
Q 37.15625 56 41.109375 55.140625 
Q 45.0625 54.296875 48.78125 52.59375 
z
" id="DejaVuSans-99"/>
      <path d="M 45.40625 27.984375 
Q 45.40625 37.75 41.375 43.109375 
Q 37.359375 48.484375 30.078125 48.484375 
Q 22.859375 48.484375 18.828125 43.109375 
Q 14.796875 37.75 14.796875 27.984375 
Q 14.796875 18.265625 18.828125 12.890625 
Q 22.859375 7.515625 30.078125 7.515625 
Q 37.359375 7.515625 41.375 12.890625 
Q 45.40625 18.265625 45.40625 27.984375 
z
M 54.390625 6.78125 
Q 54.390625 -7.171875 48.1875 -13.984375 
Q 42 -20.796875 29.203125 -20.796875 
Q 24.46875 -20.796875 20.265625 -20.09375 
Q 16.0625 -19.390625 12.109375 -17.921875 
L 12.109375 -9.1875 
Q 16.0625 -11.328125 19.921875 -12.34375 
Q 23.78125 -13.375 27.78125 -13.375 
Q 36.625 -13.375 41.015625 -8.765625 
Q 45.40625 -4.15625 45.40625 5.171875 
L 45.40625 9.625 
Q 42.625 4.78125 38.28125 2.390625 
Q 33.9375 0 27.875 0 
Q 17.828125 0 11.671875 7.65625 
Q 5.515625 15.328125 5.515625 27.984375 
Q 5.515625 40.671875 11.671875 48.328125 
Q 17.828125 56 27.875 56 
Q 33.9375 56 38.28125 53.609375 
Q 42.625 51.21875 45.40625 46.390625 
L 45.40625 54.6875 
L 54.390625 54.6875 
z
" id="DejaVuSans-103"/>
      <path d="M 9.8125 72.90625 
L 23.09375 72.90625 
L 55.421875 11.921875 
L 55.421875 72.90625 
L 64.984375 72.90625 
L 64.984375 0 
L 51.703125 0 
L 19.390625 60.984375 
L 19.390625 0 
L 9.8125 0 
z
" id="DejaVuSans-78"/>
      <path d="M 4.890625 31.390625 
L 31.203125 31.390625 
L 31.203125 23.390625 
L 4.890625 23.390625 
z
" id="DejaVuSans-45"/>
      <path d="M 64.40625 67.28125 
L 64.40625 56.890625 
Q 59.421875 61.53125 53.78125 63.8125 
Q 48.140625 66.109375 41.796875 66.109375 
Q 29.296875 66.109375 22.65625 58.46875 
Q 16.015625 50.828125 16.015625 36.375 
Q 16.015625 21.96875 22.65625 14.328125 
Q 29.296875 6.6875 41.796875 6.6875 
Q 48.140625 6.6875 53.78125 8.984375 
Q 59.421875 11.28125 64.40625 15.921875 
L 64.40625 5.609375 
Q 59.234375 2.09375 53.4375 0.328125 
Q 47.65625 -1.421875 41.21875 -1.421875 
Q 24.65625 -1.421875 15.125 8.703125 
Q 5.609375 18.84375 5.609375 36.375 
Q 5.609375 53.953125 15.125 64.078125 
Q 24.65625 74.21875 41.21875 74.21875 
Q 47.75 74.21875 53.53125 72.484375 
Q 59.328125 70.75 64.40625 67.28125 
z
" id="DejaVuSans-67"/>
      <path d="M 8.5 21.578125 
L 8.5 54.6875 
L 17.484375 54.6875 
L 17.484375 21.921875 
Q 17.484375 14.15625 20.5 10.265625 
Q 23.53125 6.390625 29.59375 6.390625 
Q 36.859375 6.390625 41.078125 11.03125 
Q 45.3125 15.671875 45.3125 23.6875 
L 45.3125 54.6875 
L 54.296875 54.6875 
L 54.296875 0 
L 45.3125 0 
L 45.3125 8.40625 
Q 42.046875 3.421875 37.71875 1 
Q 33.40625 -1.421875 27.6875 -1.421875 
Q 18.265625 -1.421875 13.375 4.4375 
Q 8.5 10.296875 8.5 21.578125 
z
M 31.109375 56 
z
" id="DejaVuSans-117"/>
     </defs>
     <g transform="translate(14.798438 203.130991)rotate(-90)scale(0.1 -0.1)">
      <use xlink:href="#DejaVuSans-80"/>
      <use x="60.255859" xlink:href="#DejaVuSans-101"/>
      <use x="121.779297" xlink:href="#DejaVuSans-114"/>
      <use x="162.861328" xlink:href="#DejaVuSans-99"/>
      <use x="217.841797" xlink:href="#DejaVuSans-101"/>
      <use x="279.365234" xlink:href="#DejaVuSans-110"/>
      <use x="342.744141" xlink:href="#DejaVuSans-116"/>
      <use x="381.953125" xlink:href="#DejaVuSans-97"/>
      <use x="443.232422" xlink:href="#DejaVuSans-103"/>
      <use x="506.708984" xlink:href="#DejaVuSans-101"/>
      <use x="568.232422" xlink:href="#DejaVuSans-32"/>
      <use x="600.019531" xlink:href="#DejaVuSans-78"/>
      <use x="674.824219" xlink:href="#DejaVuSans-45"/>
      <use x="710.908203" xlink:href="#DejaVuSans-67"/>
      <use x="780.732422" xlink:href="#DejaVuSans-111"/>
      <use x="841.914062" xlink:href="#DejaVuSans-117"/>
      <use x="905.292969" xlink:href="#DejaVuSans-110"/>
      <use x="968.671875" xlink:href="#DejaVuSans-116"/>
     </g>
    </g>
   </g>
   <g id="line2d_7">
    <path clip-path="url(#pbc0fdd38e3)" d="M 39.066505 273.899237 
L 45.164886 267.180021 
L 51.263266 273.98811 
L 57.361647 273.56701 
L 63.460027 273.965543 
L 69.558408 273.99006 
L 75.656788 273.99006 
L 81.755169 273.989781 
L 87.853549 273.99006 
L 106.14869 273.988751 
L 136.640592 273.977969 
L 167.132495 273.989085 
L 197.624397 273.981256 
L 228.116299 273.937015 
L 258.608201 273.989419 
L 289.100103 273.985407 
L 319.592006 273.980727 
L 350.083908 273.877757 
L 380.57581 273.977077 
L 411.067712 273.983513 
L 441.559614 273.98655 
L 472.051517 273.981479 
L 502.543419 273.985185 
L 533.035321 273.981953 
L 563.527223 273.965265 
L 594.019125 273.986104 
L 624.511028 273.989141 
L 655.00293 273.9225 
L 685.494832 273.984795 
L 715.986734 273.823124 
L 746.478636 273.974654 
L 776.970538 273.96415 
L 807.462441 273.947574 
L 837.954343 273.988695 
L 868.446245 273.945178 
L 898.938147 273.964123 
L 929.430049 273.94919 
L 947.725191 273.989364 
" style="fill:none;stroke:#5cb85c;stroke-linecap:square;"/>
   </g>
   <g id="line2d_8">
    <path clip-path="url(#pbc0fdd38e3)" d="M 39.066505 273.178366 
L 45.164886 272.911748 
L 51.263266 273.989224 
L 57.361647 273.99006 
L 63.460027 273.2788 
L 69.558408 273.99006 
L 75.656788 273.99006 
L 81.755169 273.985881 
L 87.853549 273.99006 
L 106.14869 273.985352 
L 136.640592 273.983541 
L 167.132495 273.987107 
L 197.624397 273.872938 
L 228.116299 273.989447 
L 258.608201 273.987525 
L 289.100103 273.983624 
L 319.592006 273.937489 
L 350.083908 273.983931 
L 380.57581 273.987943 
L 411.067712 273.982009 
L 441.559614 273.976548 
L 472.051517 273.981646 
L 502.543419 273.987218 
L 533.035321 273.863075 
L 563.527223 273.989921 
L 594.019125 273.989865 
L 624.511028 273.980643 
L 655.00293 273.936681 
L 685.494832 273.857197 
L 715.986734 273.977885 
L 746.478636 273.924032 
L 776.970538 273.97209 
L 807.462441 273.918098 
L 837.954343 273.97131 
L 868.446245 273.927598 
L 898.938147 273.934285 
L 929.430049 273.970725 
L 947.725191 273.987135 
" style="fill:none;stroke:#5cb85c;stroke-linecap:square;"/>
   </g>
   <g id="line2d_9">
    <path clip-path="url(#pbc0fdd38e3)" d="M 39.066505 273.900573 
L 45.164886 267.98118 
L 51.263266 273.989083 
L 57.361647 272.870986 
L 63.460027 273.981404 
L 69.558408 273.99006 
L 75.656788 273.99006 
L 81.755169 273.99006 
L 87.853549 273.99006 
L 106.14869 273.989976 
L 136.640592 273.988301 
L 167.132495 273.975848 
L 197.624397 273.980427 
L 228.116299 273.933017 
L 258.608201 273.957392 
L 289.100103 273.982912 
L 319.592006 273.985034 
L 350.083908 273.510963 
L 380.57581 273.967388 
L 411.067712 273.985593 
L 441.559614 273.97744 
L 472.051517 273.984252 
L 502.543419 273.984727 
L 533.035321 273.981293 
L 563.527223 273.971157 
L 594.019125 273.973252 
L 624.511028 273.975401 
L 655.00293 273.898619 
L 685.494832 273.933799 
L 715.986734 273.847104 
L 746.478636 273.977831 
L 776.970538 273.968477 
L 807.462441 273.931314 
L 837.954343 273.978305 
L 868.446245 273.872513 
L 898.938147 273.968617 
L 929.430049 273.955187 
L 947.725191 273.974285 
" style="fill:none;stroke:#5cb85c;stroke-linecap:square;"/>
   </g>
   <g id="line2d_10">
    <path clip-path="url(#pbc0fdd38e3)" d="M 39.066505 272.274035 
L 45.164886 272.508432 
L 51.263266 273.98992 
L 57.361647 273.9546 
L 63.460027 273.528386 
L 69.558408 273.99006 
L 75.656788 273.945666 
L 81.755169 273.99006 
L 87.853549 273.99006 
L 106.14869 273.970124 
L 136.640592 273.935279 
L 167.132495 273.986654 
L 197.624397 273.869357 
L 228.116299 273.975457 
L 258.608201 273.980846 
L 289.100103 273.979478 
L 319.592006 273.96172 
L 350.083908 273.978557 
L 380.57581 273.978361 
L 411.067712 273.978166 
L 441.559614 273.985286 
L 472.051517 273.963926 
L 502.543419 273.977133 
L 533.035321 273.874104 
L 563.527223 273.974787 
L 594.019125 273.968142 
L 624.511028 273.968896 
L 655.00293 273.959403 
L 685.494832 273.794669 
L 715.986734 273.980343 
L 746.478636 273.913193 
L 776.970538 273.963842 
L 807.462441 273.929639 
L 837.954343 273.981684 
L 868.446245 273.914087 
L 898.938147 273.907721 
L 929.430049 273.962418 
L 947.725191 273.971493 
" style="fill:none;stroke:#5cb85c;stroke-linecap:square;"/>
   </g>
   <g id="line2d_11">
    <path clip-path="url(#pbc0fdd38e3)" d="M 39.066505 273.888937 
L 45.164886 267.468972 
L 51.263266 273.988693 
L 57.361647 273.541838 
L 63.460027 273.970929 
L 69.558408 273.99006 
L 75.656788 273.99006 
L 81.755169 273.99006 
L 87.853549 273.99006 
L 106.14869 273.988693 
L 136.640592 273.979401 
L 167.132495 273.988693 
L 197.624397 273.983227 
L 228.116299 273.939225 
L 258.608201 273.98924 
L 289.100103 273.984594 
L 319.592006 273.981314 
L 350.083908 273.886477 
L 380.57581 273.976668 
L 411.067712 273.984867 
L 441.559614 273.987874 
L 472.051517 273.983227 
L 502.543419 273.986507 
L 533.035321 273.983227 
L 563.527223 273.964643 
L 594.019125 273.987054 
L 624.511028 273.989513 
L 655.00293 273.928839 
L 685.494832 273.98514 
L 715.986734 273.833455 
L 746.478636 273.970382 
L 776.970538 273.961909 
L 807.462441 273.950431 
L 837.954343 273.988147 
L 868.446245 273.946058 
L 898.938147 273.966556 
L 929.430049 273.949337 
L 947.725191 273.99006 
" style="fill:none;stroke:#5cb85c;stroke-linecap:square;"/>
   </g>
   <g id="line2d_12">
    <path clip-path="url(#pbc0fdd38e3)" d="M 39.066505 273.171508 
L 45.164886 272.966528 
L 51.263266 273.99006 
L 57.361647 273.99006 
L 63.460027 273.261699 
L 69.558408 273.99006 
L 75.656788 273.99006 
L 81.755169 273.99006 
L 87.853549 273.99006 
L 106.14869 273.984594 
L 136.640592 273.984321 
L 167.132495 273.985687 
L 197.624397 273.878278 
L 228.116299 273.99006 
L 258.608201 273.987327 
L 289.100103 273.984594 
L 319.592006 273.946604 
L 350.083908 273.983774 
L 380.57581 273.989513 
L 411.067712 273.979128 
L 441.559614 273.979674 
L 472.051517 273.982954 
L 502.543419 273.98842 
L 533.035321 273.867345 
L 563.527223 273.99006 
L 594.019125 273.99006 
L 624.511028 273.981314 
L 655.00293 273.937312 
L 685.494832 273.865159 
L 715.986734 273.972842 
L 746.478636 273.928293 
L 776.970538 273.972295 
L 807.462441 273.915994 
L 837.954343 273.967922 
L 868.446245 273.917361 
L 898.938147 273.935399 
L 929.430049 273.970382 
L 947.725191 273.984594 
" style="fill:none;stroke:#5cb85c;stroke-linecap:square;"/>
   </g>
   <g id="line2d_13">
    <path clip-path="url(#pbc0fdd38e3)" d="M 39.066505 273.89695 
L 45.164886 268.240503 
L 51.263266 273.99006 
L 57.361647 272.841244 
L 63.460027 273.983214 
L 69.558408 273.99006 
L 75.656788 273.99006 
L 81.755169 273.988691 
L 87.853549 273.99006 
L 106.14869 273.99006 
L 136.640592 273.988417 
L 167.132495 273.976367 
L 197.624397 273.981023 
L 228.116299 273.94104 
L 258.608201 273.962127 
L 289.100103 273.982118 
L 319.592006 273.984035 
L 350.083908 273.482883 
L 380.57581 273.969247 
L 411.067712 273.9865 
L 441.559614 273.977737 
L 472.051517 273.983761 
L 502.543419 273.984583 
L 533.035321 273.980749 
L 563.527223 273.972533 
L 594.019125 273.974176 
L 624.511028 273.977189 
L 655.00293 273.903796 
L 685.494832 273.936932 
L 715.986734 273.861896 
L 746.478636 273.978832 
L 776.970538 273.971986 
L 807.462441 273.941588 
L 837.954343 273.97801 
L 868.446245 273.872303 
L 898.938147 273.970616 
L 929.430049 273.954185 
L 947.725191 273.987321 
" style="fill:none;stroke:#5cb85c;stroke-linecap:square;"/>
   </g>
   <g id="line2d_14">
    <path clip-path="url(#pbc0fdd38e3)" d="M 39.066505 272.283952 
L 45.164886 272.564652 
L 51.263266 273.99006 
L 57.361647 273.940766 
L 63.460027 273.534094 
L 69.558408 273.99006 
L 75.656788 273.958567 
L 81.755169 273.99006 
L 87.853549 273.99006 
L 106.14869 273.971712 
L 136.640592 273.937754 
L 167.132495 273.986226 
L 197.624397 273.883805 
L 228.116299 273.976367 
L 258.608201 273.982666 
L 289.100103 273.980749 
L 319.592006 273.965413 
L 350.083908 273.982666 
L 380.57581 273.97938 
L 411.067712 273.97938 
L 441.559614 273.984309 
L 472.051517 273.968973 
L 502.543419 273.979654 
L 533.035321 273.893116 
L 563.527223 273.976915 
L 594.019125 273.96377 
L 624.511028 273.972533 
L 655.00293 273.962948 
L 685.494832 273.809864 
L 715.986734 273.981571 
L 746.478636 273.915572 
L 776.970538 273.966509 
L 807.462441 273.938302 
L 837.954343 273.981844 
L 868.446245 273.919406 
L 898.938147 273.913929 
L 929.430049 273.962675 
L 947.725191 273.979106 
" style="fill:none;stroke:#5cb85c;stroke-linecap:square;"/>
   </g>
   <g id="line2d_15">
    <path clip-path="url(#pbc0fdd38e3)" d="M 32.968125 273.99006 
L 993.158125 273.99006 
" style="fill:none;stroke:#dedede;stroke-linecap:square;stroke-width:2;"/>
   </g>
   <g id="text_17">
    <!-- FastQC: Per Base N Content -->
    <defs>
     <path d="M 9.8125 72.90625 
L 51.703125 72.90625 
L 51.703125 64.59375 
L 19.671875 64.59375 
L 19.671875 43.109375 
L 48.578125 43.109375 
L 48.578125 34.8125 
L 19.671875 34.8125 
L 19.671875 0 
L 9.8125 0 
z
" id="DejaVuSans-70"/>
     <path d="M 39.40625 66.21875 
Q 28.65625 66.21875 22.328125 58.203125 
Q 16.015625 50.203125 16.015625 36.375 
Q 16.015625 22.609375 22.328125 14.59375 
Q 28.65625 6.59375 39.40625 6.59375 
Q 50.140625 6.59375 56.421875 14.59375 
Q 62.703125 22.609375 62.703125 36.375 
Q 62.703125 50.203125 56.421875 58.203125 
Q 50.140625 66.21875 39.40625 66.21875 
z
M 53.21875 1.3125 
L 66.21875 -12.890625 
L 54.296875 -12.890625 
L 43.5 -1.21875 
Q 41.890625 -1.3125 41.03125 -1.359375 
Q 40.1875 -1.421875 39.40625 -1.421875 
Q 24.03125 -1.421875 14.8125 8.859375 
Q 5.609375 19.140625 5.609375 36.375 
Q 5.609375 53.65625 14.8125 63.9375 
Q 24.03125 74.21875 39.40625 74.21875 
Q 54.734375 74.21875 63.90625 63.9375 
Q 73.09375 53.65625 73.09375 36.375 
Q 73.09375 23.6875 67.984375 14.640625 
Q 62.890625 5.609375 53.21875 1.3125 
z
" id="DejaVuSans-81"/>
     <path d="M 11.71875 12.40625 
L 22.015625 12.40625 
L 22.015625 0 
L 11.71875 0 
z
M 11.71875 51.703125 
L 22.015625 51.703125 
L 22.015625 39.3125 
L 11.71875 39.3125 
z
" id="DejaVuSans-58"/>
     <path d="M 19.671875 34.8125 
L 19.671875 8.109375 
L 35.5 8.109375 
Q 43.453125 8.109375 47.28125 11.40625 
Q 51.125 14.703125 51.125 21.484375 
Q 51.125 28.328125 47.28125 31.5625 
Q 43.453125 34.8125 35.5 34.8125 
z
M 19.671875 64.796875 
L 19.671875 42.828125 
L 34.28125 42.828125 
Q 41.5 42.828125 45.03125 45.53125 
Q 48.578125 48.25 48.578125 53.8125 
Q 48.578125 59.328125 45.03125 62.0625 
Q 41.5 64.796875 34.28125 64.796875 
z
M 9.8125 72.90625 
L 35.015625 72.90625 
Q 46.296875 72.90625 52.390625 68.21875 
Q 58.5 63.53125 58.5 54.890625 
Q 58.5 48.1875 55.375 44.234375 
Q 52.25 40.28125 46.1875 39.3125 
Q 53.46875 37.75 57.5 32.78125 
Q 61.53125 27.828125 61.53125 20.40625 
Q 61.53125 10.640625 54.890625 5.3125 
Q 48.25 0 35.984375 0 
L 9.8125 0 
z
" id="DejaVuSans-66"/>
    </defs>
    <g transform="translate(401.204375 19.3575)scale(0.16 -0.16)">
     <use xlink:href="#DejaVuSans-70"/>
     <use x="57.378906" xlink:href="#DejaVuSans-97"/>
     <use x="118.658203" xlink:href="#DejaVuSans-115"/>
     <use x="170.757812" xlink:href="#DejaVuSans-116"/>
     <use x="209.966797" xlink:href="#DejaVuSans-81"/>
     <use x="288.677734" xlink:href="#DejaVuSans-67"/>
     <use x="358.501953" xlink:href="#DejaVuSans-58"/>
     <use x="392.193359" xlink:href="#DejaVuSans-32"/>
     <use x="423.980469" xlink:href="#DejaVuSans-80"/>
     <use x="484.236328" xlink:href="#DejaVuSans-101"/>
     <use x="545.759766" xlink:href="#DejaVuSans-114"/>
     <use x="586.873047" xlink:href="#DejaVuSans-32"/>
     <use x="618.660156" xlink:href="#DejaVuSans-66"/>
     <use x="687.263672" xlink:href="#DejaVuSans-97"/>
     <use x="748.542969" xlink:href="#DejaVuSans-115"/>
     <use x="800.642578" xlink:href="#DejaVuSans-101"/>
     <use x="862.166016" xlink:href="#DejaVuSans-32"/>
     <use x="893.953125" xlink:href="#DejaVuSans-78"/>
     <use x="968.757812" xlink:href="#DejaVuSans-32"/>
     <use x="1000.544922" xlink:href="#DejaVuSans-67"/>
     <use x="1070.369141" xlink:href="#DejaVuSans-111"/>
     <use x="1131.550781" xlink:href="#DejaVuSans-110"/>
     <use x="1194.929688" xlink:href="#DejaVuSans-116"/>
     <use x="1234.138672" xlink:href="#DejaVuSans-101"/>
     <use x="1295.662109" xlink:href="#DejaVuSans-110"/>
     <use x="1359.041016" xlink:href="#DejaVuSans-116"/>
    </g>
   </g>
   <g id="legend_1">
    <g id="line2d_16">
     <path d="M 40.168125 303.490394 
L 56.168125 303.490394 
" style="fill:none;stroke:#5cb85c;stroke-linecap:square;"/>
    </g>
    <g id="line2d_17"/>
    <g id="text_18">
     <!-- Hte-CJol_087-Ex1-2H-SSL-1-1-L4-1 -->
     <defs>
      <path d="M 9.8125 72.90625 
L 19.671875 72.90625 
L 19.671875 43.015625 
L 55.515625 43.015625 
L 55.515625 72.90625 
L 65.375 72.90625 
L 65.375 0 
L 55.515625 0 
L 55.515625 34.71875 
L 19.671875 34.71875 
L 19.671875 0 
L 9.8125 0 
z
" id="DejaVuSans-72"/>
      <path d="M 9.8125 72.90625 
L 19.671875 72.90625 
L 19.671875 5.078125 
Q 19.671875 -8.109375 14.671875 -14.0625 
Q 9.671875 -20.015625 -1.421875 -20.015625 
L -5.171875 -20.015625 
L -5.171875 -11.71875 
L -2.09375 -11.71875 
Q 4.4375 -11.71875 7.125 -8.046875 
Q 9.8125 -4.390625 9.8125 5.078125 
z
" id="DejaVuSans-74"/>
      <path d="M 9.421875 75.984375 
L 18.40625 75.984375 
L 18.40625 0 
L 9.421875 0 
z
" id="DejaVuSans-108"/>
      <path d="M 50.984375 -16.609375 
L 50.984375 -23.578125 
L -0.984375 -23.578125 
L -0.984375 -16.609375 
z
" id="DejaVuSans-95"/>
      <path d="M 8.203125 72.90625 
L 55.078125 72.90625 
L 55.078125 68.703125 
L 28.609375 0 
L 18.3125 0 
L 43.21875 64.59375 
L 8.203125 64.59375 
z
" id="DejaVuSans-55"/>
      <path d="M 9.8125 72.90625 
L 55.90625 72.90625 
L 55.90625 64.59375 
L 19.671875 64.59375 
L 19.671875 43.015625 
L 54.390625 43.015625 
L 54.390625 34.71875 
L 19.671875 34.71875 
L 19.671875 8.296875 
L 56.78125 8.296875 
L 56.78125 0 
L 9.8125 0 
z
" id="DejaVuSans-69"/>
      <path d="M 54.890625 54.6875 
L 35.109375 28.078125 
L 55.90625 0 
L 45.3125 0 
L 29.390625 21.484375 
L 13.484375 0 
L 2.875 0 
L 24.125 28.609375 
L 4.6875 54.6875 
L 15.28125 54.6875 
L 29.78125 35.203125 
L 44.28125 54.6875 
z
" id="DejaVuSans-120"/>
      <path d="M 53.515625 70.515625 
L 53.515625 60.890625 
Q 47.90625 63.578125 42.921875 64.890625 
Q 37.9375 66.21875 33.296875 66.21875 
Q 25.25 66.21875 20.875 63.09375 
Q 16.5 59.96875 16.5 54.203125 
Q 16.5 49.359375 19.40625 46.890625 
Q 22.3125 44.4375 30.421875 42.921875 
L 36.375 41.703125 
Q 47.40625 39.59375 52.65625 34.296875 
Q 57.90625 29 57.90625 20.125 
Q 57.90625 9.515625 50.796875 4.046875 
Q 43.703125 -1.421875 29.984375 -1.421875 
Q 24.8125 -1.421875 18.96875 -0.25 
Q 13.140625 0.921875 6.890625 3.21875 
L 6.890625 13.375 
Q 12.890625 10.015625 18.65625 8.296875 
Q 24.421875 6.59375 29.984375 6.59375 
Q 38.421875 6.59375 43.015625 9.90625 
Q 47.609375 13.234375 47.609375 19.390625 
Q 47.609375 24.75 44.3125 27.78125 
Q 41.015625 30.8125 33.5 32.328125 
L 27.484375 33.5 
Q 16.453125 35.6875 11.515625 40.375 
Q 6.59375 45.0625 6.59375 53.421875 
Q 6.59375 63.09375 13.40625 68.65625 
Q 20.21875 74.21875 32.171875 74.21875 
Q 37.3125 74.21875 42.625 73.28125 
Q 47.953125 72.359375 53.515625 70.515625 
z
" id="DejaVuSans-83"/>
      <path d="M 9.8125 72.90625 
L 19.671875 72.90625 
L 19.671875 8.296875 
L 55.171875 8.296875 
L 55.171875 0 
L 9.8125 0 
z
" id="DejaVuSans-76"/>
     </defs>
     <g transform="translate(62.568125 306.290394)scale(0.08 -0.08)">
      <use xlink:href="#DejaVuSans-72"/>
      <use x="75.195312" xlink:href="#DejaVuSans-116"/>
      <use x="114.404297" xlink:href="#DejaVuSans-101"/>
      <use x="175.927734" xlink:href="#DejaVuSans-45"/>
      <use x="212.011719" xlink:href="#DejaVuSans-67"/>
      <use x="281.835938" xlink:href="#DejaVuSans-74"/>
      <use x="311.328125" xlink:href="#DejaVuSans-111"/>
      <use x="372.509766" xlink:href="#DejaVuSans-108"/>
      <use x="400.292969" xlink:href="#DejaVuSans-95"/>
      <use x="450.292969" xlink:href="#DejaVuSans-48"/>
      <use x="513.916016" xlink:href="#DejaVuSans-56"/>
      <use x="577.539062" xlink:href="#DejaVuSans-55"/>
      <use x="641.162109" xlink:href="#DejaVuSans-45"/>
      <use x="677.246094" xlink:href="#DejaVuSans-69"/>
      <use x="740.429688" xlink:href="#DejaVuSans-120"/>
      <use x="799.609375" xlink:href="#DejaVuSans-49"/>
      <use x="863.232422" xlink:href="#DejaVuSans-45"/>
      <use x="899.316406" xlink:href="#DejaVuSans-50"/>
      <use x="962.939453" xlink:href="#DejaVuSans-72"/>
      <use x="1038.134766" xlink:href="#DejaVuSans-45"/>
      <use x="1074.21875" xlink:href="#DejaVuSans-83"/>
      <use x="1137.695312" xlink:href="#DejaVuSans-83"/>
      <use x="1201.171875" xlink:href="#DejaVuSans-76"/>
      <use x="1256.869141" xlink:href="#DejaVuSans-45"/>
      <use x="1292.953125" xlink:href="#DejaVuSans-49"/>
      <use x="1356.576172" xlink:href="#DejaVuSans-45"/>
      <use x="1392.660156" xlink:href="#DejaVuSans-49"/>
      <use x="1456.283203" xlink:href="#DejaVuSans-45"/>
      <use x="1492.367188" xlink:href="#DejaVuSans-76"/>
      <use x="1548.080078" xlink:href="#DejaVuSans-52"/>
      <use x="1611.703125" xlink:href="#DejaVuSans-45"/>
      <use x="1647.787109" xlink:href="#DejaVuSans-49"/>
     </g>
    </g>
    <g id="line2d_18">
     <path d="M 40.168125 315.455394 
L 56.168125 315.455394 
" style="fill:none;stroke:#5cb85c;stroke-linecap:square;"/>
    </g>
    <g id="line2d_19"/>
    <g id="text_19">
     <!-- Hte-CJol_087-Ex1-2H-SSL-1-1-L4-2 -->
     <g transform="translate(62.568125 318.255394)scale(0.08 -0.08)">
      <use xlink:href="#DejaVuSans-72"/>
      <use x="75.195312" xlink:href="#DejaVuSans-116"/>
      <use x="114.404297" xlink:href="#DejaVuSans-101"/>
      <use x="175.927734" xlink:href="#DejaVuSans-45"/>
      <use x="212.011719" xlink:href="#DejaVuSans-67"/>
      <use x="281.835938" xlink:href="#DejaVuSans-74"/>
      <use x="311.328125" xlink:href="#DejaVuSans-111"/>
      <use x="372.509766" xlink:href="#DejaVuSans-108"/>
      <use x="400.292969" xlink:href="#DejaVuSans-95"/>
      <use x="450.292969" xlink:href="#DejaVuSans-48"/>
      <use x="513.916016" xlink:href="#DejaVuSans-56"/>
      <use x="577.539062" xlink:href="#DejaVuSans-55"/>
      <use x="641.162109" xlink:href="#DejaVuSans-45"/>
      <use x="677.246094" xlink:href="#DejaVuSans-69"/>
      <use x="740.429688" xlink:href="#DejaVuSans-120"/>
      <use x="799.609375" xlink:href="#DejaVuSans-49"/>
      <use x="863.232422" xlink:href="#DejaVuSans-45"/>
      <use x="899.316406" xlink:href="#DejaVuSans-50"/>
      <use x="962.939453" xlink:href="#DejaVuSans-72"/>
      <use x="1038.134766" xlink:href="#DejaVuSans-45"/>
      <use x="1074.21875" xlink:href="#DejaVuSans-83"/>
      <use x="1137.695312" xlink:href="#DejaVuSans-83"/>
      <use x="1201.171875" xlink:href="#DejaVuSans-76"/>
      <use x="1256.869141" xlink:href="#DejaVuSans-45"/>
      <use x="1292.953125" xlink:href="#DejaVuSans-49"/>
      <use x="1356.576172" xlink:href="#DejaVuSans-45"/>
      <use x="1392.660156" xlink:href="#DejaVuSans-49"/>
      <use x="1456.283203" xlink:href="#DejaVuSans-45"/>
      <use x="1492.367188" xlink:href="#DejaVuSans-76"/>
      <use x="1548.080078" xlink:href="#DejaVuSans-52"/>
      <use x="1611.703125" xlink:href="#DejaVuSans-45"/>
      <use x="1647.787109" xlink:href="#DejaVuSans-50"/>
     </g>
    </g>
    <g id="line2d_20">
     <path d="M 233.499688 303.490394 
L 249.499688 303.490394 
" style="fill:none;stroke:#5cb85c;stroke-linecap:square;"/>
    </g>
    <g id="line2d_21"/>
    <g id="text_20">
     <!-- Hte-CJol_087-Ex1-2H-SSL-1-1-L5-1 -->
     <g transform="translate(255.899688 306.290394)scale(0.08 -0.08)">
      <use xlink:href="#DejaVuSans-72"/>
      <use x="75.195312" xlink:href="#DejaVuSans-116"/>
      <use x="114.404297" xlink:href="#DejaVuSans-101"/>
      <use x="175.927734" xlink:href="#DejaVuSans-45"/>
      <use x="212.011719" xlink:href="#DejaVuSans-67"/>
      <use x="281.835938" xlink:href="#DejaVuSans-74"/>
      <use x="311.328125" xlink:href="#DejaVuSans-111"/>
      <use x="372.509766" xlink:href="#DejaVuSans-108"/>
      <use x="400.292969" xlink:href="#DejaVuSans-95"/>
      <use x="450.292969" xlink:href="#DejaVuSans-48"/>
      <use x="513.916016" xlink:href="#DejaVuSans-56"/>
      <use x="577.539062" xlink:href="#DejaVuSans-55"/>
      <use x="641.162109" xlink:href="#DejaVuSans-45"/>
      <use x="677.246094" xlink:href="#DejaVuSans-69"/>
      <use x="740.429688" xlink:href="#DejaVuSans-120"/>
      <use x="799.609375" xlink:href="#DejaVuSans-49"/>
      <use x="863.232422" xlink:href="#DejaVuSans-45"/>
      <use x="899.316406" xlink:href="#DejaVuSans-50"/>
      <use x="962.939453" xlink:href="#DejaVuSans-72"/>
      <use x="1038.134766" xlink:href="#DejaVuSans-45"/>
      <use x="1074.21875" xlink:href="#DejaVuSans-83"/>
      <use x="1137.695312" xlink:href="#DejaVuSans-83"/>
      <use x="1201.171875" xlink:href="#DejaVuSans-76"/>
      <use x="1256.869141" xlink:href="#DejaVuSans-45"/>
      <use x="1292.953125" xlink:href="#DejaVuSans-49"/>
      <use x="1356.576172" xlink:href="#DejaVuSans-45"/>
      <use x="1392.660156" xlink:href="#DejaVuSans-49"/>
      <use x="1456.283203" xlink:href="#DejaVuSans-45"/>
      <use x="1492.367188" xlink:href="#DejaVuSans-76"/>
      <use x="1548.080078" xlink:href="#DejaVuSans-53"/>
      <use x="1611.703125" xlink:href="#DejaVuSans-45"/>
      <use x="1647.787109" xlink:href="#DejaVuSans-49"/>
     </g>
    </g>
    <g id="line2d_22">
     <path d="M 233.499688 315.455394 
L 249.499688 315.455394 
" style="fill:none;stroke:#5cb85c;stroke-linecap:square;"/>
    </g>
    <g id="line2d_23"/>
    <g id="text_21">
     <!-- Hte-CJol_087-Ex1-2H-SSL-1-1-L5-2 -->
     <g transform="translate(255.899688 318.255394)scale(0.08 -0.08)">
      <use xlink:href="#DejaVuSans-72"/>
      <use x="75.195312" xlink:href="#DejaVuSans-116"/>
      <use x="114.404297" xlink:href="#DejaVuSans-101"/>
      <use x="175.927734" xlink:href="#DejaVuSans-45"/>
      <use x="212.011719" xlink:href="#DejaVuSans-67"/>
      <use x="281.835938" xlink:href="#DejaVuSans-74"/>
      <use x="311.328125" xlink:href="#DejaVuSans-111"/>
      <use x="372.509766" xlink:href="#DejaVuSans-108"/>
      <use x="400.292969" xlink:href="#DejaVuSans-95"/>
      <use x="450.292969" xlink:href="#DejaVuSans-48"/>
      <use x="513.916016" xlink:href="#DejaVuSans-56"/>
      <use x="577.539062" xlink:href="#DejaVuSans-55"/>
      <use x="641.162109" xlink:href="#DejaVuSans-45"/>
      <use x="677.246094" xlink:href="#DejaVuSans-69"/>
      <use x="740.429688" xlink:href="#DejaVuSans-120"/>
      <use x="799.609375" xlink:href="#DejaVuSans-49"/>
      <use x="863.232422" xlink:href="#DejaVuSans-45"/>
      <use x="899.316406" xlink:href="#DejaVuSans-50"/>
      <use x="962.939453" xlink:href="#DejaVuSans-72"/>
      <use x="1038.134766" xlink:href="#DejaVuSans-45"/>
      <use x="1074.21875" xlink:href="#DejaVuSans-83"/>
      <use x="1137.695312" xlink:href="#DejaVuSans-83"/>
      <use x="1201.171875" xlink:href="#DejaVuSans-76"/>
      <use x="1256.869141" xlink:href="#DejaVuSans-45"/>
      <use x="1292.953125" xlink:href="#DejaVuSans-49"/>
      <use x="1356.576172" xlink:href="#DejaVuSans-45"/>
      <use x="1392.660156" xlink:href="#DejaVuSans-49"/>
      <use x="1456.283203" xlink:href="#DejaVuSans-45"/>
      <use x="1492.367188" xlink:href="#DejaVuSans-76"/>
      <use x="1548.080078" xlink:href="#DejaVuSans-53"/>
      <use x="1611.703125" xlink:href="#DejaVuSans-45"/>
      <use x="1647.787109" xlink:href="#DejaVuSans-50"/>
     </g>
    </g>
    <g id="line2d_24">
     <path d="M 426.83125 303.490394 
L 442.83125 303.490394 
" style="fill:none;stroke:#5cb85c;stroke-linecap:square;"/>
    </g>
    <g id="line2d_25"/>
    <g id="text_22">
     <!-- Hte-CMvi_008-Ex1-3H-SSL-1-1-L4-1 -->
     <defs>
      <path d="M 9.8125 72.90625 
L 24.515625 72.90625 
L 43.109375 23.296875 
L 61.8125 72.90625 
L 76.515625 72.90625 
L 76.515625 0 
L 66.890625 0 
L 66.890625 64.015625 
L 48.09375 14.015625 
L 38.1875 14.015625 
L 19.390625 64.015625 
L 19.390625 0 
L 9.8125 0 
z
" id="DejaVuSans-77"/>
      <path d="M 2.984375 54.6875 
L 12.5 54.6875 
L 29.59375 8.796875 
L 46.6875 54.6875 
L 56.203125 54.6875 
L 35.6875 0 
L 23.484375 0 
z
" id="DejaVuSans-118"/>
     </defs>
     <g transform="translate(449.23125 306.290394)scale(0.08 -0.08)">
      <use xlink:href="#DejaVuSans-72"/>
      <use x="75.195312" xlink:href="#DejaVuSans-116"/>
      <use x="114.404297" xlink:href="#DejaVuSans-101"/>
      <use x="175.927734" xlink:href="#DejaVuSans-45"/>
      <use x="212.011719" xlink:href="#DejaVuSans-67"/>
      <use x="281.835938" xlink:href="#DejaVuSans-77"/>
      <use x="368.115234" xlink:href="#DejaVuSans-118"/>
      <use x="427.294922" xlink:href="#DejaVuSans-105"/>
      <use x="455.078125" xlink:href="#DejaVuSans-95"/>
      <use x="505.078125" xlink:href="#DejaVuSans-48"/>
      <use x="568.701172" xlink:href="#DejaVuSans-48"/>
      <use x="632.324219" xlink:href="#DejaVuSans-56"/>
      <use x="695.947266" xlink:href="#DejaVuSans-45"/>
      <use x="732.03125" xlink:href="#DejaVuSans-69"/>
      <use x="795.214844" xlink:href="#DejaVuSans-120"/>
      <use x="854.394531" xlink:href="#DejaVuSans-49"/>
      <use x="918.017578" xlink:href="#DejaVuSans-45"/>
      <use x="954.101562" xlink:href="#DejaVuSans-51"/>
      <use x="1017.724609" xlink:href="#DejaVuSans-72"/>
      <use x="1092.919922" xlink:href="#DejaVuSans-45"/>
      <use x="1129.003906" xlink:href="#DejaVuSans-83"/>
      <use x="1192.480469" xlink:href="#DejaVuSans-83"/>
      <use x="1255.957031" xlink:href="#DejaVuSans-76"/>
      <use x="1311.654297" xlink:href="#DejaVuSans-45"/>
      <use x="1347.738281" xlink:href="#DejaVuSans-49"/>
      <use x="1411.361328" xlink:href="#DejaVuSans-45"/>
      <use x="1447.445312" xlink:href="#DejaVuSans-49"/>
      <use x="1511.068359" xlink:href="#DejaVuSans-45"/>
      <use x="1547.152344" xlink:href="#DejaVuSans-76"/>
      <use x="1602.865234" xlink:href="#DejaVuSans-52"/>
      <use x="1666.488281" xlink:href="#DejaVuSans-45"/>
      <use x="1702.572266" xlink:href="#DejaVuSans-49"/>
     </g>
    </g>
    <g id="line2d_26">
     <path d="M 426.83125 315.455394 
L 442.83125 315.455394 
" style="fill:none;stroke:#5cb85c;stroke-linecap:square;"/>
    </g>
    <g id="line2d_27"/>
    <g id="text_23">
     <!-- Hte-CMvi_008-Ex1-3H-SSL-1-1-L4-2 -->
     <g transform="translate(449.23125 318.255394)scale(0.08 -0.08)">
      <use xlink:href="#DejaVuSans-72"/>
      <use x="75.195312" xlink:href="#DejaVuSans-116"/>
      <use x="114.404297" xlink:href="#DejaVuSans-101"/>
      <use x="175.927734" xlink:href="#DejaVuSans-45"/>
      <use x="212.011719" xlink:href="#DejaVuSans-67"/>
      <use x="281.835938" xlink:href="#DejaVuSans-77"/>
      <use x="368.115234" xlink:href="#DejaVuSans-118"/>
      <use x="427.294922" xlink:href="#DejaVuSans-105"/>
      <use x="455.078125" xlink:href="#DejaVuSans-95"/>
      <use x="505.078125" xlink:href="#DejaVuSans-48"/>
      <use x="568.701172" xlink:href="#DejaVuSans-48"/>
      <use x="632.324219" xlink:href="#DejaVuSans-56"/>
      <use x="695.947266" xlink:href="#DejaVuSans-45"/>
      <use x="732.03125" xlink:href="#DejaVuSans-69"/>
      <use x="795.214844" xlink:href="#DejaVuSans-120"/>
      <use x="854.394531" xlink:href="#DejaVuSans-49"/>
      <use x="918.017578" xlink:href="#DejaVuSans-45"/>
      <use x="954.101562" xlink:href="#DejaVuSans-51"/>
      <use x="1017.724609" xlink:href="#DejaVuSans-72"/>
      <use x="1092.919922" xlink:href="#DejaVuSans-45"/>
      <use x="1129.003906" xlink:href="#DejaVuSans-83"/>
      <use x="1192.480469" xlink:href="#DejaVuSans-83"/>
      <use x="1255.957031" xlink:href="#DejaVuSans-76"/>
      <use x="1311.654297" xlink:href="#DejaVuSans-45"/>
      <use x="1347.738281" xlink:href="#DejaVuSans-49"/>
      <use x="1411.361328" xlink:href="#DejaVuSans-45"/>
      <use x="1447.445312" xlink:href="#DejaVuSans-49"/>
      <use x="1511.068359" xlink:href="#DejaVuSans-45"/>
      <use x="1547.152344" xlink:href="#DejaVuSans-76"/>
      <use x="1602.865234" xlink:href="#DejaVuSans-52"/>
      <use x="1666.488281" xlink:href="#DejaVuSans-45"/>
      <use x="1702.572266" xlink:href="#DejaVuSans-50"/>
     </g>
    </g>
    <g id="line2d_28">
     <path d="M 624.545313 303.490394 
L 640.545313 303.490394 
" style="fill:none;stroke:#5cb85c;stroke-linecap:square;"/>
    </g>
    <g id="line2d_29"/>
    <g id="text_24">
     <!-- Hte-CMvi_008-Ex1-3H-SSL-1-1-L5-1 -->
     <g transform="translate(646.945313 306.290394)scale(0.08 -0.08)">
      <use xlink:href="#DejaVuSans-72"/>
      <use x="75.195312" xlink:href="#DejaVuSans-116"/>
      <use x="114.404297" xlink:href="#DejaVuSans-101"/>
      <use x="175.927734" xlink:href="#DejaVuSans-45"/>
      <use x="212.011719" xlink:href="#DejaVuSans-67"/>
      <use x="281.835938" xlink:href="#DejaVuSans-77"/>
      <use x="368.115234" xlink:href="#DejaVuSans-118"/>
      <use x="427.294922" xlink:href="#DejaVuSans-105"/>
      <use x="455.078125" xlink:href="#DejaVuSans-95"/>
      <use x="505.078125" xlink:href="#DejaVuSans-48"/>
      <use x="568.701172" xlink:href="#DejaVuSans-48"/>
      <use x="632.324219" xlink:href="#DejaVuSans-56"/>
      <use x="695.947266" xlink:href="#DejaVuSans-45"/>
      <use x="732.03125" xlink:href="#DejaVuSans-69"/>
      <use x="795.214844" xlink:href="#DejaVuSans-120"/>
      <use x="854.394531" xlink:href="#DejaVuSans-49"/>
      <use x="918.017578" xlink:href="#DejaVuSans-45"/>
      <use x="954.101562" xlink:href="#DejaVuSans-51"/>
      <use x="1017.724609" xlink:href="#DejaVuSans-72"/>
      <use x="1092.919922" xlink:href="#DejaVuSans-45"/>
      <use x="1129.003906" xlink:href="#DejaVuSans-83"/>
      <use x="1192.480469" xlink:href="#DejaVuSans-83"/>
      <use x="1255.957031" xlink:href="#DejaVuSans-76"/>
      <use x="1311.654297" xlink:href="#DejaVuSans-45"/>
      <use x="1347.738281" xlink:href="#DejaVuSans-49"/>
      <use x="1411.361328" xlink:href="#DejaVuSans-45"/>
      <use x="1447.445312" xlink:href="#DejaVuSans-49"/>
      <use x="1511.068359" xlink:href="#DejaVuSans-45"/>
      <use x="1547.152344" xlink:href="#DejaVuSans-76"/>
      <use x="1602.865234" xlink:href="#DejaVuSans-53"/>
      <use x="1666.488281" xlink:href="#DejaVuSans-45"/>
      <use x="1702.572266" xlink:href="#DejaVuSans-49"/>
     </g>
    </g>
    <g id="line2d_30">
     <path d="M 822.259375 303.490394 
L 838.259375 303.490394 
" style="fill:none;stroke:#5cb85c;stroke-linecap:square;"/>
    </g>
    <g id="line2d_31"/>
    <g id="text_25">
     <!-- Hte-CMvi_008-Ex1-3H-SSL-1-1-L5-2 -->
     <g transform="translate(844.659375 306.290394)scale(0.08 -0.08)">
      <use xlink:href="#DejaVuSans-72"/>
      <use x="75.195312" xlink:href="#DejaVuSans-116"/>
      <use x="114.404297" xlink:href="#DejaVuSans-101"/>
      <use x="175.927734" xlink:href="#DejaVuSans-45"/>
      <use x="212.011719" xlink:href="#DejaVuSans-67"/>
      <use x="281.835938" xlink:href="#DejaVuSans-77"/>
      <use x="368.115234" xlink:href="#DejaVuSans-118"/>
      <use x="427.294922" xlink:href="#DejaVuSans-105"/>
      <use x="455.078125" xlink:href="#DejaVuSans-95"/>
      <use x="505.078125" xlink:href="#DejaVuSans-48"/>
      <use x="568.701172" xlink:href="#DejaVuSans-48"/>
      <use x="632.324219" xlink:href="#DejaVuSans-56"/>
      <use x="695.947266" xlink:href="#DejaVuSans-45"/>
      <use x="732.03125" xlink:href="#DejaVuSans-69"/>
      <use x="795.214844" xlink:href="#DejaVuSans-120"/>
      <use x="854.394531" xlink:href="#DejaVuSans-49"/>
      <use x="918.017578" xlink:href="#DejaVuSans-45"/>
      <use x="954.101562" xlink:href="#DejaVuSans-51"/>
      <use x="1017.724609" xlink:href="#DejaVuSans-72"/>
      <use x="1092.919922" xlink:href="#DejaVuSans-45"/>
      <use x="1129.003906" xlink:href="#DejaVuSans-83"/>
      <use x="1192.480469" xlink:href="#DejaVuSans-83"/>
      <use x="1255.957031" xlink:href="#DejaVuSans-76"/>
      <use x="1311.654297" xlink:href="#DejaVuSans-45"/>
      <use x="1347.738281" xlink:href="#DejaVuSans-49"/>
      <use x="1411.361328" xlink:href="#DejaVuSans-45"/>
      <use x="1447.445312" xlink:href="#DejaVuSans-49"/>
      <use x="1511.068359" xlink:href="#DejaVuSans-45"/>
      <use x="1547.152344" xlink:href="#DejaVuSans-76"/>
      <use x="1602.865234" xlink:href="#DejaVuSans-53"/>
      <use x="1666.488281" xlink:href="#DejaVuSans-45"/>
      <use x="1702.572266" xlink:href="#DejaVuSans-50"/>
     </g>
    </g>
   </g>
  </g>
 </g>
 <defs>
  <clipPath id="pbc0fdd38e3">
   <rect height="242.5072" width="960.19" x="32.968125" y="31.48286"/>
  </clipPath>
 </defs>
</svg>
