<?xml version="1.0" encoding="utf-8" standalone="no"?>
<!DOCTYPE svg PUBLIC "-//W3C//DTD SVG 1.1//EN"
  "http://www.w3.org/Graphics/SVG/1.1/DTD/svg11.dtd">
<!-- Created with matplotlib (https://matplotlib.org/) -->
<svg height="330.541644pt" version="1.1" viewBox="0 0 1000.340625 330.541644" width="1000.340625pt" xmlns="http://www.w3.org/2000/svg" xmlns:xlink="http://www.w3.org/1999/xlink">
 <defs>
  <style type="text/css">
*{stroke-linecap:butt;stroke-linejoin:round;}
  </style>
 </defs>
 <g id="figure_1">
  <g id="axes_1">
   <g id="patch_1">
    <path d="M 40.600625 273.99006 
L 993.140625 273.99006 
L 993.140625 31.48286 
L 40.600625 31.48286 
z
" style="fill:#ffffff;"/>
   </g>
   <g id="matplotlib.axis_1">
    <g id="xtick_1">
     <g id="text_1">
      <!-- 0 -->
      <defs>
       <path d="M 31.78125 66.40625 
Q 24.171875 66.40625 20.328125 58.90625 
Q 16.5 51.421875 16.5 36.375 
Q 16.5 21.390625 20.328125 13.890625 
Q 24.171875 6.390625 31.78125 6.390625 
Q 39.453125 6.390625 43.28125 13.890625 
Q 47.125 21.390625 47.125 36.375 
Q 47.125 51.421875 43.28125 58.90625 
Q 39.453125 66.40625 31.78125 66.40625 
z
M 31.78125 74.21875 
Q 44.046875 74.21875 50.515625 64.515625 
Q 56.984375 54.828125 56.984375 36.375 
Q 56.984375 17.96875 50.515625 8.265625 
Q 44.046875 -1.421875 31.78125 -1.421875 
Q 19.53125 -1.421875 13.0625 8.265625 
Q 6.59375 17.96875 6.59375 36.375 
Q 6.59375 54.828125 13.0625 64.515625 
Q 19.53125 74.21875 31.78125 74.21875 
z
" id="DejaVuSans-48"/>
      </defs>
      <g transform="translate(78.13377 287.06881)scale(0.08 -0.08)">
       <use xlink:href="#DejaVuSans-48"/>
      </g>
     </g>
    </g>
    <g id="xtick_2">
     <g id="text_2">
      <!-- 50 -->
      <defs>
       <path d="M 10.796875 72.90625 
L 49.515625 72.90625 
L 49.515625 64.59375 
L 19.828125 64.59375 
L 19.828125 46.734375 
Q 21.96875 47.46875 24.109375 47.828125 
Q 26.265625 48.1875 28.421875 48.1875 
Q 40.625 48.1875 47.75 41.5 
Q 54.890625 34.8125 54.890625 23.390625 
Q 54.890625 11.625 47.5625 5.09375 
Q 40.234375 -1.421875 26.90625 -1.421875 
Q 22.3125 -1.421875 17.546875 -0.640625 
Q 12.796875 0.140625 7.71875 1.703125 
L 7.71875 11.625 
Q 12.109375 9.234375 16.796875 8.0625 
Q 21.484375 6.890625 26.703125 6.890625 
Q 35.15625 6.890625 40.078125 11.328125 
Q 45.015625 15.765625 45.015625 23.390625 
Q 45.015625 31 40.078125 35.4375 
Q 35.15625 39.890625 26.703125 39.890625 
Q 22.75 39.890625 18.8125 39.015625 
Q 14.890625 38.140625 10.796875 36.28125 
z
" id="DejaVuSans-53"/>
      </defs>
      <g transform="translate(236.545174 287.06881)scale(0.08 -0.08)">
       <use xlink:href="#DejaVuSans-53"/>
       <use x="63.623047" xlink:href="#DejaVuSans-48"/>
      </g>
     </g>
    </g>
    <g id="xtick_3">
     <g id="text_3">
      <!-- 100 -->
      <defs>
       <path d="M 12.40625 8.296875 
L 28.515625 8.296875 
L 28.515625 63.921875 
L 10.984375 60.40625 
L 10.984375 69.390625 
L 28.421875 72.90625 
L 38.28125 72.90625 
L 38.28125 8.296875 
L 54.390625 8.296875 
L 54.390625 0 
L 12.40625 0 
z
" id="DejaVuSans-49"/>
      </defs>
      <g transform="translate(394.956578 287.06881)scale(0.08 -0.08)">
       <use xlink:href="#DejaVuSans-49"/>
       <use x="63.623047" xlink:href="#DejaVuSans-48"/>
       <use x="127.246094" xlink:href="#DejaVuSans-48"/>
      </g>
     </g>
    </g>
    <g id="xtick_4">
     <g id="text_4">
      <!-- 150 -->
      <g transform="translate(555.912982 287.06881)scale(0.08 -0.08)">
       <use xlink:href="#DejaVuSans-49"/>
       <use x="63.623047" xlink:href="#DejaVuSans-53"/>
       <use x="127.246094" xlink:href="#DejaVuSans-48"/>
      </g>
     </g>
    </g>
    <g id="xtick_5">
     <g id="text_5">
      <!-- 200 -->
      <defs>
       <path d="M 19.1875 8.296875 
L 53.609375 8.296875 
L 53.609375 0 
L 7.328125 0 
L 7.328125 8.296875 
Q 12.9375 14.109375 22.625 23.890625 
Q 32.328125 33.6875 34.8125 36.53125 
Q 39.546875 41.84375 41.421875 45.53125 
Q 43.3125 49.21875 43.3125 52.78125 
Q 43.3125 58.59375 39.234375 62.25 
Q 35.15625 65.921875 28.609375 65.921875 
Q 23.96875 65.921875 18.8125 64.3125 
Q 13.671875 62.703125 7.8125 59.421875 
L 7.8125 69.390625 
Q 13.765625 71.78125 18.9375 73 
Q 24.125 74.21875 28.421875 74.21875 
Q 39.75 74.21875 46.484375 68.546875 
Q 53.21875 62.890625 53.21875 53.421875 
Q 53.21875 48.921875 51.53125 44.890625 
Q 49.859375 40.875 45.40625 35.40625 
Q 44.1875 33.984375 37.640625 27.21875 
Q 31.109375 20.453125 19.1875 8.296875 
z
" id="DejaVuSans-50"/>
      </defs>
      <g transform="translate(716.869386 287.06881)scale(0.08 -0.08)">
       <use xlink:href="#DejaVuSans-50"/>
       <use x="63.623047" xlink:href="#DejaVuSans-48"/>
       <use x="127.246094" xlink:href="#DejaVuSans-48"/>
      </g>
     </g>
    </g>
    <g id="xtick_6">
     <g id="text_6">
      <!-- 250 -->
      <g transform="translate(877.825791 287.06881)scale(0.08 -0.08)">
       <use xlink:href="#DejaVuSans-50"/>
       <use x="63.623047" xlink:href="#DejaVuSans-53"/>
       <use x="127.246094" xlink:href="#DejaVuSans-48"/>
      </g>
     </g>
    </g>
    <g id="text_7">
     <!-- Insert size -->
     <defs>
      <path d="M 9.8125 72.90625 
L 19.671875 72.90625 
L 19.671875 0 
L 9.8125 0 
z
" id="DejaVuSans-73"/>
      <path d="M 54.890625 33.015625 
L 54.890625 0 
L 45.90625 0 
L 45.90625 32.71875 
Q 45.90625 40.484375 42.875 44.328125 
Q 39.84375 48.1875 33.796875 48.1875 
Q 26.515625 48.1875 22.3125 43.546875 
Q 18.109375 38.921875 18.109375 30.90625 
L 18.109375 0 
L 9.078125 0 
L 9.078125 54.6875 
L 18.109375 54.6875 
L 18.109375 46.1875 
Q 21.34375 51.125 25.703125 53.5625 
Q 30.078125 56 35.796875 56 
Q 45.21875 56 50.046875 50.171875 
Q 54.890625 44.34375 54.890625 33.015625 
z
" id="DejaVuSans-110"/>
      <path d="M 44.28125 53.078125 
L 44.28125 44.578125 
Q 40.484375 46.53125 36.375 47.5 
Q 32.28125 48.484375 27.875 48.484375 
Q 21.1875 48.484375 17.84375 46.4375 
Q 14.5 44.390625 14.5 40.28125 
Q 14.5 37.15625 16.890625 35.375 
Q 19.28125 33.59375 26.515625 31.984375 
L 29.59375 31.296875 
Q 39.15625 29.25 43.1875 25.515625 
Q 47.21875 21.78125 47.21875 15.09375 
Q 47.21875 7.46875 41.1875 3.015625 
Q 35.15625 -1.421875 24.609375 -1.421875 
Q 20.21875 -1.421875 15.453125 -0.5625 
Q 10.6875 0.296875 5.421875 2 
L 5.421875 11.28125 
Q 10.40625 8.6875 15.234375 7.390625 
Q 20.0625 6.109375 24.8125 6.109375 
Q 31.15625 6.109375 34.5625 8.28125 
Q 37.984375 10.453125 37.984375 14.40625 
Q 37.984375 18.0625 35.515625 20.015625 
Q 33.0625 21.96875 24.703125 23.78125 
L 21.578125 24.515625 
Q 13.234375 26.265625 9.515625 29.90625 
Q 5.8125 33.546875 5.8125 39.890625 
Q 5.8125 47.609375 11.28125 51.796875 
Q 16.75 56 26.8125 56 
Q 31.78125 56 36.171875 55.265625 
Q 40.578125 54.546875 44.28125 53.078125 
z
" id="DejaVuSans-115"/>
      <path d="M 56.203125 29.59375 
L 56.203125 25.203125 
L 14.890625 25.203125 
Q 15.484375 15.921875 20.484375 11.0625 
Q 25.484375 6.203125 34.421875 6.203125 
Q 39.59375 6.203125 44.453125 7.46875 
Q 49.3125 8.734375 54.109375 11.28125 
L 54.109375 2.78125 
Q 49.265625 0.734375 44.1875 -0.34375 
Q 39.109375 -1.421875 33.890625 -1.421875 
Q 20.796875 -1.421875 13.15625 6.1875 
Q 5.515625 13.8125 5.515625 26.8125 
Q 5.515625 40.234375 12.765625 48.109375 
Q 20.015625 56 32.328125 56 
Q 43.359375 56 49.78125 48.890625 
Q 56.203125 41.796875 56.203125 29.59375 
z
M 47.21875 32.234375 
Q 47.125 39.59375 43.09375 43.984375 
Q 39.0625 48.390625 32.421875 48.390625 
Q 24.90625 48.390625 20.390625 44.140625 
Q 15.875 39.890625 15.1875 32.171875 
z
" id="DejaVuSans-101"/>
      <path d="M 41.109375 46.296875 
Q 39.59375 47.171875 37.8125 47.578125 
Q 36.03125 48 33.890625 48 
Q 26.265625 48 22.1875 43.046875 
Q 18.109375 38.09375 18.109375 28.8125 
L 18.109375 0 
L 9.078125 0 
L 9.078125 54.6875 
L 18.109375 54.6875 
L 18.109375 46.1875 
Q 20.953125 51.171875 25.484375 53.578125 
Q 30.03125 56 36.53125 56 
Q 37.453125 56 38.578125 55.875 
Q 39.703125 55.765625 41.0625 55.515625 
z
" id="DejaVuSans-114"/>
      <path d="M 18.3125 70.21875 
L 18.3125 54.6875 
L 36.8125 54.6875 
L 36.8125 47.703125 
L 18.3125 47.703125 
L 18.3125 18.015625 
Q 18.3125 11.328125 20.140625 9.421875 
Q 21.96875 7.515625 27.59375 7.515625 
L 36.8125 7.515625 
L 36.8125 0 
L 27.59375 0 
Q 17.1875 0 13.234375 3.875 
Q 9.28125 7.765625 9.28125 18.015625 
L 9.28125 47.703125 
L 2.6875 47.703125 
L 2.6875 54.6875 
L 9.28125 54.6875 
L 9.28125 70.21875 
z
" id="DejaVuSans-116"/>
      <path id="DejaVuSans-32"/>
      <path d="M 9.421875 54.6875 
L 18.40625 54.6875 
L 18.40625 0 
L 9.421875 0 
z
M 9.421875 75.984375 
L 18.40625 75.984375 
L 18.40625 64.59375 
L 9.421875 64.59375 
z
" id="DejaVuSans-105"/>
      <path d="M 5.515625 54.6875 
L 48.1875 54.6875 
L 48.1875 46.484375 
L 14.40625 7.171875 
L 48.1875 7.171875 
L 48.1875 0 
L 4.296875 0 
L 4.296875 8.203125 
L 38.09375 47.515625 
L 5.515625 47.515625 
z
" id="DejaVuSans-122"/>
     </defs>
     <g transform="translate(491.246406 300.330997)scale(0.1 -0.1)">
      <use xlink:href="#DejaVuSans-73"/>
      <use x="29.492188" xlink:href="#DejaVuSans-110"/>
      <use x="92.871094" xlink:href="#DejaVuSans-115"/>
      <use x="144.970703" xlink:href="#DejaVuSans-101"/>
      <use x="206.494141" xlink:href="#DejaVuSans-114"/>
      <use x="247.607422" xlink:href="#DejaVuSans-116"/>
      <use x="286.816406" xlink:href="#DejaVuSans-32"/>
      <use x="318.603516" xlink:href="#DejaVuSans-115"/>
      <use x="370.703125" xlink:href="#DejaVuSans-105"/>
      <use x="398.486328" xlink:href="#DejaVuSans-122"/>
      <use x="450.976562" xlink:href="#DejaVuSans-101"/>
     </g>
    </g>
   </g>
   <g id="matplotlib.axis_2">
    <g id="ytick_1">
     <g id="line2d_1">
      <path clip-path="url(#p20e5a7e0f7)" d="M 40.600625 273.99006 
L 993.140625 273.99006 
" style="fill:none;stroke:#dedede;stroke-linecap:square;"/>
     </g>
     <g id="text_8">
      <!-- 0.0 -->
      <defs>
       <path d="M 10.6875 12.40625 
L 21 12.40625 
L 21 0 
L 10.6875 0 
z
" id="DejaVuSans-46"/>
      </defs>
      <g transform="translate(20.878125 277.029435)scale(0.08 -0.08)">
       <use xlink:href="#DejaVuSans-48"/>
       <use x="63.623047" xlink:href="#DejaVuSans-46"/>
       <use x="95.410156" xlink:href="#DejaVuSans-48"/>
      </g>
     </g>
    </g>
    <g id="ytick_2">
     <g id="line2d_2">
      <path clip-path="url(#p20e5a7e0f7)" d="M 40.600625 228.728249 
L 993.140625 228.728249 
" style="fill:none;stroke:#dedede;stroke-linecap:square;"/>
     </g>
     <g id="text_9">
      <!-- 0.2 -->
      <g transform="translate(20.878125 231.767624)scale(0.08 -0.08)">
       <use xlink:href="#DejaVuSans-48"/>
       <use x="63.623047" xlink:href="#DejaVuSans-46"/>
       <use x="95.410156" xlink:href="#DejaVuSans-50"/>
      </g>
     </g>
    </g>
    <g id="ytick_3">
     <g id="line2d_3">
      <path clip-path="url(#p20e5a7e0f7)" d="M 40.600625 183.466438 
L 993.140625 183.466438 
" style="fill:none;stroke:#dedede;stroke-linecap:square;"/>
     </g>
     <g id="text_10">
      <!-- 0.4 -->
      <defs>
       <path d="M 37.796875 64.3125 
L 12.890625 25.390625 
L 37.796875 25.390625 
z
M 35.203125 72.90625 
L 47.609375 72.90625 
L 47.609375 25.390625 
L 58.015625 25.390625 
L 58.015625 17.1875 
L 47.609375 17.1875 
L 47.609375 0 
L 37.796875 0 
L 37.796875 17.1875 
L 4.890625 17.1875 
L 4.890625 26.703125 
z
" id="DejaVuSans-52"/>
      </defs>
      <g transform="translate(20.878125 186.505813)scale(0.08 -0.08)">
       <use xlink:href="#DejaVuSans-48"/>
       <use x="63.623047" xlink:href="#DejaVuSans-46"/>
       <use x="95.410156" xlink:href="#DejaVuSans-52"/>
      </g>
     </g>
    </g>
    <g id="ytick_4">
     <g id="line2d_4">
      <path clip-path="url(#p20e5a7e0f7)" d="M 40.600625 138.204627 
L 993.140625 138.204627 
" style="fill:none;stroke:#dedede;stroke-linecap:square;"/>
     </g>
     <g id="text_11">
      <!-- 0.6 -->
      <defs>
       <path d="M 33.015625 40.375 
Q 26.375 40.375 22.484375 35.828125 
Q 18.609375 31.296875 18.609375 23.390625 
Q 18.609375 15.53125 22.484375 10.953125 
Q 26.375 6.390625 33.015625 6.390625 
Q 39.65625 6.390625 43.53125 10.953125 
Q 47.40625 15.53125 47.40625 23.390625 
Q 47.40625 31.296875 43.53125 35.828125 
Q 39.65625 40.375 33.015625 40.375 
z
M 52.59375 71.296875 
L 52.59375 62.3125 
Q 48.875 64.0625 45.09375 64.984375 
Q 41.3125 65.921875 37.59375 65.921875 
Q 27.828125 65.921875 22.671875 59.328125 
Q 17.53125 52.734375 16.796875 39.40625 
Q 19.671875 43.65625 24.015625 45.921875 
Q 28.375 48.1875 33.59375 48.1875 
Q 44.578125 48.1875 50.953125 41.515625 
Q 57.328125 34.859375 57.328125 23.390625 
Q 57.328125 12.15625 50.6875 5.359375 
Q 44.046875 -1.421875 33.015625 -1.421875 
Q 20.359375 -1.421875 13.671875 8.265625 
Q 6.984375 17.96875 6.984375 36.375 
Q 6.984375 53.65625 15.1875 63.9375 
Q 23.390625 74.21875 37.203125 74.21875 
Q 40.921875 74.21875 44.703125 73.484375 
Q 48.484375 72.75 52.59375 71.296875 
z
" id="DejaVuSans-54"/>
      </defs>
      <g transform="translate(20.878125 141.244002)scale(0.08 -0.08)">
       <use xlink:href="#DejaVuSans-48"/>
       <use x="63.623047" xlink:href="#DejaVuSans-46"/>
       <use x="95.410156" xlink:href="#DejaVuSans-54"/>
      </g>
     </g>
    </g>
    <g id="ytick_5">
     <g id="line2d_5">
      <path clip-path="url(#p20e5a7e0f7)" d="M 40.600625 92.942816 
L 993.140625 92.942816 
" style="fill:none;stroke:#dedede;stroke-linecap:square;"/>
     </g>
     <g id="text_12">
      <!-- 0.8 -->
      <defs>
       <path d="M 31.78125 34.625 
Q 24.75 34.625 20.71875 30.859375 
Q 16.703125 27.09375 16.703125 20.515625 
Q 16.703125 13.921875 20.71875 10.15625 
Q 24.75 6.390625 31.78125 6.390625 
Q 38.8125 6.390625 42.859375 10.171875 
Q 46.921875 13.96875 46.921875 20.515625 
Q 46.921875 27.09375 42.890625 30.859375 
Q 38.875 34.625 31.78125 34.625 
z
M 21.921875 38.8125 
Q 15.578125 40.375 12.03125 44.71875 
Q 8.5 49.078125 8.5 55.328125 
Q 8.5 64.0625 14.71875 69.140625 
Q 20.953125 74.21875 31.78125 74.21875 
Q 42.671875 74.21875 48.875 69.140625 
Q 55.078125 64.0625 55.078125 55.328125 
Q 55.078125 49.078125 51.53125 44.71875 
Q 48 40.375 41.703125 38.8125 
Q 48.828125 37.15625 52.796875 32.3125 
Q 56.78125 27.484375 56.78125 20.515625 
Q 56.78125 9.90625 50.3125 4.234375 
Q 43.84375 -1.421875 31.78125 -1.421875 
Q 19.734375 -1.421875 13.25 4.234375 
Q 6.78125 9.90625 6.78125 20.515625 
Q 6.78125 27.484375 10.78125 32.3125 
Q 14.796875 37.15625 21.921875 38.8125 
z
M 18.3125 54.390625 
Q 18.3125 48.734375 21.84375 45.5625 
Q 25.390625 42.390625 31.78125 42.390625 
Q 38.140625 42.390625 41.71875 45.5625 
Q 45.3125 48.734375 45.3125 54.390625 
Q 45.3125 60.0625 41.71875 63.234375 
Q 38.140625 66.40625 31.78125 66.40625 
Q 25.390625 66.40625 21.84375 63.234375 
Q 18.3125 60.0625 18.3125 54.390625 
z
" id="DejaVuSans-56"/>
      </defs>
      <g transform="translate(20.878125 95.982191)scale(0.08 -0.08)">
       <use xlink:href="#DejaVuSans-48"/>
       <use x="63.623047" xlink:href="#DejaVuSans-46"/>
       <use x="95.410156" xlink:href="#DejaVuSans-56"/>
      </g>
     </g>
    </g>
    <g id="ytick_6">
     <g id="line2d_6">
      <path clip-path="url(#p20e5a7e0f7)" d="M 40.600625 47.681005 
L 993.140625 47.681005 
" style="fill:none;stroke:#dedede;stroke-linecap:square;"/>
     </g>
     <g id="text_13">
      <!-- 1.0 -->
      <g transform="translate(20.878125 50.72038)scale(0.08 -0.08)">
       <use xlink:href="#DejaVuSans-49"/>
       <use x="63.623047" xlink:href="#DejaVuSans-46"/>
       <use x="95.410156" xlink:href="#DejaVuSans-48"/>
      </g>
     </g>
    </g>
    <g id="text_14">
     <!-- Read percent -->
     <defs>
      <path d="M 44.390625 34.1875 
Q 47.5625 33.109375 50.5625 29.59375 
Q 53.5625 26.078125 56.59375 19.921875 
L 66.609375 0 
L 56 0 
L 46.6875 18.703125 
Q 43.0625 26.03125 39.671875 28.421875 
Q 36.28125 30.8125 30.421875 30.8125 
L 19.671875 30.8125 
L 19.671875 0 
L 9.8125 0 
L 9.8125 72.90625 
L 32.078125 72.90625 
Q 44.578125 72.90625 50.734375 67.671875 
Q 56.890625 62.453125 56.890625 51.90625 
Q 56.890625 45.015625 53.6875 40.46875 
Q 50.484375 35.9375 44.390625 34.1875 
z
M 19.671875 64.796875 
L 19.671875 38.921875 
L 32.078125 38.921875 
Q 39.203125 38.921875 42.84375 42.21875 
Q 46.484375 45.515625 46.484375 51.90625 
Q 46.484375 58.296875 42.84375 61.546875 
Q 39.203125 64.796875 32.078125 64.796875 
z
" id="DejaVuSans-82"/>
      <path d="M 34.28125 27.484375 
Q 23.390625 27.484375 19.1875 25 
Q 14.984375 22.515625 14.984375 16.5 
Q 14.984375 11.71875 18.140625 8.90625 
Q 21.296875 6.109375 26.703125 6.109375 
Q 34.1875 6.109375 38.703125 11.40625 
Q 43.21875 16.703125 43.21875 25.484375 
L 43.21875 27.484375 
z
M 52.203125 31.203125 
L 52.203125 0 
L 43.21875 0 
L 43.21875 8.296875 
Q 40.140625 3.328125 35.546875 0.953125 
Q 30.953125 -1.421875 24.3125 -1.421875 
Q 15.921875 -1.421875 10.953125 3.296875 
Q 6 8.015625 6 15.921875 
Q 6 25.140625 12.171875 29.828125 
Q 18.359375 34.515625 30.609375 34.515625 
L 43.21875 34.515625 
L 43.21875 35.40625 
Q 43.21875 41.609375 39.140625 45 
Q 35.0625 48.390625 27.6875 48.390625 
Q 23 48.390625 18.546875 47.265625 
Q 14.109375 46.140625 10.015625 43.890625 
L 10.015625 52.203125 
Q 14.9375 54.109375 19.578125 55.046875 
Q 24.21875 56 28.609375 56 
Q 40.484375 56 46.34375 49.84375 
Q 52.203125 43.703125 52.203125 31.203125 
z
" id="DejaVuSans-97"/>
      <path d="M 45.40625 46.390625 
L 45.40625 75.984375 
L 54.390625 75.984375 
L 54.390625 0 
L 45.40625 0 
L 45.40625 8.203125 
Q 42.578125 3.328125 38.25 0.953125 
Q 33.9375 -1.421875 27.875 -1.421875 
Q 17.96875 -1.421875 11.734375 6.484375 
Q 5.515625 14.40625 5.515625 27.296875 
Q 5.515625 40.1875 11.734375 48.09375 
Q 17.96875 56 27.875 56 
Q 33.9375 56 38.25 53.625 
Q 42.578125 51.265625 45.40625 46.390625 
z
M 14.796875 27.296875 
Q 14.796875 17.390625 18.875 11.75 
Q 22.953125 6.109375 30.078125 6.109375 
Q 37.203125 6.109375 41.296875 11.75 
Q 45.40625 17.390625 45.40625 27.296875 
Q 45.40625 37.203125 41.296875 42.84375 
Q 37.203125 48.484375 30.078125 48.484375 
Q 22.953125 48.484375 18.875 42.84375 
Q 14.796875 37.203125 14.796875 27.296875 
z
" id="DejaVuSans-100"/>
      <path d="M 18.109375 8.203125 
L 18.109375 -20.796875 
L 9.078125 -20.796875 
L 9.078125 54.6875 
L 18.109375 54.6875 
L 18.109375 46.390625 
Q 20.953125 51.265625 25.265625 53.625 
Q 29.59375 56 35.59375 56 
Q 45.5625 56 51.78125 48.09375 
Q 58.015625 40.1875 58.015625 27.296875 
Q 58.015625 14.40625 51.78125 6.484375 
Q 45.5625 -1.421875 35.59375 -1.421875 
Q 29.59375 -1.421875 25.265625 0.953125 
Q 20.953125 3.328125 18.109375 8.203125 
z
M 48.6875 27.296875 
Q 48.6875 37.203125 44.609375 42.84375 
Q 40.53125 48.484375 33.40625 48.484375 
Q 26.265625 48.484375 22.1875 42.84375 
Q 18.109375 37.203125 18.109375 27.296875 
Q 18.109375 17.390625 22.1875 11.75 
Q 26.265625 6.109375 33.40625 6.109375 
Q 40.53125 6.109375 44.609375 11.75 
Q 48.6875 17.390625 48.6875 27.296875 
z
" id="DejaVuSans-112"/>
      <path d="M 48.78125 52.59375 
L 48.78125 44.1875 
Q 44.96875 46.296875 41.140625 47.34375 
Q 37.3125 48.390625 33.40625 48.390625 
Q 24.65625 48.390625 19.8125 42.84375 
Q 14.984375 37.3125 14.984375 27.296875 
Q 14.984375 17.28125 19.8125 11.734375 
Q 24.65625 6.203125 33.40625 6.203125 
Q 37.3125 6.203125 41.140625 7.25 
Q 44.96875 8.296875 48.78125 10.40625 
L 48.78125 2.09375 
Q 45.015625 0.34375 40.984375 -0.53125 
Q 36.96875 -1.421875 32.421875 -1.421875 
Q 20.0625 -1.421875 12.78125 6.34375 
Q 5.515625 14.109375 5.515625 27.296875 
Q 5.515625 40.671875 12.859375 48.328125 
Q 20.21875 56 33.015625 56 
Q 37.15625 56 41.109375 55.140625 
Q 45.0625 54.296875 48.78125 52.59375 
z
" id="DejaVuSans-99"/>
     </defs>
     <g transform="translate(14.798438 186.370835)rotate(-90)scale(0.1 -0.1)">
      <use xlink:href="#DejaVuSans-82"/>
      <use x="69.419922" xlink:href="#DejaVuSans-101"/>
      <use x="130.943359" xlink:href="#DejaVuSans-97"/>
      <use x="192.222656" xlink:href="#DejaVuSans-100"/>
      <use x="255.699219" xlink:href="#DejaVuSans-32"/>
      <use x="287.486328" xlink:href="#DejaVuSans-112"/>
      <use x="350.962891" xlink:href="#DejaVuSans-101"/>
      <use x="412.486328" xlink:href="#DejaVuSans-114"/>
      <use x="453.568359" xlink:href="#DejaVuSans-99"/>
      <use x="508.548828" xlink:href="#DejaVuSans-101"/>
      <use x="570.072266" xlink:href="#DejaVuSans-110"/>
      <use x="633.451172" xlink:href="#DejaVuSans-116"/>
     </g>
    </g>
   </g>
   <g id="line2d_7">
    <path clip-path="url(#p20e5a7e0f7)" d="M 83.897898 273.99006 
L 87.117026 262.784456 
L 90.336154 267.717822 
L 93.555282 270.908325 
L 96.77441 272.547601 
L 103.212666 273.334868 
L 109.650922 273.663759 
L 112.87005 273.785474 
L 116.089179 273.689656 
L 125.746563 273.751808 
L 135.403947 273.671528 
L 145.061331 273.303791 
L 148.280459 272.848005 
L 151.499587 272.928286 
L 154.718716 272.379271 
L 157.937844 272.003765 
L 161.156972 271.390008 
L 164.3761 269.93201 
L 167.595228 269.463276 
L 170.814356 270.227235 
L 174.033484 269.913882 
L 177.252612 270.035598 
L 180.47174 269.577222 
L 183.690868 266.951273 
L 186.909996 266.202851 
L 190.129124 227.297884 
L 193.348253 218.529181 
L 196.567381 212.228456 
L 199.786509 203.511547 
L 203.005637 199.386165 
L 206.224765 191.961514 
L 209.443893 187.973386 
L 212.663021 184.163946 
L 215.882149 180.828421 
L 219.101277 175.599829 
L 222.320405 173.318309 
L 225.539533 167.354245 
L 228.758661 165.948041 
L 231.97779 161.711302 
L 235.196918 161.542972 
L 238.416046 158.76941 
L 241.635174 157.894094 
L 244.854302 155.325118 
L 248.07343 153.460538 
L 251.292558 150.723232 
L 257.730814 147.897876 
L 260.949942 147.576754 
L 264.16907 145.225313 
L 267.388199 144.792834 
L 273.826455 143.081046 
L 277.045583 140.310074 
L 280.264711 143.534243 
L 283.483839 139.393322 
L 286.702967 140.755501 
L 289.922095 140.115847 
L 293.141223 139.719624 
L 296.360351 138.069989 
L 299.579479 138.419598 
L 302.798607 137.251646 
L 309.236864 138.445495 
L 312.455992 137.249056 
L 315.67512 137.847275 
L 318.894248 139.126584 
L 322.113376 139.206865 
L 325.332504 141.177621 
L 328.551632 140.159872 
L 331.77076 140.884986 
L 334.989888 142.425854 
L 338.209016 142.884229 
L 344.647273 142.526852 
L 347.866401 141.413284 
L 351.085529 142.151346 
L 354.304657 141.827634 
L 357.523785 142.042579 
L 360.742913 140.835782 
L 363.962041 140.960087 
L 367.181169 140.804705 
L 370.400297 142.355932 
L 373.619425 141.392566 
L 376.838553 141.076623 
L 380.057681 141.055906 
L 383.27681 142.267882 
L 386.495938 142.482827 
L 389.715066 143.47209 
L 392.934194 140.333381 
L 396.153322 142.021862 
L 399.37245 141.957119 
L 402.591578 143.075867 
L 405.810706 143.399579 
L 409.029834 140.50948 
L 412.248962 143.073277 
L 415.46809 142.62267 
L 418.687218 144.305971 
L 421.906347 144.448404 
L 425.125475 144.049592 
L 428.344603 143.125071 
L 431.563731 144.080668 
L 438.001987 145.085469 
L 441.221115 147.52755 
L 444.440243 146.704028 
L 447.659371 146.579722 
L 450.878499 148.656657 
L 454.097627 149.329977 
L 457.316755 149.715841 
L 460.535884 149.503486 
L 463.755012 150.899331 
L 470.193268 150.472032 
L 473.412396 152.222665 
L 476.631524 152.655144 
L 479.850652 153.69879 
L 483.06978 152.489403 
L 486.288908 153.913735 
L 489.508036 156.021745 
L 492.727164 155.72911 
L 495.946292 157.813813 
L 499.165421 157.189697 
L 502.384549 157.945888 
L 505.603677 159.851902 
L 508.822805 160.059078 
L 512.041933 161.410898 
L 515.261061 162.521876 
L 518.480189 164.474505 
L 521.699317 165.11157 
L 524.918445 167.302451 
L 528.137573 167.092686 
L 531.356701 169.744532 
L 534.575829 170.671642 
L 541.014086 174.380084 
L 544.233214 174.24024 
L 547.452342 174.781486 
L 550.67147 174.359366 
L 553.890598 173.074878 
L 557.109726 171.36827 
L 560.328854 165.184081 
L 563.547982 145.699226 
L 566.76711 43.030822 
L 569.986238 114.294012 
L 573.205366 136.246845 
L 576.424495 141.876839 
L 579.643623 144.935267 
L 582.862751 147.074354 
L 586.081879 147.667394 
L 589.301007 148.444302 
L 592.520135 150.029194 
L 595.739263 150.720642 
L 598.958391 150.720642 
L 602.177519 151.023637 
L 605.396647 151.880825 
L 608.615775 153.742815 
L 611.834903 154.050988 
L 618.27316 155.957003 
L 621.492288 156.14864 
L 624.711416 156.889293 
L 627.930544 158.909254 
L 634.3688 160.486377 
L 637.587928 161.776045 
L 640.807056 162.099756 
L 644.026184 163.08643 
L 647.245312 165.241055 
L 650.46444 165.777121 
L 653.683569 166.067167 
L 656.902697 168.384943 
L 660.121825 168.879574 
L 666.560081 171.945772 
L 669.779209 172.670886 
L 672.998337 173.535843 
L 676.217465 175.524728 
L 679.436593 176.591682 
L 682.655721 178.13255 
L 685.874849 180.636783 
L 689.093977 179.950515 
L 692.313106 181.784018 
L 695.532234 183.270502 
L 698.751362 184.352994 
L 701.97049 185.766967 
L 705.189618 186.119165 
L 708.408746 187.797286 
L 711.627874 190.024423 
L 718.06613 193.111338 
L 721.285258 193.859759 
L 724.504386 195.232297 
L 727.723514 196.918187 
L 730.942643 197.599277 
L 737.380899 199.43278 
L 740.600027 201.007314 
L 743.819155 202.408338 
L 747.038283 204.407581 
L 750.257411 206.005422 
L 753.476539 206.062396 
L 756.695667 208.232559 
L 759.914795 209.804503 
L 763.133923 210.770459 
L 769.57218 213.554379 
L 772.791308 215.338678 
L 776.010436 215.488881 
L 779.229564 216.483323 
L 782.448692 218.394517 
L 785.66782 219.407087 
L 792.106076 222.064113 
L 795.325204 222.887635 
L 798.544332 224.185072 
L 801.76346 225.907218 
L 804.982589 226.088497 
L 808.201717 227.370395 
L 811.420845 227.709645 
L 814.639973 229.548327 
L 817.859101 230.053318 
L 821.078229 231.879052 
L 824.297357 232.912339 
L 827.516485 233.166129 
L 830.735613 234.142444 
L 837.173869 235.636697 
L 840.392997 236.022561 
L 843.612126 237.21641 
L 846.831254 237.275973 
L 850.050382 238.591538 
L 853.26951 239.549724 
L 856.488638 240.101329 
L 862.926894 241.794989 
L 869.36515 242.657357 
L 875.803406 244.327709 
L 879.022534 244.703215 
L 882.241663 244.524526 
L 885.460791 245.459405 
L 895.118175 246.295876 
L 898.337303 246.034317 
L 901.556431 247.028759 
L 904.775559 246.870788 
L 907.994687 247.904076 
L 911.213815 247.639927 
L 914.432943 248.37799 
L 917.652071 248.468629 
L 920.8712 248.357272 
L 924.090328 248.569627 
L 927.309456 248.442732 
L 930.528584 247.575185 
L 933.747712 247.800488 
L 936.96684 247.678773 
L 940.185968 247.69949 
L 943.405096 247.968818 
L 946.624224 248.662856 
L 949.843352 251.998382 
L 949.843352 251.998382 
" style="fill:none;stroke:#7cb5ec;stroke-linecap:square;"/>
   </g>
   <g id="line2d_8">
    <path clip-path="url(#p20e5a7e0f7)" d="M 83.897898 273.99006 
L 87.117026 264.349686 
L 90.336154 268.195085 
L 93.555282 271.253831 
L 96.77441 272.463271 
L 99.993538 273.021474 
L 106.431794 273.583812 
L 112.87005 273.786419 
L 116.089179 273.707857 
L 125.746563 273.765745 
L 138.623075 273.565205 
L 145.061331 273.335722 
L 148.280459 272.916036 
L 151.499587 272.899497 
L 154.718716 272.379541 
L 157.937844 272.089068 
L 161.156972 271.345831 
L 164.3761 270.274908 
L 167.595228 269.56475 
L 170.814356 270.064032 
L 180.47174 269.740481 
L 183.690868 267.278185 
L 186.909996 266.672431 
L 190.129124 231.647254 
L 193.348253 224.335827 
L 196.567381 218.63492 
L 199.786509 210.532705 
L 203.005637 206.373059 
L 206.224765 200.900601 
L 212.663021 192.000363 
L 215.882149 188.667684 
L 219.101277 183.021563 
L 222.320405 181.162953 
L 225.539533 175.83935 
L 228.758661 174.452111 
L 231.97779 170.428914 
L 235.196918 169.724958 
L 238.416046 166.912235 
L 241.635174 166.223784 
L 244.854302 163.723241 
L 248.07343 160.578697 
L 251.292558 158.650829 
L 254.511686 156.964849 
L 257.730814 153.921608 
L 260.949942 154.04462 
L 264.16907 152.023718 
L 267.388199 152.254235 
L 270.607327 150.06794 
L 273.826455 150.413199 
L 277.045583 148.359218 
L 280.264711 149.06214 
L 283.483839 147.092924 
L 286.702967 147.142542 
L 289.922095 145.89072 
L 293.141223 147.586003 
L 296.360351 143.739571 
L 299.579479 144.299841 
L 302.798607 143.417053 
L 306.017736 143.95665 
L 309.236864 143.590716 
L 312.455992 142.975659 
L 315.67512 143.757144 
L 318.894248 145.947574 
L 322.113376 145.226045 
L 325.332504 145.314944 
L 328.551632 145.73463 
L 331.77076 145.732562 
L 334.989888 146.932699 
L 338.209016 147.80515 
L 341.428144 147.716251 
L 344.647273 147.906453 
L 347.866401 147.417509 
L 351.085529 147.411306 
L 354.304657 147.767936 
L 357.523785 146.474766 
L 360.742913 146.634991 
L 363.962041 145.553731 
L 367.181169 145.828697 
L 370.400297 147.214902 
L 376.838553 146.910991 
L 380.057681 146.024068 
L 383.27681 146.235979 
L 386.495938 145.650899 
L 389.715066 147.583936 
L 392.934194 146.088158 
L 396.153322 146.682541 
L 399.37245 146.391035 
L 402.591578 146.327979 
L 405.810706 147.365823 
L 409.029834 146.2029 
L 412.248962 147.389599 
L 415.46809 146.978182 
L 418.687218 148.855399 
L 421.906347 148.454319 
L 428.344603 148.387128 
L 431.563731 148.496701 
L 434.782859 149.372253 
L 438.001987 149.618276 
L 441.221115 151.116121 
L 444.440243 151.402459 
L 447.659371 151.567852 
L 450.878499 152.874461 
L 454.097627 153.537069 
L 457.316755 153.815136 
L 460.535884 154.893295 
L 463.755012 155.520757 
L 466.97414 155.95905 
L 470.193268 155.5466 
L 473.412396 156.039679 
L 476.631524 156.209207 
L 479.850652 157.366962 
L 483.06978 157.904491 
L 486.288908 159.489167 
L 489.508036 160.139371 
L 492.727164 161.717845 
L 495.946292 161.757126 
L 499.165421 162.321531 
L 502.384549 163.599196 
L 505.603677 164.286613 
L 508.822805 164.816906 
L 512.041933 167.363966 
L 515.261061 168.146484 
L 518.480189 168.761541 
L 521.699317 169.613318 
L 524.918445 171.283792 
L 528.137573 172.226535 
L 534.575829 175.508563 
L 537.794958 176.899935 
L 541.014086 178.417421 
L 544.233214 179.243355 
L 547.452342 178.920837 
L 550.67147 178.426724 
L 553.890598 178.115578 
L 557.109726 174.955528 
L 560.328854 168.725361 
L 563.547982 149.347444 
L 566.76711 50.742935 
L 569.986238 117.007845 
L 573.205366 143.026311 
L 576.424495 148.073914 
L 579.643623 150.987941 
L 582.862751 152.59846 
L 586.081879 153.376844 
L 592.520135 155.577611 
L 595.739263 156.694017 
L 598.958391 157.574738 
L 602.177519 158.020266 
L 605.396647 159.313437 
L 608.615775 159.872674 
L 611.834903 160.040135 
L 615.054032 162.225396 
L 624.711416 163.541308 
L 627.930544 164.915108 
L 631.149672 165.599424 
L 634.3688 166.872954 
L 637.587928 167.414618 
L 640.807056 168.661271 
L 644.026184 169.52752 
L 647.245312 170.785544 
L 650.46444 171.893681 
L 653.683569 172.79921 
L 656.902697 174.079976 
L 660.121825 175.499259 
L 663.340953 175.558181 
L 666.560081 177.171801 
L 669.779209 179.069692 
L 672.998337 179.372568 
L 676.217465 180.633694 
L 679.436593 182.387899 
L 682.655721 183.429878 
L 685.874849 183.086686 
L 689.093977 185.407364 
L 692.313106 186.31186 
L 695.532234 187.400356 
L 698.751362 189.126651 
L 701.97049 190.173798 
L 705.189618 191.451463 
L 708.408746 192.38697 
L 711.627874 193.606747 
L 714.847002 194.692142 
L 718.06613 196.33574 
L 721.285258 197.366348 
L 724.504386 197.986574 
L 727.723514 199.609498 
L 730.942643 200.397184 
L 734.161771 201.458804 
L 737.380899 203.031076 
L 740.600027 203.693684 
L 743.819155 205.147079 
L 747.038283 205.988519 
L 750.257411 206.531216 
L 756.695667 209.187849 
L 759.914795 210.257739 
L 763.133923 211.061965 
L 766.353051 212.110146 
L 769.57218 213.629699 
L 772.791308 213.812665 
L 776.010436 215.545162 
L 779.229564 215.766376 
L 782.448692 217.567098 
L 785.66782 218.337212 
L 788.886948 219.324404 
L 792.106076 220.10899 
L 795.325204 221.169575 
L 798.544332 221.547913 
L 811.420845 225.417088 
L 814.639973 225.630032 
L 817.859101 226.366033 
L 821.078229 227.665406 
L 827.516485 228.157451 
L 830.735613 228.955475 
L 833.954741 229.499206 
L 837.173869 229.821723 
L 840.392997 230.306533 
L 843.612126 230.919523 
L 846.831254 230.6735 
L 850.050382 231.397097 
L 853.26951 231.167613 
L 856.488638 231.301995 
L 859.707766 230.8575 
L 862.926894 231.193456 
L 866.146022 231.19449 
L 869.36515 230.881276 
L 875.803406 229.982982 
L 879.022534 229.897184 
L 882.241663 229.407206 
L 885.460791 228.286665 
L 888.679919 227.016236 
L 891.899047 225.929807 
L 895.118175 224.462974 
L 898.337303 223.287646 
L 901.556431 221.505531 
L 904.775559 220.436676 
L 907.994687 218.647324 
L 911.213815 216.555097 
L 914.432943 215.424218 
L 917.652071 213.487047 
L 920.8712 210.705335 
L 924.090328 208.825017 
L 927.309456 206.609778 
L 930.528584 204.14955 
L 933.747712 200.099476 
L 940.185968 196.366751 
L 943.405096 194.824457 
L 946.624224 195.877807 
L 949.843352 204.554764 
L 949.843352 204.554764 
" style="fill:none;stroke:#434348;stroke-linecap:square;"/>
   </g>
   <g id="line2d_9">
    <path clip-path="url(#p20e5a7e0f7)" d="M 83.897898 273.99006 
L 87.117026 264.164649 
L 90.336154 268.541907 
L 93.555282 271.162185 
L 96.77441 272.600173 
L 103.212666 273.377396 
L 109.650922 273.729298 
L 112.87005 273.795121 
L 122.527435 273.691323 
L 125.746563 273.767273 
L 128.965691 273.673601 
L 132.184819 273.73183 
L 135.403947 273.590056 
L 138.623075 273.64069 
L 145.061331 273.288787 
L 148.280459 272.881189 
L 151.499587 272.878657 
L 154.718716 272.303968 
L 157.937844 272.055864 
L 161.156972 271.309022 
L 164.3761 270.258379 
L 167.595228 269.422928 
L 170.814356 269.964705 
L 174.033484 269.86597 
L 177.252612 270.035592 
L 180.47174 269.739386 
L 183.690868 267.119108 
L 186.909996 266.468469 
L 190.129124 229.452924 
L 193.348253 222.01741 
L 196.567381 215.204687 
L 199.786509 206.386881 
L 203.005637 201.341263 
L 206.224765 196.027288 
L 209.443893 192.024718 
L 212.663021 185.753771 
L 215.882149 183.55375 
L 219.101277 177.376476 
L 222.320405 174.842274 
L 225.539533 169.743491 
L 228.758661 167.624484 
L 231.97779 162.042152 
L 235.196918 162.011772 
L 238.416046 159.657319 
L 241.635174 158.28009 
L 248.07343 152.723075 
L 251.292558 149.295194 
L 254.511686 149.733173 
L 257.730814 146.173645 
L 260.949942 145.74073 
L 264.16907 143.895142 
L 267.388199 143.978688 
L 270.607327 143.168553 
L 273.826455 143.069818 
L 277.045583 140.196373 
L 280.264711 141.135622 
L 283.483839 138.419141 
L 286.702967 140.543212 
L 289.922095 140.239411 
L 293.141223 139.133072 
L 296.360351 136.003928 
L 299.579479 138.239392 
L 302.798607 135.854559 
L 306.017736 137.497613 
L 312.455992 136.943177 
L 315.67512 136.859632 
L 318.894248 138.330532 
L 322.113376 139.229275 
L 325.332504 139.155857 
L 328.551632 140.497642 
L 331.77076 140.143208 
L 334.989888 140.259665 
L 338.209016 143.548304 
L 341.428144 141.728033 
L 344.647273 141.560943 
L 347.866401 142.495129 
L 351.085529 142.234367 
L 354.304657 140.090043 
L 357.523785 141.262206 
L 360.742913 142.23943 
L 363.962041 140.391311 
L 367.181169 140.887519 
L 370.400297 141.943225 
L 373.619425 141.130559 
L 376.838553 142.181202 
L 380.057681 140.391311 
L 383.27681 142.029302 
L 386.495938 141.447018 
L 389.715066 142.558421 
L 392.934194 141.502714 
L 396.153322 142.672346 
L 399.37245 142.619181 
L 402.591578 141.978668 
L 405.810706 143.302732 
L 409.029834 142.85969 
L 412.248962 144.128056 
L 415.46809 143.474885 
L 418.687218 144.915405 
L 421.906347 143.735647 
L 425.125475 144.976165 
L 428.344603 144.60401 
L 431.563731 145.259713 
L 434.782859 145.692628 
L 438.001987 145.576171 
L 441.221115 146.606561 
L 444.440243 147.062261 
L 447.659371 147.305302 
L 454.097627 149.781275 
L 457.316755 150.454699 
L 460.535884 149.98634 
L 463.755012 151.082553 
L 466.97414 152.454718 
L 470.193268 150.890146 
L 473.412396 152.672442 
L 476.631524 151.707876 
L 479.850652 153.388904 
L 483.06978 153.237004 
L 486.288908 154.773728 
L 489.508036 155.578799 
L 492.727164 157.897808 
L 495.946292 157.837048 
L 499.165421 157.510463 
L 502.384549 160.123146 
L 505.603677 159.887701 
L 508.822805 161.373791 
L 512.041933 161.854808 
L 515.261061 163.568749 
L 518.480189 164.837115 
L 521.699317 164.69281 
L 524.918445 167.427014 
L 528.137573 166.556119 
L 531.356701 169.419438 
L 534.575829 171.133378 
L 537.794958 171.589079 
L 541.014086 173.386564 
L 547.452342 174.054925 
L 550.67147 173.394159 
L 553.890598 173.376438 
L 557.109726 170.305522 
L 560.328854 162.672538 
L 563.547982 145.95339 
L 566.76711 51.927173 
L 569.986238 113.942957 
L 573.205366 135.963421 
L 576.424495 141.669805 
L 579.643623 145.593893 
L 586.081879 146.834411 
L 589.301007 147.358467 
L 592.520135 148.571137 
L 595.739263 148.56101 
L 598.958391 150.178747 
L 602.177519 150.12305 
L 605.396647 151.042046 
L 608.615775 150.88002 
L 611.834903 152.383831 
L 615.054032 152.642062 
L 618.27316 153.153459 
L 621.492288 154.239545 
L 627.930544 157.178814 
L 631.149672 157.439576 
L 634.3688 158.642119 
L 637.587928 159.29529 
L 640.807056 160.745937 
L 644.026184 160.26492 
L 647.245312 162.209242 
L 650.46444 163.697864 
L 653.683569 164.791545 
L 656.902697 166.320674 
L 660.121825 166.525739 
L 663.340953 168.548543 
L 666.560081 169.482729 
L 669.779209 171.540977 
L 672.998337 171.730852 
L 676.217465 173.062511 
L 679.436593 175.18405 
L 685.874849 175.778992 
L 689.093977 178.809401 
L 692.313106 179.991691 
L 695.532234 180.371441 
L 698.751362 182.771464 
L 701.97049 184.525912 
L 705.189618 186.966441 
L 708.408746 186.756313 
L 711.627874 188.168984 
L 718.06613 190.341157 
L 721.285258 192.586748 
L 724.504386 193.229792 
L 727.723514 194.865251 
L 730.942643 196.731092 
L 734.161771 198.262752 
L 737.380899 198.769086 
L 740.600027 200.037453 
L 743.819155 201.589366 
L 747.038283 203.683057 
L 750.257411 204.214708 
L 753.476539 207.070431 
L 756.695667 207.809679 
L 759.914795 208.346393 
L 766.353051 212.690738 
L 769.57218 213.040109 
L 772.791308 214.394552 
L 776.010436 215.065445 
L 779.229564 216.308495 
L 785.66782 219.247763 
L 788.886948 220.657903 
L 795.325204 223.675654 
L 798.544332 224.118696 
L 801.76346 226.027575 
L 808.201717 227.802276 
L 811.420845 229.189631 
L 814.639973 229.964322 
L 817.859101 230.480782 
L 821.078229 231.913707 
L 824.297357 232.969414 
L 827.516485 233.111187 
L 830.735613 233.807396 
L 833.954741 234.971965 
L 837.173869 235.812479 
L 843.612126 237.771991 
L 850.050382 239.283398 
L 856.488638 241.154302 
L 859.707766 241.422659 
L 862.926894 242.253047 
L 866.146022 242.521404 
L 869.36515 243.604959 
L 872.584278 244.430283 
L 875.803406 245.134087 
L 879.022534 245.384723 
L 882.241663 245.959412 
L 888.679919 246.655621 
L 891.899047 247.57968 
L 895.118175 247.756897 
L 898.337303 248.653108 
L 904.775559 248.572095 
L 907.994687 249.205012 
L 911.213815 249.113872 
L 914.432943 250.015147 
L 917.652071 250.215149 
L 920.8712 250.653128 
L 924.090328 250.465784 
L 927.309456 250.536671 
L 930.528584 250.417682 
L 933.747712 250.541734 
L 936.96684 250.197427 
L 940.185968 250.592367 
L 943.405096 250.817686 
L 946.624224 252.346815 
L 949.843352 254.959498 
L 949.843352 254.959498 
" style="fill:none;stroke:#90ed7d;stroke-linecap:square;"/>
   </g>
   <g id="line2d_10">
    <path clip-path="url(#p20e5a7e0f7)" d="M 40.600625 273.99006 
L 993.140625 273.99006 
" style="fill:none;stroke:#dedede;stroke-linecap:square;stroke-width:2;"/>
   </g>
   <g id="text_15">
    <!-- Fastp: Insert Size Distribution -->
    <defs>
     <path d="M 9.8125 72.90625 
L 51.703125 72.90625 
L 51.703125 64.59375 
L 19.671875 64.59375 
L 19.671875 43.109375 
L 48.578125 43.109375 
L 48.578125 34.8125 
L 19.671875 34.8125 
L 19.671875 0 
L 9.8125 0 
z
" id="DejaVuSans-70"/>
     <path d="M 11.71875 12.40625 
L 22.015625 12.40625 
L 22.015625 0 
L 11.71875 0 
z
M 11.71875 51.703125 
L 22.015625 51.703125 
L 22.015625 39.3125 
L 11.71875 39.3125 
z
" id="DejaVuSans-58"/>
     <path d="M 53.515625 70.515625 
L 53.515625 60.890625 
Q 47.90625 63.578125 42.921875 64.890625 
Q 37.9375 66.21875 33.296875 66.21875 
Q 25.25 66.21875 20.875 63.09375 
Q 16.5 59.96875 16.5 54.203125 
Q 16.5 49.359375 19.40625 46.890625 
Q 22.3125 44.4375 30.421875 42.921875 
L 36.375 41.703125 
Q 47.40625 39.59375 52.65625 34.296875 
Q 57.90625 29 57.90625 20.125 
Q 57.90625 9.515625 50.796875 4.046875 
Q 43.703125 -1.421875 29.984375 -1.421875 
Q 24.8125 -1.421875 18.96875 -0.25 
Q 13.140625 0.921875 6.890625 3.21875 
L 6.890625 13.375 
Q 12.890625 10.015625 18.65625 8.296875 
Q 24.421875 6.59375 29.984375 6.59375 
Q 38.421875 6.59375 43.015625 9.90625 
Q 47.609375 13.234375 47.609375 19.390625 
Q 47.609375 24.75 44.3125 27.78125 
Q 41.015625 30.8125 33.5 32.328125 
L 27.484375 33.5 
Q 16.453125 35.6875 11.515625 40.375 
Q 6.59375 45.0625 6.59375 53.421875 
Q 6.59375 63.09375 13.40625 68.65625 
Q 20.21875 74.21875 32.171875 74.21875 
Q 37.3125 74.21875 42.625 73.28125 
Q 47.953125 72.359375 53.515625 70.515625 
z
" id="DejaVuSans-83"/>
     <path d="M 19.671875 64.796875 
L 19.671875 8.109375 
L 31.59375 8.109375 
Q 46.6875 8.109375 53.6875 14.9375 
Q 60.6875 21.78125 60.6875 36.53125 
Q 60.6875 51.171875 53.6875 57.984375 
Q 46.6875 64.796875 31.59375 64.796875 
z
M 9.8125 72.90625 
L 30.078125 72.90625 
Q 51.265625 72.90625 61.171875 64.09375 
Q 71.09375 55.28125 71.09375 36.53125 
Q 71.09375 17.671875 61.125 8.828125 
Q 51.171875 0 30.078125 0 
L 9.8125 0 
z
" id="DejaVuSans-68"/>
     <path d="M 48.6875 27.296875 
Q 48.6875 37.203125 44.609375 42.84375 
Q 40.53125 48.484375 33.40625 48.484375 
Q 26.265625 48.484375 22.1875 42.84375 
Q 18.109375 37.203125 18.109375 27.296875 
Q 18.109375 17.390625 22.1875 11.75 
Q 26.265625 6.109375 33.40625 6.109375 
Q 40.53125 6.109375 44.609375 11.75 
Q 48.6875 17.390625 48.6875 27.296875 
z
M 18.109375 46.390625 
Q 20.953125 51.265625 25.265625 53.625 
Q 29.59375 56 35.59375 56 
Q 45.5625 56 51.78125 48.09375 
Q 58.015625 40.1875 58.015625 27.296875 
Q 58.015625 14.40625 51.78125 6.484375 
Q 45.5625 -1.421875 35.59375 -1.421875 
Q 29.59375 -1.421875 25.265625 0.953125 
Q 20.953125 3.328125 18.109375 8.203125 
L 18.109375 0 
L 9.078125 0 
L 9.078125 75.984375 
L 18.109375 75.984375 
z
" id="DejaVuSans-98"/>
     <path d="M 8.5 21.578125 
L 8.5 54.6875 
L 17.484375 54.6875 
L 17.484375 21.921875 
Q 17.484375 14.15625 20.5 10.265625 
Q 23.53125 6.390625 29.59375 6.390625 
Q 36.859375 6.390625 41.078125 11.03125 
Q 45.3125 15.671875 45.3125 23.6875 
L 45.3125 54.6875 
L 54.296875 54.6875 
L 54.296875 0 
L 45.3125 0 
L 45.3125 8.40625 
Q 42.046875 3.421875 37.71875 1 
Q 33.40625 -1.421875 27.6875 -1.421875 
Q 18.265625 -1.421875 13.375 4.4375 
Q 8.5 10.296875 8.5 21.578125 
z
M 31.109375 56 
z
" id="DejaVuSans-117"/>
     <path d="M 30.609375 48.390625 
Q 23.390625 48.390625 19.1875 42.75 
Q 14.984375 37.109375 14.984375 27.296875 
Q 14.984375 17.484375 19.15625 11.84375 
Q 23.34375 6.203125 30.609375 6.203125 
Q 37.796875 6.203125 41.984375 11.859375 
Q 46.1875 17.53125 46.1875 27.296875 
Q 46.1875 37.015625 41.984375 42.703125 
Q 37.796875 48.390625 30.609375 48.390625 
z
M 30.609375 56 
Q 42.328125 56 49.015625 48.375 
Q 55.71875 40.765625 55.71875 27.296875 
Q 55.71875 13.875 49.015625 6.21875 
Q 42.328125 -1.421875 30.609375 -1.421875 
Q 18.84375 -1.421875 12.171875 6.21875 
Q 5.515625 13.875 5.515625 27.296875 
Q 5.515625 40.765625 12.171875 48.375 
Q 18.84375 56 30.609375 56 
z
" id="DejaVuSans-111"/>
    </defs>
    <g transform="translate(398.635625 19.3575)scale(0.16 -0.16)">
     <use xlink:href="#DejaVuSans-70"/>
     <use x="57.378906" xlink:href="#DejaVuSans-97"/>
     <use x="118.658203" xlink:href="#DejaVuSans-115"/>
     <use x="170.757812" xlink:href="#DejaVuSans-116"/>
     <use x="209.966797" xlink:href="#DejaVuSans-112"/>
     <use x="273.443359" xlink:href="#DejaVuSans-58"/>
     <use x="307.134766" xlink:href="#DejaVuSans-32"/>
     <use x="338.921875" xlink:href="#DejaVuSans-73"/>
     <use x="368.414062" xlink:href="#DejaVuSans-110"/>
     <use x="431.792969" xlink:href="#DejaVuSans-115"/>
     <use x="483.892578" xlink:href="#DejaVuSans-101"/>
     <use x="545.416016" xlink:href="#DejaVuSans-114"/>
     <use x="586.529297" xlink:href="#DejaVuSans-116"/>
     <use x="625.738281" xlink:href="#DejaVuSans-32"/>
     <use x="657.525391" xlink:href="#DejaVuSans-83"/>
     <use x="721.001953" xlink:href="#DejaVuSans-105"/>
     <use x="748.785156" xlink:href="#DejaVuSans-122"/>
     <use x="801.275391" xlink:href="#DejaVuSans-101"/>
     <use x="862.798828" xlink:href="#DejaVuSans-32"/>
     <use x="894.585938" xlink:href="#DejaVuSans-68"/>
     <use x="971.587891" xlink:href="#DejaVuSans-105"/>
     <use x="999.371094" xlink:href="#DejaVuSans-115"/>
     <use x="1051.470703" xlink:href="#DejaVuSans-116"/>
     <use x="1090.679688" xlink:href="#DejaVuSans-114"/>
     <use x="1131.792969" xlink:href="#DejaVuSans-105"/>
     <use x="1159.576172" xlink:href="#DejaVuSans-98"/>
     <use x="1223.052734" xlink:href="#DejaVuSans-117"/>
     <use x="1286.431641" xlink:href="#DejaVuSans-116"/>
     <use x="1325.640625" xlink:href="#DejaVuSans-105"/>
     <use x="1353.423828" xlink:href="#DejaVuSans-111"/>
     <use x="1414.605469" xlink:href="#DejaVuSans-110"/>
    </g>
   </g>
   <g id="legend_1">
    <g id="line2d_11">
     <path d="M 47.800625 315.455394 
L 63.800625 315.455394 
" style="fill:none;stroke:#7cb5ec;stroke-linecap:square;"/>
    </g>
    <g id="line2d_12"/>
    <g id="text_16">
     <!-- Sde-CMat_061-Ex1-7A-ssl.clmp.r1r2_fastp -->
     <defs>
      <path d="M 4.890625 31.390625 
L 31.203125 31.390625 
L 31.203125 23.390625 
L 4.890625 23.390625 
z
" id="DejaVuSans-45"/>
      <path d="M 64.40625 67.28125 
L 64.40625 56.890625 
Q 59.421875 61.53125 53.78125 63.8125 
Q 48.140625 66.109375 41.796875 66.109375 
Q 29.296875 66.109375 22.65625 58.46875 
Q 16.015625 50.828125 16.015625 36.375 
Q 16.015625 21.96875 22.65625 14.328125 
Q 29.296875 6.6875 41.796875 6.6875 
Q 48.140625 6.6875 53.78125 8.984375 
Q 59.421875 11.28125 64.40625 15.921875 
L 64.40625 5.609375 
Q 59.234375 2.09375 53.4375 0.328125 
Q 47.65625 -1.421875 41.21875 -1.421875 
Q 24.65625 -1.421875 15.125 8.703125 
Q 5.609375 18.84375 5.609375 36.375 
Q 5.609375 53.953125 15.125 64.078125 
Q 24.65625 74.21875 41.21875 74.21875 
Q 47.75 74.21875 53.53125 72.484375 
Q 59.328125 70.75 64.40625 67.28125 
z
" id="DejaVuSans-67"/>
      <path d="M 9.8125 72.90625 
L 24.515625 72.90625 
L 43.109375 23.296875 
L 61.8125 72.90625 
L 76.515625 72.90625 
L 76.515625 0 
L 66.890625 0 
L 66.890625 64.015625 
L 48.09375 14.015625 
L 38.1875 14.015625 
L 19.390625 64.015625 
L 19.390625 0 
L 9.8125 0 
z
" id="DejaVuSans-77"/>
      <path d="M 50.984375 -16.609375 
L 50.984375 -23.578125 
L -0.984375 -23.578125 
L -0.984375 -16.609375 
z
" id="DejaVuSans-95"/>
      <path d="M 9.8125 72.90625 
L 55.90625 72.90625 
L 55.90625 64.59375 
L 19.671875 64.59375 
L 19.671875 43.015625 
L 54.390625 43.015625 
L 54.390625 34.71875 
L 19.671875 34.71875 
L 19.671875 8.296875 
L 56.78125 8.296875 
L 56.78125 0 
L 9.8125 0 
z
" id="DejaVuSans-69"/>
      <path d="M 54.890625 54.6875 
L 35.109375 28.078125 
L 55.90625 0 
L 45.3125 0 
L 29.390625 21.484375 
L 13.484375 0 
L 2.875 0 
L 24.125 28.609375 
L 4.6875 54.6875 
L 15.28125 54.6875 
L 29.78125 35.203125 
L 44.28125 54.6875 
z
" id="DejaVuSans-120"/>
      <path d="M 8.203125 72.90625 
L 55.078125 72.90625 
L 55.078125 68.703125 
L 28.609375 0 
L 18.3125 0 
L 43.21875 64.59375 
L 8.203125 64.59375 
z
" id="DejaVuSans-55"/>
      <path d="M 34.1875 63.1875 
L 20.796875 26.90625 
L 47.609375 26.90625 
z
M 28.609375 72.90625 
L 39.796875 72.90625 
L 67.578125 0 
L 57.328125 0 
L 50.6875 18.703125 
L 17.828125 18.703125 
L 11.1875 0 
L 0.78125 0 
z
" id="DejaVuSans-65"/>
      <path d="M 9.421875 75.984375 
L 18.40625 75.984375 
L 18.40625 0 
L 9.421875 0 
z
" id="DejaVuSans-108"/>
      <path d="M 52 44.1875 
Q 55.375 50.25 60.0625 53.125 
Q 64.75 56 71.09375 56 
Q 79.640625 56 84.28125 50.015625 
Q 88.921875 44.046875 88.921875 33.015625 
L 88.921875 0 
L 79.890625 0 
L 79.890625 32.71875 
Q 79.890625 40.578125 77.09375 44.375 
Q 74.3125 48.1875 68.609375 48.1875 
Q 61.625 48.1875 57.5625 43.546875 
Q 53.515625 38.921875 53.515625 30.90625 
L 53.515625 0 
L 44.484375 0 
L 44.484375 32.71875 
Q 44.484375 40.625 41.703125 44.40625 
Q 38.921875 48.1875 33.109375 48.1875 
Q 26.21875 48.1875 22.15625 43.53125 
Q 18.109375 38.875 18.109375 30.90625 
L 18.109375 0 
L 9.078125 0 
L 9.078125 54.6875 
L 18.109375 54.6875 
L 18.109375 46.1875 
Q 21.1875 51.21875 25.484375 53.609375 
Q 29.78125 56 35.6875 56 
Q 41.65625 56 45.828125 52.96875 
Q 50 49.953125 52 44.1875 
z
" id="DejaVuSans-109"/>
      <path d="M 37.109375 75.984375 
L 37.109375 68.5 
L 28.515625 68.5 
Q 23.6875 68.5 21.796875 66.546875 
Q 19.921875 64.59375 19.921875 59.515625 
L 19.921875 54.6875 
L 34.71875 54.6875 
L 34.71875 47.703125 
L 19.921875 47.703125 
L 19.921875 0 
L 10.890625 0 
L 10.890625 47.703125 
L 2.296875 47.703125 
L 2.296875 54.6875 
L 10.890625 54.6875 
L 10.890625 58.5 
Q 10.890625 67.625 15.140625 71.796875 
Q 19.390625 75.984375 28.609375 75.984375 
z
" id="DejaVuSans-102"/>
     </defs>
     <g transform="translate(70.200625 318.255394)scale(0.08 -0.08)">
      <use xlink:href="#DejaVuSans-83"/>
      <use x="63.476562" xlink:href="#DejaVuSans-100"/>
      <use x="126.953125" xlink:href="#DejaVuSans-101"/>
      <use x="188.476562" xlink:href="#DejaVuSans-45"/>
      <use x="224.560547" xlink:href="#DejaVuSans-67"/>
      <use x="294.384766" xlink:href="#DejaVuSans-77"/>
      <use x="380.664062" xlink:href="#DejaVuSans-97"/>
      <use x="441.943359" xlink:href="#DejaVuSans-116"/>
      <use x="481.152344" xlink:href="#DejaVuSans-95"/>
      <use x="531.152344" xlink:href="#DejaVuSans-48"/>
      <use x="594.775391" xlink:href="#DejaVuSans-54"/>
      <use x="658.398438" xlink:href="#DejaVuSans-49"/>
      <use x="722.021484" xlink:href="#DejaVuSans-45"/>
      <use x="758.105469" xlink:href="#DejaVuSans-69"/>
      <use x="821.289062" xlink:href="#DejaVuSans-120"/>
      <use x="880.46875" xlink:href="#DejaVuSans-49"/>
      <use x="944.091797" xlink:href="#DejaVuSans-45"/>
      <use x="980.175781" xlink:href="#DejaVuSans-55"/>
      <use x="1043.798828" xlink:href="#DejaVuSans-65"/>
      <use x="1112.175781" xlink:href="#DejaVuSans-45"/>
      <use x="1148.259766" xlink:href="#DejaVuSans-115"/>
      <use x="1200.359375" xlink:href="#DejaVuSans-115"/>
      <use x="1252.458984" xlink:href="#DejaVuSans-108"/>
      <use x="1280.242188" xlink:href="#DejaVuSans-46"/>
      <use x="1312.029297" xlink:href="#DejaVuSans-99"/>
      <use x="1367.009766" xlink:href="#DejaVuSans-108"/>
      <use x="1394.792969" xlink:href="#DejaVuSans-109"/>
      <use x="1492.205078" xlink:href="#DejaVuSans-112"/>
      <use x="1555.681641" xlink:href="#DejaVuSans-46"/>
      <use x="1587.46875" xlink:href="#DejaVuSans-114"/>
      <use x="1628.582031" xlink:href="#DejaVuSans-49"/>
      <use x="1692.205078" xlink:href="#DejaVuSans-114"/>
      <use x="1733.318359" xlink:href="#DejaVuSans-50"/>
      <use x="1796.941406" xlink:href="#DejaVuSans-95"/>
      <use x="1846.941406" xlink:href="#DejaVuSans-102"/>
      <use x="1882.146484" xlink:href="#DejaVuSans-97"/>
      <use x="1943.425781" xlink:href="#DejaVuSans-115"/>
      <use x="1995.525391" xlink:href="#DejaVuSans-116"/>
      <use x="2034.734375" xlink:href="#DejaVuSans-112"/>
     </g>
    </g>
    <g id="line2d_13">
     <path d="M 421.7425 315.455394 
L 437.7425 315.455394 
" style="fill:none;stroke:#434348;stroke-linecap:square;"/>
    </g>
    <g id="line2d_14"/>
    <g id="text_17">
     <!-- Sde-CMat_061-Ex1-8A-ssl.clmp.r1r2_fastp -->
     <g transform="translate(444.1425 318.255394)scale(0.08 -0.08)">
      <use xlink:href="#DejaVuSans-83"/>
      <use x="63.476562" xlink:href="#DejaVuSans-100"/>
      <use x="126.953125" xlink:href="#DejaVuSans-101"/>
      <use x="188.476562" xlink:href="#DejaVuSans-45"/>
      <use x="224.560547" xlink:href="#DejaVuSans-67"/>
      <use x="294.384766" xlink:href="#DejaVuSans-77"/>
      <use x="380.664062" xlink:href="#DejaVuSans-97"/>
      <use x="441.943359" xlink:href="#DejaVuSans-116"/>
      <use x="481.152344" xlink:href="#DejaVuSans-95"/>
      <use x="531.152344" xlink:href="#DejaVuSans-48"/>
      <use x="594.775391" xlink:href="#DejaVuSans-54"/>
      <use x="658.398438" xlink:href="#DejaVuSans-49"/>
      <use x="722.021484" xlink:href="#DejaVuSans-45"/>
      <use x="758.105469" xlink:href="#DejaVuSans-69"/>
      <use x="821.289062" xlink:href="#DejaVuSans-120"/>
      <use x="880.46875" xlink:href="#DejaVuSans-49"/>
      <use x="944.091797" xlink:href="#DejaVuSans-45"/>
      <use x="980.175781" xlink:href="#DejaVuSans-56"/>
      <use x="1043.798828" xlink:href="#DejaVuSans-65"/>
      <use x="1112.175781" xlink:href="#DejaVuSans-45"/>
      <use x="1148.259766" xlink:href="#DejaVuSans-115"/>
      <use x="1200.359375" xlink:href="#DejaVuSans-115"/>
      <use x="1252.458984" xlink:href="#DejaVuSans-108"/>
      <use x="1280.242188" xlink:href="#DejaVuSans-46"/>
      <use x="1312.029297" xlink:href="#DejaVuSans-99"/>
      <use x="1367.009766" xlink:href="#DejaVuSans-108"/>
      <use x="1394.792969" xlink:href="#DejaVuSans-109"/>
      <use x="1492.205078" xlink:href="#DejaVuSans-112"/>
      <use x="1555.681641" xlink:href="#DejaVuSans-46"/>
      <use x="1587.46875" xlink:href="#DejaVuSans-114"/>
      <use x="1628.582031" xlink:href="#DejaVuSans-49"/>
      <use x="1692.205078" xlink:href="#DejaVuSans-114"/>
      <use x="1733.318359" xlink:href="#DejaVuSans-50"/>
      <use x="1796.941406" xlink:href="#DejaVuSans-95"/>
      <use x="1846.941406" xlink:href="#DejaVuSans-102"/>
      <use x="1882.146484" xlink:href="#DejaVuSans-97"/>
      <use x="1943.425781" xlink:href="#DejaVuSans-115"/>
      <use x="1995.525391" xlink:href="#DejaVuSans-116"/>
      <use x="2034.734375" xlink:href="#DejaVuSans-112"/>
     </g>
    </g>
    <g id="line2d_15">
     <path d="M 795.684375 315.455394 
L 811.684375 315.455394 
" style="fill:none;stroke:#90ed7d;stroke-linecap:square;"/>
    </g>
    <g id="line2d_16"/>
    <g id="text_18">
     <!-- Sde-CMat_061-Ex1-9A-ssl.clmp.r1r2_fastp -->
     <defs>
      <path d="M 10.984375 1.515625 
L 10.984375 10.5 
Q 14.703125 8.734375 18.5 7.8125 
Q 22.3125 6.890625 25.984375 6.890625 
Q 35.75 6.890625 40.890625 13.453125 
Q 46.046875 20.015625 46.78125 33.40625 
Q 43.953125 29.203125 39.59375 26.953125 
Q 35.25 24.703125 29.984375 24.703125 
Q 19.046875 24.703125 12.671875 31.3125 
Q 6.296875 37.9375 6.296875 49.421875 
Q 6.296875 60.640625 12.9375 67.421875 
Q 19.578125 74.21875 30.609375 74.21875 
Q 43.265625 74.21875 49.921875 64.515625 
Q 56.59375 54.828125 56.59375 36.375 
Q 56.59375 19.140625 48.40625 8.859375 
Q 40.234375 -1.421875 26.421875 -1.421875 
Q 22.703125 -1.421875 18.890625 -0.6875 
Q 15.09375 0.046875 10.984375 1.515625 
z
M 30.609375 32.421875 
Q 37.25 32.421875 41.125 36.953125 
Q 45.015625 41.5 45.015625 49.421875 
Q 45.015625 57.28125 41.125 61.84375 
Q 37.25 66.40625 30.609375 66.40625 
Q 23.96875 66.40625 20.09375 61.84375 
Q 16.21875 57.28125 16.21875 49.421875 
Q 16.21875 41.5 20.09375 36.953125 
Q 23.96875 32.421875 30.609375 32.421875 
z
" id="DejaVuSans-57"/>
     </defs>
     <g transform="translate(818.084375 318.255394)scale(0.08 -0.08)">
      <use xlink:href="#DejaVuSans-83"/>
      <use x="63.476562" xlink:href="#DejaVuSans-100"/>
      <use x="126.953125" xlink:href="#DejaVuSans-101"/>
      <use x="188.476562" xlink:href="#DejaVuSans-45"/>
      <use x="224.560547" xlink:href="#DejaVuSans-67"/>
      <use x="294.384766" xlink:href="#DejaVuSans-77"/>
      <use x="380.664062" xlink:href="#DejaVuSans-97"/>
      <use x="441.943359" xlink:href="#DejaVuSans-116"/>
      <use x="481.152344" xlink:href="#DejaVuSans-95"/>
      <use x="531.152344" xlink:href="#DejaVuSans-48"/>
      <use x="594.775391" xlink:href="#DejaVuSans-54"/>
      <use x="658.398438" xlink:href="#DejaVuSans-49"/>
      <use x="722.021484" xlink:href="#DejaVuSans-45"/>
      <use x="758.105469" xlink:href="#DejaVuSans-69"/>
      <use x="821.289062" xlink:href="#DejaVuSans-120"/>
      <use x="880.46875" xlink:href="#DejaVuSans-49"/>
      <use x="944.091797" xlink:href="#DejaVuSans-45"/>
      <use x="980.175781" xlink:href="#DejaVuSans-57"/>
      <use x="1043.798828" xlink:href="#DejaVuSans-65"/>
      <use x="1112.175781" xlink:href="#DejaVuSans-45"/>
      <use x="1148.259766" xlink:href="#DejaVuSans-115"/>
      <use x="1200.359375" xlink:href="#DejaVuSans-115"/>
      <use x="1252.458984" xlink:href="#DejaVuSans-108"/>
      <use x="1280.242188" xlink:href="#DejaVuSans-46"/>
      <use x="1312.029297" xlink:href="#DejaVuSans-99"/>
      <use x="1367.009766" xlink:href="#DejaVuSans-108"/>
      <use x="1394.792969" xlink:href="#DejaVuSans-109"/>
      <use x="1492.205078" xlink:href="#DejaVuSans-112"/>
      <use x="1555.681641" xlink:href="#DejaVuSans-46"/>
      <use x="1587.46875" xlink:href="#DejaVuSans-114"/>
      <use x="1628.582031" xlink:href="#DejaVuSans-49"/>
      <use x="1692.205078" xlink:href="#DejaVuSans-114"/>
      <use x="1733.318359" xlink:href="#DejaVuSans-50"/>
      <use x="1796.941406" xlink:href="#DejaVuSans-95"/>
      <use x="1846.941406" xlink:href="#DejaVuSans-102"/>
      <use x="1882.146484" xlink:href="#DejaVuSans-97"/>
      <use x="1943.425781" xlink:href="#DejaVuSans-115"/>
      <use x="1995.525391" xlink:href="#DejaVuSans-116"/>
      <use x="2034.734375" xlink:href="#DejaVuSans-112"/>
     </g>
    </g>
   </g>
  </g>
 </g>
 <defs>
  <clipPath id="p20e5a7e0f7">
   <rect height="242.5072" width="952.54" x="40.600625" y="31.48286"/>
  </clipPath>
 </defs>
</svg>
