<?xml version="1.0" encoding="utf-8" standalone="no"?>
<!DOCTYPE svg PUBLIC "-//W3C//DTD SVG 1.1//EN"
  "http://www.w3.org/Graphics/SVG/1.1/DTD/svg11.dtd">
<!-- Created with matplotlib (https://matplotlib.org/) -->
<svg height="330.541644pt" version="1.1" viewBox="0 0 1000.298125 330.541644" width="1000.298125pt" xmlns="http://www.w3.org/2000/svg" xmlns:xlink="http://www.w3.org/1999/xlink">
 <defs>
  <style type="text/css">
*{stroke-linecap:butt;stroke-linejoin:round;}
  </style>
 </defs>
 <g id="figure_1">
  <g id="axes_1">
   <g id="patch_1">
    <path d="M 32.968125 273.99006 
L 985.463125 273.99006 
L 985.463125 31.48286 
L 32.968125 31.48286 
z
" style="fill:#ffffff;"/>
   </g>
   <g id="matplotlib.axis_1">
    <g id="xtick_1">
     <g id="text_1">
      <!-- 0 -->
      <defs>
       <path d="M 31.78125 66.40625 
Q 24.171875 66.40625 20.328125 58.90625 
Q 16.5 51.421875 16.5 36.375 
Q 16.5 21.390625 20.328125 13.890625 
Q 24.171875 6.390625 31.78125 6.390625 
Q 39.453125 6.390625 43.28125 13.890625 
Q 47.125 21.390625 47.125 36.375 
Q 47.125 51.421875 43.28125 58.90625 
Q 39.453125 66.40625 31.78125 66.40625 
z
M 31.78125 74.21875 
Q 44.046875 74.21875 50.515625 64.515625 
Q 56.984375 54.828125 56.984375 36.375 
Q 56.984375 17.96875 50.515625 8.265625 
Q 44.046875 -1.421875 31.78125 -1.421875 
Q 19.53125 -1.421875 13.0625 8.265625 
Q 6.59375 17.96875 6.59375 36.375 
Q 6.59375 54.828125 13.0625 64.515625 
Q 19.53125 74.21875 31.78125 74.21875 
z
" id="DejaVuSans-48"/>
      </defs>
      <g transform="translate(30.423125 287.06881)scale(0.08 -0.08)">
       <use xlink:href="#DejaVuSans-48"/>
      </g>
     </g>
    </g>
    <g id="xtick_2">
     <g id="text_2">
      <!-- 20 -->
      <defs>
       <path d="M 19.1875 8.296875 
L 53.609375 8.296875 
L 53.609375 0 
L 7.328125 0 
L 7.328125 8.296875 
Q 12.9375 14.109375 22.625 23.890625 
Q 32.328125 33.6875 34.8125 36.53125 
Q 39.546875 41.84375 41.421875 45.53125 
Q 43.3125 49.21875 43.3125 52.78125 
Q 43.3125 58.59375 39.234375 62.25 
Q 35.15625 65.921875 28.609375 65.921875 
Q 23.96875 65.921875 18.8125 64.3125 
Q 13.671875 62.703125 7.8125 59.421875 
L 7.8125 69.390625 
Q 13.765625 71.78125 18.9375 73 
Q 24.125 74.21875 28.421875 74.21875 
Q 39.75 74.21875 46.484375 68.546875 
Q 53.21875 62.890625 53.21875 53.421875 
Q 53.21875 48.921875 51.53125 44.890625 
Q 49.859375 40.875 45.40625 35.40625 
Q 44.1875 33.984375 37.640625 27.21875 
Q 31.109375 20.453125 19.1875 8.296875 
z
" id="DejaVuSans-50"/>
      </defs>
      <g transform="translate(218.377125 287.06881)scale(0.08 -0.08)">
       <use xlink:href="#DejaVuSans-50"/>
       <use x="63.623047" xlink:href="#DejaVuSans-48"/>
      </g>
     </g>
    </g>
    <g id="xtick_3">
     <g id="text_3">
      <!-- 40 -->
      <defs>
       <path d="M 37.796875 64.3125 
L 12.890625 25.390625 
L 37.796875 25.390625 
z
M 35.203125 72.90625 
L 47.609375 72.90625 
L 47.609375 25.390625 
L 58.015625 25.390625 
L 58.015625 17.1875 
L 47.609375 17.1875 
L 47.609375 0 
L 37.796875 0 
L 37.796875 17.1875 
L 4.890625 17.1875 
L 4.890625 26.703125 
z
" id="DejaVuSans-52"/>
      </defs>
      <g transform="translate(408.876125 287.06881)scale(0.08 -0.08)">
       <use xlink:href="#DejaVuSans-52"/>
       <use x="63.623047" xlink:href="#DejaVuSans-48"/>
      </g>
     </g>
    </g>
    <g id="xtick_4">
     <g id="text_4">
      <!-- 60 -->
      <defs>
       <path d="M 33.015625 40.375 
Q 26.375 40.375 22.484375 35.828125 
Q 18.609375 31.296875 18.609375 23.390625 
Q 18.609375 15.53125 22.484375 10.953125 
Q 26.375 6.390625 33.015625 6.390625 
Q 39.65625 6.390625 43.53125 10.953125 
Q 47.40625 15.53125 47.40625 23.390625 
Q 47.40625 31.296875 43.53125 35.828125 
Q 39.65625 40.375 33.015625 40.375 
z
M 52.59375 71.296875 
L 52.59375 62.3125 
Q 48.875 64.0625 45.09375 64.984375 
Q 41.3125 65.921875 37.59375 65.921875 
Q 27.828125 65.921875 22.671875 59.328125 
Q 17.53125 52.734375 16.796875 39.40625 
Q 19.671875 43.65625 24.015625 45.921875 
Q 28.375 48.1875 33.59375 48.1875 
Q 44.578125 48.1875 50.953125 41.515625 
Q 57.328125 34.859375 57.328125 23.390625 
Q 57.328125 12.15625 50.6875 5.359375 
Q 44.046875 -1.421875 33.015625 -1.421875 
Q 20.359375 -1.421875 13.671875 8.265625 
Q 6.984375 17.96875 6.984375 36.375 
Q 6.984375 53.65625 15.1875 63.9375 
Q 23.390625 74.21875 37.203125 74.21875 
Q 40.921875 74.21875 44.703125 73.484375 
Q 48.484375 72.75 52.59375 71.296875 
z
" id="DejaVuSans-54"/>
      </defs>
      <g transform="translate(599.375125 287.06881)scale(0.08 -0.08)">
       <use xlink:href="#DejaVuSans-54"/>
       <use x="63.623047" xlink:href="#DejaVuSans-48"/>
      </g>
     </g>
    </g>
    <g id="xtick_5">
     <g id="text_5">
      <!-- 80 -->
      <defs>
       <path d="M 31.78125 34.625 
Q 24.75 34.625 20.71875 30.859375 
Q 16.703125 27.09375 16.703125 20.515625 
Q 16.703125 13.921875 20.71875 10.15625 
Q 24.75 6.390625 31.78125 6.390625 
Q 38.8125 6.390625 42.859375 10.171875 
Q 46.921875 13.96875 46.921875 20.515625 
Q 46.921875 27.09375 42.890625 30.859375 
Q 38.875 34.625 31.78125 34.625 
z
M 21.921875 38.8125 
Q 15.578125 40.375 12.03125 44.71875 
Q 8.5 49.078125 8.5 55.328125 
Q 8.5 64.0625 14.71875 69.140625 
Q 20.953125 74.21875 31.78125 74.21875 
Q 42.671875 74.21875 48.875 69.140625 
Q 55.078125 64.0625 55.078125 55.328125 
Q 55.078125 49.078125 51.53125 44.71875 
Q 48 40.375 41.703125 38.8125 
Q 48.828125 37.15625 52.796875 32.3125 
Q 56.78125 27.484375 56.78125 20.515625 
Q 56.78125 9.90625 50.3125 4.234375 
Q 43.84375 -1.421875 31.78125 -1.421875 
Q 19.734375 -1.421875 13.25 4.234375 
Q 6.78125 9.90625 6.78125 20.515625 
Q 6.78125 27.484375 10.78125 32.3125 
Q 14.796875 37.15625 21.921875 38.8125 
z
M 18.3125 54.390625 
Q 18.3125 48.734375 21.84375 45.5625 
Q 25.390625 42.390625 31.78125 42.390625 
Q 38.140625 42.390625 41.71875 45.5625 
Q 45.3125 48.734375 45.3125 54.390625 
Q 45.3125 60.0625 41.71875 63.234375 
Q 38.140625 66.40625 31.78125 66.40625 
Q 25.390625 66.40625 21.84375 63.234375 
Q 18.3125 60.0625 18.3125 54.390625 
z
" id="DejaVuSans-56"/>
      </defs>
      <g transform="translate(789.874125 287.06881)scale(0.08 -0.08)">
       <use xlink:href="#DejaVuSans-56"/>
       <use x="63.623047" xlink:href="#DejaVuSans-48"/>
      </g>
     </g>
    </g>
    <g id="xtick_6">
     <g id="text_6">
      <!-- 100 -->
      <defs>
       <path d="M 12.40625 8.296875 
L 28.515625 8.296875 
L 28.515625 63.921875 
L 10.984375 60.40625 
L 10.984375 69.390625 
L 28.421875 72.90625 
L 38.28125 72.90625 
L 38.28125 8.296875 
L 54.390625 8.296875 
L 54.390625 0 
L 12.40625 0 
z
" id="DejaVuSans-49"/>
      </defs>
      <g transform="translate(977.828125 287.06881)scale(0.08 -0.08)">
       <use xlink:href="#DejaVuSans-49"/>
       <use x="63.623047" xlink:href="#DejaVuSans-48"/>
       <use x="127.246094" xlink:href="#DejaVuSans-48"/>
      </g>
     </g>
    </g>
    <g id="text_7">
     <!-- % GC -->
     <defs>
      <path d="M 72.703125 32.078125 
Q 68.453125 32.078125 66.03125 28.46875 
Q 63.625 24.859375 63.625 18.40625 
Q 63.625 12.0625 66.03125 8.421875 
Q 68.453125 4.78125 72.703125 4.78125 
Q 76.859375 4.78125 79.265625 8.421875 
Q 81.6875 12.0625 81.6875 18.40625 
Q 81.6875 24.8125 79.265625 28.4375 
Q 76.859375 32.078125 72.703125 32.078125 
z
M 72.703125 38.28125 
Q 80.421875 38.28125 84.953125 32.90625 
Q 89.5 27.546875 89.5 18.40625 
Q 89.5 9.28125 84.9375 3.921875 
Q 80.375 -1.421875 72.703125 -1.421875 
Q 64.890625 -1.421875 60.34375 3.921875 
Q 55.8125 9.28125 55.8125 18.40625 
Q 55.8125 27.59375 60.375 32.9375 
Q 64.9375 38.28125 72.703125 38.28125 
z
M 22.3125 68.015625 
Q 18.109375 68.015625 15.6875 64.375 
Q 13.28125 60.75 13.28125 54.390625 
Q 13.28125 47.953125 15.671875 44.328125 
Q 18.0625 40.71875 22.3125 40.71875 
Q 26.5625 40.71875 28.96875 44.328125 
Q 31.390625 47.953125 31.390625 54.390625 
Q 31.390625 60.6875 28.953125 64.34375 
Q 26.515625 68.015625 22.3125 68.015625 
z
M 66.40625 74.21875 
L 74.21875 74.21875 
L 28.609375 -1.421875 
L 20.796875 -1.421875 
z
M 22.3125 74.21875 
Q 30.03125 74.21875 34.609375 68.875 
Q 39.203125 63.53125 39.203125 54.390625 
Q 39.203125 45.171875 34.640625 39.84375 
Q 30.078125 34.515625 22.3125 34.515625 
Q 14.546875 34.515625 10.03125 39.859375 
Q 5.515625 45.21875 5.515625 54.390625 
Q 5.515625 63.484375 10.046875 68.84375 
Q 14.59375 74.21875 22.3125 74.21875 
z
" id="DejaVuSans-37"/>
      <path id="DejaVuSans-32"/>
      <path d="M 59.515625 10.40625 
L 59.515625 29.984375 
L 43.40625 29.984375 
L 43.40625 38.09375 
L 69.28125 38.09375 
L 69.28125 6.78125 
Q 63.578125 2.734375 56.6875 0.65625 
Q 49.8125 -1.421875 42 -1.421875 
Q 24.90625 -1.421875 15.25 8.5625 
Q 5.609375 18.5625 5.609375 36.375 
Q 5.609375 54.25 15.25 64.234375 
Q 24.90625 74.21875 42 74.21875 
Q 49.125 74.21875 55.546875 72.453125 
Q 61.96875 70.703125 67.390625 67.28125 
L 67.390625 56.78125 
Q 61.921875 61.421875 55.765625 63.765625 
Q 49.609375 66.109375 42.828125 66.109375 
Q 29.4375 66.109375 22.71875 58.640625 
Q 16.015625 51.171875 16.015625 36.375 
Q 16.015625 21.625 22.71875 14.15625 
Q 29.4375 6.6875 42.828125 6.6875 
Q 48.046875 6.6875 52.140625 7.59375 
Q 56.25 8.5 59.515625 10.40625 
z
" id="DejaVuSans-71"/>
      <path d="M 64.40625 67.28125 
L 64.40625 56.890625 
Q 59.421875 61.53125 53.78125 63.8125 
Q 48.140625 66.109375 41.796875 66.109375 
Q 29.296875 66.109375 22.65625 58.46875 
Q 16.015625 50.828125 16.015625 36.375 
Q 16.015625 21.96875 22.65625 14.328125 
Q 29.296875 6.6875 41.796875 6.6875 
Q 48.140625 6.6875 53.78125 8.984375 
Q 59.421875 11.28125 64.40625 15.921875 
L 64.40625 5.609375 
Q 59.234375 2.09375 53.4375 0.328125 
Q 47.65625 -1.421875 41.21875 -1.421875 
Q 24.65625 -1.421875 15.125 8.703125 
Q 5.609375 18.84375 5.609375 36.375 
Q 5.609375 53.953125 15.125 64.078125 
Q 24.65625 74.21875 41.21875 74.21875 
Q 47.75 74.21875 53.53125 72.484375 
Q 59.328125 70.75 64.40625 67.28125 
z
" id="DejaVuSans-67"/>
     </defs>
     <g transform="translate(495.510156 300.330997)scale(0.1 -0.1)">
      <use xlink:href="#DejaVuSans-37"/>
      <use x="95.019531" xlink:href="#DejaVuSans-32"/>
      <use x="126.806641" xlink:href="#DejaVuSans-71"/>
      <use x="204.296875" xlink:href="#DejaVuSans-67"/>
     </g>
    </g>
   </g>
   <g id="matplotlib.axis_2">
    <g id="ytick_1">
     <g id="line2d_1">
      <path clip-path="url(#p5f2399bd29)" d="M 32.968125 273.99006 
L 985.463125 273.99006 
" style="fill:none;stroke:#dedede;stroke-linecap:square;"/>
     </g>
     <g id="text_8">
      <!-- 0 -->
      <g transform="translate(20.878125 277.029435)scale(0.08 -0.08)">
       <use xlink:href="#DejaVuSans-48"/>
      </g>
     </g>
    </g>
    <g id="ytick_2">
     <g id="line2d_2">
      <path clip-path="url(#p5f2399bd29)" d="M 32.968125 224.63078 
L 985.463125 224.63078 
" style="fill:none;stroke:#dedede;stroke-linecap:square;"/>
     </g>
     <g id="text_9">
      <!-- 1 -->
      <g transform="translate(20.878125 227.670155)scale(0.08 -0.08)">
       <use xlink:href="#DejaVuSans-49"/>
      </g>
     </g>
    </g>
    <g id="ytick_3">
     <g id="line2d_3">
      <path clip-path="url(#p5f2399bd29)" d="M 32.968125 175.271499 
L 985.463125 175.271499 
" style="fill:none;stroke:#dedede;stroke-linecap:square;"/>
     </g>
     <g id="text_10">
      <!-- 2 -->
      <g transform="translate(20.878125 178.310874)scale(0.08 -0.08)">
       <use xlink:href="#DejaVuSans-50"/>
      </g>
     </g>
    </g>
    <g id="ytick_4">
     <g id="line2d_4">
      <path clip-path="url(#p5f2399bd29)" d="M 32.968125 125.912219 
L 985.463125 125.912219 
" style="fill:none;stroke:#dedede;stroke-linecap:square;"/>
     </g>
     <g id="text_11">
      <!-- 3 -->
      <defs>
       <path d="M 40.578125 39.3125 
Q 47.65625 37.796875 51.625 33 
Q 55.609375 28.21875 55.609375 21.1875 
Q 55.609375 10.40625 48.1875 4.484375 
Q 40.765625 -1.421875 27.09375 -1.421875 
Q 22.515625 -1.421875 17.65625 -0.515625 
Q 12.796875 0.390625 7.625 2.203125 
L 7.625 11.71875 
Q 11.71875 9.328125 16.59375 8.109375 
Q 21.484375 6.890625 26.8125 6.890625 
Q 36.078125 6.890625 40.9375 10.546875 
Q 45.796875 14.203125 45.796875 21.1875 
Q 45.796875 27.640625 41.28125 31.265625 
Q 36.765625 34.90625 28.71875 34.90625 
L 20.21875 34.90625 
L 20.21875 43.015625 
L 29.109375 43.015625 
Q 36.375 43.015625 40.234375 45.921875 
Q 44.09375 48.828125 44.09375 54.296875 
Q 44.09375 59.90625 40.109375 62.90625 
Q 36.140625 65.921875 28.71875 65.921875 
Q 24.65625 65.921875 20.015625 65.03125 
Q 15.375 64.15625 9.8125 62.3125 
L 9.8125 71.09375 
Q 15.4375 72.65625 20.34375 73.4375 
Q 25.25 74.21875 29.59375 74.21875 
Q 40.828125 74.21875 47.359375 69.109375 
Q 53.90625 64.015625 53.90625 55.328125 
Q 53.90625 49.265625 50.4375 45.09375 
Q 46.96875 40.921875 40.578125 39.3125 
z
" id="DejaVuSans-51"/>
      </defs>
      <g transform="translate(20.878125 128.951594)scale(0.08 -0.08)">
       <use xlink:href="#DejaVuSans-51"/>
      </g>
     </g>
    </g>
    <g id="ytick_5">
     <g id="line2d_5">
      <path clip-path="url(#p5f2399bd29)" d="M 32.968125 76.552939 
L 985.463125 76.552939 
" style="fill:none;stroke:#dedede;stroke-linecap:square;"/>
     </g>
     <g id="text_12">
      <!-- 4 -->
      <g transform="translate(20.878125 79.592314)scale(0.08 -0.08)">
       <use xlink:href="#DejaVuSans-52"/>
      </g>
     </g>
    </g>
    <g id="text_13">
     <!-- Percentage -->
     <defs>
      <path d="M 19.671875 64.796875 
L 19.671875 37.40625 
L 32.078125 37.40625 
Q 38.96875 37.40625 42.71875 40.96875 
Q 46.484375 44.53125 46.484375 51.125 
Q 46.484375 57.671875 42.71875 61.234375 
Q 38.96875 64.796875 32.078125 64.796875 
z
M 9.8125 72.90625 
L 32.078125 72.90625 
Q 44.34375 72.90625 50.609375 67.359375 
Q 56.890625 61.8125 56.890625 51.125 
Q 56.890625 40.328125 50.609375 34.8125 
Q 44.34375 29.296875 32.078125 29.296875 
L 19.671875 29.296875 
L 19.671875 0 
L 9.8125 0 
z
" id="DejaVuSans-80"/>
      <path d="M 56.203125 29.59375 
L 56.203125 25.203125 
L 14.890625 25.203125 
Q 15.484375 15.921875 20.484375 11.0625 
Q 25.484375 6.203125 34.421875 6.203125 
Q 39.59375 6.203125 44.453125 7.46875 
Q 49.3125 8.734375 54.109375 11.28125 
L 54.109375 2.78125 
Q 49.265625 0.734375 44.1875 -0.34375 
Q 39.109375 -1.421875 33.890625 -1.421875 
Q 20.796875 -1.421875 13.15625 6.1875 
Q 5.515625 13.8125 5.515625 26.8125 
Q 5.515625 40.234375 12.765625 48.109375 
Q 20.015625 56 32.328125 56 
Q 43.359375 56 49.78125 48.890625 
Q 56.203125 41.796875 56.203125 29.59375 
z
M 47.21875 32.234375 
Q 47.125 39.59375 43.09375 43.984375 
Q 39.0625 48.390625 32.421875 48.390625 
Q 24.90625 48.390625 20.390625 44.140625 
Q 15.875 39.890625 15.1875 32.171875 
z
" id="DejaVuSans-101"/>
      <path d="M 41.109375 46.296875 
Q 39.59375 47.171875 37.8125 47.578125 
Q 36.03125 48 33.890625 48 
Q 26.265625 48 22.1875 43.046875 
Q 18.109375 38.09375 18.109375 28.8125 
L 18.109375 0 
L 9.078125 0 
L 9.078125 54.6875 
L 18.109375 54.6875 
L 18.109375 46.1875 
Q 20.953125 51.171875 25.484375 53.578125 
Q 30.03125 56 36.53125 56 
Q 37.453125 56 38.578125 55.875 
Q 39.703125 55.765625 41.0625 55.515625 
z
" id="DejaVuSans-114"/>
      <path d="M 48.78125 52.59375 
L 48.78125 44.1875 
Q 44.96875 46.296875 41.140625 47.34375 
Q 37.3125 48.390625 33.40625 48.390625 
Q 24.65625 48.390625 19.8125 42.84375 
Q 14.984375 37.3125 14.984375 27.296875 
Q 14.984375 17.28125 19.8125 11.734375 
Q 24.65625 6.203125 33.40625 6.203125 
Q 37.3125 6.203125 41.140625 7.25 
Q 44.96875 8.296875 48.78125 10.40625 
L 48.78125 2.09375 
Q 45.015625 0.34375 40.984375 -0.53125 
Q 36.96875 -1.421875 32.421875 -1.421875 
Q 20.0625 -1.421875 12.78125 6.34375 
Q 5.515625 14.109375 5.515625 27.296875 
Q 5.515625 40.671875 12.859375 48.328125 
Q 20.21875 56 33.015625 56 
Q 37.15625 56 41.109375 55.140625 
Q 45.0625 54.296875 48.78125 52.59375 
z
" id="DejaVuSans-99"/>
      <path d="M 54.890625 33.015625 
L 54.890625 0 
L 45.90625 0 
L 45.90625 32.71875 
Q 45.90625 40.484375 42.875 44.328125 
Q 39.84375 48.1875 33.796875 48.1875 
Q 26.515625 48.1875 22.3125 43.546875 
Q 18.109375 38.921875 18.109375 30.90625 
L 18.109375 0 
L 9.078125 0 
L 9.078125 54.6875 
L 18.109375 54.6875 
L 18.109375 46.1875 
Q 21.34375 51.125 25.703125 53.5625 
Q 30.078125 56 35.796875 56 
Q 45.21875 56 50.046875 50.171875 
Q 54.890625 44.34375 54.890625 33.015625 
z
" id="DejaVuSans-110"/>
      <path d="M 18.3125 70.21875 
L 18.3125 54.6875 
L 36.8125 54.6875 
L 36.8125 47.703125 
L 18.3125 47.703125 
L 18.3125 18.015625 
Q 18.3125 11.328125 20.140625 9.421875 
Q 21.96875 7.515625 27.59375 7.515625 
L 36.8125 7.515625 
L 36.8125 0 
L 27.59375 0 
Q 17.1875 0 13.234375 3.875 
Q 9.28125 7.765625 9.28125 18.015625 
L 9.28125 47.703125 
L 2.6875 47.703125 
L 2.6875 54.6875 
L 9.28125 54.6875 
L 9.28125 70.21875 
z
" id="DejaVuSans-116"/>
      <path d="M 34.28125 27.484375 
Q 23.390625 27.484375 19.1875 25 
Q 14.984375 22.515625 14.984375 16.5 
Q 14.984375 11.71875 18.140625 8.90625 
Q 21.296875 6.109375 26.703125 6.109375 
Q 34.1875 6.109375 38.703125 11.40625 
Q 43.21875 16.703125 43.21875 25.484375 
L 43.21875 27.484375 
z
M 52.203125 31.203125 
L 52.203125 0 
L 43.21875 0 
L 43.21875 8.296875 
Q 40.140625 3.328125 35.546875 0.953125 
Q 30.953125 -1.421875 24.3125 -1.421875 
Q 15.921875 -1.421875 10.953125 3.296875 
Q 6 8.015625 6 15.921875 
Q 6 25.140625 12.171875 29.828125 
Q 18.359375 34.515625 30.609375 34.515625 
L 43.21875 34.515625 
L 43.21875 35.40625 
Q 43.21875 41.609375 39.140625 45 
Q 35.0625 48.390625 27.6875 48.390625 
Q 23 48.390625 18.546875 47.265625 
Q 14.109375 46.140625 10.015625 43.890625 
L 10.015625 52.203125 
Q 14.9375 54.109375 19.578125 55.046875 
Q 24.21875 56 28.609375 56 
Q 40.484375 56 46.34375 49.84375 
Q 52.203125 43.703125 52.203125 31.203125 
z
" id="DejaVuSans-97"/>
      <path d="M 45.40625 27.984375 
Q 45.40625 37.75 41.375 43.109375 
Q 37.359375 48.484375 30.078125 48.484375 
Q 22.859375 48.484375 18.828125 43.109375 
Q 14.796875 37.75 14.796875 27.984375 
Q 14.796875 18.265625 18.828125 12.890625 
Q 22.859375 7.515625 30.078125 7.515625 
Q 37.359375 7.515625 41.375 12.890625 
Q 45.40625 18.265625 45.40625 27.984375 
z
M 54.390625 6.78125 
Q 54.390625 -7.171875 48.1875 -13.984375 
Q 42 -20.796875 29.203125 -20.796875 
Q 24.46875 -20.796875 20.265625 -20.09375 
Q 16.0625 -19.390625 12.109375 -17.921875 
L 12.109375 -9.1875 
Q 16.0625 -11.328125 19.921875 -12.34375 
Q 23.78125 -13.375 27.78125 -13.375 
Q 36.625 -13.375 41.015625 -8.765625 
Q 45.40625 -4.15625 45.40625 5.171875 
L 45.40625 9.625 
Q 42.625 4.78125 38.28125 2.390625 
Q 33.9375 0 27.875 0 
Q 17.828125 0 11.671875 7.65625 
Q 5.515625 15.328125 5.515625 27.984375 
Q 5.515625 40.671875 11.671875 48.328125 
Q 17.828125 56 27.875 56 
Q 33.9375 56 38.28125 53.609375 
Q 42.625 51.21875 45.40625 46.390625 
L 45.40625 54.6875 
L 54.390625 54.6875 
z
" id="DejaVuSans-103"/>
     </defs>
     <g transform="translate(14.798437 181.14896)rotate(-90)scale(0.1 -0.1)">
      <use xlink:href="#DejaVuSans-80"/>
      <use x="60.255859" xlink:href="#DejaVuSans-101"/>
      <use x="121.779297" xlink:href="#DejaVuSans-114"/>
      <use x="162.861328" xlink:href="#DejaVuSans-99"/>
      <use x="217.841797" xlink:href="#DejaVuSans-101"/>
      <use x="279.365234" xlink:href="#DejaVuSans-110"/>
      <use x="342.744141" xlink:href="#DejaVuSans-116"/>
      <use x="381.953125" xlink:href="#DejaVuSans-97"/>
      <use x="443.232422" xlink:href="#DejaVuSans-103"/>
      <use x="506.708984" xlink:href="#DejaVuSans-101"/>
     </g>
    </g>
   </g>
   <g id="line2d_6">
    <path clip-path="url(#p5f2399bd29)" d="M 32.968125 273.989097 
L 42.493075 273.989049 
L 52.018025 273.988664 
L 61.542975 273.988182 
L 71.067925 273.987412 
L 80.592875 273.98539 
L 90.117825 273.983416 
L 99.642775 273.980287 
L 109.167725 273.97398 
L 118.692675 273.961752 
L 128.217625 273.947646 
L 137.742575 273.936187 
L 147.267525 273.919193 
L 156.792475 273.8866 
L 166.317425 273.82618 
L 175.842375 273.734515 
L 185.367325 273.597787 
L 194.892275 273.37599 
L 204.417225 273.040623 
L 213.942175 272.529917 
L 223.467125 271.744601 
L 232.992075 270.666428 
L 242.517025 269.190542 
L 252.041975 267.090573 
L 261.566925 264.193781 
L 271.091875 260.406094 
L 280.616825 255.535998 
L 290.141775 249.368051 
L 299.666725 241.757822 
L 309.191675 232.563047 
L 318.716625 221.565685 
L 328.241575 208.733095 
L 337.766525 194.359432 
L 347.291475 178.375852 
L 356.816425 161.307841 
L 366.341375 143.351775 
L 375.866325 124.61516 
L 385.391275 106.193595 
L 394.916225 89.20632 
L 404.441175 74.084845 
L 413.966125 61.481128 
L 423.491075 51.998167 
L 433.016025 45.649008 
L 442.540975 43.030822 
L 452.065925 43.885609 
L 461.590875 48.140913 
L 471.115825 55.902698 
L 480.640775 65.943979 
L 490.165725 78.307893 
L 499.690675 91.860421 
L 509.215625 105.560508 
L 518.740575 120.894489 
L 528.265525 137.025291 
L 537.790475 152.792611 
L 547.315425 168.041185 
L 556.840375 182.274557 
L 566.365325 195.238243 
L 575.890275 206.638806 
L 585.415225 215.931168 
L 594.940175 222.890738 
L 604.465125 228.065197 
L 613.990075 231.914507 
L 623.515025 237.038463 
L 633.039975 243.205111 
L 642.564925 245.60357 
L 652.089875 245.099219 
L 661.614825 248.72187 
L 671.139775 255.237653 
L 680.664725 259.368025 
L 690.189675 262.025303 
L 699.714625 263.953208 
L 709.239575 265.151547 
L 718.764525 266.066273 
L 728.289475 266.904161 
L 737.814425 267.939438 
L 747.339375 268.911599 
L 756.864325 269.581467 
L 766.389275 270.241995 
L 775.914225 270.623388 
L 785.439175 271.12538 
L 794.964125 271.878729 
L 804.489075 272.519614 
L 814.014025 272.982947 
L 823.538975 273.229682 
L 833.063925 273.448013 
L 842.588875 273.672843 
L 852.113825 273.757672 
L 861.638775 273.828683 
L 871.163725 273.911779 
L 880.688675 273.936861 
L 890.213625 273.947501 
L 899.738575 273.958333 
L 909.263525 273.970225 
L 918.788475 273.964929 
L 928.313425 273.963774 
L 937.838375 273.979757 
L 947.363325 273.984524 
L 956.888275 273.976821 
L 966.413225 273.979276 
L 975.938175 273.988712 
L 985.463125 273.989338 
" style="fill:none;stroke:#5cb85c;stroke-linecap:square;"/>
   </g>
   <g id="line2d_7">
    <path clip-path="url(#p5f2399bd29)" d="M 32.968125 273.983704 
L 42.493075 273.982838 
L 52.018025 273.972919 
L 61.542975 273.952745 
L 71.067925 273.930066 
L 80.592875 273.909844 
L 90.117825 273.88808 
L 99.642775 273.866221 
L 109.167725 273.840895 
L 118.692675 273.811716 
L 128.217625 273.78692 
L 137.742575 273.761641 
L 147.267525 273.724759 
L 156.792475 273.66621 
L 166.317425 273.584357 
L 175.842375 273.474914 
L 185.367325 273.310148 
L 194.892275 273.04427 
L 204.417225 272.662208 
L 213.942175 272.10835 
L 223.467125 271.285051 
L 232.992075 270.138335 
L 242.517025 268.56709 
L 252.041975 266.429854 
L 261.566925 263.515445 
L 271.091875 259.675469 
L 280.616825 254.792731 
L 290.141775 248.707135 
L 299.666725 241.112166 
L 309.191675 231.922936 
L 318.716625 220.990184 
L 328.241575 208.251364 
L 337.766525 193.972837 
L 347.291475 178.017185 
L 356.816425 161.083724 
L 366.341375 143.475841 
L 375.866325 125.007246 
L 385.391275 106.798271 
L 394.916225 90.257609 
L 404.441175 75.455847 
L 413.966125 62.841926 
L 423.491075 53.417296 
L 433.016025 47.402864 
L 442.540975 44.789338 
L 452.065925 45.312333 
L 461.590875 49.301233 
L 471.115825 56.781416 
L 480.640775 66.908491 
L 490.165725 79.469497 
L 499.690675 92.970322 
L 509.215625 106.642942 
L 518.740575 121.742746 
L 528.265525 137.709761 
L 537.790475 153.438391 
L 547.315425 168.537762 
L 556.840375 182.429075 
L 566.365325 194.90582 
L 575.890275 206.119617 
L 585.415225 215.561822 
L 594.940175 222.615067 
L 604.465125 227.84337 
L 613.990075 231.876857 
L 623.515025 236.589919 
L 633.039975 242.293019 
L 642.564925 246.132466 
L 652.089875 248.326855 
L 661.614825 251.472234 
L 671.139775 255.401141 
L 680.664725 258.59804 
L 690.189675 261.088015 
L 699.714625 263.030971 
L 709.239575 264.352515 
L 718.764525 265.362729 
L 728.289475 266.315211 
L 737.814425 267.35311 
L 747.339375 268.35095 
L 756.864325 269.042417 
L 766.389275 269.750544 
L 775.914225 270.296649 
L 785.439175 270.815454 
L 794.964125 271.5712 
L 804.489075 272.248512 
L 814.014025 272.699234 
L 823.538975 272.950716 
L 833.063925 273.174657 
L 842.588875 273.39542 
L 852.113825 273.504622 
L 861.638775 273.610742 
L 871.163725 273.714311 
L 880.688675 273.757501 
L 890.213625 273.786968 
L 899.738575 273.80252 
L 909.263525 273.817976 
L 918.788475 273.820046 
L 928.313425 273.821876 
L 937.838375 273.841039 
L 947.363325 273.84282 
L 956.888275 273.820672 
L 966.413225 273.823657 
L 975.938175 273.824091 
L 985.463125 273.33013 
" style="fill:none;stroke:#5cb85c;stroke-linecap:square;"/>
   </g>
   <g id="line2d_8">
    <path clip-path="url(#p5f2399bd29)" d="M 32.968125 273.988824 
L 42.493075 273.988634 
L 52.018025 273.988681 
L 61.542975 273.987588 
L 71.067925 273.986161 
L 80.592875 273.984545 
L 90.117825 273.981312 
L 99.642775 273.975606 
L 109.167725 273.963624 
L 118.692675 273.946555 
L 128.217625 273.932862 
L 137.742575 273.921689 
L 147.267525 273.902955 
L 156.792475 273.864776 
L 166.317425 273.808101 
L 175.842375 273.708682 
L 185.367325 273.555345 
L 194.892275 273.340104 
L 204.417225 272.989831 
L 213.942175 272.466823 
L 223.467125 271.713929 
L 232.992075 270.64685 
L 242.517025 269.159605 
L 252.041975 267.102329 
L 261.566925 264.421389 
L 271.091875 260.864696 
L 280.616825 256.239783 
L 290.141775 250.465156 
L 299.666725 243.33047 
L 309.191675 234.584823 
L 318.716625 224.032422 
L 328.241575 211.952646 
L 337.766525 198.405405 
L 347.291475 183.48988 
L 356.816425 167.444848 
L 366.341375 150.444232 
L 375.866325 133.156817 
L 385.391275 116.258093 
L 394.916225 100.204977 
L 404.441175 85.95063 
L 413.966125 73.852073 
L 423.491075 64.646608 
L 433.016025 58.600587 
L 442.540975 55.288757 
L 452.065925 55.191715 
L 461.590875 58.524846 
L 471.115825 65.170187 
L 480.640775 74.109631 
L 490.165725 84.809521 
L 499.690675 96.840371 
L 509.215625 109.015191 
L 518.740575 122.289137 
L 528.265525 136.810694 
L 537.790475 151.6549 
L 547.315425 166.354804 
L 556.840375 180.138444 
L 566.365325 192.326054 
L 575.890275 202.789592 
L 585.415225 211.144837 
L 594.940175 216.198046 
L 604.465125 219.336142 
L 613.990075 221.076095 
L 623.515025 225.777985 
L 633.039975 232.90321 
L 642.564925 233.238553 
L 652.089875 227.904631 
L 661.614825 233.068956 
L 671.139775 245.220811 
L 680.664725 251.024156 
L 690.189675 254.686544 
L 699.714625 257.706678 
L 709.239575 259.449959 
L 718.764525 260.791523 
L 728.289475 262.053827 
L 737.814425 263.655895 
L 747.339375 265.242274 
L 756.864325 266.280017 
L 766.389275 267.399635 
L 775.914225 268.197603 
L 785.439175 269.089664 
L 794.964125 270.370987 
L 804.489075 271.463598 
L 814.014025 272.266035 
L 823.538975 272.6959 
L 833.063925 273.074653 
L 842.588875 273.48103 
L 852.113825 273.646444 
L 861.638775 273.751711 
L 871.163725 273.860402 
L 880.688675 273.897107 
L 890.213625 273.919644 
L 899.738575 273.936523 
L 909.263525 273.955732 
L 918.788475 273.943893 
L 928.313425 273.93909 
L 937.838375 273.968094 
L 947.363325 273.977032 
L 956.888275 273.962531 
L 966.413225 273.969235 
L 975.938175 273.987968 
L 985.463125 273.988586 
" style="fill:none;stroke:#f0ad4e;stroke-linecap:square;"/>
   </g>
   <g id="line2d_9">
    <path clip-path="url(#p5f2399bd29)" d="M 32.968125 273.98521 
L 42.493075 273.984782 
L 52.018025 273.980455 
L 61.542975 273.969756 
L 71.067925 273.956631 
L 80.592875 273.944315 
L 90.117825 273.929242 
L 99.642775 273.911124 
L 109.167725 273.891153 
L 118.692675 273.864809 
L 128.217625 273.836326 
L 137.742575 273.806654 
L 147.267525 273.768185 
L 156.792475 273.714309 
L 166.317425 273.626291 
L 175.842375 273.506081 
L 185.367325 273.327144 
L 194.892275 273.063661 
L 204.417225 272.668175 
L 213.942175 272.103501 
L 223.467125 271.316 
L 232.992075 270.172671 
L 242.517025 268.597147 
L 252.041975 266.516435 
L 261.566925 263.782508 
L 271.091875 260.195269 
L 280.616825 255.491139 
L 290.141775 249.665222 
L 299.666725 242.576574 
L 309.191675 233.926287 
L 318.716625 223.734046 
L 328.241575 211.816779 
L 337.766525 198.340916 
L 347.291475 183.769371 
L 356.816425 168.010654 
L 366.341375 151.138566 
L 375.866325 134.124775 
L 385.391275 117.509179 
L 394.916225 101.638622 
L 404.441175 87.537836 
L 413.966125 75.4277 
L 423.491075 65.891956 
L 433.016025 59.909214 
L 442.540975 56.795778 
L 452.065925 56.489546 
L 461.590875 59.896613 
L 471.115825 66.506702 
L 480.640775 75.065215 
L 490.165725 85.452797 
L 499.690675 97.34082 
L 509.215625 109.539164 
L 518.740575 123.092251 
L 528.265525 137.643397 
L 537.790475 152.066819 
L 547.315425 166.226378 
L 556.840375 179.532245 
L 566.365325 191.575856 
L 575.890275 201.878416 
L 585.415225 210.134597 
L 594.940175 215.476202 
L 604.465125 218.888689 
L 613.990075 221.178295 
L 623.515025 225.476239 
L 633.039975 231.830739 
L 642.564925 235.316884 
L 652.089875 236.706957 
L 661.614825 240.187205 
L 671.139775 245.395143 
L 680.664725 249.525135 
L 690.189675 252.906286 
L 699.714625 255.766177 
L 709.239575 257.586973 
L 718.764525 259.126786 
L 728.289475 260.610917 
L 737.814425 262.193051 
L 747.339375 263.907901 
L 756.864325 265.211859 
L 766.389275 266.392516 
L 775.914225 267.321482 
L 785.439175 268.362242 
L 794.964125 269.701911 
L 804.489075 270.873819 
L 814.014025 271.686094 
L 823.538975 272.16004 
L 833.063925 272.597942 
L 842.588875 273.023005 
L 852.113825 273.230187 
L 861.638775 273.396427 
L 871.163725 273.568326 
L 880.688675 273.634375 
L 890.213625 273.669991 
L 899.738575 273.702136 
L 909.263525 273.729383 
L 918.788475 273.727481 
L 928.313425 273.732188 
L 937.838375 273.762431 
L 947.363325 273.764618 
L 956.888275 273.736468 
L 966.413225 273.75235 
L 975.938175 273.771085 
L 985.463125 273.316826 
" style="fill:none;stroke:#f0ad4e;stroke-linecap:square;"/>
   </g>
   <g id="line2d_10">
    <path clip-path="url(#p5f2399bd29)" d="M 32.968125 273.98944 
L 42.493075 273.989362 
L 52.018025 273.988742 
L 61.542975 273.987889 
L 71.067925 273.987153 
L 80.592875 273.985331 
L 90.117825 273.981493 
L 99.642775 273.975174 
L 109.167725 273.967383 
L 118.692675 273.955172 
L 128.217625 273.944085 
L 137.742575 273.93296 
L 147.267525 273.913655 
L 156.792475 273.872914 
L 166.317425 273.813294 
L 175.842375 273.731734 
L 185.367325 273.589313 
L 194.892275 273.377892 
L 204.417225 273.036727 
L 213.942175 272.532401 
L 223.467125 271.793125 
L 232.992075 270.68613 
L 242.517025 269.208158 
L 252.041975 267.202332 
L 261.566925 264.433351 
L 271.091875 260.846983 
L 280.616825 256.256306 
L 290.141775 250.467576 
L 299.666725 243.150443 
L 309.191675 234.177565 
L 318.716625 223.675546 
L 328.241575 211.527087 
L 337.766525 197.984387 
L 347.291475 183.044889 
L 356.816425 166.768988 
L 366.341375 149.508741 
L 375.866325 132.045525 
L 385.391275 114.949678 
L 394.916225 98.987458 
L 404.441175 84.702226 
L 413.966125 72.664439 
L 423.491075 63.652564 
L 433.016025 57.776226 
L 442.540975 54.934601 
L 452.065925 54.747291 
L 461.590875 58.556709 
L 471.115825 65.568457 
L 480.640775 74.623012 
L 490.165725 85.535196 
L 499.690675 97.518674 
L 509.215625 110.482195 
L 518.740575 124.197861 
L 528.265525 138.769989 
L 537.790475 153.573579 
L 547.315425 168.099809 
L 556.840375 181.807025 
L 566.365325 194.034021 
L 575.890275 204.7161 
L 585.415225 212.896828 
L 594.940175 217.769864 
L 604.465125 220.841131 
L 613.990075 222.548006 
L 623.515025 227.01483 
L 633.039975 234.11182 
L 642.564925 235.711938 
L 652.089875 231.405482 
L 661.614825 234.48644 
L 671.139775 244.535379 
L 680.664725 250.210103 
L 690.189675 253.458368 
L 699.714625 256.231768 
L 709.239575 257.721408 
L 718.764525 258.708156 
L 728.289475 260.084448 
L 737.814425 261.806208 
L 747.339375 263.431833 
L 756.864325 264.660976 
L 766.389275 266.068279 
L 775.914225 267.118407 
L 785.439175 268.206873 
L 794.964125 269.720779 
L 804.489075 270.988066 
L 814.014025 271.858521 
L 823.538975 272.40696 
L 833.063925 272.900586 
L 842.588875 273.338159 
L 852.113825 273.49186 
L 861.638775 273.658973 
L 871.163725 273.859928 
L 880.688675 273.90881 
L 890.213625 273.937495 
L 899.738575 273.958428 
L 909.263525 273.970717 
L 918.788475 273.96184 
L 928.313425 273.959436 
L 937.838375 273.978314 
L 947.363325 273.982036 
L 956.888275 273.975291 
L 966.413225 273.978896 
L 975.938175 273.988626 
L 985.463125 273.989401 
" style="fill:none;stroke:#f0ad4e;stroke-linecap:square;"/>
   </g>
   <g id="line2d_11">
    <path clip-path="url(#p5f2399bd29)" d="M 32.968125 273.983702 
L 42.493075 273.982733 
L 52.018025 273.976181 
L 61.542975 273.962883 
L 71.067925 273.947919 
L 80.592875 273.933884 
L 90.117825 273.91892 
L 99.642775 273.902094 
L 109.167725 273.878756 
L 118.692675 273.849563 
L 128.217625 273.822968 
L 137.742575 273.801374 
L 147.267525 273.770669 
L 156.792475 273.719844 
L 166.317425 273.643392 
L 175.842375 273.530149 
L 185.367325 273.372788 
L 194.892275 273.128973 
L 204.417225 272.746909 
L 213.942175 272.195699 
L 223.467125 271.392881 
L 232.992075 270.297593 
L 242.517025 268.784808 
L 252.041975 266.66355 
L 261.566925 263.854424 
L 271.091875 260.1625 
L 280.616825 255.448948 
L 290.141775 249.651933 
L 299.666725 242.449561 
L 309.191675 233.6243 
L 318.716625 223.042826 
L 328.241575 210.841178 
L 337.766525 197.369435 
L 347.291475 182.626473 
L 356.816425 166.752634 
L 366.341375 150.094702 
L 375.866325 132.741844 
L 385.391275 115.739222 
L 394.916225 100.011772 
L 404.441175 85.775631 
L 413.966125 73.799189 
L 423.491075 64.754459 
L 433.016025 58.901618 
L 442.540975 55.981303 
L 452.065925 55.909465 
L 461.590875 59.431079 
L 471.115825 66.353234 
L 480.640775 75.53311 
L 490.165725 86.462609 
L 499.690675 98.465336 
L 509.215625 111.374509 
L 518.740575 125.110382 
L 528.265525 139.455695 
L 537.790475 154.168069 
L 547.315425 168.498301 
L 556.840375 181.855406 
L 566.365325 193.971686 
L 575.890275 204.61895 
L 585.415225 212.72552 
L 594.940175 217.895338 
L 604.465125 221.16457 
L 613.990075 222.976764 
L 623.515025 226.969726 
L 633.039975 233.055101 
L 642.564925 236.154758 
L 652.089875 237.082644 
L 661.614825 240.019396 
L 671.139775 244.818316 
L 680.664725 248.778789 
L 690.189675 251.933808 
L 699.714625 254.56774 
L 709.239575 256.317246 
L 718.764525 257.66387 
L 728.289475 259.069344 
L 737.814425 260.779849 
L 747.339375 262.526874 
L 756.864325 263.951151 
L 766.389275 265.389928 
L 775.914225 266.505685 
L 785.439175 267.720884 
L 794.964125 269.230451 
L 804.489075 270.511789 
L 814.014025 271.420445 
L 823.538975 271.995111 
L 833.063925 272.526704 
L 842.588875 272.963858 
L 852.113825 273.120909 
L 861.638775 273.352822 
L 871.163725 273.629668 
L 880.688675 273.71523 
L 890.213625 273.758263 
L 899.738575 273.785944 
L 909.263525 273.81157 
L 918.788475 273.800521 
L 928.313425 273.803971 
L 937.838375 273.841499 
L 947.363325 273.843748 
L 956.888275 273.81409 
L 966.413225 273.82289 
L 975.938175 273.832311 
L 985.463125 273.378913 
" style="fill:none;stroke:#f0ad4e;stroke-linecap:square;"/>
   </g>
   <g id="line2d_12">
    <path clip-path="url(#p5f2399bd29)" d="M 32.968125 273.99006 
L 42.493075 273.99006 
L 52.018025 273.99006 
L 61.542975 273.99006 
L 71.067925 273.99006 
L 80.592875 273.99006 
L 90.117825 273.99006 
L 99.642775 273.99006 
L 109.167725 273.99006 
L 118.692675 273.99006 
L 128.217625 273.99006 
L 137.742575 273.99006 
L 147.267525 273.99006 
L 156.792475 273.99006 
L 166.317425 273.99006 
L 175.842375 273.99006 
L 185.367325 273.99006 
L 194.892275 273.99006 
L 204.417225 273.99006 
L 213.942175 273.99006 
L 223.467125 273.99006 
L 232.992075 273.99006 
L 242.517025 273.99006 
L 252.041975 273.99006 
L 261.566925 273.99006 
L 271.091875 273.99006 
L 280.616825 273.99006 
L 290.141775 273.99006 
L 299.666725 273.99006 
L 309.191675 273.99006 
L 318.716625 273.99006 
L 328.241575 273.99006 
L 337.766525 273.99006 
L 347.291475 273.99006 
L 356.816425 273.99006 
L 366.341375 273.99006 
L 375.866325 273.99006 
L 385.391275 273.99006 
L 394.916225 273.99006 
L 404.441175 273.99006 
L 413.966125 273.99006 
L 423.491075 273.99006 
L 433.016025 273.99006 
L 442.540975 273.99006 
L 452.065925 273.99006 
L 461.590875 273.99006 
L 471.115825 273.99006 
L 480.640775 273.99006 
L 490.165725 273.99006 
L 499.690675 273.99006 
L 509.215625 273.99006 
L 518.740575 273.99006 
L 528.265525 273.99006 
L 537.790475 273.99006 
L 547.315425 273.99006 
L 556.840375 273.99006 
L 566.365325 273.99006 
L 575.890275 273.99006 
L 585.415225 273.99006 
L 594.940175 273.99006 
L 604.465125 273.99006 
L 613.990075 273.99006 
L 623.515025 273.99006 
L 633.039975 273.99006 
L 642.564925 273.99006 
L 652.089875 273.99006 
L 661.614825 273.99006 
L 671.139775 273.99006 
L 680.664725 273.99006 
L 690.189675 273.99006 
L 699.714625 273.99006 
L 709.239575 273.99006 
L 718.764525 273.99006 
L 728.289475 273.99006 
L 737.814425 273.99006 
L 747.339375 273.99006 
L 756.864325 273.99006 
L 766.389275 273.99006 
L 775.914225 273.99006 
L 785.439175 273.99006 
L 794.964125 273.99006 
L 804.489075 273.99006 
L 814.014025 273.99006 
L 823.538975 273.99006 
L 833.063925 273.99006 
L 842.588875 273.99006 
L 852.113825 273.99006 
L 861.638775 273.99006 
L 871.163725 273.99006 
L 880.688675 273.99006 
L 890.213625 273.99006 
L 899.738575 273.99006 
L 909.263525 273.99006 
L 918.788475 273.99006 
L 928.313425 273.99006 
L 937.838375 273.99006 
L 947.363325 273.99006 
L 956.888275 273.99006 
L 966.413225 273.99006 
L 975.938175 273.99006 
L 985.463125 273.99006 
" style="fill:none;stroke:#5cb85c;stroke-linecap:square;"/>
   </g>
   <g id="line2d_13">
    <path clip-path="url(#p5f2399bd29)" d="M 32.968125 273.99006 
L 985.463125 273.99006 
" style="fill:none;stroke:#dedede;stroke-linecap:square;stroke-width:2;"/>
   </g>
   <g id="text_14">
    <!-- FastQC: Per Sequence GC Content -->
    <defs>
     <path d="M 9.8125 72.90625 
L 51.703125 72.90625 
L 51.703125 64.59375 
L 19.671875 64.59375 
L 19.671875 43.109375 
L 48.578125 43.109375 
L 48.578125 34.8125 
L 19.671875 34.8125 
L 19.671875 0 
L 9.8125 0 
z
" id="DejaVuSans-70"/>
     <path d="M 44.28125 53.078125 
L 44.28125 44.578125 
Q 40.484375 46.53125 36.375 47.5 
Q 32.28125 48.484375 27.875 48.484375 
Q 21.1875 48.484375 17.84375 46.4375 
Q 14.5 44.390625 14.5 40.28125 
Q 14.5 37.15625 16.890625 35.375 
Q 19.28125 33.59375 26.515625 31.984375 
L 29.59375 31.296875 
Q 39.15625 29.25 43.1875 25.515625 
Q 47.21875 21.78125 47.21875 15.09375 
Q 47.21875 7.46875 41.1875 3.015625 
Q 35.15625 -1.421875 24.609375 -1.421875 
Q 20.21875 -1.421875 15.453125 -0.5625 
Q 10.6875 0.296875 5.421875 2 
L 5.421875 11.28125 
Q 10.40625 8.6875 15.234375 7.390625 
Q 20.0625 6.109375 24.8125 6.109375 
Q 31.15625 6.109375 34.5625 8.28125 
Q 37.984375 10.453125 37.984375 14.40625 
Q 37.984375 18.0625 35.515625 20.015625 
Q 33.0625 21.96875 24.703125 23.78125 
L 21.578125 24.515625 
Q 13.234375 26.265625 9.515625 29.90625 
Q 5.8125 33.546875 5.8125 39.890625 
Q 5.8125 47.609375 11.28125 51.796875 
Q 16.75 56 26.8125 56 
Q 31.78125 56 36.171875 55.265625 
Q 40.578125 54.546875 44.28125 53.078125 
z
" id="DejaVuSans-115"/>
     <path d="M 39.40625 66.21875 
Q 28.65625 66.21875 22.328125 58.203125 
Q 16.015625 50.203125 16.015625 36.375 
Q 16.015625 22.609375 22.328125 14.59375 
Q 28.65625 6.59375 39.40625 6.59375 
Q 50.140625 6.59375 56.421875 14.59375 
Q 62.703125 22.609375 62.703125 36.375 
Q 62.703125 50.203125 56.421875 58.203125 
Q 50.140625 66.21875 39.40625 66.21875 
z
M 53.21875 1.3125 
L 66.21875 -12.890625 
L 54.296875 -12.890625 
L 43.5 -1.21875 
Q 41.890625 -1.3125 41.03125 -1.359375 
Q 40.1875 -1.421875 39.40625 -1.421875 
Q 24.03125 -1.421875 14.8125 8.859375 
Q 5.609375 19.140625 5.609375 36.375 
Q 5.609375 53.65625 14.8125 63.9375 
Q 24.03125 74.21875 39.40625 74.21875 
Q 54.734375 74.21875 63.90625 63.9375 
Q 73.09375 53.65625 73.09375 36.375 
Q 73.09375 23.6875 67.984375 14.640625 
Q 62.890625 5.609375 53.21875 1.3125 
z
" id="DejaVuSans-81"/>
     <path d="M 11.71875 12.40625 
L 22.015625 12.40625 
L 22.015625 0 
L 11.71875 0 
z
M 11.71875 51.703125 
L 22.015625 51.703125 
L 22.015625 39.3125 
L 11.71875 39.3125 
z
" id="DejaVuSans-58"/>
     <path d="M 53.515625 70.515625 
L 53.515625 60.890625 
Q 47.90625 63.578125 42.921875 64.890625 
Q 37.9375 66.21875 33.296875 66.21875 
Q 25.25 66.21875 20.875 63.09375 
Q 16.5 59.96875 16.5 54.203125 
Q 16.5 49.359375 19.40625 46.890625 
Q 22.3125 44.4375 30.421875 42.921875 
L 36.375 41.703125 
Q 47.40625 39.59375 52.65625 34.296875 
Q 57.90625 29 57.90625 20.125 
Q 57.90625 9.515625 50.796875 4.046875 
Q 43.703125 -1.421875 29.984375 -1.421875 
Q 24.8125 -1.421875 18.96875 -0.25 
Q 13.140625 0.921875 6.890625 3.21875 
L 6.890625 13.375 
Q 12.890625 10.015625 18.65625 8.296875 
Q 24.421875 6.59375 29.984375 6.59375 
Q 38.421875 6.59375 43.015625 9.90625 
Q 47.609375 13.234375 47.609375 19.390625 
Q 47.609375 24.75 44.3125 27.78125 
Q 41.015625 30.8125 33.5 32.328125 
L 27.484375 33.5 
Q 16.453125 35.6875 11.515625 40.375 
Q 6.59375 45.0625 6.59375 53.421875 
Q 6.59375 63.09375 13.40625 68.65625 
Q 20.21875 74.21875 32.171875 74.21875 
Q 37.3125 74.21875 42.625 73.28125 
Q 47.953125 72.359375 53.515625 70.515625 
z
" id="DejaVuSans-83"/>
     <path d="M 14.796875 27.296875 
Q 14.796875 17.390625 18.875 11.75 
Q 22.953125 6.109375 30.078125 6.109375 
Q 37.203125 6.109375 41.296875 11.75 
Q 45.40625 17.390625 45.40625 27.296875 
Q 45.40625 37.203125 41.296875 42.84375 
Q 37.203125 48.484375 30.078125 48.484375 
Q 22.953125 48.484375 18.875 42.84375 
Q 14.796875 37.203125 14.796875 27.296875 
z
M 45.40625 8.203125 
Q 42.578125 3.328125 38.25 0.953125 
Q 33.9375 -1.421875 27.875 -1.421875 
Q 17.96875 -1.421875 11.734375 6.484375 
Q 5.515625 14.40625 5.515625 27.296875 
Q 5.515625 40.1875 11.734375 48.09375 
Q 17.96875 56 27.875 56 
Q 33.9375 56 38.25 53.625 
Q 42.578125 51.265625 45.40625 46.390625 
L 45.40625 54.6875 
L 54.390625 54.6875 
L 54.390625 -20.796875 
L 45.40625 -20.796875 
z
" id="DejaVuSans-113"/>
     <path d="M 8.5 21.578125 
L 8.5 54.6875 
L 17.484375 54.6875 
L 17.484375 21.921875 
Q 17.484375 14.15625 20.5 10.265625 
Q 23.53125 6.390625 29.59375 6.390625 
Q 36.859375 6.390625 41.078125 11.03125 
Q 45.3125 15.671875 45.3125 23.6875 
L 45.3125 54.6875 
L 54.296875 54.6875 
L 54.296875 0 
L 45.3125 0 
L 45.3125 8.40625 
Q 42.046875 3.421875 37.71875 1 
Q 33.40625 -1.421875 27.6875 -1.421875 
Q 18.265625 -1.421875 13.375 4.4375 
Q 8.5 10.296875 8.5 21.578125 
z
M 31.109375 56 
z
" id="DejaVuSans-117"/>
     <path d="M 30.609375 48.390625 
Q 23.390625 48.390625 19.1875 42.75 
Q 14.984375 37.109375 14.984375 27.296875 
Q 14.984375 17.484375 19.15625 11.84375 
Q 23.34375 6.203125 30.609375 6.203125 
Q 37.796875 6.203125 41.984375 11.859375 
Q 46.1875 17.53125 46.1875 27.296875 
Q 46.1875 37.015625 41.984375 42.703125 
Q 37.796875 48.390625 30.609375 48.390625 
z
M 30.609375 56 
Q 42.328125 56 49.015625 48.375 
Q 55.71875 40.765625 55.71875 27.296875 
Q 55.71875 13.875 49.015625 6.21875 
Q 42.328125 -1.421875 30.609375 -1.421875 
Q 18.84375 -1.421875 12.171875 6.21875 
Q 5.515625 13.875 5.515625 27.296875 
Q 5.515625 40.765625 12.171875 48.375 
Q 18.84375 56 30.609375 56 
z
" id="DejaVuSans-111"/>
    </defs>
    <g transform="translate(371.574375 19.3575)scale(0.16 -0.16)">
     <use xlink:href="#DejaVuSans-70"/>
     <use x="57.378906" xlink:href="#DejaVuSans-97"/>
     <use x="118.658203" xlink:href="#DejaVuSans-115"/>
     <use x="170.757812" xlink:href="#DejaVuSans-116"/>
     <use x="209.966797" xlink:href="#DejaVuSans-81"/>
     <use x="288.677734" xlink:href="#DejaVuSans-67"/>
     <use x="358.501953" xlink:href="#DejaVuSans-58"/>
     <use x="392.193359" xlink:href="#DejaVuSans-32"/>
     <use x="423.980469" xlink:href="#DejaVuSans-80"/>
     <use x="484.236328" xlink:href="#DejaVuSans-101"/>
     <use x="545.759766" xlink:href="#DejaVuSans-114"/>
     <use x="586.873047" xlink:href="#DejaVuSans-32"/>
     <use x="618.660156" xlink:href="#DejaVuSans-83"/>
     <use x="682.136719" xlink:href="#DejaVuSans-101"/>
     <use x="743.660156" xlink:href="#DejaVuSans-113"/>
     <use x="807.136719" xlink:href="#DejaVuSans-117"/>
     <use x="870.515625" xlink:href="#DejaVuSans-101"/>
     <use x="932.039062" xlink:href="#DejaVuSans-110"/>
     <use x="995.417969" xlink:href="#DejaVuSans-99"/>
     <use x="1050.398438" xlink:href="#DejaVuSans-101"/>
     <use x="1111.921875" xlink:href="#DejaVuSans-32"/>
     <use x="1143.708984" xlink:href="#DejaVuSans-71"/>
     <use x="1221.199219" xlink:href="#DejaVuSans-67"/>
     <use x="1291.023438" xlink:href="#DejaVuSans-32"/>
     <use x="1322.810547" xlink:href="#DejaVuSans-67"/>
     <use x="1392.634766" xlink:href="#DejaVuSans-111"/>
     <use x="1453.816406" xlink:href="#DejaVuSans-110"/>
     <use x="1517.195312" xlink:href="#DejaVuSans-116"/>
     <use x="1556.404297" xlink:href="#DejaVuSans-101"/>
     <use x="1617.927734" xlink:href="#DejaVuSans-110"/>
     <use x="1681.306641" xlink:href="#DejaVuSans-116"/>
    </g>
   </g>
   <g id="legend_1">
    <g id="line2d_14">
     <path d="M 40.168125 303.490394 
L 56.168125 303.490394 
" style="fill:none;stroke:#5cb85c;stroke-linecap:square;"/>
    </g>
    <g id="line2d_15"/>
    <g id="text_15">
     <!-- Gma-CRag_001-Ex1-11C-ssl-1-1.1 -->
     <defs>
      <path d="M 52 44.1875 
Q 55.375 50.25 60.0625 53.125 
Q 64.75 56 71.09375 56 
Q 79.640625 56 84.28125 50.015625 
Q 88.921875 44.046875 88.921875 33.015625 
L 88.921875 0 
L 79.890625 0 
L 79.890625 32.71875 
Q 79.890625 40.578125 77.09375 44.375 
Q 74.3125 48.1875 68.609375 48.1875 
Q 61.625 48.1875 57.5625 43.546875 
Q 53.515625 38.921875 53.515625 30.90625 
L 53.515625 0 
L 44.484375 0 
L 44.484375 32.71875 
Q 44.484375 40.625 41.703125 44.40625 
Q 38.921875 48.1875 33.109375 48.1875 
Q 26.21875 48.1875 22.15625 43.53125 
Q 18.109375 38.875 18.109375 30.90625 
L 18.109375 0 
L 9.078125 0 
L 9.078125 54.6875 
L 18.109375 54.6875 
L 18.109375 46.1875 
Q 21.1875 51.21875 25.484375 53.609375 
Q 29.78125 56 35.6875 56 
Q 41.65625 56 45.828125 52.96875 
Q 50 49.953125 52 44.1875 
z
" id="DejaVuSans-109"/>
      <path d="M 4.890625 31.390625 
L 31.203125 31.390625 
L 31.203125 23.390625 
L 4.890625 23.390625 
z
" id="DejaVuSans-45"/>
      <path d="M 44.390625 34.1875 
Q 47.5625 33.109375 50.5625 29.59375 
Q 53.5625 26.078125 56.59375 19.921875 
L 66.609375 0 
L 56 0 
L 46.6875 18.703125 
Q 43.0625 26.03125 39.671875 28.421875 
Q 36.28125 30.8125 30.421875 30.8125 
L 19.671875 30.8125 
L 19.671875 0 
L 9.8125 0 
L 9.8125 72.90625 
L 32.078125 72.90625 
Q 44.578125 72.90625 50.734375 67.671875 
Q 56.890625 62.453125 56.890625 51.90625 
Q 56.890625 45.015625 53.6875 40.46875 
Q 50.484375 35.9375 44.390625 34.1875 
z
M 19.671875 64.796875 
L 19.671875 38.921875 
L 32.078125 38.921875 
Q 39.203125 38.921875 42.84375 42.21875 
Q 46.484375 45.515625 46.484375 51.90625 
Q 46.484375 58.296875 42.84375 61.546875 
Q 39.203125 64.796875 32.078125 64.796875 
z
" id="DejaVuSans-82"/>
      <path d="M 50.984375 -16.609375 
L 50.984375 -23.578125 
L -0.984375 -23.578125 
L -0.984375 -16.609375 
z
" id="DejaVuSans-95"/>
      <path d="M 9.8125 72.90625 
L 55.90625 72.90625 
L 55.90625 64.59375 
L 19.671875 64.59375 
L 19.671875 43.015625 
L 54.390625 43.015625 
L 54.390625 34.71875 
L 19.671875 34.71875 
L 19.671875 8.296875 
L 56.78125 8.296875 
L 56.78125 0 
L 9.8125 0 
z
" id="DejaVuSans-69"/>
      <path d="M 54.890625 54.6875 
L 35.109375 28.078125 
L 55.90625 0 
L 45.3125 0 
L 29.390625 21.484375 
L 13.484375 0 
L 2.875 0 
L 24.125 28.609375 
L 4.6875 54.6875 
L 15.28125 54.6875 
L 29.78125 35.203125 
L 44.28125 54.6875 
z
" id="DejaVuSans-120"/>
      <path d="M 9.421875 75.984375 
L 18.40625 75.984375 
L 18.40625 0 
L 9.421875 0 
z
" id="DejaVuSans-108"/>
      <path d="M 10.6875 12.40625 
L 21 12.40625 
L 21 0 
L 10.6875 0 
z
" id="DejaVuSans-46"/>
     </defs>
     <g transform="translate(62.568125 306.290394)scale(0.08 -0.08)">
      <use xlink:href="#DejaVuSans-71"/>
      <use x="77.490234" xlink:href="#DejaVuSans-109"/>
      <use x="174.902344" xlink:href="#DejaVuSans-97"/>
      <use x="236.181641" xlink:href="#DejaVuSans-45"/>
      <use x="272.265625" xlink:href="#DejaVuSans-67"/>
      <use x="342.089844" xlink:href="#DejaVuSans-82"/>
      <use x="411.541016" xlink:href="#DejaVuSans-97"/>
      <use x="472.820312" xlink:href="#DejaVuSans-103"/>
      <use x="536.296875" xlink:href="#DejaVuSans-95"/>
      <use x="586.296875" xlink:href="#DejaVuSans-48"/>
      <use x="649.919922" xlink:href="#DejaVuSans-48"/>
      <use x="713.542969" xlink:href="#DejaVuSans-49"/>
      <use x="777.166016" xlink:href="#DejaVuSans-45"/>
      <use x="813.25" xlink:href="#DejaVuSans-69"/>
      <use x="876.433594" xlink:href="#DejaVuSans-120"/>
      <use x="935.613281" xlink:href="#DejaVuSans-49"/>
      <use x="999.236328" xlink:href="#DejaVuSans-45"/>
      <use x="1035.320312" xlink:href="#DejaVuSans-49"/>
      <use x="1098.943359" xlink:href="#DejaVuSans-49"/>
      <use x="1162.566406" xlink:href="#DejaVuSans-67"/>
      <use x="1232.390625" xlink:href="#DejaVuSans-45"/>
      <use x="1268.474609" xlink:href="#DejaVuSans-115"/>
      <use x="1320.574219" xlink:href="#DejaVuSans-115"/>
      <use x="1372.673828" xlink:href="#DejaVuSans-108"/>
      <use x="1400.457031" xlink:href="#DejaVuSans-45"/>
      <use x="1436.541016" xlink:href="#DejaVuSans-49"/>
      <use x="1500.164062" xlink:href="#DejaVuSans-45"/>
      <use x="1536.248047" xlink:href="#DejaVuSans-49"/>
      <use x="1599.871094" xlink:href="#DejaVuSans-46"/>
      <use x="1631.658203" xlink:href="#DejaVuSans-49"/>
     </g>
    </g>
    <g id="line2d_16">
     <path d="M 40.168125 315.455394 
L 56.168125 315.455394 
" style="fill:none;stroke:#5cb85c;stroke-linecap:square;"/>
    </g>
    <g id="line2d_17"/>
    <g id="text_16">
     <!-- Gma-CRag_001-Ex1-11C-ssl-1-1.2 -->
     <g transform="translate(62.568125 318.255394)scale(0.08 -0.08)">
      <use xlink:href="#DejaVuSans-71"/>
      <use x="77.490234" xlink:href="#DejaVuSans-109"/>
      <use x="174.902344" xlink:href="#DejaVuSans-97"/>
      <use x="236.181641" xlink:href="#DejaVuSans-45"/>
      <use x="272.265625" xlink:href="#DejaVuSans-67"/>
      <use x="342.089844" xlink:href="#DejaVuSans-82"/>
      <use x="411.541016" xlink:href="#DejaVuSans-97"/>
      <use x="472.820312" xlink:href="#DejaVuSans-103"/>
      <use x="536.296875" xlink:href="#DejaVuSans-95"/>
      <use x="586.296875" xlink:href="#DejaVuSans-48"/>
      <use x="649.919922" xlink:href="#DejaVuSans-48"/>
      <use x="713.542969" xlink:href="#DejaVuSans-49"/>
      <use x="777.166016" xlink:href="#DejaVuSans-45"/>
      <use x="813.25" xlink:href="#DejaVuSans-69"/>
      <use x="876.433594" xlink:href="#DejaVuSans-120"/>
      <use x="935.613281" xlink:href="#DejaVuSans-49"/>
      <use x="999.236328" xlink:href="#DejaVuSans-45"/>
      <use x="1035.320312" xlink:href="#DejaVuSans-49"/>
      <use x="1098.943359" xlink:href="#DejaVuSans-49"/>
      <use x="1162.566406" xlink:href="#DejaVuSans-67"/>
      <use x="1232.390625" xlink:href="#DejaVuSans-45"/>
      <use x="1268.474609" xlink:href="#DejaVuSans-115"/>
      <use x="1320.574219" xlink:href="#DejaVuSans-115"/>
      <use x="1372.673828" xlink:href="#DejaVuSans-108"/>
      <use x="1400.457031" xlink:href="#DejaVuSans-45"/>
      <use x="1436.541016" xlink:href="#DejaVuSans-49"/>
      <use x="1500.164062" xlink:href="#DejaVuSans-45"/>
      <use x="1536.248047" xlink:href="#DejaVuSans-49"/>
      <use x="1599.871094" xlink:href="#DejaVuSans-46"/>
      <use x="1631.658203" xlink:href="#DejaVuSans-50"/>
     </g>
    </g>
    <g id="line2d_18">
     <path d="M 264.285938 303.490394 
L 280.285938 303.490394 
" style="fill:none;stroke:#f0ad4e;stroke-linecap:square;"/>
    </g>
    <g id="line2d_19"/>
    <g id="text_17">
     <!-- Gma-CRag_001-Ex1-12B-ssl-1-1.1 -->
     <defs>
      <path d="M 19.671875 34.8125 
L 19.671875 8.109375 
L 35.5 8.109375 
Q 43.453125 8.109375 47.28125 11.40625 
Q 51.125 14.703125 51.125 21.484375 
Q 51.125 28.328125 47.28125 31.5625 
Q 43.453125 34.8125 35.5 34.8125 
z
M 19.671875 64.796875 
L 19.671875 42.828125 
L 34.28125 42.828125 
Q 41.5 42.828125 45.03125 45.53125 
Q 48.578125 48.25 48.578125 53.8125 
Q 48.578125 59.328125 45.03125 62.0625 
Q 41.5 64.796875 34.28125 64.796875 
z
M 9.8125 72.90625 
L 35.015625 72.90625 
Q 46.296875 72.90625 52.390625 68.21875 
Q 58.5 63.53125 58.5 54.890625 
Q 58.5 48.1875 55.375 44.234375 
Q 52.25 40.28125 46.1875 39.3125 
Q 53.46875 37.75 57.5 32.78125 
Q 61.53125 27.828125 61.53125 20.40625 
Q 61.53125 10.640625 54.890625 5.3125 
Q 48.25 0 35.984375 0 
L 9.8125 0 
z
" id="DejaVuSans-66"/>
     </defs>
     <g transform="translate(286.685938 306.290394)scale(0.08 -0.08)">
      <use xlink:href="#DejaVuSans-71"/>
      <use x="77.490234" xlink:href="#DejaVuSans-109"/>
      <use x="174.902344" xlink:href="#DejaVuSans-97"/>
      <use x="236.181641" xlink:href="#DejaVuSans-45"/>
      <use x="272.265625" xlink:href="#DejaVuSans-67"/>
      <use x="342.089844" xlink:href="#DejaVuSans-82"/>
      <use x="411.541016" xlink:href="#DejaVuSans-97"/>
      <use x="472.820312" xlink:href="#DejaVuSans-103"/>
      <use x="536.296875" xlink:href="#DejaVuSans-95"/>
      <use x="586.296875" xlink:href="#DejaVuSans-48"/>
      <use x="649.919922" xlink:href="#DejaVuSans-48"/>
      <use x="713.542969" xlink:href="#DejaVuSans-49"/>
      <use x="777.166016" xlink:href="#DejaVuSans-45"/>
      <use x="813.25" xlink:href="#DejaVuSans-69"/>
      <use x="876.433594" xlink:href="#DejaVuSans-120"/>
      <use x="935.613281" xlink:href="#DejaVuSans-49"/>
      <use x="999.236328" xlink:href="#DejaVuSans-45"/>
      <use x="1035.320312" xlink:href="#DejaVuSans-49"/>
      <use x="1098.943359" xlink:href="#DejaVuSans-50"/>
      <use x="1162.566406" xlink:href="#DejaVuSans-66"/>
      <use x="1231.169922" xlink:href="#DejaVuSans-45"/>
      <use x="1267.253906" xlink:href="#DejaVuSans-115"/>
      <use x="1319.353516" xlink:href="#DejaVuSans-115"/>
      <use x="1371.453125" xlink:href="#DejaVuSans-108"/>
      <use x="1399.236328" xlink:href="#DejaVuSans-45"/>
      <use x="1435.320312" xlink:href="#DejaVuSans-49"/>
      <use x="1498.943359" xlink:href="#DejaVuSans-45"/>
      <use x="1535.027344" xlink:href="#DejaVuSans-49"/>
      <use x="1598.650391" xlink:href="#DejaVuSans-46"/>
      <use x="1630.4375" xlink:href="#DejaVuSans-49"/>
     </g>
    </g>
    <g id="line2d_20">
     <path d="M 264.285938 315.455394 
L 280.285938 315.455394 
" style="fill:none;stroke:#f0ad4e;stroke-linecap:square;"/>
    </g>
    <g id="line2d_21"/>
    <g id="text_18">
     <!-- Gma-CRag_001-Ex1-12B-ssl-1-1.2 -->
     <g transform="translate(286.685938 318.255394)scale(0.08 -0.08)">
      <use xlink:href="#DejaVuSans-71"/>
      <use x="77.490234" xlink:href="#DejaVuSans-109"/>
      <use x="174.902344" xlink:href="#DejaVuSans-97"/>
      <use x="236.181641" xlink:href="#DejaVuSans-45"/>
      <use x="272.265625" xlink:href="#DejaVuSans-67"/>
      <use x="342.089844" xlink:href="#DejaVuSans-82"/>
      <use x="411.541016" xlink:href="#DejaVuSans-97"/>
      <use x="472.820312" xlink:href="#DejaVuSans-103"/>
      <use x="536.296875" xlink:href="#DejaVuSans-95"/>
      <use x="586.296875" xlink:href="#DejaVuSans-48"/>
      <use x="649.919922" xlink:href="#DejaVuSans-48"/>
      <use x="713.542969" xlink:href="#DejaVuSans-49"/>
      <use x="777.166016" xlink:href="#DejaVuSans-45"/>
      <use x="813.25" xlink:href="#DejaVuSans-69"/>
      <use x="876.433594" xlink:href="#DejaVuSans-120"/>
      <use x="935.613281" xlink:href="#DejaVuSans-49"/>
      <use x="999.236328" xlink:href="#DejaVuSans-45"/>
      <use x="1035.320312" xlink:href="#DejaVuSans-49"/>
      <use x="1098.943359" xlink:href="#DejaVuSans-50"/>
      <use x="1162.566406" xlink:href="#DejaVuSans-66"/>
      <use x="1231.169922" xlink:href="#DejaVuSans-45"/>
      <use x="1267.253906" xlink:href="#DejaVuSans-115"/>
      <use x="1319.353516" xlink:href="#DejaVuSans-115"/>
      <use x="1371.453125" xlink:href="#DejaVuSans-108"/>
      <use x="1399.236328" xlink:href="#DejaVuSans-45"/>
      <use x="1435.320312" xlink:href="#DejaVuSans-49"/>
      <use x="1498.943359" xlink:href="#DejaVuSans-45"/>
      <use x="1535.027344" xlink:href="#DejaVuSans-49"/>
      <use x="1598.650391" xlink:href="#DejaVuSans-46"/>
      <use x="1630.4375" xlink:href="#DejaVuSans-50"/>
     </g>
    </g>
    <g id="line2d_22">
     <path d="M 488.30625 303.490394 
L 504.30625 303.490394 
" style="fill:none;stroke:#f0ad4e;stroke-linecap:square;"/>
    </g>
    <g id="line2d_23"/>
    <g id="text_19">
     <!-- Gma-CRag_001-Ex1-13A-ssl-1-1.1 -->
     <defs>
      <path d="M 34.1875 63.1875 
L 20.796875 26.90625 
L 47.609375 26.90625 
z
M 28.609375 72.90625 
L 39.796875 72.90625 
L 67.578125 0 
L 57.328125 0 
L 50.6875 18.703125 
L 17.828125 18.703125 
L 11.1875 0 
L 0.78125 0 
z
" id="DejaVuSans-65"/>
     </defs>
     <g transform="translate(510.70625 306.290394)scale(0.08 -0.08)">
      <use xlink:href="#DejaVuSans-71"/>
      <use x="77.490234" xlink:href="#DejaVuSans-109"/>
      <use x="174.902344" xlink:href="#DejaVuSans-97"/>
      <use x="236.181641" xlink:href="#DejaVuSans-45"/>
      <use x="272.265625" xlink:href="#DejaVuSans-67"/>
      <use x="342.089844" xlink:href="#DejaVuSans-82"/>
      <use x="411.541016" xlink:href="#DejaVuSans-97"/>
      <use x="472.820312" xlink:href="#DejaVuSans-103"/>
      <use x="536.296875" xlink:href="#DejaVuSans-95"/>
      <use x="586.296875" xlink:href="#DejaVuSans-48"/>
      <use x="649.919922" xlink:href="#DejaVuSans-48"/>
      <use x="713.542969" xlink:href="#DejaVuSans-49"/>
      <use x="777.166016" xlink:href="#DejaVuSans-45"/>
      <use x="813.25" xlink:href="#DejaVuSans-69"/>
      <use x="876.433594" xlink:href="#DejaVuSans-120"/>
      <use x="935.613281" xlink:href="#DejaVuSans-49"/>
      <use x="999.236328" xlink:href="#DejaVuSans-45"/>
      <use x="1035.320312" xlink:href="#DejaVuSans-49"/>
      <use x="1098.943359" xlink:href="#DejaVuSans-51"/>
      <use x="1162.566406" xlink:href="#DejaVuSans-65"/>
      <use x="1230.943359" xlink:href="#DejaVuSans-45"/>
      <use x="1267.027344" xlink:href="#DejaVuSans-115"/>
      <use x="1319.126953" xlink:href="#DejaVuSans-115"/>
      <use x="1371.226562" xlink:href="#DejaVuSans-108"/>
      <use x="1399.009766" xlink:href="#DejaVuSans-45"/>
      <use x="1435.09375" xlink:href="#DejaVuSans-49"/>
      <use x="1498.716797" xlink:href="#DejaVuSans-45"/>
      <use x="1534.800781" xlink:href="#DejaVuSans-49"/>
      <use x="1598.423828" xlink:href="#DejaVuSans-46"/>
      <use x="1630.210938" xlink:href="#DejaVuSans-49"/>
     </g>
    </g>
    <g id="line2d_24">
     <path d="M 712.307813 303.490394 
L 728.307813 303.490394 
" style="fill:none;stroke:#f0ad4e;stroke-linecap:square;"/>
    </g>
    <g id="line2d_25"/>
    <g id="text_20">
     <!-- Gma-CRag_001-Ex1-13A-ssl-1-1.2 -->
     <g transform="translate(734.707813 306.290394)scale(0.08 -0.08)">
      <use xlink:href="#DejaVuSans-71"/>
      <use x="77.490234" xlink:href="#DejaVuSans-109"/>
      <use x="174.902344" xlink:href="#DejaVuSans-97"/>
      <use x="236.181641" xlink:href="#DejaVuSans-45"/>
      <use x="272.265625" xlink:href="#DejaVuSans-67"/>
      <use x="342.089844" xlink:href="#DejaVuSans-82"/>
      <use x="411.541016" xlink:href="#DejaVuSans-97"/>
      <use x="472.820312" xlink:href="#DejaVuSans-103"/>
      <use x="536.296875" xlink:href="#DejaVuSans-95"/>
      <use x="586.296875" xlink:href="#DejaVuSans-48"/>
      <use x="649.919922" xlink:href="#DejaVuSans-48"/>
      <use x="713.542969" xlink:href="#DejaVuSans-49"/>
      <use x="777.166016" xlink:href="#DejaVuSans-45"/>
      <use x="813.25" xlink:href="#DejaVuSans-69"/>
      <use x="876.433594" xlink:href="#DejaVuSans-120"/>
      <use x="935.613281" xlink:href="#DejaVuSans-49"/>
      <use x="999.236328" xlink:href="#DejaVuSans-45"/>
      <use x="1035.320312" xlink:href="#DejaVuSans-49"/>
      <use x="1098.943359" xlink:href="#DejaVuSans-51"/>
      <use x="1162.566406" xlink:href="#DejaVuSans-65"/>
      <use x="1230.943359" xlink:href="#DejaVuSans-45"/>
      <use x="1267.027344" xlink:href="#DejaVuSans-115"/>
      <use x="1319.126953" xlink:href="#DejaVuSans-115"/>
      <use x="1371.226562" xlink:href="#DejaVuSans-108"/>
      <use x="1399.009766" xlink:href="#DejaVuSans-45"/>
      <use x="1435.09375" xlink:href="#DejaVuSans-49"/>
      <use x="1498.716797" xlink:href="#DejaVuSans-45"/>
      <use x="1534.800781" xlink:href="#DejaVuSans-49"/>
      <use x="1598.423828" xlink:href="#DejaVuSans-46"/>
      <use x="1630.210938" xlink:href="#DejaVuSans-50"/>
     </g>
    </g>
    <g id="line2d_26">
     <path d="M 936.309375 303.490394 
L 952.309375 303.490394 
" style="fill:none;stroke:#5cb85c;stroke-linecap:square;"/>
    </g>
    <g id="line2d_27"/>
    <g id="text_21">
     <!-- Multi -->
     <defs>
      <path d="M 9.8125 72.90625 
L 24.515625 72.90625 
L 43.109375 23.296875 
L 61.8125 72.90625 
L 76.515625 72.90625 
L 76.515625 0 
L 66.890625 0 
L 66.890625 64.015625 
L 48.09375 14.015625 
L 38.1875 14.015625 
L 19.390625 64.015625 
L 19.390625 0 
L 9.8125 0 
z
" id="DejaVuSans-77"/>
      <path d="M 9.421875 54.6875 
L 18.40625 54.6875 
L 18.40625 0 
L 9.421875 0 
z
M 9.421875 75.984375 
L 18.40625 75.984375 
L 18.40625 64.59375 
L 9.421875 64.59375 
z
" id="DejaVuSans-105"/>
     </defs>
     <g transform="translate(958.709375 306.290394)scale(0.08 -0.08)">
      <use xlink:href="#DejaVuSans-77"/>
      <use x="86.279297" xlink:href="#DejaVuSans-117"/>
      <use x="149.658203" xlink:href="#DejaVuSans-108"/>
      <use x="177.441406" xlink:href="#DejaVuSans-116"/>
      <use x="216.650391" xlink:href="#DejaVuSans-105"/>
     </g>
    </g>
   </g>
  </g>
 </g>
 <defs>
  <clipPath id="p5f2399bd29">
   <rect height="242.5072" width="952.495" x="32.968125" y="31.48286"/>
  </clipPath>
 </defs>
</svg>
