<?xml version="1.0" encoding="utf-8" standalone="no"?>
<!DOCTYPE svg PUBLIC "-//W3C//DTD SVG 1.1//EN"
  "http://www.w3.org/Graphics/SVG/1.1/DTD/svg11.dtd">
<!-- Created with matplotlib (https://matplotlib.org/) -->
<svg height="330.541644pt" version="1.1" viewBox="0 0 1000.340625 330.541644" width="1000.340625pt" xmlns="http://www.w3.org/2000/svg" xmlns:xlink="http://www.w3.org/1999/xlink">
 <defs>
  <style type="text/css">
*{stroke-linecap:butt;stroke-linejoin:round;}
  </style>
 </defs>
 <g id="figure_1">
  <g id="axes_1">
   <g id="patch_1">
    <path d="M 40.600625 273.99006 
L 993.140625 273.99006 
L 993.140625 31.48286 
L 40.600625 31.48286 
z
" style="fill:#ffffff;"/>
   </g>
   <g id="matplotlib.axis_1">
    <g id="xtick_1">
     <g id="text_1">
      <!-- 0 -->
      <defs>
       <path d="M 31.78125 66.40625 
Q 24.171875 66.40625 20.328125 58.90625 
Q 16.5 51.421875 16.5 36.375 
Q 16.5 21.390625 20.328125 13.890625 
Q 24.171875 6.390625 31.78125 6.390625 
Q 39.453125 6.390625 43.28125 13.890625 
Q 47.125 21.390625 47.125 36.375 
Q 47.125 51.421875 43.28125 58.90625 
Q 39.453125 66.40625 31.78125 66.40625 
z
M 31.78125 74.21875 
Q 44.046875 74.21875 50.515625 64.515625 
Q 56.984375 54.828125 56.984375 36.375 
Q 56.984375 17.96875 50.515625 8.265625 
Q 44.046875 -1.421875 31.78125 -1.421875 
Q 19.53125 -1.421875 13.0625 8.265625 
Q 6.59375 17.96875 6.59375 36.375 
Q 6.59375 54.828125 13.0625 64.515625 
Q 19.53125 74.21875 31.78125 74.21875 
z
" id="DejaVuSans-48"/>
      </defs>
      <g transform="translate(78.13377 287.06881)scale(0.08 -0.08)">
       <use xlink:href="#DejaVuSans-48"/>
      </g>
     </g>
    </g>
    <g id="xtick_2">
     <g id="text_2">
      <!-- 50 -->
      <defs>
       <path d="M 10.796875 72.90625 
L 49.515625 72.90625 
L 49.515625 64.59375 
L 19.828125 64.59375 
L 19.828125 46.734375 
Q 21.96875 47.46875 24.109375 47.828125 
Q 26.265625 48.1875 28.421875 48.1875 
Q 40.625 48.1875 47.75 41.5 
Q 54.890625 34.8125 54.890625 23.390625 
Q 54.890625 11.625 47.5625 5.09375 
Q 40.234375 -1.421875 26.90625 -1.421875 
Q 22.3125 -1.421875 17.546875 -0.640625 
Q 12.796875 0.140625 7.71875 1.703125 
L 7.71875 11.625 
Q 12.109375 9.234375 16.796875 8.0625 
Q 21.484375 6.890625 26.703125 6.890625 
Q 35.15625 6.890625 40.078125 11.328125 
Q 45.015625 15.765625 45.015625 23.390625 
Q 45.015625 31 40.078125 35.4375 
Q 35.15625 39.890625 26.703125 39.890625 
Q 22.75 39.890625 18.8125 39.015625 
Q 14.890625 38.140625 10.796875 36.28125 
z
" id="DejaVuSans-53"/>
      </defs>
      <g transform="translate(236.545174 287.06881)scale(0.08 -0.08)">
       <use xlink:href="#DejaVuSans-53"/>
       <use x="63.623047" xlink:href="#DejaVuSans-48"/>
      </g>
     </g>
    </g>
    <g id="xtick_3">
     <g id="text_3">
      <!-- 100 -->
      <defs>
       <path d="M 12.40625 8.296875 
L 28.515625 8.296875 
L 28.515625 63.921875 
L 10.984375 60.40625 
L 10.984375 69.390625 
L 28.421875 72.90625 
L 38.28125 72.90625 
L 38.28125 8.296875 
L 54.390625 8.296875 
L 54.390625 0 
L 12.40625 0 
z
" id="DejaVuSans-49"/>
      </defs>
      <g transform="translate(394.956578 287.06881)scale(0.08 -0.08)">
       <use xlink:href="#DejaVuSans-49"/>
       <use x="63.623047" xlink:href="#DejaVuSans-48"/>
       <use x="127.246094" xlink:href="#DejaVuSans-48"/>
      </g>
     </g>
    </g>
    <g id="xtick_4">
     <g id="text_4">
      <!-- 150 -->
      <g transform="translate(555.912982 287.06881)scale(0.08 -0.08)">
       <use xlink:href="#DejaVuSans-49"/>
       <use x="63.623047" xlink:href="#DejaVuSans-53"/>
       <use x="127.246094" xlink:href="#DejaVuSans-48"/>
      </g>
     </g>
    </g>
    <g id="xtick_5">
     <g id="text_5">
      <!-- 200 -->
      <defs>
       <path d="M 19.1875 8.296875 
L 53.609375 8.296875 
L 53.609375 0 
L 7.328125 0 
L 7.328125 8.296875 
Q 12.9375 14.109375 22.625 23.890625 
Q 32.328125 33.6875 34.8125 36.53125 
Q 39.546875 41.84375 41.421875 45.53125 
Q 43.3125 49.21875 43.3125 52.78125 
Q 43.3125 58.59375 39.234375 62.25 
Q 35.15625 65.921875 28.609375 65.921875 
Q 23.96875 65.921875 18.8125 64.3125 
Q 13.671875 62.703125 7.8125 59.421875 
L 7.8125 69.390625 
Q 13.765625 71.78125 18.9375 73 
Q 24.125 74.21875 28.421875 74.21875 
Q 39.75 74.21875 46.484375 68.546875 
Q 53.21875 62.890625 53.21875 53.421875 
Q 53.21875 48.921875 51.53125 44.890625 
Q 49.859375 40.875 45.40625 35.40625 
Q 44.1875 33.984375 37.640625 27.21875 
Q 31.109375 20.453125 19.1875 8.296875 
z
" id="DejaVuSans-50"/>
      </defs>
      <g transform="translate(716.869386 287.06881)scale(0.08 -0.08)">
       <use xlink:href="#DejaVuSans-50"/>
       <use x="63.623047" xlink:href="#DejaVuSans-48"/>
       <use x="127.246094" xlink:href="#DejaVuSans-48"/>
      </g>
     </g>
    </g>
    <g id="xtick_6">
     <g id="text_6">
      <!-- 250 -->
      <g transform="translate(877.825791 287.06881)scale(0.08 -0.08)">
       <use xlink:href="#DejaVuSans-50"/>
       <use x="63.623047" xlink:href="#DejaVuSans-53"/>
       <use x="127.246094" xlink:href="#DejaVuSans-48"/>
      </g>
     </g>
    </g>
    <g id="text_7">
     <!-- Insert size -->
     <defs>
      <path d="M 9.8125 72.90625 
L 19.671875 72.90625 
L 19.671875 0 
L 9.8125 0 
z
" id="DejaVuSans-73"/>
      <path d="M 54.890625 33.015625 
L 54.890625 0 
L 45.90625 0 
L 45.90625 32.71875 
Q 45.90625 40.484375 42.875 44.328125 
Q 39.84375 48.1875 33.796875 48.1875 
Q 26.515625 48.1875 22.3125 43.546875 
Q 18.109375 38.921875 18.109375 30.90625 
L 18.109375 0 
L 9.078125 0 
L 9.078125 54.6875 
L 18.109375 54.6875 
L 18.109375 46.1875 
Q 21.34375 51.125 25.703125 53.5625 
Q 30.078125 56 35.796875 56 
Q 45.21875 56 50.046875 50.171875 
Q 54.890625 44.34375 54.890625 33.015625 
z
" id="DejaVuSans-110"/>
      <path d="M 44.28125 53.078125 
L 44.28125 44.578125 
Q 40.484375 46.53125 36.375 47.5 
Q 32.28125 48.484375 27.875 48.484375 
Q 21.1875 48.484375 17.84375 46.4375 
Q 14.5 44.390625 14.5 40.28125 
Q 14.5 37.15625 16.890625 35.375 
Q 19.28125 33.59375 26.515625 31.984375 
L 29.59375 31.296875 
Q 39.15625 29.25 43.1875 25.515625 
Q 47.21875 21.78125 47.21875 15.09375 
Q 47.21875 7.46875 41.1875 3.015625 
Q 35.15625 -1.421875 24.609375 -1.421875 
Q 20.21875 -1.421875 15.453125 -0.5625 
Q 10.6875 0.296875 5.421875 2 
L 5.421875 11.28125 
Q 10.40625 8.6875 15.234375 7.390625 
Q 20.0625 6.109375 24.8125 6.109375 
Q 31.15625 6.109375 34.5625 8.28125 
Q 37.984375 10.453125 37.984375 14.40625 
Q 37.984375 18.0625 35.515625 20.015625 
Q 33.0625 21.96875 24.703125 23.78125 
L 21.578125 24.515625 
Q 13.234375 26.265625 9.515625 29.90625 
Q 5.8125 33.546875 5.8125 39.890625 
Q 5.8125 47.609375 11.28125 51.796875 
Q 16.75 56 26.8125 56 
Q 31.78125 56 36.171875 55.265625 
Q 40.578125 54.546875 44.28125 53.078125 
z
" id="DejaVuSans-115"/>
      <path d="M 56.203125 29.59375 
L 56.203125 25.203125 
L 14.890625 25.203125 
Q 15.484375 15.921875 20.484375 11.0625 
Q 25.484375 6.203125 34.421875 6.203125 
Q 39.59375 6.203125 44.453125 7.46875 
Q 49.3125 8.734375 54.109375 11.28125 
L 54.109375 2.78125 
Q 49.265625 0.734375 44.1875 -0.34375 
Q 39.109375 -1.421875 33.890625 -1.421875 
Q 20.796875 -1.421875 13.15625 6.1875 
Q 5.515625 13.8125 5.515625 26.8125 
Q 5.515625 40.234375 12.765625 48.109375 
Q 20.015625 56 32.328125 56 
Q 43.359375 56 49.78125 48.890625 
Q 56.203125 41.796875 56.203125 29.59375 
z
M 47.21875 32.234375 
Q 47.125 39.59375 43.09375 43.984375 
Q 39.0625 48.390625 32.421875 48.390625 
Q 24.90625 48.390625 20.390625 44.140625 
Q 15.875 39.890625 15.1875 32.171875 
z
" id="DejaVuSans-101"/>
      <path d="M 41.109375 46.296875 
Q 39.59375 47.171875 37.8125 47.578125 
Q 36.03125 48 33.890625 48 
Q 26.265625 48 22.1875 43.046875 
Q 18.109375 38.09375 18.109375 28.8125 
L 18.109375 0 
L 9.078125 0 
L 9.078125 54.6875 
L 18.109375 54.6875 
L 18.109375 46.1875 
Q 20.953125 51.171875 25.484375 53.578125 
Q 30.03125 56 36.53125 56 
Q 37.453125 56 38.578125 55.875 
Q 39.703125 55.765625 41.0625 55.515625 
z
" id="DejaVuSans-114"/>
      <path d="M 18.3125 70.21875 
L 18.3125 54.6875 
L 36.8125 54.6875 
L 36.8125 47.703125 
L 18.3125 47.703125 
L 18.3125 18.015625 
Q 18.3125 11.328125 20.140625 9.421875 
Q 21.96875 7.515625 27.59375 7.515625 
L 36.8125 7.515625 
L 36.8125 0 
L 27.59375 0 
Q 17.1875 0 13.234375 3.875 
Q 9.28125 7.765625 9.28125 18.015625 
L 9.28125 47.703125 
L 2.6875 47.703125 
L 2.6875 54.6875 
L 9.28125 54.6875 
L 9.28125 70.21875 
z
" id="DejaVuSans-116"/>
      <path id="DejaVuSans-32"/>
      <path d="M 9.421875 54.6875 
L 18.40625 54.6875 
L 18.40625 0 
L 9.421875 0 
z
M 9.421875 75.984375 
L 18.40625 75.984375 
L 18.40625 64.59375 
L 9.421875 64.59375 
z
" id="DejaVuSans-105"/>
      <path d="M 5.515625 54.6875 
L 48.1875 54.6875 
L 48.1875 46.484375 
L 14.40625 7.171875 
L 48.1875 7.171875 
L 48.1875 0 
L 4.296875 0 
L 4.296875 8.203125 
L 38.09375 47.515625 
L 5.515625 47.515625 
z
" id="DejaVuSans-122"/>
     </defs>
     <g transform="translate(491.246406 300.330997)scale(0.1 -0.1)">
      <use xlink:href="#DejaVuSans-73"/>
      <use x="29.492188" xlink:href="#DejaVuSans-110"/>
      <use x="92.871094" xlink:href="#DejaVuSans-115"/>
      <use x="144.970703" xlink:href="#DejaVuSans-101"/>
      <use x="206.494141" xlink:href="#DejaVuSans-114"/>
      <use x="247.607422" xlink:href="#DejaVuSans-116"/>
      <use x="286.816406" xlink:href="#DejaVuSans-32"/>
      <use x="318.603516" xlink:href="#DejaVuSans-115"/>
      <use x="370.703125" xlink:href="#DejaVuSans-105"/>
      <use x="398.486328" xlink:href="#DejaVuSans-122"/>
      <use x="450.976562" xlink:href="#DejaVuSans-101"/>
     </g>
    </g>
   </g>
   <g id="matplotlib.axis_2">
    <g id="ytick_1">
     <g id="line2d_1">
      <path clip-path="url(#pb75442b8f8)" d="M 40.600625 273.99006 
L 993.140625 273.99006 
" style="fill:none;stroke:#dedede;stroke-linecap:square;"/>
     </g>
     <g id="text_8">
      <!-- 0.0 -->
      <defs>
       <path d="M 10.6875 12.40625 
L 21 12.40625 
L 21 0 
L 10.6875 0 
z
" id="DejaVuSans-46"/>
      </defs>
      <g transform="translate(20.878125 277.029435)scale(0.08 -0.08)">
       <use xlink:href="#DejaVuSans-48"/>
       <use x="63.623047" xlink:href="#DejaVuSans-46"/>
       <use x="95.410156" xlink:href="#DejaVuSans-48"/>
      </g>
     </g>
    </g>
    <g id="ytick_2">
     <g id="line2d_2">
      <path clip-path="url(#pb75442b8f8)" d="M 40.600625 244.731066 
L 993.140625 244.731066 
" style="fill:none;stroke:#dedede;stroke-linecap:square;"/>
     </g>
     <g id="text_9">
      <!-- 0.1 -->
      <g transform="translate(20.878125 247.770441)scale(0.08 -0.08)">
       <use xlink:href="#DejaVuSans-48"/>
       <use x="63.623047" xlink:href="#DejaVuSans-46"/>
       <use x="95.410156" xlink:href="#DejaVuSans-49"/>
      </g>
     </g>
    </g>
    <g id="ytick_3">
     <g id="line2d_3">
      <path clip-path="url(#pb75442b8f8)" d="M 40.600625 215.472072 
L 993.140625 215.472072 
" style="fill:none;stroke:#dedede;stroke-linecap:square;"/>
     </g>
     <g id="text_10">
      <!-- 0.2 -->
      <g transform="translate(20.878125 218.511447)scale(0.08 -0.08)">
       <use xlink:href="#DejaVuSans-48"/>
       <use x="63.623047" xlink:href="#DejaVuSans-46"/>
       <use x="95.410156" xlink:href="#DejaVuSans-50"/>
      </g>
     </g>
    </g>
    <g id="ytick_4">
     <g id="line2d_4">
      <path clip-path="url(#pb75442b8f8)" d="M 40.600625 186.213079 
L 993.140625 186.213079 
" style="fill:none;stroke:#dedede;stroke-linecap:square;"/>
     </g>
     <g id="text_11">
      <!-- 0.3 -->
      <defs>
       <path d="M 40.578125 39.3125 
Q 47.65625 37.796875 51.625 33 
Q 55.609375 28.21875 55.609375 21.1875 
Q 55.609375 10.40625 48.1875 4.484375 
Q 40.765625 -1.421875 27.09375 -1.421875 
Q 22.515625 -1.421875 17.65625 -0.515625 
Q 12.796875 0.390625 7.625 2.203125 
L 7.625 11.71875 
Q 11.71875 9.328125 16.59375 8.109375 
Q 21.484375 6.890625 26.8125 6.890625 
Q 36.078125 6.890625 40.9375 10.546875 
Q 45.796875 14.203125 45.796875 21.1875 
Q 45.796875 27.640625 41.28125 31.265625 
Q 36.765625 34.90625 28.71875 34.90625 
L 20.21875 34.90625 
L 20.21875 43.015625 
L 29.109375 43.015625 
Q 36.375 43.015625 40.234375 45.921875 
Q 44.09375 48.828125 44.09375 54.296875 
Q 44.09375 59.90625 40.109375 62.90625 
Q 36.140625 65.921875 28.71875 65.921875 
Q 24.65625 65.921875 20.015625 65.03125 
Q 15.375 64.15625 9.8125 62.3125 
L 9.8125 71.09375 
Q 15.4375 72.65625 20.34375 73.4375 
Q 25.25 74.21875 29.59375 74.21875 
Q 40.828125 74.21875 47.359375 69.109375 
Q 53.90625 64.015625 53.90625 55.328125 
Q 53.90625 49.265625 50.4375 45.09375 
Q 46.96875 40.921875 40.578125 39.3125 
z
" id="DejaVuSans-51"/>
      </defs>
      <g transform="translate(20.878125 189.252454)scale(0.08 -0.08)">
       <use xlink:href="#DejaVuSans-48"/>
       <use x="63.623047" xlink:href="#DejaVuSans-46"/>
       <use x="95.410156" xlink:href="#DejaVuSans-51"/>
      </g>
     </g>
    </g>
    <g id="ytick_5">
     <g id="line2d_5">
      <path clip-path="url(#pb75442b8f8)" d="M 40.600625 156.954085 
L 993.140625 156.954085 
" style="fill:none;stroke:#dedede;stroke-linecap:square;"/>
     </g>
     <g id="text_12">
      <!-- 0.4 -->
      <defs>
       <path d="M 37.796875 64.3125 
L 12.890625 25.390625 
L 37.796875 25.390625 
z
M 35.203125 72.90625 
L 47.609375 72.90625 
L 47.609375 25.390625 
L 58.015625 25.390625 
L 58.015625 17.1875 
L 47.609375 17.1875 
L 47.609375 0 
L 37.796875 0 
L 37.796875 17.1875 
L 4.890625 17.1875 
L 4.890625 26.703125 
z
" id="DejaVuSans-52"/>
      </defs>
      <g transform="translate(20.878125 159.99346)scale(0.08 -0.08)">
       <use xlink:href="#DejaVuSans-48"/>
       <use x="63.623047" xlink:href="#DejaVuSans-46"/>
       <use x="95.410156" xlink:href="#DejaVuSans-52"/>
      </g>
     </g>
    </g>
    <g id="ytick_6">
     <g id="line2d_6">
      <path clip-path="url(#pb75442b8f8)" d="M 40.600625 127.695091 
L 993.140625 127.695091 
" style="fill:none;stroke:#dedede;stroke-linecap:square;"/>
     </g>
     <g id="text_13">
      <!-- 0.5 -->
      <g transform="translate(20.878125 130.734466)scale(0.08 -0.08)">
       <use xlink:href="#DejaVuSans-48"/>
       <use x="63.623047" xlink:href="#DejaVuSans-46"/>
       <use x="95.410156" xlink:href="#DejaVuSans-53"/>
      </g>
     </g>
    </g>
    <g id="ytick_7">
     <g id="line2d_7">
      <path clip-path="url(#pb75442b8f8)" d="M 40.600625 98.436097 
L 993.140625 98.436097 
" style="fill:none;stroke:#dedede;stroke-linecap:square;"/>
     </g>
     <g id="text_14">
      <!-- 0.6 -->
      <defs>
       <path d="M 33.015625 40.375 
Q 26.375 40.375 22.484375 35.828125 
Q 18.609375 31.296875 18.609375 23.390625 
Q 18.609375 15.53125 22.484375 10.953125 
Q 26.375 6.390625 33.015625 6.390625 
Q 39.65625 6.390625 43.53125 10.953125 
Q 47.40625 15.53125 47.40625 23.390625 
Q 47.40625 31.296875 43.53125 35.828125 
Q 39.65625 40.375 33.015625 40.375 
z
M 52.59375 71.296875 
L 52.59375 62.3125 
Q 48.875 64.0625 45.09375 64.984375 
Q 41.3125 65.921875 37.59375 65.921875 
Q 27.828125 65.921875 22.671875 59.328125 
Q 17.53125 52.734375 16.796875 39.40625 
Q 19.671875 43.65625 24.015625 45.921875 
Q 28.375 48.1875 33.59375 48.1875 
Q 44.578125 48.1875 50.953125 41.515625 
Q 57.328125 34.859375 57.328125 23.390625 
Q 57.328125 12.15625 50.6875 5.359375 
Q 44.046875 -1.421875 33.015625 -1.421875 
Q 20.359375 -1.421875 13.671875 8.265625 
Q 6.984375 17.96875 6.984375 36.375 
Q 6.984375 53.65625 15.1875 63.9375 
Q 23.390625 74.21875 37.203125 74.21875 
Q 40.921875 74.21875 44.703125 73.484375 
Q 48.484375 72.75 52.59375 71.296875 
z
" id="DejaVuSans-54"/>
      </defs>
      <g transform="translate(20.878125 101.475472)scale(0.08 -0.08)">
       <use xlink:href="#DejaVuSans-48"/>
       <use x="63.623047" xlink:href="#DejaVuSans-46"/>
       <use x="95.410156" xlink:href="#DejaVuSans-54"/>
      </g>
     </g>
    </g>
    <g id="ytick_8">
     <g id="line2d_8">
      <path clip-path="url(#pb75442b8f8)" d="M 40.600625 69.177103 
L 993.140625 69.177103 
" style="fill:none;stroke:#dedede;stroke-linecap:square;"/>
     </g>
     <g id="text_15">
      <!-- 0.7 -->
      <defs>
       <path d="M 8.203125 72.90625 
L 55.078125 72.90625 
L 55.078125 68.703125 
L 28.609375 0 
L 18.3125 0 
L 43.21875 64.59375 
L 8.203125 64.59375 
z
" id="DejaVuSans-55"/>
      </defs>
      <g transform="translate(20.878125 72.216478)scale(0.08 -0.08)">
       <use xlink:href="#DejaVuSans-48"/>
       <use x="63.623047" xlink:href="#DejaVuSans-46"/>
       <use x="95.410156" xlink:href="#DejaVuSans-55"/>
      </g>
     </g>
    </g>
    <g id="ytick_9">
     <g id="line2d_9">
      <path clip-path="url(#pb75442b8f8)" d="M 40.600625 39.918109 
L 993.140625 39.918109 
" style="fill:none;stroke:#dedede;stroke-linecap:square;"/>
     </g>
     <g id="text_16">
      <!-- 0.8 -->
      <defs>
       <path d="M 31.78125 34.625 
Q 24.75 34.625 20.71875 30.859375 
Q 16.703125 27.09375 16.703125 20.515625 
Q 16.703125 13.921875 20.71875 10.15625 
Q 24.75 6.390625 31.78125 6.390625 
Q 38.8125 6.390625 42.859375 10.171875 
Q 46.921875 13.96875 46.921875 20.515625 
Q 46.921875 27.09375 42.890625 30.859375 
Q 38.875 34.625 31.78125 34.625 
z
M 21.921875 38.8125 
Q 15.578125 40.375 12.03125 44.71875 
Q 8.5 49.078125 8.5 55.328125 
Q 8.5 64.0625 14.71875 69.140625 
Q 20.953125 74.21875 31.78125 74.21875 
Q 42.671875 74.21875 48.875 69.140625 
Q 55.078125 64.0625 55.078125 55.328125 
Q 55.078125 49.078125 51.53125 44.71875 
Q 48 40.375 41.703125 38.8125 
Q 48.828125 37.15625 52.796875 32.3125 
Q 56.78125 27.484375 56.78125 20.515625 
Q 56.78125 9.90625 50.3125 4.234375 
Q 43.84375 -1.421875 31.78125 -1.421875 
Q 19.734375 -1.421875 13.25 4.234375 
Q 6.78125 9.90625 6.78125 20.515625 
Q 6.78125 27.484375 10.78125 32.3125 
Q 14.796875 37.15625 21.921875 38.8125 
z
M 18.3125 54.390625 
Q 18.3125 48.734375 21.84375 45.5625 
Q 25.390625 42.390625 31.78125 42.390625 
Q 38.140625 42.390625 41.71875 45.5625 
Q 45.3125 48.734375 45.3125 54.390625 
Q 45.3125 60.0625 41.71875 63.234375 
Q 38.140625 66.40625 31.78125 66.40625 
Q 25.390625 66.40625 21.84375 63.234375 
Q 18.3125 60.0625 18.3125 54.390625 
z
" id="DejaVuSans-56"/>
      </defs>
      <g transform="translate(20.878125 42.957484)scale(0.08 -0.08)">
       <use xlink:href="#DejaVuSans-48"/>
       <use x="63.623047" xlink:href="#DejaVuSans-46"/>
       <use x="95.410156" xlink:href="#DejaVuSans-56"/>
      </g>
     </g>
    </g>
    <g id="text_17">
     <!-- Read percent -->
     <defs>
      <path d="M 44.390625 34.1875 
Q 47.5625 33.109375 50.5625 29.59375 
Q 53.5625 26.078125 56.59375 19.921875 
L 66.609375 0 
L 56 0 
L 46.6875 18.703125 
Q 43.0625 26.03125 39.671875 28.421875 
Q 36.28125 30.8125 30.421875 30.8125 
L 19.671875 30.8125 
L 19.671875 0 
L 9.8125 0 
L 9.8125 72.90625 
L 32.078125 72.90625 
Q 44.578125 72.90625 50.734375 67.671875 
Q 56.890625 62.453125 56.890625 51.90625 
Q 56.890625 45.015625 53.6875 40.46875 
Q 50.484375 35.9375 44.390625 34.1875 
z
M 19.671875 64.796875 
L 19.671875 38.921875 
L 32.078125 38.921875 
Q 39.203125 38.921875 42.84375 42.21875 
Q 46.484375 45.515625 46.484375 51.90625 
Q 46.484375 58.296875 42.84375 61.546875 
Q 39.203125 64.796875 32.078125 64.796875 
z
" id="DejaVuSans-82"/>
      <path d="M 34.28125 27.484375 
Q 23.390625 27.484375 19.1875 25 
Q 14.984375 22.515625 14.984375 16.5 
Q 14.984375 11.71875 18.140625 8.90625 
Q 21.296875 6.109375 26.703125 6.109375 
Q 34.1875 6.109375 38.703125 11.40625 
Q 43.21875 16.703125 43.21875 25.484375 
L 43.21875 27.484375 
z
M 52.203125 31.203125 
L 52.203125 0 
L 43.21875 0 
L 43.21875 8.296875 
Q 40.140625 3.328125 35.546875 0.953125 
Q 30.953125 -1.421875 24.3125 -1.421875 
Q 15.921875 -1.421875 10.953125 3.296875 
Q 6 8.015625 6 15.921875 
Q 6 25.140625 12.171875 29.828125 
Q 18.359375 34.515625 30.609375 34.515625 
L 43.21875 34.515625 
L 43.21875 35.40625 
Q 43.21875 41.609375 39.140625 45 
Q 35.0625 48.390625 27.6875 48.390625 
Q 23 48.390625 18.546875 47.265625 
Q 14.109375 46.140625 10.015625 43.890625 
L 10.015625 52.203125 
Q 14.9375 54.109375 19.578125 55.046875 
Q 24.21875 56 28.609375 56 
Q 40.484375 56 46.34375 49.84375 
Q 52.203125 43.703125 52.203125 31.203125 
z
" id="DejaVuSans-97"/>
      <path d="M 45.40625 46.390625 
L 45.40625 75.984375 
L 54.390625 75.984375 
L 54.390625 0 
L 45.40625 0 
L 45.40625 8.203125 
Q 42.578125 3.328125 38.25 0.953125 
Q 33.9375 -1.421875 27.875 -1.421875 
Q 17.96875 -1.421875 11.734375 6.484375 
Q 5.515625 14.40625 5.515625 27.296875 
Q 5.515625 40.1875 11.734375 48.09375 
Q 17.96875 56 27.875 56 
Q 33.9375 56 38.25 53.625 
Q 42.578125 51.265625 45.40625 46.390625 
z
M 14.796875 27.296875 
Q 14.796875 17.390625 18.875 11.75 
Q 22.953125 6.109375 30.078125 6.109375 
Q 37.203125 6.109375 41.296875 11.75 
Q 45.40625 17.390625 45.40625 27.296875 
Q 45.40625 37.203125 41.296875 42.84375 
Q 37.203125 48.484375 30.078125 48.484375 
Q 22.953125 48.484375 18.875 42.84375 
Q 14.796875 37.203125 14.796875 27.296875 
z
" id="DejaVuSans-100"/>
      <path d="M 18.109375 8.203125 
L 18.109375 -20.796875 
L 9.078125 -20.796875 
L 9.078125 54.6875 
L 18.109375 54.6875 
L 18.109375 46.390625 
Q 20.953125 51.265625 25.265625 53.625 
Q 29.59375 56 35.59375 56 
Q 45.5625 56 51.78125 48.09375 
Q 58.015625 40.1875 58.015625 27.296875 
Q 58.015625 14.40625 51.78125 6.484375 
Q 45.5625 -1.421875 35.59375 -1.421875 
Q 29.59375 -1.421875 25.265625 0.953125 
Q 20.953125 3.328125 18.109375 8.203125 
z
M 48.6875 27.296875 
Q 48.6875 37.203125 44.609375 42.84375 
Q 40.53125 48.484375 33.40625 48.484375 
Q 26.265625 48.484375 22.1875 42.84375 
Q 18.109375 37.203125 18.109375 27.296875 
Q 18.109375 17.390625 22.1875 11.75 
Q 26.265625 6.109375 33.40625 6.109375 
Q 40.53125 6.109375 44.609375 11.75 
Q 48.6875 17.390625 48.6875 27.296875 
z
" id="DejaVuSans-112"/>
      <path d="M 48.78125 52.59375 
L 48.78125 44.1875 
Q 44.96875 46.296875 41.140625 47.34375 
Q 37.3125 48.390625 33.40625 48.390625 
Q 24.65625 48.390625 19.8125 42.84375 
Q 14.984375 37.3125 14.984375 27.296875 
Q 14.984375 17.28125 19.8125 11.734375 
Q 24.65625 6.203125 33.40625 6.203125 
Q 37.3125 6.203125 41.140625 7.25 
Q 44.96875 8.296875 48.78125 10.40625 
L 48.78125 2.09375 
Q 45.015625 0.34375 40.984375 -0.53125 
Q 36.96875 -1.421875 32.421875 -1.421875 
Q 20.0625 -1.421875 12.78125 6.34375 
Q 5.515625 14.109375 5.515625 27.296875 
Q 5.515625 40.671875 12.859375 48.328125 
Q 20.21875 56 33.015625 56 
Q 37.15625 56 41.109375 55.140625 
Q 45.0625 54.296875 48.78125 52.59375 
z
" id="DejaVuSans-99"/>
     </defs>
     <g transform="translate(14.798438 186.370835)rotate(-90)scale(0.1 -0.1)">
      <use xlink:href="#DejaVuSans-82"/>
      <use x="69.419922" xlink:href="#DejaVuSans-101"/>
      <use x="130.943359" xlink:href="#DejaVuSans-97"/>
      <use x="192.222656" xlink:href="#DejaVuSans-100"/>
      <use x="255.699219" xlink:href="#DejaVuSans-32"/>
      <use x="287.486328" xlink:href="#DejaVuSans-112"/>
      <use x="350.962891" xlink:href="#DejaVuSans-101"/>
      <use x="412.486328" xlink:href="#DejaVuSans-114"/>
      <use x="453.568359" xlink:href="#DejaVuSans-99"/>
      <use x="508.548828" xlink:href="#DejaVuSans-101"/>
      <use x="570.072266" xlink:href="#DejaVuSans-110"/>
      <use x="633.451172" xlink:href="#DejaVuSans-116"/>
     </g>
    </g>
   </g>
   <g id="line2d_10">
    <path clip-path="url(#pb75442b8f8)" d="M 83.897898 69.085747 
L 87.117026 272.320712 
L 90.336154 273.957328 
L 96.77441 273.99006 
L 99.993538 273.859131 
L 106.431794 273.99006 
L 180.47174 273.99006 
L 183.690868 200.342344 
L 186.909996 194.64692 
L 190.129124 200.14595 
L 193.348253 197.298238 
L 196.567381 199.262177 
L 199.786509 195.105173 
L 203.005637 200.866061 
L 206.224765 188.493245 
L 209.443893 191.373689 
L 212.663021 191.766476 
L 215.882149 187.87133 
L 219.101277 194.515991 
L 222.320405 195.727087 
L 225.539533 185.841927 
L 228.758661 190.031663 
L 231.97779 192.748446 
L 235.196918 190.980901 
L 238.416046 181.095741 
L 241.635174 183.223341 
L 244.854302 179.164534 
L 248.07343 186.267447 
L 251.292558 179.81918 
L 254.511686 184.76176 
L 257.730814 178.54262 
L 260.949942 177.527918 
L 264.16907 175.825837 
L 267.388199 179.328195 
L 270.607327 178.346226 
L 273.826455 173.46911 
L 277.045583 176.120428 
L 280.264711 170.654131 
L 283.483839 166.726253 
L 286.702967 171.701565 
L 289.922095 171.472439 
L 293.141223 169.639429 
L 296.360351 168.231939 
L 299.579479 178.018903 
L 302.798607 170.097682 
L 306.017736 164.99144 
L 309.236864 170.064949 
L 312.455992 169.443035 
L 315.67512 172.716267 
L 318.894248 168.199207 
L 322.113376 174.843868 
L 325.332504 171.243313 
L 328.551632 169.246641 
L 331.77076 175.203923 
L 334.989888 172.585338 
L 338.209016 170.195879 
L 341.428144 175.105726 
L 344.647273 174.221954 
L 347.866401 172.127085 
L 351.085529 176.054964 
L 354.304657 183.092412 
L 357.523785 180.211968 
L 360.742913 180.473827 
L 363.962041 182.896018 
L 367.181169 179.066337 
L 370.400297 191.11183 
L 373.619425 188.198654 
L 376.838553 189.83527 
L 380.057681 195.956213 
L 383.27681 200.14595 
L 386.495938 206.103232 
L 389.715066 210.783953 
L 392.934194 211.504064 
L 396.153322 213.598933 
L 399.37245 216.053857 
L 402.591578 217.723205 
L 405.810706 222.436659 
L 409.029834 225.971749 
L 412.248962 227.281042 
L 415.46809 227.608365 
L 421.906347 228.884925 
L 425.125475 229.965092 
L 428.344603 231.765369 
L 431.563731 234.809475 
L 434.782859 233.303788 
L 438.001987 231.470778 
L 441.221115 234.580349 
L 444.440243 232.19089 
L 447.659371 235.791445 
L 450.878499 236.773414 
L 454.097627 234.023899 
L 460.535884 232.583677 
L 463.755012 232.845536 
L 466.97414 231.929031 
L 470.193268 232.092693 
L 473.412396 229.474107 
L 476.631524 227.477436 
L 479.850652 228.033885 
L 483.06978 231.077991 
L 486.288908 228.295744 
L 489.508036 227.346506 
L 492.727164 225.120709 
L 495.946292 224.204204 
L 499.165421 224.236936 
L 502.384549 223.516825 
L 505.603677 220.930972 
L 508.822805 220.439987 
L 512.041933 213.5662 
L 515.261061 212.093246 
L 518.480189 217.363149 
L 521.699317 210.292969 
L 524.918445 211.634994 
L 528.137573 208.296297 
L 531.356701 202.175354 
L 534.575829 202.993662 
L 537.794958 197.854688 
L 541.014086 193.534022 
L 544.233214 192.781178 
L 547.452342 189.049694 
L 550.67147 181.553993 
L 553.890598 181.553993 
L 557.109726 173.796434 
L 560.328854 161.849137 
L 563.547982 156.972022 
L 566.76711 102.734571 
L 569.986238 93.995042 
L 573.205366 121.097401 
L 576.424495 114.943725 
L 579.643623 116.41668 
L 582.862751 114.321811 
L 586.081879 103.880202 
L 589.301007 107.317095 
L 592.520135 96.253571 
L 595.739263 113.503503 
L 598.958391 96.253571 
L 602.177519 93.242198 
L 605.396647 43.030822 
L 608.615775 102.210853 
L 611.834903 87.383113 
L 615.054032 91.965638 
L 618.27316 93.013072 
L 621.492288 88.659674 
L 624.711416 84.829992 
L 627.930544 98.77396 
L 631.149672 97.399203 
L 634.3688 107.120701 
L 637.587928 96.122642 
L 640.807056 94.027774 
L 644.026184 86.564805 
L 647.245312 85.877427 
L 650.46444 76.090463 
L 653.683569 80.542059 
L 656.902697 73.50461 
L 660.121825 65.092404 
L 663.340953 76.385054 
L 666.560081 83.5207 
L 669.779209 86.401144 
L 672.998337 85.451906 
L 676.217465 89.543446 
L 679.436593 79.494625 
L 682.655721 84.960922 
L 685.874849 89.412517 
L 689.093977 90.656345 
L 692.313106 84.568134 
L 695.532234 93.242198 
L 698.751362 96.155375 
L 701.97049 98.544834 
L 705.189618 94.158703 
L 708.408746 90.394487 
L 711.627874 90.001699 
L 714.847002 95.893516 
L 718.06613 99.264945 
L 721.285258 102.407247 
L 724.504386 100.999758 
L 727.723514 103.71654 
L 730.942643 97.628329 
L 734.161771 102.374515 
L 737.380899 104.109328 
L 740.600027 99.035819 
L 743.819155 100.541505 
L 747.038283 102.930964 
L 750.257411 99.690465 
L 753.476539 101.850798 
L 756.695667 114.387276 
L 759.914795 107.480757 
L 763.133923 113.896291 
L 766.353051 107.709883 
L 769.57218 109.739287 
L 772.791308 107.25163 
L 776.010436 109.411963 
L 779.229564 117.26772 
L 782.448692 106.367858 
L 785.66782 111.408635 
L 788.886948 115.729301 
L 792.106076 120.475487 
L 795.325204 119.166194 
L 798.544332 117.104058 
L 801.76346 116.547609 
L 808.201717 120.508219 
L 811.420845 116.351215 
L 814.639973 119.329856 
L 817.859101 120.770078 
L 821.078229 122.734017 
L 824.297357 125.385335 
L 827.516485 129.935127 
L 830.735613 125.31987 
L 833.954741 131.800869 
L 837.173869 127.742062 
L 840.392997 126.661895 
L 843.612126 123.846916 
L 846.831254 133.175627 
L 850.050382 126.039981 
L 853.26951 127.414739 
L 856.488638 132.357319 
L 859.707766 130.917097 
L 862.926894 133.699344 
L 866.146022 132.913768 
L 869.36515 131.931798 
L 872.584278 132.455516 
L 875.803406 139.820287 
L 879.022534 134.059399 
L 882.241663 130.524309 
L 885.460791 134.255793 
L 888.679919 137.430828 
L 891.899047 132.09546 
L 895.118175 127.447471 
L 898.337303 132.291854 
L 901.556431 126.236375 
L 904.775559 127.545668 
L 907.994687 127.15288 
L 911.213815 119.297124 
L 917.652071 117.856902 
L 920.8712 117.300452 
L 924.090328 108.757317 
L 927.309456 104.469383 
L 930.528584 110.557595 
L 933.747712 98.119314 
L 936.96684 96.482698 
L 940.185968 92.84941 
L 943.405096 86.826664 
L 946.624224 82.375069 
L 949.843352 100.705167 
L 949.843352 100.705167 
" style="fill:none;stroke:#7cb5ec;stroke-linecap:square;"/>
   </g>
   <g id="line2d_11">
    <path clip-path="url(#pb75442b8f8)" d="M 83.897898 131.734094 
L 87.117026 272.962787 
L 90.336154 273.818848 
L 96.77441 273.99006 
L 99.993538 273.904454 
L 106.431794 273.968658 
L 125.746563 273.99006 
L 180.47174 273.968658 
L 183.690868 201.07505 
L 186.909996 200.347398 
L 190.129124 201.759898 
L 193.348253 201.117853 
L 196.567381 201.417474 
L 199.786509 198.785086 
L 203.005637 198.250048 
L 206.224765 193.413302 
L 209.443893 193.327696 
L 212.663021 193.563113 
L 215.882149 195.318038 
L 219.101277 190.03186 
L 222.320405 195.360841 
L 225.539533 187.613488 
L 228.758661 190.417088 
L 231.97779 189.218602 
L 235.196918 193.220688 
L 238.416046 182.498522 
L 241.635174 185.580342 
L 244.854302 177.618973 
L 248.07343 176.099465 
L 251.292558 174.986585 
L 254.511686 178.325224 
L 257.730814 178.646247 
L 260.949942 175.157798 
L 264.16907 166.147754 
L 267.388199 173.723895 
L 270.607327 169.87162 
L 273.826455 171.262719 
L 277.045583 174.601358 
L 280.264711 167.431845 
L 283.483839 164.628245 
L 286.702967 168.394914 
L 289.922095 162.102865 
L 293.141223 166.896807 
L 296.360351 163.451161 
L 299.579479 167.77427 
L 302.798607 169.550597 
L 306.017736 161.824645 
L 309.236864 171.455333 
L 312.455992 162.402486 
L 315.67512 169.850218 
L 318.894248 165.484306 
L 322.113376 171.305522 
L 325.332504 168.929952 
L 328.551632 164.178813 
L 331.77076 164.97067 
L 334.989888 173.103251 
L 338.209016 166.040746 
L 341.428144 170.85609 
L 344.647273 167.025216 
L 347.866401 173.916509 
L 351.085529 170.791886 
L 354.304657 175.692836 
L 357.523785 174.387342 
L 360.742913 181.471249 
L 363.962041 174.644161 
L 367.181169 175.650033 
L 370.400297 184.938296 
L 373.619425 184.467463 
L 376.838553 187.592086 
L 380.057681 191.551369 
L 383.27681 197.907623 
L 386.495938 200.283193 
L 389.715066 205.826189 
L 392.934194 207.195887 
L 396.153322 211.390587 
L 399.37245 207.088879 
L 402.591578 216.248734 
L 405.810706 221.51351 
L 409.029834 223.675065 
L 412.248962 221.855935 
L 415.46809 226.906695 
L 418.687218 224.295709 
L 421.906347 226.350256 
L 425.125475 231.015789 
L 428.344603 230.823175 
L 431.563731 231.401017 
L 434.782859 231.508024 
L 438.001987 229.881508 
L 444.440243 233.027533 
L 447.659371 233.113139 
L 450.878499 232.257078 
L 454.097627 232.578101 
L 457.316755 233.13454 
L 460.535884 232.920525 
L 463.755012 231.743441 
L 466.97414 229.795902 
L 470.193268 229.496281 
L 473.412396 227.206317 
L 476.631524 226.542869 
L 479.850652 227.591544 
L 483.06978 226.542869 
L 486.288908 224.937755 
L 489.508036 226.286051 
L 492.727164 223.782072 
L 495.946292 223.289837 
L 499.165421 222.583587 
L 502.384549 220.743055 
L 505.603677 220.208017 
L 512.041933 214.151384 
L 515.261061 214.900437 
L 521.699317 210.106495 
L 524.918445 208.030547 
L 528.137573 206.104409 
L 531.356701 204.370885 
L 534.575829 199.041904 
L 537.794958 197.329782 
L 541.014086 189.240004 
L 544.233214 192.364627 
L 547.452342 183.632803 
L 550.67147 179.630717 
L 553.890598 174.365941 
L 557.109726 173.467077 
L 560.328854 162.402486 
L 563.547982 157.736953 
L 566.76711 118.422343 
L 569.986238 105.08919 
L 573.205366 118.65776 
L 576.424495 114.249045 
L 579.643623 112.558324 
L 582.862751 114.634273 
L 586.081879 109.134079 
L 589.301007 111.424043 
L 592.520135 102.221386 
L 595.739263 103.355667 
L 598.958391 96.057745 
L 602.177519 98.069489 
L 605.396647 54.388967 
L 608.615775 88.588611 
L 611.834903 84.244101 
L 615.054032 89.12365 
L 618.27316 87.432929 
L 621.492288 80.563038 
L 624.711416 76.475346 
L 627.930544 87.17611 
L 631.149672 88.888233 
L 634.3688 88.246187 
L 637.587928 93.403955 
L 640.807056 88.117778 
L 644.026184 94.17441 
L 647.245312 79.129135 
L 650.46444 76.239929 
L 653.683569 69.584053 
L 656.902697 62.029313 
L 660.121825 59.268516 
L 663.340953 62.949579 
L 666.560081 68.021742 
L 669.779209 80.862659 
L 672.998337 77.438415 
L 676.217465 77.138793 
L 679.436593 77.37421 
L 682.655721 79.599969 
L 685.874849 71.874017 
L 689.093977 77.267202 
L 692.313106 79.963795 
L 695.532234 93.617971 
L 698.751362 89.080847 
L 701.97049 93.168539 
L 705.189618 90.471946 
L 708.408746 85.892019 
L 711.627874 89.038043 
L 714.847002 86.448458 
L 718.06613 92.398084 
L 721.285258 97.042215 
L 724.504386 91.263802 
L 727.723514 94.837858 
L 730.942643 89.530279 
L 734.161771 99.524793 
L 737.380899 102.991841 
L 740.600027 101.921764 
L 743.819155 96.635586 
L 747.038283 103.184454 
L 750.257411 105.281804 
L 753.476539 104.468546 
L 756.695667 112.301506 
L 759.914795 107.314949 
L 763.133923 111.424043 
L 766.353051 106.672904 
L 769.57218 108.278018 
L 772.791308 112.344309 
L 776.010436 109.818928 
L 779.229564 109.883133 
L 782.448692 110.54658 
L 785.66782 110.418171 
L 788.886948 118.893177 
L 792.106076 121.73958 
L 795.325204 115.918364 
L 798.544332 115.661546 
L 801.76346 119.578026 
L 804.982589 119.877647 
L 808.201717 115.811357 
L 811.420845 125.185226 
L 814.639973 122.788255 
L 817.859101 123.4089 
L 821.078229 121.290148 
L 824.297357 122.488634 
L 827.516485 127.303978 
L 830.735613 126.041288 
L 833.954741 130.107578 
L 837.173869 135.372354 
L 840.392997 131.584284 
L 843.612126 131.092049 
L 846.831254 132.119322 
L 850.050382 133.317808 
L 853.26951 133.788641 
L 856.488638 139.37444 
L 859.707766 136.399628 
L 862.926894 134.280876 
L 869.36515 139.460047 
L 872.584278 139.074819 
L 875.803406 138.325766 
L 879.022534 137.4055 
L 882.241663 140.701335 
L 885.460791 146.287134 
L 888.679919 142.86289 
L 891.899047 141.428987 
L 895.118175 142.242245 
L 898.337303 142.370655 
L 901.556431 136.100006 
L 904.775559 140.123494 
L 907.994687 134.730309 
L 911.213815 133.018186 
L 914.432943 137.533909 
L 917.652071 136.421029 
L 920.8712 134.259475 
L 924.090328 131.734094 
L 927.309456 129.722351 
L 930.528584 126.340909 
L 933.747712 122.745452 
L 936.96684 118.786169 
L 940.185968 117.031244 
L 943.405096 113.949424 
L 946.624224 116.774425 
L 949.843352 126.940152 
L 949.843352 126.940152 
" style="fill:none;stroke:#434348;stroke-linecap:square;"/>
   </g>
   <g id="line2d_12">
    <path clip-path="url(#pb75442b8f8)" d="M 83.897898 144.971746 
L 87.117026 273.253759 
L 90.336154 273.861207 
L 96.77441 273.971652 
L 99.993538 273.879615 
L 106.431794 273.99006 
L 180.47174 273.971652 
L 183.690868 205.82701 
L 186.909996 201.795763 
L 190.129124 203.45244 
L 193.348253 204.833004 
L 196.567381 202.937029 
L 199.786509 201.611688 
L 203.005637 202.035061 
L 206.224765 195.831726 
L 209.443893 196.77051 
L 212.663021 189.425909 
L 215.882149 195.500391 
L 219.101277 190.272655 
L 222.320405 194.175049 
L 225.539533 188.965721 
L 228.758661 199.642083 
L 231.97779 187.088154 
L 235.196918 190.438322 
L 238.416046 183.001684 
L 241.635174 184.621546 
L 244.854302 178.123691 
L 248.07343 177.553058 
L 251.292558 173.595441 
L 254.511686 178.528656 
L 257.730814 177.111277 
L 260.949942 172.380544 
L 264.16907 167.023956 
L 267.388199 167.557774 
L 270.607327 165.127981 
L 273.826455 164.557348 
L 277.045583 167.171216 
L 280.264711 166.876696 
L 283.483839 168.294075 
L 286.702967 165.698614 
L 289.922095 157.010264 
L 293.141223 163.710602 
L 296.360351 162.514113 
L 299.579479 166.048357 
L 302.798607 166.453323 
L 306.017736 162.458891 
L 309.236864 166.011542 
L 312.455992 155.721738 
L 315.67512 161.72259 
L 318.894248 161.004696 
L 322.113376 164.870276 
L 325.332504 160.157951 
L 328.551632 159.200759 
L 331.77076 156.623706 
L 334.989888 164.925498 
L 338.209016 156.734152 
L 341.428144 165.937912 
L 344.647273 161.740997 
L 347.866401 171.404946 
L 351.085529 165.367279 
L 354.304657 171.460168 
L 357.523785 173.135253 
L 360.742913 170.061197 
L 363.962041 176.614274 
L 367.181169 170.061197 
L 370.400297 177.626688 
L 373.619425 178.547064 
L 376.838553 182.541496 
L 380.057681 184.106135 
L 383.27681 190.696028 
L 386.495938 195.923764 
L 389.715066 198.151074 
L 392.934194 205.090709 
L 396.153322 206.581718 
L 399.37245 206.397643 
L 402.591578 212.196012 
L 405.810706 214.570582 
L 409.029834 219.651058 
L 412.248962 218.233679 
L 415.46809 222.025628 
L 418.687218 219.098833 
L 421.906347 224.529051 
L 425.125475 224.105678 
L 428.344603 225.817578 
L 431.563731 226.829991 
L 434.782859 226.701139 
L 438.001987 228.541891 
L 441.221115 228.854819 
L 444.440243 228.505076 
L 447.659371 229.241377 
L 450.878499 229.443859 
L 454.097627 229.793602 
L 457.316755 230.272198 
L 460.535884 229.95927 
L 463.755012 228.17374 
L 466.97414 227.529477 
L 470.193268 225.062869 
L 473.412396 226.590694 
L 476.631524 222.798744 
L 479.850652 226.866806 
L 483.06978 224.032048 
L 486.288908 224.841979 
L 489.508036 224.142493 
L 492.727164 222.191296 
L 495.946292 220.9764 
L 499.165421 220.240099 
L 502.384549 220.037616 
L 508.822805 215.159623 
L 512.041933 213.429316 
L 515.261061 212.06716 
L 518.480189 211.919899 
L 521.699317 210.336853 
L 524.918445 206.821016 
L 528.137573 202.771361 
L 531.356701 203.30518 
L 534.575829 196.181469 
L 537.794958 197.304328 
L 541.014086 189.830874 
L 547.452342 180.001258 
L 550.67147 180.019666 
L 553.890598 171.699466 
L 557.109726 170.153234 
L 560.328854 162.422076 
L 563.547982 146.49957 
L 566.76711 118.446508 
L 569.986238 103.444379 
L 573.205366 116.568941 
L 576.424495 113.955073 
L 579.643623 113.697368 
L 582.862751 111.67254 
L 586.081879 99.100204 
L 589.301007 109.29797 
L 592.520135 97.922122 
L 595.739263 102.376742 
L 598.958391 98.069382 
L 602.177519 90.338224 
L 605.396647 54.259483 
L 608.615775 89.859628 
L 611.834903 88.037283 
L 615.054032 86.564682 
L 618.27316 86.80398 
L 621.492288 82.515027 
L 624.711416 70.347656 
L 627.930544 88.294989 
L 631.149672 87.116907 
L 634.3688 92.620756 
L 637.587928 88.865622 
L 640.807056 85.883604 
L 644.026184 91.866048 
L 647.245312 88.294989 
L 650.46444 71.87548 
L 653.683569 72.02274 
L 656.902697 62.156309 
L 660.121825 57.131056 
L 663.340953 67.807418 
L 666.560081 71.304847 
L 669.779209 79.146451 
L 672.998337 80.140457 
L 676.217465 77.489774 
L 679.436593 83.416996 
L 682.655721 85.699528 
L 685.874849 78.851931 
L 689.093977 77.195254 
L 692.313106 78.354927 
L 695.532234 84.87119 
L 698.751362 88.479064 
L 701.97049 91.718788 
L 705.189618 89.381033 
L 708.408746 83.306551 
L 711.627874 89.233772 
L 714.847002 92.234198 
L 718.06613 90.872042 
L 721.285258 98.45594 
L 724.504386 90.559114 
L 727.723514 94.848066 
L 730.942643 94.535138 
L 734.161771 105.542836 
L 737.380899 105.193093 
L 740.600027 102.744893 
L 743.819155 105.634873 
L 747.038283 100.186247 
L 750.257411 102.450372 
L 753.476539 105.855764 
L 756.695667 112.187951 
L 759.914795 115.096339 
L 763.133923 110.862609 
L 766.353051 110.347199 
L 769.57218 108.432817 
L 776.010436 113.402847 
L 779.229564 112.464064 
L 782.448692 112.795399 
L 785.66782 106.518434 
L 788.886948 115.409267 
L 792.106076 120.637003 
L 795.325204 118.041543 
L 801.76346 118.446508 
L 804.982589 119.569367 
L 808.201717 121.796677 
L 811.420845 119.550959 
L 814.639973 127.134858 
L 817.859101 121.207636 
L 821.078229 127.079635 
L 824.297357 128.60746 
L 827.516485 133.522268 
L 830.735613 129.601466 
L 833.954741 131.607886 
L 837.173869 133.190932 
L 840.392997 134.479459 
L 843.612126 134.442644 
L 846.831254 132.601892 
L 850.050382 136.577916 
L 853.26951 135.086907 
L 856.488638 139.357452 
L 859.707766 141.235019 
L 862.926894 143.499144 
L 866.146022 138.786819 
L 869.36515 147.806504 
L 872.584278 142.173803 
L 875.803406 148.174654 
L 879.022534 143.296661 
L 882.241663 145.542379 
L 885.460791 143.130994 
L 888.679919 144.180222 
L 891.899047 147.051796 
L 895.118175 147.143833 
L 898.337303 146.057789 
L 901.556431 144.364298 
L 904.775559 145.818492 
L 907.994687 143.167809 
L 911.213815 143.775257 
L 914.432943 145.836899 
L 917.652071 144.290667 
L 920.8712 144.898116 
L 924.090328 140.480311 
L 927.309456 140.811646 
L 930.528584 137.792813 
L 933.747712 138.934079 
L 936.96684 136.541101 
L 940.185968 137.001289 
L 943.405096 131.35018 
L 946.624224 132.528262 
L 949.843352 146.315495 
L 949.843352 146.315495 
" style="fill:none;stroke:#90ed7d;stroke-linecap:square;"/>
   </g>
   <g id="line2d_13">
    <path clip-path="url(#pb75442b8f8)" d="M 40.600625 273.99006 
L 993.140625 273.99006 
" style="fill:none;stroke:#dedede;stroke-linecap:square;stroke-width:2;"/>
   </g>
   <g id="text_18">
    <!-- Fastp: Insert Size Distribution -->
    <defs>
     <path d="M 9.8125 72.90625 
L 51.703125 72.90625 
L 51.703125 64.59375 
L 19.671875 64.59375 
L 19.671875 43.109375 
L 48.578125 43.109375 
L 48.578125 34.8125 
L 19.671875 34.8125 
L 19.671875 0 
L 9.8125 0 
z
" id="DejaVuSans-70"/>
     <path d="M 11.71875 12.40625 
L 22.015625 12.40625 
L 22.015625 0 
L 11.71875 0 
z
M 11.71875 51.703125 
L 22.015625 51.703125 
L 22.015625 39.3125 
L 11.71875 39.3125 
z
" id="DejaVuSans-58"/>
     <path d="M 53.515625 70.515625 
L 53.515625 60.890625 
Q 47.90625 63.578125 42.921875 64.890625 
Q 37.9375 66.21875 33.296875 66.21875 
Q 25.25 66.21875 20.875 63.09375 
Q 16.5 59.96875 16.5 54.203125 
Q 16.5 49.359375 19.40625 46.890625 
Q 22.3125 44.4375 30.421875 42.921875 
L 36.375 41.703125 
Q 47.40625 39.59375 52.65625 34.296875 
Q 57.90625 29 57.90625 20.125 
Q 57.90625 9.515625 50.796875 4.046875 
Q 43.703125 -1.421875 29.984375 -1.421875 
Q 24.8125 -1.421875 18.96875 -0.25 
Q 13.140625 0.921875 6.890625 3.21875 
L 6.890625 13.375 
Q 12.890625 10.015625 18.65625 8.296875 
Q 24.421875 6.59375 29.984375 6.59375 
Q 38.421875 6.59375 43.015625 9.90625 
Q 47.609375 13.234375 47.609375 19.390625 
Q 47.609375 24.75 44.3125 27.78125 
Q 41.015625 30.8125 33.5 32.328125 
L 27.484375 33.5 
Q 16.453125 35.6875 11.515625 40.375 
Q 6.59375 45.0625 6.59375 53.421875 
Q 6.59375 63.09375 13.40625 68.65625 
Q 20.21875 74.21875 32.171875 74.21875 
Q 37.3125 74.21875 42.625 73.28125 
Q 47.953125 72.359375 53.515625 70.515625 
z
" id="DejaVuSans-83"/>
     <path d="M 19.671875 64.796875 
L 19.671875 8.109375 
L 31.59375 8.109375 
Q 46.6875 8.109375 53.6875 14.9375 
Q 60.6875 21.78125 60.6875 36.53125 
Q 60.6875 51.171875 53.6875 57.984375 
Q 46.6875 64.796875 31.59375 64.796875 
z
M 9.8125 72.90625 
L 30.078125 72.90625 
Q 51.265625 72.90625 61.171875 64.09375 
Q 71.09375 55.28125 71.09375 36.53125 
Q 71.09375 17.671875 61.125 8.828125 
Q 51.171875 0 30.078125 0 
L 9.8125 0 
z
" id="DejaVuSans-68"/>
     <path d="M 48.6875 27.296875 
Q 48.6875 37.203125 44.609375 42.84375 
Q 40.53125 48.484375 33.40625 48.484375 
Q 26.265625 48.484375 22.1875 42.84375 
Q 18.109375 37.203125 18.109375 27.296875 
Q 18.109375 17.390625 22.1875 11.75 
Q 26.265625 6.109375 33.40625 6.109375 
Q 40.53125 6.109375 44.609375 11.75 
Q 48.6875 17.390625 48.6875 27.296875 
z
M 18.109375 46.390625 
Q 20.953125 51.265625 25.265625 53.625 
Q 29.59375 56 35.59375 56 
Q 45.5625 56 51.78125 48.09375 
Q 58.015625 40.1875 58.015625 27.296875 
Q 58.015625 14.40625 51.78125 6.484375 
Q 45.5625 -1.421875 35.59375 -1.421875 
Q 29.59375 -1.421875 25.265625 0.953125 
Q 20.953125 3.328125 18.109375 8.203125 
L 18.109375 0 
L 9.078125 0 
L 9.078125 75.984375 
L 18.109375 75.984375 
z
" id="DejaVuSans-98"/>
     <path d="M 8.5 21.578125 
L 8.5 54.6875 
L 17.484375 54.6875 
L 17.484375 21.921875 
Q 17.484375 14.15625 20.5 10.265625 
Q 23.53125 6.390625 29.59375 6.390625 
Q 36.859375 6.390625 41.078125 11.03125 
Q 45.3125 15.671875 45.3125 23.6875 
L 45.3125 54.6875 
L 54.296875 54.6875 
L 54.296875 0 
L 45.3125 0 
L 45.3125 8.40625 
Q 42.046875 3.421875 37.71875 1 
Q 33.40625 -1.421875 27.6875 -1.421875 
Q 18.265625 -1.421875 13.375 4.4375 
Q 8.5 10.296875 8.5 21.578125 
z
M 31.109375 56 
z
" id="DejaVuSans-117"/>
     <path d="M 30.609375 48.390625 
Q 23.390625 48.390625 19.1875 42.75 
Q 14.984375 37.109375 14.984375 27.296875 
Q 14.984375 17.484375 19.15625 11.84375 
Q 23.34375 6.203125 30.609375 6.203125 
Q 37.796875 6.203125 41.984375 11.859375 
Q 46.1875 17.53125 46.1875 27.296875 
Q 46.1875 37.015625 41.984375 42.703125 
Q 37.796875 48.390625 30.609375 48.390625 
z
M 30.609375 56 
Q 42.328125 56 49.015625 48.375 
Q 55.71875 40.765625 55.71875 27.296875 
Q 55.71875 13.875 49.015625 6.21875 
Q 42.328125 -1.421875 30.609375 -1.421875 
Q 18.84375 -1.421875 12.171875 6.21875 
Q 5.515625 13.875 5.515625 27.296875 
Q 5.515625 40.765625 12.171875 48.375 
Q 18.84375 56 30.609375 56 
z
" id="DejaVuSans-111"/>
    </defs>
    <g transform="translate(398.635625 19.3575)scale(0.16 -0.16)">
     <use xlink:href="#DejaVuSans-70"/>
     <use x="57.378906" xlink:href="#DejaVuSans-97"/>
     <use x="118.658203" xlink:href="#DejaVuSans-115"/>
     <use x="170.757812" xlink:href="#DejaVuSans-116"/>
     <use x="209.966797" xlink:href="#DejaVuSans-112"/>
     <use x="273.443359" xlink:href="#DejaVuSans-58"/>
     <use x="307.134766" xlink:href="#DejaVuSans-32"/>
     <use x="338.921875" xlink:href="#DejaVuSans-73"/>
     <use x="368.414062" xlink:href="#DejaVuSans-110"/>
     <use x="431.792969" xlink:href="#DejaVuSans-115"/>
     <use x="483.892578" xlink:href="#DejaVuSans-101"/>
     <use x="545.416016" xlink:href="#DejaVuSans-114"/>
     <use x="586.529297" xlink:href="#DejaVuSans-116"/>
     <use x="625.738281" xlink:href="#DejaVuSans-32"/>
     <use x="657.525391" xlink:href="#DejaVuSans-83"/>
     <use x="721.001953" xlink:href="#DejaVuSans-105"/>
     <use x="748.785156" xlink:href="#DejaVuSans-122"/>
     <use x="801.275391" xlink:href="#DejaVuSans-101"/>
     <use x="862.798828" xlink:href="#DejaVuSans-32"/>
     <use x="894.585938" xlink:href="#DejaVuSans-68"/>
     <use x="971.587891" xlink:href="#DejaVuSans-105"/>
     <use x="999.371094" xlink:href="#DejaVuSans-115"/>
     <use x="1051.470703" xlink:href="#DejaVuSans-116"/>
     <use x="1090.679688" xlink:href="#DejaVuSans-114"/>
     <use x="1131.792969" xlink:href="#DejaVuSans-105"/>
     <use x="1159.576172" xlink:href="#DejaVuSans-98"/>
     <use x="1223.052734" xlink:href="#DejaVuSans-117"/>
     <use x="1286.431641" xlink:href="#DejaVuSans-116"/>
     <use x="1325.640625" xlink:href="#DejaVuSans-105"/>
     <use x="1353.423828" xlink:href="#DejaVuSans-111"/>
     <use x="1414.605469" xlink:href="#DejaVuSans-110"/>
    </g>
   </g>
   <g id="legend_1">
    <g id="line2d_14">
     <path d="M 47.800625 315.455394 
L 63.800625 315.455394 
" style="fill:none;stroke:#7cb5ec;stroke-linecap:square;"/>
    </g>
    <g id="line2d_15"/>
    <g id="text_19">
     <!-- Gma-CRag_001-Ex1-11C-ssl-1-1 -->
     <defs>
      <path d="M 59.515625 10.40625 
L 59.515625 29.984375 
L 43.40625 29.984375 
L 43.40625 38.09375 
L 69.28125 38.09375 
L 69.28125 6.78125 
Q 63.578125 2.734375 56.6875 0.65625 
Q 49.8125 -1.421875 42 -1.421875 
Q 24.90625 -1.421875 15.25 8.5625 
Q 5.609375 18.5625 5.609375 36.375 
Q 5.609375 54.25 15.25 64.234375 
Q 24.90625 74.21875 42 74.21875 
Q 49.125 74.21875 55.546875 72.453125 
Q 61.96875 70.703125 67.390625 67.28125 
L 67.390625 56.78125 
Q 61.921875 61.421875 55.765625 63.765625 
Q 49.609375 66.109375 42.828125 66.109375 
Q 29.4375 66.109375 22.71875 58.640625 
Q 16.015625 51.171875 16.015625 36.375 
Q 16.015625 21.625 22.71875 14.15625 
Q 29.4375 6.6875 42.828125 6.6875 
Q 48.046875 6.6875 52.140625 7.59375 
Q 56.25 8.5 59.515625 10.40625 
z
" id="DejaVuSans-71"/>
      <path d="M 52 44.1875 
Q 55.375 50.25 60.0625 53.125 
Q 64.75 56 71.09375 56 
Q 79.640625 56 84.28125 50.015625 
Q 88.921875 44.046875 88.921875 33.015625 
L 88.921875 0 
L 79.890625 0 
L 79.890625 32.71875 
Q 79.890625 40.578125 77.09375 44.375 
Q 74.3125 48.1875 68.609375 48.1875 
Q 61.625 48.1875 57.5625 43.546875 
Q 53.515625 38.921875 53.515625 30.90625 
L 53.515625 0 
L 44.484375 0 
L 44.484375 32.71875 
Q 44.484375 40.625 41.703125 44.40625 
Q 38.921875 48.1875 33.109375 48.1875 
Q 26.21875 48.1875 22.15625 43.53125 
Q 18.109375 38.875 18.109375 30.90625 
L 18.109375 0 
L 9.078125 0 
L 9.078125 54.6875 
L 18.109375 54.6875 
L 18.109375 46.1875 
Q 21.1875 51.21875 25.484375 53.609375 
Q 29.78125 56 35.6875 56 
Q 41.65625 56 45.828125 52.96875 
Q 50 49.953125 52 44.1875 
z
" id="DejaVuSans-109"/>
      <path d="M 4.890625 31.390625 
L 31.203125 31.390625 
L 31.203125 23.390625 
L 4.890625 23.390625 
z
" id="DejaVuSans-45"/>
      <path d="M 64.40625 67.28125 
L 64.40625 56.890625 
Q 59.421875 61.53125 53.78125 63.8125 
Q 48.140625 66.109375 41.796875 66.109375 
Q 29.296875 66.109375 22.65625 58.46875 
Q 16.015625 50.828125 16.015625 36.375 
Q 16.015625 21.96875 22.65625 14.328125 
Q 29.296875 6.6875 41.796875 6.6875 
Q 48.140625 6.6875 53.78125 8.984375 
Q 59.421875 11.28125 64.40625 15.921875 
L 64.40625 5.609375 
Q 59.234375 2.09375 53.4375 0.328125 
Q 47.65625 -1.421875 41.21875 -1.421875 
Q 24.65625 -1.421875 15.125 8.703125 
Q 5.609375 18.84375 5.609375 36.375 
Q 5.609375 53.953125 15.125 64.078125 
Q 24.65625 74.21875 41.21875 74.21875 
Q 47.75 74.21875 53.53125 72.484375 
Q 59.328125 70.75 64.40625 67.28125 
z
" id="DejaVuSans-67"/>
      <path d="M 45.40625 27.984375 
Q 45.40625 37.75 41.375 43.109375 
Q 37.359375 48.484375 30.078125 48.484375 
Q 22.859375 48.484375 18.828125 43.109375 
Q 14.796875 37.75 14.796875 27.984375 
Q 14.796875 18.265625 18.828125 12.890625 
Q 22.859375 7.515625 30.078125 7.515625 
Q 37.359375 7.515625 41.375 12.890625 
Q 45.40625 18.265625 45.40625 27.984375 
z
M 54.390625 6.78125 
Q 54.390625 -7.171875 48.1875 -13.984375 
Q 42 -20.796875 29.203125 -20.796875 
Q 24.46875 -20.796875 20.265625 -20.09375 
Q 16.0625 -19.390625 12.109375 -17.921875 
L 12.109375 -9.1875 
Q 16.0625 -11.328125 19.921875 -12.34375 
Q 23.78125 -13.375 27.78125 -13.375 
Q 36.625 -13.375 41.015625 -8.765625 
Q 45.40625 -4.15625 45.40625 5.171875 
L 45.40625 9.625 
Q 42.625 4.78125 38.28125 2.390625 
Q 33.9375 0 27.875 0 
Q 17.828125 0 11.671875 7.65625 
Q 5.515625 15.328125 5.515625 27.984375 
Q 5.515625 40.671875 11.671875 48.328125 
Q 17.828125 56 27.875 56 
Q 33.9375 56 38.28125 53.609375 
Q 42.625 51.21875 45.40625 46.390625 
L 45.40625 54.6875 
L 54.390625 54.6875 
z
" id="DejaVuSans-103"/>
      <path d="M 50.984375 -16.609375 
L 50.984375 -23.578125 
L -0.984375 -23.578125 
L -0.984375 -16.609375 
z
" id="DejaVuSans-95"/>
      <path d="M 9.8125 72.90625 
L 55.90625 72.90625 
L 55.90625 64.59375 
L 19.671875 64.59375 
L 19.671875 43.015625 
L 54.390625 43.015625 
L 54.390625 34.71875 
L 19.671875 34.71875 
L 19.671875 8.296875 
L 56.78125 8.296875 
L 56.78125 0 
L 9.8125 0 
z
" id="DejaVuSans-69"/>
      <path d="M 54.890625 54.6875 
L 35.109375 28.078125 
L 55.90625 0 
L 45.3125 0 
L 29.390625 21.484375 
L 13.484375 0 
L 2.875 0 
L 24.125 28.609375 
L 4.6875 54.6875 
L 15.28125 54.6875 
L 29.78125 35.203125 
L 44.28125 54.6875 
z
" id="DejaVuSans-120"/>
      <path d="M 9.421875 75.984375 
L 18.40625 75.984375 
L 18.40625 0 
L 9.421875 0 
z
" id="DejaVuSans-108"/>
     </defs>
     <g transform="translate(70.200625 318.255394)scale(0.08 -0.08)">
      <use xlink:href="#DejaVuSans-71"/>
      <use x="77.490234" xlink:href="#DejaVuSans-109"/>
      <use x="174.902344" xlink:href="#DejaVuSans-97"/>
      <use x="236.181641" xlink:href="#DejaVuSans-45"/>
      <use x="272.265625" xlink:href="#DejaVuSans-67"/>
      <use x="342.089844" xlink:href="#DejaVuSans-82"/>
      <use x="411.541016" xlink:href="#DejaVuSans-97"/>
      <use x="472.820312" xlink:href="#DejaVuSans-103"/>
      <use x="536.296875" xlink:href="#DejaVuSans-95"/>
      <use x="586.296875" xlink:href="#DejaVuSans-48"/>
      <use x="649.919922" xlink:href="#DejaVuSans-48"/>
      <use x="713.542969" xlink:href="#DejaVuSans-49"/>
      <use x="777.166016" xlink:href="#DejaVuSans-45"/>
      <use x="813.25" xlink:href="#DejaVuSans-69"/>
      <use x="876.433594" xlink:href="#DejaVuSans-120"/>
      <use x="935.613281" xlink:href="#DejaVuSans-49"/>
      <use x="999.236328" xlink:href="#DejaVuSans-45"/>
      <use x="1035.320312" xlink:href="#DejaVuSans-49"/>
      <use x="1098.943359" xlink:href="#DejaVuSans-49"/>
      <use x="1162.566406" xlink:href="#DejaVuSans-67"/>
      <use x="1232.390625" xlink:href="#DejaVuSans-45"/>
      <use x="1268.474609" xlink:href="#DejaVuSans-115"/>
      <use x="1320.574219" xlink:href="#DejaVuSans-115"/>
      <use x="1372.673828" xlink:href="#DejaVuSans-108"/>
      <use x="1400.457031" xlink:href="#DejaVuSans-45"/>
      <use x="1436.541016" xlink:href="#DejaVuSans-49"/>
      <use x="1500.164062" xlink:href="#DejaVuSans-45"/>
      <use x="1536.248047" xlink:href="#DejaVuSans-49"/>
     </g>
    </g>
    <g id="line2d_16">
     <path d="M 441.783125 315.455394 
L 457.783125 315.455394 
" style="fill:none;stroke:#434348;stroke-linecap:square;"/>
    </g>
    <g id="line2d_17"/>
    <g id="text_20">
     <!-- Gma-CRag_001-Ex1-12B-ssl-1-1 -->
     <defs>
      <path d="M 19.671875 34.8125 
L 19.671875 8.109375 
L 35.5 8.109375 
Q 43.453125 8.109375 47.28125 11.40625 
Q 51.125 14.703125 51.125 21.484375 
Q 51.125 28.328125 47.28125 31.5625 
Q 43.453125 34.8125 35.5 34.8125 
z
M 19.671875 64.796875 
L 19.671875 42.828125 
L 34.28125 42.828125 
Q 41.5 42.828125 45.03125 45.53125 
Q 48.578125 48.25 48.578125 53.8125 
Q 48.578125 59.328125 45.03125 62.0625 
Q 41.5 64.796875 34.28125 64.796875 
z
M 9.8125 72.90625 
L 35.015625 72.90625 
Q 46.296875 72.90625 52.390625 68.21875 
Q 58.5 63.53125 58.5 54.890625 
Q 58.5 48.1875 55.375 44.234375 
Q 52.25 40.28125 46.1875 39.3125 
Q 53.46875 37.75 57.5 32.78125 
Q 61.53125 27.828125 61.53125 20.40625 
Q 61.53125 10.640625 54.890625 5.3125 
Q 48.25 0 35.984375 0 
L 9.8125 0 
z
" id="DejaVuSans-66"/>
     </defs>
     <g transform="translate(464.183125 318.255394)scale(0.08 -0.08)">
      <use xlink:href="#DejaVuSans-71"/>
      <use x="77.490234" xlink:href="#DejaVuSans-109"/>
      <use x="174.902344" xlink:href="#DejaVuSans-97"/>
      <use x="236.181641" xlink:href="#DejaVuSans-45"/>
      <use x="272.265625" xlink:href="#DejaVuSans-67"/>
      <use x="342.089844" xlink:href="#DejaVuSans-82"/>
      <use x="411.541016" xlink:href="#DejaVuSans-97"/>
      <use x="472.820312" xlink:href="#DejaVuSans-103"/>
      <use x="536.296875" xlink:href="#DejaVuSans-95"/>
      <use x="586.296875" xlink:href="#DejaVuSans-48"/>
      <use x="649.919922" xlink:href="#DejaVuSans-48"/>
      <use x="713.542969" xlink:href="#DejaVuSans-49"/>
      <use x="777.166016" xlink:href="#DejaVuSans-45"/>
      <use x="813.25" xlink:href="#DejaVuSans-69"/>
      <use x="876.433594" xlink:href="#DejaVuSans-120"/>
      <use x="935.613281" xlink:href="#DejaVuSans-49"/>
      <use x="999.236328" xlink:href="#DejaVuSans-45"/>
      <use x="1035.320312" xlink:href="#DejaVuSans-49"/>
      <use x="1098.943359" xlink:href="#DejaVuSans-50"/>
      <use x="1162.566406" xlink:href="#DejaVuSans-66"/>
      <use x="1231.169922" xlink:href="#DejaVuSans-45"/>
      <use x="1267.253906" xlink:href="#DejaVuSans-115"/>
      <use x="1319.353516" xlink:href="#DejaVuSans-115"/>
      <use x="1371.453125" xlink:href="#DejaVuSans-108"/>
      <use x="1399.236328" xlink:href="#DejaVuSans-45"/>
      <use x="1435.320312" xlink:href="#DejaVuSans-49"/>
      <use x="1498.943359" xlink:href="#DejaVuSans-45"/>
      <use x="1535.027344" xlink:href="#DejaVuSans-49"/>
     </g>
    </g>
    <g id="line2d_18">
     <path d="M 835.668125 315.455394 
L 851.668125 315.455394 
" style="fill:none;stroke:#90ed7d;stroke-linecap:square;"/>
    </g>
    <g id="line2d_19"/>
    <g id="text_21">
     <!-- Gma-CRag_001-Ex1-13A-ssl-1-1 -->
     <defs>
      <path d="M 34.1875 63.1875 
L 20.796875 26.90625 
L 47.609375 26.90625 
z
M 28.609375 72.90625 
L 39.796875 72.90625 
L 67.578125 0 
L 57.328125 0 
L 50.6875 18.703125 
L 17.828125 18.703125 
L 11.1875 0 
L 0.78125 0 
z
" id="DejaVuSans-65"/>
     </defs>
     <g transform="translate(858.068125 318.255394)scale(0.08 -0.08)">
      <use xlink:href="#DejaVuSans-71"/>
      <use x="77.490234" xlink:href="#DejaVuSans-109"/>
      <use x="174.902344" xlink:href="#DejaVuSans-97"/>
      <use x="236.181641" xlink:href="#DejaVuSans-45"/>
      <use x="272.265625" xlink:href="#DejaVuSans-67"/>
      <use x="342.089844" xlink:href="#DejaVuSans-82"/>
      <use x="411.541016" xlink:href="#DejaVuSans-97"/>
      <use x="472.820312" xlink:href="#DejaVuSans-103"/>
      <use x="536.296875" xlink:href="#DejaVuSans-95"/>
      <use x="586.296875" xlink:href="#DejaVuSans-48"/>
      <use x="649.919922" xlink:href="#DejaVuSans-48"/>
      <use x="713.542969" xlink:href="#DejaVuSans-49"/>
      <use x="777.166016" xlink:href="#DejaVuSans-45"/>
      <use x="813.25" xlink:href="#DejaVuSans-69"/>
      <use x="876.433594" xlink:href="#DejaVuSans-120"/>
      <use x="935.613281" xlink:href="#DejaVuSans-49"/>
      <use x="999.236328" xlink:href="#DejaVuSans-45"/>
      <use x="1035.320312" xlink:href="#DejaVuSans-49"/>
      <use x="1098.943359" xlink:href="#DejaVuSans-51"/>
      <use x="1162.566406" xlink:href="#DejaVuSans-65"/>
      <use x="1230.943359" xlink:href="#DejaVuSans-45"/>
      <use x="1267.027344" xlink:href="#DejaVuSans-115"/>
      <use x="1319.126953" xlink:href="#DejaVuSans-115"/>
      <use x="1371.226562" xlink:href="#DejaVuSans-108"/>
      <use x="1399.009766" xlink:href="#DejaVuSans-45"/>
      <use x="1435.09375" xlink:href="#DejaVuSans-49"/>
      <use x="1498.716797" xlink:href="#DejaVuSans-45"/>
      <use x="1534.800781" xlink:href="#DejaVuSans-49"/>
     </g>
    </g>
   </g>
  </g>
 </g>
 <defs>
  <clipPath id="pb75442b8f8">
   <rect height="242.5072" width="952.54" x="40.600625" y="31.48286"/>
  </clipPath>
 </defs>
</svg>
