<?xml version="1.0" encoding="utf-8" standalone="no"?>
<!DOCTYPE svg PUBLIC "-//W3C//DTD SVG 1.1//EN"
  "http://www.w3.org/Graphics/SVG/1.1/DTD/svg11.dtd">
<!-- Created with matplotlib (https://matplotlib.org/) -->
<svg height="330.541644pt" version="1.1" viewBox="0 0 1000.340625 330.541644" width="1000.340625pt" xmlns="http://www.w3.org/2000/svg" xmlns:xlink="http://www.w3.org/1999/xlink">
 <defs>
  <style type="text/css">
*{stroke-linecap:butt;stroke-linejoin:round;}
  </style>
 </defs>
 <g id="figure_1">
  <g id="axes_1">
   <g id="patch_1">
    <path d="M 40.600625 273.99006 
L 993.140625 273.99006 
L 993.140625 31.48286 
L 40.600625 31.48286 
z
" style="fill:#ffffff;"/>
   </g>
   <g id="matplotlib.axis_1">
    <g id="xtick_1">
     <g id="text_1">
      <!-- 0 -->
      <defs>
       <path d="M 31.78125 66.40625 
Q 24.171875 66.40625 20.328125 58.90625 
Q 16.5 51.421875 16.5 36.375 
Q 16.5 21.390625 20.328125 13.890625 
Q 24.171875 6.390625 31.78125 6.390625 
Q 39.453125 6.390625 43.28125 13.890625 
Q 47.125 21.390625 47.125 36.375 
Q 47.125 51.421875 43.28125 58.90625 
Q 39.453125 66.40625 31.78125 66.40625 
z
M 31.78125 74.21875 
Q 44.046875 74.21875 50.515625 64.515625 
Q 56.984375 54.828125 56.984375 36.375 
Q 56.984375 17.96875 50.515625 8.265625 
Q 44.046875 -1.421875 31.78125 -1.421875 
Q 19.53125 -1.421875 13.0625 8.265625 
Q 6.59375 17.96875 6.59375 36.375 
Q 6.59375 54.828125 13.0625 64.515625 
Q 19.53125 74.21875 31.78125 74.21875 
z
" id="DejaVuSans-48"/>
      </defs>
      <g transform="translate(78.13377 287.06881)scale(0.08 -0.08)">
       <use xlink:href="#DejaVuSans-48"/>
      </g>
     </g>
    </g>
    <g id="xtick_2">
     <g id="text_2">
      <!-- 50 -->
      <defs>
       <path d="M 10.796875 72.90625 
L 49.515625 72.90625 
L 49.515625 64.59375 
L 19.828125 64.59375 
L 19.828125 46.734375 
Q 21.96875 47.46875 24.109375 47.828125 
Q 26.265625 48.1875 28.421875 48.1875 
Q 40.625 48.1875 47.75 41.5 
Q 54.890625 34.8125 54.890625 23.390625 
Q 54.890625 11.625 47.5625 5.09375 
Q 40.234375 -1.421875 26.90625 -1.421875 
Q 22.3125 -1.421875 17.546875 -0.640625 
Q 12.796875 0.140625 7.71875 1.703125 
L 7.71875 11.625 
Q 12.109375 9.234375 16.796875 8.0625 
Q 21.484375 6.890625 26.703125 6.890625 
Q 35.15625 6.890625 40.078125 11.328125 
Q 45.015625 15.765625 45.015625 23.390625 
Q 45.015625 31 40.078125 35.4375 
Q 35.15625 39.890625 26.703125 39.890625 
Q 22.75 39.890625 18.8125 39.015625 
Q 14.890625 38.140625 10.796875 36.28125 
z
" id="DejaVuSans-53"/>
      </defs>
      <g transform="translate(236.545174 287.06881)scale(0.08 -0.08)">
       <use xlink:href="#DejaVuSans-53"/>
       <use x="63.623047" xlink:href="#DejaVuSans-48"/>
      </g>
     </g>
    </g>
    <g id="xtick_3">
     <g id="text_3">
      <!-- 100 -->
      <defs>
       <path d="M 12.40625 8.296875 
L 28.515625 8.296875 
L 28.515625 63.921875 
L 10.984375 60.40625 
L 10.984375 69.390625 
L 28.421875 72.90625 
L 38.28125 72.90625 
L 38.28125 8.296875 
L 54.390625 8.296875 
L 54.390625 0 
L 12.40625 0 
z
" id="DejaVuSans-49"/>
      </defs>
      <g transform="translate(394.956578 287.06881)scale(0.08 -0.08)">
       <use xlink:href="#DejaVuSans-49"/>
       <use x="63.623047" xlink:href="#DejaVuSans-48"/>
       <use x="127.246094" xlink:href="#DejaVuSans-48"/>
      </g>
     </g>
    </g>
    <g id="xtick_4">
     <g id="text_4">
      <!-- 150 -->
      <g transform="translate(555.912982 287.06881)scale(0.08 -0.08)">
       <use xlink:href="#DejaVuSans-49"/>
       <use x="63.623047" xlink:href="#DejaVuSans-53"/>
       <use x="127.246094" xlink:href="#DejaVuSans-48"/>
      </g>
     </g>
    </g>
    <g id="xtick_5">
     <g id="text_5">
      <!-- 200 -->
      <defs>
       <path d="M 19.1875 8.296875 
L 53.609375 8.296875 
L 53.609375 0 
L 7.328125 0 
L 7.328125 8.296875 
Q 12.9375 14.109375 22.625 23.890625 
Q 32.328125 33.6875 34.8125 36.53125 
Q 39.546875 41.84375 41.421875 45.53125 
Q 43.3125 49.21875 43.3125 52.78125 
Q 43.3125 58.59375 39.234375 62.25 
Q 35.15625 65.921875 28.609375 65.921875 
Q 23.96875 65.921875 18.8125 64.3125 
Q 13.671875 62.703125 7.8125 59.421875 
L 7.8125 69.390625 
Q 13.765625 71.78125 18.9375 73 
Q 24.125 74.21875 28.421875 74.21875 
Q 39.75 74.21875 46.484375 68.546875 
Q 53.21875 62.890625 53.21875 53.421875 
Q 53.21875 48.921875 51.53125 44.890625 
Q 49.859375 40.875 45.40625 35.40625 
Q 44.1875 33.984375 37.640625 27.21875 
Q 31.109375 20.453125 19.1875 8.296875 
z
" id="DejaVuSans-50"/>
      </defs>
      <g transform="translate(716.869386 287.06881)scale(0.08 -0.08)">
       <use xlink:href="#DejaVuSans-50"/>
       <use x="63.623047" xlink:href="#DejaVuSans-48"/>
       <use x="127.246094" xlink:href="#DejaVuSans-48"/>
      </g>
     </g>
    </g>
    <g id="xtick_6">
     <g id="text_6">
      <!-- 250 -->
      <g transform="translate(877.825791 287.06881)scale(0.08 -0.08)">
       <use xlink:href="#DejaVuSans-50"/>
       <use x="63.623047" xlink:href="#DejaVuSans-53"/>
       <use x="127.246094" xlink:href="#DejaVuSans-48"/>
      </g>
     </g>
    </g>
    <g id="text_7">
     <!-- Insert size -->
     <defs>
      <path d="M 9.8125 72.90625 
L 19.671875 72.90625 
L 19.671875 0 
L 9.8125 0 
z
" id="DejaVuSans-73"/>
      <path d="M 54.890625 33.015625 
L 54.890625 0 
L 45.90625 0 
L 45.90625 32.71875 
Q 45.90625 40.484375 42.875 44.328125 
Q 39.84375 48.1875 33.796875 48.1875 
Q 26.515625 48.1875 22.3125 43.546875 
Q 18.109375 38.921875 18.109375 30.90625 
L 18.109375 0 
L 9.078125 0 
L 9.078125 54.6875 
L 18.109375 54.6875 
L 18.109375 46.1875 
Q 21.34375 51.125 25.703125 53.5625 
Q 30.078125 56 35.796875 56 
Q 45.21875 56 50.046875 50.171875 
Q 54.890625 44.34375 54.890625 33.015625 
z
" id="DejaVuSans-110"/>
      <path d="M 44.28125 53.078125 
L 44.28125 44.578125 
Q 40.484375 46.53125 36.375 47.5 
Q 32.28125 48.484375 27.875 48.484375 
Q 21.1875 48.484375 17.84375 46.4375 
Q 14.5 44.390625 14.5 40.28125 
Q 14.5 37.15625 16.890625 35.375 
Q 19.28125 33.59375 26.515625 31.984375 
L 29.59375 31.296875 
Q 39.15625 29.25 43.1875 25.515625 
Q 47.21875 21.78125 47.21875 15.09375 
Q 47.21875 7.46875 41.1875 3.015625 
Q 35.15625 -1.421875 24.609375 -1.421875 
Q 20.21875 -1.421875 15.453125 -0.5625 
Q 10.6875 0.296875 5.421875 2 
L 5.421875 11.28125 
Q 10.40625 8.6875 15.234375 7.390625 
Q 20.0625 6.109375 24.8125 6.109375 
Q 31.15625 6.109375 34.5625 8.28125 
Q 37.984375 10.453125 37.984375 14.40625 
Q 37.984375 18.0625 35.515625 20.015625 
Q 33.0625 21.96875 24.703125 23.78125 
L 21.578125 24.515625 
Q 13.234375 26.265625 9.515625 29.90625 
Q 5.8125 33.546875 5.8125 39.890625 
Q 5.8125 47.609375 11.28125 51.796875 
Q 16.75 56 26.8125 56 
Q 31.78125 56 36.171875 55.265625 
Q 40.578125 54.546875 44.28125 53.078125 
z
" id="DejaVuSans-115"/>
      <path d="M 56.203125 29.59375 
L 56.203125 25.203125 
L 14.890625 25.203125 
Q 15.484375 15.921875 20.484375 11.0625 
Q 25.484375 6.203125 34.421875 6.203125 
Q 39.59375 6.203125 44.453125 7.46875 
Q 49.3125 8.734375 54.109375 11.28125 
L 54.109375 2.78125 
Q 49.265625 0.734375 44.1875 -0.34375 
Q 39.109375 -1.421875 33.890625 -1.421875 
Q 20.796875 -1.421875 13.15625 6.1875 
Q 5.515625 13.8125 5.515625 26.8125 
Q 5.515625 40.234375 12.765625 48.109375 
Q 20.015625 56 32.328125 56 
Q 43.359375 56 49.78125 48.890625 
Q 56.203125 41.796875 56.203125 29.59375 
z
M 47.21875 32.234375 
Q 47.125 39.59375 43.09375 43.984375 
Q 39.0625 48.390625 32.421875 48.390625 
Q 24.90625 48.390625 20.390625 44.140625 
Q 15.875 39.890625 15.1875 32.171875 
z
" id="DejaVuSans-101"/>
      <path d="M 41.109375 46.296875 
Q 39.59375 47.171875 37.8125 47.578125 
Q 36.03125 48 33.890625 48 
Q 26.265625 48 22.1875 43.046875 
Q 18.109375 38.09375 18.109375 28.8125 
L 18.109375 0 
L 9.078125 0 
L 9.078125 54.6875 
L 18.109375 54.6875 
L 18.109375 46.1875 
Q 20.953125 51.171875 25.484375 53.578125 
Q 30.03125 56 36.53125 56 
Q 37.453125 56 38.578125 55.875 
Q 39.703125 55.765625 41.0625 55.515625 
z
" id="DejaVuSans-114"/>
      <path d="M 18.3125 70.21875 
L 18.3125 54.6875 
L 36.8125 54.6875 
L 36.8125 47.703125 
L 18.3125 47.703125 
L 18.3125 18.015625 
Q 18.3125 11.328125 20.140625 9.421875 
Q 21.96875 7.515625 27.59375 7.515625 
L 36.8125 7.515625 
L 36.8125 0 
L 27.59375 0 
Q 17.1875 0 13.234375 3.875 
Q 9.28125 7.765625 9.28125 18.015625 
L 9.28125 47.703125 
L 2.6875 47.703125 
L 2.6875 54.6875 
L 9.28125 54.6875 
L 9.28125 70.21875 
z
" id="DejaVuSans-116"/>
      <path id="DejaVuSans-32"/>
      <path d="M 9.421875 54.6875 
L 18.40625 54.6875 
L 18.40625 0 
L 9.421875 0 
z
M 9.421875 75.984375 
L 18.40625 75.984375 
L 18.40625 64.59375 
L 9.421875 64.59375 
z
" id="DejaVuSans-105"/>
      <path d="M 5.515625 54.6875 
L 48.1875 54.6875 
L 48.1875 46.484375 
L 14.40625 7.171875 
L 48.1875 7.171875 
L 48.1875 0 
L 4.296875 0 
L 4.296875 8.203125 
L 38.09375 47.515625 
L 5.515625 47.515625 
z
" id="DejaVuSans-122"/>
     </defs>
     <g transform="translate(491.246406 300.330997)scale(0.1 -0.1)">
      <use xlink:href="#DejaVuSans-73"/>
      <use x="29.492188" xlink:href="#DejaVuSans-110"/>
      <use x="92.871094" xlink:href="#DejaVuSans-115"/>
      <use x="144.970703" xlink:href="#DejaVuSans-101"/>
      <use x="206.494141" xlink:href="#DejaVuSans-114"/>
      <use x="247.607422" xlink:href="#DejaVuSans-116"/>
      <use x="286.816406" xlink:href="#DejaVuSans-32"/>
      <use x="318.603516" xlink:href="#DejaVuSans-115"/>
      <use x="370.703125" xlink:href="#DejaVuSans-105"/>
      <use x="398.486328" xlink:href="#DejaVuSans-122"/>
      <use x="450.976562" xlink:href="#DejaVuSans-101"/>
     </g>
    </g>
   </g>
   <g id="matplotlib.axis_2">
    <g id="ytick_1">
     <g id="line2d_1">
      <path clip-path="url(#p61e53e0c3d)" d="M 40.600625 273.99006 
L 993.140625 273.99006 
" style="fill:none;stroke:#dedede;stroke-linecap:square;"/>
     </g>
     <g id="text_8">
      <!-- 0.0 -->
      <defs>
       <path d="M 10.6875 12.40625 
L 21 12.40625 
L 21 0 
L 10.6875 0 
z
" id="DejaVuSans-46"/>
      </defs>
      <g transform="translate(20.878125 277.029435)scale(0.08 -0.08)">
       <use xlink:href="#DejaVuSans-48"/>
       <use x="63.623047" xlink:href="#DejaVuSans-46"/>
       <use x="95.410156" xlink:href="#DejaVuSans-48"/>
      </g>
     </g>
    </g>
    <g id="ytick_2">
     <g id="line2d_2">
      <path clip-path="url(#p61e53e0c3d)" d="M 40.600625 244.683902 
L 993.140625 244.683902 
" style="fill:none;stroke:#dedede;stroke-linecap:square;"/>
     </g>
     <g id="text_9">
      <!-- 0.2 -->
      <g transform="translate(20.878125 247.723277)scale(0.08 -0.08)">
       <use xlink:href="#DejaVuSans-48"/>
       <use x="63.623047" xlink:href="#DejaVuSans-46"/>
       <use x="95.410156" xlink:href="#DejaVuSans-50"/>
      </g>
     </g>
    </g>
    <g id="ytick_3">
     <g id="line2d_3">
      <path clip-path="url(#p61e53e0c3d)" d="M 40.600625 215.377745 
L 993.140625 215.377745 
" style="fill:none;stroke:#dedede;stroke-linecap:square;"/>
     </g>
     <g id="text_10">
      <!-- 0.4 -->
      <defs>
       <path d="M 37.796875 64.3125 
L 12.890625 25.390625 
L 37.796875 25.390625 
z
M 35.203125 72.90625 
L 47.609375 72.90625 
L 47.609375 25.390625 
L 58.015625 25.390625 
L 58.015625 17.1875 
L 47.609375 17.1875 
L 47.609375 0 
L 37.796875 0 
L 37.796875 17.1875 
L 4.890625 17.1875 
L 4.890625 26.703125 
z
" id="DejaVuSans-52"/>
      </defs>
      <g transform="translate(20.878125 218.41712)scale(0.08 -0.08)">
       <use xlink:href="#DejaVuSans-48"/>
       <use x="63.623047" xlink:href="#DejaVuSans-46"/>
       <use x="95.410156" xlink:href="#DejaVuSans-52"/>
      </g>
     </g>
    </g>
    <g id="ytick_4">
     <g id="line2d_4">
      <path clip-path="url(#p61e53e0c3d)" d="M 40.600625 186.071587 
L 993.140625 186.071587 
" style="fill:none;stroke:#dedede;stroke-linecap:square;"/>
     </g>
     <g id="text_11">
      <!-- 0.6 -->
      <defs>
       <path d="M 33.015625 40.375 
Q 26.375 40.375 22.484375 35.828125 
Q 18.609375 31.296875 18.609375 23.390625 
Q 18.609375 15.53125 22.484375 10.953125 
Q 26.375 6.390625 33.015625 6.390625 
Q 39.65625 6.390625 43.53125 10.953125 
Q 47.40625 15.53125 47.40625 23.390625 
Q 47.40625 31.296875 43.53125 35.828125 
Q 39.65625 40.375 33.015625 40.375 
z
M 52.59375 71.296875 
L 52.59375 62.3125 
Q 48.875 64.0625 45.09375 64.984375 
Q 41.3125 65.921875 37.59375 65.921875 
Q 27.828125 65.921875 22.671875 59.328125 
Q 17.53125 52.734375 16.796875 39.40625 
Q 19.671875 43.65625 24.015625 45.921875 
Q 28.375 48.1875 33.59375 48.1875 
Q 44.578125 48.1875 50.953125 41.515625 
Q 57.328125 34.859375 57.328125 23.390625 
Q 57.328125 12.15625 50.6875 5.359375 
Q 44.046875 -1.421875 33.015625 -1.421875 
Q 20.359375 -1.421875 13.671875 8.265625 
Q 6.984375 17.96875 6.984375 36.375 
Q 6.984375 53.65625 15.1875 63.9375 
Q 23.390625 74.21875 37.203125 74.21875 
Q 40.921875 74.21875 44.703125 73.484375 
Q 48.484375 72.75 52.59375 71.296875 
z
" id="DejaVuSans-54"/>
      </defs>
      <g transform="translate(20.878125 189.110962)scale(0.08 -0.08)">
       <use xlink:href="#DejaVuSans-48"/>
       <use x="63.623047" xlink:href="#DejaVuSans-46"/>
       <use x="95.410156" xlink:href="#DejaVuSans-54"/>
      </g>
     </g>
    </g>
    <g id="ytick_5">
     <g id="line2d_5">
      <path clip-path="url(#p61e53e0c3d)" d="M 40.600625 156.76543 
L 993.140625 156.76543 
" style="fill:none;stroke:#dedede;stroke-linecap:square;"/>
     </g>
     <g id="text_12">
      <!-- 0.8 -->
      <defs>
       <path d="M 31.78125 34.625 
Q 24.75 34.625 20.71875 30.859375 
Q 16.703125 27.09375 16.703125 20.515625 
Q 16.703125 13.921875 20.71875 10.15625 
Q 24.75 6.390625 31.78125 6.390625 
Q 38.8125 6.390625 42.859375 10.171875 
Q 46.921875 13.96875 46.921875 20.515625 
Q 46.921875 27.09375 42.890625 30.859375 
Q 38.875 34.625 31.78125 34.625 
z
M 21.921875 38.8125 
Q 15.578125 40.375 12.03125 44.71875 
Q 8.5 49.078125 8.5 55.328125 
Q 8.5 64.0625 14.71875 69.140625 
Q 20.953125 74.21875 31.78125 74.21875 
Q 42.671875 74.21875 48.875 69.140625 
Q 55.078125 64.0625 55.078125 55.328125 
Q 55.078125 49.078125 51.53125 44.71875 
Q 48 40.375 41.703125 38.8125 
Q 48.828125 37.15625 52.796875 32.3125 
Q 56.78125 27.484375 56.78125 20.515625 
Q 56.78125 9.90625 50.3125 4.234375 
Q 43.84375 -1.421875 31.78125 -1.421875 
Q 19.734375 -1.421875 13.25 4.234375 
Q 6.78125 9.90625 6.78125 20.515625 
Q 6.78125 27.484375 10.78125 32.3125 
Q 14.796875 37.15625 21.921875 38.8125 
z
M 18.3125 54.390625 
Q 18.3125 48.734375 21.84375 45.5625 
Q 25.390625 42.390625 31.78125 42.390625 
Q 38.140625 42.390625 41.71875 45.5625 
Q 45.3125 48.734375 45.3125 54.390625 
Q 45.3125 60.0625 41.71875 63.234375 
Q 38.140625 66.40625 31.78125 66.40625 
Q 25.390625 66.40625 21.84375 63.234375 
Q 18.3125 60.0625 18.3125 54.390625 
z
" id="DejaVuSans-56"/>
      </defs>
      <g transform="translate(20.878125 159.804805)scale(0.08 -0.08)">
       <use xlink:href="#DejaVuSans-48"/>
       <use x="63.623047" xlink:href="#DejaVuSans-46"/>
       <use x="95.410156" xlink:href="#DejaVuSans-56"/>
      </g>
     </g>
    </g>
    <g id="ytick_6">
     <g id="line2d_6">
      <path clip-path="url(#p61e53e0c3d)" d="M 40.600625 127.459272 
L 993.140625 127.459272 
" style="fill:none;stroke:#dedede;stroke-linecap:square;"/>
     </g>
     <g id="text_13">
      <!-- 1.0 -->
      <g transform="translate(20.878125 130.498647)scale(0.08 -0.08)">
       <use xlink:href="#DejaVuSans-49"/>
       <use x="63.623047" xlink:href="#DejaVuSans-46"/>
       <use x="95.410156" xlink:href="#DejaVuSans-48"/>
      </g>
     </g>
    </g>
    <g id="ytick_7">
     <g id="line2d_7">
      <path clip-path="url(#p61e53e0c3d)" d="M 40.600625 98.153115 
L 993.140625 98.153115 
" style="fill:none;stroke:#dedede;stroke-linecap:square;"/>
     </g>
     <g id="text_14">
      <!-- 1.2 -->
      <g transform="translate(20.878125 101.19249)scale(0.08 -0.08)">
       <use xlink:href="#DejaVuSans-49"/>
       <use x="63.623047" xlink:href="#DejaVuSans-46"/>
       <use x="95.410156" xlink:href="#DejaVuSans-50"/>
      </g>
     </g>
    </g>
    <g id="ytick_8">
     <g id="line2d_8">
      <path clip-path="url(#p61e53e0c3d)" d="M 40.600625 68.846957 
L 993.140625 68.846957 
" style="fill:none;stroke:#dedede;stroke-linecap:square;"/>
     </g>
     <g id="text_15">
      <!-- 1.4 -->
      <g transform="translate(20.878125 71.886332)scale(0.08 -0.08)">
       <use xlink:href="#DejaVuSans-49"/>
       <use x="63.623047" xlink:href="#DejaVuSans-46"/>
       <use x="95.410156" xlink:href="#DejaVuSans-52"/>
      </g>
     </g>
    </g>
    <g id="ytick_9">
     <g id="line2d_9">
      <path clip-path="url(#p61e53e0c3d)" d="M 40.600625 39.5408 
L 993.140625 39.5408 
" style="fill:none;stroke:#dedede;stroke-linecap:square;"/>
     </g>
     <g id="text_16">
      <!-- 1.6 -->
      <g transform="translate(20.878125 42.580175)scale(0.08 -0.08)">
       <use xlink:href="#DejaVuSans-49"/>
       <use x="63.623047" xlink:href="#DejaVuSans-46"/>
       <use x="95.410156" xlink:href="#DejaVuSans-54"/>
      </g>
     </g>
    </g>
    <g id="text_17">
     <!-- Read percent -->
     <defs>
      <path d="M 44.390625 34.1875 
Q 47.5625 33.109375 50.5625 29.59375 
Q 53.5625 26.078125 56.59375 19.921875 
L 66.609375 0 
L 56 0 
L 46.6875 18.703125 
Q 43.0625 26.03125 39.671875 28.421875 
Q 36.28125 30.8125 30.421875 30.8125 
L 19.671875 30.8125 
L 19.671875 0 
L 9.8125 0 
L 9.8125 72.90625 
L 32.078125 72.90625 
Q 44.578125 72.90625 50.734375 67.671875 
Q 56.890625 62.453125 56.890625 51.90625 
Q 56.890625 45.015625 53.6875 40.46875 
Q 50.484375 35.9375 44.390625 34.1875 
z
M 19.671875 64.796875 
L 19.671875 38.921875 
L 32.078125 38.921875 
Q 39.203125 38.921875 42.84375 42.21875 
Q 46.484375 45.515625 46.484375 51.90625 
Q 46.484375 58.296875 42.84375 61.546875 
Q 39.203125 64.796875 32.078125 64.796875 
z
" id="DejaVuSans-82"/>
      <path d="M 34.28125 27.484375 
Q 23.390625 27.484375 19.1875 25 
Q 14.984375 22.515625 14.984375 16.5 
Q 14.984375 11.71875 18.140625 8.90625 
Q 21.296875 6.109375 26.703125 6.109375 
Q 34.1875 6.109375 38.703125 11.40625 
Q 43.21875 16.703125 43.21875 25.484375 
L 43.21875 27.484375 
z
M 52.203125 31.203125 
L 52.203125 0 
L 43.21875 0 
L 43.21875 8.296875 
Q 40.140625 3.328125 35.546875 0.953125 
Q 30.953125 -1.421875 24.3125 -1.421875 
Q 15.921875 -1.421875 10.953125 3.296875 
Q 6 8.015625 6 15.921875 
Q 6 25.140625 12.171875 29.828125 
Q 18.359375 34.515625 30.609375 34.515625 
L 43.21875 34.515625 
L 43.21875 35.40625 
Q 43.21875 41.609375 39.140625 45 
Q 35.0625 48.390625 27.6875 48.390625 
Q 23 48.390625 18.546875 47.265625 
Q 14.109375 46.140625 10.015625 43.890625 
L 10.015625 52.203125 
Q 14.9375 54.109375 19.578125 55.046875 
Q 24.21875 56 28.609375 56 
Q 40.484375 56 46.34375 49.84375 
Q 52.203125 43.703125 52.203125 31.203125 
z
" id="DejaVuSans-97"/>
      <path d="M 45.40625 46.390625 
L 45.40625 75.984375 
L 54.390625 75.984375 
L 54.390625 0 
L 45.40625 0 
L 45.40625 8.203125 
Q 42.578125 3.328125 38.25 0.953125 
Q 33.9375 -1.421875 27.875 -1.421875 
Q 17.96875 -1.421875 11.734375 6.484375 
Q 5.515625 14.40625 5.515625 27.296875 
Q 5.515625 40.1875 11.734375 48.09375 
Q 17.96875 56 27.875 56 
Q 33.9375 56 38.25 53.625 
Q 42.578125 51.265625 45.40625 46.390625 
z
M 14.796875 27.296875 
Q 14.796875 17.390625 18.875 11.75 
Q 22.953125 6.109375 30.078125 6.109375 
Q 37.203125 6.109375 41.296875 11.75 
Q 45.40625 17.390625 45.40625 27.296875 
Q 45.40625 37.203125 41.296875 42.84375 
Q 37.203125 48.484375 30.078125 48.484375 
Q 22.953125 48.484375 18.875 42.84375 
Q 14.796875 37.203125 14.796875 27.296875 
z
" id="DejaVuSans-100"/>
      <path d="M 18.109375 8.203125 
L 18.109375 -20.796875 
L 9.078125 -20.796875 
L 9.078125 54.6875 
L 18.109375 54.6875 
L 18.109375 46.390625 
Q 20.953125 51.265625 25.265625 53.625 
Q 29.59375 56 35.59375 56 
Q 45.5625 56 51.78125 48.09375 
Q 58.015625 40.1875 58.015625 27.296875 
Q 58.015625 14.40625 51.78125 6.484375 
Q 45.5625 -1.421875 35.59375 -1.421875 
Q 29.59375 -1.421875 25.265625 0.953125 
Q 20.953125 3.328125 18.109375 8.203125 
z
M 48.6875 27.296875 
Q 48.6875 37.203125 44.609375 42.84375 
Q 40.53125 48.484375 33.40625 48.484375 
Q 26.265625 48.484375 22.1875 42.84375 
Q 18.109375 37.203125 18.109375 27.296875 
Q 18.109375 17.390625 22.1875 11.75 
Q 26.265625 6.109375 33.40625 6.109375 
Q 40.53125 6.109375 44.609375 11.75 
Q 48.6875 17.390625 48.6875 27.296875 
z
" id="DejaVuSans-112"/>
      <path d="M 48.78125 52.59375 
L 48.78125 44.1875 
Q 44.96875 46.296875 41.140625 47.34375 
Q 37.3125 48.390625 33.40625 48.390625 
Q 24.65625 48.390625 19.8125 42.84375 
Q 14.984375 37.3125 14.984375 27.296875 
Q 14.984375 17.28125 19.8125 11.734375 
Q 24.65625 6.203125 33.40625 6.203125 
Q 37.3125 6.203125 41.140625 7.25 
Q 44.96875 8.296875 48.78125 10.40625 
L 48.78125 2.09375 
Q 45.015625 0.34375 40.984375 -0.53125 
Q 36.96875 -1.421875 32.421875 -1.421875 
Q 20.0625 -1.421875 12.78125 6.34375 
Q 5.515625 14.109375 5.515625 27.296875 
Q 5.515625 40.671875 12.859375 48.328125 
Q 20.21875 56 33.015625 56 
Q 37.15625 56 41.109375 55.140625 
Q 45.0625 54.296875 48.78125 52.59375 
z
" id="DejaVuSans-99"/>
     </defs>
     <g transform="translate(14.798438 186.370835)rotate(-90)scale(0.1 -0.1)">
      <use xlink:href="#DejaVuSans-82"/>
      <use x="69.419922" xlink:href="#DejaVuSans-101"/>
      <use x="130.943359" xlink:href="#DejaVuSans-97"/>
      <use x="192.222656" xlink:href="#DejaVuSans-100"/>
      <use x="255.699219" xlink:href="#DejaVuSans-32"/>
      <use x="287.486328" xlink:href="#DejaVuSans-112"/>
      <use x="350.962891" xlink:href="#DejaVuSans-101"/>
      <use x="412.486328" xlink:href="#DejaVuSans-114"/>
      <use x="453.568359" xlink:href="#DejaVuSans-99"/>
      <use x="508.548828" xlink:href="#DejaVuSans-101"/>
      <use x="570.072266" xlink:href="#DejaVuSans-110"/>
      <use x="633.451172" xlink:href="#DejaVuSans-116"/>
     </g>
    </g>
   </g>
   <g id="line2d_10">
    <path clip-path="url(#p61e53e0c3d)" d="M 83.897898 273.99006 
L 87.117026 267.890453 
L 90.336154 269.945565 
L 93.555282 271.737763 
L 96.77441 272.7456 
L 99.993538 272.890203 
L 109.650922 273.700854 
L 112.87005 273.832312 
L 116.089179 273.775347 
L 122.527435 273.862985 
L 132.184819 273.845457 
L 138.623075 273.854221 
L 164.3761 273.380976 
L 167.595228 273.499287 
L 170.814356 273.402885 
L 174.033484 273.481759 
L 180.47174 273.310865 
L 183.690868 272.850766 
L 186.909996 272.789419 
L 190.129124 260.594587 
L 193.348253 260.629642 
L 196.567381 261.405239 
L 199.786509 260.896938 
L 203.005637 261.17738 
L 206.224765 261.15547 
L 222.320405 259.889101 
L 225.539533 259.464056 
L 228.758661 259.512257 
L 231.97779 258.819917 
L 235.196918 258.517566 
L 238.416046 258.557003 
L 241.635174 257.838371 
L 244.854302 257.303779 
L 248.07343 256.405489 
L 251.292558 256.593911 
L 254.511686 255.266195 
L 257.730814 255.410797 
L 260.949942 254.442397 
L 264.16907 253.807021 
L 267.388199 253.684328 
L 277.045583 252.28212 
L 280.264711 251.480232 
L 283.483839 251.396976 
L 286.702967 250.358465 
L 289.922095 249.560959 
L 293.141223 250.069259 
L 296.360351 249.727471 
L 299.579479 248.956256 
L 306.017736 247.751234 
L 309.236864 247.786289 
L 312.455992 247.102712 
L 315.67512 247.050129 
L 318.894248 245.989709 
L 322.113376 245.459499 
L 325.332504 245.297369 
L 328.551632 245.367479 
L 334.989888 243.754939 
L 338.209016 243.877633 
L 341.428144 243.058217 
L 344.647273 241.620953 
L 347.866401 241.84443 
L 351.085529 240.626262 
L 354.304657 239.955831 
L 357.523785 240.047851 
L 360.742913 239.075068 
L 363.962041 238.514185 
L 367.181169 237.256579 
L 370.400297 236.805243 
L 376.838553 234.850915 
L 380.057681 234.829006 
L 383.27681 232.480307 
L 386.495938 232.607382 
L 389.715066 230.832712 
L 392.934194 230.039588 
L 396.153322 228.400756 
L 399.37245 227.077422 
L 402.591578 226.674287 
L 405.810706 225.705887 
L 409.029834 224.465809 
L 412.248962 223.103037 
L 415.46809 222.910234 
L 418.687218 222.130255 
L 421.906347 220.48266 
L 428.344603 219.067306 
L 431.563731 219.185617 
L 434.782859 218.046323 
L 447.659371 215.601222 
L 450.878499 215.798407 
L 454.097627 213.879135 
L 457.316755 213.287578 
L 460.535884 213.966773 
L 463.755012 213.283196 
L 466.97414 212.92388 
L 473.412396 211.416506 
L 476.631524 211.49538 
L 479.850652 211.31134 
L 483.06978 211.521672 
L 486.288908 210.285975 
L 489.508036 209.545434 
L 492.727164 207.941658 
L 495.946292 209.795202 
L 499.165421 209.216791 
L 502.384549 208.357939 
L 505.603677 208.2221 
L 508.822805 208.322883 
L 512.041933 207.700653 
L 515.261061 207.78391 
L 518.480189 207.59987 
L 521.699317 208.003005 
L 524.918445 206.635851 
L 528.137573 207.713799 
L 531.356701 206.469339 
L 534.575829 207.788291 
L 537.794958 207.757618 
L 541.014086 207.48594 
L 544.233214 208.318502 
L 547.452342 208.252773 
L 550.67147 207.332574 
L 553.890598 207.985477 
L 557.109726 208.47625 
L 560.328854 204.983874 
L 563.547982 188.323885 
L 566.76711 71.143074 
L 569.986238 161.773943 
L 573.205366 173.727771 
L 576.424495 175.704008 
L 579.643623 179.415479 
L 582.862751 179.774795 
L 586.081879 179.73974 
L 589.301007 179.520645 
L 592.520135 179.910634 
L 595.739263 180.489045 
L 598.958391 180.423316 
L 605.396647 182.443373 
L 608.615775 182.20675 
L 611.834903 180.611738 
L 615.054032 182.268097 
L 618.27316 183.10504 
L 621.492288 182.395172 
L 624.711416 182.000801 
L 627.930544 183.45121 
L 631.149672 185.519468 
L 634.3688 185.480031 
L 637.587928 186.014623 
L 640.807056 185.764854 
L 644.026184 187.793675 
L 647.245312 186.527305 
L 650.46444 186.387084 
L 653.683569 185.913839 
L 656.902697 187.096952 
L 660.121825 189.305431 
L 663.340953 189.660365 
L 666.560081 189.362395 
L 669.779209 190.199339 
L 672.998337 189.739239 
L 676.217465 191.115156 
L 679.436593 190.786513 
L 682.655721 191.781205 
L 685.874849 191.338633 
L 689.093977 191.662894 
L 692.313106 193.371835 
L 695.532234 194.809099 
L 698.751362 193.323634 
L 701.97049 194.086085 
L 705.189618 195.015048 
L 708.408746 194.984375 
L 711.627874 195.646042 
L 714.847002 195.781881 
L 718.06613 195.107068 
L 721.285258 194.962466 
L 724.504386 196.027268 
L 727.723514 196.544332 
L 730.942643 196.715226 
L 734.161771 196.649498 
L 737.380899 195.91772 
L 740.600027 196.684553 
L 743.819155 197.170944 
L 747.038283 196.671407 
L 753.476539 198.165636 
L 756.695667 198.560007 
L 763.133923 199.712447 
L 766.353051 199.278639 
L 769.57218 200.137491 
L 772.791308 199.984125 
L 776.010436 199.068307 
L 779.229564 201.075218 
L 782.448692 201.526554 
L 785.66782 200.080527 
L 788.886948 199.708065 
L 792.106076 201.092746 
L 795.325204 201.33375 
L 798.544332 201.929689 
L 801.76346 201.465208 
L 804.982589 201.658011 
L 808.201717 201.548464 
L 811.420845 202.201367 
L 814.639973 202.486191 
L 817.859101 202.525628 
L 821.078229 202.832361 
L 824.297357 203.454591 
L 827.516485 202.994491 
L 830.735613 204.063675 
L 837.173869 203.827052 
L 840.392997 203.231114 
L 843.612126 203.616721 
L 846.831254 202.836743 
L 850.050382 203.266169 
L 853.26951 202.705286 
L 856.488638 204.821744 
L 859.707766 203.423918 
L 862.926894 202.845507 
L 866.146022 204.050529 
L 869.36515 202.481809 
L 872.584278 202.175076 
L 875.803406 202.836743 
L 879.022534 202.841125 
L 882.241663 201.728122 
L 885.460791 202.565065 
L 888.679919 202.039237 
L 891.899047 201.289931 
L 895.118175 200.054235 
L 898.337303 198.971906 
L 901.556431 198.393495 
L 907.994687 195.369982 
L 911.213815 192.193104 
L 914.432943 193.463855 
L 917.652071 190.93988 
L 920.8712 188.731402 
L 924.090328 188.100408 
L 927.309456 186.772692 
L 930.528584 185.322282 
L 933.747712 184.454666 
L 936.96684 182.75887 
L 940.185968 181.317224 
L 943.405096 178.766958 
L 946.624224 177.868668 
L 949.843352 184.906002 
L 949.843352 184.906002 
" style="fill:none;stroke:#7cb5ec;stroke-linecap:square;"/>
   </g>
   <g id="line2d_11">
    <path clip-path="url(#p61e53e0c3d)" d="M 83.897898 273.99006 
L 87.117026 267.969077 
L 90.336154 270.103755 
L 93.555282 271.706624 
L 96.77441 272.781401 
L 99.993538 272.826028 
L 109.650922 273.729733 
L 112.87005 273.841302 
L 119.308307 273.84874 
L 128.965691 273.874772 
L 135.403947 273.852459 
L 148.280459 273.677668 
L 154.718716 273.666511 
L 157.937844 273.49172 
L 161.156972 273.536348 
L 164.3761 273.402466 
L 174.033484 273.461969 
L 177.252612 273.309492 
L 180.47174 273.283459 
L 183.690868 272.919002 
L 186.909996 272.807433 
L 190.129124 260.813814 
L 193.348253 261.345624 
L 196.567381 261.64314 
L 199.786509 261.553886 
L 203.005637 261.721238 
L 206.224765 261.204304 
L 209.443893 260.932821 
L 212.663021 261.033232 
L 219.101277 259.809697 
L 222.320405 259.605155 
L 225.539533 259.084502 
L 228.758661 258.738639 
L 231.97779 257.842372 
L 235.196918 257.425849 
L 238.416046 256.682059 
L 244.854302 256.135373 
L 248.07343 255.306047 
L 251.292558 254.067636 
L 254.511686 253.509793 
L 257.730814 253.256904 
L 260.949942 252.051964 
L 267.388199 251.092474 
L 270.607327 250.311495 
L 273.826455 248.864822 
L 277.045583 248.686313 
L 280.264711 247.860705 
L 283.483839 247.641287 
L 286.702967 246.830556 
L 289.922095 246.135112 
L 293.141223 246.458661 
L 302.798607 243.955806 
L 306.017736 243.490937 
L 309.236864 242.832683 
L 312.455992 242.471944 
L 315.67512 241.549644 
L 318.894248 241.49386 
L 322.113376 241.121965 
L 325.332504 240.5009 
L 328.551632 240.314952 
L 331.77076 239.563724 
L 334.989888 239.039352 
L 338.209016 237.756314 
L 341.428144 237.901353 
L 344.647273 236.335674 
L 347.866401 236.320798 
L 351.085529 235.762956 
L 354.304657 234.959662 
L 357.523785 233.535303 
L 360.742913 233.966702 
L 367.181169 232.52003 
L 370.400297 230.783279 
L 376.838553 229.675032 
L 380.057681 228.555627 
L 383.27681 227.756053 
L 386.495938 226.320537 
L 389.715066 226.904413 
L 392.934194 224.937087 
L 396.153322 223.479258 
L 399.37245 222.675965 
L 402.591578 221.619782 
L 405.810706 220.727234 
L 409.029834 219.503699 
L 412.248962 219.340065 
L 415.46809 218.22066 
L 418.687218 217.461994 
L 421.906347 217.201668 
L 425.125475 215.784747 
L 428.344603 215.635989 
L 431.563731 213.906676 
L 434.782859 214.312042 
L 438.001987 213.017847 
L 444.440243 212.411658 
L 447.659371 212.463723 
L 450.878499 211.846377 
L 454.097627 210.165411 
L 457.316755 210.507555 
L 460.535884 209.440215 
L 463.755012 208.774523 
L 466.97414 209.131542 
L 470.193268 209.823267 
L 473.412396 209.373274 
L 476.631524 208.532791 
L 479.850652 207.26091 
L 483.06978 207.086119 
L 486.288908 207.022897 
L 489.508036 206.334891 
L 492.727164 205.992747 
L 499.165421 206.08944 
L 502.384549 205.661761 
L 505.603677 205.747296 
L 508.822805 204.482853 
L 512.041933 205.773329 
L 515.261061 205.09648 
L 518.480189 204.672519 
L 524.918445 204.575827 
L 528.137573 203.649808 
L 531.356701 204.322938 
L 534.575829 204.624173 
L 537.794958 202.835357 
L 541.014086 203.984513 
L 544.233214 204.099801 
L 550.67147 202.902298 
L 553.890598 204.84731 
L 557.109726 203.85435 
L 560.328854 200.291594 
L 563.547982 187.450054 
L 566.76711 81.489682 
L 569.986238 161.610778 
L 573.205366 171.585006 
L 579.643623 176.743192 
L 582.862751 175.895271 
L 586.081879 176.259728 
L 589.301007 177.397728 
L 592.520135 177.237813 
L 595.739263 176.694846 
L 598.958391 176.951453 
L 602.177519 177.795655 
L 605.396647 178.219616 
L 608.615775 178.926217 
L 611.834903 176.50146 
L 615.054032 179.298112 
L 621.492288 179.551001 
L 624.711416 179.524968 
L 631.149672 182.901776 
L 637.587928 183.236482 
L 640.807056 184.043494 
L 644.026184 184.16622 
L 647.245312 185.148023 
L 650.46444 184.846788 
L 656.902697 185.564546 
L 660.121825 187.862858 
L 663.340953 188.342602 
L 666.560081 188.550864 
L 669.779209 189.923157 
L 672.998337 189.268621 
L 676.217465 190.391745 
L 679.436593 190.882646 
L 682.655721 191.488836 
L 685.874849 192.295848 
L 689.093977 192.693776 
L 692.313106 193.314841 
L 695.532234 193.392939 
L 698.751362 193.932187 
L 701.97049 193.694174 
L 705.189618 194.98465 
L 708.408746 194.969774 
L 711.627874 196.356943 
L 714.847002 196.9371 
L 718.06613 196.944538 
L 724.504386 197.43172 
L 727.723514 198.372615 
L 730.942643 197.978406 
L 734.161771 198.703602 
L 737.380899 199.823006 
L 740.600027 199.179628 
L 743.819155 199.700281 
L 747.038283 199.778379 
L 750.257411 200.005235 
L 753.476539 201.143234 
L 756.695667 201.102326 
L 759.914795 202.694037 
L 763.133923 201.076293 
L 766.353051 202.842795 
L 769.57218 202.08041 
L 776.010436 205.356806 
L 779.229564 204.572108 
L 782.448692 204.650206 
L 785.66782 205.888617 
L 788.886948 204.713428 
L 792.106076 206.305139 
L 795.325204 205.267552 
L 798.544332 206.636126 
L 801.76346 207.071243 
L 804.982589 207.134465 
L 808.201717 207.733217 
L 811.420845 207.11959 
L 814.639973 207.889413 
L 817.859101 208.421223 
L 821.078229 207.777844 
L 824.297357 209.272863 
L 827.516485 208.956752 
L 830.735613 209.789797 
L 833.954741 209.800954 
L 837.173869 208.96419 
L 840.392997 210.120784 
L 843.612126 209.217078 
L 846.831254 209.618725 
L 850.050382 210.45177 
L 853.26951 210.031529 
L 856.488638 210.001777 
L 859.707766 210.838541 
L 862.926894 211.474482 
L 866.146022 209.960869 
L 869.36515 210.652594 
L 872.584278 210.920358 
L 875.803406 210.436894 
L 879.022534 210.31045 
L 882.241663 210.31045 
L 885.460791 209.499719 
L 888.679919 208.975346 
L 891.899047 208.897248 
L 895.118175 208.354282 
L 898.337303 208.190648 
L 904.775559 205.706388 
L 907.994687 203.980794 
L 911.213815 204.434506 
L 914.432943 203.240723 
L 917.652071 202.318423 
L 920.8712 200.685803 
L 924.090328 199.532928 
L 927.309456 198.792857 
L 930.528584 197.732955 
L 933.747712 195.12597 
L 936.96684 194.229703 
L 940.185968 191.031405 
L 946.624224 191.105784 
L 949.843352 195.654061 
L 949.843352 195.654061 
" style="fill:none;stroke:#434348;stroke-linecap:square;"/>
   </g>
   <g id="line2d_12">
    <path clip-path="url(#p61e53e0c3d)" d="M 83.897898 273.99006 
L 87.117026 265.274112 
L 93.555282 270.304398 
L 96.77441 272.302584 
L 99.993538 272.334726 
L 103.212666 272.918647 
L 109.650922 273.615065 
L 112.87005 273.781134 
L 122.527435 273.813277 
L 128.965691 273.915061 
L 161.156972 273.513281 
L 164.3761 273.36864 
L 170.814356 273.373997 
L 174.033484 273.250785 
L 180.47174 273.400783 
L 183.690868 272.613294 
L 186.909996 272.591865 
L 190.129124 253.927843 
L 193.348253 254.452836 
L 196.567381 254.420694 
L 199.786509 253.938557 
L 203.005637 254.570691 
L 206.224765 254.876044 
L 209.443893 254.249267 
L 212.663021 253.418922 
L 215.882149 253.954629 
L 219.101277 253.451064 
L 222.320405 253.188568 
L 225.539533 253.370708 
L 228.758661 252.920715 
L 231.97779 252.031442 
L 235.196918 251.693946 
L 238.416046 250.858244 
L 241.635174 250.531463 
L 244.854302 249.979685 
L 248.07343 249.701117 
L 251.292558 248.49042 
L 254.511686 247.72436 
L 257.730814 247.41365 
L 260.949942 246.229738 
L 264.16907 246.213667 
L 270.607327 244.011912 
L 273.826455 243.208352 
L 277.045583 243.352993 
L 280.264711 242.485148 
L 283.483839 240.642317 
L 286.702967 241.263736 
L 289.922095 239.844114 
L 293.141223 239.785186 
L 296.360351 239.249479 
L 299.579479 237.803071 
L 302.798607 238.172709 
L 306.017736 238.049496 
L 309.236864 237.706644 
L 312.455992 236.485233 
L 315.67512 237.358435 
L 318.894248 235.295964 
L 322.113376 236.565589 
L 325.332504 235.585245 
L 328.551632 234.995968 
L 331.77076 233.956697 
L 334.989888 234.40669 
L 338.209016 232.681715 
L 341.428144 232.483503 
L 344.647273 232.783499 
L 347.866401 232.671001 
L 351.085529 232.34422 
L 354.304657 232.140651 
L 357.523785 231.203164 
L 360.742913 230.988882 
L 363.962041 231.438875 
L 367.181169 230.806741 
L 370.400297 231.138879 
L 376.838553 229.842469 
L 380.057681 230.067466 
L 383.27681 229.446046 
L 386.495938 230.501388 
L 389.715066 229.151408 
L 392.934194 229.124622 
L 399.37245 228.508559 
L 405.810706 228.503202 
L 409.029834 229.151408 
L 412.248962 227.865711 
L 415.46809 228.6532 
L 418.687218 227.774641 
L 421.906347 227.308576 
L 425.125475 226.521088 
L 428.344603 227.903211 
L 431.563731 227.790712 
L 438.001987 227.699642 
L 441.221115 227.956782 
L 447.659371 226.73537 
L 450.878499 227.319291 
L 454.097627 226.596087 
L 457.316755 226.15145 
L 460.535884 226.719299 
L 463.755012 226.338947 
L 470.193268 226.531802 
L 473.412396 225.84074 
L 476.631524 226.713942 
L 479.850652 226.253234 
L 483.06978 226.730013 
L 486.288908 225.830026 
L 489.508036 226.638943 
L 492.727164 225.321105 
L 495.946292 224.913967 
L 499.165421 227.030009 
L 502.384549 226.724656 
L 505.603677 226.124665 
L 508.822805 226.387161 
L 512.041933 226.397875 
L 515.261061 226.847869 
L 518.480189 226.494302 
L 521.699317 225.996095 
L 524.918445 227.13715 
L 528.137573 226.794298 
L 531.356701 226.6443 
L 537.794958 227.463931 
L 541.014086 228.626415 
L 544.233214 228.310348 
L 547.452342 227.094294 
L 550.67147 227.876426 
L 553.890598 228.867483 
L 557.109726 228.026423 
L 560.328854 223.237205 
L 563.547982 202.97142 
L 566.76711 43.030822 
L 569.986238 171.321867 
L 573.205366 182.882418 
L 576.424495 186.375226 
L 579.643623 188.089487 
L 582.862751 188.100202 
L 586.081879 189.401969 
L 589.301007 189.380541 
L 592.520135 188.126987 
L 595.739263 189.359112 
L 598.958391 189.476968 
L 602.177519 190.173387 
L 605.396647 191.319799 
L 608.615775 189.401969 
L 611.834903 189.991246 
L 615.054032 190.243028 
L 618.27316 188.876976 
L 621.492288 188.309127 
L 624.711416 190.307313 
L 627.930544 189.916247 
L 631.149672 193.591195 
L 634.3688 194.067974 
L 637.587928 192.835849 
L 640.807056 194.726894 
L 644.026184 194.673323 
L 647.245312 193.907262 
L 650.46444 194.271543 
L 653.683569 194.266186 
L 656.902697 193.714408 
L 660.121825 197.196502 
L 663.340953 196.842935 
L 666.560081 197.935777 
L 669.779209 197.833993 
L 672.998337 200.475027 
L 676.217465 200.196459 
L 679.436593 198.2947 
L 682.655721 200.041104 
L 685.874849 200.753594 
L 689.093977 198.717909 
L 692.313106 200.678595 
L 695.532234 200.550026 
L 698.751362 201.139303 
L 701.97049 199.473255 
L 705.189618 200.06789 
L 708.408746 201.246445 
L 711.627874 201.289301 
L 714.847002 200.614311 
L 718.06613 200.619668 
L 721.285258 200.073247 
L 724.504386 200.351814 
L 727.723514 199.880392 
L 730.942643 200.148246 
L 734.161771 198.616125 
L 737.380899 199.050047 
L 740.600027 198.444698 
L 743.819155 200.180388 
L 747.038283 199.216116 
L 750.257411 200.185745 
L 753.476539 199.376828 
L 756.695667 201.578583 
L 759.914795 200.769666 
L 766.353051 199.607182 
L 769.57218 199.982177 
L 772.791308 200.898235 
L 776.010436 199.842893 
L 779.229564 199.505398 
L 782.448692 199.987534 
L 785.66782 198.760765 
L 788.886948 200.06789 
L 792.106076 197.989348 
L 795.325204 199.023262 
L 798.544332 199.387542 
L 801.76346 198.433984 
L 804.982589 198.198273 
L 808.201717 198.15006 
L 811.420845 197.330428 
L 814.639973 199.842893 
L 817.859101 197.657209 
L 821.078229 197.914349 
L 824.297357 197.555425 
L 827.516485 197.598282 
L 830.735613 197.458998 
L 833.954741 197.432213 
L 837.173869 197.041147 
L 840.392997 196.762579 
L 843.612126 196.987576 
L 846.831254 195.798307 
L 850.050382 195.466169 
L 859.707766 195.267958 
L 862.926894 194.421541 
L 866.146022 192.926919 
L 869.36515 194.078689 
L 872.584278 192.787635 
L 875.803406 193.414412 
L 879.022534 193.130488 
L 882.241663 191.630509 
L 885.460791 191.228729 
L 888.679919 188.989475 
L 891.899047 188.801977 
L 895.118175 187.548424 
L 898.337303 184.944889 
L 901.556431 182.962774 
L 904.775559 182.802062 
L 907.994687 179.368182 
L 911.213815 177.696777 
L 914.432943 174.868246 
L 917.652071 172.575421 
L 920.8712 169.232611 
L 924.090328 167.614777 
L 933.747712 160.023812 
L 936.96684 156.225652 
L 940.185968 153.932827 
L 943.405096 151.265008 
L 946.624224 150.820371 
L 949.843352 155.839943 
L 949.843352 155.839943 
" style="fill:none;stroke:#90ed7d;stroke-linecap:square;"/>
   </g>
   <g id="line2d_13">
    <path clip-path="url(#p61e53e0c3d)" d="M 40.600625 273.99006 
L 993.140625 273.99006 
" style="fill:none;stroke:#dedede;stroke-linecap:square;stroke-width:2;"/>
   </g>
   <g id="text_18">
    <!-- Fastp: Insert Size Distribution -->
    <defs>
     <path d="M 9.8125 72.90625 
L 51.703125 72.90625 
L 51.703125 64.59375 
L 19.671875 64.59375 
L 19.671875 43.109375 
L 48.578125 43.109375 
L 48.578125 34.8125 
L 19.671875 34.8125 
L 19.671875 0 
L 9.8125 0 
z
" id="DejaVuSans-70"/>
     <path d="M 11.71875 12.40625 
L 22.015625 12.40625 
L 22.015625 0 
L 11.71875 0 
z
M 11.71875 51.703125 
L 22.015625 51.703125 
L 22.015625 39.3125 
L 11.71875 39.3125 
z
" id="DejaVuSans-58"/>
     <path d="M 53.515625 70.515625 
L 53.515625 60.890625 
Q 47.90625 63.578125 42.921875 64.890625 
Q 37.9375 66.21875 33.296875 66.21875 
Q 25.25 66.21875 20.875 63.09375 
Q 16.5 59.96875 16.5 54.203125 
Q 16.5 49.359375 19.40625 46.890625 
Q 22.3125 44.4375 30.421875 42.921875 
L 36.375 41.703125 
Q 47.40625 39.59375 52.65625 34.296875 
Q 57.90625 29 57.90625 20.125 
Q 57.90625 9.515625 50.796875 4.046875 
Q 43.703125 -1.421875 29.984375 -1.421875 
Q 24.8125 -1.421875 18.96875 -0.25 
Q 13.140625 0.921875 6.890625 3.21875 
L 6.890625 13.375 
Q 12.890625 10.015625 18.65625 8.296875 
Q 24.421875 6.59375 29.984375 6.59375 
Q 38.421875 6.59375 43.015625 9.90625 
Q 47.609375 13.234375 47.609375 19.390625 
Q 47.609375 24.75 44.3125 27.78125 
Q 41.015625 30.8125 33.5 32.328125 
L 27.484375 33.5 
Q 16.453125 35.6875 11.515625 40.375 
Q 6.59375 45.0625 6.59375 53.421875 
Q 6.59375 63.09375 13.40625 68.65625 
Q 20.21875 74.21875 32.171875 74.21875 
Q 37.3125 74.21875 42.625 73.28125 
Q 47.953125 72.359375 53.515625 70.515625 
z
" id="DejaVuSans-83"/>
     <path d="M 19.671875 64.796875 
L 19.671875 8.109375 
L 31.59375 8.109375 
Q 46.6875 8.109375 53.6875 14.9375 
Q 60.6875 21.78125 60.6875 36.53125 
Q 60.6875 51.171875 53.6875 57.984375 
Q 46.6875 64.796875 31.59375 64.796875 
z
M 9.8125 72.90625 
L 30.078125 72.90625 
Q 51.265625 72.90625 61.171875 64.09375 
Q 71.09375 55.28125 71.09375 36.53125 
Q 71.09375 17.671875 61.125 8.828125 
Q 51.171875 0 30.078125 0 
L 9.8125 0 
z
" id="DejaVuSans-68"/>
     <path d="M 48.6875 27.296875 
Q 48.6875 37.203125 44.609375 42.84375 
Q 40.53125 48.484375 33.40625 48.484375 
Q 26.265625 48.484375 22.1875 42.84375 
Q 18.109375 37.203125 18.109375 27.296875 
Q 18.109375 17.390625 22.1875 11.75 
Q 26.265625 6.109375 33.40625 6.109375 
Q 40.53125 6.109375 44.609375 11.75 
Q 48.6875 17.390625 48.6875 27.296875 
z
M 18.109375 46.390625 
Q 20.953125 51.265625 25.265625 53.625 
Q 29.59375 56 35.59375 56 
Q 45.5625 56 51.78125 48.09375 
Q 58.015625 40.1875 58.015625 27.296875 
Q 58.015625 14.40625 51.78125 6.484375 
Q 45.5625 -1.421875 35.59375 -1.421875 
Q 29.59375 -1.421875 25.265625 0.953125 
Q 20.953125 3.328125 18.109375 8.203125 
L 18.109375 0 
L 9.078125 0 
L 9.078125 75.984375 
L 18.109375 75.984375 
z
" id="DejaVuSans-98"/>
     <path d="M 8.5 21.578125 
L 8.5 54.6875 
L 17.484375 54.6875 
L 17.484375 21.921875 
Q 17.484375 14.15625 20.5 10.265625 
Q 23.53125 6.390625 29.59375 6.390625 
Q 36.859375 6.390625 41.078125 11.03125 
Q 45.3125 15.671875 45.3125 23.6875 
L 45.3125 54.6875 
L 54.296875 54.6875 
L 54.296875 0 
L 45.3125 0 
L 45.3125 8.40625 
Q 42.046875 3.421875 37.71875 1 
Q 33.40625 -1.421875 27.6875 -1.421875 
Q 18.265625 -1.421875 13.375 4.4375 
Q 8.5 10.296875 8.5 21.578125 
z
M 31.109375 56 
z
" id="DejaVuSans-117"/>
     <path d="M 30.609375 48.390625 
Q 23.390625 48.390625 19.1875 42.75 
Q 14.984375 37.109375 14.984375 27.296875 
Q 14.984375 17.484375 19.15625 11.84375 
Q 23.34375 6.203125 30.609375 6.203125 
Q 37.796875 6.203125 41.984375 11.859375 
Q 46.1875 17.53125 46.1875 27.296875 
Q 46.1875 37.015625 41.984375 42.703125 
Q 37.796875 48.390625 30.609375 48.390625 
z
M 30.609375 56 
Q 42.328125 56 49.015625 48.375 
Q 55.71875 40.765625 55.71875 27.296875 
Q 55.71875 13.875 49.015625 6.21875 
Q 42.328125 -1.421875 30.609375 -1.421875 
Q 18.84375 -1.421875 12.171875 6.21875 
Q 5.515625 13.875 5.515625 27.296875 
Q 5.515625 40.765625 12.171875 48.375 
Q 18.84375 56 30.609375 56 
z
" id="DejaVuSans-111"/>
    </defs>
    <g transform="translate(398.635625 19.3575)scale(0.16 -0.16)">
     <use xlink:href="#DejaVuSans-70"/>
     <use x="57.378906" xlink:href="#DejaVuSans-97"/>
     <use x="118.658203" xlink:href="#DejaVuSans-115"/>
     <use x="170.757812" xlink:href="#DejaVuSans-116"/>
     <use x="209.966797" xlink:href="#DejaVuSans-112"/>
     <use x="273.443359" xlink:href="#DejaVuSans-58"/>
     <use x="307.134766" xlink:href="#DejaVuSans-32"/>
     <use x="338.921875" xlink:href="#DejaVuSans-73"/>
     <use x="368.414062" xlink:href="#DejaVuSans-110"/>
     <use x="431.792969" xlink:href="#DejaVuSans-115"/>
     <use x="483.892578" xlink:href="#DejaVuSans-101"/>
     <use x="545.416016" xlink:href="#DejaVuSans-114"/>
     <use x="586.529297" xlink:href="#DejaVuSans-116"/>
     <use x="625.738281" xlink:href="#DejaVuSans-32"/>
     <use x="657.525391" xlink:href="#DejaVuSans-83"/>
     <use x="721.001953" xlink:href="#DejaVuSans-105"/>
     <use x="748.785156" xlink:href="#DejaVuSans-122"/>
     <use x="801.275391" xlink:href="#DejaVuSans-101"/>
     <use x="862.798828" xlink:href="#DejaVuSans-32"/>
     <use x="894.585938" xlink:href="#DejaVuSans-68"/>
     <use x="971.587891" xlink:href="#DejaVuSans-105"/>
     <use x="999.371094" xlink:href="#DejaVuSans-115"/>
     <use x="1051.470703" xlink:href="#DejaVuSans-116"/>
     <use x="1090.679688" xlink:href="#DejaVuSans-114"/>
     <use x="1131.792969" xlink:href="#DejaVuSans-105"/>
     <use x="1159.576172" xlink:href="#DejaVuSans-98"/>
     <use x="1223.052734" xlink:href="#DejaVuSans-117"/>
     <use x="1286.431641" xlink:href="#DejaVuSans-116"/>
     <use x="1325.640625" xlink:href="#DejaVuSans-105"/>
     <use x="1353.423828" xlink:href="#DejaVuSans-111"/>
     <use x="1414.605469" xlink:href="#DejaVuSans-110"/>
    </g>
   </g>
   <g id="legend_1">
    <g id="line2d_14">
     <path d="M 47.800625 315.455394 
L 63.800625 315.455394 
" style="fill:none;stroke:#7cb5ec;stroke-linecap:square;"/>
    </g>
    <g id="line2d_15"/>
    <g id="text_19">
     <!-- Dar-CJol_003-Ex1-7A-ssl-1-1.clmp.r1r2_fastp -->
     <defs>
      <path d="M 4.890625 31.390625 
L 31.203125 31.390625 
L 31.203125 23.390625 
L 4.890625 23.390625 
z
" id="DejaVuSans-45"/>
      <path d="M 64.40625 67.28125 
L 64.40625 56.890625 
Q 59.421875 61.53125 53.78125 63.8125 
Q 48.140625 66.109375 41.796875 66.109375 
Q 29.296875 66.109375 22.65625 58.46875 
Q 16.015625 50.828125 16.015625 36.375 
Q 16.015625 21.96875 22.65625 14.328125 
Q 29.296875 6.6875 41.796875 6.6875 
Q 48.140625 6.6875 53.78125 8.984375 
Q 59.421875 11.28125 64.40625 15.921875 
L 64.40625 5.609375 
Q 59.234375 2.09375 53.4375 0.328125 
Q 47.65625 -1.421875 41.21875 -1.421875 
Q 24.65625 -1.421875 15.125 8.703125 
Q 5.609375 18.84375 5.609375 36.375 
Q 5.609375 53.953125 15.125 64.078125 
Q 24.65625 74.21875 41.21875 74.21875 
Q 47.75 74.21875 53.53125 72.484375 
Q 59.328125 70.75 64.40625 67.28125 
z
" id="DejaVuSans-67"/>
      <path d="M 9.8125 72.90625 
L 19.671875 72.90625 
L 19.671875 5.078125 
Q 19.671875 -8.109375 14.671875 -14.0625 
Q 9.671875 -20.015625 -1.421875 -20.015625 
L -5.171875 -20.015625 
L -5.171875 -11.71875 
L -2.09375 -11.71875 
Q 4.4375 -11.71875 7.125 -8.046875 
Q 9.8125 -4.390625 9.8125 5.078125 
z
" id="DejaVuSans-74"/>
      <path d="M 9.421875 75.984375 
L 18.40625 75.984375 
L 18.40625 0 
L 9.421875 0 
z
" id="DejaVuSans-108"/>
      <path d="M 50.984375 -16.609375 
L 50.984375 -23.578125 
L -0.984375 -23.578125 
L -0.984375 -16.609375 
z
" id="DejaVuSans-95"/>
      <path d="M 40.578125 39.3125 
Q 47.65625 37.796875 51.625 33 
Q 55.609375 28.21875 55.609375 21.1875 
Q 55.609375 10.40625 48.1875 4.484375 
Q 40.765625 -1.421875 27.09375 -1.421875 
Q 22.515625 -1.421875 17.65625 -0.515625 
Q 12.796875 0.390625 7.625 2.203125 
L 7.625 11.71875 
Q 11.71875 9.328125 16.59375 8.109375 
Q 21.484375 6.890625 26.8125 6.890625 
Q 36.078125 6.890625 40.9375 10.546875 
Q 45.796875 14.203125 45.796875 21.1875 
Q 45.796875 27.640625 41.28125 31.265625 
Q 36.765625 34.90625 28.71875 34.90625 
L 20.21875 34.90625 
L 20.21875 43.015625 
L 29.109375 43.015625 
Q 36.375 43.015625 40.234375 45.921875 
Q 44.09375 48.828125 44.09375 54.296875 
Q 44.09375 59.90625 40.109375 62.90625 
Q 36.140625 65.921875 28.71875 65.921875 
Q 24.65625 65.921875 20.015625 65.03125 
Q 15.375 64.15625 9.8125 62.3125 
L 9.8125 71.09375 
Q 15.4375 72.65625 20.34375 73.4375 
Q 25.25 74.21875 29.59375 74.21875 
Q 40.828125 74.21875 47.359375 69.109375 
Q 53.90625 64.015625 53.90625 55.328125 
Q 53.90625 49.265625 50.4375 45.09375 
Q 46.96875 40.921875 40.578125 39.3125 
z
" id="DejaVuSans-51"/>
      <path d="M 9.8125 72.90625 
L 55.90625 72.90625 
L 55.90625 64.59375 
L 19.671875 64.59375 
L 19.671875 43.015625 
L 54.390625 43.015625 
L 54.390625 34.71875 
L 19.671875 34.71875 
L 19.671875 8.296875 
L 56.78125 8.296875 
L 56.78125 0 
L 9.8125 0 
z
" id="DejaVuSans-69"/>
      <path d="M 54.890625 54.6875 
L 35.109375 28.078125 
L 55.90625 0 
L 45.3125 0 
L 29.390625 21.484375 
L 13.484375 0 
L 2.875 0 
L 24.125 28.609375 
L 4.6875 54.6875 
L 15.28125 54.6875 
L 29.78125 35.203125 
L 44.28125 54.6875 
z
" id="DejaVuSans-120"/>
      <path d="M 8.203125 72.90625 
L 55.078125 72.90625 
L 55.078125 68.703125 
L 28.609375 0 
L 18.3125 0 
L 43.21875 64.59375 
L 8.203125 64.59375 
z
" id="DejaVuSans-55"/>
      <path d="M 34.1875 63.1875 
L 20.796875 26.90625 
L 47.609375 26.90625 
z
M 28.609375 72.90625 
L 39.796875 72.90625 
L 67.578125 0 
L 57.328125 0 
L 50.6875 18.703125 
L 17.828125 18.703125 
L 11.1875 0 
L 0.78125 0 
z
" id="DejaVuSans-65"/>
      <path d="M 52 44.1875 
Q 55.375 50.25 60.0625 53.125 
Q 64.75 56 71.09375 56 
Q 79.640625 56 84.28125 50.015625 
Q 88.921875 44.046875 88.921875 33.015625 
L 88.921875 0 
L 79.890625 0 
L 79.890625 32.71875 
Q 79.890625 40.578125 77.09375 44.375 
Q 74.3125 48.1875 68.609375 48.1875 
Q 61.625 48.1875 57.5625 43.546875 
Q 53.515625 38.921875 53.515625 30.90625 
L 53.515625 0 
L 44.484375 0 
L 44.484375 32.71875 
Q 44.484375 40.625 41.703125 44.40625 
Q 38.921875 48.1875 33.109375 48.1875 
Q 26.21875 48.1875 22.15625 43.53125 
Q 18.109375 38.875 18.109375 30.90625 
L 18.109375 0 
L 9.078125 0 
L 9.078125 54.6875 
L 18.109375 54.6875 
L 18.109375 46.1875 
Q 21.1875 51.21875 25.484375 53.609375 
Q 29.78125 56 35.6875 56 
Q 41.65625 56 45.828125 52.96875 
Q 50 49.953125 52 44.1875 
z
" id="DejaVuSans-109"/>
      <path d="M 37.109375 75.984375 
L 37.109375 68.5 
L 28.515625 68.5 
Q 23.6875 68.5 21.796875 66.546875 
Q 19.921875 64.59375 19.921875 59.515625 
L 19.921875 54.6875 
L 34.71875 54.6875 
L 34.71875 47.703125 
L 19.921875 47.703125 
L 19.921875 0 
L 10.890625 0 
L 10.890625 47.703125 
L 2.296875 47.703125 
L 2.296875 54.6875 
L 10.890625 54.6875 
L 10.890625 58.5 
Q 10.890625 67.625 15.140625 71.796875 
Q 19.390625 75.984375 28.609375 75.984375 
z
" id="DejaVuSans-102"/>
     </defs>
     <g transform="translate(70.200625 318.255394)scale(0.08 -0.08)">
      <use xlink:href="#DejaVuSans-68"/>
      <use x="77.001953" xlink:href="#DejaVuSans-97"/>
      <use x="138.28125" xlink:href="#DejaVuSans-114"/>
      <use x="179.300781" xlink:href="#DejaVuSans-45"/>
      <use x="215.384766" xlink:href="#DejaVuSans-67"/>
      <use x="285.208984" xlink:href="#DejaVuSans-74"/>
      <use x="314.701172" xlink:href="#DejaVuSans-111"/>
      <use x="375.882812" xlink:href="#DejaVuSans-108"/>
      <use x="403.666016" xlink:href="#DejaVuSans-95"/>
      <use x="453.666016" xlink:href="#DejaVuSans-48"/>
      <use x="517.289062" xlink:href="#DejaVuSans-48"/>
      <use x="580.912109" xlink:href="#DejaVuSans-51"/>
      <use x="644.535156" xlink:href="#DejaVuSans-45"/>
      <use x="680.619141" xlink:href="#DejaVuSans-69"/>
      <use x="743.802734" xlink:href="#DejaVuSans-120"/>
      <use x="802.982422" xlink:href="#DejaVuSans-49"/>
      <use x="866.605469" xlink:href="#DejaVuSans-45"/>
      <use x="902.689453" xlink:href="#DejaVuSans-55"/>
      <use x="966.3125" xlink:href="#DejaVuSans-65"/>
      <use x="1034.689453" xlink:href="#DejaVuSans-45"/>
      <use x="1070.773438" xlink:href="#DejaVuSans-115"/>
      <use x="1122.873047" xlink:href="#DejaVuSans-115"/>
      <use x="1174.972656" xlink:href="#DejaVuSans-108"/>
      <use x="1202.755859" xlink:href="#DejaVuSans-45"/>
      <use x="1238.839844" xlink:href="#DejaVuSans-49"/>
      <use x="1302.462891" xlink:href="#DejaVuSans-45"/>
      <use x="1338.546875" xlink:href="#DejaVuSans-49"/>
      <use x="1402.169922" xlink:href="#DejaVuSans-46"/>
      <use x="1433.957031" xlink:href="#DejaVuSans-99"/>
      <use x="1488.9375" xlink:href="#DejaVuSans-108"/>
      <use x="1516.720703" xlink:href="#DejaVuSans-109"/>
      <use x="1614.132812" xlink:href="#DejaVuSans-112"/>
      <use x="1677.609375" xlink:href="#DejaVuSans-46"/>
      <use x="1709.396484" xlink:href="#DejaVuSans-114"/>
      <use x="1750.509766" xlink:href="#DejaVuSans-49"/>
      <use x="1814.132812" xlink:href="#DejaVuSans-114"/>
      <use x="1855.246094" xlink:href="#DejaVuSans-50"/>
      <use x="1918.869141" xlink:href="#DejaVuSans-95"/>
      <use x="1968.869141" xlink:href="#DejaVuSans-102"/>
      <use x="2004.074219" xlink:href="#DejaVuSans-97"/>
      <use x="2065.353516" xlink:href="#DejaVuSans-115"/>
      <use x="2117.453125" xlink:href="#DejaVuSans-116"/>
      <use x="2156.662109" xlink:href="#DejaVuSans-112"/>
     </g>
    </g>
    <g id="line2d_16">
     <path d="M 416.86625 315.455394 
L 432.86625 315.455394 
" style="fill:none;stroke:#434348;stroke-linecap:square;"/>
    </g>
    <g id="line2d_17"/>
    <g id="text_20">
     <!-- Dar-CJol_003-Ex1-8A-ssl-1-1.clmp.r1r2_fastp -->
     <g transform="translate(439.26625 318.255394)scale(0.08 -0.08)">
      <use xlink:href="#DejaVuSans-68"/>
      <use x="77.001953" xlink:href="#DejaVuSans-97"/>
      <use x="138.28125" xlink:href="#DejaVuSans-114"/>
      <use x="179.300781" xlink:href="#DejaVuSans-45"/>
      <use x="215.384766" xlink:href="#DejaVuSans-67"/>
      <use x="285.208984" xlink:href="#DejaVuSans-74"/>
      <use x="314.701172" xlink:href="#DejaVuSans-111"/>
      <use x="375.882812" xlink:href="#DejaVuSans-108"/>
      <use x="403.666016" xlink:href="#DejaVuSans-95"/>
      <use x="453.666016" xlink:href="#DejaVuSans-48"/>
      <use x="517.289062" xlink:href="#DejaVuSans-48"/>
      <use x="580.912109" xlink:href="#DejaVuSans-51"/>
      <use x="644.535156" xlink:href="#DejaVuSans-45"/>
      <use x="680.619141" xlink:href="#DejaVuSans-69"/>
      <use x="743.802734" xlink:href="#DejaVuSans-120"/>
      <use x="802.982422" xlink:href="#DejaVuSans-49"/>
      <use x="866.605469" xlink:href="#DejaVuSans-45"/>
      <use x="902.689453" xlink:href="#DejaVuSans-56"/>
      <use x="966.3125" xlink:href="#DejaVuSans-65"/>
      <use x="1034.689453" xlink:href="#DejaVuSans-45"/>
      <use x="1070.773438" xlink:href="#DejaVuSans-115"/>
      <use x="1122.873047" xlink:href="#DejaVuSans-115"/>
      <use x="1174.972656" xlink:href="#DejaVuSans-108"/>
      <use x="1202.755859" xlink:href="#DejaVuSans-45"/>
      <use x="1238.839844" xlink:href="#DejaVuSans-49"/>
      <use x="1302.462891" xlink:href="#DejaVuSans-45"/>
      <use x="1338.546875" xlink:href="#DejaVuSans-49"/>
      <use x="1402.169922" xlink:href="#DejaVuSans-46"/>
      <use x="1433.957031" xlink:href="#DejaVuSans-99"/>
      <use x="1488.9375" xlink:href="#DejaVuSans-108"/>
      <use x="1516.720703" xlink:href="#DejaVuSans-109"/>
      <use x="1614.132812" xlink:href="#DejaVuSans-112"/>
      <use x="1677.609375" xlink:href="#DejaVuSans-46"/>
      <use x="1709.396484" xlink:href="#DejaVuSans-114"/>
      <use x="1750.509766" xlink:href="#DejaVuSans-49"/>
      <use x="1814.132812" xlink:href="#DejaVuSans-114"/>
      <use x="1855.246094" xlink:href="#DejaVuSans-50"/>
      <use x="1918.869141" xlink:href="#DejaVuSans-95"/>
      <use x="1968.869141" xlink:href="#DejaVuSans-102"/>
      <use x="2004.074219" xlink:href="#DejaVuSans-97"/>
      <use x="2065.353516" xlink:href="#DejaVuSans-115"/>
      <use x="2117.453125" xlink:href="#DejaVuSans-116"/>
      <use x="2156.662109" xlink:href="#DejaVuSans-112"/>
     </g>
    </g>
    <g id="line2d_18">
     <path d="M 785.931875 315.455394 
L 801.931875 315.455394 
" style="fill:none;stroke:#90ed7d;stroke-linecap:square;"/>
    </g>
    <g id="line2d_19"/>
    <g id="text_21">
     <!-- Dar-CJol_003-Ex1-9A-ssl-1-1.clmp.r1r2_fastp -->
     <defs>
      <path d="M 10.984375 1.515625 
L 10.984375 10.5 
Q 14.703125 8.734375 18.5 7.8125 
Q 22.3125 6.890625 25.984375 6.890625 
Q 35.75 6.890625 40.890625 13.453125 
Q 46.046875 20.015625 46.78125 33.40625 
Q 43.953125 29.203125 39.59375 26.953125 
Q 35.25 24.703125 29.984375 24.703125 
Q 19.046875 24.703125 12.671875 31.3125 
Q 6.296875 37.9375 6.296875 49.421875 
Q 6.296875 60.640625 12.9375 67.421875 
Q 19.578125 74.21875 30.609375 74.21875 
Q 43.265625 74.21875 49.921875 64.515625 
Q 56.59375 54.828125 56.59375 36.375 
Q 56.59375 19.140625 48.40625 8.859375 
Q 40.234375 -1.421875 26.421875 -1.421875 
Q 22.703125 -1.421875 18.890625 -0.6875 
Q 15.09375 0.046875 10.984375 1.515625 
z
M 30.609375 32.421875 
Q 37.25 32.421875 41.125 36.953125 
Q 45.015625 41.5 45.015625 49.421875 
Q 45.015625 57.28125 41.125 61.84375 
Q 37.25 66.40625 30.609375 66.40625 
Q 23.96875 66.40625 20.09375 61.84375 
Q 16.21875 57.28125 16.21875 49.421875 
Q 16.21875 41.5 20.09375 36.953125 
Q 23.96875 32.421875 30.609375 32.421875 
z
" id="DejaVuSans-57"/>
     </defs>
     <g transform="translate(808.331875 318.255394)scale(0.08 -0.08)">
      <use xlink:href="#DejaVuSans-68"/>
      <use x="77.001953" xlink:href="#DejaVuSans-97"/>
      <use x="138.28125" xlink:href="#DejaVuSans-114"/>
      <use x="179.300781" xlink:href="#DejaVuSans-45"/>
      <use x="215.384766" xlink:href="#DejaVuSans-67"/>
      <use x="285.208984" xlink:href="#DejaVuSans-74"/>
      <use x="314.701172" xlink:href="#DejaVuSans-111"/>
      <use x="375.882812" xlink:href="#DejaVuSans-108"/>
      <use x="403.666016" xlink:href="#DejaVuSans-95"/>
      <use x="453.666016" xlink:href="#DejaVuSans-48"/>
      <use x="517.289062" xlink:href="#DejaVuSans-48"/>
      <use x="580.912109" xlink:href="#DejaVuSans-51"/>
      <use x="644.535156" xlink:href="#DejaVuSans-45"/>
      <use x="680.619141" xlink:href="#DejaVuSans-69"/>
      <use x="743.802734" xlink:href="#DejaVuSans-120"/>
      <use x="802.982422" xlink:href="#DejaVuSans-49"/>
      <use x="866.605469" xlink:href="#DejaVuSans-45"/>
      <use x="902.689453" xlink:href="#DejaVuSans-57"/>
      <use x="966.3125" xlink:href="#DejaVuSans-65"/>
      <use x="1034.689453" xlink:href="#DejaVuSans-45"/>
      <use x="1070.773438" xlink:href="#DejaVuSans-115"/>
      <use x="1122.873047" xlink:href="#DejaVuSans-115"/>
      <use x="1174.972656" xlink:href="#DejaVuSans-108"/>
      <use x="1202.755859" xlink:href="#DejaVuSans-45"/>
      <use x="1238.839844" xlink:href="#DejaVuSans-49"/>
      <use x="1302.462891" xlink:href="#DejaVuSans-45"/>
      <use x="1338.546875" xlink:href="#DejaVuSans-49"/>
      <use x="1402.169922" xlink:href="#DejaVuSans-46"/>
      <use x="1433.957031" xlink:href="#DejaVuSans-99"/>
      <use x="1488.9375" xlink:href="#DejaVuSans-108"/>
      <use x="1516.720703" xlink:href="#DejaVuSans-109"/>
      <use x="1614.132812" xlink:href="#DejaVuSans-112"/>
      <use x="1677.609375" xlink:href="#DejaVuSans-46"/>
      <use x="1709.396484" xlink:href="#DejaVuSans-114"/>
      <use x="1750.509766" xlink:href="#DejaVuSans-49"/>
      <use x="1814.132812" xlink:href="#DejaVuSans-114"/>
      <use x="1855.246094" xlink:href="#DejaVuSans-50"/>
      <use x="1918.869141" xlink:href="#DejaVuSans-95"/>
      <use x="1968.869141" xlink:href="#DejaVuSans-102"/>
      <use x="2004.074219" xlink:href="#DejaVuSans-97"/>
      <use x="2065.353516" xlink:href="#DejaVuSans-115"/>
      <use x="2117.453125" xlink:href="#DejaVuSans-116"/>
      <use x="2156.662109" xlink:href="#DejaVuSans-112"/>
     </g>
    </g>
   </g>
  </g>
 </g>
 <defs>
  <clipPath id="p61e53e0c3d">
   <rect height="242.5072" width="952.54" x="40.600625" y="31.48286"/>
  </clipPath>
 </defs>
</svg>
