<?xml version="1.0" encoding="utf-8" standalone="no"?>
<!DOCTYPE svg PUBLIC "-//W3C//DTD SVG 1.1//EN"
  "http://www.w3.org/Graphics/SVG/1.1/DTD/svg11.dtd">
<!-- Created with matplotlib (https://matplotlib.org/) -->
<svg height="330.541644pt" version="1.1" viewBox="0 0 1000.340625 330.541644" width="1000.340625pt" xmlns="http://www.w3.org/2000/svg" xmlns:xlink="http://www.w3.org/1999/xlink">
 <defs>
  <style type="text/css">
*{stroke-linecap:butt;stroke-linejoin:round;}
  </style>
 </defs>
 <g id="figure_1">
  <g id="axes_1">
   <g id="patch_1">
    <path d="M 40.600625 273.99006 
L 993.140625 273.99006 
L 993.140625 31.48286 
L 40.600625 31.48286 
z
" style="fill:#ffffff;"/>
   </g>
   <g id="matplotlib.axis_1">
    <g id="xtick_1">
     <g id="text_1">
      <!-- 0 -->
      <defs>
       <path d="M 31.78125 66.40625 
Q 24.171875 66.40625 20.328125 58.90625 
Q 16.5 51.421875 16.5 36.375 
Q 16.5 21.390625 20.328125 13.890625 
Q 24.171875 6.390625 31.78125 6.390625 
Q 39.453125 6.390625 43.28125 13.890625 
Q 47.125 21.390625 47.125 36.375 
Q 47.125 51.421875 43.28125 58.90625 
Q 39.453125 66.40625 31.78125 66.40625 
z
M 31.78125 74.21875 
Q 44.046875 74.21875 50.515625 64.515625 
Q 56.984375 54.828125 56.984375 36.375 
Q 56.984375 17.96875 50.515625 8.265625 
Q 44.046875 -1.421875 31.78125 -1.421875 
Q 19.53125 -1.421875 13.0625 8.265625 
Q 6.59375 17.96875 6.59375 36.375 
Q 6.59375 54.828125 13.0625 64.515625 
Q 19.53125 74.21875 31.78125 74.21875 
z
" id="DejaVuSans-48"/>
      </defs>
      <g transform="translate(78.13377 287.06881)scale(0.08 -0.08)">
       <use xlink:href="#DejaVuSans-48"/>
      </g>
     </g>
    </g>
    <g id="xtick_2">
     <g id="text_2">
      <!-- 50 -->
      <defs>
       <path d="M 10.796875 72.90625 
L 49.515625 72.90625 
L 49.515625 64.59375 
L 19.828125 64.59375 
L 19.828125 46.734375 
Q 21.96875 47.46875 24.109375 47.828125 
Q 26.265625 48.1875 28.421875 48.1875 
Q 40.625 48.1875 47.75 41.5 
Q 54.890625 34.8125 54.890625 23.390625 
Q 54.890625 11.625 47.5625 5.09375 
Q 40.234375 -1.421875 26.90625 -1.421875 
Q 22.3125 -1.421875 17.546875 -0.640625 
Q 12.796875 0.140625 7.71875 1.703125 
L 7.71875 11.625 
Q 12.109375 9.234375 16.796875 8.0625 
Q 21.484375 6.890625 26.703125 6.890625 
Q 35.15625 6.890625 40.078125 11.328125 
Q 45.015625 15.765625 45.015625 23.390625 
Q 45.015625 31 40.078125 35.4375 
Q 35.15625 39.890625 26.703125 39.890625 
Q 22.75 39.890625 18.8125 39.015625 
Q 14.890625 38.140625 10.796875 36.28125 
z
" id="DejaVuSans-53"/>
      </defs>
      <g transform="translate(236.545174 287.06881)scale(0.08 -0.08)">
       <use xlink:href="#DejaVuSans-53"/>
       <use x="63.623047" xlink:href="#DejaVuSans-48"/>
      </g>
     </g>
    </g>
    <g id="xtick_3">
     <g id="text_3">
      <!-- 100 -->
      <defs>
       <path d="M 12.40625 8.296875 
L 28.515625 8.296875 
L 28.515625 63.921875 
L 10.984375 60.40625 
L 10.984375 69.390625 
L 28.421875 72.90625 
L 38.28125 72.90625 
L 38.28125 8.296875 
L 54.390625 8.296875 
L 54.390625 0 
L 12.40625 0 
z
" id="DejaVuSans-49"/>
      </defs>
      <g transform="translate(394.956578 287.06881)scale(0.08 -0.08)">
       <use xlink:href="#DejaVuSans-49"/>
       <use x="63.623047" xlink:href="#DejaVuSans-48"/>
       <use x="127.246094" xlink:href="#DejaVuSans-48"/>
      </g>
     </g>
    </g>
    <g id="xtick_4">
     <g id="text_4">
      <!-- 150 -->
      <g transform="translate(555.912982 287.06881)scale(0.08 -0.08)">
       <use xlink:href="#DejaVuSans-49"/>
       <use x="63.623047" xlink:href="#DejaVuSans-53"/>
       <use x="127.246094" xlink:href="#DejaVuSans-48"/>
      </g>
     </g>
    </g>
    <g id="xtick_5">
     <g id="text_5">
      <!-- 200 -->
      <defs>
       <path d="M 19.1875 8.296875 
L 53.609375 8.296875 
L 53.609375 0 
L 7.328125 0 
L 7.328125 8.296875 
Q 12.9375 14.109375 22.625 23.890625 
Q 32.328125 33.6875 34.8125 36.53125 
Q 39.546875 41.84375 41.421875 45.53125 
Q 43.3125 49.21875 43.3125 52.78125 
Q 43.3125 58.59375 39.234375 62.25 
Q 35.15625 65.921875 28.609375 65.921875 
Q 23.96875 65.921875 18.8125 64.3125 
Q 13.671875 62.703125 7.8125 59.421875 
L 7.8125 69.390625 
Q 13.765625 71.78125 18.9375 73 
Q 24.125 74.21875 28.421875 74.21875 
Q 39.75 74.21875 46.484375 68.546875 
Q 53.21875 62.890625 53.21875 53.421875 
Q 53.21875 48.921875 51.53125 44.890625 
Q 49.859375 40.875 45.40625 35.40625 
Q 44.1875 33.984375 37.640625 27.21875 
Q 31.109375 20.453125 19.1875 8.296875 
z
" id="DejaVuSans-50"/>
      </defs>
      <g transform="translate(716.869386 287.06881)scale(0.08 -0.08)">
       <use xlink:href="#DejaVuSans-50"/>
       <use x="63.623047" xlink:href="#DejaVuSans-48"/>
       <use x="127.246094" xlink:href="#DejaVuSans-48"/>
      </g>
     </g>
    </g>
    <g id="xtick_6">
     <g id="text_6">
      <!-- 250 -->
      <g transform="translate(877.825791 287.06881)scale(0.08 -0.08)">
       <use xlink:href="#DejaVuSans-50"/>
       <use x="63.623047" xlink:href="#DejaVuSans-53"/>
       <use x="127.246094" xlink:href="#DejaVuSans-48"/>
      </g>
     </g>
    </g>
    <g id="text_7">
     <!-- Insert size -->
     <defs>
      <path d="M 9.8125 72.90625 
L 19.671875 72.90625 
L 19.671875 0 
L 9.8125 0 
z
" id="DejaVuSans-73"/>
      <path d="M 54.890625 33.015625 
L 54.890625 0 
L 45.90625 0 
L 45.90625 32.71875 
Q 45.90625 40.484375 42.875 44.328125 
Q 39.84375 48.1875 33.796875 48.1875 
Q 26.515625 48.1875 22.3125 43.546875 
Q 18.109375 38.921875 18.109375 30.90625 
L 18.109375 0 
L 9.078125 0 
L 9.078125 54.6875 
L 18.109375 54.6875 
L 18.109375 46.1875 
Q 21.34375 51.125 25.703125 53.5625 
Q 30.078125 56 35.796875 56 
Q 45.21875 56 50.046875 50.171875 
Q 54.890625 44.34375 54.890625 33.015625 
z
" id="DejaVuSans-110"/>
      <path d="M 44.28125 53.078125 
L 44.28125 44.578125 
Q 40.484375 46.53125 36.375 47.5 
Q 32.28125 48.484375 27.875 48.484375 
Q 21.1875 48.484375 17.84375 46.4375 
Q 14.5 44.390625 14.5 40.28125 
Q 14.5 37.15625 16.890625 35.375 
Q 19.28125 33.59375 26.515625 31.984375 
L 29.59375 31.296875 
Q 39.15625 29.25 43.1875 25.515625 
Q 47.21875 21.78125 47.21875 15.09375 
Q 47.21875 7.46875 41.1875 3.015625 
Q 35.15625 -1.421875 24.609375 -1.421875 
Q 20.21875 -1.421875 15.453125 -0.5625 
Q 10.6875 0.296875 5.421875 2 
L 5.421875 11.28125 
Q 10.40625 8.6875 15.234375 7.390625 
Q 20.0625 6.109375 24.8125 6.109375 
Q 31.15625 6.109375 34.5625 8.28125 
Q 37.984375 10.453125 37.984375 14.40625 
Q 37.984375 18.0625 35.515625 20.015625 
Q 33.0625 21.96875 24.703125 23.78125 
L 21.578125 24.515625 
Q 13.234375 26.265625 9.515625 29.90625 
Q 5.8125 33.546875 5.8125 39.890625 
Q 5.8125 47.609375 11.28125 51.796875 
Q 16.75 56 26.8125 56 
Q 31.78125 56 36.171875 55.265625 
Q 40.578125 54.546875 44.28125 53.078125 
z
" id="DejaVuSans-115"/>
      <path d="M 56.203125 29.59375 
L 56.203125 25.203125 
L 14.890625 25.203125 
Q 15.484375 15.921875 20.484375 11.0625 
Q 25.484375 6.203125 34.421875 6.203125 
Q 39.59375 6.203125 44.453125 7.46875 
Q 49.3125 8.734375 54.109375 11.28125 
L 54.109375 2.78125 
Q 49.265625 0.734375 44.1875 -0.34375 
Q 39.109375 -1.421875 33.890625 -1.421875 
Q 20.796875 -1.421875 13.15625 6.1875 
Q 5.515625 13.8125 5.515625 26.8125 
Q 5.515625 40.234375 12.765625 48.109375 
Q 20.015625 56 32.328125 56 
Q 43.359375 56 49.78125 48.890625 
Q 56.203125 41.796875 56.203125 29.59375 
z
M 47.21875 32.234375 
Q 47.125 39.59375 43.09375 43.984375 
Q 39.0625 48.390625 32.421875 48.390625 
Q 24.90625 48.390625 20.390625 44.140625 
Q 15.875 39.890625 15.1875 32.171875 
z
" id="DejaVuSans-101"/>
      <path d="M 41.109375 46.296875 
Q 39.59375 47.171875 37.8125 47.578125 
Q 36.03125 48 33.890625 48 
Q 26.265625 48 22.1875 43.046875 
Q 18.109375 38.09375 18.109375 28.8125 
L 18.109375 0 
L 9.078125 0 
L 9.078125 54.6875 
L 18.109375 54.6875 
L 18.109375 46.1875 
Q 20.953125 51.171875 25.484375 53.578125 
Q 30.03125 56 36.53125 56 
Q 37.453125 56 38.578125 55.875 
Q 39.703125 55.765625 41.0625 55.515625 
z
" id="DejaVuSans-114"/>
      <path d="M 18.3125 70.21875 
L 18.3125 54.6875 
L 36.8125 54.6875 
L 36.8125 47.703125 
L 18.3125 47.703125 
L 18.3125 18.015625 
Q 18.3125 11.328125 20.140625 9.421875 
Q 21.96875 7.515625 27.59375 7.515625 
L 36.8125 7.515625 
L 36.8125 0 
L 27.59375 0 
Q 17.1875 0 13.234375 3.875 
Q 9.28125 7.765625 9.28125 18.015625 
L 9.28125 47.703125 
L 2.6875 47.703125 
L 2.6875 54.6875 
L 9.28125 54.6875 
L 9.28125 70.21875 
z
" id="DejaVuSans-116"/>
      <path id="DejaVuSans-32"/>
      <path d="M 9.421875 54.6875 
L 18.40625 54.6875 
L 18.40625 0 
L 9.421875 0 
z
M 9.421875 75.984375 
L 18.40625 75.984375 
L 18.40625 64.59375 
L 9.421875 64.59375 
z
" id="DejaVuSans-105"/>
      <path d="M 5.515625 54.6875 
L 48.1875 54.6875 
L 48.1875 46.484375 
L 14.40625 7.171875 
L 48.1875 7.171875 
L 48.1875 0 
L 4.296875 0 
L 4.296875 8.203125 
L 38.09375 47.515625 
L 5.515625 47.515625 
z
" id="DejaVuSans-122"/>
     </defs>
     <g transform="translate(491.246406 300.330997)scale(0.1 -0.1)">
      <use xlink:href="#DejaVuSans-73"/>
      <use x="29.492188" xlink:href="#DejaVuSans-110"/>
      <use x="92.871094" xlink:href="#DejaVuSans-115"/>
      <use x="144.970703" xlink:href="#DejaVuSans-101"/>
      <use x="206.494141" xlink:href="#DejaVuSans-114"/>
      <use x="247.607422" xlink:href="#DejaVuSans-116"/>
      <use x="286.816406" xlink:href="#DejaVuSans-32"/>
      <use x="318.603516" xlink:href="#DejaVuSans-115"/>
      <use x="370.703125" xlink:href="#DejaVuSans-105"/>
      <use x="398.486328" xlink:href="#DejaVuSans-122"/>
      <use x="450.976562" xlink:href="#DejaVuSans-101"/>
     </g>
    </g>
   </g>
   <g id="matplotlib.axis_2">
    <g id="ytick_1">
     <g id="line2d_1">
      <path clip-path="url(#p449aa120d6)" d="M 40.600625 273.99006 
L 993.140625 273.99006 
" style="fill:none;stroke:#dedede;stroke-linecap:square;"/>
     </g>
     <g id="text_8">
      <!-- 0.0 -->
      <defs>
       <path d="M 10.6875 12.40625 
L 21 12.40625 
L 21 0 
L 10.6875 0 
z
" id="DejaVuSans-46"/>
      </defs>
      <g transform="translate(20.878125 277.029435)scale(0.08 -0.08)">
       <use xlink:href="#DejaVuSans-48"/>
       <use x="63.623047" xlink:href="#DejaVuSans-46"/>
       <use x="95.410156" xlink:href="#DejaVuSans-48"/>
      </g>
     </g>
    </g>
    <g id="ytick_2">
     <g id="line2d_2">
      <path clip-path="url(#p449aa120d6)" d="M 40.600625 241.646975 
L 993.140625 241.646975 
" style="fill:none;stroke:#dedede;stroke-linecap:square;"/>
     </g>
     <g id="text_9">
      <!-- 0.2 -->
      <g transform="translate(20.878125 244.68635)scale(0.08 -0.08)">
       <use xlink:href="#DejaVuSans-48"/>
       <use x="63.623047" xlink:href="#DejaVuSans-46"/>
       <use x="95.410156" xlink:href="#DejaVuSans-50"/>
      </g>
     </g>
    </g>
    <g id="ytick_3">
     <g id="line2d_3">
      <path clip-path="url(#p449aa120d6)" d="M 40.600625 209.30389 
L 993.140625 209.30389 
" style="fill:none;stroke:#dedede;stroke-linecap:square;"/>
     </g>
     <g id="text_10">
      <!-- 0.4 -->
      <defs>
       <path d="M 37.796875 64.3125 
L 12.890625 25.390625 
L 37.796875 25.390625 
z
M 35.203125 72.90625 
L 47.609375 72.90625 
L 47.609375 25.390625 
L 58.015625 25.390625 
L 58.015625 17.1875 
L 47.609375 17.1875 
L 47.609375 0 
L 37.796875 0 
L 37.796875 17.1875 
L 4.890625 17.1875 
L 4.890625 26.703125 
z
" id="DejaVuSans-52"/>
      </defs>
      <g transform="translate(20.878125 212.343265)scale(0.08 -0.08)">
       <use xlink:href="#DejaVuSans-48"/>
       <use x="63.623047" xlink:href="#DejaVuSans-46"/>
       <use x="95.410156" xlink:href="#DejaVuSans-52"/>
      </g>
     </g>
    </g>
    <g id="ytick_4">
     <g id="line2d_4">
      <path clip-path="url(#p449aa120d6)" d="M 40.600625 176.960805 
L 993.140625 176.960805 
" style="fill:none;stroke:#dedede;stroke-linecap:square;"/>
     </g>
     <g id="text_11">
      <!-- 0.6 -->
      <defs>
       <path d="M 33.015625 40.375 
Q 26.375 40.375 22.484375 35.828125 
Q 18.609375 31.296875 18.609375 23.390625 
Q 18.609375 15.53125 22.484375 10.953125 
Q 26.375 6.390625 33.015625 6.390625 
Q 39.65625 6.390625 43.53125 10.953125 
Q 47.40625 15.53125 47.40625 23.390625 
Q 47.40625 31.296875 43.53125 35.828125 
Q 39.65625 40.375 33.015625 40.375 
z
M 52.59375 71.296875 
L 52.59375 62.3125 
Q 48.875 64.0625 45.09375 64.984375 
Q 41.3125 65.921875 37.59375 65.921875 
Q 27.828125 65.921875 22.671875 59.328125 
Q 17.53125 52.734375 16.796875 39.40625 
Q 19.671875 43.65625 24.015625 45.921875 
Q 28.375 48.1875 33.59375 48.1875 
Q 44.578125 48.1875 50.953125 41.515625 
Q 57.328125 34.859375 57.328125 23.390625 
Q 57.328125 12.15625 50.6875 5.359375 
Q 44.046875 -1.421875 33.015625 -1.421875 
Q 20.359375 -1.421875 13.671875 8.265625 
Q 6.984375 17.96875 6.984375 36.375 
Q 6.984375 53.65625 15.1875 63.9375 
Q 23.390625 74.21875 37.203125 74.21875 
Q 40.921875 74.21875 44.703125 73.484375 
Q 48.484375 72.75 52.59375 71.296875 
z
" id="DejaVuSans-54"/>
      </defs>
      <g transform="translate(20.878125 180.00018)scale(0.08 -0.08)">
       <use xlink:href="#DejaVuSans-48"/>
       <use x="63.623047" xlink:href="#DejaVuSans-46"/>
       <use x="95.410156" xlink:href="#DejaVuSans-54"/>
      </g>
     </g>
    </g>
    <g id="ytick_5">
     <g id="line2d_5">
      <path clip-path="url(#p449aa120d6)" d="M 40.600625 144.61772 
L 993.140625 144.61772 
" style="fill:none;stroke:#dedede;stroke-linecap:square;"/>
     </g>
     <g id="text_12">
      <!-- 0.8 -->
      <defs>
       <path d="M 31.78125 34.625 
Q 24.75 34.625 20.71875 30.859375 
Q 16.703125 27.09375 16.703125 20.515625 
Q 16.703125 13.921875 20.71875 10.15625 
Q 24.75 6.390625 31.78125 6.390625 
Q 38.8125 6.390625 42.859375 10.171875 
Q 46.921875 13.96875 46.921875 20.515625 
Q 46.921875 27.09375 42.890625 30.859375 
Q 38.875 34.625 31.78125 34.625 
z
M 21.921875 38.8125 
Q 15.578125 40.375 12.03125 44.71875 
Q 8.5 49.078125 8.5 55.328125 
Q 8.5 64.0625 14.71875 69.140625 
Q 20.953125 74.21875 31.78125 74.21875 
Q 42.671875 74.21875 48.875 69.140625 
Q 55.078125 64.0625 55.078125 55.328125 
Q 55.078125 49.078125 51.53125 44.71875 
Q 48 40.375 41.703125 38.8125 
Q 48.828125 37.15625 52.796875 32.3125 
Q 56.78125 27.484375 56.78125 20.515625 
Q 56.78125 9.90625 50.3125 4.234375 
Q 43.84375 -1.421875 31.78125 -1.421875 
Q 19.734375 -1.421875 13.25 4.234375 
Q 6.78125 9.90625 6.78125 20.515625 
Q 6.78125 27.484375 10.78125 32.3125 
Q 14.796875 37.15625 21.921875 38.8125 
z
M 18.3125 54.390625 
Q 18.3125 48.734375 21.84375 45.5625 
Q 25.390625 42.390625 31.78125 42.390625 
Q 38.140625 42.390625 41.71875 45.5625 
Q 45.3125 48.734375 45.3125 54.390625 
Q 45.3125 60.0625 41.71875 63.234375 
Q 38.140625 66.40625 31.78125 66.40625 
Q 25.390625 66.40625 21.84375 63.234375 
Q 18.3125 60.0625 18.3125 54.390625 
z
" id="DejaVuSans-56"/>
      </defs>
      <g transform="translate(20.878125 147.657095)scale(0.08 -0.08)">
       <use xlink:href="#DejaVuSans-48"/>
       <use x="63.623047" xlink:href="#DejaVuSans-46"/>
       <use x="95.410156" xlink:href="#DejaVuSans-56"/>
      </g>
     </g>
    </g>
    <g id="ytick_6">
     <g id="line2d_6">
      <path clip-path="url(#p449aa120d6)" d="M 40.600625 112.274635 
L 993.140625 112.274635 
" style="fill:none;stroke:#dedede;stroke-linecap:square;"/>
     </g>
     <g id="text_13">
      <!-- 1.0 -->
      <g transform="translate(20.878125 115.31401)scale(0.08 -0.08)">
       <use xlink:href="#DejaVuSans-49"/>
       <use x="63.623047" xlink:href="#DejaVuSans-46"/>
       <use x="95.410156" xlink:href="#DejaVuSans-48"/>
      </g>
     </g>
    </g>
    <g id="ytick_7">
     <g id="line2d_7">
      <path clip-path="url(#p449aa120d6)" d="M 40.600625 79.93155 
L 993.140625 79.93155 
" style="fill:none;stroke:#dedede;stroke-linecap:square;"/>
     </g>
     <g id="text_14">
      <!-- 1.2 -->
      <g transform="translate(20.878125 82.970925)scale(0.08 -0.08)">
       <use xlink:href="#DejaVuSans-49"/>
       <use x="63.623047" xlink:href="#DejaVuSans-46"/>
       <use x="95.410156" xlink:href="#DejaVuSans-50"/>
      </g>
     </g>
    </g>
    <g id="ytick_8">
     <g id="line2d_8">
      <path clip-path="url(#p449aa120d6)" d="M 40.600625 47.588465 
L 993.140625 47.588465 
" style="fill:none;stroke:#dedede;stroke-linecap:square;"/>
     </g>
     <g id="text_15">
      <!-- 1.4 -->
      <g transform="translate(20.878125 50.62784)scale(0.08 -0.08)">
       <use xlink:href="#DejaVuSans-49"/>
       <use x="63.623047" xlink:href="#DejaVuSans-46"/>
       <use x="95.410156" xlink:href="#DejaVuSans-52"/>
      </g>
     </g>
    </g>
    <g id="text_16">
     <!-- Read percent -->
     <defs>
      <path d="M 44.390625 34.1875 
Q 47.5625 33.109375 50.5625 29.59375 
Q 53.5625 26.078125 56.59375 19.921875 
L 66.609375 0 
L 56 0 
L 46.6875 18.703125 
Q 43.0625 26.03125 39.671875 28.421875 
Q 36.28125 30.8125 30.421875 30.8125 
L 19.671875 30.8125 
L 19.671875 0 
L 9.8125 0 
L 9.8125 72.90625 
L 32.078125 72.90625 
Q 44.578125 72.90625 50.734375 67.671875 
Q 56.890625 62.453125 56.890625 51.90625 
Q 56.890625 45.015625 53.6875 40.46875 
Q 50.484375 35.9375 44.390625 34.1875 
z
M 19.671875 64.796875 
L 19.671875 38.921875 
L 32.078125 38.921875 
Q 39.203125 38.921875 42.84375 42.21875 
Q 46.484375 45.515625 46.484375 51.90625 
Q 46.484375 58.296875 42.84375 61.546875 
Q 39.203125 64.796875 32.078125 64.796875 
z
" id="DejaVuSans-82"/>
      <path d="M 34.28125 27.484375 
Q 23.390625 27.484375 19.1875 25 
Q 14.984375 22.515625 14.984375 16.5 
Q 14.984375 11.71875 18.140625 8.90625 
Q 21.296875 6.109375 26.703125 6.109375 
Q 34.1875 6.109375 38.703125 11.40625 
Q 43.21875 16.703125 43.21875 25.484375 
L 43.21875 27.484375 
z
M 52.203125 31.203125 
L 52.203125 0 
L 43.21875 0 
L 43.21875 8.296875 
Q 40.140625 3.328125 35.546875 0.953125 
Q 30.953125 -1.421875 24.3125 -1.421875 
Q 15.921875 -1.421875 10.953125 3.296875 
Q 6 8.015625 6 15.921875 
Q 6 25.140625 12.171875 29.828125 
Q 18.359375 34.515625 30.609375 34.515625 
L 43.21875 34.515625 
L 43.21875 35.40625 
Q 43.21875 41.609375 39.140625 45 
Q 35.0625 48.390625 27.6875 48.390625 
Q 23 48.390625 18.546875 47.265625 
Q 14.109375 46.140625 10.015625 43.890625 
L 10.015625 52.203125 
Q 14.9375 54.109375 19.578125 55.046875 
Q 24.21875 56 28.609375 56 
Q 40.484375 56 46.34375 49.84375 
Q 52.203125 43.703125 52.203125 31.203125 
z
" id="DejaVuSans-97"/>
      <path d="M 45.40625 46.390625 
L 45.40625 75.984375 
L 54.390625 75.984375 
L 54.390625 0 
L 45.40625 0 
L 45.40625 8.203125 
Q 42.578125 3.328125 38.25 0.953125 
Q 33.9375 -1.421875 27.875 -1.421875 
Q 17.96875 -1.421875 11.734375 6.484375 
Q 5.515625 14.40625 5.515625 27.296875 
Q 5.515625 40.1875 11.734375 48.09375 
Q 17.96875 56 27.875 56 
Q 33.9375 56 38.25 53.625 
Q 42.578125 51.265625 45.40625 46.390625 
z
M 14.796875 27.296875 
Q 14.796875 17.390625 18.875 11.75 
Q 22.953125 6.109375 30.078125 6.109375 
Q 37.203125 6.109375 41.296875 11.75 
Q 45.40625 17.390625 45.40625 27.296875 
Q 45.40625 37.203125 41.296875 42.84375 
Q 37.203125 48.484375 30.078125 48.484375 
Q 22.953125 48.484375 18.875 42.84375 
Q 14.796875 37.203125 14.796875 27.296875 
z
" id="DejaVuSans-100"/>
      <path d="M 18.109375 8.203125 
L 18.109375 -20.796875 
L 9.078125 -20.796875 
L 9.078125 54.6875 
L 18.109375 54.6875 
L 18.109375 46.390625 
Q 20.953125 51.265625 25.265625 53.625 
Q 29.59375 56 35.59375 56 
Q 45.5625 56 51.78125 48.09375 
Q 58.015625 40.1875 58.015625 27.296875 
Q 58.015625 14.40625 51.78125 6.484375 
Q 45.5625 -1.421875 35.59375 -1.421875 
Q 29.59375 -1.421875 25.265625 0.953125 
Q 20.953125 3.328125 18.109375 8.203125 
z
M 48.6875 27.296875 
Q 48.6875 37.203125 44.609375 42.84375 
Q 40.53125 48.484375 33.40625 48.484375 
Q 26.265625 48.484375 22.1875 42.84375 
Q 18.109375 37.203125 18.109375 27.296875 
Q 18.109375 17.390625 22.1875 11.75 
Q 26.265625 6.109375 33.40625 6.109375 
Q 40.53125 6.109375 44.609375 11.75 
Q 48.6875 17.390625 48.6875 27.296875 
z
" id="DejaVuSans-112"/>
      <path d="M 48.78125 52.59375 
L 48.78125 44.1875 
Q 44.96875 46.296875 41.140625 47.34375 
Q 37.3125 48.390625 33.40625 48.390625 
Q 24.65625 48.390625 19.8125 42.84375 
Q 14.984375 37.3125 14.984375 27.296875 
Q 14.984375 17.28125 19.8125 11.734375 
Q 24.65625 6.203125 33.40625 6.203125 
Q 37.3125 6.203125 41.140625 7.25 
Q 44.96875 8.296875 48.78125 10.40625 
L 48.78125 2.09375 
Q 45.015625 0.34375 40.984375 -0.53125 
Q 36.96875 -1.421875 32.421875 -1.421875 
Q 20.0625 -1.421875 12.78125 6.34375 
Q 5.515625 14.109375 5.515625 27.296875 
Q 5.515625 40.671875 12.859375 48.328125 
Q 20.21875 56 33.015625 56 
Q 37.15625 56 41.109375 55.140625 
Q 45.0625 54.296875 48.78125 52.59375 
z
" id="DejaVuSans-99"/>
     </defs>
     <g transform="translate(14.798438 186.370835)rotate(-90)scale(0.1 -0.1)">
      <use xlink:href="#DejaVuSans-82"/>
      <use x="69.419922" xlink:href="#DejaVuSans-101"/>
      <use x="130.943359" xlink:href="#DejaVuSans-97"/>
      <use x="192.222656" xlink:href="#DejaVuSans-100"/>
      <use x="255.699219" xlink:href="#DejaVuSans-32"/>
      <use x="287.486328" xlink:href="#DejaVuSans-112"/>
      <use x="350.962891" xlink:href="#DejaVuSans-101"/>
      <use x="412.486328" xlink:href="#DejaVuSans-114"/>
      <use x="453.568359" xlink:href="#DejaVuSans-99"/>
      <use x="508.548828" xlink:href="#DejaVuSans-101"/>
      <use x="570.072266" xlink:href="#DejaVuSans-110"/>
      <use x="633.451172" xlink:href="#DejaVuSans-116"/>
     </g>
    </g>
   </g>
   <g id="line2d_9">
    <path clip-path="url(#p449aa120d6)" d="M 83.897898 117.921718 
L 87.117026 273.56902 
L 90.336154 273.941478 
L 99.993538 273.973866 
L 132.184819 273.99006 
L 180.47174 273.977915 
L 183.690868 256.533077 
L 186.909996 257.541145 
L 190.129124 258.367032 
L 196.567381 259.32247 
L 199.786509 259.294131 
L 203.005637 259.609911 
L 206.224765 259.103853 
L 209.443893 259.569426 
L 212.663021 259.225307 
L 215.882149 259.184822 
L 219.101277 258.76783 
L 222.320405 258.597794 
L 225.539533 257.937895 
L 228.758661 258.512777 
L 231.97779 257.593775 
L 235.196918 257.646405 
L 241.635174 256.415672 
L 244.854302 256.079649 
L 248.07343 255.375216 
L 251.292558 255.670754 
L 254.511686 253.735588 
L 257.730814 254.435972 
L 260.949942 253.176899 
L 264.16907 253.006864 
L 267.388199 252.027135 
L 270.607327 252.160734 
L 277.045583 250.828789 
L 280.264711 249.857158 
L 283.483839 249.962418 
L 286.702967 248.909817 
L 289.922095 248.63857 
L 293.141223 248.861235 
L 296.360351 247.861264 
L 299.579479 247.124444 
L 302.798607 246.788421 
L 306.017736 245.938243 
L 309.236864 245.804644 
L 312.455992 245.250004 
L 315.67512 245.027338 
L 318.894248 243.970689 
L 322.113376 244.169064 
L 325.332504 243.28245 
L 328.551632 242.602308 
L 334.989888 241.618531 
L 338.209016 241.33109 
L 341.428144 239.995096 
L 344.647273 239.055852 
L 347.866401 238.408097 
L 351.085529 238.788653 
L 354.304657 237.197606 
L 357.523785 236.651063 
L 360.742913 236.298847 
L 363.962041 234.991193 
L 367.181169 233.549939 
L 370.400297 233.49326 
L 373.619425 232.161315 
L 376.838553 230.335457 
L 380.057681 229.90632 
L 383.27681 228.222158 
L 386.495938 227.428659 
L 389.715066 225.218197 
L 392.934194 224.829544 
L 396.153322 222.497628 
L 399.37245 221.853922 
L 402.591578 220.185955 
L 405.810706 219.105014 
L 409.029834 218.157673 
L 412.248962 215.95126 
L 415.46809 216.040326 
L 418.687218 215.230633 
L 421.906347 213.222594 
L 425.125475 213.275224 
L 428.344603 211.218604 
L 431.563731 210.48988 
L 434.782859 210.562752 
L 438.001987 209.599218 
L 441.221115 209.299631 
L 444.440243 208.842155 
L 447.659371 207.834087 
L 450.878499 206.992006 
L 454.097627 205.595285 
L 457.316755 204.441473 
L 460.535884 204.959676 
L 466.97414 203.826106 
L 470.193268 204.016384 
L 473.412396 202.409143 
L 479.850652 202.089314 
L 483.06978 203.109528 
L 486.288908 201.328203 
L 489.508036 201.081246 
L 492.727164 199.522587 
L 495.946292 201.226991 
L 499.165421 200.457783 
L 505.603677 199.955773 
L 508.822805 199.085353 
L 512.041933 200.328232 
L 515.261061 199.308019 
L 518.480189 198.745282 
L 521.699317 199.316115 
L 524.918445 198.753379 
L 531.356701 198.899124 
L 534.575829 199.295873 
L 537.794958 200.093421 
L 541.014086 199.785737 
L 544.233214 200.255359 
L 547.452342 201.020519 
L 550.67147 199.631896 
L 553.890598 200.048888 
L 557.109726 201.190555 
L 560.328854 199.587363 
L 563.547982 193.247466 
L 566.76711 163.183562 
L 569.986238 164.134951 
L 573.205366 169.944499 
L 576.424495 170.02142 
L 579.643623 171.422189 
L 582.862751 172.292609 
L 586.081879 172.770328 
L 589.301007 172.798667 
L 592.520135 171.62866 
L 595.739263 171.754163 
L 598.958391 172.798667 
L 602.177519 173.685281 
L 605.396647 174.71764 
L 608.615775 173.984867 
L 611.834903 172.693407 
L 615.054032 173.349258 
L 618.27316 174.179194 
L 621.492288 173.920092 
L 624.711416 174.446392 
L 627.930544 175.818822 
L 631.149672 177.948315 
L 634.3688 177.604195 
L 637.587928 179.600089 
L 640.807056 179.126418 
L 644.026184 180.187116 
L 647.245312 179.806561 
L 650.46444 178.867317 
L 653.683569 179.01711 
L 656.902697 178.851123 
L 660.121825 181.555498 
L 663.340953 181.976538 
L 666.560081 182.527129 
L 669.779209 184.101982 
L 672.998337 183.810493 
L 676.217465 182.644535 
L 682.655721 183.834784 
L 685.874849 185.029081 
L 689.093977 184.879288 
L 692.313106 186.231475 
L 695.532234 187.441966 
L 698.751362 186.332687 
L 701.97049 186.810406 
L 705.189618 187.502693 
L 708.408746 187.271931 
L 711.627874 189.231388 
L 714.847002 189.109934 
L 718.06613 187.466257 
L 721.285258 189.089692 
L 724.504386 190.320425 
L 727.723514 189.8589 
L 734.161771 189.814367 
L 737.380899 190.320425 
L 740.600027 189.838658 
L 743.819155 189.709107 
L 747.038283 190.320425 
L 756.695667 191.769776 
L 759.914795 192.012684 
L 763.133923 192.121992 
L 766.353051 191.57545 
L 769.57218 193.126012 
L 772.791308 192.664487 
L 776.010436 193.559198 
L 779.229564 193.887123 
L 782.448692 193.636118 
L 785.66782 193.729233 
L 792.106076 195.008548 
L 795.325204 194.648235 
L 798.544332 194.547023 
L 801.76346 195.344571 
L 804.982589 195.231214 
L 808.201717 194.842561 
L 811.420845 195.498413 
L 814.639973 195.275747 
L 817.859101 196.551014 
L 821.078229 196.150215 
L 824.297357 197.66839 
L 827.516485 196.134022 
L 830.735613 196.733195 
L 833.954741 197.708875 
L 837.173869 196.510529 
L 840.392997 197.150186 
L 843.612126 196.385026 
L 846.831254 195.793951 
L 850.050382 196.789873 
L 853.26951 196.522674 
L 856.488638 198.457841 
L 859.707766 195.959938 
L 862.926894 195.449831 
L 866.146022 196.247379 
L 869.36515 195.364813 
L 872.584278 195.239311 
L 875.803406 195.263602 
L 879.022534 196.352639 
L 882.241663 194.514635 
L 885.460791 194.676574 
L 888.679919 195.259553 
L 891.899047 193.591585 
L 895.118175 191.381123 
L 898.337303 189.91153 
L 901.556431 188.964189 
L 904.775559 188.348823 
L 907.994687 185.806386 
L 911.213815 183.826687 
L 914.432943 182.401627 
L 917.652071 181.203281 
L 920.8712 179.154758 
L 924.090328 176.713533 
L 927.309456 175.474703 
L 930.528584 173.571924 
L 933.747712 170.956615 
L 936.96684 168.600408 
L 940.185968 166.539739 
L 943.405096 164.993226 
L 946.624224 164.337374 
L 949.843352 173.179223 
L 949.843352 173.179223 
" style="fill:none;stroke:#7cb5ec;stroke-linecap:square;"/>
   </g>
   <g id="line2d_10">
    <path clip-path="url(#p449aa120d6)" d="M 83.897898 157.963477 
L 87.117026 273.744321 
L 90.336154 273.959343 
L 109.650922 273.986647 
L 180.47174 273.972995 
L 183.690868 257.266122 
L 186.909996 258.658646 
L 190.129124 259.16719 
L 193.348253 259.802017 
L 196.567381 259.802017 
L 199.786509 260.163801 
L 203.005637 260.088714 
L 206.224765 259.348082 
L 209.443893 259.764474 
L 215.882149 259.235451 
L 222.320405 258.088667 
L 225.539533 257.600601 
L 228.758661 257.228579 
L 231.97779 256.385556 
L 235.196918 256.41286 
L 238.416046 255.702946 
L 241.635174 254.764358 
L 244.854302 254.825793 
L 248.07343 253.863313 
L 251.292558 252.463963 
L 254.511686 251.498071 
L 257.730814 251.549266 
L 264.16907 250.149916 
L 270.607327 248.450218 
L 273.826455 247.358043 
L 277.045583 246.132758 
L 280.264711 245.794867 
L 283.483839 245.730019 
L 286.702967 245.375062 
L 289.922095 243.907451 
L 296.360351 242.941558 
L 299.579479 242.033687 
L 302.798607 241.245273 
L 306.017736 241.060968 
L 309.236864 240.163337 
L 312.455992 240.303272 
L 315.67512 239.702575 
L 318.894248 238.361247 
L 325.332504 237.306615 
L 328.551632 237.426072 
L 331.77076 236.187135 
L 334.989888 235.391895 
L 338.209016 235.071068 
L 341.428144 234.282654 
L 344.647273 233.094913 
L 347.866401 232.463499 
L 351.085529 232.473738 
L 354.304657 230.961758 
L 357.523785 229.944669 
L 360.742913 230.289387 
L 363.962041 229.268886 
L 367.181169 227.702297 
L 376.838553 224.432596 
L 380.057681 224.729531 
L 383.27681 222.620267 
L 386.495938 221.924005 
L 389.715066 220.736265 
L 392.934194 218.937588 
L 396.153322 218.261804 
L 399.37245 217.046759 
L 402.591578 215.145691 
L 405.810706 214.544995 
L 409.029834 213.015949 
L 412.248962 212.609796 
L 415.46809 210.947642 
L 418.687218 209.875944 
L 421.906347 209.821336 
L 425.125475 208.480008 
L 428.344603 208.241094 
L 431.563731 206.944136 
L 434.782859 206.223982 
L 441.221115 205.302459 
L 447.659371 204.957742 
L 450.878499 204.01574 
L 454.097627 202.633456 
L 460.535884 201.961085 
L 463.755012 200.510539 
L 466.97414 201.425236 
L 470.193268 201.343323 
L 473.412396 201.653911 
L 476.631524 199.995169 
L 479.850652 199.571951 
L 483.06978 198.817667 
L 486.288908 198.735754 
L 489.508036 198.234036 
L 492.727164 197.452448 
L 495.946292 198.001949 
L 499.165421 197.090665 
L 502.384549 197.82447 
L 505.603677 198.111166 
L 508.822805 196.141837 
L 512.041933 197.083839 
L 515.261061 196.616251 
L 518.480189 196.971208 
L 521.699317 196.790317 
L 524.918445 197.145274 
L 528.137573 196.394403 
L 531.356701 196.646968 
L 534.575829 197.715253 
L 537.794958 196.135011 
L 541.014086 196.46949 
L 547.452342 196.530925 
L 550.67147 196.995099 
L 553.890598 197.274969 
L 557.109726 196.606012 
L 560.328854 195.728858 
L 563.547982 190.261155 
L 566.76711 163.185441 
L 569.986238 162.414092 
L 573.205366 165.963663 
L 576.424495 165.833967 
L 579.643623 166.984164 
L 582.862751 167.578035 
L 586.081879 167.120686 
L 589.301007 167.612165 
L 592.520135 168.919363 
L 595.739263 168.834036 
L 598.958391 169.956929 
L 602.177519 169.659994 
L 605.396647 170.837496 
L 608.615775 171.253888 
L 611.834903 169.110493 
L 615.054032 170.697561 
L 618.27316 171.052518 
L 621.492288 170.489365 
L 627.930544 173.045738 
L 631.149672 174.724958 
L 634.3688 175.707916 
L 637.587928 175.759112 
L 640.807056 176.052634 
L 644.026184 176.107243 
L 647.245312 176.568004 
L 650.46444 176.325678 
L 653.683569 177.916158 
L 656.902697 176.970744 
L 660.121825 180.254097 
L 663.340953 181.353098 
L 666.560081 180.250684 
L 669.779209 181.602251 
L 672.998337 181.301903 
L 679.436593 183.380449 
L 682.655721 183.332666 
L 685.874849 184.295146 
L 689.093977 185.390735 
L 692.313106 185.848083 
L 695.532234 187.015346 
L 698.751362 186.537519 
L 701.97049 186.858345 
L 705.189618 188.141652 
L 711.627874 187.554607 
L 714.847002 189.424958 
L 718.06613 189.541002 
L 721.285258 190.329416 
L 724.504386 190.189481 
L 727.723514 191.455722 
L 730.942643 191.111004 
L 734.161771 192.022288 
L 737.380899 191.841396 
L 740.600027 191.175852 
L 743.819155 192.684419 
L 747.038283 192.448919 
L 750.257411 193.070094 
L 753.476539 194.418248 
L 756.695667 193.285116 
L 759.914795 195.793706 
L 763.133923 193.91653 
L 766.353051 196.056511 
L 769.57218 196.025794 
L 779.229564 198.285232 
L 782.448692 198.367145 
L 785.66782 198.561689 
L 788.886948 198.319362 
L 792.106076 199.169211 
L 795.325204 199.599255 
L 798.544332 200.275039 
L 801.76346 199.565125 
L 804.982589 199.930321 
L 808.201717 200.831366 
L 811.420845 200.445691 
L 814.639973 201.612954 
L 817.859101 201.046388 
L 821.078229 201.083931 
L 824.297357 201.285301 
L 827.516485 202.592499 
L 833.954741 203.404804 
L 837.173869 202.923565 
L 840.392997 203.350196 
L 843.612126 202.780217 
L 846.831254 203.128348 
L 850.050382 204.036218 
L 853.26951 203.899696 
L 856.488638 201.97815 
L 859.707766 204.61985 
L 862.926894 204.626676 
L 866.146022 203.722218 
L 869.36515 204.45261 
L 872.584278 204.258067 
L 875.803406 204.275132 
L 879.022534 203.172717 
L 882.241663 203.179543 
L 885.460791 203.025956 
L 888.679919 202.254607 
L 891.899047 201.148779 
L 895.118175 200.527605 
L 898.337303 199.513929 
L 901.556431 198.626537 
L 904.775559 197.435383 
L 907.994687 195.377314 
L 911.213815 195.175945 
L 914.432943 192.971115 
L 917.652071 192.578615 
L 920.8712 190.424981 
L 924.090328 188.575109 
L 927.309456 187.00852 
L 930.528584 184.380472 
L 933.747712 182.991362 
L 936.96684 181.950382 
L 940.185968 178.561225 
L 943.405096 178.032202 
L 946.624224 176.557765 
L 949.843352 183.554515 
L 949.843352 183.554515 
" style="fill:none;stroke:#434348;stroke-linecap:square;"/>
   </g>
   <g id="line2d_11">
    <path clip-path="url(#p449aa120d6)" d="M 83.897898 43.030822 
L 87.117026 273.480547 
L 90.336154 273.910136 
L 96.77441 273.99006 
L 112.87005 273.99006 
L 180.47174 273.99006 
L 183.690868 247.585299 
L 186.909996 248.434487 
L 190.129124 249.803179 
L 193.348253 251.002033 
L 196.567381 251.391661 
L 199.786509 250.697324 
L 203.005637 251.491565 
L 206.224765 252.001078 
L 209.443893 251.626436 
L 212.663021 250.677343 
L 215.882149 250.847181 
L 219.101277 250.60741 
L 222.320405 249.598375 
L 225.539533 251.106933 
L 231.97779 249.418547 
L 235.196918 249.1538 
L 238.416046 248.634296 
L 241.635174 248.374545 
L 244.854302 248.394525 
L 248.07343 247.2706 
L 254.511686 245.727075 
L 257.730814 245.007763 
L 260.949942 243.6091 
L 264.16907 243.309386 
L 267.388199 242.340312 
L 270.607327 240.721859 
L 273.826455 240.412155 
L 280.264711 239.328191 
L 283.483839 237.684762 
L 289.922095 236.970445 
L 293.141223 237.19523 
L 296.360351 236.435956 
L 299.579479 234.442861 
L 302.798607 234.857465 
L 312.455992 233.898382 
L 315.67512 233.873405 
L 318.894248 231.670511 
L 322.113376 231.645535 
L 325.332504 231.735449 
L 328.551632 231.500673 
L 331.77076 229.762335 
L 334.989888 230.381743 
L 341.428144 229.31776 
L 344.647273 227.869145 
L 347.866401 229.337741 
L 351.085529 227.734273 
L 354.304657 228.068954 
L 357.523785 227.484512 
L 360.742913 226.030902 
L 363.962041 227.234751 
L 367.181169 226.135801 
L 370.400297 226.860109 
L 373.619425 225.960969 
L 376.838553 225.871054 
L 380.057681 226.195744 
L 389.715066 225.701217 
L 392.934194 225.311589 
L 396.153322 224.717157 
L 399.37245 224.302554 
L 405.810706 224.242611 
L 409.029834 224.822057 
L 412.248962 223.433384 
L 418.687218 223.253556 
L 421.906347 223.483337 
L 425.125475 223.078723 
L 428.344603 223.463356 
L 431.563731 223.653174 
L 434.782859 223.957883 
L 438.001987 223.847988 
L 441.221115 223.568256 
L 444.440243 223.593232 
L 447.659371 223.153652 
L 450.878499 222.404368 
L 454.097627 223.348466 
L 457.316755 223.77306 
L 460.535884 222.044712 
L 463.755012 223.368447 
L 466.97414 221.740003 
L 470.193268 222.978819 
L 473.412396 222.923872 
L 476.631524 223.203604 
L 479.850652 221.620118 
L 483.06978 221.794951 
L 486.288908 221.650089 
L 489.508036 222.399373 
L 492.727164 220.725972 
L 495.946292 221.515218 
L 499.165421 223.1037 
L 502.384549 223.158647 
L 505.603677 222.244521 
L 508.822805 222.579201 
L 512.041933 222.414359 
L 515.261061 222.589191 
L 518.480189 223.768065 
L 521.699317 221.809936 
L 524.918445 223.912926 
L 528.137573 221.675065 
L 531.356701 223.258552 
L 534.575829 223.548275 
L 537.794958 224.427434 
L 541.014086 223.99285 
L 544.233214 225.091799 
L 547.452342 223.533289 
L 550.67147 223.87796 
L 553.890598 224.497367 
L 557.109726 224.931952 
L 560.328854 223.203604 
L 563.547982 214.921521 
L 566.76711 178.601237 
L 569.986238 179.390483 
L 573.205366 180.644284 
L 576.424495 181.088859 
L 579.643623 181.178773 
L 582.862751 180.724208 
L 586.081879 181.483482 
L 589.301007 181.948038 
L 592.520135 181.648325 
L 595.739263 180.77416 
L 598.958391 181.518449 
L 602.177519 182.757265 
L 605.396647 183.246797 
L 608.615775 181.458506 
L 611.834903 182.777246 
L 618.27316 181.303654 
L 621.492288 181.043902 
L 624.711416 182.997035 
L 627.930544 182.562451 
L 631.149672 186.488698 
L 637.587928 186.943263 
L 640.807056 186.963244 
L 644.026184 187.507724 
L 647.245312 187.832414 
L 650.46444 187.053158 
L 653.683569 186.683512 
L 656.902697 187.537695 
L 660.121825 190.494869 
L 663.340953 190.364993 
L 666.560081 191.379024 
L 669.779209 190.694678 
L 672.998337 192.592863 
L 676.217465 191.28911 
L 679.436593 191.364038 
L 682.655721 193.202281 
L 685.874849 193.352138 
L 689.093977 192.438011 
L 692.313106 194.051469 
L 695.532234 193.531966 
L 698.751362 194.930629 
L 701.97049 193.207276 
L 711.627874 194.930629 
L 714.847002 194.675872 
L 718.06613 193.85166 
L 721.285258 193.941574 
L 724.504386 194.426111 
L 727.723514 193.676827 
L 730.942643 193.62188 
L 734.161771 192.617839 
L 740.600027 191.264133 
L 743.819155 192.697763 
L 747.038283 190.245107 
L 750.257411 192.682777 
L 753.476539 192.063369 
L 756.695667 194.381154 
L 759.914795 194.695853 
L 763.133923 193.856655 
L 766.353051 192.687773 
L 769.57218 193.641861 
L 772.791308 192.982491 
L 776.010436 193.457037 
L 779.229564 192.238202 
L 782.448692 192.85761 
L 785.66782 190.434926 
L 788.886948 192.193245 
L 795.325204 192.253188 
L 798.544332 192.622835 
L 801.76346 190.994391 
L 804.982589 190.195155 
L 808.201717 190.969415 
L 811.420845 191.369033 
L 814.639973 192.17826 
L 817.859101 189.760571 
L 824.297357 190.509854 
L 833.954741 189.880456 
L 837.173869 189.680647 
L 840.392997 188.511764 
L 843.612126 188.941354 
L 846.831254 187.068144 
L 850.050382 188.586693 
L 853.26951 187.008201 
L 866.146022 185.274858 
L 869.36515 185.784371 
L 872.584278 184.600503 
L 875.803406 184.830283 
L 879.022534 183.876195 
L 882.241663 183.286759 
L 885.460791 183.321725 
L 888.679919 179.964934 
L 891.899047 178.920932 
L 895.118175 176.433309 
L 898.337303 174.305343 
L 901.556431 171.178332 
L 904.775559 171.33818 
L 907.994687 167.197138 
L 911.213815 164.060136 
L 914.432943 160.763288 
L 917.652071 158.680279 
L 924.090328 150.018558 
L 927.309456 147.196256 
L 930.528584 144.983371 
L 933.747712 140.807362 
L 936.96684 137.450571 
L 940.185968 132.030752 
L 943.405096 129.598077 
L 946.624224 130.497217 
L 949.843352 138.714363 
L 949.843352 138.714363 
" style="fill:none;stroke:#90ed7d;stroke-linecap:square;"/>
   </g>
   <g id="line2d_12">
    <path clip-path="url(#p449aa120d6)" d="M 40.600625 273.99006 
L 993.140625 273.99006 
" style="fill:none;stroke:#dedede;stroke-linecap:square;stroke-width:2;"/>
   </g>
   <g id="text_17">
    <!-- Fastp: Insert Size Distribution -->
    <defs>
     <path d="M 9.8125 72.90625 
L 51.703125 72.90625 
L 51.703125 64.59375 
L 19.671875 64.59375 
L 19.671875 43.109375 
L 48.578125 43.109375 
L 48.578125 34.8125 
L 19.671875 34.8125 
L 19.671875 0 
L 9.8125 0 
z
" id="DejaVuSans-70"/>
     <path d="M 11.71875 12.40625 
L 22.015625 12.40625 
L 22.015625 0 
L 11.71875 0 
z
M 11.71875 51.703125 
L 22.015625 51.703125 
L 22.015625 39.3125 
L 11.71875 39.3125 
z
" id="DejaVuSans-58"/>
     <path d="M 53.515625 70.515625 
L 53.515625 60.890625 
Q 47.90625 63.578125 42.921875 64.890625 
Q 37.9375 66.21875 33.296875 66.21875 
Q 25.25 66.21875 20.875 63.09375 
Q 16.5 59.96875 16.5 54.203125 
Q 16.5 49.359375 19.40625 46.890625 
Q 22.3125 44.4375 30.421875 42.921875 
L 36.375 41.703125 
Q 47.40625 39.59375 52.65625 34.296875 
Q 57.90625 29 57.90625 20.125 
Q 57.90625 9.515625 50.796875 4.046875 
Q 43.703125 -1.421875 29.984375 -1.421875 
Q 24.8125 -1.421875 18.96875 -0.25 
Q 13.140625 0.921875 6.890625 3.21875 
L 6.890625 13.375 
Q 12.890625 10.015625 18.65625 8.296875 
Q 24.421875 6.59375 29.984375 6.59375 
Q 38.421875 6.59375 43.015625 9.90625 
Q 47.609375 13.234375 47.609375 19.390625 
Q 47.609375 24.75 44.3125 27.78125 
Q 41.015625 30.8125 33.5 32.328125 
L 27.484375 33.5 
Q 16.453125 35.6875 11.515625 40.375 
Q 6.59375 45.0625 6.59375 53.421875 
Q 6.59375 63.09375 13.40625 68.65625 
Q 20.21875 74.21875 32.171875 74.21875 
Q 37.3125 74.21875 42.625 73.28125 
Q 47.953125 72.359375 53.515625 70.515625 
z
" id="DejaVuSans-83"/>
     <path d="M 19.671875 64.796875 
L 19.671875 8.109375 
L 31.59375 8.109375 
Q 46.6875 8.109375 53.6875 14.9375 
Q 60.6875 21.78125 60.6875 36.53125 
Q 60.6875 51.171875 53.6875 57.984375 
Q 46.6875 64.796875 31.59375 64.796875 
z
M 9.8125 72.90625 
L 30.078125 72.90625 
Q 51.265625 72.90625 61.171875 64.09375 
Q 71.09375 55.28125 71.09375 36.53125 
Q 71.09375 17.671875 61.125 8.828125 
Q 51.171875 0 30.078125 0 
L 9.8125 0 
z
" id="DejaVuSans-68"/>
     <path d="M 48.6875 27.296875 
Q 48.6875 37.203125 44.609375 42.84375 
Q 40.53125 48.484375 33.40625 48.484375 
Q 26.265625 48.484375 22.1875 42.84375 
Q 18.109375 37.203125 18.109375 27.296875 
Q 18.109375 17.390625 22.1875 11.75 
Q 26.265625 6.109375 33.40625 6.109375 
Q 40.53125 6.109375 44.609375 11.75 
Q 48.6875 17.390625 48.6875 27.296875 
z
M 18.109375 46.390625 
Q 20.953125 51.265625 25.265625 53.625 
Q 29.59375 56 35.59375 56 
Q 45.5625 56 51.78125 48.09375 
Q 58.015625 40.1875 58.015625 27.296875 
Q 58.015625 14.40625 51.78125 6.484375 
Q 45.5625 -1.421875 35.59375 -1.421875 
Q 29.59375 -1.421875 25.265625 0.953125 
Q 20.953125 3.328125 18.109375 8.203125 
L 18.109375 0 
L 9.078125 0 
L 9.078125 75.984375 
L 18.109375 75.984375 
z
" id="DejaVuSans-98"/>
     <path d="M 8.5 21.578125 
L 8.5 54.6875 
L 17.484375 54.6875 
L 17.484375 21.921875 
Q 17.484375 14.15625 20.5 10.265625 
Q 23.53125 6.390625 29.59375 6.390625 
Q 36.859375 6.390625 41.078125 11.03125 
Q 45.3125 15.671875 45.3125 23.6875 
L 45.3125 54.6875 
L 54.296875 54.6875 
L 54.296875 0 
L 45.3125 0 
L 45.3125 8.40625 
Q 42.046875 3.421875 37.71875 1 
Q 33.40625 -1.421875 27.6875 -1.421875 
Q 18.265625 -1.421875 13.375 4.4375 
Q 8.5 10.296875 8.5 21.578125 
z
M 31.109375 56 
z
" id="DejaVuSans-117"/>
     <path d="M 30.609375 48.390625 
Q 23.390625 48.390625 19.1875 42.75 
Q 14.984375 37.109375 14.984375 27.296875 
Q 14.984375 17.484375 19.15625 11.84375 
Q 23.34375 6.203125 30.609375 6.203125 
Q 37.796875 6.203125 41.984375 11.859375 
Q 46.1875 17.53125 46.1875 27.296875 
Q 46.1875 37.015625 41.984375 42.703125 
Q 37.796875 48.390625 30.609375 48.390625 
z
M 30.609375 56 
Q 42.328125 56 49.015625 48.375 
Q 55.71875 40.765625 55.71875 27.296875 
Q 55.71875 13.875 49.015625 6.21875 
Q 42.328125 -1.421875 30.609375 -1.421875 
Q 18.84375 -1.421875 12.171875 6.21875 
Q 5.515625 13.875 5.515625 27.296875 
Q 5.515625 40.765625 12.171875 48.375 
Q 18.84375 56 30.609375 56 
z
" id="DejaVuSans-111"/>
    </defs>
    <g transform="translate(398.635625 19.3575)scale(0.16 -0.16)">
     <use xlink:href="#DejaVuSans-70"/>
     <use x="57.378906" xlink:href="#DejaVuSans-97"/>
     <use x="118.658203" xlink:href="#DejaVuSans-115"/>
     <use x="170.757812" xlink:href="#DejaVuSans-116"/>
     <use x="209.966797" xlink:href="#DejaVuSans-112"/>
     <use x="273.443359" xlink:href="#DejaVuSans-58"/>
     <use x="307.134766" xlink:href="#DejaVuSans-32"/>
     <use x="338.921875" xlink:href="#DejaVuSans-73"/>
     <use x="368.414062" xlink:href="#DejaVuSans-110"/>
     <use x="431.792969" xlink:href="#DejaVuSans-115"/>
     <use x="483.892578" xlink:href="#DejaVuSans-101"/>
     <use x="545.416016" xlink:href="#DejaVuSans-114"/>
     <use x="586.529297" xlink:href="#DejaVuSans-116"/>
     <use x="625.738281" xlink:href="#DejaVuSans-32"/>
     <use x="657.525391" xlink:href="#DejaVuSans-83"/>
     <use x="721.001953" xlink:href="#DejaVuSans-105"/>
     <use x="748.785156" xlink:href="#DejaVuSans-122"/>
     <use x="801.275391" xlink:href="#DejaVuSans-101"/>
     <use x="862.798828" xlink:href="#DejaVuSans-32"/>
     <use x="894.585938" xlink:href="#DejaVuSans-68"/>
     <use x="971.587891" xlink:href="#DejaVuSans-105"/>
     <use x="999.371094" xlink:href="#DejaVuSans-115"/>
     <use x="1051.470703" xlink:href="#DejaVuSans-116"/>
     <use x="1090.679688" xlink:href="#DejaVuSans-114"/>
     <use x="1131.792969" xlink:href="#DejaVuSans-105"/>
     <use x="1159.576172" xlink:href="#DejaVuSans-98"/>
     <use x="1223.052734" xlink:href="#DejaVuSans-117"/>
     <use x="1286.431641" xlink:href="#DejaVuSans-116"/>
     <use x="1325.640625" xlink:href="#DejaVuSans-105"/>
     <use x="1353.423828" xlink:href="#DejaVuSans-111"/>
     <use x="1414.605469" xlink:href="#DejaVuSans-110"/>
    </g>
   </g>
   <g id="legend_1">
    <g id="line2d_13">
     <path d="M 47.800625 315.455394 
L 63.800625 315.455394 
" style="fill:none;stroke:#7cb5ec;stroke-linecap:square;"/>
    </g>
    <g id="line2d_14"/>
    <g id="text_18">
     <!-- Dar-CJol_003-Ex1-7A-ssl-1-1 -->
     <defs>
      <path d="M 4.890625 31.390625 
L 31.203125 31.390625 
L 31.203125 23.390625 
L 4.890625 23.390625 
z
" id="DejaVuSans-45"/>
      <path d="M 64.40625 67.28125 
L 64.40625 56.890625 
Q 59.421875 61.53125 53.78125 63.8125 
Q 48.140625 66.109375 41.796875 66.109375 
Q 29.296875 66.109375 22.65625 58.46875 
Q 16.015625 50.828125 16.015625 36.375 
Q 16.015625 21.96875 22.65625 14.328125 
Q 29.296875 6.6875 41.796875 6.6875 
Q 48.140625 6.6875 53.78125 8.984375 
Q 59.421875 11.28125 64.40625 15.921875 
L 64.40625 5.609375 
Q 59.234375 2.09375 53.4375 0.328125 
Q 47.65625 -1.421875 41.21875 -1.421875 
Q 24.65625 -1.421875 15.125 8.703125 
Q 5.609375 18.84375 5.609375 36.375 
Q 5.609375 53.953125 15.125 64.078125 
Q 24.65625 74.21875 41.21875 74.21875 
Q 47.75 74.21875 53.53125 72.484375 
Q 59.328125 70.75 64.40625 67.28125 
z
" id="DejaVuSans-67"/>
      <path d="M 9.8125 72.90625 
L 19.671875 72.90625 
L 19.671875 5.078125 
Q 19.671875 -8.109375 14.671875 -14.0625 
Q 9.671875 -20.015625 -1.421875 -20.015625 
L -5.171875 -20.015625 
L -5.171875 -11.71875 
L -2.09375 -11.71875 
Q 4.4375 -11.71875 7.125 -8.046875 
Q 9.8125 -4.390625 9.8125 5.078125 
z
" id="DejaVuSans-74"/>
      <path d="M 9.421875 75.984375 
L 18.40625 75.984375 
L 18.40625 0 
L 9.421875 0 
z
" id="DejaVuSans-108"/>
      <path d="M 50.984375 -16.609375 
L 50.984375 -23.578125 
L -0.984375 -23.578125 
L -0.984375 -16.609375 
z
" id="DejaVuSans-95"/>
      <path d="M 40.578125 39.3125 
Q 47.65625 37.796875 51.625 33 
Q 55.609375 28.21875 55.609375 21.1875 
Q 55.609375 10.40625 48.1875 4.484375 
Q 40.765625 -1.421875 27.09375 -1.421875 
Q 22.515625 -1.421875 17.65625 -0.515625 
Q 12.796875 0.390625 7.625 2.203125 
L 7.625 11.71875 
Q 11.71875 9.328125 16.59375 8.109375 
Q 21.484375 6.890625 26.8125 6.890625 
Q 36.078125 6.890625 40.9375 10.546875 
Q 45.796875 14.203125 45.796875 21.1875 
Q 45.796875 27.640625 41.28125 31.265625 
Q 36.765625 34.90625 28.71875 34.90625 
L 20.21875 34.90625 
L 20.21875 43.015625 
L 29.109375 43.015625 
Q 36.375 43.015625 40.234375 45.921875 
Q 44.09375 48.828125 44.09375 54.296875 
Q 44.09375 59.90625 40.109375 62.90625 
Q 36.140625 65.921875 28.71875 65.921875 
Q 24.65625 65.921875 20.015625 65.03125 
Q 15.375 64.15625 9.8125 62.3125 
L 9.8125 71.09375 
Q 15.4375 72.65625 20.34375 73.4375 
Q 25.25 74.21875 29.59375 74.21875 
Q 40.828125 74.21875 47.359375 69.109375 
Q 53.90625 64.015625 53.90625 55.328125 
Q 53.90625 49.265625 50.4375 45.09375 
Q 46.96875 40.921875 40.578125 39.3125 
z
" id="DejaVuSans-51"/>
      <path d="M 9.8125 72.90625 
L 55.90625 72.90625 
L 55.90625 64.59375 
L 19.671875 64.59375 
L 19.671875 43.015625 
L 54.390625 43.015625 
L 54.390625 34.71875 
L 19.671875 34.71875 
L 19.671875 8.296875 
L 56.78125 8.296875 
L 56.78125 0 
L 9.8125 0 
z
" id="DejaVuSans-69"/>
      <path d="M 54.890625 54.6875 
L 35.109375 28.078125 
L 55.90625 0 
L 45.3125 0 
L 29.390625 21.484375 
L 13.484375 0 
L 2.875 0 
L 24.125 28.609375 
L 4.6875 54.6875 
L 15.28125 54.6875 
L 29.78125 35.203125 
L 44.28125 54.6875 
z
" id="DejaVuSans-120"/>
      <path d="M 8.203125 72.90625 
L 55.078125 72.90625 
L 55.078125 68.703125 
L 28.609375 0 
L 18.3125 0 
L 43.21875 64.59375 
L 8.203125 64.59375 
z
" id="DejaVuSans-55"/>
      <path d="M 34.1875 63.1875 
L 20.796875 26.90625 
L 47.609375 26.90625 
z
M 28.609375 72.90625 
L 39.796875 72.90625 
L 67.578125 0 
L 57.328125 0 
L 50.6875 18.703125 
L 17.828125 18.703125 
L 11.1875 0 
L 0.78125 0 
z
" id="DejaVuSans-65"/>
     </defs>
     <g transform="translate(70.200625 318.255394)scale(0.08 -0.08)">
      <use xlink:href="#DejaVuSans-68"/>
      <use x="77.001953" xlink:href="#DejaVuSans-97"/>
      <use x="138.28125" xlink:href="#DejaVuSans-114"/>
      <use x="179.300781" xlink:href="#DejaVuSans-45"/>
      <use x="215.384766" xlink:href="#DejaVuSans-67"/>
      <use x="285.208984" xlink:href="#DejaVuSans-74"/>
      <use x="314.701172" xlink:href="#DejaVuSans-111"/>
      <use x="375.882812" xlink:href="#DejaVuSans-108"/>
      <use x="403.666016" xlink:href="#DejaVuSans-95"/>
      <use x="453.666016" xlink:href="#DejaVuSans-48"/>
      <use x="517.289062" xlink:href="#DejaVuSans-48"/>
      <use x="580.912109" xlink:href="#DejaVuSans-51"/>
      <use x="644.535156" xlink:href="#DejaVuSans-45"/>
      <use x="680.619141" xlink:href="#DejaVuSans-69"/>
      <use x="743.802734" xlink:href="#DejaVuSans-120"/>
      <use x="802.982422" xlink:href="#DejaVuSans-49"/>
      <use x="866.605469" xlink:href="#DejaVuSans-45"/>
      <use x="902.689453" xlink:href="#DejaVuSans-55"/>
      <use x="966.3125" xlink:href="#DejaVuSans-65"/>
      <use x="1034.689453" xlink:href="#DejaVuSans-45"/>
      <use x="1070.773438" xlink:href="#DejaVuSans-115"/>
      <use x="1122.873047" xlink:href="#DejaVuSans-115"/>
      <use x="1174.972656" xlink:href="#DejaVuSans-108"/>
      <use x="1202.755859" xlink:href="#DejaVuSans-45"/>
      <use x="1238.839844" xlink:href="#DejaVuSans-49"/>
      <use x="1302.462891" xlink:href="#DejaVuSans-45"/>
      <use x="1338.546875" xlink:href="#DejaVuSans-49"/>
     </g>
    </g>
    <g id="line2d_15">
     <path d="M 449.584375 315.455394 
L 465.584375 315.455394 
" style="fill:none;stroke:#434348;stroke-linecap:square;"/>
    </g>
    <g id="line2d_16"/>
    <g id="text_19">
     <!-- Dar-CJol_003-Ex1-8A-ssl-1-1 -->
     <g transform="translate(471.984375 318.255394)scale(0.08 -0.08)">
      <use xlink:href="#DejaVuSans-68"/>
      <use x="77.001953" xlink:href="#DejaVuSans-97"/>
      <use x="138.28125" xlink:href="#DejaVuSans-114"/>
      <use x="179.300781" xlink:href="#DejaVuSans-45"/>
      <use x="215.384766" xlink:href="#DejaVuSans-67"/>
      <use x="285.208984" xlink:href="#DejaVuSans-74"/>
      <use x="314.701172" xlink:href="#DejaVuSans-111"/>
      <use x="375.882812" xlink:href="#DejaVuSans-108"/>
      <use x="403.666016" xlink:href="#DejaVuSans-95"/>
      <use x="453.666016" xlink:href="#DejaVuSans-48"/>
      <use x="517.289062" xlink:href="#DejaVuSans-48"/>
      <use x="580.912109" xlink:href="#DejaVuSans-51"/>
      <use x="644.535156" xlink:href="#DejaVuSans-45"/>
      <use x="680.619141" xlink:href="#DejaVuSans-69"/>
      <use x="743.802734" xlink:href="#DejaVuSans-120"/>
      <use x="802.982422" xlink:href="#DejaVuSans-49"/>
      <use x="866.605469" xlink:href="#DejaVuSans-45"/>
      <use x="902.689453" xlink:href="#DejaVuSans-56"/>
      <use x="966.3125" xlink:href="#DejaVuSans-65"/>
      <use x="1034.689453" xlink:href="#DejaVuSans-45"/>
      <use x="1070.773438" xlink:href="#DejaVuSans-115"/>
      <use x="1122.873047" xlink:href="#DejaVuSans-115"/>
      <use x="1174.972656" xlink:href="#DejaVuSans-108"/>
      <use x="1202.755859" xlink:href="#DejaVuSans-45"/>
      <use x="1238.839844" xlink:href="#DejaVuSans-49"/>
      <use x="1302.462891" xlink:href="#DejaVuSans-45"/>
      <use x="1338.546875" xlink:href="#DejaVuSans-49"/>
     </g>
    </g>
    <g id="line2d_17">
     <path d="M 851.368125 315.455394 
L 867.368125 315.455394 
" style="fill:none;stroke:#90ed7d;stroke-linecap:square;"/>
    </g>
    <g id="line2d_18"/>
    <g id="text_20">
     <!-- Dar-CJol_003-Ex1-9A-ssl-1-1 -->
     <defs>
      <path d="M 10.984375 1.515625 
L 10.984375 10.5 
Q 14.703125 8.734375 18.5 7.8125 
Q 22.3125 6.890625 25.984375 6.890625 
Q 35.75 6.890625 40.890625 13.453125 
Q 46.046875 20.015625 46.78125 33.40625 
Q 43.953125 29.203125 39.59375 26.953125 
Q 35.25 24.703125 29.984375 24.703125 
Q 19.046875 24.703125 12.671875 31.3125 
Q 6.296875 37.9375 6.296875 49.421875 
Q 6.296875 60.640625 12.9375 67.421875 
Q 19.578125 74.21875 30.609375 74.21875 
Q 43.265625 74.21875 49.921875 64.515625 
Q 56.59375 54.828125 56.59375 36.375 
Q 56.59375 19.140625 48.40625 8.859375 
Q 40.234375 -1.421875 26.421875 -1.421875 
Q 22.703125 -1.421875 18.890625 -0.6875 
Q 15.09375 0.046875 10.984375 1.515625 
z
M 30.609375 32.421875 
Q 37.25 32.421875 41.125 36.953125 
Q 45.015625 41.5 45.015625 49.421875 
Q 45.015625 57.28125 41.125 61.84375 
Q 37.25 66.40625 30.609375 66.40625 
Q 23.96875 66.40625 20.09375 61.84375 
Q 16.21875 57.28125 16.21875 49.421875 
Q 16.21875 41.5 20.09375 36.953125 
Q 23.96875 32.421875 30.609375 32.421875 
z
" id="DejaVuSans-57"/>
     </defs>
     <g transform="translate(873.768125 318.255394)scale(0.08 -0.08)">
      <use xlink:href="#DejaVuSans-68"/>
      <use x="77.001953" xlink:href="#DejaVuSans-97"/>
      <use x="138.28125" xlink:href="#DejaVuSans-114"/>
      <use x="179.300781" xlink:href="#DejaVuSans-45"/>
      <use x="215.384766" xlink:href="#DejaVuSans-67"/>
      <use x="285.208984" xlink:href="#DejaVuSans-74"/>
      <use x="314.701172" xlink:href="#DejaVuSans-111"/>
      <use x="375.882812" xlink:href="#DejaVuSans-108"/>
      <use x="403.666016" xlink:href="#DejaVuSans-95"/>
      <use x="453.666016" xlink:href="#DejaVuSans-48"/>
      <use x="517.289062" xlink:href="#DejaVuSans-48"/>
      <use x="580.912109" xlink:href="#DejaVuSans-51"/>
      <use x="644.535156" xlink:href="#DejaVuSans-45"/>
      <use x="680.619141" xlink:href="#DejaVuSans-69"/>
      <use x="743.802734" xlink:href="#DejaVuSans-120"/>
      <use x="802.982422" xlink:href="#DejaVuSans-49"/>
      <use x="866.605469" xlink:href="#DejaVuSans-45"/>
      <use x="902.689453" xlink:href="#DejaVuSans-57"/>
      <use x="966.3125" xlink:href="#DejaVuSans-65"/>
      <use x="1034.689453" xlink:href="#DejaVuSans-45"/>
      <use x="1070.773438" xlink:href="#DejaVuSans-115"/>
      <use x="1122.873047" xlink:href="#DejaVuSans-115"/>
      <use x="1174.972656" xlink:href="#DejaVuSans-108"/>
      <use x="1202.755859" xlink:href="#DejaVuSans-45"/>
      <use x="1238.839844" xlink:href="#DejaVuSans-49"/>
      <use x="1302.462891" xlink:href="#DejaVuSans-45"/>
      <use x="1338.546875" xlink:href="#DejaVuSans-49"/>
     </g>
    </g>
   </g>
  </g>
 </g>
 <defs>
  <clipPath id="p449aa120d6">
   <rect height="242.5072" width="952.54" x="40.600625" y="31.48286"/>
  </clipPath>
 </defs>
</svg>
