<?xml version="1.0" encoding="utf-8" standalone="no"?>
<!DOCTYPE svg PUBLIC "-//W3C//DTD SVG 1.1//EN"
  "http://www.w3.org/Graphics/SVG/1.1/DTD/svg11.dtd">
<!-- Created with matplotlib (https://matplotlib.org/) -->
<svg height="330.541644pt" version="1.1" viewBox="0 0 1000.340625 330.541644" width="1000.340625pt" xmlns="http://www.w3.org/2000/svg" xmlns:xlink="http://www.w3.org/1999/xlink">
 <defs>
  <style type="text/css">
*{stroke-linecap:butt;stroke-linejoin:round;}
  </style>
 </defs>
 <g id="figure_1">
  <g id="axes_1">
   <g id="patch_1">
    <path d="M 40.600625 273.99006 
L 993.140625 273.99006 
L 993.140625 31.48286 
L 40.600625 31.48286 
z
" style="fill:#ffffff;"/>
   </g>
   <g id="matplotlib.axis_1">
    <g id="xtick_1">
     <g id="text_1">
      <!-- 0 -->
      <defs>
       <path d="M 31.78125 66.40625 
Q 24.171875 66.40625 20.328125 58.90625 
Q 16.5 51.421875 16.5 36.375 
Q 16.5 21.390625 20.328125 13.890625 
Q 24.171875 6.390625 31.78125 6.390625 
Q 39.453125 6.390625 43.28125 13.890625 
Q 47.125 21.390625 47.125 36.375 
Q 47.125 51.421875 43.28125 58.90625 
Q 39.453125 66.40625 31.78125 66.40625 
z
M 31.78125 74.21875 
Q 44.046875 74.21875 50.515625 64.515625 
Q 56.984375 54.828125 56.984375 36.375 
Q 56.984375 17.96875 50.515625 8.265625 
Q 44.046875 -1.421875 31.78125 -1.421875 
Q 19.53125 -1.421875 13.0625 8.265625 
Q 6.59375 17.96875 6.59375 36.375 
Q 6.59375 54.828125 13.0625 64.515625 
Q 19.53125 74.21875 31.78125 74.21875 
z
" id="DejaVuSans-48"/>
      </defs>
      <g transform="translate(78.13377 287.06881)scale(0.08 -0.08)">
       <use xlink:href="#DejaVuSans-48"/>
      </g>
     </g>
    </g>
    <g id="xtick_2">
     <g id="text_2">
      <!-- 50 -->
      <defs>
       <path d="M 10.796875 72.90625 
L 49.515625 72.90625 
L 49.515625 64.59375 
L 19.828125 64.59375 
L 19.828125 46.734375 
Q 21.96875 47.46875 24.109375 47.828125 
Q 26.265625 48.1875 28.421875 48.1875 
Q 40.625 48.1875 47.75 41.5 
Q 54.890625 34.8125 54.890625 23.390625 
Q 54.890625 11.625 47.5625 5.09375 
Q 40.234375 -1.421875 26.90625 -1.421875 
Q 22.3125 -1.421875 17.546875 -0.640625 
Q 12.796875 0.140625 7.71875 1.703125 
L 7.71875 11.625 
Q 12.109375 9.234375 16.796875 8.0625 
Q 21.484375 6.890625 26.703125 6.890625 
Q 35.15625 6.890625 40.078125 11.328125 
Q 45.015625 15.765625 45.015625 23.390625 
Q 45.015625 31 40.078125 35.4375 
Q 35.15625 39.890625 26.703125 39.890625 
Q 22.75 39.890625 18.8125 39.015625 
Q 14.890625 38.140625 10.796875 36.28125 
z
" id="DejaVuSans-53"/>
      </defs>
      <g transform="translate(236.545174 287.06881)scale(0.08 -0.08)">
       <use xlink:href="#DejaVuSans-53"/>
       <use x="63.623047" xlink:href="#DejaVuSans-48"/>
      </g>
     </g>
    </g>
    <g id="xtick_3">
     <g id="text_3">
      <!-- 100 -->
      <defs>
       <path d="M 12.40625 8.296875 
L 28.515625 8.296875 
L 28.515625 63.921875 
L 10.984375 60.40625 
L 10.984375 69.390625 
L 28.421875 72.90625 
L 38.28125 72.90625 
L 38.28125 8.296875 
L 54.390625 8.296875 
L 54.390625 0 
L 12.40625 0 
z
" id="DejaVuSans-49"/>
      </defs>
      <g transform="translate(394.956578 287.06881)scale(0.08 -0.08)">
       <use xlink:href="#DejaVuSans-49"/>
       <use x="63.623047" xlink:href="#DejaVuSans-48"/>
       <use x="127.246094" xlink:href="#DejaVuSans-48"/>
      </g>
     </g>
    </g>
    <g id="xtick_4">
     <g id="text_4">
      <!-- 150 -->
      <g transform="translate(555.912982 287.06881)scale(0.08 -0.08)">
       <use xlink:href="#DejaVuSans-49"/>
       <use x="63.623047" xlink:href="#DejaVuSans-53"/>
       <use x="127.246094" xlink:href="#DejaVuSans-48"/>
      </g>
     </g>
    </g>
    <g id="xtick_5">
     <g id="text_5">
      <!-- 200 -->
      <defs>
       <path d="M 19.1875 8.296875 
L 53.609375 8.296875 
L 53.609375 0 
L 7.328125 0 
L 7.328125 8.296875 
Q 12.9375 14.109375 22.625 23.890625 
Q 32.328125 33.6875 34.8125 36.53125 
Q 39.546875 41.84375 41.421875 45.53125 
Q 43.3125 49.21875 43.3125 52.78125 
Q 43.3125 58.59375 39.234375 62.25 
Q 35.15625 65.921875 28.609375 65.921875 
Q 23.96875 65.921875 18.8125 64.3125 
Q 13.671875 62.703125 7.8125 59.421875 
L 7.8125 69.390625 
Q 13.765625 71.78125 18.9375 73 
Q 24.125 74.21875 28.421875 74.21875 
Q 39.75 74.21875 46.484375 68.546875 
Q 53.21875 62.890625 53.21875 53.421875 
Q 53.21875 48.921875 51.53125 44.890625 
Q 49.859375 40.875 45.40625 35.40625 
Q 44.1875 33.984375 37.640625 27.21875 
Q 31.109375 20.453125 19.1875 8.296875 
z
" id="DejaVuSans-50"/>
      </defs>
      <g transform="translate(716.869386 287.06881)scale(0.08 -0.08)">
       <use xlink:href="#DejaVuSans-50"/>
       <use x="63.623047" xlink:href="#DejaVuSans-48"/>
       <use x="127.246094" xlink:href="#DejaVuSans-48"/>
      </g>
     </g>
    </g>
    <g id="xtick_6">
     <g id="text_6">
      <!-- 250 -->
      <g transform="translate(877.825791 287.06881)scale(0.08 -0.08)">
       <use xlink:href="#DejaVuSans-50"/>
       <use x="63.623047" xlink:href="#DejaVuSans-53"/>
       <use x="127.246094" xlink:href="#DejaVuSans-48"/>
      </g>
     </g>
    </g>
    <g id="text_7">
     <!-- Insert size -->
     <defs>
      <path d="M 9.8125 72.90625 
L 19.671875 72.90625 
L 19.671875 0 
L 9.8125 0 
z
" id="DejaVuSans-73"/>
      <path d="M 54.890625 33.015625 
L 54.890625 0 
L 45.90625 0 
L 45.90625 32.71875 
Q 45.90625 40.484375 42.875 44.328125 
Q 39.84375 48.1875 33.796875 48.1875 
Q 26.515625 48.1875 22.3125 43.546875 
Q 18.109375 38.921875 18.109375 30.90625 
L 18.109375 0 
L 9.078125 0 
L 9.078125 54.6875 
L 18.109375 54.6875 
L 18.109375 46.1875 
Q 21.34375 51.125 25.703125 53.5625 
Q 30.078125 56 35.796875 56 
Q 45.21875 56 50.046875 50.171875 
Q 54.890625 44.34375 54.890625 33.015625 
z
" id="DejaVuSans-110"/>
      <path d="M 44.28125 53.078125 
L 44.28125 44.578125 
Q 40.484375 46.53125 36.375 47.5 
Q 32.28125 48.484375 27.875 48.484375 
Q 21.1875 48.484375 17.84375 46.4375 
Q 14.5 44.390625 14.5 40.28125 
Q 14.5 37.15625 16.890625 35.375 
Q 19.28125 33.59375 26.515625 31.984375 
L 29.59375 31.296875 
Q 39.15625 29.25 43.1875 25.515625 
Q 47.21875 21.78125 47.21875 15.09375 
Q 47.21875 7.46875 41.1875 3.015625 
Q 35.15625 -1.421875 24.609375 -1.421875 
Q 20.21875 -1.421875 15.453125 -0.5625 
Q 10.6875 0.296875 5.421875 2 
L 5.421875 11.28125 
Q 10.40625 8.6875 15.234375 7.390625 
Q 20.0625 6.109375 24.8125 6.109375 
Q 31.15625 6.109375 34.5625 8.28125 
Q 37.984375 10.453125 37.984375 14.40625 
Q 37.984375 18.0625 35.515625 20.015625 
Q 33.0625 21.96875 24.703125 23.78125 
L 21.578125 24.515625 
Q 13.234375 26.265625 9.515625 29.90625 
Q 5.8125 33.546875 5.8125 39.890625 
Q 5.8125 47.609375 11.28125 51.796875 
Q 16.75 56 26.8125 56 
Q 31.78125 56 36.171875 55.265625 
Q 40.578125 54.546875 44.28125 53.078125 
z
" id="DejaVuSans-115"/>
      <path d="M 56.203125 29.59375 
L 56.203125 25.203125 
L 14.890625 25.203125 
Q 15.484375 15.921875 20.484375 11.0625 
Q 25.484375 6.203125 34.421875 6.203125 
Q 39.59375 6.203125 44.453125 7.46875 
Q 49.3125 8.734375 54.109375 11.28125 
L 54.109375 2.78125 
Q 49.265625 0.734375 44.1875 -0.34375 
Q 39.109375 -1.421875 33.890625 -1.421875 
Q 20.796875 -1.421875 13.15625 6.1875 
Q 5.515625 13.8125 5.515625 26.8125 
Q 5.515625 40.234375 12.765625 48.109375 
Q 20.015625 56 32.328125 56 
Q 43.359375 56 49.78125 48.890625 
Q 56.203125 41.796875 56.203125 29.59375 
z
M 47.21875 32.234375 
Q 47.125 39.59375 43.09375 43.984375 
Q 39.0625 48.390625 32.421875 48.390625 
Q 24.90625 48.390625 20.390625 44.140625 
Q 15.875 39.890625 15.1875 32.171875 
z
" id="DejaVuSans-101"/>
      <path d="M 41.109375 46.296875 
Q 39.59375 47.171875 37.8125 47.578125 
Q 36.03125 48 33.890625 48 
Q 26.265625 48 22.1875 43.046875 
Q 18.109375 38.09375 18.109375 28.8125 
L 18.109375 0 
L 9.078125 0 
L 9.078125 54.6875 
L 18.109375 54.6875 
L 18.109375 46.1875 
Q 20.953125 51.171875 25.484375 53.578125 
Q 30.03125 56 36.53125 56 
Q 37.453125 56 38.578125 55.875 
Q 39.703125 55.765625 41.0625 55.515625 
z
" id="DejaVuSans-114"/>
      <path d="M 18.3125 70.21875 
L 18.3125 54.6875 
L 36.8125 54.6875 
L 36.8125 47.703125 
L 18.3125 47.703125 
L 18.3125 18.015625 
Q 18.3125 11.328125 20.140625 9.421875 
Q 21.96875 7.515625 27.59375 7.515625 
L 36.8125 7.515625 
L 36.8125 0 
L 27.59375 0 
Q 17.1875 0 13.234375 3.875 
Q 9.28125 7.765625 9.28125 18.015625 
L 9.28125 47.703125 
L 2.6875 47.703125 
L 2.6875 54.6875 
L 9.28125 54.6875 
L 9.28125 70.21875 
z
" id="DejaVuSans-116"/>
      <path id="DejaVuSans-32"/>
      <path d="M 9.421875 54.6875 
L 18.40625 54.6875 
L 18.40625 0 
L 9.421875 0 
z
M 9.421875 75.984375 
L 18.40625 75.984375 
L 18.40625 64.59375 
L 9.421875 64.59375 
z
" id="DejaVuSans-105"/>
      <path d="M 5.515625 54.6875 
L 48.1875 54.6875 
L 48.1875 46.484375 
L 14.40625 7.171875 
L 48.1875 7.171875 
L 48.1875 0 
L 4.296875 0 
L 4.296875 8.203125 
L 38.09375 47.515625 
L 5.515625 47.515625 
z
" id="DejaVuSans-122"/>
     </defs>
     <g transform="translate(491.246406 300.330997)scale(0.1 -0.1)">
      <use xlink:href="#DejaVuSans-73"/>
      <use x="29.492188" xlink:href="#DejaVuSans-110"/>
      <use x="92.871094" xlink:href="#DejaVuSans-115"/>
      <use x="144.970703" xlink:href="#DejaVuSans-101"/>
      <use x="206.494141" xlink:href="#DejaVuSans-114"/>
      <use x="247.607422" xlink:href="#DejaVuSans-116"/>
      <use x="286.816406" xlink:href="#DejaVuSans-32"/>
      <use x="318.603516" xlink:href="#DejaVuSans-115"/>
      <use x="370.703125" xlink:href="#DejaVuSans-105"/>
      <use x="398.486328" xlink:href="#DejaVuSans-122"/>
      <use x="450.976562" xlink:href="#DejaVuSans-101"/>
     </g>
    </g>
   </g>
   <g id="matplotlib.axis_2">
    <g id="ytick_1">
     <g id="line2d_1">
      <path clip-path="url(#p1e8f2a617a)" d="M 40.600625 273.99006 
L 993.140625 273.99006 
" style="fill:none;stroke:#dedede;stroke-linecap:square;"/>
     </g>
     <g id="text_8">
      <!-- 0.0 -->
      <defs>
       <path d="M 10.6875 12.40625 
L 21 12.40625 
L 21 0 
L 10.6875 0 
z
" id="DejaVuSans-46"/>
      </defs>
      <g transform="translate(20.878125 277.029435)scale(0.08 -0.08)">
       <use xlink:href="#DejaVuSans-48"/>
       <use x="63.623047" xlink:href="#DejaVuSans-46"/>
       <use x="95.410156" xlink:href="#DejaVuSans-48"/>
      </g>
     </g>
    </g>
    <g id="ytick_2">
     <g id="line2d_2">
      <path clip-path="url(#p1e8f2a617a)" d="M 40.600625 228.747642 
L 993.140625 228.747642 
" style="fill:none;stroke:#dedede;stroke-linecap:square;"/>
     </g>
     <g id="text_9">
      <!-- 0.2 -->
      <g transform="translate(20.878125 231.787017)scale(0.08 -0.08)">
       <use xlink:href="#DejaVuSans-48"/>
       <use x="63.623047" xlink:href="#DejaVuSans-46"/>
       <use x="95.410156" xlink:href="#DejaVuSans-50"/>
      </g>
     </g>
    </g>
    <g id="ytick_3">
     <g id="line2d_3">
      <path clip-path="url(#p1e8f2a617a)" d="M 40.600625 183.505224 
L 993.140625 183.505224 
" style="fill:none;stroke:#dedede;stroke-linecap:square;"/>
     </g>
     <g id="text_10">
      <!-- 0.4 -->
      <defs>
       <path d="M 37.796875 64.3125 
L 12.890625 25.390625 
L 37.796875 25.390625 
z
M 35.203125 72.90625 
L 47.609375 72.90625 
L 47.609375 25.390625 
L 58.015625 25.390625 
L 58.015625 17.1875 
L 47.609375 17.1875 
L 47.609375 0 
L 37.796875 0 
L 37.796875 17.1875 
L 4.890625 17.1875 
L 4.890625 26.703125 
z
" id="DejaVuSans-52"/>
      </defs>
      <g transform="translate(20.878125 186.544599)scale(0.08 -0.08)">
       <use xlink:href="#DejaVuSans-48"/>
       <use x="63.623047" xlink:href="#DejaVuSans-46"/>
       <use x="95.410156" xlink:href="#DejaVuSans-52"/>
      </g>
     </g>
    </g>
    <g id="ytick_4">
     <g id="line2d_4">
      <path clip-path="url(#p1e8f2a617a)" d="M 40.600625 138.262805 
L 993.140625 138.262805 
" style="fill:none;stroke:#dedede;stroke-linecap:square;"/>
     </g>
     <g id="text_11">
      <!-- 0.6 -->
      <defs>
       <path d="M 33.015625 40.375 
Q 26.375 40.375 22.484375 35.828125 
Q 18.609375 31.296875 18.609375 23.390625 
Q 18.609375 15.53125 22.484375 10.953125 
Q 26.375 6.390625 33.015625 6.390625 
Q 39.65625 6.390625 43.53125 10.953125 
Q 47.40625 15.53125 47.40625 23.390625 
Q 47.40625 31.296875 43.53125 35.828125 
Q 39.65625 40.375 33.015625 40.375 
z
M 52.59375 71.296875 
L 52.59375 62.3125 
Q 48.875 64.0625 45.09375 64.984375 
Q 41.3125 65.921875 37.59375 65.921875 
Q 27.828125 65.921875 22.671875 59.328125 
Q 17.53125 52.734375 16.796875 39.40625 
Q 19.671875 43.65625 24.015625 45.921875 
Q 28.375 48.1875 33.59375 48.1875 
Q 44.578125 48.1875 50.953125 41.515625 
Q 57.328125 34.859375 57.328125 23.390625 
Q 57.328125 12.15625 50.6875 5.359375 
Q 44.046875 -1.421875 33.015625 -1.421875 
Q 20.359375 -1.421875 13.671875 8.265625 
Q 6.984375 17.96875 6.984375 36.375 
Q 6.984375 53.65625 15.1875 63.9375 
Q 23.390625 74.21875 37.203125 74.21875 
Q 40.921875 74.21875 44.703125 73.484375 
Q 48.484375 72.75 52.59375 71.296875 
z
" id="DejaVuSans-54"/>
      </defs>
      <g transform="translate(20.878125 141.30218)scale(0.08 -0.08)">
       <use xlink:href="#DejaVuSans-48"/>
       <use x="63.623047" xlink:href="#DejaVuSans-46"/>
       <use x="95.410156" xlink:href="#DejaVuSans-54"/>
      </g>
     </g>
    </g>
    <g id="ytick_5">
     <g id="line2d_5">
      <path clip-path="url(#p1e8f2a617a)" d="M 40.600625 93.020387 
L 993.140625 93.020387 
" style="fill:none;stroke:#dedede;stroke-linecap:square;"/>
     </g>
     <g id="text_12">
      <!-- 0.8 -->
      <defs>
       <path d="M 31.78125 34.625 
Q 24.75 34.625 20.71875 30.859375 
Q 16.703125 27.09375 16.703125 20.515625 
Q 16.703125 13.921875 20.71875 10.15625 
Q 24.75 6.390625 31.78125 6.390625 
Q 38.8125 6.390625 42.859375 10.171875 
Q 46.921875 13.96875 46.921875 20.515625 
Q 46.921875 27.09375 42.890625 30.859375 
Q 38.875 34.625 31.78125 34.625 
z
M 21.921875 38.8125 
Q 15.578125 40.375 12.03125 44.71875 
Q 8.5 49.078125 8.5 55.328125 
Q 8.5 64.0625 14.71875 69.140625 
Q 20.953125 74.21875 31.78125 74.21875 
Q 42.671875 74.21875 48.875 69.140625 
Q 55.078125 64.0625 55.078125 55.328125 
Q 55.078125 49.078125 51.53125 44.71875 
Q 48 40.375 41.703125 38.8125 
Q 48.828125 37.15625 52.796875 32.3125 
Q 56.78125 27.484375 56.78125 20.515625 
Q 56.78125 9.90625 50.3125 4.234375 
Q 43.84375 -1.421875 31.78125 -1.421875 
Q 19.734375 -1.421875 13.25 4.234375 
Q 6.78125 9.90625 6.78125 20.515625 
Q 6.78125 27.484375 10.78125 32.3125 
Q 14.796875 37.15625 21.921875 38.8125 
z
M 18.3125 54.390625 
Q 18.3125 48.734375 21.84375 45.5625 
Q 25.390625 42.390625 31.78125 42.390625 
Q 38.140625 42.390625 41.71875 45.5625 
Q 45.3125 48.734375 45.3125 54.390625 
Q 45.3125 60.0625 41.71875 63.234375 
Q 38.140625 66.40625 31.78125 66.40625 
Q 25.390625 66.40625 21.84375 63.234375 
Q 18.3125 60.0625 18.3125 54.390625 
z
" id="DejaVuSans-56"/>
      </defs>
      <g transform="translate(20.878125 96.059762)scale(0.08 -0.08)">
       <use xlink:href="#DejaVuSans-48"/>
       <use x="63.623047" xlink:href="#DejaVuSans-46"/>
       <use x="95.410156" xlink:href="#DejaVuSans-56"/>
      </g>
     </g>
    </g>
    <g id="ytick_6">
     <g id="line2d_6">
      <path clip-path="url(#p1e8f2a617a)" d="M 40.600625 47.777969 
L 993.140625 47.777969 
" style="fill:none;stroke:#dedede;stroke-linecap:square;"/>
     </g>
     <g id="text_13">
      <!-- 1.0 -->
      <g transform="translate(20.878125 50.817344)scale(0.08 -0.08)">
       <use xlink:href="#DejaVuSans-49"/>
       <use x="63.623047" xlink:href="#DejaVuSans-46"/>
       <use x="95.410156" xlink:href="#DejaVuSans-48"/>
      </g>
     </g>
    </g>
    <g id="text_14">
     <!-- Read percent -->
     <defs>
      <path d="M 44.390625 34.1875 
Q 47.5625 33.109375 50.5625 29.59375 
Q 53.5625 26.078125 56.59375 19.921875 
L 66.609375 0 
L 56 0 
L 46.6875 18.703125 
Q 43.0625 26.03125 39.671875 28.421875 
Q 36.28125 30.8125 30.421875 30.8125 
L 19.671875 30.8125 
L 19.671875 0 
L 9.8125 0 
L 9.8125 72.90625 
L 32.078125 72.90625 
Q 44.578125 72.90625 50.734375 67.671875 
Q 56.890625 62.453125 56.890625 51.90625 
Q 56.890625 45.015625 53.6875 40.46875 
Q 50.484375 35.9375 44.390625 34.1875 
z
M 19.671875 64.796875 
L 19.671875 38.921875 
L 32.078125 38.921875 
Q 39.203125 38.921875 42.84375 42.21875 
Q 46.484375 45.515625 46.484375 51.90625 
Q 46.484375 58.296875 42.84375 61.546875 
Q 39.203125 64.796875 32.078125 64.796875 
z
" id="DejaVuSans-82"/>
      <path d="M 34.28125 27.484375 
Q 23.390625 27.484375 19.1875 25 
Q 14.984375 22.515625 14.984375 16.5 
Q 14.984375 11.71875 18.140625 8.90625 
Q 21.296875 6.109375 26.703125 6.109375 
Q 34.1875 6.109375 38.703125 11.40625 
Q 43.21875 16.703125 43.21875 25.484375 
L 43.21875 27.484375 
z
M 52.203125 31.203125 
L 52.203125 0 
L 43.21875 0 
L 43.21875 8.296875 
Q 40.140625 3.328125 35.546875 0.953125 
Q 30.953125 -1.421875 24.3125 -1.421875 
Q 15.921875 -1.421875 10.953125 3.296875 
Q 6 8.015625 6 15.921875 
Q 6 25.140625 12.171875 29.828125 
Q 18.359375 34.515625 30.609375 34.515625 
L 43.21875 34.515625 
L 43.21875 35.40625 
Q 43.21875 41.609375 39.140625 45 
Q 35.0625 48.390625 27.6875 48.390625 
Q 23 48.390625 18.546875 47.265625 
Q 14.109375 46.140625 10.015625 43.890625 
L 10.015625 52.203125 
Q 14.9375 54.109375 19.578125 55.046875 
Q 24.21875 56 28.609375 56 
Q 40.484375 56 46.34375 49.84375 
Q 52.203125 43.703125 52.203125 31.203125 
z
" id="DejaVuSans-97"/>
      <path d="M 45.40625 46.390625 
L 45.40625 75.984375 
L 54.390625 75.984375 
L 54.390625 0 
L 45.40625 0 
L 45.40625 8.203125 
Q 42.578125 3.328125 38.25 0.953125 
Q 33.9375 -1.421875 27.875 -1.421875 
Q 17.96875 -1.421875 11.734375 6.484375 
Q 5.515625 14.40625 5.515625 27.296875 
Q 5.515625 40.1875 11.734375 48.09375 
Q 17.96875 56 27.875 56 
Q 33.9375 56 38.25 53.625 
Q 42.578125 51.265625 45.40625 46.390625 
z
M 14.796875 27.296875 
Q 14.796875 17.390625 18.875 11.75 
Q 22.953125 6.109375 30.078125 6.109375 
Q 37.203125 6.109375 41.296875 11.75 
Q 45.40625 17.390625 45.40625 27.296875 
Q 45.40625 37.203125 41.296875 42.84375 
Q 37.203125 48.484375 30.078125 48.484375 
Q 22.953125 48.484375 18.875 42.84375 
Q 14.796875 37.203125 14.796875 27.296875 
z
" id="DejaVuSans-100"/>
      <path d="M 18.109375 8.203125 
L 18.109375 -20.796875 
L 9.078125 -20.796875 
L 9.078125 54.6875 
L 18.109375 54.6875 
L 18.109375 46.390625 
Q 20.953125 51.265625 25.265625 53.625 
Q 29.59375 56 35.59375 56 
Q 45.5625 56 51.78125 48.09375 
Q 58.015625 40.1875 58.015625 27.296875 
Q 58.015625 14.40625 51.78125 6.484375 
Q 45.5625 -1.421875 35.59375 -1.421875 
Q 29.59375 -1.421875 25.265625 0.953125 
Q 20.953125 3.328125 18.109375 8.203125 
z
M 48.6875 27.296875 
Q 48.6875 37.203125 44.609375 42.84375 
Q 40.53125 48.484375 33.40625 48.484375 
Q 26.265625 48.484375 22.1875 42.84375 
Q 18.109375 37.203125 18.109375 27.296875 
Q 18.109375 17.390625 22.1875 11.75 
Q 26.265625 6.109375 33.40625 6.109375 
Q 40.53125 6.109375 44.609375 11.75 
Q 48.6875 17.390625 48.6875 27.296875 
z
" id="DejaVuSans-112"/>
      <path d="M 48.78125 52.59375 
L 48.78125 44.1875 
Q 44.96875 46.296875 41.140625 47.34375 
Q 37.3125 48.390625 33.40625 48.390625 
Q 24.65625 48.390625 19.8125 42.84375 
Q 14.984375 37.3125 14.984375 27.296875 
Q 14.984375 17.28125 19.8125 11.734375 
Q 24.65625 6.203125 33.40625 6.203125 
Q 37.3125 6.203125 41.140625 7.25 
Q 44.96875 8.296875 48.78125 10.40625 
L 48.78125 2.09375 
Q 45.015625 0.34375 40.984375 -0.53125 
Q 36.96875 -1.421875 32.421875 -1.421875 
Q 20.0625 -1.421875 12.78125 6.34375 
Q 5.515625 14.109375 5.515625 27.296875 
Q 5.515625 40.671875 12.859375 48.328125 
Q 20.21875 56 33.015625 56 
Q 37.15625 56 41.109375 55.140625 
Q 45.0625 54.296875 48.78125 52.59375 
z
" id="DejaVuSans-99"/>
     </defs>
     <g transform="translate(14.798438 186.370835)rotate(-90)scale(0.1 -0.1)">
      <use xlink:href="#DejaVuSans-82"/>
      <use x="69.419922" xlink:href="#DejaVuSans-101"/>
      <use x="130.943359" xlink:href="#DejaVuSans-97"/>
      <use x="192.222656" xlink:href="#DejaVuSans-100"/>
      <use x="255.699219" xlink:href="#DejaVuSans-32"/>
      <use x="287.486328" xlink:href="#DejaVuSans-112"/>
      <use x="350.962891" xlink:href="#DejaVuSans-101"/>
      <use x="412.486328" xlink:href="#DejaVuSans-114"/>
      <use x="453.568359" xlink:href="#DejaVuSans-99"/>
      <use x="508.548828" xlink:href="#DejaVuSans-101"/>
      <use x="570.072266" xlink:href="#DejaVuSans-110"/>
      <use x="633.451172" xlink:href="#DejaVuSans-116"/>
     </g>
    </g>
   </g>
   <g id="line2d_7">
    <path clip-path="url(#p1e8f2a617a)" d="M 83.897898 273.99006 
L 87.117026 262.805575 
L 90.336154 267.674206 
L 93.555282 270.951664 
L 96.77441 272.532555 
L 106.431794 273.555636 
L 112.87005 273.781845 
L 116.089179 273.699587 
L 119.308307 273.768992 
L 125.746563 273.753569 
L 128.965691 273.797268 
L 138.623075 273.506796 
L 145.061331 273.331998 
L 148.280459 272.87701 
L 151.499587 272.864157 
L 161.156972 271.437499 
L 164.3761 269.979994 
L 167.595228 269.58927 
L 170.814356 270.113663 
L 174.033484 269.990276 
L 177.252612 270.095669 
L 180.47174 269.663816 
L 183.690868 266.944168 
L 186.909996 266.25526 
L 190.129124 226.848649 
L 193.348253 217.718037 
L 196.567381 211.870025 
L 199.786509 203.754782 
L 203.005637 198.916997 
L 206.224765 192.048474 
L 209.443893 188.827568 
L 212.663021 183.375421 
L 215.882149 182.177542 
L 219.101277 175.722878 
L 222.320405 173.098341 
L 225.539533 167.58193 
L 228.758661 167.067819 
L 231.97779 162.327715 
L 235.196918 161.502567 
L 238.416046 158.381913 
L 241.635174 157.921784 
L 244.854302 155.397499 
L 248.07343 153.839742 
L 251.292558 150.007045 
L 254.511686 149.657449 
L 257.730814 148.176809 
L 260.949942 146.955796 
L 264.16907 144.981609 
L 267.388199 145.025309 
L 270.607327 142.989429 
L 273.826455 143.135951 
L 277.045583 140.544831 
L 280.264711 142.040894 
L 283.483839 139.046197 
L 286.702967 141.436814 
L 289.922095 141.058942 
L 293.141223 140.86358 
L 296.360351 137.452453 
L 299.579479 139.025633 
L 302.798607 136.444796 
L 306.017736 137.920294 
L 309.236864 138.13365 
L 312.455992 137.223674 
L 315.67512 137.925435 
L 318.894248 139.768523 
L 322.113376 139.282689 
L 325.332504 141.118065 
L 328.551632 140.244076 
L 334.989888 141.526783 
L 338.209016 142.981717 
L 341.428144 142.912312 
L 344.647273 142.076882 
L 347.866401 142.012618 
L 351.085529 141.246593 
L 354.304657 141.763274 
L 357.523785 142.39306 
L 360.742913 141.529354 
L 363.962041 141.393114 
L 367.181169 140.963832 
L 370.400297 141.876379 
L 373.619425 141.611611 
L 376.838553 140.393168 
L 380.057681 140.719629 
L 383.27681 141.758133 
L 389.715066 143.174509 
L 392.934194 141.673305 
L 396.153322 142.223404 
L 399.37245 141.064083 
L 402.591578 142.452183 
L 405.810706 142.884036 
L 409.029834 139.899622 
L 412.248962 142.513876 
L 415.46809 142.403342 
L 418.687218 143.256767 
L 421.906347 143.169368 
L 425.125475 142.758079 
L 428.344603 142.981717 
L 431.563731 144.714272 
L 434.782859 144.400664 
L 438.001987 145.529138 
L 441.221115 147.43906 
L 444.440243 147.176863 
L 447.659371 146.662752 
L 454.097627 150.043032 
L 457.316755 148.850295 
L 460.535884 149.346412 
L 463.755012 151.181788 
L 466.97414 150.626548 
L 470.193268 150.528867 
L 473.412396 152.71898 
L 476.631524 152.238286 
L 479.850652 153.747202 
L 483.06978 152.629011 
L 486.288908 154.456675 
L 489.508036 155.731671 
L 492.727164 156.135248 
L 495.946292 157.389679 
L 499.165421 157.538771 
L 502.384549 158.73922 
L 505.603677 159.330448 
L 508.822805 160.111897 
L 512.041933 161.870157 
L 515.261061 162.834115 
L 518.480189 164.749178 
L 521.699317 165.394388 
L 524.918445 167.291457 
L 528.137573 167.245187 
L 534.575829 171.05475 
L 537.794958 171.964727 
L 541.014086 173.658722 
L 544.233214 174.396472 
L 547.452342 173.874649 
L 550.67147 174.023741 
L 553.890598 173.604741 
L 557.109726 170.825971 
L 560.328854 164.265914 
L 563.547982 145.416033 
L 566.76711 43.030822 
L 569.986238 113.6851 
L 573.205366 137.293079 
L 576.424495 143.105104 
L 579.643623 146.135789 
L 582.862751 147.562447 
L 586.081879 146.351715 
L 589.301007 148.534116 
L 592.520135 149.52121 
L 595.739263 151.078966 
L 598.958391 150.305229 
L 602.177519 151.988943 
L 605.396647 152.199728 
L 608.615775 153.659803 
L 611.834903 153.883442 
L 615.054032 155.975874 
L 618.27316 156.209794 
L 621.492288 156.590236 
L 624.711416 157.937207 
L 627.930544 158.518153 
L 631.149672 159.389571 
L 634.3688 161.219806 
L 637.587928 162.602765 
L 640.807056 161.880439 
L 647.245312 164.468988 
L 650.46444 166.00618 
L 653.683569 166.229818 
L 656.902697 168.797803 
L 660.121825 168.993165 
L 663.340953 170.887664 
L 666.560081 172.278334 
L 669.779209 172.95182 
L 672.998337 174.147128 
L 676.217465 174.846319 
L 679.436593 176.607149 
L 682.655721 177.864151 
L 685.874849 180.301037 
L 689.093977 180.378154 
L 692.313106 181.591456 
L 695.532234 183.825268 
L 698.751362 184.326526 
L 701.97049 185.419012 
L 705.189618 186.190179 
L 714.847002 191.575492 
L 718.06613 193.529114 
L 721.285258 193.814445 
L 724.504386 195.395337 
L 727.723514 196.320736 
L 730.942643 198.37461 
L 734.161771 198.035297 
L 737.380899 200.307668 
L 740.600027 200.916889 
L 743.819155 203.181548 
L 747.038283 204.741875 
L 750.257411 206.171104 
L 753.476539 206.613239 
L 756.695667 208.425481 
L 759.914795 209.71847 
L 763.133923 210.82895 
L 766.353051 212.386706 
L 769.57218 213.204143 
L 772.791308 215.013813 
L 776.010436 215.41482 
L 779.229564 216.512447 
L 782.448692 218.51491 
L 785.66782 219.473727 
L 788.886948 220.954366 
L 792.106076 222.596951 
L 798.544332 224.136714 
L 801.76346 225.383433 
L 804.982589 225.923249 
L 808.201717 227.254797 
L 811.420845 228.732866 
L 814.639973 229.779082 
L 817.859101 230.449997 
L 821.078229 231.24944 
L 824.297357 232.794343 
L 827.516485 233.023123 
L 830.735613 234.182443 
L 833.954741 234.565456 
L 837.173869 235.920138 
L 840.392997 236.166912 
L 843.612126 237.45476 
L 846.831254 237.357079 
L 850.050382 239.102486 
L 853.26951 239.326124 
L 856.488638 240.166695 
L 859.707766 241.374856 
L 862.926894 241.593354 
L 866.146022 242.233422 
L 869.36515 242.701263 
L 872.584278 243.315626 
L 875.803406 244.824541 
L 879.022534 244.289866 
L 891.899047 246.528819 
L 895.118175 246.012138 
L 898.337303 246.742176 
L 904.775559 247.258857 
L 907.994687 247.940054 
L 911.213815 247.947766 
L 914.432943 248.454165 
L 917.652071 248.312785 
L 920.8712 248.610969 
L 927.309456 248.821755 
L 930.528584 248.135416 
L 936.96684 247.78325 
L 940.185968 248.330779 
L 943.405096 247.59817 
L 946.624224 248.592975 
L 949.843352 252.124918 
L 949.843352 252.124918 
" style="fill:none;stroke:#7cb5ec;stroke-linecap:square;"/>
   </g>
   <g id="line2d_8">
    <path clip-path="url(#p1e8f2a617a)" d="M 83.897898 273.99006 
L 87.117026 264.352273 
L 90.336154 268.145815 
L 93.555282 271.221353 
L 96.77441 272.466238 
L 99.993538 272.994152 
L 106.431794 273.626409 
L 125.746563 273.760712 
L 138.623075 273.575787 
L 145.061331 273.328876 
L 148.280459 272.896007 
L 151.499587 272.923901 
L 154.718716 272.419748 
L 157.937844 272.068495 
L 161.156972 271.286438 
L 164.3761 270.272967 
L 167.595228 269.484712 
L 170.814356 270.130399 
L 180.47174 269.776046 
L 183.690868 267.141642 
L 186.909996 266.730468 
L 190.129124 232.15572 
L 193.348253 225.053159 
L 196.567381 218.865925 
L 199.786509 210.126935 
L 203.005637 206.406743 
L 206.224765 200.824905 
L 209.443893 196.581964 
L 212.663021 191.796646 
L 215.882149 188.942192 
L 219.101277 183.636192 
L 222.320405 181.460484 
L 225.539533 176.637974 
L 228.758661 174.221554 
L 231.97779 169.609797 
L 235.196918 169.70071 
L 238.416046 166.563186 
L 241.635174 166.428883 
L 244.854302 163.244869 
L 248.07343 160.22202 
L 251.292558 157.900645 
L 254.511686 156.765268 
L 257.730814 154.058547 
L 260.949942 153.976932 
L 267.388199 152.020241 
L 270.607327 150.564603 
L 273.826455 150.722668 
L 277.045583 148.700892 
L 280.264711 149.371373 
L 283.483839 147.285545 
L 286.702967 147.792797 
L 289.922095 147.034502 
L 293.141223 147.912636 
L 296.360351 144.313317 
L 299.579479 144.751351 
L 302.798607 142.793627 
L 306.017736 143.803999 
L 309.236864 143.544691 
L 312.455992 143.15108 
L 315.67512 144.161451 
L 318.894248 146.504522 
L 322.113376 145.558202 
L 325.332504 146.171863 
L 331.77076 146.327862 
L 334.989888 147.502496 
L 338.209016 147.915736 
L 341.428144 148.035575 
L 344.647273 148.341373 
L 347.866401 147.413649 
L 351.085529 146.891934 
L 354.304657 147.878544 
L 357.523785 146.904331 
L 360.742913 146.417741 
L 367.181169 145.96731 
L 370.400297 146.981814 
L 373.619425 146.653288 
L 376.838553 146.931192 
L 380.057681 146.212154 
L 383.27681 146.573739 
L 386.495938 146.14087 
L 389.715066 147.7804 
L 392.934194 146.18736 
L 396.153322 147.292777 
L 402.591578 146.696678 
L 405.810706 147.503529 
L 409.029834 146.375384 
L 412.248962 147.520059 
L 415.46809 147.131613 
L 418.687218 148.674031 
L 421.906347 147.51386 
L 425.125475 148.65027 
L 428.344603 148.150249 
L 431.563731 148.622376 
L 434.782859 150.064583 
L 438.001987 149.708164 
L 441.221115 150.833209 
L 444.440243 151.417944 
L 447.659371 151.380752 
L 454.097627 154.035819 
L 457.316755 154.191817 
L 460.535884 154.981105 
L 463.755012 155.651586 
L 466.97414 156.126812 
L 473.412396 156.597906 
L 476.631524 156.270413 
L 479.850652 157.687826 
L 483.06978 157.721918 
L 486.288908 159.680675 
L 489.508036 159.897626 
L 492.727164 161.977256 
L 495.946292 161.466905 
L 499.165421 162.306815 
L 502.384549 163.526906 
L 508.822805 164.959815 
L 512.041933 167.424791 
L 515.261061 167.47128 
L 518.480189 168.412434 
L 521.699317 169.842244 
L 524.918445 170.908403 
L 528.137573 172.254532 
L 534.575829 175.455075 
L 537.794958 176.377633 
L 541.014086 178.564705 
L 544.233214 179.653592 
L 547.452342 179.07299 
L 550.67147 178.135969 
L 553.890598 178.395277 
L 557.109726 175.182337 
L 560.328854 168.775052 
L 563.547982 150.172026 
L 566.76711 50.922136 
L 569.986238 117.261601 
L 573.205366 142.709946 
L 576.424495 147.863048 
L 579.643623 150.614192 
L 582.862751 152.251655 
L 586.081879 153.277523 
L 589.301007 154.535839 
L 602.177519 157.928538 
L 605.396647 159.601127 
L 608.615775 158.782912 
L 611.834903 160.296403 
L 615.054032 161.538189 
L 618.27316 161.593976 
L 621.492288 163.41843 
L 624.711416 163.852332 
L 627.930544 165.229454 
L 631.149672 165.722243 
L 634.3688 166.507398 
L 637.587928 167.620047 
L 640.807056 168.216145 
L 644.026184 169.203789 
L 650.46444 171.606779 
L 653.683569 172.221473 
L 656.902697 173.807281 
L 660.121825 175.242256 
L 663.340953 175.694754 
L 666.560081 177.090472 
L 669.779209 178.758928 
L 672.998337 179.158737 
L 676.217465 180.28275 
L 679.436593 182.585529 
L 685.874849 183.881036 
L 689.093977 185.598048 
L 692.313106 186.110466 
L 695.532234 187.746895 
L 698.751362 189.197367 
L 711.627874 193.445474 
L 718.06613 195.994131 
L 721.285258 196.757591 
L 724.504386 198.495265 
L 727.723514 199.744282 
L 730.942643 200.34658 
L 734.161771 201.644153 
L 737.380899 202.653491 
L 740.600027 203.504765 
L 756.695667 209.126894 
L 759.914795 210.548439 
L 763.133923 211.169332 
L 766.353051 212.139413 
L 769.57218 213.470045 
L 772.791308 213.900848 
L 776.010436 215.42467 
L 782.448692 217.191271 
L 785.66782 218.364872 
L 795.325204 221.11395 
L 798.544332 221.436277 
L 804.982589 223.746288 
L 811.420845 225.294905 
L 817.859101 226.433381 
L 824.297357 228.24957 
L 827.516485 228.302258 
L 830.735613 229.347755 
L 833.954741 229.745498 
L 837.173869 229.836411 
L 840.392997 230.630865 
L 846.831254 230.613302 
L 850.050382 231.373663 
L 853.26951 231.398458 
L 856.488638 231.100925 
L 859.707766 230.990383 
L 862.926894 231.115389 
L 866.146022 230.927364 
L 875.803406 229.793021 
L 879.022534 229.673181 
L 882.241663 229.22275 
L 885.460791 228.147293 
L 888.679919 226.946831 
L 891.899047 226.257754 
L 895.118175 224.527312 
L 898.337303 223.417763 
L 901.556431 221.462105 
L 904.775559 220.648022 
L 907.994687 218.840098 
L 911.213815 216.680919 
L 914.432943 215.450498 
L 917.652071 213.368802 
L 920.8712 210.83874 
L 924.090328 209.168218 
L 927.309456 206.482159 
L 930.528584 203.965528 
L 933.747712 200.402367 
L 940.185968 196.586097 
L 943.405096 194.801933 
L 946.624224 195.364973 
L 949.843352 204.487243 
L 949.843352 204.487243 
" style="fill:none;stroke:#434348;stroke-linecap:square;"/>
   </g>
   <g id="line2d_9">
    <path clip-path="url(#p1e8f2a617a)" d="M 83.897898 273.99006 
L 87.117026 263.90429 
L 90.336154 268.432646 
L 93.555282 271.249279 
L 96.77441 272.576687 
L 103.212666 273.400944 
L 109.650922 273.716993 
L 112.87005 273.790317 
L 119.308307 273.747334 
L 138.623075 273.603215 
L 145.061331 273.26441 
L 148.280459 272.880094 
L 151.499587 272.882623 
L 154.718716 272.260637 
L 157.937844 271.825753 
L 161.156972 271.256864 
L 164.3761 270.086217 
L 167.595228 269.360568 
L 170.814356 270.040706 
L 174.033484 269.760054 
L 177.252612 269.929457 
L 180.47174 269.749941 
L 183.690868 267.031915 
L 186.909996 266.250641 
L 190.129124 229.672342 
L 193.348253 221.894997 
L 196.567381 214.997534 
L 199.786509 205.877611 
L 203.005637 201.088829 
L 206.224765 195.43028 
L 209.443893 192.082684 
L 212.663021 185.180164 
L 215.882149 182.800944 
L 219.101277 177.230888 
L 222.320405 175.352291 
L 225.539533 169.713968 
L 228.758661 167.822728 
L 231.97779 162.121196 
L 235.196918 162.095912 
L 238.416046 159.731862 
L 241.635174 158.566272 
L 244.854302 155.729412 
L 248.07343 153.109994 
L 251.292558 150.02788 
L 254.511686 150.222567 
L 257.730814 146.255514 
L 260.949942 145.840857 
L 264.16907 144.237854 
L 267.388199 144.753647 
L 270.607327 143.714476 
L 273.826455 142.409824 
L 277.045583 139.914298 
L 280.264711 140.82452 
L 283.483839 138.882712 
L 286.702967 141.431335 
L 289.922095 139.739838 
L 293.141223 139.552737 
L 296.360351 136.480736 
L 299.579479 139.198762 
L 302.798607 136.028154 
L 306.017736 136.923206 
L 309.236864 137.363147 
L 312.455992 136.36443 
L 315.67512 136.994001 
L 318.894248 139.40609 
L 322.113376 138.872599 
L 325.332504 139.317596 
L 328.551632 141.337784 
L 331.77076 139.810634 
L 334.989888 141.052076 
L 338.209016 143.082377 
L 341.428144 142.182269 
L 344.647273 142.035622 
L 347.866401 142.245478 
L 351.085529 141.545113 
L 354.304657 141.350426 
L 357.523785 140.870031 
L 360.742913 142.202496 
L 363.962041 140.538811 
L 367.181169 140.202535 
L 370.400297 142.680363 
L 373.619425 141.734743 
L 376.838553 142.561528 
L 380.057681 140.237932 
L 383.27681 141.830822 
L 386.495938 141.694288 
L 389.715066 143.102605 
L 392.934194 141.266989 
L 396.153322 143.297291 
L 399.37245 142.771385 
L 402.591578 141.370654 
L 405.810706 143.325103 
L 409.029834 141.446505 
L 412.248962 143.337745 
L 415.46809 143.717005 
L 418.687218 144.478052 
L 421.906347 143.504619 
L 425.125475 144.303593 
L 428.344603 143.94456 
L 431.563731 143.742289 
L 434.782859 145.699267 
L 438.001987 145.858556 
L 441.221115 147.643603 
L 444.440243 147.721983 
L 447.659371 146.756136 
L 450.878499 148.998823 
L 454.097627 150.356572 
L 457.316755 149.833194 
L 460.535884 150.738359 
L 463.755012 151.471594 
L 466.97414 151.888779 
L 470.193268 150.682735 
L 473.412396 152.664997 
L 476.631524 152.548691 
L 483.06978 153.299624 
L 486.288908 154.15675 
L 489.508036 155.504385 
L 492.727164 157.029008 
L 495.946292 158.361472 
L 499.165421 158.118746 
L 502.384549 159.48408 
L 505.603677 160.333621 
L 508.822805 161.314638 
L 512.041933 162.063043 
L 515.261061 164.239992 
L 521.699317 165.23618 
L 524.918445 167.582531 
L 528.137573 167.392901 
L 531.356701 169.084398 
L 534.575829 171.091944 
L 537.794958 172.02745 
L 541.014086 173.579885 
L 544.233214 174.113377 
L 550.67147 173.321989 
L 553.890598 174.457239 
L 557.109726 171.203193 
L 560.328854 163.36011 
L 563.547982 146.789005 
L 566.76711 53.830012 
L 569.986238 112.984356 
L 573.205366 136.124233 
L 576.424495 141.840935 
L 579.643623 144.730891 
L 582.862751 145.039356 
L 586.081879 146.910368 
L 589.301007 146.796591 
L 592.520135 148.126527 
L 595.739263 148.965954 
L 598.958391 150.159357 
L 602.177519 150.083505 
L 605.396647 151.350231 
L 608.615775 151.481708 
L 611.834903 153.506953 
L 615.054032 153.350192 
L 618.27316 152.86474 
L 624.711416 155.360266 
L 627.930544 156.247733 
L 631.149672 157.59284 
L 634.3688 157.855793 
L 637.587928 160.106065 
L 640.807056 159.906322 
L 644.026184 160.581403 
L 647.245312 163.413207 
L 650.46444 163.461246 
L 653.683569 164.467547 
L 656.902697 166.153987 
L 660.121825 165.499133 
L 663.340953 168.748121 
L 666.560081 169.193119 
L 669.779209 170.611549 
L 672.998337 171.865633 
L 679.436593 174.656982 
L 682.655721 176.879442 
L 685.874849 176.641772 
L 689.093977 178.732755 
L 692.313106 180.06522 
L 695.532234 180.846494 
L 698.751362 183.096766 
L 701.97049 184.419117 
L 705.189618 187.147256 
L 708.408746 185.59735 
L 711.627874 188.899434 
L 718.06613 190.871583 
L 721.285258 193.298843 
L 724.504386 193.33424 
L 727.723514 195.27352 
L 730.942643 195.789312 
L 734.161771 197.523792 
L 740.600027 200.274686 
L 743.819155 201.086301 
L 747.038283 203.334045 
L 750.257411 204.777759 
L 753.476539 206.413631 
L 759.914795 208.883873 
L 763.133923 210.593069 
L 766.353051 211.64741 
L 769.57218 212.957118 
L 772.791308 213.700467 
L 782.448692 218.067006 
L 785.66782 218.901377 
L 788.886948 220.838128 
L 795.325204 223.755896 
L 798.544332 223.839333 
L 801.76346 225.369012 
L 808.201717 228.200816 
L 811.420845 229.181833 
L 814.639973 230.026317 
L 817.859101 230.701399 
L 821.078229 232.074318 
L 824.297357 232.903631 
L 827.516485 233.414367 
L 830.735613 234.203227 
L 833.954741 235.406743 
L 837.173869 236.000916 
L 840.392997 237.389005 
L 843.612126 238.157637 
L 846.831254 238.632976 
L 850.050382 239.497687 
L 853.26951 240.241035 
L 856.488638 240.701203 
L 859.707766 241.975515 
L 862.926894 242.104463 
L 866.146022 242.668295 
L 869.36515 243.65437 
L 875.803406 245.128424 
L 879.022534 245.368622 
L 882.241663 246.076572 
L 885.460791 246.192879 
L 888.679919 247.115743 
L 891.899047 246.797165 
L 895.118175 247.92483 
L 898.337303 248.20801 
L 901.556431 248.893205 
L 904.775559 248.915961 
L 907.994687 249.221897 
L 911.213815 249.135931 
L 914.432943 250.25601 
L 917.652071 250.018341 
L 920.8712 250.546776 
L 924.090328 250.455754 
L 927.309456 250.637798 
L 930.528584 250.688366 
L 933.747712 250.314164 
L 936.96684 250.546776 
L 943.405096 250.72882 
L 946.624224 252.008189 
L 949.843352 254.784367 
L 949.843352 254.784367 
" style="fill:none;stroke:#90ed7d;stroke-linecap:square;"/>
   </g>
   <g id="line2d_10">
    <path clip-path="url(#p1e8f2a617a)" d="M 40.600625 273.99006 
L 993.140625 273.99006 
" style="fill:none;stroke:#dedede;stroke-linecap:square;stroke-width:2;"/>
   </g>
   <g id="text_15">
    <!-- Fastp: Insert Size Distribution -->
    <defs>
     <path d="M 9.8125 72.90625 
L 51.703125 72.90625 
L 51.703125 64.59375 
L 19.671875 64.59375 
L 19.671875 43.109375 
L 48.578125 43.109375 
L 48.578125 34.8125 
L 19.671875 34.8125 
L 19.671875 0 
L 9.8125 0 
z
" id="DejaVuSans-70"/>
     <path d="M 11.71875 12.40625 
L 22.015625 12.40625 
L 22.015625 0 
L 11.71875 0 
z
M 11.71875 51.703125 
L 22.015625 51.703125 
L 22.015625 39.3125 
L 11.71875 39.3125 
z
" id="DejaVuSans-58"/>
     <path d="M 53.515625 70.515625 
L 53.515625 60.890625 
Q 47.90625 63.578125 42.921875 64.890625 
Q 37.9375 66.21875 33.296875 66.21875 
Q 25.25 66.21875 20.875 63.09375 
Q 16.5 59.96875 16.5 54.203125 
Q 16.5 49.359375 19.40625 46.890625 
Q 22.3125 44.4375 30.421875 42.921875 
L 36.375 41.703125 
Q 47.40625 39.59375 52.65625 34.296875 
Q 57.90625 29 57.90625 20.125 
Q 57.90625 9.515625 50.796875 4.046875 
Q 43.703125 -1.421875 29.984375 -1.421875 
Q 24.8125 -1.421875 18.96875 -0.25 
Q 13.140625 0.921875 6.890625 3.21875 
L 6.890625 13.375 
Q 12.890625 10.015625 18.65625 8.296875 
Q 24.421875 6.59375 29.984375 6.59375 
Q 38.421875 6.59375 43.015625 9.90625 
Q 47.609375 13.234375 47.609375 19.390625 
Q 47.609375 24.75 44.3125 27.78125 
Q 41.015625 30.8125 33.5 32.328125 
L 27.484375 33.5 
Q 16.453125 35.6875 11.515625 40.375 
Q 6.59375 45.0625 6.59375 53.421875 
Q 6.59375 63.09375 13.40625 68.65625 
Q 20.21875 74.21875 32.171875 74.21875 
Q 37.3125 74.21875 42.625 73.28125 
Q 47.953125 72.359375 53.515625 70.515625 
z
" id="DejaVuSans-83"/>
     <path d="M 19.671875 64.796875 
L 19.671875 8.109375 
L 31.59375 8.109375 
Q 46.6875 8.109375 53.6875 14.9375 
Q 60.6875 21.78125 60.6875 36.53125 
Q 60.6875 51.171875 53.6875 57.984375 
Q 46.6875 64.796875 31.59375 64.796875 
z
M 9.8125 72.90625 
L 30.078125 72.90625 
Q 51.265625 72.90625 61.171875 64.09375 
Q 71.09375 55.28125 71.09375 36.53125 
Q 71.09375 17.671875 61.125 8.828125 
Q 51.171875 0 30.078125 0 
L 9.8125 0 
z
" id="DejaVuSans-68"/>
     <path d="M 48.6875 27.296875 
Q 48.6875 37.203125 44.609375 42.84375 
Q 40.53125 48.484375 33.40625 48.484375 
Q 26.265625 48.484375 22.1875 42.84375 
Q 18.109375 37.203125 18.109375 27.296875 
Q 18.109375 17.390625 22.1875 11.75 
Q 26.265625 6.109375 33.40625 6.109375 
Q 40.53125 6.109375 44.609375 11.75 
Q 48.6875 17.390625 48.6875 27.296875 
z
M 18.109375 46.390625 
Q 20.953125 51.265625 25.265625 53.625 
Q 29.59375 56 35.59375 56 
Q 45.5625 56 51.78125 48.09375 
Q 58.015625 40.1875 58.015625 27.296875 
Q 58.015625 14.40625 51.78125 6.484375 
Q 45.5625 -1.421875 35.59375 -1.421875 
Q 29.59375 -1.421875 25.265625 0.953125 
Q 20.953125 3.328125 18.109375 8.203125 
L 18.109375 0 
L 9.078125 0 
L 9.078125 75.984375 
L 18.109375 75.984375 
z
" id="DejaVuSans-98"/>
     <path d="M 8.5 21.578125 
L 8.5 54.6875 
L 17.484375 54.6875 
L 17.484375 21.921875 
Q 17.484375 14.15625 20.5 10.265625 
Q 23.53125 6.390625 29.59375 6.390625 
Q 36.859375 6.390625 41.078125 11.03125 
Q 45.3125 15.671875 45.3125 23.6875 
L 45.3125 54.6875 
L 54.296875 54.6875 
L 54.296875 0 
L 45.3125 0 
L 45.3125 8.40625 
Q 42.046875 3.421875 37.71875 1 
Q 33.40625 -1.421875 27.6875 -1.421875 
Q 18.265625 -1.421875 13.375 4.4375 
Q 8.5 10.296875 8.5 21.578125 
z
M 31.109375 56 
z
" id="DejaVuSans-117"/>
     <path d="M 30.609375 48.390625 
Q 23.390625 48.390625 19.1875 42.75 
Q 14.984375 37.109375 14.984375 27.296875 
Q 14.984375 17.484375 19.15625 11.84375 
Q 23.34375 6.203125 30.609375 6.203125 
Q 37.796875 6.203125 41.984375 11.859375 
Q 46.1875 17.53125 46.1875 27.296875 
Q 46.1875 37.015625 41.984375 42.703125 
Q 37.796875 48.390625 30.609375 48.390625 
z
M 30.609375 56 
Q 42.328125 56 49.015625 48.375 
Q 55.71875 40.765625 55.71875 27.296875 
Q 55.71875 13.875 49.015625 6.21875 
Q 42.328125 -1.421875 30.609375 -1.421875 
Q 18.84375 -1.421875 12.171875 6.21875 
Q 5.515625 13.875 5.515625 27.296875 
Q 5.515625 40.765625 12.171875 48.375 
Q 18.84375 56 30.609375 56 
z
" id="DejaVuSans-111"/>
    </defs>
    <g transform="translate(398.635625 19.3575)scale(0.16 -0.16)">
     <use xlink:href="#DejaVuSans-70"/>
     <use x="57.378906" xlink:href="#DejaVuSans-97"/>
     <use x="118.658203" xlink:href="#DejaVuSans-115"/>
     <use x="170.757812" xlink:href="#DejaVuSans-116"/>
     <use x="209.966797" xlink:href="#DejaVuSans-112"/>
     <use x="273.443359" xlink:href="#DejaVuSans-58"/>
     <use x="307.134766" xlink:href="#DejaVuSans-32"/>
     <use x="338.921875" xlink:href="#DejaVuSans-73"/>
     <use x="368.414062" xlink:href="#DejaVuSans-110"/>
     <use x="431.792969" xlink:href="#DejaVuSans-115"/>
     <use x="483.892578" xlink:href="#DejaVuSans-101"/>
     <use x="545.416016" xlink:href="#DejaVuSans-114"/>
     <use x="586.529297" xlink:href="#DejaVuSans-116"/>
     <use x="625.738281" xlink:href="#DejaVuSans-32"/>
     <use x="657.525391" xlink:href="#DejaVuSans-83"/>
     <use x="721.001953" xlink:href="#DejaVuSans-105"/>
     <use x="748.785156" xlink:href="#DejaVuSans-122"/>
     <use x="801.275391" xlink:href="#DejaVuSans-101"/>
     <use x="862.798828" xlink:href="#DejaVuSans-32"/>
     <use x="894.585938" xlink:href="#DejaVuSans-68"/>
     <use x="971.587891" xlink:href="#DejaVuSans-105"/>
     <use x="999.371094" xlink:href="#DejaVuSans-115"/>
     <use x="1051.470703" xlink:href="#DejaVuSans-116"/>
     <use x="1090.679688" xlink:href="#DejaVuSans-114"/>
     <use x="1131.792969" xlink:href="#DejaVuSans-105"/>
     <use x="1159.576172" xlink:href="#DejaVuSans-98"/>
     <use x="1223.052734" xlink:href="#DejaVuSans-117"/>
     <use x="1286.431641" xlink:href="#DejaVuSans-116"/>
     <use x="1325.640625" xlink:href="#DejaVuSans-105"/>
     <use x="1353.423828" xlink:href="#DejaVuSans-111"/>
     <use x="1414.605469" xlink:href="#DejaVuSans-110"/>
    </g>
   </g>
   <g id="legend_1">
    <g id="line2d_11">
     <path d="M 47.800625 315.455394 
L 63.800625 315.455394 
" style="fill:none;stroke:#7cb5ec;stroke-linecap:square;"/>
    </g>
    <g id="line2d_12"/>
    <g id="text_16">
     <!-- Sde-CMat_061-Ex1-7A-ssl.clmp.r1r2_fastp -->
     <defs>
      <path d="M 4.890625 31.390625 
L 31.203125 31.390625 
L 31.203125 23.390625 
L 4.890625 23.390625 
z
" id="DejaVuSans-45"/>
      <path d="M 64.40625 67.28125 
L 64.40625 56.890625 
Q 59.421875 61.53125 53.78125 63.8125 
Q 48.140625 66.109375 41.796875 66.109375 
Q 29.296875 66.109375 22.65625 58.46875 
Q 16.015625 50.828125 16.015625 36.375 
Q 16.015625 21.96875 22.65625 14.328125 
Q 29.296875 6.6875 41.796875 6.6875 
Q 48.140625 6.6875 53.78125 8.984375 
Q 59.421875 11.28125 64.40625 15.921875 
L 64.40625 5.609375 
Q 59.234375 2.09375 53.4375 0.328125 
Q 47.65625 -1.421875 41.21875 -1.421875 
Q 24.65625 -1.421875 15.125 8.703125 
Q 5.609375 18.84375 5.609375 36.375 
Q 5.609375 53.953125 15.125 64.078125 
Q 24.65625 74.21875 41.21875 74.21875 
Q 47.75 74.21875 53.53125 72.484375 
Q 59.328125 70.75 64.40625 67.28125 
z
" id="DejaVuSans-67"/>
      <path d="M 9.8125 72.90625 
L 24.515625 72.90625 
L 43.109375 23.296875 
L 61.8125 72.90625 
L 76.515625 72.90625 
L 76.515625 0 
L 66.890625 0 
L 66.890625 64.015625 
L 48.09375 14.015625 
L 38.1875 14.015625 
L 19.390625 64.015625 
L 19.390625 0 
L 9.8125 0 
z
" id="DejaVuSans-77"/>
      <path d="M 50.984375 -16.609375 
L 50.984375 -23.578125 
L -0.984375 -23.578125 
L -0.984375 -16.609375 
z
" id="DejaVuSans-95"/>
      <path d="M 9.8125 72.90625 
L 55.90625 72.90625 
L 55.90625 64.59375 
L 19.671875 64.59375 
L 19.671875 43.015625 
L 54.390625 43.015625 
L 54.390625 34.71875 
L 19.671875 34.71875 
L 19.671875 8.296875 
L 56.78125 8.296875 
L 56.78125 0 
L 9.8125 0 
z
" id="DejaVuSans-69"/>
      <path d="M 54.890625 54.6875 
L 35.109375 28.078125 
L 55.90625 0 
L 45.3125 0 
L 29.390625 21.484375 
L 13.484375 0 
L 2.875 0 
L 24.125 28.609375 
L 4.6875 54.6875 
L 15.28125 54.6875 
L 29.78125 35.203125 
L 44.28125 54.6875 
z
" id="DejaVuSans-120"/>
      <path d="M 8.203125 72.90625 
L 55.078125 72.90625 
L 55.078125 68.703125 
L 28.609375 0 
L 18.3125 0 
L 43.21875 64.59375 
L 8.203125 64.59375 
z
" id="DejaVuSans-55"/>
      <path d="M 34.1875 63.1875 
L 20.796875 26.90625 
L 47.609375 26.90625 
z
M 28.609375 72.90625 
L 39.796875 72.90625 
L 67.578125 0 
L 57.328125 0 
L 50.6875 18.703125 
L 17.828125 18.703125 
L 11.1875 0 
L 0.78125 0 
z
" id="DejaVuSans-65"/>
      <path d="M 9.421875 75.984375 
L 18.40625 75.984375 
L 18.40625 0 
L 9.421875 0 
z
" id="DejaVuSans-108"/>
      <path d="M 52 44.1875 
Q 55.375 50.25 60.0625 53.125 
Q 64.75 56 71.09375 56 
Q 79.640625 56 84.28125 50.015625 
Q 88.921875 44.046875 88.921875 33.015625 
L 88.921875 0 
L 79.890625 0 
L 79.890625 32.71875 
Q 79.890625 40.578125 77.09375 44.375 
Q 74.3125 48.1875 68.609375 48.1875 
Q 61.625 48.1875 57.5625 43.546875 
Q 53.515625 38.921875 53.515625 30.90625 
L 53.515625 0 
L 44.484375 0 
L 44.484375 32.71875 
Q 44.484375 40.625 41.703125 44.40625 
Q 38.921875 48.1875 33.109375 48.1875 
Q 26.21875 48.1875 22.15625 43.53125 
Q 18.109375 38.875 18.109375 30.90625 
L 18.109375 0 
L 9.078125 0 
L 9.078125 54.6875 
L 18.109375 54.6875 
L 18.109375 46.1875 
Q 21.1875 51.21875 25.484375 53.609375 
Q 29.78125 56 35.6875 56 
Q 41.65625 56 45.828125 52.96875 
Q 50 49.953125 52 44.1875 
z
" id="DejaVuSans-109"/>
      <path d="M 37.109375 75.984375 
L 37.109375 68.5 
L 28.515625 68.5 
Q 23.6875 68.5 21.796875 66.546875 
Q 19.921875 64.59375 19.921875 59.515625 
L 19.921875 54.6875 
L 34.71875 54.6875 
L 34.71875 47.703125 
L 19.921875 47.703125 
L 19.921875 0 
L 10.890625 0 
L 10.890625 47.703125 
L 2.296875 47.703125 
L 2.296875 54.6875 
L 10.890625 54.6875 
L 10.890625 58.5 
Q 10.890625 67.625 15.140625 71.796875 
Q 19.390625 75.984375 28.609375 75.984375 
z
" id="DejaVuSans-102"/>
     </defs>
     <g transform="translate(70.200625 318.255394)scale(0.08 -0.08)">
      <use xlink:href="#DejaVuSans-83"/>
      <use x="63.476562" xlink:href="#DejaVuSans-100"/>
      <use x="126.953125" xlink:href="#DejaVuSans-101"/>
      <use x="188.476562" xlink:href="#DejaVuSans-45"/>
      <use x="224.560547" xlink:href="#DejaVuSans-67"/>
      <use x="294.384766" xlink:href="#DejaVuSans-77"/>
      <use x="380.664062" xlink:href="#DejaVuSans-97"/>
      <use x="441.943359" xlink:href="#DejaVuSans-116"/>
      <use x="481.152344" xlink:href="#DejaVuSans-95"/>
      <use x="531.152344" xlink:href="#DejaVuSans-48"/>
      <use x="594.775391" xlink:href="#DejaVuSans-54"/>
      <use x="658.398438" xlink:href="#DejaVuSans-49"/>
      <use x="722.021484" xlink:href="#DejaVuSans-45"/>
      <use x="758.105469" xlink:href="#DejaVuSans-69"/>
      <use x="821.289062" xlink:href="#DejaVuSans-120"/>
      <use x="880.46875" xlink:href="#DejaVuSans-49"/>
      <use x="944.091797" xlink:href="#DejaVuSans-45"/>
      <use x="980.175781" xlink:href="#DejaVuSans-55"/>
      <use x="1043.798828" xlink:href="#DejaVuSans-65"/>
      <use x="1112.175781" xlink:href="#DejaVuSans-45"/>
      <use x="1148.259766" xlink:href="#DejaVuSans-115"/>
      <use x="1200.359375" xlink:href="#DejaVuSans-115"/>
      <use x="1252.458984" xlink:href="#DejaVuSans-108"/>
      <use x="1280.242188" xlink:href="#DejaVuSans-46"/>
      <use x="1312.029297" xlink:href="#DejaVuSans-99"/>
      <use x="1367.009766" xlink:href="#DejaVuSans-108"/>
      <use x="1394.792969" xlink:href="#DejaVuSans-109"/>
      <use x="1492.205078" xlink:href="#DejaVuSans-112"/>
      <use x="1555.681641" xlink:href="#DejaVuSans-46"/>
      <use x="1587.46875" xlink:href="#DejaVuSans-114"/>
      <use x="1628.582031" xlink:href="#DejaVuSans-49"/>
      <use x="1692.205078" xlink:href="#DejaVuSans-114"/>
      <use x="1733.318359" xlink:href="#DejaVuSans-50"/>
      <use x="1796.941406" xlink:href="#DejaVuSans-95"/>
      <use x="1846.941406" xlink:href="#DejaVuSans-102"/>
      <use x="1882.146484" xlink:href="#DejaVuSans-97"/>
      <use x="1943.425781" xlink:href="#DejaVuSans-115"/>
      <use x="1995.525391" xlink:href="#DejaVuSans-116"/>
      <use x="2034.734375" xlink:href="#DejaVuSans-112"/>
     </g>
    </g>
    <g id="line2d_13">
     <path d="M 421.7425 315.455394 
L 437.7425 315.455394 
" style="fill:none;stroke:#434348;stroke-linecap:square;"/>
    </g>
    <g id="line2d_14"/>
    <g id="text_17">
     <!-- Sde-CMat_061-Ex1-8A-ssl.clmp.r1r2_fastp -->
     <g transform="translate(444.1425 318.255394)scale(0.08 -0.08)">
      <use xlink:href="#DejaVuSans-83"/>
      <use x="63.476562" xlink:href="#DejaVuSans-100"/>
      <use x="126.953125" xlink:href="#DejaVuSans-101"/>
      <use x="188.476562" xlink:href="#DejaVuSans-45"/>
      <use x="224.560547" xlink:href="#DejaVuSans-67"/>
      <use x="294.384766" xlink:href="#DejaVuSans-77"/>
      <use x="380.664062" xlink:href="#DejaVuSans-97"/>
      <use x="441.943359" xlink:href="#DejaVuSans-116"/>
      <use x="481.152344" xlink:href="#DejaVuSans-95"/>
      <use x="531.152344" xlink:href="#DejaVuSans-48"/>
      <use x="594.775391" xlink:href="#DejaVuSans-54"/>
      <use x="658.398438" xlink:href="#DejaVuSans-49"/>
      <use x="722.021484" xlink:href="#DejaVuSans-45"/>
      <use x="758.105469" xlink:href="#DejaVuSans-69"/>
      <use x="821.289062" xlink:href="#DejaVuSans-120"/>
      <use x="880.46875" xlink:href="#DejaVuSans-49"/>
      <use x="944.091797" xlink:href="#DejaVuSans-45"/>
      <use x="980.175781" xlink:href="#DejaVuSans-56"/>
      <use x="1043.798828" xlink:href="#DejaVuSans-65"/>
      <use x="1112.175781" xlink:href="#DejaVuSans-45"/>
      <use x="1148.259766" xlink:href="#DejaVuSans-115"/>
      <use x="1200.359375" xlink:href="#DejaVuSans-115"/>
      <use x="1252.458984" xlink:href="#DejaVuSans-108"/>
      <use x="1280.242188" xlink:href="#DejaVuSans-46"/>
      <use x="1312.029297" xlink:href="#DejaVuSans-99"/>
      <use x="1367.009766" xlink:href="#DejaVuSans-108"/>
      <use x="1394.792969" xlink:href="#DejaVuSans-109"/>
      <use x="1492.205078" xlink:href="#DejaVuSans-112"/>
      <use x="1555.681641" xlink:href="#DejaVuSans-46"/>
      <use x="1587.46875" xlink:href="#DejaVuSans-114"/>
      <use x="1628.582031" xlink:href="#DejaVuSans-49"/>
      <use x="1692.205078" xlink:href="#DejaVuSans-114"/>
      <use x="1733.318359" xlink:href="#DejaVuSans-50"/>
      <use x="1796.941406" xlink:href="#DejaVuSans-95"/>
      <use x="1846.941406" xlink:href="#DejaVuSans-102"/>
      <use x="1882.146484" xlink:href="#DejaVuSans-97"/>
      <use x="1943.425781" xlink:href="#DejaVuSans-115"/>
      <use x="1995.525391" xlink:href="#DejaVuSans-116"/>
      <use x="2034.734375" xlink:href="#DejaVuSans-112"/>
     </g>
    </g>
    <g id="line2d_15">
     <path d="M 795.684375 315.455394 
L 811.684375 315.455394 
" style="fill:none;stroke:#90ed7d;stroke-linecap:square;"/>
    </g>
    <g id="line2d_16"/>
    <g id="text_18">
     <!-- Sde-CMat_061-Ex1-9A-ssl.clmp.r1r2_fastp -->
     <defs>
      <path d="M 10.984375 1.515625 
L 10.984375 10.5 
Q 14.703125 8.734375 18.5 7.8125 
Q 22.3125 6.890625 25.984375 6.890625 
Q 35.75 6.890625 40.890625 13.453125 
Q 46.046875 20.015625 46.78125 33.40625 
Q 43.953125 29.203125 39.59375 26.953125 
Q 35.25 24.703125 29.984375 24.703125 
Q 19.046875 24.703125 12.671875 31.3125 
Q 6.296875 37.9375 6.296875 49.421875 
Q 6.296875 60.640625 12.9375 67.421875 
Q 19.578125 74.21875 30.609375 74.21875 
Q 43.265625 74.21875 49.921875 64.515625 
Q 56.59375 54.828125 56.59375 36.375 
Q 56.59375 19.140625 48.40625 8.859375 
Q 40.234375 -1.421875 26.421875 -1.421875 
Q 22.703125 -1.421875 18.890625 -0.6875 
Q 15.09375 0.046875 10.984375 1.515625 
z
M 30.609375 32.421875 
Q 37.25 32.421875 41.125 36.953125 
Q 45.015625 41.5 45.015625 49.421875 
Q 45.015625 57.28125 41.125 61.84375 
Q 37.25 66.40625 30.609375 66.40625 
Q 23.96875 66.40625 20.09375 61.84375 
Q 16.21875 57.28125 16.21875 49.421875 
Q 16.21875 41.5 20.09375 36.953125 
Q 23.96875 32.421875 30.609375 32.421875 
z
" id="DejaVuSans-57"/>
     </defs>
     <g transform="translate(818.084375 318.255394)scale(0.08 -0.08)">
      <use xlink:href="#DejaVuSans-83"/>
      <use x="63.476562" xlink:href="#DejaVuSans-100"/>
      <use x="126.953125" xlink:href="#DejaVuSans-101"/>
      <use x="188.476562" xlink:href="#DejaVuSans-45"/>
      <use x="224.560547" xlink:href="#DejaVuSans-67"/>
      <use x="294.384766" xlink:href="#DejaVuSans-77"/>
      <use x="380.664062" xlink:href="#DejaVuSans-97"/>
      <use x="441.943359" xlink:href="#DejaVuSans-116"/>
      <use x="481.152344" xlink:href="#DejaVuSans-95"/>
      <use x="531.152344" xlink:href="#DejaVuSans-48"/>
      <use x="594.775391" xlink:href="#DejaVuSans-54"/>
      <use x="658.398438" xlink:href="#DejaVuSans-49"/>
      <use x="722.021484" xlink:href="#DejaVuSans-45"/>
      <use x="758.105469" xlink:href="#DejaVuSans-69"/>
      <use x="821.289062" xlink:href="#DejaVuSans-120"/>
      <use x="880.46875" xlink:href="#DejaVuSans-49"/>
      <use x="944.091797" xlink:href="#DejaVuSans-45"/>
      <use x="980.175781" xlink:href="#DejaVuSans-57"/>
      <use x="1043.798828" xlink:href="#DejaVuSans-65"/>
      <use x="1112.175781" xlink:href="#DejaVuSans-45"/>
      <use x="1148.259766" xlink:href="#DejaVuSans-115"/>
      <use x="1200.359375" xlink:href="#DejaVuSans-115"/>
      <use x="1252.458984" xlink:href="#DejaVuSans-108"/>
      <use x="1280.242188" xlink:href="#DejaVuSans-46"/>
      <use x="1312.029297" xlink:href="#DejaVuSans-99"/>
      <use x="1367.009766" xlink:href="#DejaVuSans-108"/>
      <use x="1394.792969" xlink:href="#DejaVuSans-109"/>
      <use x="1492.205078" xlink:href="#DejaVuSans-112"/>
      <use x="1555.681641" xlink:href="#DejaVuSans-46"/>
      <use x="1587.46875" xlink:href="#DejaVuSans-114"/>
      <use x="1628.582031" xlink:href="#DejaVuSans-49"/>
      <use x="1692.205078" xlink:href="#DejaVuSans-114"/>
      <use x="1733.318359" xlink:href="#DejaVuSans-50"/>
      <use x="1796.941406" xlink:href="#DejaVuSans-95"/>
      <use x="1846.941406" xlink:href="#DejaVuSans-102"/>
      <use x="1882.146484" xlink:href="#DejaVuSans-97"/>
      <use x="1943.425781" xlink:href="#DejaVuSans-115"/>
      <use x="1995.525391" xlink:href="#DejaVuSans-116"/>
      <use x="2034.734375" xlink:href="#DejaVuSans-112"/>
     </g>
    </g>
   </g>
  </g>
 </g>
 <defs>
  <clipPath id="p1e8f2a617a">
   <rect height="242.5072" width="952.54" x="40.600625" y="31.48286"/>
  </clipPath>
 </defs>
</svg>
